M48
; DRILL file KiCad 10.0.6 date 2026-10-08T18:40:04
; FORMAT={-:-/ absolute / metric / decimal}
; #@! TF.CreationDate,2026-10-08T18:40:04+02:00
; #@! TF.GenerationSoftware,Kicad,Pcbnew,10.0.6
; #@! TF.FileFunction,Plated,1,4,PTH
FMAT,2
METRIC
; #@! TA.AperFunction,Plated,PTH,ViaDrill
T1C0.300
; #@! TA.AperFunction,Plated,PTH,ViaDrill
T2C0.400
; #@! TA.AperFunction,Plated,PTH,ComponentDrill
T3C1.000
; #@! TA.AperFunction,Plated,PTH,ComponentDrill
T4C1.100
; #@! TA.AperFunction,Plated,PTH,ComponentDrill
T5C1.200
; #@! TA.AperFunction,Plated,PTH,ComponentDrill
T6C1.780
; #@! TA.AperFunction,Plated,PTH,ComponentDrill
T7C2.400
%
G90
G05
T1
X5.5Y-31.09
X5.75Y-34.755
X13.575Y-50.46
X13.575Y-54.27
X19.471Y-49.511
X19.727Y-54.167
X19.85Y-33.323
X23.146Y-55.182
X24.0Y-49.19
X24.0Y-56.81
X24.825Y-53.152
X28.401Y-49.793
X33.7Y-45.7
X34.425Y-57.04
X34.55Y-48.94
X38.075Y-39.08
X41.75Y-44.675
X42.62Y-40.5
X48.345Y-51.838
X49.28Y-21.4
X50.85Y-35.8
X50.965Y-40.875
X51.008Y-48.812
X52.235Y-40.875
X54.675Y-51.976
X55.5Y-49.23
X55.5Y-54.31
X57.385Y-39.6
X57.5Y-34.15
X60.65Y-52.55
X60.85Y-25.05
X61.148Y-28.939
X61.762Y-24.3
X61.975Y-52.515
X62.114Y-27.435
X62.362Y-38.15
X62.75Y-22.3
X62.988Y-25.929
X63.869Y-35.734
X65.688Y-19.55
X65.782Y-45.775
X66.8Y-54.25
X67.369Y-35.239
X68.213Y-28.3
X70.301Y-25.55
X70.301Y-29.4
X72.055Y-50.776
X72.838Y-21.75
X73.794Y-27.535
X77.175Y-29.4
X77.175Y-32.05
X77.175Y-34.7
X77.175Y-37.35
X77.175Y-40.0
X77.175Y-45.9
X77.175Y-48.55
X77.55Y-19.437
X78.737Y-42.95
X79.974Y-20.762
X85.001Y-55.35
X85.5Y-19.75
X90.15Y-56.2
X94.3Y-20.938
X98.561Y-66.733
X98.962Y-61.056
X101.693Y-58.466
X103.537Y-18.6
X104.125Y-25.965
X104.199Y-52.884
X104.25Y-50.8
X104.451Y-66.739
X104.521Y-37.096
X106.7Y-50.85
X107.286Y-58.279
X107.35Y-52.75
X108.95Y-44.675
X110.263Y-22.2
X111.032Y-43.005
X111.95Y-52.75
X112.506Y-60.792
X113.364Y-51.991
X113.6Y-33.763
T2
X5.0Y-10.0
X5.0Y-50.0
X5.0Y-70.0
X10.0Y-60.0
X12.5Y-18.5
X15.5Y-18.5
X19.275Y-60.765
X20.0Y-40.0
X26.6Y-21.8
X26.6Y-24.2
X31.4Y-21.8
X31.4Y-24.2
X33.8Y-21.8
X33.8Y-24.2
X35.0Y-30.0
X40.0Y-20.0
X43.4Y-19.4
X44.548Y-55.636
X45.2Y-21.2
X51.2Y-26.0
X53.0Y-19.4
X53.0Y-24.2
X54.304Y-37.022
X57.499Y-36.837
X64.569Y-30.915
X67.5Y-16.805
X85.0Y-30.0
X88.927Y-62.893
X89.4Y-29.75
X90.6Y-48.25
X90.6Y-51.212
X90.7Y-36.4
X90.7Y-38.4
X90.7Y-40.4
X90.7Y-42.2
X91.0Y-34.75
X91.0Y-43.25
X92.35Y-34.66
X92.9Y-37.562
X92.95Y-29.75
X93.6Y-41.8
X94.25Y-34.75
X94.3Y-26.9
X94.98Y-54.593
X95.25Y-37.562
X95.25Y-42.8
X95.4Y-34.66
X95.8Y-29.7
X96.0Y-41.8
X96.5Y-34.75
X97.6Y-37.562
X98.2Y-34.66
X98.45Y-29.7
X99.25Y-39.75
X99.3Y-34.66
X99.875Y-44.575
X101.638Y-51.039
X103.676Y-27.202
X104.854Y-31.837
X106.293Y-30.999
X111.383Y-37.267
X114.9Y-44.85
X115.885Y-59.728
X115.898Y-54.764
X145.0Y-30.0
X145.0Y-50.0
X145.0Y-70.0
T3
X17.3Y-65.0
X19.84Y-65.0
X22.38Y-65.0
X24.92Y-65.0
X27.46Y-65.0
X30.0Y-65.0
X38.0Y-53.0
X39.18Y-59.5
X40.54Y-53.0
X41.72Y-59.5
X44.26Y-59.5
X46.8Y-59.5
X49.34Y-59.5
X51.88Y-59.5
X54.42Y-59.5
X56.96Y-59.5
X59.5Y-59.5
X65.68Y-59.5
X68.22Y-59.5
X70.76Y-59.5
X73.3Y-59.5
X75.84Y-59.5
X78.38Y-59.5
X80.92Y-59.5
X83.46Y-59.5
X86.0Y-59.5
X92.08Y-56.4
X94.62Y-56.4
X97.16Y-56.4
X99.7Y-56.4
X102.24Y-56.4
X104.78Y-56.4
X107.32Y-56.4
X109.86Y-56.4
X112.4Y-56.4
X117.5Y-23.25
X117.5Y-25.79
X117.5Y-28.33
X117.5Y-30.87
X117.5Y-33.41
X117.5Y-35.95
X117.5Y-38.49
X117.5Y-41.03
X117.5Y-43.57
X117.5Y-46.11
X117.5Y-48.65
X117.5Y-51.19
X117.5Y-53.73
X117.5Y-56.27
X117.5Y-58.81
X117.5Y-61.35
X117.5Y-63.89
X117.5Y-66.43
X117.5Y-68.97
X117.5Y-71.51
X117.5Y-74.05
X117.5Y-76.59
X140.36Y-23.25
X140.36Y-25.79
X140.36Y-28.33
X140.36Y-30.87
X140.36Y-33.41
X140.36Y-35.95
X140.36Y-38.49
X140.36Y-41.03
X140.36Y-43.57
X140.36Y-46.11
X140.36Y-48.65
X140.36Y-51.19
X140.36Y-53.73
X140.36Y-56.27
X140.36Y-58.81
X140.36Y-61.35
X140.36Y-63.89
X140.36Y-66.43
X140.36Y-68.97
X140.36Y-71.51
X140.36Y-74.05
X140.36Y-76.59
T4
X13.0Y-34.0
X13.0Y-36.54
X13.0Y-39.08
X27.0Y-34.0
X27.0Y-36.54
X27.0Y-39.08
T5
X64.0Y-15.0
X69.08Y-15.0
X74.16Y-15.0
X79.24Y-15.0
X84.32Y-15.0
X89.4Y-15.0
X94.48Y-15.0
X99.56Y-15.0
X104.64Y-15.0
X109.72Y-15.0
T6
X14.0Y-21.0
X14.0Y-24.4
X23.92Y-21.0
X23.92Y-24.4
T7
X14.0Y-15.0
X21.62Y-15.0
X33.0Y-15.0
X45.0Y-15.0
X52.62Y-15.0
M30
