%TF.GenerationSoftware,KiCad,Pcbnew,10.0.6*%
%TF.CreationDate,2026-10-04T14:02:42+02:00*%
%TF.ProjectId,P10,5031302e-6b69-4636-9164-5f7063625858,P10-R2 PCB*%
%TF.SameCoordinates,Original*%
%TF.FileFunction,Soldermask,Bot*%
%TF.FilePolarity,Negative*%
%FSLAX46Y46*%
G04 Gerber Fmt 4.6, Leading zero omitted, Abs format (unit mm)*
G04 Created by KiCad (PCBNEW 10.0.6) date 2026-10-04 14:02:42*
%MOMM*%
%LPD*%
G01*
G04 APERTURE LIST*
G04 APERTURE END LIST*
G36*
X37510000Y-96810000D02*
G01*
X35810000Y-96810000D01*
X35810000Y-95110000D01*
X37510000Y-95110000D01*
X37510000Y-96810000D01*
G37*
G36*
X16586742Y-95146601D02*
G01*
X16740687Y-95210367D01*
X16879234Y-95302941D01*
X16997059Y-95420766D01*
X17089633Y-95559313D01*
X17153399Y-95713258D01*
X17185907Y-95876685D01*
X17185907Y-96043315D01*
X17153399Y-96206742D01*
X17089633Y-96360687D01*
X16997059Y-96499234D01*
X16879234Y-96617059D01*
X16740687Y-96709633D01*
X16586742Y-96773399D01*
X16423315Y-96805907D01*
X16256685Y-96805907D01*
X16093258Y-96773399D01*
X15939313Y-96709633D01*
X15800766Y-96617059D01*
X15682941Y-96499234D01*
X15590367Y-96360687D01*
X15526601Y-96206742D01*
X15494093Y-96043315D01*
X15494093Y-95876685D01*
X15526601Y-95713258D01*
X15590367Y-95559313D01*
X15682941Y-95420766D01*
X15800766Y-95302941D01*
X15939313Y-95210367D01*
X16093258Y-95146601D01*
X16256685Y-95114093D01*
X16423315Y-95114093D01*
X16586742Y-95146601D01*
G37*
G36*
X19126742Y-95146601D02*
G01*
X19280687Y-95210367D01*
X19419234Y-95302941D01*
X19537059Y-95420766D01*
X19629633Y-95559313D01*
X19693399Y-95713258D01*
X19725907Y-95876685D01*
X19725907Y-96043315D01*
X19693399Y-96206742D01*
X19629633Y-96360687D01*
X19537059Y-96499234D01*
X19419234Y-96617059D01*
X19280687Y-96709633D01*
X19126742Y-96773399D01*
X18963315Y-96805907D01*
X18796685Y-96805907D01*
X18633258Y-96773399D01*
X18479313Y-96709633D01*
X18340766Y-96617059D01*
X18222941Y-96499234D01*
X18130367Y-96360687D01*
X18066601Y-96206742D01*
X18034093Y-96043315D01*
X18034093Y-95876685D01*
X18066601Y-95713258D01*
X18130367Y-95559313D01*
X18222941Y-95420766D01*
X18340766Y-95302941D01*
X18479313Y-95210367D01*
X18633258Y-95146601D01*
X18796685Y-95114093D01*
X18963315Y-95114093D01*
X19126742Y-95146601D01*
G37*
G36*
X21666742Y-95146601D02*
G01*
X21820687Y-95210367D01*
X21959234Y-95302941D01*
X22077059Y-95420766D01*
X22169633Y-95559313D01*
X22233399Y-95713258D01*
X22265907Y-95876685D01*
X22265907Y-96043315D01*
X22233399Y-96206742D01*
X22169633Y-96360687D01*
X22077059Y-96499234D01*
X21959234Y-96617059D01*
X21820687Y-96709633D01*
X21666742Y-96773399D01*
X21503315Y-96805907D01*
X21336685Y-96805907D01*
X21173258Y-96773399D01*
X21019313Y-96709633D01*
X20880766Y-96617059D01*
X20762941Y-96499234D01*
X20670367Y-96360687D01*
X20606601Y-96206742D01*
X20574093Y-96043315D01*
X20574093Y-95876685D01*
X20606601Y-95713258D01*
X20670367Y-95559313D01*
X20762941Y-95420766D01*
X20880766Y-95302941D01*
X21019313Y-95210367D01*
X21173258Y-95146601D01*
X21336685Y-95114093D01*
X21503315Y-95114093D01*
X21666742Y-95146601D01*
G37*
G36*
X24206742Y-95146601D02*
G01*
X24360687Y-95210367D01*
X24499234Y-95302941D01*
X24617059Y-95420766D01*
X24709633Y-95559313D01*
X24773399Y-95713258D01*
X24805907Y-95876685D01*
X24805907Y-96043315D01*
X24773399Y-96206742D01*
X24709633Y-96360687D01*
X24617059Y-96499234D01*
X24499234Y-96617059D01*
X24360687Y-96709633D01*
X24206742Y-96773399D01*
X24043315Y-96805907D01*
X23876685Y-96805907D01*
X23713258Y-96773399D01*
X23559313Y-96709633D01*
X23420766Y-96617059D01*
X23302941Y-96499234D01*
X23210367Y-96360687D01*
X23146601Y-96206742D01*
X23114093Y-96043315D01*
X23114093Y-95876685D01*
X23146601Y-95713258D01*
X23210367Y-95559313D01*
X23302941Y-95420766D01*
X23420766Y-95302941D01*
X23559313Y-95210367D01*
X23713258Y-95146601D01*
X23876685Y-95114093D01*
X24043315Y-95114093D01*
X24206742Y-95146601D01*
G37*
G36*
X26746742Y-95146601D02*
G01*
X26900687Y-95210367D01*
X27039234Y-95302941D01*
X27157059Y-95420766D01*
X27249633Y-95559313D01*
X27313399Y-95713258D01*
X27345907Y-95876685D01*
X27345907Y-96043315D01*
X27313399Y-96206742D01*
X27249633Y-96360687D01*
X27157059Y-96499234D01*
X27039234Y-96617059D01*
X26900687Y-96709633D01*
X26746742Y-96773399D01*
X26583315Y-96805907D01*
X26416685Y-96805907D01*
X26253258Y-96773399D01*
X26099313Y-96709633D01*
X25960766Y-96617059D01*
X25842941Y-96499234D01*
X25750367Y-96360687D01*
X25686601Y-96206742D01*
X25654093Y-96043315D01*
X25654093Y-95876685D01*
X25686601Y-95713258D01*
X25750367Y-95559313D01*
X25842941Y-95420766D01*
X25960766Y-95302941D01*
X26099313Y-95210367D01*
X26253258Y-95146601D01*
X26416685Y-95114093D01*
X26583315Y-95114093D01*
X26746742Y-95146601D01*
G37*
G36*
X29286742Y-95146601D02*
G01*
X29440687Y-95210367D01*
X29579234Y-95302941D01*
X29697059Y-95420766D01*
X29789633Y-95559313D01*
X29853399Y-95713258D01*
X29885907Y-95876685D01*
X29885907Y-96043315D01*
X29853399Y-96206742D01*
X29789633Y-96360687D01*
X29697059Y-96499234D01*
X29579234Y-96617059D01*
X29440687Y-96709633D01*
X29286742Y-96773399D01*
X29123315Y-96805907D01*
X28956685Y-96805907D01*
X28793258Y-96773399D01*
X28639313Y-96709633D01*
X28500766Y-96617059D01*
X28382941Y-96499234D01*
X28290367Y-96360687D01*
X28226601Y-96206742D01*
X28194093Y-96043315D01*
X28194093Y-95876685D01*
X28226601Y-95713258D01*
X28290367Y-95559313D01*
X28382941Y-95420766D01*
X28500766Y-95302941D01*
X28639313Y-95210367D01*
X28793258Y-95146601D01*
X28956685Y-95114093D01*
X29123315Y-95114093D01*
X29286742Y-95146601D01*
G37*
G36*
X31826742Y-95146601D02*
G01*
X31980687Y-95210367D01*
X32119234Y-95302941D01*
X32237059Y-95420766D01*
X32329633Y-95559313D01*
X32393399Y-95713258D01*
X32425907Y-95876685D01*
X32425907Y-96043315D01*
X32393399Y-96206742D01*
X32329633Y-96360687D01*
X32237059Y-96499234D01*
X32119234Y-96617059D01*
X31980687Y-96709633D01*
X31826742Y-96773399D01*
X31663315Y-96805907D01*
X31496685Y-96805907D01*
X31333258Y-96773399D01*
X31179313Y-96709633D01*
X31040766Y-96617059D01*
X30922941Y-96499234D01*
X30830367Y-96360687D01*
X30766601Y-96206742D01*
X30734093Y-96043315D01*
X30734093Y-95876685D01*
X30766601Y-95713258D01*
X30830367Y-95559313D01*
X30922941Y-95420766D01*
X31040766Y-95302941D01*
X31179313Y-95210367D01*
X31333258Y-95146601D01*
X31496685Y-95114093D01*
X31663315Y-95114093D01*
X31826742Y-95146601D01*
G37*
G36*
X34366742Y-95146601D02*
G01*
X34520687Y-95210367D01*
X34659234Y-95302941D01*
X34777059Y-95420766D01*
X34869633Y-95559313D01*
X34933399Y-95713258D01*
X34965907Y-95876685D01*
X34965907Y-96043315D01*
X34933399Y-96206742D01*
X34869633Y-96360687D01*
X34777059Y-96499234D01*
X34659234Y-96617059D01*
X34520687Y-96709633D01*
X34366742Y-96773399D01*
X34203315Y-96805907D01*
X34036685Y-96805907D01*
X33873258Y-96773399D01*
X33719313Y-96709633D01*
X33580766Y-96617059D01*
X33462941Y-96499234D01*
X33370367Y-96360687D01*
X33306601Y-96206742D01*
X33274093Y-96043315D01*
X33274093Y-95876685D01*
X33306601Y-95713258D01*
X33370367Y-95559313D01*
X33462941Y-95420766D01*
X33580766Y-95302941D01*
X33719313Y-95210367D01*
X33873258Y-95146601D01*
X34036685Y-95114093D01*
X34203315Y-95114093D01*
X34366742Y-95146601D01*
G37*
G36*
X15457228Y-66604448D02*
G01*
X15602117Y-66664463D01*
X15732515Y-66751592D01*
X15843408Y-66862485D01*
X15930537Y-66992883D01*
X15990552Y-67137772D01*
X16021148Y-67291586D01*
X16021148Y-67448414D01*
X15990552Y-67602228D01*
X15930537Y-67747117D01*
X15843408Y-67877515D01*
X15732515Y-67988408D01*
X15602117Y-68075537D01*
X15457228Y-68135552D01*
X15303414Y-68166148D01*
X15146586Y-68166148D01*
X14992772Y-68135552D01*
X14847883Y-68075537D01*
X14717485Y-67988408D01*
X14606592Y-67877515D01*
X14519463Y-67747117D01*
X14459448Y-67602228D01*
X14428852Y-67448414D01*
X14428852Y-67291586D01*
X14459448Y-67137772D01*
X14519463Y-66992883D01*
X14606592Y-66862485D01*
X14717485Y-66751592D01*
X14847883Y-66664463D01*
X14992772Y-66604448D01*
X15146586Y-66573852D01*
X15303414Y-66573852D01*
X15457228Y-66604448D01*
G37*
G36*
X10757228Y-66544448D02*
G01*
X10902117Y-66604463D01*
X11032515Y-66691592D01*
X11143408Y-66802485D01*
X11230537Y-66932883D01*
X11290552Y-67077772D01*
X11321148Y-67231586D01*
X11321148Y-67388414D01*
X11290552Y-67542228D01*
X11230537Y-67687117D01*
X11143408Y-67817515D01*
X11032515Y-67928408D01*
X10902117Y-68015537D01*
X10757228Y-68075552D01*
X10603414Y-68106148D01*
X10446586Y-68106148D01*
X10292772Y-68075552D01*
X10147883Y-68015537D01*
X10017485Y-67928408D01*
X9906592Y-67817515D01*
X9819463Y-67687117D01*
X9759448Y-67542228D01*
X9728852Y-67388414D01*
X9728852Y-67231586D01*
X9759448Y-67077772D01*
X9819463Y-66932883D01*
X9906592Y-66802485D01*
X10017485Y-66691592D01*
X10147883Y-66604463D01*
X10292772Y-66544448D01*
X10446586Y-66513852D01*
X10603414Y-66513852D01*
X10757228Y-66544448D01*
G37*
G36*
X27507228Y-65639448D02*
G01*
X27652117Y-65699463D01*
X27782515Y-65786592D01*
X27893408Y-65897485D01*
X27980537Y-66027883D01*
X28040552Y-66172772D01*
X28071148Y-66326586D01*
X28071148Y-66483414D01*
X28040552Y-66637228D01*
X27980537Y-66782117D01*
X27893408Y-66912515D01*
X27782515Y-67023408D01*
X27652117Y-67110537D01*
X27507228Y-67170552D01*
X27353414Y-67201148D01*
X27196586Y-67201148D01*
X27042772Y-67170552D01*
X26897883Y-67110537D01*
X26767485Y-67023408D01*
X26656592Y-66912515D01*
X26569463Y-66782117D01*
X26509448Y-66637228D01*
X26478852Y-66483414D01*
X26478852Y-66326586D01*
X26509448Y-66172772D01*
X26569463Y-66027883D01*
X26656592Y-65897485D01*
X26767485Y-65786592D01*
X26897883Y-65699463D01*
X27042772Y-65639448D01*
X27196586Y-65608852D01*
X27353414Y-65608852D01*
X27507228Y-65639448D01*
G37*
G36*
X35232228Y-65484448D02*
G01*
X35377117Y-65544463D01*
X35507515Y-65631592D01*
X35618408Y-65742485D01*
X35705537Y-65872883D01*
X35765552Y-66017772D01*
X35796148Y-66171586D01*
X35796148Y-66328414D01*
X35765552Y-66482228D01*
X35705537Y-66627117D01*
X35618408Y-66757515D01*
X35507515Y-66868408D01*
X35377117Y-66955537D01*
X35232228Y-67015552D01*
X35078414Y-67046148D01*
X34921586Y-67046148D01*
X34767772Y-67015552D01*
X34622883Y-66955537D01*
X34492485Y-66868408D01*
X34381592Y-66757515D01*
X34294463Y-66627117D01*
X34234448Y-66482228D01*
X34203852Y-66328414D01*
X34203852Y-66171586D01*
X34234448Y-66017772D01*
X34294463Y-65872883D01*
X34381592Y-65742485D01*
X34492485Y-65631592D01*
X34622883Y-65544463D01*
X34767772Y-65484448D01*
X34921586Y-65453852D01*
X35078414Y-65453852D01*
X35232228Y-65484448D01*
G37*
G36*
X40312228Y-65484448D02*
G01*
X40457117Y-65544463D01*
X40587515Y-65631592D01*
X40698408Y-65742485D01*
X40785537Y-65872883D01*
X40845552Y-66017772D01*
X40876148Y-66171586D01*
X40876148Y-66328414D01*
X40845552Y-66482228D01*
X40785537Y-66627117D01*
X40698408Y-66757515D01*
X40587515Y-66868408D01*
X40457117Y-66955537D01*
X40312228Y-67015552D01*
X40158414Y-67046148D01*
X40001586Y-67046148D01*
X39847772Y-67015552D01*
X39702883Y-66955537D01*
X39572485Y-66868408D01*
X39461592Y-66757515D01*
X39374463Y-66627117D01*
X39314448Y-66482228D01*
X39283852Y-66328414D01*
X39283852Y-66171586D01*
X39314448Y-66017772D01*
X39374463Y-65872883D01*
X39461592Y-65742485D01*
X39572485Y-65631592D01*
X39702883Y-65544463D01*
X39847772Y-65484448D01*
X40001586Y-65453852D01*
X40158414Y-65453852D01*
X40312228Y-65484448D01*
G37*
G36*
X47373513Y-60444208D02*
G01*
X47612293Y-60521793D01*
X47835998Y-60635776D01*
X48039117Y-60783350D01*
X48216650Y-60960883D01*
X48364224Y-61164002D01*
X48478207Y-61387707D01*
X48555792Y-61626487D01*
X48595068Y-61874465D01*
X48595068Y-62125535D01*
X48555792Y-62373513D01*
X48478207Y-62612293D01*
X48364224Y-62835998D01*
X48216650Y-63039117D01*
X48039117Y-63216650D01*
X47835998Y-63364224D01*
X47612293Y-63478207D01*
X47373513Y-63555792D01*
X47125535Y-63595068D01*
X46874465Y-63595068D01*
X46626487Y-63555792D01*
X46387707Y-63478207D01*
X46164002Y-63364224D01*
X45960883Y-63216650D01*
X45783350Y-63039117D01*
X45635776Y-62835998D01*
X45521793Y-62612293D01*
X45444208Y-62373513D01*
X45404932Y-62125535D01*
X45404932Y-61874465D01*
X45444208Y-61626487D01*
X45521793Y-61387707D01*
X45635776Y-61164002D01*
X45783350Y-60960883D01*
X45960883Y-60783350D01*
X46164002Y-60635776D01*
X46387707Y-60521793D01*
X46626487Y-60444208D01*
X46874465Y-60404932D01*
X47125535Y-60404932D01*
X47373513Y-60444208D01*
G37*
G36*
X10757228Y-61544448D02*
G01*
X10902117Y-61604463D01*
X11032515Y-61691592D01*
X11143408Y-61802485D01*
X11230537Y-61932883D01*
X11290552Y-62077772D01*
X11321148Y-62231586D01*
X11321148Y-62388414D01*
X11290552Y-62542228D01*
X11230537Y-62687117D01*
X11143408Y-62817515D01*
X11032515Y-62928408D01*
X10902117Y-63015537D01*
X10757228Y-63075552D01*
X10603414Y-63106148D01*
X10446586Y-63106148D01*
X10292772Y-63075552D01*
X10147883Y-63015537D01*
X10017485Y-62928408D01*
X9906592Y-62817515D01*
X9819463Y-62687117D01*
X9759448Y-62542228D01*
X9728852Y-62388414D01*
X9728852Y-62231586D01*
X9759448Y-62077772D01*
X9819463Y-61932883D01*
X9906592Y-61802485D01*
X10017485Y-61691592D01*
X10147883Y-61604463D01*
X10292772Y-61544448D01*
X10446586Y-61513852D01*
X10603414Y-61513852D01*
X10757228Y-61544448D01*
G37*
G36*
X15457228Y-61524448D02*
G01*
X15602117Y-61584463D01*
X15732515Y-61671592D01*
X15843408Y-61782485D01*
X15930537Y-61912883D01*
X15990552Y-62057772D01*
X16021148Y-62211586D01*
X16021148Y-62368414D01*
X15990552Y-62522228D01*
X15930537Y-62667117D01*
X15843408Y-62797515D01*
X15732515Y-62908408D01*
X15602117Y-62995537D01*
X15457228Y-63055552D01*
X15303414Y-63086148D01*
X15146586Y-63086148D01*
X14992772Y-63055552D01*
X14847883Y-62995537D01*
X14717485Y-62908408D01*
X14606592Y-62797515D01*
X14519463Y-62667117D01*
X14459448Y-62522228D01*
X14428852Y-62368414D01*
X14428852Y-62211586D01*
X14459448Y-62057772D01*
X14519463Y-61912883D01*
X14606592Y-61782485D01*
X14717485Y-61671592D01*
X14847883Y-61584463D01*
X14992772Y-61524448D01*
X15146586Y-61493852D01*
X15303414Y-61493852D01*
X15457228Y-61524448D01*
G37*
G36*
X27507228Y-60639448D02*
G01*
X27652117Y-60699463D01*
X27782515Y-60786592D01*
X27893408Y-60897485D01*
X27980537Y-61027883D01*
X28040552Y-61172772D01*
X28071148Y-61326586D01*
X28071148Y-61483414D01*
X28040552Y-61637228D01*
X27980537Y-61782117D01*
X27893408Y-61912515D01*
X27782515Y-62023408D01*
X27652117Y-62110537D01*
X27507228Y-62170552D01*
X27353414Y-62201148D01*
X27196586Y-62201148D01*
X27042772Y-62170552D01*
X26897883Y-62110537D01*
X26767485Y-62023408D01*
X26656592Y-61912515D01*
X26569463Y-61782117D01*
X26509448Y-61637228D01*
X26478852Y-61483414D01*
X26478852Y-61326586D01*
X26509448Y-61172772D01*
X26569463Y-61027883D01*
X26656592Y-60897485D01*
X26767485Y-60786592D01*
X26897883Y-60699463D01*
X27042772Y-60639448D01*
X27196586Y-60608852D01*
X27353414Y-60608852D01*
X27507228Y-60639448D01*
G37*
G36*
X35290285Y-57543060D02*
G01*
X35471397Y-57618079D01*
X35634393Y-57726990D01*
X35773010Y-57865607D01*
X35881921Y-58028603D01*
X35956940Y-58209715D01*
X35995185Y-58401983D01*
X35995185Y-58598017D01*
X35956940Y-58790285D01*
X35881921Y-58971397D01*
X35773010Y-59134393D01*
X35634393Y-59273010D01*
X35471397Y-59381921D01*
X35290285Y-59456940D01*
X35098017Y-59495185D01*
X34901983Y-59495185D01*
X34709715Y-59456940D01*
X34528603Y-59381921D01*
X34365607Y-59273010D01*
X34226990Y-59134393D01*
X34118079Y-58971397D01*
X34043060Y-58790285D01*
X34004815Y-58598017D01*
X34004815Y-58401983D01*
X34043060Y-58209715D01*
X34118079Y-58028603D01*
X34226990Y-57865607D01*
X34365607Y-57726990D01*
X34528603Y-57618079D01*
X34709715Y-57543060D01*
X34901983Y-57504815D01*
X35098017Y-57504815D01*
X35290285Y-57543060D01*
G37*
G36*
X19057228Y-56619448D02*
G01*
X19202117Y-56679463D01*
X19332515Y-56766592D01*
X19443408Y-56877485D01*
X19530537Y-57007883D01*
X19590552Y-57152772D01*
X19621148Y-57306586D01*
X19621148Y-57463414D01*
X19590552Y-57617228D01*
X19530537Y-57762117D01*
X19443408Y-57892515D01*
X19332515Y-58003408D01*
X19202117Y-58090537D01*
X19057228Y-58150552D01*
X18903414Y-58181148D01*
X18746586Y-58181148D01*
X18592772Y-58150552D01*
X18447883Y-58090537D01*
X18317485Y-58003408D01*
X18206592Y-57892515D01*
X18119463Y-57762117D01*
X18059448Y-57617228D01*
X18028852Y-57463414D01*
X18028852Y-57306586D01*
X18059448Y-57152772D01*
X18119463Y-57007883D01*
X18206592Y-56877485D01*
X18317485Y-56766592D01*
X18447883Y-56679463D01*
X18592772Y-56619448D01*
X18746586Y-56588852D01*
X18903414Y-56588852D01*
X19057228Y-56619448D01*
G37*
G36*
X36000000Y-56000000D02*
G01*
X34000000Y-56000000D01*
X34000000Y-54000000D01*
X36000000Y-54000000D01*
X36000000Y-56000000D01*
G37*
G36*
X19057228Y-51619448D02*
G01*
X19202117Y-51679463D01*
X19332515Y-51766592D01*
X19443408Y-51877485D01*
X19530537Y-52007883D01*
X19590552Y-52152772D01*
X19621148Y-52306586D01*
X19621148Y-52463414D01*
X19590552Y-52617228D01*
X19530537Y-52762117D01*
X19443408Y-52892515D01*
X19332515Y-53003408D01*
X19202117Y-53090537D01*
X19057228Y-53150552D01*
X18903414Y-53181148D01*
X18746586Y-53181148D01*
X18592772Y-53150552D01*
X18447883Y-53090537D01*
X18317485Y-53003408D01*
X18206592Y-52892515D01*
X18119463Y-52762117D01*
X18059448Y-52617228D01*
X18028852Y-52463414D01*
X18028852Y-52306586D01*
X18059448Y-52152772D01*
X18119463Y-52007883D01*
X18206592Y-51877485D01*
X18317485Y-51766592D01*
X18447883Y-51679463D01*
X18592772Y-51619448D01*
X18746586Y-51588852D01*
X18903414Y-51588852D01*
X19057228Y-51619448D01*
G37*
G36*
X47373513Y-49944208D02*
G01*
X47612293Y-50021793D01*
X47835998Y-50135776D01*
X48039117Y-50283350D01*
X48216650Y-50460883D01*
X48364224Y-50664002D01*
X48478207Y-50887707D01*
X48555792Y-51126487D01*
X48595068Y-51374465D01*
X48595068Y-51625535D01*
X48555792Y-51873513D01*
X48478207Y-52112293D01*
X48364224Y-52335998D01*
X48216650Y-52539117D01*
X48039117Y-52716650D01*
X47835998Y-52864224D01*
X47612293Y-52978207D01*
X47373513Y-53055792D01*
X47125535Y-53095068D01*
X46874465Y-53095068D01*
X46626487Y-53055792D01*
X46387707Y-52978207D01*
X46164002Y-52864224D01*
X45960883Y-52716650D01*
X45783350Y-52539117D01*
X45635776Y-52335998D01*
X45521793Y-52112293D01*
X45444208Y-51873513D01*
X45404932Y-51625535D01*
X45404932Y-51374465D01*
X45444208Y-51126487D01*
X45521793Y-50887707D01*
X45635776Y-50664002D01*
X45783350Y-50460883D01*
X45960883Y-50283350D01*
X46164002Y-50135776D01*
X46387707Y-50021793D01*
X46626487Y-49944208D01*
X46874465Y-49904932D01*
X47125535Y-49904932D01*
X47373513Y-49944208D01*
G37*
G36*
X31482228Y-50984448D02*
G01*
X31627117Y-51044463D01*
X31757515Y-51131592D01*
X31868408Y-51242485D01*
X31955537Y-51372883D01*
X32015552Y-51517772D01*
X32046148Y-51671586D01*
X32046148Y-51828414D01*
X32015552Y-51982228D01*
X31955537Y-52127117D01*
X31868408Y-52257515D01*
X31757515Y-52368408D01*
X31627117Y-52455537D01*
X31482228Y-52515552D01*
X31328414Y-52546148D01*
X31171586Y-52546148D01*
X31017772Y-52515552D01*
X30872883Y-52455537D01*
X30742485Y-52368408D01*
X30631592Y-52257515D01*
X30544463Y-52127117D01*
X30484448Y-51982228D01*
X30453852Y-51828414D01*
X30453852Y-51671586D01*
X30484448Y-51517772D01*
X30544463Y-51372883D01*
X30631592Y-51242485D01*
X30742485Y-51131592D01*
X30872883Y-51044463D01*
X31017772Y-50984448D01*
X31171586Y-50953852D01*
X31328414Y-50953852D01*
X31482228Y-50984448D01*
G37*
G36*
X31482228Y-45904448D02*
G01*
X31627117Y-45964463D01*
X31757515Y-46051592D01*
X31868408Y-46162485D01*
X31955537Y-46292883D01*
X32015552Y-46437772D01*
X32046148Y-46591586D01*
X32046148Y-46748414D01*
X32015552Y-46902228D01*
X31955537Y-47047117D01*
X31868408Y-47177515D01*
X31757515Y-47288408D01*
X31627117Y-47375537D01*
X31482228Y-47435552D01*
X31328414Y-47466148D01*
X31171586Y-47466148D01*
X31017772Y-47435552D01*
X30872883Y-47375537D01*
X30742485Y-47288408D01*
X30631592Y-47177515D01*
X30544463Y-47047117D01*
X30484448Y-46902228D01*
X30453852Y-46748414D01*
X30453852Y-46591586D01*
X30484448Y-46437772D01*
X30544463Y-46292883D01*
X30631592Y-46162485D01*
X30742485Y-46051592D01*
X30872883Y-45964463D01*
X31017772Y-45904448D01*
X31171586Y-45873852D01*
X31328414Y-45873852D01*
X31482228Y-45904448D01*
G37*
G36*
X22024047Y-12480805D02*
G01*
X22075408Y-12486764D01*
X22092954Y-12494511D01*
X22115671Y-12499030D01*
X22139991Y-12515280D01*
X22160793Y-12524465D01*
X22175000Y-12538672D01*
X22196777Y-12553223D01*
X22211327Y-12574999D01*
X22225534Y-12589206D01*
X22234718Y-12610006D01*
X22250970Y-12634329D01*
X22255489Y-12657048D01*
X22263235Y-12674591D01*
X22269192Y-12725940D01*
X22270000Y-12730000D01*
X22270000Y-13930000D01*
X22269192Y-13934059D01*
X22263235Y-13985408D01*
X22255489Y-14002950D01*
X22250970Y-14025671D01*
X22234716Y-14049995D01*
X22225534Y-14070793D01*
X22211329Y-14084997D01*
X22196777Y-14106777D01*
X22174997Y-14121329D01*
X22160793Y-14135534D01*
X22139995Y-14144716D01*
X22115671Y-14160970D01*
X22092950Y-14165489D01*
X22075408Y-14173235D01*
X22024061Y-14179192D01*
X22020000Y-14180000D01*
X20820000Y-14180000D01*
X20815941Y-14179192D01*
X20764591Y-14173235D01*
X20747048Y-14165489D01*
X20724329Y-14160970D01*
X20700006Y-14144718D01*
X20679206Y-14135534D01*
X20664999Y-14121327D01*
X20643223Y-14106777D01*
X20628672Y-14085000D01*
X20614465Y-14070793D01*
X20605280Y-14049991D01*
X20589030Y-14025671D01*
X20584511Y-14002954D01*
X20576764Y-13985408D01*
X20570805Y-13934049D01*
X20570000Y-13930000D01*
X20570000Y-12730000D01*
X20570804Y-12725953D01*
X20576764Y-12674591D01*
X20584511Y-12657043D01*
X20589030Y-12634329D01*
X20605278Y-12610010D01*
X20614465Y-12589206D01*
X20628674Y-12574996D01*
X20643223Y-12553223D01*
X20664996Y-12538674D01*
X20679206Y-12524465D01*
X20700010Y-12515278D01*
X20724329Y-12499030D01*
X20747043Y-12494511D01*
X20764591Y-12486764D01*
X20815952Y-12480805D01*
X20820000Y-12480000D01*
X22020000Y-12480000D01*
X22024047Y-12480805D01*
G37*
G36*
X24206742Y-12516601D02*
G01*
X24360687Y-12580367D01*
X24499234Y-12672941D01*
X24617059Y-12790766D01*
X24709633Y-12929313D01*
X24773399Y-13083258D01*
X24805907Y-13246685D01*
X24805907Y-13413315D01*
X24773399Y-13576742D01*
X24709633Y-13730687D01*
X24617059Y-13869234D01*
X24499234Y-13987059D01*
X24360687Y-14079633D01*
X24206742Y-14143399D01*
X24043315Y-14175907D01*
X23876685Y-14175907D01*
X23713258Y-14143399D01*
X23559313Y-14079633D01*
X23420766Y-13987059D01*
X23302941Y-13869234D01*
X23210367Y-13730687D01*
X23146601Y-13576742D01*
X23114093Y-13413315D01*
X23114093Y-13246685D01*
X23146601Y-13083258D01*
X23210367Y-12929313D01*
X23302941Y-12790766D01*
X23420766Y-12672941D01*
X23559313Y-12580367D01*
X23713258Y-12516601D01*
X23876685Y-12484093D01*
X24043315Y-12484093D01*
X24206742Y-12516601D01*
G37*
G36*
X26746742Y-12516601D02*
G01*
X26900687Y-12580367D01*
X27039234Y-12672941D01*
X27157059Y-12790766D01*
X27249633Y-12929313D01*
X27313399Y-13083258D01*
X27345907Y-13246685D01*
X27345907Y-13413315D01*
X27313399Y-13576742D01*
X27249633Y-13730687D01*
X27157059Y-13869234D01*
X27039234Y-13987059D01*
X26900687Y-14079633D01*
X26746742Y-14143399D01*
X26583315Y-14175907D01*
X26416685Y-14175907D01*
X26253258Y-14143399D01*
X26099313Y-14079633D01*
X25960766Y-13987059D01*
X25842941Y-13869234D01*
X25750367Y-13730687D01*
X25686601Y-13576742D01*
X25654093Y-13413315D01*
X25654093Y-13246685D01*
X25686601Y-13083258D01*
X25750367Y-12929313D01*
X25842941Y-12790766D01*
X25960766Y-12672941D01*
X26099313Y-12580367D01*
X26253258Y-12516601D01*
X26416685Y-12484093D01*
X26583315Y-12484093D01*
X26746742Y-12516601D01*
G37*
G36*
X29286742Y-12516601D02*
G01*
X29440687Y-12580367D01*
X29579234Y-12672941D01*
X29697059Y-12790766D01*
X29789633Y-12929313D01*
X29853399Y-13083258D01*
X29885907Y-13246685D01*
X29885907Y-13413315D01*
X29853399Y-13576742D01*
X29789633Y-13730687D01*
X29697059Y-13869234D01*
X29579234Y-13987059D01*
X29440687Y-14079633D01*
X29286742Y-14143399D01*
X29123315Y-14175907D01*
X28956685Y-14175907D01*
X28793258Y-14143399D01*
X28639313Y-14079633D01*
X28500766Y-13987059D01*
X28382941Y-13869234D01*
X28290367Y-13730687D01*
X28226601Y-13576742D01*
X28194093Y-13413315D01*
X28194093Y-13246685D01*
X28226601Y-13083258D01*
X28290367Y-12929313D01*
X28382941Y-12790766D01*
X28500766Y-12672941D01*
X28639313Y-12580367D01*
X28793258Y-12516601D01*
X28956685Y-12484093D01*
X29123315Y-12484093D01*
X29286742Y-12516601D01*
G37*
G36*
X31826742Y-12516601D02*
G01*
X31980687Y-12580367D01*
X32119234Y-12672941D01*
X32237059Y-12790766D01*
X32329633Y-12929313D01*
X32393399Y-13083258D01*
X32425907Y-13246685D01*
X32425907Y-13413315D01*
X32393399Y-13576742D01*
X32329633Y-13730687D01*
X32237059Y-13869234D01*
X32119234Y-13987059D01*
X31980687Y-14079633D01*
X31826742Y-14143399D01*
X31663315Y-14175907D01*
X31496685Y-14175907D01*
X31333258Y-14143399D01*
X31179313Y-14079633D01*
X31040766Y-13987059D01*
X30922941Y-13869234D01*
X30830367Y-13730687D01*
X30766601Y-13576742D01*
X30734093Y-13413315D01*
X30734093Y-13246685D01*
X30766601Y-13083258D01*
X30830367Y-12929313D01*
X30922941Y-12790766D01*
X31040766Y-12672941D01*
X31179313Y-12580367D01*
X31333258Y-12516601D01*
X31496685Y-12484093D01*
X31663315Y-12484093D01*
X31826742Y-12516601D01*
G37*
G36*
X21666742Y-9976601D02*
G01*
X21820687Y-10040367D01*
X21959234Y-10132941D01*
X22077059Y-10250766D01*
X22169633Y-10389313D01*
X22233399Y-10543258D01*
X22265907Y-10706685D01*
X22265907Y-10873315D01*
X22233399Y-11036742D01*
X22169633Y-11190687D01*
X22077059Y-11329234D01*
X21959234Y-11447059D01*
X21820687Y-11539633D01*
X21666742Y-11603399D01*
X21503315Y-11635907D01*
X21336685Y-11635907D01*
X21173258Y-11603399D01*
X21019313Y-11539633D01*
X20880766Y-11447059D01*
X20762941Y-11329234D01*
X20670367Y-11190687D01*
X20606601Y-11036742D01*
X20574093Y-10873315D01*
X20574093Y-10706685D01*
X20606601Y-10543258D01*
X20670367Y-10389313D01*
X20762941Y-10250766D01*
X20880766Y-10132941D01*
X21019313Y-10040367D01*
X21173258Y-9976601D01*
X21336685Y-9944093D01*
X21503315Y-9944093D01*
X21666742Y-9976601D01*
G37*
G36*
X24206742Y-9976601D02*
G01*
X24360687Y-10040367D01*
X24499234Y-10132941D01*
X24617059Y-10250766D01*
X24709633Y-10389313D01*
X24773399Y-10543258D01*
X24805907Y-10706685D01*
X24805907Y-10873315D01*
X24773399Y-11036742D01*
X24709633Y-11190687D01*
X24617059Y-11329234D01*
X24499234Y-11447059D01*
X24360687Y-11539633D01*
X24206742Y-11603399D01*
X24043315Y-11635907D01*
X23876685Y-11635907D01*
X23713258Y-11603399D01*
X23559313Y-11539633D01*
X23420766Y-11447059D01*
X23302941Y-11329234D01*
X23210367Y-11190687D01*
X23146601Y-11036742D01*
X23114093Y-10873315D01*
X23114093Y-10706685D01*
X23146601Y-10543258D01*
X23210367Y-10389313D01*
X23302941Y-10250766D01*
X23420766Y-10132941D01*
X23559313Y-10040367D01*
X23713258Y-9976601D01*
X23876685Y-9944093D01*
X24043315Y-9944093D01*
X24206742Y-9976601D01*
G37*
G36*
X26746742Y-9976601D02*
G01*
X26900687Y-10040367D01*
X27039234Y-10132941D01*
X27157059Y-10250766D01*
X27249633Y-10389313D01*
X27313399Y-10543258D01*
X27345907Y-10706685D01*
X27345907Y-10873315D01*
X27313399Y-11036742D01*
X27249633Y-11190687D01*
X27157059Y-11329234D01*
X27039234Y-11447059D01*
X26900687Y-11539633D01*
X26746742Y-11603399D01*
X26583315Y-11635907D01*
X26416685Y-11635907D01*
X26253258Y-11603399D01*
X26099313Y-11539633D01*
X25960766Y-11447059D01*
X25842941Y-11329234D01*
X25750367Y-11190687D01*
X25686601Y-11036742D01*
X25654093Y-10873315D01*
X25654093Y-10706685D01*
X25686601Y-10543258D01*
X25750367Y-10389313D01*
X25842941Y-10250766D01*
X25960766Y-10132941D01*
X26099313Y-10040367D01*
X26253258Y-9976601D01*
X26416685Y-9944093D01*
X26583315Y-9944093D01*
X26746742Y-9976601D01*
G37*
G36*
X29286742Y-9976601D02*
G01*
X29440687Y-10040367D01*
X29579234Y-10132941D01*
X29697059Y-10250766D01*
X29789633Y-10389313D01*
X29853399Y-10543258D01*
X29885907Y-10706685D01*
X29885907Y-10873315D01*
X29853399Y-11036742D01*
X29789633Y-11190687D01*
X29697059Y-11329234D01*
X29579234Y-11447059D01*
X29440687Y-11539633D01*
X29286742Y-11603399D01*
X29123315Y-11635907D01*
X28956685Y-11635907D01*
X28793258Y-11603399D01*
X28639313Y-11539633D01*
X28500766Y-11447059D01*
X28382941Y-11329234D01*
X28290367Y-11190687D01*
X28226601Y-11036742D01*
X28194093Y-10873315D01*
X28194093Y-10706685D01*
X28226601Y-10543258D01*
X28290367Y-10389313D01*
X28382941Y-10250766D01*
X28500766Y-10132941D01*
X28639313Y-10040367D01*
X28793258Y-9976601D01*
X28956685Y-9944093D01*
X29123315Y-9944093D01*
X29286742Y-9976601D01*
G37*
G36*
X31826742Y-9976601D02*
G01*
X31980687Y-10040367D01*
X32119234Y-10132941D01*
X32237059Y-10250766D01*
X32329633Y-10389313D01*
X32393399Y-10543258D01*
X32425907Y-10706685D01*
X32425907Y-10873315D01*
X32393399Y-11036742D01*
X32329633Y-11190687D01*
X32237059Y-11329234D01*
X32119234Y-11447059D01*
X31980687Y-11539633D01*
X31826742Y-11603399D01*
X31663315Y-11635907D01*
X31496685Y-11635907D01*
X31333258Y-11603399D01*
X31179313Y-11539633D01*
X31040766Y-11447059D01*
X30922941Y-11329234D01*
X30830367Y-11190687D01*
X30766601Y-11036742D01*
X30734093Y-10873315D01*
X30734093Y-10706685D01*
X30766601Y-10543258D01*
X30830367Y-10389313D01*
X30922941Y-10250766D01*
X31040766Y-10132941D01*
X31179313Y-10040367D01*
X31333258Y-9976601D01*
X31496685Y-9944093D01*
X31663315Y-9944093D01*
X31826742Y-9976601D01*
G37*
M02*
