%TF.GenerationSoftware,KiCad,Pcbnew,10.0.6*%
%TF.CreationDate,2026-10-04T14:02:42+02:00*%
%TF.ProjectId,P10,5031302e-6b69-4636-9164-5f7063625858,P10-R2 PCB*%
%TF.SameCoordinates,Original*%
%TF.FileFunction,Copper,L2,Bot*%
%TF.FilePolarity,Positive*%
%FSLAX46Y46*%
G04 Gerber Fmt 4.6, Leading zero omitted, Abs format (unit mm)*
G04 Created by KiCad (PCBNEW 10.0.6) date 2026-10-04 14:02:42*
%MOMM*%
%LPD*%
G01*
G04 APERTURE LIST*
%TA.AperFunction,ComponentPad*%
%ADD10C,1.600000*%
%TD*%
%TA.AperFunction,ComponentPad*%
%ADD11C,1.700000*%
%TD*%
%TA.AperFunction,ComponentPad*%
%ADD12R,2.000000X2.000000*%
%TD*%
%TA.AperFunction,ComponentPad*%
%ADD13C,2.000000*%
%TD*%
%TA.AperFunction,ComponentPad*%
%ADD14R,1.700000X1.700000*%
%TD*%
%TA.AperFunction,ViaPad*%
%ADD15C,0.900000*%
%TD*%
%TA.AperFunction,Conductor*%
%ADD16C,0.300000*%
%TD*%
G04 APERTURE END LIST*
D10*
%TO.P,R2,1*%
%TO.N,3V3_IO*%
X15225000Y-67370000D03*
%TO.P,R2,2*%
%TO.N,RX_RAW*%
X15225000Y-62290000D03*
%TD*%
%TO.P,R8,1*%
%TO.N,CAN_H*%
X31250000Y-51750000D03*
%TO.P,R8,2*%
%TO.N,/CORE/SRV_CAN_H*%
X31250000Y-46670000D03*
%TD*%
%TO.P,C3,1*%
%TO.N,3V3_IO*%
X10525000Y-62310000D03*
%TO.P,C3,2*%
%TO.N,GND*%
X10525000Y-67310000D03*
%TD*%
%TO.P,C1,1*%
%TO.N,5V_SYS*%
X18825000Y-57385000D03*
%TO.P,C1,2*%
%TO.N,GND*%
X18825000Y-52385000D03*
%TD*%
%TO.P,C2,1*%
%TO.N,3V3_IO*%
X27275000Y-61405000D03*
%TO.P,C2,2*%
%TO.N,GND*%
X27275000Y-66405000D03*
%TD*%
%TO.P,J1,1*%
%TO.N,GND*%
%TA.AperFunction,ComponentPad*%
G36*
G01*
X22020000Y-14180000D02*
X20820000Y-14180000D01*
G75*
G02*
X20570000Y-13930000I0J250000D01*
G01*
X20570000Y-12730000D01*
G75*
G02*
X20820000Y-12480000I250000J0D01*
G01*
X22020000Y-12480000D01*
G75*
G02*
X22270000Y-12730000I0J-250000D01*
G01*
X22270000Y-13930000D01*
G75*
G02*
X22020000Y-14180000I-250000J0D01*
G01*
G37*
%TD.AperFunction*%
D11*
%TO.P,J1,2*%
%TO.N,5V_SYS*%
X21420000Y-10790000D03*
%TO.P,J1,3*%
%TO.N,GND*%
X23960000Y-13330000D03*
%TO.P,J1,4*%
%TO.N,3V3_IO*%
X23960000Y-10790000D03*
%TO.P,J1,5*%
%TO.N,GND*%
X26500000Y-13330000D03*
%TO.P,J1,6*%
%TO.N,/CORE/CAN_TX*%
X26500000Y-10790000D03*
%TO.P,J1,7*%
%TO.N,GND*%
X29040000Y-13330000D03*
%TO.P,J1,8*%
%TO.N,/CORE/CAN_RX*%
X29040000Y-10790000D03*
%TO.P,J1,9*%
%TO.N,GND*%
X31580000Y-13330000D03*
%TO.P,J1,10*%
%TO.N,5V_SYS*%
X31580000Y-10790000D03*
%TD*%
D12*
%TO.P,J3,1*%
%TO.N,CAN_H*%
X35000000Y-55000000D03*
D13*
%TO.P,J3,2*%
%TO.N,CAN_L*%
X35000000Y-58500000D03*
%TD*%
D14*
%TO.P,J2,1*%
%TO.N,GND*%
X36660000Y-95960000D03*
D11*
%TO.P,J2,2*%
%TO.N,/CORE/SRV_5V_SYS*%
X34120000Y-95960000D03*
%TO.P,J2,3*%
%TO.N,/CORE/SRV_3V3_IO*%
X31580000Y-95960000D03*
%TO.P,J2,4*%
%TO.N,/CORE/SRV_RX_RAW*%
X29040000Y-95960000D03*
%TO.P,J2,5*%
%TO.N,/CORE/SRV_CAN_RX*%
X26500000Y-95960000D03*
%TO.P,J2,6*%
%TO.N,/CORE/SRV_CAN_TX*%
X23960000Y-95960000D03*
%TO.P,J2,7*%
%TO.N,/CORE/SRV_CAN_H*%
X21420000Y-95960000D03*
%TO.P,J2,8*%
%TO.N,/CORE/SRV_CAN_L*%
X18880000Y-95960000D03*
%TO.P,J2,9*%
%TO.N,GND*%
X16340000Y-95960000D03*
%TD*%
D10*
%TO.P,R9,1*%
%TO.N,CAN_L*%
X35000000Y-66250000D03*
%TO.P,R9,2*%
%TO.N,/CORE/SRV_CAN_L*%
X40080000Y-66250000D03*
%TD*%
D15*
%TO.N,3V3_IO*%
X18777800Y-19502900D03*
X22888500Y-17610800D03*
%TO.N,GND*%
X40000000Y-40000000D03*
X13000000Y-59810000D03*
X35000000Y-30000000D03*
X13000000Y-52190000D03*
X25000000Y-90000000D03*
X21228300Y-36877597D03*
X45000000Y-30000000D03*
X34350000Y-8000000D03*
X45000000Y-90000000D03*
X15000000Y-10000000D03*
X33144366Y-69409899D03*
X10000000Y-40000000D03*
X35000000Y-90000000D03*
X45000000Y-70000000D03*
X21366600Y-20879600D03*
X5000000Y-70000000D03*
X24466100Y-20879600D03*
X10000000Y-20000000D03*
X29229700Y-62978227D03*
X20825000Y-55615000D03*
X21190000Y-8000000D03*
X50000000Y-80000000D03*
X20000000Y-40000000D03*
X5000000Y-30000000D03*
X50000000Y-40000000D03*
X30000000Y-40000000D03*
X40000000Y-20000000D03*
X50000000Y-20000000D03*
X40000000Y-80000000D03*
X5000000Y-50000000D03*
X15000000Y-30000000D03*
X15000000Y-90000000D03*
X30273400Y-55561800D03*
X20000000Y-80000000D03*
X10000000Y-80000000D03*
X45000000Y-10000000D03*
%TO.N,/CORE/CAN_TX*%
X29088500Y-15817600D03*
%TO.N,/CORE/CAN_RX*%
X25964500Y-14943100D03*
%TO.N,/CORE/SRV_5V_SYS*%
X28337500Y-90177500D03*
%TD*%
%TO.N,3V3_IO*%
D16*
X26900600Y-61030600D02*
X11804400Y-61030600D01*
X22888500Y-17610800D02*
X20669900Y-17610800D01*
X22708300Y-17430600D02*
X22888500Y-17610800D01*
X23960000Y-10790000D02*
X22708300Y-12041700D01*
X11804400Y-61030600D02*
X10525000Y-62310000D01*
X22708300Y-12041700D02*
X22708300Y-17430600D01*
X27275000Y-61405000D02*
X26900600Y-61030600D01*
X20669900Y-17610800D02*
X18777800Y-19502900D01*
%TO.N,/CORE/CAN_TX*%
X25230000Y-14393400D02*
X25038200Y-14585200D01*
X25230000Y-12060000D02*
X25230000Y-14393400D01*
X25615900Y-15817600D02*
X29088500Y-15817600D01*
X26500000Y-10790000D02*
X25230000Y-12060000D01*
X25038200Y-14585200D02*
X25038200Y-15239900D01*
X25038200Y-15239900D02*
X25615900Y-15817600D01*
%TO.N,5V_SYS*%
X22714900Y-9495100D02*
X21420000Y-10790000D01*
X31580000Y-10790000D02*
X30285100Y-9495100D01*
X30285100Y-9495100D02*
X22714900Y-9495100D01*
%TO.N,/CORE/CAN_RX*%
X27787600Y-12042400D02*
X27787600Y-13849000D01*
X26693500Y-14943100D02*
X25964500Y-14943100D01*
X29040000Y-10790000D02*
X27787600Y-12042400D01*
X27787600Y-13849000D02*
X26693500Y-14943100D01*
%TO.N,/CORE/SRV_5V_SYS*%
X34120000Y-95960000D02*
X28337500Y-90177500D01*
%TO.N,/CORE/SRV_CAN_L*%
X40080000Y-66250000D02*
X18880000Y-87450000D01*
X18880000Y-87450000D02*
X18880000Y-95960000D01*
%TD*%
%TA.AperFunction,Conductor*%
%TO.N,GND*%
G36*
X52006922Y-501280D02*
G01*
X52023878Y-503190D01*
X52097266Y-511458D01*
X52108636Y-515437D01*
X52117102Y-515351D01*
X52124324Y-517633D01*
X52203539Y-545351D01*
X52228549Y-557395D01*
X52299606Y-602043D01*
X52321313Y-619355D01*
X52380644Y-678686D01*
X52397957Y-700395D01*
X52442602Y-771447D01*
X52454649Y-796464D01*
X52482362Y-875662D01*
X52488541Y-902734D01*
X52498720Y-993076D01*
X52499500Y-1006959D01*
X52499500Y-12692930D01*
X52479815Y-12759969D01*
X52427011Y-12805724D01*
X52357853Y-12815668D01*
X52294297Y-12786643D01*
X52258081Y-12732788D01*
X52233581Y-12660614D01*
X52233577Y-12660604D01*
X52031092Y-12250006D01*
X52031088Y-12250000D01*
X52031088Y-12249999D01*
X51776736Y-11869334D01*
X51685313Y-11765086D01*
X51474873Y-11525125D01*
X51168372Y-11256331D01*
X51130665Y-11223263D01*
X50750000Y-10968911D01*
X50749998Y-10968910D01*
X50749992Y-10968906D01*
X50339394Y-10766421D01*
X50339384Y-10766417D01*
X49905878Y-10619262D01*
X49905858Y-10619257D01*
X49456848Y-10529943D01*
X49456843Y-10529942D01*
X49152280Y-10509980D01*
X49000000Y-10500000D01*
X48999999Y-10500000D01*
X48543155Y-10529942D01*
X48543150Y-10529943D01*
X48094140Y-10619257D01*
X48094120Y-10619262D01*
X47660614Y-10766417D01*
X47660605Y-10766421D01*
X47250009Y-10968905D01*
X47249994Y-10968914D01*
X46869332Y-11223264D01*
X46525125Y-11525125D01*
X46223264Y-11869332D01*
X45968914Y-12249994D01*
X45968905Y-12250009D01*
X45766421Y-12660605D01*
X45766417Y-12660614D01*
X45619262Y-13094120D01*
X45619257Y-13094140D01*
X45529943Y-13543150D01*
X45529942Y-13543155D01*
X45500000Y-13999999D01*
X45529942Y-14456843D01*
X45529943Y-14456848D01*
X45619257Y-14905858D01*
X45619262Y-14905878D01*
X45766417Y-15339384D01*
X45766421Y-15339394D01*
X45968906Y-15749992D01*
X45968910Y-15749998D01*
X45968911Y-15750000D01*
X46223263Y-16130665D01*
X46223264Y-16130666D01*
X46525125Y-16474873D01*
X46793919Y-16710599D01*
X46869334Y-16776736D01*
X47250000Y-17031088D01*
X47250003Y-17031089D01*
X47250009Y-17031093D01*
X47660605Y-17233577D01*
X47660614Y-17233581D01*
X48094120Y-17380736D01*
X48094124Y-17380737D01*
X48094133Y-17380740D01*
X48543158Y-17470057D01*
X49000000Y-17500000D01*
X49456841Y-17470057D01*
X49905866Y-17380740D01*
X50275369Y-17255311D01*
X50339384Y-17233581D01*
X50339394Y-17233577D01*
X50749992Y-17031092D01*
X50749992Y-17031091D01*
X50750000Y-17031088D01*
X51130665Y-16776736D01*
X51474873Y-16474873D01*
X51776736Y-16130665D01*
X52031088Y-15750000D01*
X52233578Y-15339392D01*
X52258080Y-15267208D01*
X52298269Y-15210056D01*
X52362978Y-15183702D01*
X52431663Y-15196516D01*
X52482516Y-15244430D01*
X52499500Y-15307068D01*
X52499500Y-84692930D01*
X52479815Y-84759969D01*
X52427011Y-84805724D01*
X52357853Y-84815668D01*
X52294297Y-84786643D01*
X52258081Y-84732788D01*
X52233581Y-84660614D01*
X52233577Y-84660605D01*
X52031093Y-84250009D01*
X52031084Y-84249994D01*
X52027659Y-84244868D01*
X51776736Y-83869334D01*
X51710599Y-83793919D01*
X51474873Y-83525125D01*
X51130666Y-83223264D01*
X50750004Y-82968914D01*
X50750000Y-82968911D01*
X50749998Y-82968910D01*
X50749992Y-82968906D01*
X50339394Y-82766421D01*
X50339384Y-82766417D01*
X49905878Y-82619262D01*
X49905858Y-82619257D01*
X49456848Y-82529943D01*
X49456843Y-82529942D01*
X49152280Y-82509980D01*
X49000000Y-82500000D01*
X48999999Y-82500000D01*
X48543155Y-82529942D01*
X48543150Y-82529943D01*
X48094140Y-82619257D01*
X48094120Y-82619262D01*
X47660614Y-82766417D01*
X47660605Y-82766421D01*
X47250009Y-82968905D01*
X47249994Y-82968914D01*
X46869332Y-83223264D01*
X46525125Y-83525125D01*
X46223264Y-83869332D01*
X45968914Y-84249994D01*
X45968905Y-84250009D01*
X45766421Y-84660605D01*
X45766417Y-84660614D01*
X45619262Y-85094120D01*
X45619257Y-85094140D01*
X45529943Y-85543150D01*
X45529942Y-85543155D01*
X45500000Y-85999999D01*
X45529942Y-86456843D01*
X45529943Y-86456848D01*
X45619257Y-86905858D01*
X45619262Y-86905878D01*
X45766417Y-87339384D01*
X45766421Y-87339394D01*
X45968906Y-87749992D01*
X46223264Y-88130666D01*
X46525125Y-88474873D01*
X46793919Y-88710599D01*
X46869334Y-88776736D01*
X47250000Y-89031088D01*
X47250003Y-89031089D01*
X47250009Y-89031093D01*
X47660605Y-89233577D01*
X47660614Y-89233581D01*
X48094120Y-89380736D01*
X48094124Y-89380737D01*
X48094133Y-89380740D01*
X48543158Y-89470057D01*
X49000000Y-89500000D01*
X49456841Y-89470057D01*
X49905866Y-89380740D01*
X49905878Y-89380736D01*
X50339384Y-89233581D01*
X50339394Y-89233577D01*
X50749992Y-89031092D01*
X50749992Y-89031091D01*
X50750000Y-89031088D01*
X51130665Y-88776736D01*
X51474873Y-88474873D01*
X51776736Y-88130665D01*
X52031088Y-87750000D01*
X52233578Y-87339392D01*
X52258080Y-87267208D01*
X52298269Y-87210056D01*
X52362978Y-87183702D01*
X52431663Y-87196516D01*
X52482516Y-87244430D01*
X52499500Y-87307068D01*
X52499500Y-98993040D01*
X52498720Y-99006923D01*
X52488541Y-99097265D01*
X52484561Y-99108637D01*
X52484648Y-99117102D01*
X52482362Y-99124337D01*
X52454649Y-99203535D01*
X52442602Y-99228552D01*
X52397957Y-99299604D01*
X52380644Y-99321313D01*
X52321313Y-99380644D01*
X52299604Y-99397957D01*
X52228552Y-99442602D01*
X52203535Y-99454649D01*
X52124337Y-99482362D01*
X52097265Y-99488541D01*
X52006923Y-99498720D01*
X51993040Y-99499500D01*
X1006960Y-99499500D01*
X993077Y-99498720D01*
X902734Y-99488541D01*
X891361Y-99484561D01*
X882897Y-99484648D01*
X875662Y-99482362D01*
X796464Y-99454649D01*
X771447Y-99442602D01*
X700395Y-99397957D01*
X678686Y-99380644D01*
X619355Y-99321313D01*
X602042Y-99299604D01*
X557397Y-99228552D01*
X545351Y-99203539D01*
X517636Y-99124333D01*
X511458Y-99097268D01*
X501280Y-99006922D01*
X500500Y-98993040D01*
X500500Y-95873428D01*
X15240000Y-95873428D01*
X15240000Y-96046571D01*
X15267085Y-96217584D01*
X15320591Y-96382257D01*
X15399194Y-96536521D01*
X15448342Y-96604169D01*
X15883388Y-96169123D01*
X15939901Y-96267007D01*
X16032993Y-96360099D01*
X16130874Y-96416611D01*
X15695829Y-96851655D01*
X15695829Y-96851656D01*
X15763478Y-96900805D01*
X15917742Y-96979408D01*
X16082415Y-97032914D01*
X16253429Y-97060000D01*
X16426571Y-97060000D01*
X16597584Y-97032914D01*
X16762257Y-96979408D01*
X16916525Y-96900803D01*
X16984169Y-96851656D01*
X16984170Y-96851656D01*
X16549125Y-96416611D01*
X16647007Y-96360099D01*
X16740099Y-96267007D01*
X16796611Y-96169125D01*
X17231656Y-96604170D01*
X17231656Y-96604169D01*
X17280803Y-96536525D01*
X17359408Y-96382257D01*
X17412914Y-96217584D01*
X17440000Y-96046571D01*
X17440000Y-95873428D01*
X17439370Y-95869448D01*
X17729500Y-95869448D01*
X17729500Y-96050551D01*
X17757829Y-96229410D01*
X17813787Y-96401636D01*
X17813788Y-96401639D01*
X17869664Y-96511300D01*
X17882517Y-96536525D01*
X17896006Y-96562997D01*
X18002441Y-96709494D01*
X18002445Y-96709499D01*
X18130500Y-96837554D01*
X18130505Y-96837558D01*
X18217558Y-96900805D01*
X18277006Y-96943996D01*
X18382484Y-96997740D01*
X18438360Y-97026211D01*
X18438363Y-97026212D01*
X18497709Y-97045494D01*
X18610591Y-97082171D01*
X18693429Y-97095291D01*
X18789449Y-97110500D01*
X18789454Y-97110500D01*
X18970551Y-97110500D01*
X19057259Y-97096765D01*
X19149409Y-97082171D01*
X19321639Y-97026211D01*
X19482994Y-96943996D01*
X19629501Y-96837553D01*
X19757553Y-96709501D01*
X19863996Y-96562994D01*
X19946211Y-96401639D01*
X20002171Y-96229409D01*
X20017124Y-96135000D01*
X20027527Y-96069321D01*
X20057456Y-96006186D01*
X20116768Y-95969255D01*
X20186630Y-95970253D01*
X20244863Y-96008863D01*
X20272473Y-96069321D01*
X20297829Y-96229410D01*
X20353787Y-96401636D01*
X20353788Y-96401639D01*
X20409664Y-96511300D01*
X20422517Y-96536525D01*
X20436006Y-96562997D01*
X20542441Y-96709494D01*
X20542445Y-96709499D01*
X20670500Y-96837554D01*
X20670505Y-96837558D01*
X20757558Y-96900805D01*
X20817006Y-96943996D01*
X20922484Y-96997740D01*
X20978360Y-97026211D01*
X20978363Y-97026212D01*
X21037709Y-97045494D01*
X21150591Y-97082171D01*
X21233429Y-97095291D01*
X21329449Y-97110500D01*
X21329454Y-97110500D01*
X21510551Y-97110500D01*
X21597259Y-97096765D01*
X21689409Y-97082171D01*
X21861639Y-97026211D01*
X22022994Y-96943996D01*
X22169501Y-96837553D01*
X22297553Y-96709501D01*
X22403996Y-96562994D01*
X22486211Y-96401639D01*
X22542171Y-96229409D01*
X22557124Y-96135000D01*
X22567527Y-96069321D01*
X22597456Y-96006186D01*
X22656768Y-95969255D01*
X22726630Y-95970253D01*
X22784863Y-96008863D01*
X22812473Y-96069321D01*
X22837829Y-96229410D01*
X22893787Y-96401636D01*
X22893788Y-96401639D01*
X22949664Y-96511300D01*
X22962517Y-96536525D01*
X22976006Y-96562997D01*
X23082441Y-96709494D01*
X23082445Y-96709499D01*
X23210500Y-96837554D01*
X23210505Y-96837558D01*
X23297558Y-96900805D01*
X23357006Y-96943996D01*
X23462484Y-96997740D01*
X23518360Y-97026211D01*
X23518363Y-97026212D01*
X23577709Y-97045494D01*
X23690591Y-97082171D01*
X23773429Y-97095291D01*
X23869449Y-97110500D01*
X23869454Y-97110500D01*
X24050551Y-97110500D01*
X24137259Y-97096765D01*
X24229409Y-97082171D01*
X24401639Y-97026211D01*
X24562994Y-96943996D01*
X24709501Y-96837553D01*
X24837553Y-96709501D01*
X24943996Y-96562994D01*
X25026211Y-96401639D01*
X25082171Y-96229409D01*
X25097124Y-96135000D01*
X25107527Y-96069321D01*
X25137456Y-96006186D01*
X25196768Y-95969255D01*
X25266630Y-95970253D01*
X25324863Y-96008863D01*
X25352473Y-96069321D01*
X25377829Y-96229410D01*
X25433787Y-96401636D01*
X25433788Y-96401639D01*
X25489664Y-96511300D01*
X25502517Y-96536525D01*
X25516006Y-96562997D01*
X25622441Y-96709494D01*
X25622445Y-96709499D01*
X25750500Y-96837554D01*
X25750505Y-96837558D01*
X25837558Y-96900805D01*
X25897006Y-96943996D01*
X26002484Y-96997740D01*
X26058360Y-97026211D01*
X26058363Y-97026212D01*
X26117709Y-97045494D01*
X26230591Y-97082171D01*
X26313429Y-97095291D01*
X26409449Y-97110500D01*
X26409454Y-97110500D01*
X26590551Y-97110500D01*
X26677259Y-97096765D01*
X26769409Y-97082171D01*
X26941639Y-97026211D01*
X27102994Y-96943996D01*
X27249501Y-96837553D01*
X27377553Y-96709501D01*
X27483996Y-96562994D01*
X27566211Y-96401639D01*
X27622171Y-96229409D01*
X27637124Y-96135000D01*
X27647527Y-96069321D01*
X27677456Y-96006186D01*
X27736768Y-95969255D01*
X27806630Y-95970253D01*
X27864863Y-96008863D01*
X27892473Y-96069321D01*
X27917829Y-96229410D01*
X27973787Y-96401636D01*
X27973788Y-96401639D01*
X28029664Y-96511300D01*
X28042517Y-96536525D01*
X28056006Y-96562997D01*
X28162441Y-96709494D01*
X28162445Y-96709499D01*
X28290500Y-96837554D01*
X28290505Y-96837558D01*
X28377558Y-96900805D01*
X28437006Y-96943996D01*
X28542484Y-96997740D01*
X28598360Y-97026211D01*
X28598363Y-97026212D01*
X28657709Y-97045494D01*
X28770591Y-97082171D01*
X28853429Y-97095291D01*
X28949449Y-97110500D01*
X28949454Y-97110500D01*
X29130551Y-97110500D01*
X29217259Y-97096765D01*
X29309409Y-97082171D01*
X29481639Y-97026211D01*
X29642994Y-96943996D01*
X29789501Y-96837553D01*
X29917553Y-96709501D01*
X30023996Y-96562994D01*
X30106211Y-96401639D01*
X30162171Y-96229409D01*
X30177124Y-96135000D01*
X30187527Y-96069321D01*
X30217456Y-96006186D01*
X30276768Y-95969255D01*
X30346630Y-95970253D01*
X30404863Y-96008863D01*
X30432473Y-96069321D01*
X30457829Y-96229410D01*
X30513787Y-96401636D01*
X30513788Y-96401639D01*
X30569664Y-96511300D01*
X30582517Y-96536525D01*
X30596006Y-96562997D01*
X30702441Y-96709494D01*
X30702445Y-96709499D01*
X30830500Y-96837554D01*
X30830505Y-96837558D01*
X30917558Y-96900805D01*
X30977006Y-96943996D01*
X31082484Y-96997740D01*
X31138360Y-97026211D01*
X31138363Y-97026212D01*
X31197709Y-97045494D01*
X31310591Y-97082171D01*
X31393429Y-97095291D01*
X31489449Y-97110500D01*
X31489454Y-97110500D01*
X31670551Y-97110500D01*
X31757259Y-97096765D01*
X31849409Y-97082171D01*
X32021639Y-97026211D01*
X32182994Y-96943996D01*
X32329501Y-96837553D01*
X32457553Y-96709501D01*
X32563996Y-96562994D01*
X32646211Y-96401639D01*
X32702171Y-96229409D01*
X32717124Y-96135000D01*
X32727527Y-96069321D01*
X32757456Y-96006186D01*
X32816768Y-95969255D01*
X32886630Y-95970253D01*
X32944863Y-96008863D01*
X32972473Y-96069321D01*
X32997829Y-96229410D01*
X33053787Y-96401636D01*
X33053788Y-96401639D01*
X33109664Y-96511300D01*
X33122517Y-96536525D01*
X33136006Y-96562997D01*
X33242441Y-96709494D01*
X33242445Y-96709499D01*
X33370500Y-96837554D01*
X33370505Y-96837558D01*
X33457558Y-96900805D01*
X33517006Y-96943996D01*
X33622484Y-96997740D01*
X33678360Y-97026211D01*
X33678363Y-97026212D01*
X33737709Y-97045494D01*
X33850591Y-97082171D01*
X33933429Y-97095291D01*
X34029449Y-97110500D01*
X34029454Y-97110500D01*
X34210551Y-97110500D01*
X34297259Y-97096765D01*
X34389409Y-97082171D01*
X34561639Y-97026211D01*
X34722994Y-96943996D01*
X34869501Y-96837553D01*
X34997553Y-96709501D01*
X35103996Y-96562994D01*
X35186211Y-96401639D01*
X35242171Y-96229409D01*
X35257124Y-96135000D01*
X35268332Y-96064240D01*
X35268332Y-96064239D01*
X35270500Y-96050552D01*
X35270500Y-95869448D01*
X35254019Y-95765397D01*
X35242171Y-95690591D01*
X35192508Y-95537742D01*
X35186212Y-95518363D01*
X35186211Y-95518360D01*
X35117484Y-95383478D01*
X35103996Y-95357006D01*
X35038254Y-95266519D01*
X34997558Y-95210505D01*
X34997554Y-95210500D01*
X34872425Y-95085371D01*
X35560000Y-95085371D01*
X35560000Y-95785000D01*
X36189254Y-95785000D01*
X36160000Y-95894174D01*
X36160000Y-96025826D01*
X36189254Y-96135000D01*
X35560000Y-96135000D01*
X35560000Y-96834628D01*
X35574503Y-96907540D01*
X35574505Y-96907544D01*
X35629760Y-96990239D01*
X35712455Y-97045494D01*
X35712459Y-97045496D01*
X35785371Y-97059999D01*
X35785374Y-97060000D01*
X36485000Y-97060000D01*
X36485000Y-96430746D01*
X36594174Y-96460000D01*
X36725826Y-96460000D01*
X36835000Y-96430746D01*
X36835000Y-97060000D01*
X37534626Y-97060000D01*
X37534628Y-97059999D01*
X37607540Y-97045496D01*
X37607544Y-97045494D01*
X37690239Y-96990239D01*
X37745494Y-96907544D01*
X37745496Y-96907540D01*
X37759999Y-96834628D01*
X37760000Y-96834626D01*
X37760000Y-96135000D01*
X37130746Y-96135000D01*
X37160000Y-96025826D01*
X37160000Y-95894174D01*
X37130746Y-95785000D01*
X37760000Y-95785000D01*
X37760000Y-95085373D01*
X37759999Y-95085371D01*
X37745496Y-95012459D01*
X37745494Y-95012455D01*
X37690239Y-94929760D01*
X37607544Y-94874505D01*
X37607540Y-94874503D01*
X37534627Y-94860000D01*
X36835000Y-94860000D01*
X36835000Y-95489253D01*
X36725826Y-95460000D01*
X36594174Y-95460000D01*
X36485000Y-95489253D01*
X36485000Y-94860000D01*
X35785373Y-94860000D01*
X35712459Y-94874503D01*
X35712455Y-94874505D01*
X35629760Y-94929760D01*
X35574505Y-95012455D01*
X35574503Y-95012459D01*
X35560000Y-95085371D01*
X34872425Y-95085371D01*
X34869499Y-95082445D01*
X34869494Y-95082441D01*
X34722997Y-94976006D01*
X34722996Y-94976005D01*
X34722994Y-94976004D01*
X34647487Y-94937531D01*
X34561639Y-94893788D01*
X34561636Y-94893787D01*
X34389410Y-94837829D01*
X34210551Y-94809500D01*
X34210546Y-94809500D01*
X34029454Y-94809500D01*
X34029449Y-94809500D01*
X33850592Y-94837828D01*
X33760084Y-94867235D01*
X33690243Y-94869229D01*
X33634087Y-94836984D01*
X29124319Y-90327216D01*
X29090834Y-90265893D01*
X29088000Y-90239535D01*
X29088000Y-90103579D01*
X29059159Y-89958592D01*
X29059158Y-89958591D01*
X29059158Y-89958587D01*
X29059156Y-89958582D01*
X29002587Y-89822011D01*
X29002580Y-89821998D01*
X28920451Y-89699084D01*
X28920448Y-89699080D01*
X28815919Y-89594551D01*
X28815915Y-89594548D01*
X28693001Y-89512419D01*
X28692988Y-89512412D01*
X28556417Y-89455843D01*
X28556407Y-89455840D01*
X28411420Y-89427000D01*
X28411418Y-89427000D01*
X28263582Y-89427000D01*
X28263580Y-89427000D01*
X28118592Y-89455840D01*
X28118582Y-89455843D01*
X27982011Y-89512412D01*
X27981998Y-89512419D01*
X27859084Y-89594548D01*
X27859080Y-89594551D01*
X27754551Y-89699080D01*
X27754548Y-89699084D01*
X27672419Y-89821998D01*
X27672412Y-89822011D01*
X27615843Y-89958582D01*
X27615840Y-89958592D01*
X27587000Y-90103579D01*
X27587000Y-90103582D01*
X27587000Y-90251418D01*
X27587000Y-90251420D01*
X27586999Y-90251420D01*
X27615840Y-90396407D01*
X27615843Y-90396417D01*
X27672412Y-90532988D01*
X27672419Y-90533001D01*
X27754548Y-90655915D01*
X27754551Y-90655919D01*
X27859080Y-90760448D01*
X27859084Y-90760451D01*
X27981998Y-90842580D01*
X27982011Y-90842587D01*
X28118582Y-90899156D01*
X28118587Y-90899158D01*
X28118591Y-90899158D01*
X28118592Y-90899159D01*
X28263579Y-90928000D01*
X28399535Y-90928000D01*
X28466574Y-90947685D01*
X28487216Y-90964319D01*
X32273480Y-94750583D01*
X32306965Y-94811906D01*
X32301981Y-94881598D01*
X32260109Y-94937531D01*
X32194645Y-94961948D01*
X32129504Y-94948749D01*
X32021639Y-94893788D01*
X32021636Y-94893787D01*
X31849410Y-94837829D01*
X31670551Y-94809500D01*
X31670546Y-94809500D01*
X31489454Y-94809500D01*
X31489449Y-94809500D01*
X31310589Y-94837829D01*
X31138363Y-94893787D01*
X31138360Y-94893788D01*
X30977002Y-94976006D01*
X30830505Y-95082441D01*
X30830500Y-95082445D01*
X30702445Y-95210500D01*
X30702441Y-95210505D01*
X30596006Y-95357002D01*
X30513788Y-95518360D01*
X30513787Y-95518363D01*
X30457829Y-95690589D01*
X30432473Y-95850678D01*
X30402544Y-95913813D01*
X30343232Y-95950744D01*
X30273369Y-95949746D01*
X30215137Y-95911136D01*
X30187527Y-95850678D01*
X30173740Y-95763639D01*
X30162171Y-95690591D01*
X30112508Y-95537742D01*
X30106212Y-95518363D01*
X30106211Y-95518360D01*
X30037484Y-95383478D01*
X30023996Y-95357006D01*
X29958254Y-95266519D01*
X29917558Y-95210505D01*
X29917554Y-95210500D01*
X29789499Y-95082445D01*
X29789494Y-95082441D01*
X29642997Y-94976006D01*
X29642996Y-94976005D01*
X29642994Y-94976004D01*
X29567487Y-94937531D01*
X29481639Y-94893788D01*
X29481636Y-94893787D01*
X29309410Y-94837829D01*
X29130551Y-94809500D01*
X29130546Y-94809500D01*
X28949454Y-94809500D01*
X28949449Y-94809500D01*
X28770589Y-94837829D01*
X28598363Y-94893787D01*
X28598360Y-94893788D01*
X28437002Y-94976006D01*
X28290505Y-95082441D01*
X28290500Y-95082445D01*
X28162445Y-95210500D01*
X28162441Y-95210505D01*
X28056006Y-95357002D01*
X27973788Y-95518360D01*
X27973787Y-95518363D01*
X27917829Y-95690589D01*
X27892473Y-95850678D01*
X27862544Y-95913813D01*
X27803232Y-95950744D01*
X27733369Y-95949746D01*
X27675137Y-95911136D01*
X27647527Y-95850678D01*
X27633740Y-95763639D01*
X27622171Y-95690591D01*
X27572508Y-95537742D01*
X27566212Y-95518363D01*
X27566211Y-95518360D01*
X27497484Y-95383478D01*
X27483996Y-95357006D01*
X27418254Y-95266519D01*
X27377558Y-95210505D01*
X27377554Y-95210500D01*
X27249499Y-95082445D01*
X27249494Y-95082441D01*
X27102997Y-94976006D01*
X27102996Y-94976005D01*
X27102994Y-94976004D01*
X27027487Y-94937531D01*
X26941639Y-94893788D01*
X26941636Y-94893787D01*
X26769410Y-94837829D01*
X26590551Y-94809500D01*
X26590546Y-94809500D01*
X26409454Y-94809500D01*
X26409449Y-94809500D01*
X26230589Y-94837829D01*
X26058363Y-94893787D01*
X26058360Y-94893788D01*
X25897002Y-94976006D01*
X25750505Y-95082441D01*
X25750500Y-95082445D01*
X25622445Y-95210500D01*
X25622441Y-95210505D01*
X25516006Y-95357002D01*
X25433788Y-95518360D01*
X25433787Y-95518363D01*
X25377829Y-95690589D01*
X25352473Y-95850678D01*
X25322544Y-95913813D01*
X25263232Y-95950744D01*
X25193369Y-95949746D01*
X25135137Y-95911136D01*
X25107527Y-95850678D01*
X25093740Y-95763639D01*
X25082171Y-95690591D01*
X25032508Y-95537742D01*
X25026212Y-95518363D01*
X25026211Y-95518360D01*
X24957484Y-95383478D01*
X24943996Y-95357006D01*
X24878254Y-95266519D01*
X24837558Y-95210505D01*
X24837554Y-95210500D01*
X24709499Y-95082445D01*
X24709494Y-95082441D01*
X24562997Y-94976006D01*
X24562996Y-94976005D01*
X24562994Y-94976004D01*
X24487487Y-94937531D01*
X24401639Y-94893788D01*
X24401636Y-94893787D01*
X24229410Y-94837829D01*
X24050551Y-94809500D01*
X24050546Y-94809500D01*
X23869454Y-94809500D01*
X23869449Y-94809500D01*
X23690589Y-94837829D01*
X23518363Y-94893787D01*
X23518360Y-94893788D01*
X23357002Y-94976006D01*
X23210505Y-95082441D01*
X23210500Y-95082445D01*
X23082445Y-95210500D01*
X23082441Y-95210505D01*
X22976006Y-95357002D01*
X22893788Y-95518360D01*
X22893787Y-95518363D01*
X22837829Y-95690589D01*
X22812473Y-95850678D01*
X22782544Y-95913813D01*
X22723232Y-95950744D01*
X22653369Y-95949746D01*
X22595137Y-95911136D01*
X22567527Y-95850678D01*
X22553740Y-95763639D01*
X22542171Y-95690591D01*
X22492508Y-95537742D01*
X22486212Y-95518363D01*
X22486211Y-95518360D01*
X22417484Y-95383478D01*
X22403996Y-95357006D01*
X22338254Y-95266519D01*
X22297558Y-95210505D01*
X22297554Y-95210500D01*
X22169499Y-95082445D01*
X22169494Y-95082441D01*
X22022997Y-94976006D01*
X22022996Y-94976005D01*
X22022994Y-94976004D01*
X21947487Y-94937531D01*
X21861639Y-94893788D01*
X21861636Y-94893787D01*
X21689410Y-94837829D01*
X21510551Y-94809500D01*
X21510546Y-94809500D01*
X21329454Y-94809500D01*
X21329449Y-94809500D01*
X21150589Y-94837829D01*
X20978363Y-94893787D01*
X20978360Y-94893788D01*
X20817002Y-94976006D01*
X20670505Y-95082441D01*
X20670500Y-95082445D01*
X20542445Y-95210500D01*
X20542441Y-95210505D01*
X20436006Y-95357002D01*
X20353788Y-95518360D01*
X20353787Y-95518363D01*
X20297829Y-95690589D01*
X20272473Y-95850678D01*
X20242544Y-95913813D01*
X20183232Y-95950744D01*
X20113369Y-95949746D01*
X20055137Y-95911136D01*
X20027527Y-95850678D01*
X20013740Y-95763639D01*
X20002171Y-95690591D01*
X19952508Y-95537742D01*
X19946212Y-95518363D01*
X19946211Y-95518360D01*
X19877484Y-95383478D01*
X19863996Y-95357006D01*
X19798254Y-95266519D01*
X19757558Y-95210505D01*
X19757554Y-95210500D01*
X19629499Y-95082445D01*
X19629494Y-95082441D01*
X19482995Y-94976004D01*
X19398204Y-94932800D01*
X19347409Y-94884826D01*
X19330500Y-94822316D01*
X19330500Y-87687964D01*
X19350185Y-87620925D01*
X19366814Y-87600288D01*
X39633770Y-67333331D01*
X39695091Y-67299848D01*
X39759764Y-67303082D01*
X39822299Y-67323402D01*
X39993389Y-67350500D01*
X39993390Y-67350500D01*
X40166610Y-67350500D01*
X40166611Y-67350500D01*
X40337701Y-67323402D01*
X40502445Y-67269873D01*
X40656788Y-67191232D01*
X40796928Y-67089414D01*
X40919414Y-66966928D01*
X41021232Y-66826788D01*
X41099873Y-66672445D01*
X41153402Y-66507701D01*
X41180500Y-66336611D01*
X41180500Y-66163389D01*
X41153402Y-65992299D01*
X41099873Y-65827555D01*
X41021232Y-65673212D01*
X40919414Y-65533072D01*
X40796928Y-65410586D01*
X40656788Y-65308768D01*
X40502445Y-65230127D01*
X40337701Y-65176598D01*
X40337699Y-65176597D01*
X40337698Y-65176597D01*
X40206271Y-65155781D01*
X40166611Y-65149500D01*
X39993389Y-65149500D01*
X39953728Y-65155781D01*
X39822302Y-65176597D01*
X39657552Y-65230128D01*
X39503211Y-65308768D01*
X39439579Y-65355000D01*
X39363072Y-65410586D01*
X39363070Y-65410588D01*
X39363069Y-65410588D01*
X39240588Y-65533069D01*
X39240588Y-65533070D01*
X39240586Y-65533072D01*
X39229115Y-65548861D01*
X39138768Y-65673211D01*
X39060128Y-65827552D01*
X39006597Y-65992302D01*
X38979500Y-66163389D01*
X38979500Y-66336610D01*
X39006597Y-66507698D01*
X39006598Y-66507702D01*
X39026915Y-66570232D01*
X39028910Y-66640073D01*
X38996665Y-66696230D01*
X18519513Y-87173383D01*
X18519509Y-87173389D01*
X18460201Y-87276112D01*
X18460200Y-87276117D01*
X18429500Y-87390691D01*
X18429500Y-94822316D01*
X18409815Y-94889355D01*
X18361796Y-94932800D01*
X18277004Y-94976004D01*
X18130505Y-95082441D01*
X18130500Y-95082445D01*
X18002445Y-95210500D01*
X18002441Y-95210505D01*
X17896006Y-95357002D01*
X17813788Y-95518360D01*
X17813787Y-95518363D01*
X17757829Y-95690589D01*
X17729500Y-95869448D01*
X17439370Y-95869448D01*
X17412914Y-95702415D01*
X17359408Y-95537742D01*
X17280805Y-95383478D01*
X17231656Y-95315829D01*
X17231655Y-95315829D01*
X16796610Y-95750874D01*
X16740099Y-95652993D01*
X16647007Y-95559901D01*
X16549124Y-95503388D01*
X16984169Y-95068342D01*
X16916521Y-95019194D01*
X16762257Y-94940591D01*
X16597584Y-94887085D01*
X16426571Y-94860000D01*
X16253429Y-94860000D01*
X16082415Y-94887085D01*
X15917742Y-94940591D01*
X15763470Y-95019198D01*
X15695829Y-95068341D01*
X15695829Y-95068342D01*
X16130875Y-95503388D01*
X16032993Y-95559901D01*
X15939901Y-95652993D01*
X15883388Y-95750875D01*
X15448342Y-95315829D01*
X15448341Y-95315829D01*
X15399198Y-95383470D01*
X15320591Y-95537742D01*
X15267085Y-95702415D01*
X15240000Y-95873428D01*
X500500Y-95873428D01*
X500500Y-87307071D01*
X520185Y-87240032D01*
X572989Y-87194277D01*
X642147Y-87184333D01*
X705703Y-87213358D01*
X741919Y-87267213D01*
X766417Y-87339384D01*
X766421Y-87339394D01*
X968906Y-87749992D01*
X1223264Y-88130666D01*
X1525125Y-88474873D01*
X1793919Y-88710599D01*
X1869334Y-88776736D01*
X2250000Y-89031088D01*
X2250003Y-89031089D01*
X2250009Y-89031093D01*
X2660605Y-89233577D01*
X2660614Y-89233581D01*
X3094120Y-89380736D01*
X3094124Y-89380737D01*
X3094133Y-89380740D01*
X3543158Y-89470057D01*
X4000000Y-89500000D01*
X4456841Y-89470057D01*
X4905866Y-89380740D01*
X4905878Y-89380736D01*
X5339384Y-89233581D01*
X5339394Y-89233577D01*
X5749992Y-89031092D01*
X5749992Y-89031091D01*
X5750000Y-89031088D01*
X6130665Y-88776736D01*
X6474873Y-88474873D01*
X6776736Y-88130665D01*
X7031088Y-87750000D01*
X7233578Y-87339392D01*
X7244550Y-87307071D01*
X7380736Y-86905878D01*
X7380736Y-86905877D01*
X7380740Y-86905866D01*
X7470057Y-86456841D01*
X7500000Y-86000000D01*
X7470057Y-85543158D01*
X7380740Y-85094133D01*
X7380736Y-85094120D01*
X7233581Y-84660614D01*
X7233577Y-84660605D01*
X7031093Y-84250009D01*
X7031084Y-84249994D01*
X7027659Y-84244868D01*
X6776736Y-83869334D01*
X6710599Y-83793919D01*
X6474873Y-83525125D01*
X6130666Y-83223264D01*
X5750004Y-82968914D01*
X5750000Y-82968911D01*
X5749998Y-82968910D01*
X5749992Y-82968906D01*
X5339394Y-82766421D01*
X5339384Y-82766417D01*
X4905878Y-82619262D01*
X4905858Y-82619257D01*
X4456848Y-82529943D01*
X4456843Y-82529942D01*
X3999999Y-82500000D01*
X3543155Y-82529942D01*
X3543150Y-82529943D01*
X3094140Y-82619257D01*
X3094120Y-82619262D01*
X2660614Y-82766417D01*
X2660604Y-82766421D01*
X2250006Y-82968906D01*
X1869332Y-83223264D01*
X1525125Y-83525125D01*
X1223264Y-83869332D01*
X968914Y-84249994D01*
X968905Y-84250009D01*
X766421Y-84660605D01*
X766419Y-84660610D01*
X741919Y-84732786D01*
X701730Y-84789940D01*
X637021Y-84816293D01*
X568337Y-84803479D01*
X517484Y-84755565D01*
X500500Y-84692927D01*
X500500Y-67206579D01*
X9475000Y-67206579D01*
X9475000Y-67413420D01*
X9515348Y-67616266D01*
X9515350Y-67616274D01*
X9594500Y-67807359D01*
X9668862Y-67918649D01*
X10146100Y-67441410D01*
X10152259Y-67464394D01*
X10204920Y-67555606D01*
X10279394Y-67630080D01*
X10370606Y-67682741D01*
X10393588Y-67688899D01*
X9916349Y-68166137D01*
X10027640Y-68240499D01*
X10218725Y-68319649D01*
X10218733Y-68319651D01*
X10421579Y-68359999D01*
X10421583Y-68360000D01*
X10628417Y-68360000D01*
X10628420Y-68359999D01*
X10831266Y-68319651D01*
X10831274Y-68319649D01*
X11022359Y-68240499D01*
X11133649Y-68166137D01*
X10656411Y-67688899D01*
X10679394Y-67682741D01*
X10770606Y-67630080D01*
X10845080Y-67555606D01*
X10897741Y-67464394D01*
X10903899Y-67441411D01*
X11381137Y-67918649D01*
X11455499Y-67807359D01*
X11534649Y-67616274D01*
X11534651Y-67616266D01*
X11574999Y-67413420D01*
X11575000Y-67413417D01*
X11575000Y-67283389D01*
X14124500Y-67283389D01*
X14124500Y-67456611D01*
X14151598Y-67627701D01*
X14205127Y-67792445D01*
X14283768Y-67946788D01*
X14385586Y-68086928D01*
X14508072Y-68209414D01*
X14648212Y-68311232D01*
X14802555Y-68389873D01*
X14967299Y-68443402D01*
X15138389Y-68470500D01*
X15138390Y-68470500D01*
X15311610Y-68470500D01*
X15311611Y-68470500D01*
X15482701Y-68443402D01*
X15647445Y-68389873D01*
X15801788Y-68311232D01*
X15941928Y-68209414D01*
X16064414Y-68086928D01*
X16166232Y-67946788D01*
X16244873Y-67792445D01*
X16298402Y-67627701D01*
X16325500Y-67456611D01*
X16325500Y-67283389D01*
X16313334Y-67206579D01*
X16298402Y-67112302D01*
X16298402Y-67112299D01*
X16244873Y-66947555D01*
X16166232Y-66793212D01*
X16064414Y-66653072D01*
X15941928Y-66530586D01*
X15801788Y-66428768D01*
X15757058Y-66405977D01*
X15757056Y-66405975D01*
X15647450Y-66350129D01*
X15647447Y-66350128D01*
X15647445Y-66350127D01*
X15498031Y-66301579D01*
X26225000Y-66301579D01*
X26225000Y-66508420D01*
X26265348Y-66711266D01*
X26265350Y-66711274D01*
X26344500Y-66902359D01*
X26418862Y-67013649D01*
X26896100Y-66536410D01*
X26902259Y-66559394D01*
X26954920Y-66650606D01*
X27029394Y-66725080D01*
X27120606Y-66777741D01*
X27143588Y-66783899D01*
X26666349Y-67261137D01*
X26777640Y-67335499D01*
X26968725Y-67414649D01*
X26968733Y-67414651D01*
X27171579Y-67454999D01*
X27171583Y-67455000D01*
X27378417Y-67455000D01*
X27378420Y-67454999D01*
X27581266Y-67414651D01*
X27581274Y-67414649D01*
X27772359Y-67335499D01*
X27883649Y-67261137D01*
X27406411Y-66783899D01*
X27429394Y-66777741D01*
X27520606Y-66725080D01*
X27595080Y-66650606D01*
X27647741Y-66559394D01*
X27653899Y-66536411D01*
X28131137Y-67013649D01*
X28205499Y-66902359D01*
X28284649Y-66711274D01*
X28284651Y-66711266D01*
X28324999Y-66508420D01*
X28325000Y-66508417D01*
X28325000Y-66301583D01*
X28324999Y-66301579D01*
X28301356Y-66182713D01*
X28301354Y-66182707D01*
X28297511Y-66163389D01*
X33899500Y-66163389D01*
X33899500Y-66336610D01*
X33926597Y-66507697D01*
X33926597Y-66507699D01*
X33926598Y-66507701D01*
X33980127Y-66672445D01*
X34058768Y-66826788D01*
X34160586Y-66966928D01*
X34283072Y-67089414D01*
X34423212Y-67191232D01*
X34577555Y-67269873D01*
X34742299Y-67323402D01*
X34913389Y-67350500D01*
X34913390Y-67350500D01*
X35086610Y-67350500D01*
X35086611Y-67350500D01*
X35257701Y-67323402D01*
X35422445Y-67269873D01*
X35576788Y-67191232D01*
X35716928Y-67089414D01*
X35839414Y-66966928D01*
X35941232Y-66826788D01*
X36019873Y-66672445D01*
X36073402Y-66507701D01*
X36100500Y-66336611D01*
X36100500Y-66163389D01*
X36073402Y-65992299D01*
X36019873Y-65827555D01*
X35941232Y-65673212D01*
X35839414Y-65533072D01*
X35716928Y-65410586D01*
X35576788Y-65308768D01*
X35422445Y-65230127D01*
X35257701Y-65176598D01*
X35257699Y-65176597D01*
X35257698Y-65176597D01*
X35126271Y-65155781D01*
X35086611Y-65149500D01*
X34913389Y-65149500D01*
X34873728Y-65155781D01*
X34742302Y-65176597D01*
X34577552Y-65230128D01*
X34423211Y-65308768D01*
X34359579Y-65355000D01*
X34283072Y-65410586D01*
X34283070Y-65410588D01*
X34283069Y-65410588D01*
X34160588Y-65533069D01*
X34160588Y-65533070D01*
X34160586Y-65533072D01*
X34149115Y-65548861D01*
X34058768Y-65673211D01*
X33980128Y-65827552D01*
X33926597Y-65992302D01*
X33899500Y-66163389D01*
X28297511Y-66163389D01*
X28284649Y-66098725D01*
X28205499Y-65907640D01*
X28131137Y-65796349D01*
X27653898Y-66273587D01*
X27647741Y-66250606D01*
X27595080Y-66159394D01*
X27520606Y-66084920D01*
X27429394Y-66032259D01*
X27406411Y-66026100D01*
X27883649Y-65548862D01*
X27883649Y-65548861D01*
X27772359Y-65474500D01*
X27581274Y-65395350D01*
X27581266Y-65395348D01*
X27378420Y-65355000D01*
X27171579Y-65355000D01*
X26968733Y-65395348D01*
X26968725Y-65395350D01*
X26777641Y-65474500D01*
X26777631Y-65474505D01*
X26666350Y-65548861D01*
X26666350Y-65548862D01*
X27143588Y-66026100D01*
X27120606Y-66032259D01*
X27029394Y-66084920D01*
X26954920Y-66159394D01*
X26902259Y-66250606D01*
X26896100Y-66273588D01*
X26418862Y-65796350D01*
X26418861Y-65796350D01*
X26344505Y-65907631D01*
X26344500Y-65907641D01*
X26265350Y-66098725D01*
X26265348Y-66098733D01*
X26225000Y-66301579D01*
X15498031Y-66301579D01*
X15482701Y-66296598D01*
X15482699Y-66296597D01*
X15482698Y-66296597D01*
X15351271Y-66275781D01*
X15311611Y-66269500D01*
X15138389Y-66269500D01*
X15098728Y-66275781D01*
X14967302Y-66296597D01*
X14802552Y-66350128D01*
X14648211Y-66428768D01*
X14613673Y-66453862D01*
X14508072Y-66530586D01*
X14508070Y-66530588D01*
X14508069Y-66530588D01*
X14385588Y-66653069D01*
X14385588Y-66653070D01*
X14385586Y-66653072D01*
X14354230Y-66696230D01*
X14283768Y-66793211D01*
X14205128Y-66947552D01*
X14151597Y-67112302D01*
X14136665Y-67206583D01*
X14124500Y-67283389D01*
X11575000Y-67283389D01*
X11575000Y-67206583D01*
X11574999Y-67206579D01*
X11534651Y-67003733D01*
X11534649Y-67003725D01*
X11455499Y-66812640D01*
X11381137Y-66701349D01*
X10903898Y-67178587D01*
X10897741Y-67155606D01*
X10845080Y-67064394D01*
X10770606Y-66989920D01*
X10679394Y-66937259D01*
X10656411Y-66931100D01*
X11133649Y-66453862D01*
X11133649Y-66453861D01*
X11022359Y-66379500D01*
X10831274Y-66300350D01*
X10831266Y-66300348D01*
X10628420Y-66260000D01*
X10421579Y-66260000D01*
X10218733Y-66300348D01*
X10218725Y-66300350D01*
X10027641Y-66379500D01*
X10027631Y-66379505D01*
X9916350Y-66453861D01*
X9916350Y-66453862D01*
X10393588Y-66931100D01*
X10370606Y-66937259D01*
X10279394Y-66989920D01*
X10204920Y-67064394D01*
X10152259Y-67155606D01*
X10146100Y-67178588D01*
X9668862Y-66701350D01*
X9668861Y-66701350D01*
X9594505Y-66812631D01*
X9594500Y-66812641D01*
X9515350Y-67003725D01*
X9515348Y-67003733D01*
X9475000Y-67206579D01*
X500500Y-67206579D01*
X500500Y-62223389D01*
X9424500Y-62223389D01*
X9424500Y-62396610D01*
X9448429Y-62547697D01*
X9451598Y-62567701D01*
X9505127Y-62732445D01*
X9583768Y-62886788D01*
X9685586Y-63026928D01*
X9808072Y-63149414D01*
X9948212Y-63251232D01*
X10102555Y-63329873D01*
X10267299Y-63383402D01*
X10438389Y-63410500D01*
X10438390Y-63410500D01*
X10611610Y-63410500D01*
X10611611Y-63410500D01*
X10782701Y-63383402D01*
X10947445Y-63329873D01*
X11101788Y-63251232D01*
X11241928Y-63149414D01*
X11364414Y-63026928D01*
X11466232Y-62886788D01*
X11544873Y-62732445D01*
X11598402Y-62567701D01*
X11625500Y-62396611D01*
X11625500Y-62223389D01*
X11598402Y-62052299D01*
X11578082Y-61989764D01*
X11576087Y-61919927D01*
X11608329Y-61863772D01*
X11954686Y-61517416D01*
X12016008Y-61483934D01*
X12042366Y-61481100D01*
X14209043Y-61481100D01*
X14276082Y-61500785D01*
X14321837Y-61553589D01*
X14331781Y-61622747D01*
X14309361Y-61677985D01*
X14283770Y-61713207D01*
X14205128Y-61867552D01*
X14151597Y-62032302D01*
X14137402Y-62121928D01*
X14124500Y-62203389D01*
X14124500Y-62376611D01*
X14151598Y-62547701D01*
X14205127Y-62712445D01*
X14283768Y-62866788D01*
X14385586Y-63006928D01*
X14508072Y-63129414D01*
X14648212Y-63231232D01*
X14802555Y-63309873D01*
X14967299Y-63363402D01*
X15138389Y-63390500D01*
X15138390Y-63390500D01*
X15311610Y-63390500D01*
X15311611Y-63390500D01*
X15482701Y-63363402D01*
X15647445Y-63309873D01*
X15801788Y-63231232D01*
X15941928Y-63129414D01*
X16064414Y-63006928D01*
X16166232Y-62866788D01*
X16244873Y-62712445D01*
X16298402Y-62547701D01*
X16325500Y-62376611D01*
X16325500Y-62203389D01*
X16298402Y-62032299D01*
X16244873Y-61867555D01*
X16166232Y-61713212D01*
X16166230Y-61713209D01*
X16166229Y-61713207D01*
X16140639Y-61677985D01*
X16117159Y-61612179D01*
X16132985Y-61544125D01*
X16183091Y-61495430D01*
X16240957Y-61481100D01*
X26066930Y-61481100D01*
X26133969Y-61500785D01*
X26179724Y-61553589D01*
X26189402Y-61585700D01*
X26201598Y-61662701D01*
X26255127Y-61827445D01*
X26333768Y-61981788D01*
X26435586Y-62121928D01*
X26558072Y-62244414D01*
X26698212Y-62346232D01*
X26852555Y-62424873D01*
X27017299Y-62478402D01*
X27188389Y-62505500D01*
X27188390Y-62505500D01*
X27361610Y-62505500D01*
X27361611Y-62505500D01*
X27532701Y-62478402D01*
X27697445Y-62424873D01*
X27851788Y-62346232D01*
X27991928Y-62244414D01*
X28114414Y-62121928D01*
X28203000Y-62000000D01*
X44000000Y-62000000D01*
X44014641Y-62223389D01*
X44025665Y-62391576D01*
X44025667Y-62391588D01*
X44102220Y-62776449D01*
X44102225Y-62776469D01*
X44228357Y-63148042D01*
X44228361Y-63148052D01*
X44401923Y-63500001D01*
X44619940Y-63826285D01*
X44878678Y-64121320D01*
X45109073Y-64323370D01*
X45173715Y-64380060D01*
X45390251Y-64524744D01*
X45499998Y-64598075D01*
X45851932Y-64771630D01*
X45851937Y-64771632D01*
X45851949Y-64771638D01*
X46223542Y-64897777D01*
X46608421Y-64974334D01*
X46646022Y-64976798D01*
X46999993Y-65000000D01*
X47000000Y-65000000D01*
X47000007Y-65000000D01*
X47313489Y-64979452D01*
X47391578Y-64974334D01*
X47776457Y-64897777D01*
X47776469Y-64897773D01*
X48148042Y-64771641D01*
X48148052Y-64771637D01*
X48148066Y-64771630D01*
X48500000Y-64598076D01*
X48826284Y-64380060D01*
X49121320Y-64121320D01*
X49380060Y-63826284D01*
X49598076Y-63500000D01*
X49771638Y-63148050D01*
X49812754Y-63026928D01*
X49897773Y-62776469D01*
X49897773Y-62776468D01*
X49897777Y-62776457D01*
X49974334Y-62391578D01*
X49992008Y-62121929D01*
X50000000Y-62000008D01*
X50000000Y-61999992D01*
X49974335Y-61608437D01*
X49974334Y-61608421D01*
X49897777Y-61223542D01*
X49771638Y-60851949D01*
X49759932Y-60828212D01*
X49598075Y-60499998D01*
X49467447Y-60304500D01*
X49380060Y-60173715D01*
X49323370Y-60109073D01*
X49121320Y-59878678D01*
X48826285Y-59619940D01*
X48500001Y-59401923D01*
X48148052Y-59228361D01*
X48148042Y-59228357D01*
X47776469Y-59102225D01*
X47776449Y-59102220D01*
X47391588Y-59025667D01*
X47391578Y-59025665D01*
X47000000Y-59000000D01*
X46999999Y-59000000D01*
X46804210Y-59012832D01*
X46608421Y-59025665D01*
X46608415Y-59025666D01*
X46608410Y-59025667D01*
X46223549Y-59102220D01*
X46223534Y-59102224D01*
X45851953Y-59228359D01*
X45851932Y-59228368D01*
X45499998Y-59401923D01*
X45173713Y-59619940D01*
X44878678Y-59878678D01*
X44619940Y-60173713D01*
X44401923Y-60499998D01*
X44228368Y-60851932D01*
X44228359Y-60851953D01*
X44102224Y-61223534D01*
X44102220Y-61223549D01*
X44025667Y-61608410D01*
X44025665Y-61608422D01*
X44000001Y-61999992D01*
X44000000Y-62000000D01*
X28203000Y-62000000D01*
X28216232Y-61981788D01*
X28294873Y-61827445D01*
X28348402Y-61662701D01*
X28375500Y-61491611D01*
X28375500Y-61318389D01*
X28348402Y-61147299D01*
X28294873Y-60982555D01*
X28216232Y-60828212D01*
X28114414Y-60688072D01*
X27991928Y-60565586D01*
X27851788Y-60463768D01*
X27697445Y-60385127D01*
X27532701Y-60331598D01*
X27532699Y-60331597D01*
X27532698Y-60331597D01*
X27401271Y-60310781D01*
X27361611Y-60304500D01*
X27188389Y-60304500D01*
X27148728Y-60310781D01*
X27017302Y-60331597D01*
X26852552Y-60385128D01*
X26698211Y-60463768D01*
X26570691Y-60556418D01*
X26504884Y-60579898D01*
X26497805Y-60580100D01*
X11745091Y-60580100D01*
X11654725Y-60604313D01*
X11654724Y-60604312D01*
X11630515Y-60610800D01*
X11630506Y-60610804D01*
X11527792Y-60670105D01*
X11527784Y-60670111D01*
X10971230Y-61226665D01*
X10909907Y-61260150D01*
X10845232Y-61256915D01*
X10782702Y-61236598D01*
X10782698Y-61236597D01*
X10651271Y-61215781D01*
X10611611Y-61209500D01*
X10438389Y-61209500D01*
X10398728Y-61215781D01*
X10267302Y-61236597D01*
X10102552Y-61290128D01*
X9948211Y-61368768D01*
X9868256Y-61426859D01*
X9808072Y-61470586D01*
X9808070Y-61470588D01*
X9808069Y-61470588D01*
X9685588Y-61593069D01*
X9685588Y-61593070D01*
X9685586Y-61593072D01*
X9674434Y-61608422D01*
X9583768Y-61733211D01*
X9505128Y-61887552D01*
X9451597Y-62052302D01*
X9424500Y-62223389D01*
X500500Y-62223389D01*
X500500Y-57298389D01*
X17724500Y-57298389D01*
X17724500Y-57471611D01*
X17751598Y-57642701D01*
X17805127Y-57807445D01*
X17883768Y-57961788D01*
X17985586Y-58101928D01*
X18108072Y-58224414D01*
X18248212Y-58326232D01*
X18402555Y-58404873D01*
X18567299Y-58458402D01*
X18738389Y-58485500D01*
X18738390Y-58485500D01*
X18911610Y-58485500D01*
X18911611Y-58485500D01*
X19082701Y-58458402D01*
X19247445Y-58404873D01*
X19401788Y-58326232D01*
X19541928Y-58224414D01*
X19664414Y-58101928D01*
X19766232Y-57961788D01*
X19844873Y-57807445D01*
X19898402Y-57642701D01*
X19925500Y-57471611D01*
X19925500Y-57298389D01*
X19898402Y-57127299D01*
X19844873Y-56962555D01*
X19766232Y-56808212D01*
X19664414Y-56668072D01*
X19541928Y-56545586D01*
X19401788Y-56443768D01*
X19247445Y-56365127D01*
X19082701Y-56311598D01*
X19082699Y-56311597D01*
X19082698Y-56311597D01*
X18951271Y-56290781D01*
X18911611Y-56284500D01*
X18738389Y-56284500D01*
X18698728Y-56290781D01*
X18567302Y-56311597D01*
X18402552Y-56365128D01*
X18248211Y-56443768D01*
X18168256Y-56501859D01*
X18108072Y-56545586D01*
X18108070Y-56545588D01*
X18108069Y-56545588D01*
X17985588Y-56668069D01*
X17985588Y-56668070D01*
X17985586Y-56668072D01*
X17941859Y-56728256D01*
X17883768Y-56808211D01*
X17805128Y-56962552D01*
X17751597Y-57127302D01*
X17724500Y-57298389D01*
X500500Y-57298389D01*
X500500Y-54000000D01*
X33000000Y-54000000D01*
X33000000Y-56000000D01*
X33000000Y-57500000D01*
X33000000Y-59500000D01*
X33000000Y-60500000D01*
X37000000Y-60500000D01*
X37000000Y-53000000D01*
X33000000Y-53000000D01*
X33000000Y-54000000D01*
X500500Y-54000000D01*
X500500Y-52281579D01*
X17775000Y-52281579D01*
X17775000Y-52488420D01*
X17815348Y-52691266D01*
X17815350Y-52691274D01*
X17894500Y-52882359D01*
X17968862Y-52993649D01*
X18446100Y-52516410D01*
X18452259Y-52539394D01*
X18504920Y-52630606D01*
X18579394Y-52705080D01*
X18670606Y-52757741D01*
X18693588Y-52763899D01*
X18216349Y-53241137D01*
X18327640Y-53315499D01*
X18518725Y-53394649D01*
X18518733Y-53394651D01*
X18721579Y-53434999D01*
X18721583Y-53435000D01*
X18928417Y-53435000D01*
X18928420Y-53434999D01*
X19131266Y-53394651D01*
X19131274Y-53394649D01*
X19322359Y-53315499D01*
X19433649Y-53241137D01*
X18956411Y-52763899D01*
X18979394Y-52757741D01*
X19070606Y-52705080D01*
X19145080Y-52630606D01*
X19197741Y-52539394D01*
X19203899Y-52516411D01*
X19681137Y-52993649D01*
X19755499Y-52882359D01*
X19834649Y-52691274D01*
X19834651Y-52691266D01*
X19874999Y-52488420D01*
X19875000Y-52488417D01*
X19875000Y-52281583D01*
X19874999Y-52281579D01*
X19834651Y-52078733D01*
X19834649Y-52078725D01*
X19755499Y-51887640D01*
X19681137Y-51776349D01*
X19203898Y-52253587D01*
X19197741Y-52230606D01*
X19145080Y-52139394D01*
X19070606Y-52064920D01*
X18979394Y-52012259D01*
X18956411Y-52006100D01*
X19299122Y-51663389D01*
X30149500Y-51663389D01*
X30149500Y-51836610D01*
X30173002Y-51985000D01*
X30176598Y-52007701D01*
X30230127Y-52172445D01*
X30308768Y-52326788D01*
X30410586Y-52466928D01*
X30533072Y-52589414D01*
X30673212Y-52691232D01*
X30827555Y-52769873D01*
X30992299Y-52823402D01*
X31163389Y-52850500D01*
X31163390Y-52850500D01*
X31336610Y-52850500D01*
X31336611Y-52850500D01*
X31417840Y-52837634D01*
X31490257Y-52826165D01*
X31493435Y-52825661D01*
X31507701Y-52823402D01*
X31672445Y-52769873D01*
X31826788Y-52691232D01*
X31966928Y-52589414D01*
X32089414Y-52466928D01*
X32191232Y-52326788D01*
X32269873Y-52172445D01*
X32323402Y-52007701D01*
X32350500Y-51836611D01*
X32350500Y-51663389D01*
X32324622Y-51499999D01*
X44000000Y-51499999D01*
X44025665Y-51891576D01*
X44025667Y-51891588D01*
X44102220Y-52276449D01*
X44102225Y-52276469D01*
X44228357Y-52648042D01*
X44228361Y-52648052D01*
X44401923Y-53000000D01*
X44619940Y-53326285D01*
X44878678Y-53621320D01*
X45109073Y-53823370D01*
X45173715Y-53880060D01*
X45390251Y-54024744D01*
X45499998Y-54098075D01*
X45851932Y-54271630D01*
X45851937Y-54271632D01*
X45851949Y-54271638D01*
X46223542Y-54397777D01*
X46608421Y-54474334D01*
X46646022Y-54476798D01*
X46999993Y-54500000D01*
X47000000Y-54500000D01*
X47000007Y-54500000D01*
X47313489Y-54479452D01*
X47391578Y-54474334D01*
X47776457Y-54397777D01*
X47776469Y-54397773D01*
X48148042Y-54271641D01*
X48148052Y-54271637D01*
X48148066Y-54271630D01*
X48500000Y-54098076D01*
X48826284Y-53880060D01*
X49121320Y-53621320D01*
X49380060Y-53326284D01*
X49598076Y-53000000D01*
X49771638Y-52648050D01*
X49777560Y-52630606D01*
X49897773Y-52276469D01*
X49897773Y-52276468D01*
X49897777Y-52276457D01*
X49974334Y-51891578D01*
X49989291Y-51663389D01*
X50000000Y-51500008D01*
X50000000Y-51499992D01*
X49974335Y-51108437D01*
X49974334Y-51108421D01*
X49897777Y-50723542D01*
X49771638Y-50351949D01*
X49598076Y-50000000D01*
X49380060Y-49673715D01*
X49323370Y-49609073D01*
X49121320Y-49378678D01*
X48826285Y-49119940D01*
X48500001Y-48901923D01*
X48148052Y-48728361D01*
X48148042Y-48728357D01*
X47776469Y-48602225D01*
X47776449Y-48602220D01*
X47391588Y-48525667D01*
X47391578Y-48525665D01*
X47000000Y-48500000D01*
X46999999Y-48500000D01*
X46804210Y-48512832D01*
X46608421Y-48525665D01*
X46608415Y-48525666D01*
X46608410Y-48525667D01*
X46223549Y-48602220D01*
X46223534Y-48602224D01*
X45851953Y-48728359D01*
X45851932Y-48728368D01*
X45499998Y-48901923D01*
X45173713Y-49119940D01*
X44878678Y-49378678D01*
X44619940Y-49673713D01*
X44401923Y-49999998D01*
X44228368Y-50351932D01*
X44228359Y-50351953D01*
X44102224Y-50723534D01*
X44102220Y-50723549D01*
X44025667Y-51108410D01*
X44025665Y-51108422D01*
X44000000Y-51499999D01*
X32324622Y-51499999D01*
X32323402Y-51492299D01*
X32269873Y-51327555D01*
X32191232Y-51173212D01*
X32089414Y-51033072D01*
X31966928Y-50910586D01*
X31826788Y-50808768D01*
X31672445Y-50730127D01*
X31507701Y-50676598D01*
X31507699Y-50676597D01*
X31507698Y-50676597D01*
X31376271Y-50655781D01*
X31336611Y-50649500D01*
X31163389Y-50649500D01*
X31123728Y-50655781D01*
X30992302Y-50676597D01*
X30827552Y-50730128D01*
X30673211Y-50808768D01*
X30593256Y-50866859D01*
X30533072Y-50910586D01*
X30533070Y-50910588D01*
X30533069Y-50910588D01*
X30410588Y-51033069D01*
X30410588Y-51033070D01*
X30410586Y-51033072D01*
X30366859Y-51093256D01*
X30308768Y-51173211D01*
X30230128Y-51327552D01*
X30176597Y-51492302D01*
X30149500Y-51663389D01*
X19299122Y-51663389D01*
X19433649Y-51528862D01*
X19433649Y-51528861D01*
X19322359Y-51454500D01*
X19131274Y-51375350D01*
X19131266Y-51375348D01*
X18928420Y-51335000D01*
X18721579Y-51335000D01*
X18518733Y-51375348D01*
X18518725Y-51375350D01*
X18327641Y-51454500D01*
X18327631Y-51454505D01*
X18216350Y-51528861D01*
X18216350Y-51528862D01*
X18693588Y-52006100D01*
X18670606Y-52012259D01*
X18579394Y-52064920D01*
X18504920Y-52139394D01*
X18452259Y-52230606D01*
X18446100Y-52253588D01*
X17968862Y-51776350D01*
X17968861Y-51776350D01*
X17894505Y-51887631D01*
X17894500Y-51887641D01*
X17815350Y-52078725D01*
X17815348Y-52078733D01*
X17775000Y-52281579D01*
X500500Y-52281579D01*
X500500Y-46583389D01*
X30149500Y-46583389D01*
X30149500Y-46756611D01*
X30176598Y-46927701D01*
X30230127Y-47092445D01*
X30308768Y-47246788D01*
X30410586Y-47386928D01*
X30533072Y-47509414D01*
X30673212Y-47611232D01*
X30827555Y-47689873D01*
X30992299Y-47743402D01*
X31163389Y-47770500D01*
X31163390Y-47770500D01*
X31336610Y-47770500D01*
X31336611Y-47770500D01*
X31507701Y-47743402D01*
X31672445Y-47689873D01*
X31826788Y-47611232D01*
X31966928Y-47509414D01*
X32089414Y-47386928D01*
X32191232Y-47246788D01*
X32269873Y-47092445D01*
X32323402Y-46927701D01*
X32350500Y-46756611D01*
X32350500Y-46583389D01*
X32323402Y-46412299D01*
X32269873Y-46247555D01*
X32191232Y-46093212D01*
X32089414Y-45953072D01*
X31966928Y-45830586D01*
X31826788Y-45728768D01*
X31672445Y-45650127D01*
X31507701Y-45596598D01*
X31507699Y-45596597D01*
X31507698Y-45596597D01*
X31376271Y-45575781D01*
X31336611Y-45569500D01*
X31163389Y-45569500D01*
X31123728Y-45575781D01*
X30992302Y-45596597D01*
X30827552Y-45650128D01*
X30673211Y-45728768D01*
X30593256Y-45786859D01*
X30533072Y-45830586D01*
X30533070Y-45830588D01*
X30533069Y-45830588D01*
X30410588Y-45953069D01*
X30410588Y-45953070D01*
X30410586Y-45953072D01*
X30366859Y-46013256D01*
X30308768Y-46093211D01*
X30230128Y-46247552D01*
X30176597Y-46412302D01*
X30149500Y-46583389D01*
X500500Y-46583389D01*
X500500Y-19576820D01*
X18027299Y-19576820D01*
X18056140Y-19721807D01*
X18056143Y-19721817D01*
X18112712Y-19858388D01*
X18112719Y-19858401D01*
X18194848Y-19981315D01*
X18194851Y-19981319D01*
X18299380Y-20085848D01*
X18299384Y-20085851D01*
X18422298Y-20167980D01*
X18422311Y-20167987D01*
X18558882Y-20224556D01*
X18558887Y-20224558D01*
X18558891Y-20224558D01*
X18558892Y-20224559D01*
X18703879Y-20253400D01*
X18703882Y-20253400D01*
X18851720Y-20253400D01*
X18949262Y-20233996D01*
X18996713Y-20224558D01*
X19133295Y-20167984D01*
X19256216Y-20085851D01*
X19360751Y-19981316D01*
X19442884Y-19858395D01*
X19499458Y-19721813D01*
X19528300Y-19576818D01*
X19528300Y-19440864D01*
X19547985Y-19373825D01*
X19564619Y-19353183D01*
X20820184Y-18097619D01*
X20881507Y-18064134D01*
X20907865Y-18061300D01*
X22226270Y-18061300D01*
X22293309Y-18080985D01*
X22313951Y-18097619D01*
X22410080Y-18193748D01*
X22410084Y-18193751D01*
X22532998Y-18275880D01*
X22533011Y-18275887D01*
X22669582Y-18332456D01*
X22669587Y-18332458D01*
X22669591Y-18332458D01*
X22669592Y-18332459D01*
X22814579Y-18361300D01*
X22814582Y-18361300D01*
X22962420Y-18361300D01*
X23059962Y-18341896D01*
X23107413Y-18332458D01*
X23243995Y-18275884D01*
X23366916Y-18193751D01*
X23471451Y-18089216D01*
X23553584Y-17966295D01*
X23610158Y-17829713D01*
X23639000Y-17684718D01*
X23639000Y-17536882D01*
X23639000Y-17536879D01*
X23610159Y-17391892D01*
X23610158Y-17391891D01*
X23610158Y-17391887D01*
X23605539Y-17380736D01*
X23553587Y-17255311D01*
X23553580Y-17255298D01*
X23471451Y-17132384D01*
X23471448Y-17132380D01*
X23366919Y-17027851D01*
X23366915Y-17027848D01*
X23244001Y-16945719D01*
X23243986Y-16945711D01*
X23235343Y-16942131D01*
X23180941Y-16898288D01*
X23158879Y-16831993D01*
X23158800Y-16827572D01*
X23158800Y-14350932D01*
X23178485Y-14283893D01*
X23231289Y-14238138D01*
X23300447Y-14228194D01*
X23355686Y-14250614D01*
X23383474Y-14270803D01*
X23537742Y-14349408D01*
X23702415Y-14402914D01*
X23873429Y-14430000D01*
X24046571Y-14430000D01*
X24217584Y-14402914D01*
X24382259Y-14349407D01*
X24426794Y-14326715D01*
X24495463Y-14313818D01*
X24560203Y-14340093D01*
X24600461Y-14397199D01*
X24603455Y-14467005D01*
X24602865Y-14469291D01*
X24587700Y-14525889D01*
X24587700Y-15299208D01*
X24611912Y-15389572D01*
X24618400Y-15413785D01*
X24618400Y-15413786D01*
X24618401Y-15413787D01*
X24677711Y-15516514D01*
X25339286Y-16178089D01*
X25442013Y-16237399D01*
X25466221Y-16243884D01*
X25466224Y-16243886D01*
X25466225Y-16243886D01*
X25496347Y-16251957D01*
X25556591Y-16268100D01*
X28426270Y-16268100D01*
X28493309Y-16287785D01*
X28513951Y-16304419D01*
X28610080Y-16400548D01*
X28610084Y-16400551D01*
X28732998Y-16482680D01*
X28733011Y-16482687D01*
X28869582Y-16539256D01*
X28869587Y-16539258D01*
X28869591Y-16539258D01*
X28869592Y-16539259D01*
X29014579Y-16568100D01*
X29014582Y-16568100D01*
X29162420Y-16568100D01*
X29259962Y-16548696D01*
X29307413Y-16539258D01*
X29443995Y-16482684D01*
X29566916Y-16400551D01*
X29671451Y-16296016D01*
X29753584Y-16173095D01*
X29810158Y-16036513D01*
X29839000Y-15891518D01*
X29839000Y-15743682D01*
X29839000Y-15743679D01*
X29810159Y-15598692D01*
X29810158Y-15598691D01*
X29810158Y-15598687D01*
X29776121Y-15516514D01*
X29753587Y-15462111D01*
X29753580Y-15462098D01*
X29671451Y-15339184D01*
X29671448Y-15339180D01*
X29566919Y-15234651D01*
X29566915Y-15234648D01*
X29444001Y-15152519D01*
X29443988Y-15152512D01*
X29307417Y-15095943D01*
X29307407Y-15095940D01*
X29162420Y-15067100D01*
X29162418Y-15067100D01*
X29014582Y-15067100D01*
X29014580Y-15067100D01*
X28869592Y-15095940D01*
X28869582Y-15095943D01*
X28733011Y-15152512D01*
X28732998Y-15152519D01*
X28610084Y-15234648D01*
X28610080Y-15234651D01*
X28513951Y-15330781D01*
X28452628Y-15364266D01*
X28426270Y-15367100D01*
X27205965Y-15367100D01*
X27138926Y-15347415D01*
X27093171Y-15294611D01*
X27083227Y-15225453D01*
X27112252Y-15161897D01*
X27118284Y-15155419D01*
X27367845Y-14905858D01*
X28148089Y-14125614D01*
X28207399Y-14022887D01*
X28220605Y-13973601D01*
X28238100Y-13908309D01*
X28238100Y-13908307D01*
X28238247Y-13907759D01*
X28270341Y-13852170D01*
X28583387Y-13539123D01*
X28639901Y-13637007D01*
X28732993Y-13730099D01*
X28830874Y-13786611D01*
X28395829Y-14221655D01*
X28395829Y-14221656D01*
X28463478Y-14270805D01*
X28617742Y-14349408D01*
X28782415Y-14402914D01*
X28953429Y-14430000D01*
X29126571Y-14430000D01*
X29297584Y-14402914D01*
X29462257Y-14349408D01*
X29616525Y-14270803D01*
X29684169Y-14221656D01*
X29684170Y-14221656D01*
X29249125Y-13786611D01*
X29347007Y-13730099D01*
X29440099Y-13637007D01*
X29496611Y-13539125D01*
X29931656Y-13974170D01*
X29931656Y-13974169D01*
X29980803Y-13906525D01*
X30059408Y-13752257D01*
X30112914Y-13587584D01*
X30140000Y-13416571D01*
X30140000Y-13243428D01*
X30480000Y-13243428D01*
X30480000Y-13416571D01*
X30507085Y-13587584D01*
X30560591Y-13752257D01*
X30639194Y-13906521D01*
X30688342Y-13974169D01*
X31123388Y-13539123D01*
X31179901Y-13637007D01*
X31272993Y-13730099D01*
X31370874Y-13786611D01*
X30935829Y-14221655D01*
X30935829Y-14221656D01*
X31003478Y-14270805D01*
X31157742Y-14349408D01*
X31322415Y-14402914D01*
X31493429Y-14430000D01*
X31666571Y-14430000D01*
X31837584Y-14402914D01*
X32002257Y-14349408D01*
X32156525Y-14270803D01*
X32224169Y-14221656D01*
X32224170Y-14221656D01*
X31789125Y-13786611D01*
X31887007Y-13730099D01*
X31980099Y-13637007D01*
X32036611Y-13539125D01*
X32471656Y-13974170D01*
X32471656Y-13974169D01*
X32520803Y-13906525D01*
X32599408Y-13752257D01*
X32652914Y-13587584D01*
X32680000Y-13416571D01*
X32680000Y-13243428D01*
X32652914Y-13072415D01*
X32599408Y-12907742D01*
X32520805Y-12753478D01*
X32471656Y-12685829D01*
X32471655Y-12685829D01*
X32036610Y-13120874D01*
X31980099Y-13022993D01*
X31887007Y-12929901D01*
X31789124Y-12873388D01*
X32224169Y-12438342D01*
X32156521Y-12389194D01*
X32002257Y-12310591D01*
X31837584Y-12257085D01*
X31666571Y-12230000D01*
X31493429Y-12230000D01*
X31322415Y-12257085D01*
X31157742Y-12310591D01*
X31003470Y-12389198D01*
X30935829Y-12438341D01*
X30935829Y-12438342D01*
X31370875Y-12873388D01*
X31272993Y-12929901D01*
X31179901Y-13022993D01*
X31123388Y-13120875D01*
X30688342Y-12685829D01*
X30688341Y-12685829D01*
X30639198Y-12753470D01*
X30560591Y-12907742D01*
X30507085Y-13072415D01*
X30480000Y-13243428D01*
X30140000Y-13243428D01*
X30112914Y-13072415D01*
X30059408Y-12907742D01*
X29980805Y-12753478D01*
X29931656Y-12685829D01*
X29931655Y-12685829D01*
X29496610Y-13120874D01*
X29440099Y-13022993D01*
X29347007Y-12929901D01*
X29249123Y-12873387D01*
X29684169Y-12438342D01*
X29616521Y-12389194D01*
X29462257Y-12310591D01*
X29297584Y-12257085D01*
X29126571Y-12230000D01*
X28953429Y-12230000D01*
X28782415Y-12257085D01*
X28617742Y-12310591D01*
X28463472Y-12389197D01*
X28434984Y-12409895D01*
X28369178Y-12433374D01*
X28301124Y-12417548D01*
X28252430Y-12367442D01*
X28238100Y-12309576D01*
X28238100Y-12280364D01*
X28257785Y-12213325D01*
X28274415Y-12192687D01*
X28554089Y-11913012D01*
X28615410Y-11879529D01*
X28680082Y-11882763D01*
X28770591Y-11912171D01*
X28775914Y-11913014D01*
X28949449Y-11940500D01*
X28949454Y-11940500D01*
X29130551Y-11940500D01*
X29217259Y-11926765D01*
X29309409Y-11912171D01*
X29481639Y-11856211D01*
X29642994Y-11773996D01*
X29789501Y-11667553D01*
X29917553Y-11539501D01*
X30023996Y-11392994D01*
X30106211Y-11231639D01*
X30162171Y-11059409D01*
X30176505Y-10968905D01*
X30187527Y-10899321D01*
X30217456Y-10836186D01*
X30276768Y-10799255D01*
X30346630Y-10800253D01*
X30404863Y-10838863D01*
X30432473Y-10899321D01*
X30457829Y-11059410D01*
X30513787Y-11231636D01*
X30513788Y-11231639D01*
X30596006Y-11392997D01*
X30702441Y-11539494D01*
X30702445Y-11539499D01*
X30830500Y-11667554D01*
X30830505Y-11667558D01*
X30897310Y-11716094D01*
X30977006Y-11773996D01*
X31081075Y-11827022D01*
X31138360Y-11856211D01*
X31138363Y-11856212D01*
X31220084Y-11882764D01*
X31310591Y-11912171D01*
X31393429Y-11925291D01*
X31489449Y-11940500D01*
X31489454Y-11940500D01*
X31670551Y-11940500D01*
X31757259Y-11926765D01*
X31849409Y-11912171D01*
X32021639Y-11856211D01*
X32182994Y-11773996D01*
X32329501Y-11667553D01*
X32457553Y-11539501D01*
X32563996Y-11392994D01*
X32646211Y-11231639D01*
X32702171Y-11059409D01*
X32716765Y-10967259D01*
X32730500Y-10880551D01*
X32730500Y-10699448D01*
X32703652Y-10529943D01*
X32702171Y-10520591D01*
X32672764Y-10430084D01*
X32646212Y-10348363D01*
X32646211Y-10348360D01*
X32591250Y-10240495D01*
X32563996Y-10187006D01*
X32498253Y-10096518D01*
X32457558Y-10040505D01*
X32457554Y-10040500D01*
X32329499Y-9912445D01*
X32329494Y-9912441D01*
X32182997Y-9806006D01*
X32182996Y-9806005D01*
X32182994Y-9806004D01*
X32131300Y-9779664D01*
X32021639Y-9723788D01*
X32021636Y-9723787D01*
X31849410Y-9667829D01*
X31670551Y-9639500D01*
X31670546Y-9639500D01*
X31489454Y-9639500D01*
X31489449Y-9639500D01*
X31310592Y-9667828D01*
X31220084Y-9697235D01*
X31150243Y-9699229D01*
X31094087Y-9666984D01*
X30561716Y-9134613D01*
X30561714Y-9134611D01*
X30510350Y-9104956D01*
X30458988Y-9075301D01*
X30446880Y-9072057D01*
X30434773Y-9068813D01*
X30434770Y-9068812D01*
X30396578Y-9058578D01*
X30344409Y-9044600D01*
X22655591Y-9044600D01*
X22565225Y-9068813D01*
X22565224Y-9068812D01*
X22541016Y-9075299D01*
X22541013Y-9075300D01*
X22438286Y-9134611D01*
X22438283Y-9134613D01*
X21905911Y-9666984D01*
X21844588Y-9700469D01*
X21779913Y-9697234D01*
X21689416Y-9667830D01*
X21689409Y-9667829D01*
X21510551Y-9639500D01*
X21510546Y-9639500D01*
X21329454Y-9639500D01*
X21329449Y-9639500D01*
X21150589Y-9667829D01*
X20978363Y-9723787D01*
X20978360Y-9723788D01*
X20817002Y-9806006D01*
X20670505Y-9912441D01*
X20670500Y-9912445D01*
X20542445Y-10040500D01*
X20542441Y-10040505D01*
X20436006Y-10187002D01*
X20353788Y-10348360D01*
X20353787Y-10348363D01*
X20297829Y-10520589D01*
X20269500Y-10699448D01*
X20269500Y-10880551D01*
X20297829Y-11059410D01*
X20353787Y-11231636D01*
X20353788Y-11231639D01*
X20436006Y-11392997D01*
X20542441Y-11539494D01*
X20542445Y-11539499D01*
X20670500Y-11667554D01*
X20670505Y-11667558D01*
X20737310Y-11716094D01*
X20817006Y-11773996D01*
X20921075Y-11827022D01*
X20978360Y-11856211D01*
X20978363Y-11856212D01*
X21060084Y-11882764D01*
X21150591Y-11912171D01*
X21233429Y-11925291D01*
X21329449Y-11940500D01*
X21329454Y-11940500D01*
X21510551Y-11940500D01*
X21597259Y-11926765D01*
X21689409Y-11912171D01*
X21861639Y-11856211D01*
X22022994Y-11773996D01*
X22102691Y-11716092D01*
X22168494Y-11692614D01*
X22236548Y-11708439D01*
X22285243Y-11758544D01*
X22299119Y-11827022D01*
X22290139Y-11863854D01*
X22288502Y-11867806D01*
X22282012Y-11892024D01*
X22282013Y-11892025D01*
X22257800Y-11982391D01*
X22257800Y-12112378D01*
X22238115Y-12179417D01*
X22185311Y-12225172D01*
X22120544Y-12235667D01*
X22067844Y-12230000D01*
X21595000Y-12230000D01*
X21595000Y-12859253D01*
X21485826Y-12830000D01*
X21354174Y-12830000D01*
X21245000Y-12859253D01*
X21245000Y-12230000D01*
X20772155Y-12230000D01*
X20712627Y-12236401D01*
X20712620Y-12236403D01*
X20577913Y-12286645D01*
X20577906Y-12286649D01*
X20462812Y-12372809D01*
X20462809Y-12372812D01*
X20376649Y-12487906D01*
X20376645Y-12487913D01*
X20326403Y-12622620D01*
X20326401Y-12622627D01*
X20320000Y-12682155D01*
X20320000Y-13155000D01*
X20949254Y-13155000D01*
X20920000Y-13264174D01*
X20920000Y-13395826D01*
X20949254Y-13505000D01*
X20320000Y-13505000D01*
X20320000Y-13977844D01*
X20326401Y-14037372D01*
X20326403Y-14037379D01*
X20376645Y-14172086D01*
X20376649Y-14172093D01*
X20462809Y-14287187D01*
X20462812Y-14287190D01*
X20577906Y-14373350D01*
X20577913Y-14373354D01*
X20712620Y-14423596D01*
X20712627Y-14423598D01*
X20772155Y-14429999D01*
X20772172Y-14430000D01*
X21245000Y-14430000D01*
X21245000Y-13800746D01*
X21354174Y-13830000D01*
X21485826Y-13830000D01*
X21595000Y-13800746D01*
X21595000Y-14430000D01*
X22067828Y-14430000D01*
X22067839Y-14429999D01*
X22120542Y-14424332D01*
X22189302Y-14436736D01*
X22240440Y-14484345D01*
X22257800Y-14547621D01*
X22257800Y-17036300D01*
X22238115Y-17103339D01*
X22185311Y-17149094D01*
X22133800Y-17160300D01*
X20610591Y-17160300D01*
X20541844Y-17178720D01*
X20496012Y-17191001D01*
X20496007Y-17191004D01*
X20452595Y-17216067D01*
X20452596Y-17216068D01*
X20393289Y-17250308D01*
X20393283Y-17250313D01*
X18927515Y-18716081D01*
X18866192Y-18749566D01*
X18839834Y-18752400D01*
X18703880Y-18752400D01*
X18558892Y-18781240D01*
X18558882Y-18781243D01*
X18422311Y-18837812D01*
X18422298Y-18837819D01*
X18299384Y-18919948D01*
X18299380Y-18919951D01*
X18194851Y-19024480D01*
X18194848Y-19024484D01*
X18112719Y-19147398D01*
X18112712Y-19147411D01*
X18056143Y-19283982D01*
X18056140Y-19283992D01*
X18027300Y-19428979D01*
X18027300Y-19428982D01*
X18027300Y-19576818D01*
X18027300Y-19576820D01*
X18027299Y-19576820D01*
X500500Y-19576820D01*
X500500Y-15307071D01*
X520185Y-15240032D01*
X572989Y-15194277D01*
X642147Y-15184333D01*
X705703Y-15213358D01*
X741919Y-15267213D01*
X766417Y-15339384D01*
X766421Y-15339394D01*
X968906Y-15749992D01*
X968910Y-15749998D01*
X968911Y-15750000D01*
X1223263Y-16130665D01*
X1223264Y-16130666D01*
X1525125Y-16474873D01*
X1793919Y-16710599D01*
X1869334Y-16776736D01*
X2250000Y-17031088D01*
X2250003Y-17031089D01*
X2250009Y-17031093D01*
X2660605Y-17233577D01*
X2660614Y-17233581D01*
X3094120Y-17380736D01*
X3094124Y-17380737D01*
X3094133Y-17380740D01*
X3543158Y-17470057D01*
X4000000Y-17500000D01*
X4456841Y-17470057D01*
X4905866Y-17380740D01*
X5275369Y-17255311D01*
X5339384Y-17233581D01*
X5339394Y-17233577D01*
X5749992Y-17031092D01*
X5749992Y-17031091D01*
X5750000Y-17031088D01*
X6130665Y-16776736D01*
X6474873Y-16474873D01*
X6776736Y-16130665D01*
X7031088Y-15750000D01*
X7233578Y-15339392D01*
X7244550Y-15307071D01*
X7380736Y-14905878D01*
X7380736Y-14905877D01*
X7380740Y-14905866D01*
X7470057Y-14456841D01*
X7500000Y-14000000D01*
X7470057Y-13543158D01*
X7380740Y-13094133D01*
X7380736Y-13094120D01*
X7253302Y-12718709D01*
X7233579Y-12660610D01*
X7233577Y-12660604D01*
X7031092Y-12250006D01*
X7031088Y-12250000D01*
X7031088Y-12249999D01*
X6776736Y-11869334D01*
X6685313Y-11765086D01*
X6474873Y-11525125D01*
X6168372Y-11256331D01*
X6130665Y-11223263D01*
X5750000Y-10968911D01*
X5749998Y-10968910D01*
X5749992Y-10968906D01*
X5339394Y-10766421D01*
X5339384Y-10766417D01*
X4905878Y-10619262D01*
X4905858Y-10619257D01*
X4456848Y-10529943D01*
X4456843Y-10529942D01*
X3999999Y-10500000D01*
X3543155Y-10529942D01*
X3543150Y-10529943D01*
X3094140Y-10619257D01*
X3094120Y-10619262D01*
X2660614Y-10766417D01*
X2660604Y-10766421D01*
X2250006Y-10968906D01*
X1869332Y-11223264D01*
X1525125Y-11525125D01*
X1223264Y-11869332D01*
X968914Y-12249994D01*
X968905Y-12250009D01*
X766421Y-12660605D01*
X766419Y-12660610D01*
X741919Y-12732786D01*
X701730Y-12789940D01*
X637021Y-12816293D01*
X568337Y-12803479D01*
X517484Y-12755565D01*
X500500Y-12692927D01*
X500500Y-1006959D01*
X501280Y-993077D01*
X501320Y-992717D01*
X511458Y-902732D01*
X515437Y-891362D01*
X515351Y-882897D01*
X517629Y-875684D01*
X545353Y-796457D01*
X557393Y-771453D01*
X602046Y-700389D01*
X619351Y-678690D01*
X678690Y-619351D01*
X700389Y-602046D01*
X771453Y-557393D01*
X796457Y-545353D01*
X875668Y-517635D01*
X902729Y-511459D01*
X978753Y-502893D01*
X993078Y-501280D01*
X1006960Y-500500D01*
X1065892Y-500500D01*
X51934108Y-500500D01*
X51993040Y-500500D01*
X52006922Y-501280D01*
G37*
%TD.AperFunction*%
%TD*%
M02*
