%TF.GenerationSoftware,KiCad,Pcbnew,10.0.6*%
%TF.CreationDate,2026-10-04T14:02:42+02:00*%
%TF.ProjectId,P10,5031302e-6b69-4636-9164-5f7063625858,P10-R2 PCB*%
%TF.SameCoordinates,Original*%
%TF.FileFunction,Legend,Top*%
%TF.FilePolarity,Positive*%
%FSLAX46Y46*%
G04 Gerber Fmt 4.6, Leading zero omitted, Abs format (unit mm)*
G04 Created by KiCad (PCBNEW 10.0.6) date 2026-10-04 14:02:42*
%MOMM*%
%LPD*%
G01*
G04 APERTURE LIST*
%ADD10C,0.150000*%
%ADD11C,0.120000*%
G04 APERTURE END LIST*
D10*
X1335714Y-97954819D02*
X1335714Y-96954819D01*
X1850000Y-97954819D02*
X1464286Y-97383390D01*
X1850000Y-96954819D02*
X1335714Y-97526247D01*
X2750000Y-97954819D02*
X2450000Y-97478628D01*
X2235714Y-97954819D02*
X2235714Y-96954819D01*
X2235714Y-96954819D02*
X2578571Y-96954819D01*
X2578571Y-96954819D02*
X2664286Y-97002438D01*
X2664286Y-97002438D02*
X2707143Y-97050057D01*
X2707143Y-97050057D02*
X2750000Y-97145295D01*
X2750000Y-97145295D02*
X2750000Y-97288152D01*
X2750000Y-97288152D02*
X2707143Y-97383390D01*
X2707143Y-97383390D02*
X2664286Y-97431009D01*
X2664286Y-97431009D02*
X2578571Y-97478628D01*
X2578571Y-97478628D02*
X2235714Y-97478628D01*
X3092857Y-97669104D02*
X3521429Y-97669104D01*
X3007143Y-97954819D02*
X3307143Y-96954819D01*
X3307143Y-96954819D02*
X3607143Y-97954819D01*
X3821429Y-96954819D02*
X4035715Y-97954819D01*
X4035715Y-97954819D02*
X4207143Y-97240533D01*
X4207143Y-97240533D02*
X4378572Y-97954819D01*
X4378572Y-97954819D02*
X4592858Y-96954819D01*
X4935714Y-97431009D02*
X5235714Y-97431009D01*
X5364286Y-97954819D02*
X4935714Y-97954819D01*
X4935714Y-97954819D02*
X4935714Y-96954819D01*
X4935714Y-96954819D02*
X5364286Y-96954819D01*
X5750000Y-97954819D02*
X5750000Y-96954819D01*
X5750000Y-96954819D02*
X5964286Y-96954819D01*
X5964286Y-96954819D02*
X6092857Y-97002438D01*
X6092857Y-97002438D02*
X6178572Y-97097676D01*
X6178572Y-97097676D02*
X6221429Y-97192914D01*
X6221429Y-97192914D02*
X6264286Y-97383390D01*
X6264286Y-97383390D02*
X6264286Y-97526247D01*
X6264286Y-97526247D02*
X6221429Y-97716723D01*
X6221429Y-97716723D02*
X6178572Y-97811961D01*
X6178572Y-97811961D02*
X6092857Y-97907200D01*
X6092857Y-97907200D02*
X5964286Y-97954819D01*
X5964286Y-97954819D02*
X5750000Y-97954819D01*
X6564286Y-96954819D02*
X7164286Y-96954819D01*
X7164286Y-96954819D02*
X6564286Y-97954819D01*
X6564286Y-97954819D02*
X7164286Y-97954819D01*
X8492857Y-97431009D02*
X8621429Y-97478628D01*
X8621429Y-97478628D02*
X8664286Y-97526247D01*
X8664286Y-97526247D02*
X8707143Y-97621485D01*
X8707143Y-97621485D02*
X8707143Y-97764342D01*
X8707143Y-97764342D02*
X8664286Y-97859580D01*
X8664286Y-97859580D02*
X8621429Y-97907200D01*
X8621429Y-97907200D02*
X8535714Y-97954819D01*
X8535714Y-97954819D02*
X8192857Y-97954819D01*
X8192857Y-97954819D02*
X8192857Y-96954819D01*
X8192857Y-96954819D02*
X8492857Y-96954819D01*
X8492857Y-96954819D02*
X8578572Y-97002438D01*
X8578572Y-97002438D02*
X8621429Y-97050057D01*
X8621429Y-97050057D02*
X8664286Y-97145295D01*
X8664286Y-97145295D02*
X8664286Y-97240533D01*
X8664286Y-97240533D02*
X8621429Y-97335771D01*
X8621429Y-97335771D02*
X8578572Y-97383390D01*
X8578572Y-97383390D02*
X8492857Y-97431009D01*
X8492857Y-97431009D02*
X8192857Y-97431009D01*
X2149999Y-2954819D02*
X2149999Y-1954819D01*
X2664285Y-2954819D02*
X2278571Y-2383390D01*
X2664285Y-1954819D02*
X2149999Y-2526247D01*
X3564285Y-2954819D02*
X3264285Y-2478628D01*
X3049999Y-2954819D02*
X3049999Y-1954819D01*
X3049999Y-1954819D02*
X3392856Y-1954819D01*
X3392856Y-1954819D02*
X3478571Y-2002438D01*
X3478571Y-2002438D02*
X3521428Y-2050057D01*
X3521428Y-2050057D02*
X3564285Y-2145295D01*
X3564285Y-2145295D02*
X3564285Y-2288152D01*
X3564285Y-2288152D02*
X3521428Y-2383390D01*
X3521428Y-2383390D02*
X3478571Y-2431009D01*
X3478571Y-2431009D02*
X3392856Y-2478628D01*
X3392856Y-2478628D02*
X3049999Y-2478628D01*
X3907142Y-2669104D02*
X4335714Y-2669104D01*
X3821428Y-2954819D02*
X4121428Y-1954819D01*
X4121428Y-1954819D02*
X4421428Y-2954819D01*
X4635714Y-1954819D02*
X4850000Y-2954819D01*
X4850000Y-2954819D02*
X5021428Y-2240533D01*
X5021428Y-2240533D02*
X5192857Y-2954819D01*
X5192857Y-2954819D02*
X5407143Y-1954819D01*
X5749999Y-2431009D02*
X6049999Y-2431009D01*
X6178571Y-2954819D02*
X5749999Y-2954819D01*
X5749999Y-2954819D02*
X5749999Y-1954819D01*
X5749999Y-1954819D02*
X6178571Y-1954819D01*
X6564285Y-2954819D02*
X6564285Y-1954819D01*
X6564285Y-1954819D02*
X6778571Y-1954819D01*
X6778571Y-1954819D02*
X6907142Y-2002438D01*
X6907142Y-2002438D02*
X6992857Y-2097676D01*
X6992857Y-2097676D02*
X7035714Y-2192914D01*
X7035714Y-2192914D02*
X7078571Y-2383390D01*
X7078571Y-2383390D02*
X7078571Y-2526247D01*
X7078571Y-2526247D02*
X7035714Y-2716723D01*
X7035714Y-2716723D02*
X6992857Y-2811961D01*
X6992857Y-2811961D02*
X6907142Y-2907200D01*
X6907142Y-2907200D02*
X6778571Y-2954819D01*
X6778571Y-2954819D02*
X6564285Y-2954819D01*
X7378571Y-1954819D02*
X7978571Y-1954819D01*
X7978571Y-1954819D02*
X7378571Y-2954819D01*
X7378571Y-2954819D02*
X7978571Y-2954819D01*
X8964285Y-2669104D02*
X9392857Y-2669104D01*
X8878571Y-2954819D02*
X9178571Y-1954819D01*
X9178571Y-1954819D02*
X9478571Y-2954819D01*
X10721428Y-3335771D02*
X10678571Y-3288152D01*
X10678571Y-3288152D02*
X10592857Y-3145295D01*
X10592857Y-3145295D02*
X10550000Y-3050057D01*
X10550000Y-3050057D02*
X10507142Y-2907200D01*
X10507142Y-2907200D02*
X10464285Y-2669104D01*
X10464285Y-2669104D02*
X10464285Y-2478628D01*
X10464285Y-2478628D02*
X10507142Y-2240533D01*
X10507142Y-2240533D02*
X10550000Y-2097676D01*
X10550000Y-2097676D02*
X10592857Y-2002438D01*
X10592857Y-2002438D02*
X10678571Y-1859580D01*
X10678571Y-1859580D02*
X10721428Y-1811961D01*
X11064285Y-2954819D02*
X11064285Y-1954819D01*
X11064285Y-1954819D02*
X11407142Y-1954819D01*
X11407142Y-1954819D02*
X11492857Y-2002438D01*
X11492857Y-2002438D02*
X11535714Y-2050057D01*
X11535714Y-2050057D02*
X11578571Y-2145295D01*
X11578571Y-2145295D02*
X11578571Y-2288152D01*
X11578571Y-2288152D02*
X11535714Y-2383390D01*
X11535714Y-2383390D02*
X11492857Y-2431009D01*
X11492857Y-2431009D02*
X11407142Y-2478628D01*
X11407142Y-2478628D02*
X11064285Y-2478628D01*
X12435714Y-2954819D02*
X11921428Y-2954819D01*
X12178571Y-2954819D02*
X12178571Y-1954819D01*
X12178571Y-1954819D02*
X12092857Y-2097676D01*
X12092857Y-2097676D02*
X12007142Y-2192914D01*
X12007142Y-2192914D02*
X11921428Y-2240533D01*
X12778571Y-2050057D02*
X12821428Y-2002438D01*
X12821428Y-2002438D02*
X12907143Y-1954819D01*
X12907143Y-1954819D02*
X13121428Y-1954819D01*
X13121428Y-1954819D02*
X13207143Y-2002438D01*
X13207143Y-2002438D02*
X13250000Y-2050057D01*
X13250000Y-2050057D02*
X13292857Y-2145295D01*
X13292857Y-2145295D02*
X13292857Y-2240533D01*
X13292857Y-2240533D02*
X13250000Y-2383390D01*
X13250000Y-2383390D02*
X12735714Y-2954819D01*
X12735714Y-2954819D02*
X13292857Y-2954819D01*
X13592857Y-3335771D02*
X13635714Y-3288152D01*
X13635714Y-3288152D02*
X13721428Y-3145295D01*
X13721428Y-3145295D02*
X13764286Y-3050057D01*
X13764286Y-3050057D02*
X13807143Y-2907200D01*
X13807143Y-2907200D02*
X13850000Y-2669104D01*
X13850000Y-2669104D02*
X13850000Y-2478628D01*
X13850000Y-2478628D02*
X13807143Y-2240533D01*
X13807143Y-2240533D02*
X13764286Y-2097676D01*
X13764286Y-2097676D02*
X13721428Y-2002438D01*
X13721428Y-2002438D02*
X13635714Y-1859580D01*
X13635714Y-1859580D02*
X13592857Y-1811961D01*
X19927143Y-13784819D02*
X19412857Y-13784819D01*
X19670000Y-13784819D02*
X19670000Y-12784819D01*
X19670000Y-12784819D02*
X19584286Y-12927676D01*
X19584286Y-12927676D02*
X19498571Y-13022914D01*
X19498571Y-13022914D02*
X19412857Y-13070533D01*
X36642857Y-55454819D02*
X36642857Y-54454819D01*
X36642857Y-54931009D02*
X37157143Y-54931009D01*
X37157143Y-55454819D02*
X37157143Y-54454819D01*
X37178572Y-58954819D02*
X36750000Y-58954819D01*
X36750000Y-58954819D02*
X36750000Y-57954819D01*
X38667143Y-98164819D02*
X38152857Y-98164819D01*
X38410000Y-98164819D02*
X38410000Y-97164819D01*
X38410000Y-97164819D02*
X38324286Y-97307676D01*
X38324286Y-97307676D02*
X38238571Y-97402914D01*
X38238571Y-97402914D02*
X38152857Y-97450533D01*
X15842438Y-93115601D02*
X15794819Y-93201316D01*
X15794819Y-93201316D02*
X15794819Y-93329887D01*
X15794819Y-93329887D02*
X15842438Y-93458458D01*
X15842438Y-93458458D02*
X15937676Y-93544173D01*
X15937676Y-93544173D02*
X16032914Y-93587030D01*
X16032914Y-93587030D02*
X16223390Y-93629887D01*
X16223390Y-93629887D02*
X16366247Y-93629887D01*
X16366247Y-93629887D02*
X16556723Y-93587030D01*
X16556723Y-93587030D02*
X16651961Y-93544173D01*
X16651961Y-93544173D02*
X16747200Y-93458458D01*
X16747200Y-93458458D02*
X16794819Y-93329887D01*
X16794819Y-93329887D02*
X16794819Y-93244173D01*
X16794819Y-93244173D02*
X16747200Y-93115601D01*
X16747200Y-93115601D02*
X16699580Y-93072744D01*
X16699580Y-93072744D02*
X16366247Y-93072744D01*
X16366247Y-93072744D02*
X16366247Y-93244173D01*
X16794819Y-92687030D02*
X15794819Y-92687030D01*
X15794819Y-92687030D02*
X16794819Y-92172744D01*
X16794819Y-92172744D02*
X15794819Y-92172744D01*
X16794819Y-91744173D02*
X15794819Y-91744173D01*
X15794819Y-91744173D02*
X15794819Y-91529887D01*
X15794819Y-91529887D02*
X15842438Y-91401316D01*
X15842438Y-91401316D02*
X15937676Y-91315601D01*
X15937676Y-91315601D02*
X16032914Y-91272744D01*
X16032914Y-91272744D02*
X16223390Y-91229887D01*
X16223390Y-91229887D02*
X16366247Y-91229887D01*
X16366247Y-91229887D02*
X16556723Y-91272744D01*
X16556723Y-91272744D02*
X16651961Y-91315601D01*
X16651961Y-91315601D02*
X16747200Y-91401316D01*
X16747200Y-91401316D02*
X16794819Y-91529887D01*
X16794819Y-91529887D02*
X16794819Y-91744173D01*
X19239580Y-93072744D02*
X19287200Y-93115601D01*
X19287200Y-93115601D02*
X19334819Y-93244173D01*
X19334819Y-93244173D02*
X19334819Y-93329887D01*
X19334819Y-93329887D02*
X19287200Y-93458458D01*
X19287200Y-93458458D02*
X19191961Y-93544173D01*
X19191961Y-93544173D02*
X19096723Y-93587030D01*
X19096723Y-93587030D02*
X18906247Y-93629887D01*
X18906247Y-93629887D02*
X18763390Y-93629887D01*
X18763390Y-93629887D02*
X18572914Y-93587030D01*
X18572914Y-93587030D02*
X18477676Y-93544173D01*
X18477676Y-93544173D02*
X18382438Y-93458458D01*
X18382438Y-93458458D02*
X18334819Y-93329887D01*
X18334819Y-93329887D02*
X18334819Y-93244173D01*
X18334819Y-93244173D02*
X18382438Y-93115601D01*
X18382438Y-93115601D02*
X18430057Y-93072744D01*
X19049104Y-92729887D02*
X19049104Y-92301316D01*
X19334819Y-92815601D02*
X18334819Y-92515601D01*
X18334819Y-92515601D02*
X19334819Y-92215601D01*
X19334819Y-91915601D02*
X18334819Y-91915601D01*
X18334819Y-91915601D02*
X19334819Y-91401315D01*
X19334819Y-91401315D02*
X18334819Y-91401315D01*
X19430057Y-91187030D02*
X19430057Y-90501315D01*
X19334819Y-89858458D02*
X19334819Y-90287030D01*
X19334819Y-90287030D02*
X18334819Y-90287030D01*
X21779580Y-93072744D02*
X21827200Y-93115601D01*
X21827200Y-93115601D02*
X21874819Y-93244173D01*
X21874819Y-93244173D02*
X21874819Y-93329887D01*
X21874819Y-93329887D02*
X21827200Y-93458458D01*
X21827200Y-93458458D02*
X21731961Y-93544173D01*
X21731961Y-93544173D02*
X21636723Y-93587030D01*
X21636723Y-93587030D02*
X21446247Y-93629887D01*
X21446247Y-93629887D02*
X21303390Y-93629887D01*
X21303390Y-93629887D02*
X21112914Y-93587030D01*
X21112914Y-93587030D02*
X21017676Y-93544173D01*
X21017676Y-93544173D02*
X20922438Y-93458458D01*
X20922438Y-93458458D02*
X20874819Y-93329887D01*
X20874819Y-93329887D02*
X20874819Y-93244173D01*
X20874819Y-93244173D02*
X20922438Y-93115601D01*
X20922438Y-93115601D02*
X20970057Y-93072744D01*
X21589104Y-92729887D02*
X21589104Y-92301316D01*
X21874819Y-92815601D02*
X20874819Y-92515601D01*
X20874819Y-92515601D02*
X21874819Y-92215601D01*
X21874819Y-91915601D02*
X20874819Y-91915601D01*
X20874819Y-91915601D02*
X21874819Y-91401315D01*
X21874819Y-91401315D02*
X20874819Y-91401315D01*
X21970057Y-91187030D02*
X21970057Y-90501315D01*
X21874819Y-90287030D02*
X20874819Y-90287030D01*
X21351009Y-90287030D02*
X21351009Y-89772744D01*
X21874819Y-89772744D02*
X20874819Y-89772744D01*
X24319580Y-93072744D02*
X24367200Y-93115601D01*
X24367200Y-93115601D02*
X24414819Y-93244173D01*
X24414819Y-93244173D02*
X24414819Y-93329887D01*
X24414819Y-93329887D02*
X24367200Y-93458458D01*
X24367200Y-93458458D02*
X24271961Y-93544173D01*
X24271961Y-93544173D02*
X24176723Y-93587030D01*
X24176723Y-93587030D02*
X23986247Y-93629887D01*
X23986247Y-93629887D02*
X23843390Y-93629887D01*
X23843390Y-93629887D02*
X23652914Y-93587030D01*
X23652914Y-93587030D02*
X23557676Y-93544173D01*
X23557676Y-93544173D02*
X23462438Y-93458458D01*
X23462438Y-93458458D02*
X23414819Y-93329887D01*
X23414819Y-93329887D02*
X23414819Y-93244173D01*
X23414819Y-93244173D02*
X23462438Y-93115601D01*
X23462438Y-93115601D02*
X23510057Y-93072744D01*
X24129104Y-92729887D02*
X24129104Y-92301316D01*
X24414819Y-92815601D02*
X23414819Y-92515601D01*
X23414819Y-92515601D02*
X24414819Y-92215601D01*
X24414819Y-91915601D02*
X23414819Y-91915601D01*
X23414819Y-91915601D02*
X24414819Y-91401315D01*
X24414819Y-91401315D02*
X23414819Y-91401315D01*
X24510057Y-91187030D02*
X24510057Y-90501315D01*
X23414819Y-90415601D02*
X23414819Y-89901316D01*
X24414819Y-90158458D02*
X23414819Y-90158458D01*
X23414819Y-89687030D02*
X24414819Y-89087030D01*
X23414819Y-89087030D02*
X24414819Y-89687030D01*
X26859580Y-93072744D02*
X26907200Y-93115601D01*
X26907200Y-93115601D02*
X26954819Y-93244173D01*
X26954819Y-93244173D02*
X26954819Y-93329887D01*
X26954819Y-93329887D02*
X26907200Y-93458458D01*
X26907200Y-93458458D02*
X26811961Y-93544173D01*
X26811961Y-93544173D02*
X26716723Y-93587030D01*
X26716723Y-93587030D02*
X26526247Y-93629887D01*
X26526247Y-93629887D02*
X26383390Y-93629887D01*
X26383390Y-93629887D02*
X26192914Y-93587030D01*
X26192914Y-93587030D02*
X26097676Y-93544173D01*
X26097676Y-93544173D02*
X26002438Y-93458458D01*
X26002438Y-93458458D02*
X25954819Y-93329887D01*
X25954819Y-93329887D02*
X25954819Y-93244173D01*
X25954819Y-93244173D02*
X26002438Y-93115601D01*
X26002438Y-93115601D02*
X26050057Y-93072744D01*
X26669104Y-92729887D02*
X26669104Y-92301316D01*
X26954819Y-92815601D02*
X25954819Y-92515601D01*
X25954819Y-92515601D02*
X26954819Y-92215601D01*
X26954819Y-91915601D02*
X25954819Y-91915601D01*
X25954819Y-91915601D02*
X26954819Y-91401315D01*
X26954819Y-91401315D02*
X25954819Y-91401315D01*
X27050057Y-91187030D02*
X27050057Y-90501315D01*
X26954819Y-89772744D02*
X26478628Y-90072744D01*
X26954819Y-90287030D02*
X25954819Y-90287030D01*
X25954819Y-90287030D02*
X25954819Y-89944173D01*
X25954819Y-89944173D02*
X26002438Y-89858458D01*
X26002438Y-89858458D02*
X26050057Y-89815601D01*
X26050057Y-89815601D02*
X26145295Y-89772744D01*
X26145295Y-89772744D02*
X26288152Y-89772744D01*
X26288152Y-89772744D02*
X26383390Y-89815601D01*
X26383390Y-89815601D02*
X26431009Y-89858458D01*
X26431009Y-89858458D02*
X26478628Y-89944173D01*
X26478628Y-89944173D02*
X26478628Y-90287030D01*
X25954819Y-89472744D02*
X26954819Y-88872744D01*
X25954819Y-88872744D02*
X26954819Y-89472744D01*
X29494819Y-93072744D02*
X29018628Y-93372744D01*
X29494819Y-93587030D02*
X28494819Y-93587030D01*
X28494819Y-93587030D02*
X28494819Y-93244173D01*
X28494819Y-93244173D02*
X28542438Y-93158458D01*
X28542438Y-93158458D02*
X28590057Y-93115601D01*
X28590057Y-93115601D02*
X28685295Y-93072744D01*
X28685295Y-93072744D02*
X28828152Y-93072744D01*
X28828152Y-93072744D02*
X28923390Y-93115601D01*
X28923390Y-93115601D02*
X28971009Y-93158458D01*
X28971009Y-93158458D02*
X29018628Y-93244173D01*
X29018628Y-93244173D02*
X29018628Y-93587030D01*
X28494819Y-92772744D02*
X29494819Y-92172744D01*
X28494819Y-92172744D02*
X29494819Y-92772744D01*
X29590057Y-92044173D02*
X29590057Y-91358458D01*
X29494819Y-90629887D02*
X29018628Y-90929887D01*
X29494819Y-91144173D02*
X28494819Y-91144173D01*
X28494819Y-91144173D02*
X28494819Y-90801316D01*
X28494819Y-90801316D02*
X28542438Y-90715601D01*
X28542438Y-90715601D02*
X28590057Y-90672744D01*
X28590057Y-90672744D02*
X28685295Y-90629887D01*
X28685295Y-90629887D02*
X28828152Y-90629887D01*
X28828152Y-90629887D02*
X28923390Y-90672744D01*
X28923390Y-90672744D02*
X28971009Y-90715601D01*
X28971009Y-90715601D02*
X29018628Y-90801316D01*
X29018628Y-90801316D02*
X29018628Y-91144173D01*
X29209104Y-90287030D02*
X29209104Y-89858459D01*
X29494819Y-90372744D02*
X28494819Y-90072744D01*
X28494819Y-90072744D02*
X29494819Y-89772744D01*
X28494819Y-89558458D02*
X29494819Y-89344172D01*
X29494819Y-89344172D02*
X28780533Y-89172744D01*
X28780533Y-89172744D02*
X29494819Y-89001315D01*
X29494819Y-89001315D02*
X28494819Y-88787030D01*
X31034819Y-93672744D02*
X31034819Y-93115601D01*
X31034819Y-93115601D02*
X31415771Y-93415601D01*
X31415771Y-93415601D02*
X31415771Y-93287030D01*
X31415771Y-93287030D02*
X31463390Y-93201316D01*
X31463390Y-93201316D02*
X31511009Y-93158458D01*
X31511009Y-93158458D02*
X31606247Y-93115601D01*
X31606247Y-93115601D02*
X31844342Y-93115601D01*
X31844342Y-93115601D02*
X31939580Y-93158458D01*
X31939580Y-93158458D02*
X31987200Y-93201316D01*
X31987200Y-93201316D02*
X32034819Y-93287030D01*
X32034819Y-93287030D02*
X32034819Y-93544173D01*
X32034819Y-93544173D02*
X31987200Y-93629887D01*
X31987200Y-93629887D02*
X31939580Y-93672744D01*
X31034819Y-92858458D02*
X32034819Y-92558458D01*
X32034819Y-92558458D02*
X31034819Y-92258458D01*
X31034819Y-92044172D02*
X31034819Y-91487029D01*
X31034819Y-91487029D02*
X31415771Y-91787029D01*
X31415771Y-91787029D02*
X31415771Y-91658458D01*
X31415771Y-91658458D02*
X31463390Y-91572744D01*
X31463390Y-91572744D02*
X31511009Y-91529886D01*
X31511009Y-91529886D02*
X31606247Y-91487029D01*
X31606247Y-91487029D02*
X31844342Y-91487029D01*
X31844342Y-91487029D02*
X31939580Y-91529886D01*
X31939580Y-91529886D02*
X31987200Y-91572744D01*
X31987200Y-91572744D02*
X32034819Y-91658458D01*
X32034819Y-91658458D02*
X32034819Y-91915601D01*
X32034819Y-91915601D02*
X31987200Y-92001315D01*
X31987200Y-92001315D02*
X31939580Y-92044172D01*
X32130057Y-91315601D02*
X32130057Y-90629886D01*
X32034819Y-90415601D02*
X31034819Y-90415601D01*
X31034819Y-89815601D02*
X31034819Y-89644173D01*
X31034819Y-89644173D02*
X31082438Y-89558458D01*
X31082438Y-89558458D02*
X31177676Y-89472744D01*
X31177676Y-89472744D02*
X31368152Y-89429887D01*
X31368152Y-89429887D02*
X31701485Y-89429887D01*
X31701485Y-89429887D02*
X31891961Y-89472744D01*
X31891961Y-89472744D02*
X31987200Y-89558458D01*
X31987200Y-89558458D02*
X32034819Y-89644173D01*
X32034819Y-89644173D02*
X32034819Y-89815601D01*
X32034819Y-89815601D02*
X31987200Y-89901316D01*
X31987200Y-89901316D02*
X31891961Y-89987030D01*
X31891961Y-89987030D02*
X31701485Y-90029887D01*
X31701485Y-90029887D02*
X31368152Y-90029887D01*
X31368152Y-90029887D02*
X31177676Y-89987030D01*
X31177676Y-89987030D02*
X31082438Y-89901316D01*
X31082438Y-89901316D02*
X31034819Y-89815601D01*
X33574819Y-93158458D02*
X33574819Y-93587030D01*
X33574819Y-93587030D02*
X34051009Y-93629887D01*
X34051009Y-93629887D02*
X34003390Y-93587030D01*
X34003390Y-93587030D02*
X33955771Y-93501316D01*
X33955771Y-93501316D02*
X33955771Y-93287030D01*
X33955771Y-93287030D02*
X34003390Y-93201316D01*
X34003390Y-93201316D02*
X34051009Y-93158458D01*
X34051009Y-93158458D02*
X34146247Y-93115601D01*
X34146247Y-93115601D02*
X34384342Y-93115601D01*
X34384342Y-93115601D02*
X34479580Y-93158458D01*
X34479580Y-93158458D02*
X34527200Y-93201316D01*
X34527200Y-93201316D02*
X34574819Y-93287030D01*
X34574819Y-93287030D02*
X34574819Y-93501316D01*
X34574819Y-93501316D02*
X34527200Y-93587030D01*
X34527200Y-93587030D02*
X34479580Y-93629887D01*
X33574819Y-92858458D02*
X34574819Y-92558458D01*
X34574819Y-92558458D02*
X33574819Y-92258458D01*
X34670057Y-92172744D02*
X34670057Y-91487029D01*
X34527200Y-91315601D02*
X34574819Y-91187030D01*
X34574819Y-91187030D02*
X34574819Y-90972744D01*
X34574819Y-90972744D02*
X34527200Y-90887030D01*
X34527200Y-90887030D02*
X34479580Y-90844172D01*
X34479580Y-90844172D02*
X34384342Y-90801315D01*
X34384342Y-90801315D02*
X34289104Y-90801315D01*
X34289104Y-90801315D02*
X34193866Y-90844172D01*
X34193866Y-90844172D02*
X34146247Y-90887030D01*
X34146247Y-90887030D02*
X34098628Y-90972744D01*
X34098628Y-90972744D02*
X34051009Y-91144172D01*
X34051009Y-91144172D02*
X34003390Y-91229887D01*
X34003390Y-91229887D02*
X33955771Y-91272744D01*
X33955771Y-91272744D02*
X33860533Y-91315601D01*
X33860533Y-91315601D02*
X33765295Y-91315601D01*
X33765295Y-91315601D02*
X33670057Y-91272744D01*
X33670057Y-91272744D02*
X33622438Y-91229887D01*
X33622438Y-91229887D02*
X33574819Y-91144172D01*
X33574819Y-91144172D02*
X33574819Y-90929887D01*
X33574819Y-90929887D02*
X33622438Y-90801315D01*
X34098628Y-90244172D02*
X34574819Y-90244172D01*
X33574819Y-90544172D02*
X34098628Y-90244172D01*
X34098628Y-90244172D02*
X33574819Y-89944172D01*
X34527200Y-89687029D02*
X34574819Y-89558458D01*
X34574819Y-89558458D02*
X34574819Y-89344172D01*
X34574819Y-89344172D02*
X34527200Y-89258458D01*
X34527200Y-89258458D02*
X34479580Y-89215600D01*
X34479580Y-89215600D02*
X34384342Y-89172743D01*
X34384342Y-89172743D02*
X34289104Y-89172743D01*
X34289104Y-89172743D02*
X34193866Y-89215600D01*
X34193866Y-89215600D02*
X34146247Y-89258458D01*
X34146247Y-89258458D02*
X34098628Y-89344172D01*
X34098628Y-89344172D02*
X34051009Y-89515600D01*
X34051009Y-89515600D02*
X34003390Y-89601315D01*
X34003390Y-89601315D02*
X33955771Y-89644172D01*
X33955771Y-89644172D02*
X33860533Y-89687029D01*
X33860533Y-89687029D02*
X33765295Y-89687029D01*
X33765295Y-89687029D02*
X33670057Y-89644172D01*
X33670057Y-89644172D02*
X33622438Y-89601315D01*
X33622438Y-89601315D02*
X33574819Y-89515600D01*
X33574819Y-89515600D02*
X33574819Y-89301315D01*
X33574819Y-89301315D02*
X33622438Y-89172743D01*
X36162438Y-93115601D02*
X36114819Y-93201316D01*
X36114819Y-93201316D02*
X36114819Y-93329887D01*
X36114819Y-93329887D02*
X36162438Y-93458458D01*
X36162438Y-93458458D02*
X36257676Y-93544173D01*
X36257676Y-93544173D02*
X36352914Y-93587030D01*
X36352914Y-93587030D02*
X36543390Y-93629887D01*
X36543390Y-93629887D02*
X36686247Y-93629887D01*
X36686247Y-93629887D02*
X36876723Y-93587030D01*
X36876723Y-93587030D02*
X36971961Y-93544173D01*
X36971961Y-93544173D02*
X37067200Y-93458458D01*
X37067200Y-93458458D02*
X37114819Y-93329887D01*
X37114819Y-93329887D02*
X37114819Y-93244173D01*
X37114819Y-93244173D02*
X37067200Y-93115601D01*
X37067200Y-93115601D02*
X37019580Y-93072744D01*
X37019580Y-93072744D02*
X36686247Y-93072744D01*
X36686247Y-93072744D02*
X36686247Y-93244173D01*
X37114819Y-92687030D02*
X36114819Y-92687030D01*
X36114819Y-92687030D02*
X37114819Y-92172744D01*
X37114819Y-92172744D02*
X36114819Y-92172744D01*
X37114819Y-91744173D02*
X36114819Y-91744173D01*
X36114819Y-91744173D02*
X36114819Y-91529887D01*
X36114819Y-91529887D02*
X36162438Y-91401316D01*
X36162438Y-91401316D02*
X36257676Y-91315601D01*
X36257676Y-91315601D02*
X36352914Y-91272744D01*
X36352914Y-91272744D02*
X36543390Y-91229887D01*
X36543390Y-91229887D02*
X36686247Y-91229887D01*
X36686247Y-91229887D02*
X36876723Y-91272744D01*
X36876723Y-91272744D02*
X36971961Y-91315601D01*
X36971961Y-91315601D02*
X37067200Y-91401316D01*
X37067200Y-91401316D02*
X37114819Y-91529887D01*
X37114819Y-91529887D02*
X37114819Y-91744173D01*
X18080001Y-35547342D02*
X18080001Y-34347342D01*
X18080001Y-34347342D02*
X18491430Y-34347342D01*
X18491430Y-34347342D02*
X18594287Y-34404485D01*
X18594287Y-34404485D02*
X18645716Y-34461628D01*
X18645716Y-34461628D02*
X18697144Y-34575914D01*
X18697144Y-34575914D02*
X18697144Y-34747342D01*
X18697144Y-34747342D02*
X18645716Y-34861628D01*
X18645716Y-34861628D02*
X18594287Y-34918771D01*
X18594287Y-34918771D02*
X18491430Y-34975914D01*
X18491430Y-34975914D02*
X18080001Y-34975914D01*
X19725716Y-35547342D02*
X19108573Y-35547342D01*
X19417144Y-35547342D02*
X19417144Y-34347342D01*
X19417144Y-34347342D02*
X19314287Y-34518771D01*
X19314287Y-34518771D02*
X19211430Y-34633057D01*
X19211430Y-34633057D02*
X19108573Y-34690200D01*
X20394287Y-34347342D02*
X20497144Y-34347342D01*
X20497144Y-34347342D02*
X20600001Y-34404485D01*
X20600001Y-34404485D02*
X20651430Y-34461628D01*
X20651430Y-34461628D02*
X20702858Y-34575914D01*
X20702858Y-34575914D02*
X20754287Y-34804485D01*
X20754287Y-34804485D02*
X20754287Y-35090200D01*
X20754287Y-35090200D02*
X20702858Y-35318771D01*
X20702858Y-35318771D02*
X20651430Y-35433057D01*
X20651430Y-35433057D02*
X20600001Y-35490200D01*
X20600001Y-35490200D02*
X20497144Y-35547342D01*
X20497144Y-35547342D02*
X20394287Y-35547342D01*
X20394287Y-35547342D02*
X20291430Y-35490200D01*
X20291430Y-35490200D02*
X20240001Y-35433057D01*
X20240001Y-35433057D02*
X20188572Y-35318771D01*
X20188572Y-35318771D02*
X20137144Y-35090200D01*
X20137144Y-35090200D02*
X20137144Y-34804485D01*
X20137144Y-34804485D02*
X20188572Y-34575914D01*
X20188572Y-34575914D02*
X20240001Y-34461628D01*
X20240001Y-34461628D02*
X20291430Y-34404485D01*
X20291430Y-34404485D02*
X20394287Y-34347342D01*
X22657143Y-35547342D02*
X22297143Y-34975914D01*
X22040000Y-35547342D02*
X22040000Y-34347342D01*
X22040000Y-34347342D02*
X22451429Y-34347342D01*
X22451429Y-34347342D02*
X22554286Y-34404485D01*
X22554286Y-34404485D02*
X22605715Y-34461628D01*
X22605715Y-34461628D02*
X22657143Y-34575914D01*
X22657143Y-34575914D02*
X22657143Y-34747342D01*
X22657143Y-34747342D02*
X22605715Y-34861628D01*
X22605715Y-34861628D02*
X22554286Y-34918771D01*
X22554286Y-34918771D02*
X22451429Y-34975914D01*
X22451429Y-34975914D02*
X22040000Y-34975914D01*
X23068572Y-34461628D02*
X23120000Y-34404485D01*
X23120000Y-34404485D02*
X23222858Y-34347342D01*
X23222858Y-34347342D02*
X23480000Y-34347342D01*
X23480000Y-34347342D02*
X23582858Y-34404485D01*
X23582858Y-34404485D02*
X23634286Y-34461628D01*
X23634286Y-34461628D02*
X23685715Y-34575914D01*
X23685715Y-34575914D02*
X23685715Y-34690200D01*
X23685715Y-34690200D02*
X23634286Y-34861628D01*
X23634286Y-34861628D02*
X23017143Y-35547342D01*
X23017143Y-35547342D02*
X23685715Y-35547342D01*
X24920000Y-35490200D02*
X25074286Y-35547342D01*
X25074286Y-35547342D02*
X25331428Y-35547342D01*
X25331428Y-35547342D02*
X25434286Y-35490200D01*
X25434286Y-35490200D02*
X25485714Y-35433057D01*
X25485714Y-35433057D02*
X25537143Y-35318771D01*
X25537143Y-35318771D02*
X25537143Y-35204485D01*
X25537143Y-35204485D02*
X25485714Y-35090200D01*
X25485714Y-35090200D02*
X25434286Y-35033057D01*
X25434286Y-35033057D02*
X25331428Y-34975914D01*
X25331428Y-34975914D02*
X25125714Y-34918771D01*
X25125714Y-34918771D02*
X25022857Y-34861628D01*
X25022857Y-34861628D02*
X24971428Y-34804485D01*
X24971428Y-34804485D02*
X24920000Y-34690200D01*
X24920000Y-34690200D02*
X24920000Y-34575914D01*
X24920000Y-34575914D02*
X24971428Y-34461628D01*
X24971428Y-34461628D02*
X25022857Y-34404485D01*
X25022857Y-34404485D02*
X25125714Y-34347342D01*
X25125714Y-34347342D02*
X25382857Y-34347342D01*
X25382857Y-34347342D02*
X25537143Y-34404485D01*
X26565714Y-35547342D02*
X25948571Y-35547342D01*
X26257142Y-35547342D02*
X26257142Y-34347342D01*
X26257142Y-34347342D02*
X26154285Y-34518771D01*
X26154285Y-34518771D02*
X26051428Y-34633057D01*
X26051428Y-34633057D02*
X25948571Y-34690200D01*
X27028570Y-35090200D02*
X27851428Y-35090200D01*
X28931428Y-35547342D02*
X28314285Y-35547342D01*
X28622856Y-35547342D02*
X28622856Y-34347342D01*
X28622856Y-34347342D02*
X28519999Y-34518771D01*
X28519999Y-34518771D02*
X28417142Y-34633057D01*
X28417142Y-34633057D02*
X28314285Y-34690200D01*
X30165713Y-34290200D02*
X29239999Y-35833057D01*
X30422856Y-34347342D02*
X31091428Y-34347342D01*
X31091428Y-34347342D02*
X30731428Y-34804485D01*
X30731428Y-34804485D02*
X30885713Y-34804485D01*
X30885713Y-34804485D02*
X30988571Y-34861628D01*
X30988571Y-34861628D02*
X31039999Y-34918771D01*
X31039999Y-34918771D02*
X31091428Y-35033057D01*
X31091428Y-35033057D02*
X31091428Y-35318771D01*
X31091428Y-35318771D02*
X31039999Y-35433057D01*
X31039999Y-35433057D02*
X30988571Y-35490200D01*
X30988571Y-35490200D02*
X30885713Y-35547342D01*
X30885713Y-35547342D02*
X30577142Y-35547342D01*
X30577142Y-35547342D02*
X30474285Y-35490200D01*
X30474285Y-35490200D02*
X30422856Y-35433057D01*
X32325713Y-35490200D02*
X32479999Y-35547342D01*
X32479999Y-35547342D02*
X32737141Y-35547342D01*
X32737141Y-35547342D02*
X32839999Y-35490200D01*
X32839999Y-35490200D02*
X32891427Y-35433057D01*
X32891427Y-35433057D02*
X32942856Y-35318771D01*
X32942856Y-35318771D02*
X32942856Y-35204485D01*
X32942856Y-35204485D02*
X32891427Y-35090200D01*
X32891427Y-35090200D02*
X32839999Y-35033057D01*
X32839999Y-35033057D02*
X32737141Y-34975914D01*
X32737141Y-34975914D02*
X32531427Y-34918771D01*
X32531427Y-34918771D02*
X32428570Y-34861628D01*
X32428570Y-34861628D02*
X32377141Y-34804485D01*
X32377141Y-34804485D02*
X32325713Y-34690200D01*
X32325713Y-34690200D02*
X32325713Y-34575914D01*
X32325713Y-34575914D02*
X32377141Y-34461628D01*
X32377141Y-34461628D02*
X32428570Y-34404485D01*
X32428570Y-34404485D02*
X32531427Y-34347342D01*
X32531427Y-34347342D02*
X32788570Y-34347342D01*
X32788570Y-34347342D02*
X32942856Y-34404485D01*
X33302855Y-34347342D02*
X33971427Y-34347342D01*
X33971427Y-34347342D02*
X33611427Y-34804485D01*
X33611427Y-34804485D02*
X33765712Y-34804485D01*
X33765712Y-34804485D02*
X33868570Y-34861628D01*
X33868570Y-34861628D02*
X33919998Y-34918771D01*
X33919998Y-34918771D02*
X33971427Y-35033057D01*
X33971427Y-35033057D02*
X33971427Y-35318771D01*
X33971427Y-35318771D02*
X33919998Y-35433057D01*
X33919998Y-35433057D02*
X33868570Y-35490200D01*
X33868570Y-35490200D02*
X33765712Y-35547342D01*
X33765712Y-35547342D02*
X33457141Y-35547342D01*
X33457141Y-35547342D02*
X33354284Y-35490200D01*
X33354284Y-35490200D02*
X33302855Y-35433057D01*
X30979819Y-66816666D02*
X30503628Y-67149999D01*
X30979819Y-67388094D02*
X29979819Y-67388094D01*
X29979819Y-67388094D02*
X29979819Y-67007142D01*
X29979819Y-67007142D02*
X30027438Y-66911904D01*
X30027438Y-66911904D02*
X30075057Y-66864285D01*
X30075057Y-66864285D02*
X30170295Y-66816666D01*
X30170295Y-66816666D02*
X30313152Y-66816666D01*
X30313152Y-66816666D02*
X30408390Y-66864285D01*
X30408390Y-66864285D02*
X30456009Y-66911904D01*
X30456009Y-66911904D02*
X30503628Y-67007142D01*
X30503628Y-67007142D02*
X30503628Y-67388094D01*
X30313152Y-65959523D02*
X30979819Y-65959523D01*
X29932200Y-66197618D02*
X30646485Y-66435713D01*
X30646485Y-66435713D02*
X30646485Y-65816666D01*
X13334818Y-71221666D02*
X12858627Y-71554999D01*
X13334818Y-71793094D02*
X12334818Y-71793094D01*
X12334818Y-71793094D02*
X12334818Y-71412142D01*
X12334818Y-71412142D02*
X12382437Y-71316904D01*
X12382437Y-71316904D02*
X12430056Y-71269285D01*
X12430056Y-71269285D02*
X12525294Y-71221666D01*
X12525294Y-71221666D02*
X12668151Y-71221666D01*
X12668151Y-71221666D02*
X12763389Y-71269285D01*
X12763389Y-71269285D02*
X12811008Y-71316904D01*
X12811008Y-71316904D02*
X12858627Y-71412142D01*
X12858627Y-71412142D02*
X12858627Y-71793094D01*
X12430056Y-70840713D02*
X12382437Y-70793094D01*
X12382437Y-70793094D02*
X12334818Y-70697856D01*
X12334818Y-70697856D02*
X12334818Y-70459761D01*
X12334818Y-70459761D02*
X12382437Y-70364523D01*
X12382437Y-70364523D02*
X12430056Y-70316904D01*
X12430056Y-70316904D02*
X12525294Y-70269285D01*
X12525294Y-70269285D02*
X12620532Y-70269285D01*
X12620532Y-70269285D02*
X12763389Y-70316904D01*
X12763389Y-70316904D02*
X13334818Y-70888332D01*
X13334818Y-70888332D02*
X13334818Y-70269285D01*
X12238095Y-55454819D02*
X12238095Y-56264342D01*
X12238095Y-56264342D02*
X12285714Y-56359580D01*
X12285714Y-56359580D02*
X12333333Y-56407200D01*
X12333333Y-56407200D02*
X12428571Y-56454819D01*
X12428571Y-56454819D02*
X12619047Y-56454819D01*
X12619047Y-56454819D02*
X12714285Y-56407200D01*
X12714285Y-56407200D02*
X12761904Y-56359580D01*
X12761904Y-56359580D02*
X12809523Y-56264342D01*
X12809523Y-56264342D02*
X12809523Y-55454819D01*
X13238095Y-55550057D02*
X13285714Y-55502438D01*
X13285714Y-55502438D02*
X13380952Y-55454819D01*
X13380952Y-55454819D02*
X13619047Y-55454819D01*
X13619047Y-55454819D02*
X13714285Y-55502438D01*
X13714285Y-55502438D02*
X13761904Y-55550057D01*
X13761904Y-55550057D02*
X13809523Y-55645295D01*
X13809523Y-55645295D02*
X13809523Y-55740533D01*
X13809523Y-55740533D02*
X13761904Y-55883390D01*
X13761904Y-55883390D02*
X13190476Y-56454819D01*
X13190476Y-56454819D02*
X13809523Y-56454819D01*
X28083333Y-45229819D02*
X27750000Y-44753628D01*
X27511905Y-45229819D02*
X27511905Y-44229819D01*
X27511905Y-44229819D02*
X27892857Y-44229819D01*
X27892857Y-44229819D02*
X27988095Y-44277438D01*
X27988095Y-44277438D02*
X28035714Y-44325057D01*
X28035714Y-44325057D02*
X28083333Y-44420295D01*
X28083333Y-44420295D02*
X28083333Y-44563152D01*
X28083333Y-44563152D02*
X28035714Y-44658390D01*
X28035714Y-44658390D02*
X27988095Y-44706009D01*
X27988095Y-44706009D02*
X27892857Y-44753628D01*
X27892857Y-44753628D02*
X27511905Y-44753628D01*
X28654762Y-44658390D02*
X28559524Y-44610771D01*
X28559524Y-44610771D02*
X28511905Y-44563152D01*
X28511905Y-44563152D02*
X28464286Y-44467914D01*
X28464286Y-44467914D02*
X28464286Y-44420295D01*
X28464286Y-44420295D02*
X28511905Y-44325057D01*
X28511905Y-44325057D02*
X28559524Y-44277438D01*
X28559524Y-44277438D02*
X28654762Y-44229819D01*
X28654762Y-44229819D02*
X28845238Y-44229819D01*
X28845238Y-44229819D02*
X28940476Y-44277438D01*
X28940476Y-44277438D02*
X28988095Y-44325057D01*
X28988095Y-44325057D02*
X29035714Y-44420295D01*
X29035714Y-44420295D02*
X29035714Y-44467914D01*
X29035714Y-44467914D02*
X28988095Y-44563152D01*
X28988095Y-44563152D02*
X28940476Y-44610771D01*
X28940476Y-44610771D02*
X28845238Y-44658390D01*
X28845238Y-44658390D02*
X28654762Y-44658390D01*
X28654762Y-44658390D02*
X28559524Y-44706009D01*
X28559524Y-44706009D02*
X28511905Y-44753628D01*
X28511905Y-44753628D02*
X28464286Y-44848866D01*
X28464286Y-44848866D02*
X28464286Y-45039342D01*
X28464286Y-45039342D02*
X28511905Y-45134580D01*
X28511905Y-45134580D02*
X28559524Y-45182200D01*
X28559524Y-45182200D02*
X28654762Y-45229819D01*
X28654762Y-45229819D02*
X28845238Y-45229819D01*
X28845238Y-45229819D02*
X28940476Y-45182200D01*
X28940476Y-45182200D02*
X28988095Y-45134580D01*
X28988095Y-45134580D02*
X29035714Y-45039342D01*
X29035714Y-45039342D02*
X29035714Y-44848866D01*
X29035714Y-44848866D02*
X28988095Y-44753628D01*
X28988095Y-44753628D02*
X28940476Y-44706009D01*
X28940476Y-44706009D02*
X28845238Y-44658390D01*
X30333333Y-21589819D02*
X30000000Y-21113628D01*
X29761905Y-21589819D02*
X29761905Y-20589819D01*
X29761905Y-20589819D02*
X30142857Y-20589819D01*
X30142857Y-20589819D02*
X30238095Y-20637438D01*
X30238095Y-20637438D02*
X30285714Y-20685057D01*
X30285714Y-20685057D02*
X30333333Y-20780295D01*
X30333333Y-20780295D02*
X30333333Y-20923152D01*
X30333333Y-20923152D02*
X30285714Y-21018390D01*
X30285714Y-21018390D02*
X30238095Y-21066009D01*
X30238095Y-21066009D02*
X30142857Y-21113628D01*
X30142857Y-21113628D02*
X29761905Y-21113628D01*
X30666667Y-20589819D02*
X31333333Y-20589819D01*
X31333333Y-20589819D02*
X30904762Y-21589819D01*
X10358333Y-65169580D02*
X10310714Y-65217200D01*
X10310714Y-65217200D02*
X10167857Y-65264819D01*
X10167857Y-65264819D02*
X10072619Y-65264819D01*
X10072619Y-65264819D02*
X9929762Y-65217200D01*
X9929762Y-65217200D02*
X9834524Y-65121961D01*
X9834524Y-65121961D02*
X9786905Y-65026723D01*
X9786905Y-65026723D02*
X9739286Y-64836247D01*
X9739286Y-64836247D02*
X9739286Y-64693390D01*
X9739286Y-64693390D02*
X9786905Y-64502914D01*
X9786905Y-64502914D02*
X9834524Y-64407676D01*
X9834524Y-64407676D02*
X9929762Y-64312438D01*
X9929762Y-64312438D02*
X10072619Y-64264819D01*
X10072619Y-64264819D02*
X10167857Y-64264819D01*
X10167857Y-64264819D02*
X10310714Y-64312438D01*
X10310714Y-64312438D02*
X10358333Y-64360057D01*
X10691667Y-64264819D02*
X11310714Y-64264819D01*
X11310714Y-64264819D02*
X10977381Y-64645771D01*
X10977381Y-64645771D02*
X11120238Y-64645771D01*
X11120238Y-64645771D02*
X11215476Y-64693390D01*
X11215476Y-64693390D02*
X11263095Y-64741009D01*
X11263095Y-64741009D02*
X11310714Y-64836247D01*
X11310714Y-64836247D02*
X11310714Y-65074342D01*
X11310714Y-65074342D02*
X11263095Y-65169580D01*
X11263095Y-65169580D02*
X11215476Y-65217200D01*
X11215476Y-65217200D02*
X11120238Y-65264819D01*
X11120238Y-65264819D02*
X10834524Y-65264819D01*
X10834524Y-65264819D02*
X10739286Y-65217200D01*
X10739286Y-65217200D02*
X10691667Y-65169580D01*
X18658333Y-55244580D02*
X18610714Y-55292200D01*
X18610714Y-55292200D02*
X18467857Y-55339819D01*
X18467857Y-55339819D02*
X18372619Y-55339819D01*
X18372619Y-55339819D02*
X18229762Y-55292200D01*
X18229762Y-55292200D02*
X18134524Y-55196961D01*
X18134524Y-55196961D02*
X18086905Y-55101723D01*
X18086905Y-55101723D02*
X18039286Y-54911247D01*
X18039286Y-54911247D02*
X18039286Y-54768390D01*
X18039286Y-54768390D02*
X18086905Y-54577914D01*
X18086905Y-54577914D02*
X18134524Y-54482676D01*
X18134524Y-54482676D02*
X18229762Y-54387438D01*
X18229762Y-54387438D02*
X18372619Y-54339819D01*
X18372619Y-54339819D02*
X18467857Y-54339819D01*
X18467857Y-54339819D02*
X18610714Y-54387438D01*
X18610714Y-54387438D02*
X18658333Y-54435057D01*
X19610714Y-55339819D02*
X19039286Y-55339819D01*
X19325000Y-55339819D02*
X19325000Y-54339819D01*
X19325000Y-54339819D02*
X19229762Y-54482676D01*
X19229762Y-54482676D02*
X19134524Y-54577914D01*
X19134524Y-54577914D02*
X19039286Y-54625533D01*
X27108333Y-64264580D02*
X27060714Y-64312200D01*
X27060714Y-64312200D02*
X26917857Y-64359819D01*
X26917857Y-64359819D02*
X26822619Y-64359819D01*
X26822619Y-64359819D02*
X26679762Y-64312200D01*
X26679762Y-64312200D02*
X26584524Y-64216961D01*
X26584524Y-64216961D02*
X26536905Y-64121723D01*
X26536905Y-64121723D02*
X26489286Y-63931247D01*
X26489286Y-63931247D02*
X26489286Y-63788390D01*
X26489286Y-63788390D02*
X26536905Y-63597914D01*
X26536905Y-63597914D02*
X26584524Y-63502676D01*
X26584524Y-63502676D02*
X26679762Y-63407438D01*
X26679762Y-63407438D02*
X26822619Y-63359819D01*
X26822619Y-63359819D02*
X26917857Y-63359819D01*
X26917857Y-63359819D02*
X27060714Y-63407438D01*
X27060714Y-63407438D02*
X27108333Y-63455057D01*
X27489286Y-63455057D02*
X27536905Y-63407438D01*
X27536905Y-63407438D02*
X27632143Y-63359819D01*
X27632143Y-63359819D02*
X27870238Y-63359819D01*
X27870238Y-63359819D02*
X27965476Y-63407438D01*
X27965476Y-63407438D02*
X28013095Y-63455057D01*
X28013095Y-63455057D02*
X28060714Y-63550295D01*
X28060714Y-63550295D02*
X28060714Y-63645533D01*
X28060714Y-63645533D02*
X28013095Y-63788390D01*
X28013095Y-63788390D02*
X27441667Y-64359819D01*
X27441667Y-64359819D02*
X28060714Y-64359819D01*
X21308333Y-70919819D02*
X20975000Y-70443628D01*
X20736905Y-70919819D02*
X20736905Y-69919819D01*
X20736905Y-69919819D02*
X21117857Y-69919819D01*
X21117857Y-69919819D02*
X21213095Y-69967438D01*
X21213095Y-69967438D02*
X21260714Y-70015057D01*
X21260714Y-70015057D02*
X21308333Y-70110295D01*
X21308333Y-70110295D02*
X21308333Y-70253152D01*
X21308333Y-70253152D02*
X21260714Y-70348390D01*
X21260714Y-70348390D02*
X21213095Y-70396009D01*
X21213095Y-70396009D02*
X21117857Y-70443628D01*
X21117857Y-70443628D02*
X20736905Y-70443628D01*
X22165476Y-69919819D02*
X21975000Y-69919819D01*
X21975000Y-69919819D02*
X21879762Y-69967438D01*
X21879762Y-69967438D02*
X21832143Y-70015057D01*
X21832143Y-70015057D02*
X21736905Y-70157914D01*
X21736905Y-70157914D02*
X21689286Y-70348390D01*
X21689286Y-70348390D02*
X21689286Y-70729342D01*
X21689286Y-70729342D02*
X21736905Y-70824580D01*
X21736905Y-70824580D02*
X21784524Y-70872200D01*
X21784524Y-70872200D02*
X21879762Y-70919819D01*
X21879762Y-70919819D02*
X22070238Y-70919819D01*
X22070238Y-70919819D02*
X22165476Y-70872200D01*
X22165476Y-70872200D02*
X22213095Y-70824580D01*
X22213095Y-70824580D02*
X22260714Y-70729342D01*
X22260714Y-70729342D02*
X22260714Y-70491247D01*
X22260714Y-70491247D02*
X22213095Y-70396009D01*
X22213095Y-70396009D02*
X22165476Y-70348390D01*
X22165476Y-70348390D02*
X22070238Y-70300771D01*
X22070238Y-70300771D02*
X21879762Y-70300771D01*
X21879762Y-70300771D02*
X21784524Y-70348390D01*
X21784524Y-70348390D02*
X21736905Y-70396009D01*
X21736905Y-70396009D02*
X21689286Y-70491247D01*
X26166666Y-6569819D02*
X26166666Y-7284104D01*
X26166666Y-7284104D02*
X26119047Y-7426961D01*
X26119047Y-7426961D02*
X26023809Y-7522200D01*
X26023809Y-7522200D02*
X25880952Y-7569819D01*
X25880952Y-7569819D02*
X25785714Y-7569819D01*
X27166666Y-7569819D02*
X26595238Y-7569819D01*
X26880952Y-7569819D02*
X26880952Y-6569819D01*
X26880952Y-6569819D02*
X26785714Y-6712676D01*
X26785714Y-6712676D02*
X26690476Y-6807914D01*
X26690476Y-6807914D02*
X26595238Y-6855533D01*
X24038095Y-56204819D02*
X24038095Y-57014342D01*
X24038095Y-57014342D02*
X24085714Y-57109580D01*
X24085714Y-57109580D02*
X24133333Y-57157200D01*
X24133333Y-57157200D02*
X24228571Y-57204819D01*
X24228571Y-57204819D02*
X24419047Y-57204819D01*
X24419047Y-57204819D02*
X24514285Y-57157200D01*
X24514285Y-57157200D02*
X24561904Y-57109580D01*
X24561904Y-57109580D02*
X24609523Y-57014342D01*
X24609523Y-57014342D02*
X24609523Y-56204819D01*
X25609523Y-57204819D02*
X25038095Y-57204819D01*
X25323809Y-57204819D02*
X25323809Y-56204819D01*
X25323809Y-56204819D02*
X25228571Y-56347676D01*
X25228571Y-56347676D02*
X25133333Y-56442914D01*
X25133333Y-56442914D02*
X25038095Y-56490533D01*
X40916666Y-56204819D02*
X40916666Y-56919104D01*
X40916666Y-56919104D02*
X40869047Y-57061961D01*
X40869047Y-57061961D02*
X40773809Y-57157200D01*
X40773809Y-57157200D02*
X40630952Y-57204819D01*
X40630952Y-57204819D02*
X40535714Y-57204819D01*
X41297619Y-56204819D02*
X41916666Y-56204819D01*
X41916666Y-56204819D02*
X41583333Y-56585771D01*
X41583333Y-56585771D02*
X41726190Y-56585771D01*
X41726190Y-56585771D02*
X41821428Y-56633390D01*
X41821428Y-56633390D02*
X41869047Y-56681009D01*
X41869047Y-56681009D02*
X41916666Y-56776247D01*
X41916666Y-56776247D02*
X41916666Y-57014342D01*
X41916666Y-57014342D02*
X41869047Y-57109580D01*
X41869047Y-57109580D02*
X41821428Y-57157200D01*
X41821428Y-57157200D02*
X41726190Y-57204819D01*
X41726190Y-57204819D02*
X41440476Y-57204819D01*
X41440476Y-57204819D02*
X41345238Y-57157200D01*
X41345238Y-57157200D02*
X41297619Y-57109580D01*
X13179819Y-97678333D02*
X13894104Y-97678333D01*
X13894104Y-97678333D02*
X14036961Y-97725952D01*
X14036961Y-97725952D02*
X14132200Y-97821190D01*
X14132200Y-97821190D02*
X14179819Y-97964047D01*
X14179819Y-97964047D02*
X14179819Y-98059285D01*
X13275057Y-97249761D02*
X13227438Y-97202142D01*
X13227438Y-97202142D02*
X13179819Y-97106904D01*
X13179819Y-97106904D02*
X13179819Y-96868809D01*
X13179819Y-96868809D02*
X13227438Y-96773571D01*
X13227438Y-96773571D02*
X13275057Y-96725952D01*
X13275057Y-96725952D02*
X13370295Y-96678333D01*
X13370295Y-96678333D02*
X13465533Y-96678333D01*
X13465533Y-96678333D02*
X13608390Y-96725952D01*
X13608390Y-96725952D02*
X14179819Y-97297380D01*
X14179819Y-97297380D02*
X14179819Y-96678333D01*
X24293333Y-21536580D02*
X24245714Y-21584200D01*
X24245714Y-21584200D02*
X24102857Y-21631819D01*
X24102857Y-21631819D02*
X24007619Y-21631819D01*
X24007619Y-21631819D02*
X23864762Y-21584200D01*
X23864762Y-21584200D02*
X23769524Y-21488961D01*
X23769524Y-21488961D02*
X23721905Y-21393723D01*
X23721905Y-21393723D02*
X23674286Y-21203247D01*
X23674286Y-21203247D02*
X23674286Y-21060390D01*
X23674286Y-21060390D02*
X23721905Y-20869914D01*
X23721905Y-20869914D02*
X23769524Y-20774676D01*
X23769524Y-20774676D02*
X23864762Y-20679438D01*
X23864762Y-20679438D02*
X24007619Y-20631819D01*
X24007619Y-20631819D02*
X24102857Y-20631819D01*
X24102857Y-20631819D02*
X24245714Y-20679438D01*
X24245714Y-20679438D02*
X24293333Y-20727057D01*
X25198095Y-20631819D02*
X24721905Y-20631819D01*
X24721905Y-20631819D02*
X24674286Y-21108009D01*
X24674286Y-21108009D02*
X24721905Y-21060390D01*
X24721905Y-21060390D02*
X24817143Y-21012771D01*
X24817143Y-21012771D02*
X25055238Y-21012771D01*
X25055238Y-21012771D02*
X25150476Y-21060390D01*
X25150476Y-21060390D02*
X25198095Y-21108009D01*
X25198095Y-21108009D02*
X25245714Y-21203247D01*
X25245714Y-21203247D02*
X25245714Y-21441342D01*
X25245714Y-21441342D02*
X25198095Y-21536580D01*
X25198095Y-21536580D02*
X25150476Y-21584200D01*
X25150476Y-21584200D02*
X25055238Y-21631819D01*
X25055238Y-21631819D02*
X24817143Y-21631819D01*
X24817143Y-21631819D02*
X24721905Y-21584200D01*
X24721905Y-21584200D02*
X24674286Y-21536580D01*
X21253333Y-21536580D02*
X21205714Y-21584200D01*
X21205714Y-21584200D02*
X21062857Y-21631819D01*
X21062857Y-21631819D02*
X20967619Y-21631819D01*
X20967619Y-21631819D02*
X20824762Y-21584200D01*
X20824762Y-21584200D02*
X20729524Y-21488961D01*
X20729524Y-21488961D02*
X20681905Y-21393723D01*
X20681905Y-21393723D02*
X20634286Y-21203247D01*
X20634286Y-21203247D02*
X20634286Y-21060390D01*
X20634286Y-21060390D02*
X20681905Y-20869914D01*
X20681905Y-20869914D02*
X20729524Y-20774676D01*
X20729524Y-20774676D02*
X20824762Y-20679438D01*
X20824762Y-20679438D02*
X20967619Y-20631819D01*
X20967619Y-20631819D02*
X21062857Y-20631819D01*
X21062857Y-20631819D02*
X21205714Y-20679438D01*
X21205714Y-20679438D02*
X21253333Y-20727057D01*
X22110476Y-20965152D02*
X22110476Y-21631819D01*
X21872381Y-20584200D02*
X21634286Y-21298485D01*
X21634286Y-21298485D02*
X22253333Y-21298485D01*
X40148333Y-69049819D02*
X39815000Y-68573628D01*
X39576905Y-69049819D02*
X39576905Y-68049819D01*
X39576905Y-68049819D02*
X39957857Y-68049819D01*
X39957857Y-68049819D02*
X40053095Y-68097438D01*
X40053095Y-68097438D02*
X40100714Y-68145057D01*
X40100714Y-68145057D02*
X40148333Y-68240295D01*
X40148333Y-68240295D02*
X40148333Y-68383152D01*
X40148333Y-68383152D02*
X40100714Y-68478390D01*
X40100714Y-68478390D02*
X40053095Y-68526009D01*
X40053095Y-68526009D02*
X39957857Y-68573628D01*
X39957857Y-68573628D02*
X39576905Y-68573628D01*
X40624524Y-69049819D02*
X40815000Y-69049819D01*
X40815000Y-69049819D02*
X40910238Y-69002200D01*
X40910238Y-69002200D02*
X40957857Y-68954580D01*
X40957857Y-68954580D02*
X41053095Y-68811723D01*
X41053095Y-68811723D02*
X41100714Y-68621247D01*
X41100714Y-68621247D02*
X41100714Y-68240295D01*
X41100714Y-68240295D02*
X41053095Y-68145057D01*
X41053095Y-68145057D02*
X41005476Y-68097438D01*
X41005476Y-68097438D02*
X40910238Y-68049819D01*
X40910238Y-68049819D02*
X40719762Y-68049819D01*
X40719762Y-68049819D02*
X40624524Y-68097438D01*
X40624524Y-68097438D02*
X40576905Y-68145057D01*
X40576905Y-68145057D02*
X40529286Y-68240295D01*
X40529286Y-68240295D02*
X40529286Y-68478390D01*
X40529286Y-68478390D02*
X40576905Y-68573628D01*
X40576905Y-68573628D02*
X40624524Y-68621247D01*
X40624524Y-68621247D02*
X40719762Y-68668866D01*
X40719762Y-68668866D02*
X40910238Y-68668866D01*
X40910238Y-68668866D02*
X41005476Y-68621247D01*
X41005476Y-68621247D02*
X41053095Y-68573628D01*
X41053095Y-68573628D02*
X41100714Y-68478390D01*
X24754819Y-68621666D02*
X24278628Y-68954999D01*
X24754819Y-69193094D02*
X23754819Y-69193094D01*
X23754819Y-69193094D02*
X23754819Y-68812142D01*
X23754819Y-68812142D02*
X23802438Y-68716904D01*
X23802438Y-68716904D02*
X23850057Y-68669285D01*
X23850057Y-68669285D02*
X23945295Y-68621666D01*
X23945295Y-68621666D02*
X24088152Y-68621666D01*
X24088152Y-68621666D02*
X24183390Y-68669285D01*
X24183390Y-68669285D02*
X24231009Y-68716904D01*
X24231009Y-68716904D02*
X24278628Y-68812142D01*
X24278628Y-68812142D02*
X24278628Y-69193094D01*
X23754819Y-67716904D02*
X23754819Y-68193094D01*
X23754819Y-68193094D02*
X24231009Y-68240713D01*
X24231009Y-68240713D02*
X24183390Y-68193094D01*
X24183390Y-68193094D02*
X24135771Y-68097856D01*
X24135771Y-68097856D02*
X24135771Y-67859761D01*
X24135771Y-67859761D02*
X24183390Y-67764523D01*
X24183390Y-67764523D02*
X24231009Y-67716904D01*
X24231009Y-67716904D02*
X24326247Y-67669285D01*
X24326247Y-67669285D02*
X24564342Y-67669285D01*
X24564342Y-67669285D02*
X24659580Y-67716904D01*
X24659580Y-67716904D02*
X24707200Y-67764523D01*
X24707200Y-67764523D02*
X24754819Y-67859761D01*
X24754819Y-67859761D02*
X24754819Y-68097856D01*
X24754819Y-68097856D02*
X24707200Y-68193094D01*
X24707200Y-68193094D02*
X24659580Y-68240713D01*
%TO.C,R4*%
D11*
X29615000Y-62227936D02*
X29615000Y-63682064D01*
X31435000Y-62227936D02*
X31435000Y-63682064D01*
%TO.C,R2*%
X15225000Y-66000000D02*
X15225000Y-63390000D01*
X16595000Y-67370000D02*
G75*
G02*
X13855000Y-67370000I-1370000J0D01*
G01*
X13855000Y-67370000D02*
G75*
G02*
X16595000Y-67370000I1370000J0D01*
G01*
%TO.C,U2*%
X10940000Y-51565000D02*
X15060000Y-51565000D01*
X10940000Y-51630000D02*
X10940000Y-51565000D01*
X10940000Y-60435000D02*
X10940000Y-60370000D01*
X15060000Y-51565000D02*
X15060000Y-51630000D01*
X15060000Y-60370000D02*
X15060000Y-60435000D01*
X15060000Y-60435000D02*
X10940000Y-60435000D01*
X15600000Y-60370000D02*
X15840000Y-60700000D01*
X15360000Y-60700000D01*
X15600000Y-60370000D01*
G36*
X15840000Y-60700000D02*
G01*
X15360000Y-60700000D01*
X15600000Y-60370000D01*
X15840000Y-60700000D01*
G37*
%TO.C,R8*%
X31250000Y-50380000D02*
X31250000Y-47770000D01*
X32620000Y-51750000D02*
G75*
G02*
X29880000Y-51750000I-1370000J0D01*
G01*
X29880000Y-51750000D02*
G75*
G02*
X32620000Y-51750000I1370000J0D01*
G01*
%TO.C,R7*%
X26590000Y-17112936D02*
X26590000Y-18567064D01*
X28410000Y-17112936D02*
X28410000Y-18567064D01*
%TO.C,C3*%
X9155000Y-62190000D02*
X9492000Y-62190000D01*
X9155000Y-67430000D02*
X9155000Y-62190000D01*
X9492000Y-67430000D02*
X9155000Y-67430000D01*
X11558000Y-62190000D02*
X11895000Y-62190000D01*
X11895000Y-62190000D02*
X11895000Y-67430000D01*
X11895000Y-67430000D02*
X11558000Y-67430000D01*
%TO.C,C1*%
X17455000Y-52265000D02*
X17792000Y-52265000D01*
X17455000Y-57505000D02*
X17455000Y-52265000D01*
X17792000Y-57505000D02*
X17455000Y-57505000D01*
X19858000Y-52265000D02*
X20195000Y-52265000D01*
X20195000Y-52265000D02*
X20195000Y-57505000D01*
X20195000Y-57505000D02*
X19858000Y-57505000D01*
%TO.C,C2*%
X25905000Y-61285000D02*
X26242000Y-61285000D01*
X25905000Y-66525000D02*
X25905000Y-61285000D01*
X26242000Y-66525000D02*
X25905000Y-66525000D01*
X28308000Y-61285000D02*
X28645000Y-61285000D01*
X28645000Y-61285000D02*
X28645000Y-66525000D01*
X28645000Y-66525000D02*
X28308000Y-66525000D01*
%TO.C,R1*%
X17565000Y-60842936D02*
X17565000Y-62297064D01*
X19385000Y-60842936D02*
X19385000Y-62297064D01*
%TO.C,R6*%
X17565000Y-66442936D02*
X17565000Y-67897064D01*
X19385000Y-66442936D02*
X19385000Y-67897064D01*
%TO.C,J1*%
X36790000Y-9060000D02*
X16210000Y-9060000D01*
%TO.C,U1*%
X22740000Y-54190000D02*
X26860000Y-54190000D01*
X22740000Y-54285000D02*
X22740000Y-54190000D01*
X22740000Y-59310000D02*
X22740000Y-59215000D01*
X26860000Y-54190000D02*
X26860000Y-54285000D01*
X26860000Y-59215000D02*
X26860000Y-59310000D01*
X26860000Y-59310000D02*
X22740000Y-59310000D01*
X22200000Y-54280000D02*
X21960000Y-53950000D01*
X22440000Y-53950000D01*
X22200000Y-54280000D01*
G36*
X22200000Y-54280000D02*
G01*
X21960000Y-53950000D01*
X22440000Y-53950000D01*
X22200000Y-54280000D01*
G37*
%TO.C,R3*%
X21897936Y-60225000D02*
X23352064Y-60225000D01*
X21897936Y-62045000D02*
X23352064Y-62045000D01*
%TO.C,J2*%
X15910000Y-97037358D02*
X15910000Y-97350000D01*
X16770000Y-97037358D02*
X16770000Y-97350000D01*
X18450000Y-97037358D02*
X18450000Y-97350000D01*
X19310000Y-97037358D02*
X19310000Y-97350000D01*
X20990000Y-97037358D02*
X20990000Y-97350000D01*
X21850000Y-97037358D02*
X21850000Y-97350000D01*
X23530000Y-97037358D02*
X23530000Y-97350000D01*
X24390000Y-97037358D02*
X24390000Y-97350000D01*
X26070000Y-97037358D02*
X26070000Y-97350000D01*
X26930000Y-97037358D02*
X26930000Y-97350000D01*
X28610000Y-97037358D02*
X28610000Y-97350000D01*
X29470000Y-97037358D02*
X29470000Y-97350000D01*
X31150000Y-97037358D02*
X31150000Y-97350000D01*
X32010000Y-97037358D02*
X32010000Y-97350000D01*
X33690000Y-97037358D02*
X33690000Y-97350000D01*
X34550000Y-97037358D02*
X34550000Y-97350000D01*
X36230000Y-97120000D02*
X36230000Y-97350000D01*
X36660000Y-94690000D02*
X37930000Y-94690000D01*
X37090000Y-97120000D02*
X37090000Y-97350000D01*
X37930000Y-94690000D02*
X37930000Y-95960000D01*
%TO.C,C5*%
X23550000Y-17140748D02*
X23550000Y-18563252D01*
X25370000Y-17140748D02*
X25370000Y-18563252D01*
%TO.C,C4*%
X20510000Y-17140748D02*
X20510000Y-18563252D01*
X22330000Y-17140748D02*
X22330000Y-18563252D01*
%TO.C,R9*%
X36370000Y-66250000D02*
X38980000Y-66250000D01*
X36370000Y-66250000D02*
G75*
G02*
X33630000Y-66250000I-1370000J0D01*
G01*
X33630000Y-66250000D02*
G75*
G02*
X36370000Y-66250000I1370000J0D01*
G01*
%TO.C,R5*%
X21415000Y-64727936D02*
X21415000Y-66182064D01*
X23235000Y-64727936D02*
X23235000Y-66182064D01*
%TO.C,D1*%
X30240000Y-55190000D02*
X31760000Y-55190000D01*
X30240000Y-56190000D02*
X30240000Y-55190000D01*
X30240000Y-58310000D02*
X30240000Y-57310000D01*
X31760000Y-55190000D02*
X31760000Y-55240000D01*
X31760000Y-56360000D02*
X31760000Y-57140000D01*
X31760000Y-58260000D02*
X31760000Y-58310000D01*
X31760000Y-58310000D02*
X30240000Y-58310000D01*
X32300000Y-57130000D02*
X32060000Y-56800000D01*
X32540000Y-56800000D01*
X32300000Y-57130000D01*
G36*
X32300000Y-57130000D02*
G01*
X32060000Y-56800000D01*
X32540000Y-56800000D01*
X32300000Y-57130000D01*
G37*
%TD*%
%LPC*%
G36*
X37510000Y-96810000D02*
G01*
X35810000Y-96810000D01*
X35810000Y-95110000D01*
X37510000Y-95110000D01*
X37510000Y-96810000D01*
G37*
G36*
X16586742Y-95146601D02*
G01*
X16740687Y-95210367D01*
X16879234Y-95302941D01*
X16997059Y-95420766D01*
X17089633Y-95559313D01*
X17153399Y-95713258D01*
X17185907Y-95876685D01*
X17185907Y-96043315D01*
X17153399Y-96206742D01*
X17089633Y-96360687D01*
X16997059Y-96499234D01*
X16879234Y-96617059D01*
X16740687Y-96709633D01*
X16586742Y-96773399D01*
X16423315Y-96805907D01*
X16256685Y-96805907D01*
X16093258Y-96773399D01*
X15939313Y-96709633D01*
X15800766Y-96617059D01*
X15682941Y-96499234D01*
X15590367Y-96360687D01*
X15526601Y-96206742D01*
X15494093Y-96043315D01*
X15494093Y-95876685D01*
X15526601Y-95713258D01*
X15590367Y-95559313D01*
X15682941Y-95420766D01*
X15800766Y-95302941D01*
X15939313Y-95210367D01*
X16093258Y-95146601D01*
X16256685Y-95114093D01*
X16423315Y-95114093D01*
X16586742Y-95146601D01*
G37*
G36*
X19126742Y-95146601D02*
G01*
X19280687Y-95210367D01*
X19419234Y-95302941D01*
X19537059Y-95420766D01*
X19629633Y-95559313D01*
X19693399Y-95713258D01*
X19725907Y-95876685D01*
X19725907Y-96043315D01*
X19693399Y-96206742D01*
X19629633Y-96360687D01*
X19537059Y-96499234D01*
X19419234Y-96617059D01*
X19280687Y-96709633D01*
X19126742Y-96773399D01*
X18963315Y-96805907D01*
X18796685Y-96805907D01*
X18633258Y-96773399D01*
X18479313Y-96709633D01*
X18340766Y-96617059D01*
X18222941Y-96499234D01*
X18130367Y-96360687D01*
X18066601Y-96206742D01*
X18034093Y-96043315D01*
X18034093Y-95876685D01*
X18066601Y-95713258D01*
X18130367Y-95559313D01*
X18222941Y-95420766D01*
X18340766Y-95302941D01*
X18479313Y-95210367D01*
X18633258Y-95146601D01*
X18796685Y-95114093D01*
X18963315Y-95114093D01*
X19126742Y-95146601D01*
G37*
G36*
X21666742Y-95146601D02*
G01*
X21820687Y-95210367D01*
X21959234Y-95302941D01*
X22077059Y-95420766D01*
X22169633Y-95559313D01*
X22233399Y-95713258D01*
X22265907Y-95876685D01*
X22265907Y-96043315D01*
X22233399Y-96206742D01*
X22169633Y-96360687D01*
X22077059Y-96499234D01*
X21959234Y-96617059D01*
X21820687Y-96709633D01*
X21666742Y-96773399D01*
X21503315Y-96805907D01*
X21336685Y-96805907D01*
X21173258Y-96773399D01*
X21019313Y-96709633D01*
X20880766Y-96617059D01*
X20762941Y-96499234D01*
X20670367Y-96360687D01*
X20606601Y-96206742D01*
X20574093Y-96043315D01*
X20574093Y-95876685D01*
X20606601Y-95713258D01*
X20670367Y-95559313D01*
X20762941Y-95420766D01*
X20880766Y-95302941D01*
X21019313Y-95210367D01*
X21173258Y-95146601D01*
X21336685Y-95114093D01*
X21503315Y-95114093D01*
X21666742Y-95146601D01*
G37*
G36*
X24206742Y-95146601D02*
G01*
X24360687Y-95210367D01*
X24499234Y-95302941D01*
X24617059Y-95420766D01*
X24709633Y-95559313D01*
X24773399Y-95713258D01*
X24805907Y-95876685D01*
X24805907Y-96043315D01*
X24773399Y-96206742D01*
X24709633Y-96360687D01*
X24617059Y-96499234D01*
X24499234Y-96617059D01*
X24360687Y-96709633D01*
X24206742Y-96773399D01*
X24043315Y-96805907D01*
X23876685Y-96805907D01*
X23713258Y-96773399D01*
X23559313Y-96709633D01*
X23420766Y-96617059D01*
X23302941Y-96499234D01*
X23210367Y-96360687D01*
X23146601Y-96206742D01*
X23114093Y-96043315D01*
X23114093Y-95876685D01*
X23146601Y-95713258D01*
X23210367Y-95559313D01*
X23302941Y-95420766D01*
X23420766Y-95302941D01*
X23559313Y-95210367D01*
X23713258Y-95146601D01*
X23876685Y-95114093D01*
X24043315Y-95114093D01*
X24206742Y-95146601D01*
G37*
G36*
X26746742Y-95146601D02*
G01*
X26900687Y-95210367D01*
X27039234Y-95302941D01*
X27157059Y-95420766D01*
X27249633Y-95559313D01*
X27313399Y-95713258D01*
X27345907Y-95876685D01*
X27345907Y-96043315D01*
X27313399Y-96206742D01*
X27249633Y-96360687D01*
X27157059Y-96499234D01*
X27039234Y-96617059D01*
X26900687Y-96709633D01*
X26746742Y-96773399D01*
X26583315Y-96805907D01*
X26416685Y-96805907D01*
X26253258Y-96773399D01*
X26099313Y-96709633D01*
X25960766Y-96617059D01*
X25842941Y-96499234D01*
X25750367Y-96360687D01*
X25686601Y-96206742D01*
X25654093Y-96043315D01*
X25654093Y-95876685D01*
X25686601Y-95713258D01*
X25750367Y-95559313D01*
X25842941Y-95420766D01*
X25960766Y-95302941D01*
X26099313Y-95210367D01*
X26253258Y-95146601D01*
X26416685Y-95114093D01*
X26583315Y-95114093D01*
X26746742Y-95146601D01*
G37*
G36*
X29286742Y-95146601D02*
G01*
X29440687Y-95210367D01*
X29579234Y-95302941D01*
X29697059Y-95420766D01*
X29789633Y-95559313D01*
X29853399Y-95713258D01*
X29885907Y-95876685D01*
X29885907Y-96043315D01*
X29853399Y-96206742D01*
X29789633Y-96360687D01*
X29697059Y-96499234D01*
X29579234Y-96617059D01*
X29440687Y-96709633D01*
X29286742Y-96773399D01*
X29123315Y-96805907D01*
X28956685Y-96805907D01*
X28793258Y-96773399D01*
X28639313Y-96709633D01*
X28500766Y-96617059D01*
X28382941Y-96499234D01*
X28290367Y-96360687D01*
X28226601Y-96206742D01*
X28194093Y-96043315D01*
X28194093Y-95876685D01*
X28226601Y-95713258D01*
X28290367Y-95559313D01*
X28382941Y-95420766D01*
X28500766Y-95302941D01*
X28639313Y-95210367D01*
X28793258Y-95146601D01*
X28956685Y-95114093D01*
X29123315Y-95114093D01*
X29286742Y-95146601D01*
G37*
G36*
X31826742Y-95146601D02*
G01*
X31980687Y-95210367D01*
X32119234Y-95302941D01*
X32237059Y-95420766D01*
X32329633Y-95559313D01*
X32393399Y-95713258D01*
X32425907Y-95876685D01*
X32425907Y-96043315D01*
X32393399Y-96206742D01*
X32329633Y-96360687D01*
X32237059Y-96499234D01*
X32119234Y-96617059D01*
X31980687Y-96709633D01*
X31826742Y-96773399D01*
X31663315Y-96805907D01*
X31496685Y-96805907D01*
X31333258Y-96773399D01*
X31179313Y-96709633D01*
X31040766Y-96617059D01*
X30922941Y-96499234D01*
X30830367Y-96360687D01*
X30766601Y-96206742D01*
X30734093Y-96043315D01*
X30734093Y-95876685D01*
X30766601Y-95713258D01*
X30830367Y-95559313D01*
X30922941Y-95420766D01*
X31040766Y-95302941D01*
X31179313Y-95210367D01*
X31333258Y-95146601D01*
X31496685Y-95114093D01*
X31663315Y-95114093D01*
X31826742Y-95146601D01*
G37*
G36*
X34366742Y-95146601D02*
G01*
X34520687Y-95210367D01*
X34659234Y-95302941D01*
X34777059Y-95420766D01*
X34869633Y-95559313D01*
X34933399Y-95713258D01*
X34965907Y-95876685D01*
X34965907Y-96043315D01*
X34933399Y-96206742D01*
X34869633Y-96360687D01*
X34777059Y-96499234D01*
X34659234Y-96617059D01*
X34520687Y-96709633D01*
X34366742Y-96773399D01*
X34203315Y-96805907D01*
X34036685Y-96805907D01*
X33873258Y-96773399D01*
X33719313Y-96709633D01*
X33580766Y-96617059D01*
X33462941Y-96499234D01*
X33370367Y-96360687D01*
X33306601Y-96206742D01*
X33274093Y-96043315D01*
X33274093Y-95876685D01*
X33306601Y-95713258D01*
X33370367Y-95559313D01*
X33462941Y-95420766D01*
X33580766Y-95302941D01*
X33719313Y-95210367D01*
X33873258Y-95146601D01*
X34036685Y-95114093D01*
X34203315Y-95114093D01*
X34366742Y-95146601D01*
G37*
G36*
X19104047Y-68070805D02*
G01*
X19155408Y-68076764D01*
X19172954Y-68084511D01*
X19195671Y-68089030D01*
X19219991Y-68105280D01*
X19240793Y-68114465D01*
X19255000Y-68128672D01*
X19276777Y-68143223D01*
X19291327Y-68164999D01*
X19305534Y-68179206D01*
X19314718Y-68200006D01*
X19330970Y-68224329D01*
X19335489Y-68247048D01*
X19343235Y-68264591D01*
X19349192Y-68315940D01*
X19350000Y-68320000D01*
X19350000Y-69120000D01*
X19349192Y-69124059D01*
X19343235Y-69175408D01*
X19335489Y-69192950D01*
X19330970Y-69215671D01*
X19314716Y-69239995D01*
X19305534Y-69260793D01*
X19291329Y-69274997D01*
X19276777Y-69296777D01*
X19254997Y-69311329D01*
X19240793Y-69325534D01*
X19219995Y-69334716D01*
X19195671Y-69350970D01*
X19172950Y-69355489D01*
X19155408Y-69363235D01*
X19104061Y-69369192D01*
X19100000Y-69370000D01*
X17850000Y-69370000D01*
X17845941Y-69369192D01*
X17794591Y-69363235D01*
X17777048Y-69355489D01*
X17754329Y-69350970D01*
X17730006Y-69334718D01*
X17709206Y-69325534D01*
X17694999Y-69311327D01*
X17673223Y-69296777D01*
X17658672Y-69275000D01*
X17644465Y-69260793D01*
X17635280Y-69239991D01*
X17619030Y-69215671D01*
X17614511Y-69192954D01*
X17606764Y-69175408D01*
X17600805Y-69124049D01*
X17600000Y-69120000D01*
X17600000Y-68320000D01*
X17600804Y-68315953D01*
X17606764Y-68264591D01*
X17614511Y-68247043D01*
X17619030Y-68224329D01*
X17635278Y-68200010D01*
X17644465Y-68179206D01*
X17658674Y-68164996D01*
X17673223Y-68143223D01*
X17694996Y-68128674D01*
X17709206Y-68114465D01*
X17730010Y-68105278D01*
X17754329Y-68089030D01*
X17777043Y-68084511D01*
X17794591Y-68076764D01*
X17845952Y-68070805D01*
X17850000Y-68070000D01*
X19100000Y-68070000D01*
X19104047Y-68070805D01*
G37*
G36*
X15457228Y-66604448D02*
G01*
X15602117Y-66664463D01*
X15732515Y-66751592D01*
X15843408Y-66862485D01*
X15930537Y-66992883D01*
X15990552Y-67137772D01*
X16021148Y-67291586D01*
X16021148Y-67448414D01*
X15990552Y-67602228D01*
X15930537Y-67747117D01*
X15843408Y-67877515D01*
X15732515Y-67988408D01*
X15602117Y-68075537D01*
X15457228Y-68135552D01*
X15303414Y-68166148D01*
X15146586Y-68166148D01*
X14992772Y-68135552D01*
X14847883Y-68075537D01*
X14717485Y-67988408D01*
X14606592Y-67877515D01*
X14519463Y-67747117D01*
X14459448Y-67602228D01*
X14428852Y-67448414D01*
X14428852Y-67291586D01*
X14459448Y-67137772D01*
X14519463Y-66992883D01*
X14606592Y-66862485D01*
X14717485Y-66751592D01*
X14847883Y-66664463D01*
X14992772Y-66604448D01*
X15146586Y-66573852D01*
X15303414Y-66573852D01*
X15457228Y-66604448D01*
G37*
G36*
X10757228Y-66544448D02*
G01*
X10902117Y-66604463D01*
X11032515Y-66691592D01*
X11143408Y-66802485D01*
X11230537Y-66932883D01*
X11290552Y-67077772D01*
X11321148Y-67231586D01*
X11321148Y-67388414D01*
X11290552Y-67542228D01*
X11230537Y-67687117D01*
X11143408Y-67817515D01*
X11032515Y-67928408D01*
X10902117Y-68015537D01*
X10757228Y-68075552D01*
X10603414Y-68106148D01*
X10446586Y-68106148D01*
X10292772Y-68075552D01*
X10147883Y-68015537D01*
X10017485Y-67928408D01*
X9906592Y-67817515D01*
X9819463Y-67687117D01*
X9759448Y-67542228D01*
X9728852Y-67388414D01*
X9728852Y-67231586D01*
X9759448Y-67077772D01*
X9819463Y-66932883D01*
X9906592Y-66802485D01*
X10017485Y-66691592D01*
X10147883Y-66604463D01*
X10292772Y-66544448D01*
X10446586Y-66513852D01*
X10603414Y-66513852D01*
X10757228Y-66544448D01*
G37*
G36*
X22954047Y-66355805D02*
G01*
X23005408Y-66361764D01*
X23022954Y-66369511D01*
X23045671Y-66374030D01*
X23069991Y-66390280D01*
X23090793Y-66399465D01*
X23105000Y-66413672D01*
X23126777Y-66428223D01*
X23141327Y-66449999D01*
X23155534Y-66464206D01*
X23164718Y-66485006D01*
X23180970Y-66509329D01*
X23185489Y-66532048D01*
X23193235Y-66549591D01*
X23199192Y-66600940D01*
X23200000Y-66605000D01*
X23200000Y-67405000D01*
X23199192Y-67409059D01*
X23193235Y-67460408D01*
X23185489Y-67477950D01*
X23180970Y-67500671D01*
X23164716Y-67524995D01*
X23155534Y-67545793D01*
X23141329Y-67559997D01*
X23126777Y-67581777D01*
X23104997Y-67596329D01*
X23090793Y-67610534D01*
X23069995Y-67619716D01*
X23045671Y-67635970D01*
X23022950Y-67640489D01*
X23005408Y-67648235D01*
X22954061Y-67654192D01*
X22950000Y-67655000D01*
X21700000Y-67655000D01*
X21695941Y-67654192D01*
X21644591Y-67648235D01*
X21627048Y-67640489D01*
X21604329Y-67635970D01*
X21580006Y-67619718D01*
X21559206Y-67610534D01*
X21544999Y-67596327D01*
X21523223Y-67581777D01*
X21508672Y-67560000D01*
X21494465Y-67545793D01*
X21485280Y-67524991D01*
X21469030Y-67500671D01*
X21464511Y-67477954D01*
X21456764Y-67460408D01*
X21450805Y-67409049D01*
X21450000Y-67405000D01*
X21450000Y-66605000D01*
X21450804Y-66600953D01*
X21456764Y-66549591D01*
X21464511Y-66532043D01*
X21469030Y-66509329D01*
X21485278Y-66485010D01*
X21494465Y-66464206D01*
X21508674Y-66449996D01*
X21523223Y-66428223D01*
X21544996Y-66413674D01*
X21559206Y-66399465D01*
X21580010Y-66390278D01*
X21604329Y-66374030D01*
X21627043Y-66369511D01*
X21644591Y-66361764D01*
X21695952Y-66355805D01*
X21700000Y-66355000D01*
X22950000Y-66355000D01*
X22954047Y-66355805D01*
G37*
G36*
X27507228Y-65639448D02*
G01*
X27652117Y-65699463D01*
X27782515Y-65786592D01*
X27893408Y-65897485D01*
X27980537Y-66027883D01*
X28040552Y-66172772D01*
X28071148Y-66326586D01*
X28071148Y-66483414D01*
X28040552Y-66637228D01*
X27980537Y-66782117D01*
X27893408Y-66912515D01*
X27782515Y-67023408D01*
X27652117Y-67110537D01*
X27507228Y-67170552D01*
X27353414Y-67201148D01*
X27196586Y-67201148D01*
X27042772Y-67170552D01*
X26897883Y-67110537D01*
X26767485Y-67023408D01*
X26656592Y-66912515D01*
X26569463Y-66782117D01*
X26509448Y-66637228D01*
X26478852Y-66483414D01*
X26478852Y-66326586D01*
X26509448Y-66172772D01*
X26569463Y-66027883D01*
X26656592Y-65897485D01*
X26767485Y-65786592D01*
X26897883Y-65699463D01*
X27042772Y-65639448D01*
X27196586Y-65608852D01*
X27353414Y-65608852D01*
X27507228Y-65639448D01*
G37*
G36*
X35232228Y-65484448D02*
G01*
X35377117Y-65544463D01*
X35507515Y-65631592D01*
X35618408Y-65742485D01*
X35705537Y-65872883D01*
X35765552Y-66017772D01*
X35796148Y-66171586D01*
X35796148Y-66328414D01*
X35765552Y-66482228D01*
X35705537Y-66627117D01*
X35618408Y-66757515D01*
X35507515Y-66868408D01*
X35377117Y-66955537D01*
X35232228Y-67015552D01*
X35078414Y-67046148D01*
X34921586Y-67046148D01*
X34767772Y-67015552D01*
X34622883Y-66955537D01*
X34492485Y-66868408D01*
X34381592Y-66757515D01*
X34294463Y-66627117D01*
X34234448Y-66482228D01*
X34203852Y-66328414D01*
X34203852Y-66171586D01*
X34234448Y-66017772D01*
X34294463Y-65872883D01*
X34381592Y-65742485D01*
X34492485Y-65631592D01*
X34622883Y-65544463D01*
X34767772Y-65484448D01*
X34921586Y-65453852D01*
X35078414Y-65453852D01*
X35232228Y-65484448D01*
G37*
G36*
X40312228Y-65484448D02*
G01*
X40457117Y-65544463D01*
X40587515Y-65631592D01*
X40698408Y-65742485D01*
X40785537Y-65872883D01*
X40845552Y-66017772D01*
X40876148Y-66171586D01*
X40876148Y-66328414D01*
X40845552Y-66482228D01*
X40785537Y-66627117D01*
X40698408Y-66757515D01*
X40587515Y-66868408D01*
X40457117Y-66955537D01*
X40312228Y-67015552D01*
X40158414Y-67046148D01*
X40001586Y-67046148D01*
X39847772Y-67015552D01*
X39702883Y-66955537D01*
X39572485Y-66868408D01*
X39461592Y-66757515D01*
X39374463Y-66627117D01*
X39314448Y-66482228D01*
X39283852Y-66328414D01*
X39283852Y-66171586D01*
X39314448Y-66017772D01*
X39374463Y-65872883D01*
X39461592Y-65742485D01*
X39572485Y-65631592D01*
X39702883Y-65544463D01*
X39847772Y-65484448D01*
X40001586Y-65453852D01*
X40158414Y-65453852D01*
X40312228Y-65484448D01*
G37*
G36*
X19104047Y-64970805D02*
G01*
X19155408Y-64976764D01*
X19172954Y-64984511D01*
X19195671Y-64989030D01*
X19219991Y-65005280D01*
X19240793Y-65014465D01*
X19255000Y-65028672D01*
X19276777Y-65043223D01*
X19291327Y-65064999D01*
X19305534Y-65079206D01*
X19314718Y-65100006D01*
X19330970Y-65124329D01*
X19335489Y-65147048D01*
X19343235Y-65164591D01*
X19349192Y-65215940D01*
X19350000Y-65220000D01*
X19350000Y-66020000D01*
X19349192Y-66024059D01*
X19343235Y-66075408D01*
X19335489Y-66092950D01*
X19330970Y-66115671D01*
X19314716Y-66139995D01*
X19305534Y-66160793D01*
X19291329Y-66174997D01*
X19276777Y-66196777D01*
X19254997Y-66211329D01*
X19240793Y-66225534D01*
X19219995Y-66234716D01*
X19195671Y-66250970D01*
X19172950Y-66255489D01*
X19155408Y-66263235D01*
X19104061Y-66269192D01*
X19100000Y-66270000D01*
X17850000Y-66270000D01*
X17845941Y-66269192D01*
X17794591Y-66263235D01*
X17777048Y-66255489D01*
X17754329Y-66250970D01*
X17730006Y-66234718D01*
X17709206Y-66225534D01*
X17694999Y-66211327D01*
X17673223Y-66196777D01*
X17658672Y-66175000D01*
X17644465Y-66160793D01*
X17635280Y-66139991D01*
X17619030Y-66115671D01*
X17614511Y-66092954D01*
X17606764Y-66075408D01*
X17600805Y-66024049D01*
X17600000Y-66020000D01*
X17600000Y-65220000D01*
X17600804Y-65215953D01*
X17606764Y-65164591D01*
X17614511Y-65147043D01*
X17619030Y-65124329D01*
X17635278Y-65100010D01*
X17644465Y-65079206D01*
X17658674Y-65064996D01*
X17673223Y-65043223D01*
X17694996Y-65028674D01*
X17709206Y-65014465D01*
X17730010Y-65005278D01*
X17754329Y-64989030D01*
X17777043Y-64984511D01*
X17794591Y-64976764D01*
X17845952Y-64970805D01*
X17850000Y-64970000D01*
X19100000Y-64970000D01*
X19104047Y-64970805D01*
G37*
G36*
X31154047Y-63855805D02*
G01*
X31205408Y-63861764D01*
X31222954Y-63869511D01*
X31245671Y-63874030D01*
X31269991Y-63890280D01*
X31290793Y-63899465D01*
X31305000Y-63913672D01*
X31326777Y-63928223D01*
X31341327Y-63949999D01*
X31355534Y-63964206D01*
X31364718Y-63985006D01*
X31380970Y-64009329D01*
X31385489Y-64032048D01*
X31393235Y-64049591D01*
X31399192Y-64100940D01*
X31400000Y-64105000D01*
X31400000Y-64905000D01*
X31399192Y-64909059D01*
X31393235Y-64960408D01*
X31385489Y-64977950D01*
X31380970Y-65000671D01*
X31364716Y-65024995D01*
X31355534Y-65045793D01*
X31341329Y-65059997D01*
X31326777Y-65081777D01*
X31304997Y-65096329D01*
X31290793Y-65110534D01*
X31269995Y-65119716D01*
X31245671Y-65135970D01*
X31222950Y-65140489D01*
X31205408Y-65148235D01*
X31154061Y-65154192D01*
X31150000Y-65155000D01*
X29900000Y-65155000D01*
X29895941Y-65154192D01*
X29844591Y-65148235D01*
X29827048Y-65140489D01*
X29804329Y-65135970D01*
X29780006Y-65119718D01*
X29759206Y-65110534D01*
X29744999Y-65096327D01*
X29723223Y-65081777D01*
X29708672Y-65060000D01*
X29694465Y-65045793D01*
X29685280Y-65024991D01*
X29669030Y-65000671D01*
X29664511Y-64977954D01*
X29656764Y-64960408D01*
X29650805Y-64909049D01*
X29650000Y-64905000D01*
X29650000Y-64105000D01*
X29650804Y-64100953D01*
X29656764Y-64049591D01*
X29664511Y-64032043D01*
X29669030Y-64009329D01*
X29685278Y-63985010D01*
X29694465Y-63964206D01*
X29708674Y-63949996D01*
X29723223Y-63928223D01*
X29744996Y-63913674D01*
X29759206Y-63899465D01*
X29780010Y-63890278D01*
X29804329Y-63874030D01*
X29827043Y-63869511D01*
X29844591Y-63861764D01*
X29895952Y-63855805D01*
X29900000Y-63855000D01*
X31150000Y-63855000D01*
X31154047Y-63855805D01*
G37*
G36*
X22954047Y-63255805D02*
G01*
X23005408Y-63261764D01*
X23022954Y-63269511D01*
X23045671Y-63274030D01*
X23069991Y-63290280D01*
X23090793Y-63299465D01*
X23105000Y-63313672D01*
X23126777Y-63328223D01*
X23141327Y-63349999D01*
X23155534Y-63364206D01*
X23164718Y-63385006D01*
X23180970Y-63409329D01*
X23185489Y-63432048D01*
X23193235Y-63449591D01*
X23199192Y-63500940D01*
X23200000Y-63505000D01*
X23200000Y-64305000D01*
X23199192Y-64309059D01*
X23193235Y-64360408D01*
X23185489Y-64377950D01*
X23180970Y-64400671D01*
X23164716Y-64424995D01*
X23155534Y-64445793D01*
X23141329Y-64459997D01*
X23126777Y-64481777D01*
X23104997Y-64496329D01*
X23090793Y-64510534D01*
X23069995Y-64519716D01*
X23045671Y-64535970D01*
X23022950Y-64540489D01*
X23005408Y-64548235D01*
X22954061Y-64554192D01*
X22950000Y-64555000D01*
X21700000Y-64555000D01*
X21695941Y-64554192D01*
X21644591Y-64548235D01*
X21627048Y-64540489D01*
X21604329Y-64535970D01*
X21580006Y-64519718D01*
X21559206Y-64510534D01*
X21544999Y-64496327D01*
X21523223Y-64481777D01*
X21508672Y-64460000D01*
X21494465Y-64445793D01*
X21485280Y-64424991D01*
X21469030Y-64400671D01*
X21464511Y-64377954D01*
X21456764Y-64360408D01*
X21450805Y-64309049D01*
X21450000Y-64305000D01*
X21450000Y-63505000D01*
X21450804Y-63500953D01*
X21456764Y-63449591D01*
X21464511Y-63432043D01*
X21469030Y-63409329D01*
X21485278Y-63385010D01*
X21494465Y-63364206D01*
X21508674Y-63349996D01*
X21523223Y-63328223D01*
X21544996Y-63313674D01*
X21559206Y-63299465D01*
X21580010Y-63290278D01*
X21604329Y-63274030D01*
X21627043Y-63269511D01*
X21644591Y-63261764D01*
X21695952Y-63255805D01*
X21700000Y-63255000D01*
X22950000Y-63255000D01*
X22954047Y-63255805D01*
G37*
G36*
X19104047Y-62470805D02*
G01*
X19155408Y-62476764D01*
X19172954Y-62484511D01*
X19195671Y-62489030D01*
X19219991Y-62505280D01*
X19240793Y-62514465D01*
X19255000Y-62528672D01*
X19276777Y-62543223D01*
X19291327Y-62564999D01*
X19305534Y-62579206D01*
X19314718Y-62600006D01*
X19330970Y-62624329D01*
X19335489Y-62647048D01*
X19343235Y-62664591D01*
X19349192Y-62715940D01*
X19350000Y-62720000D01*
X19350000Y-63520000D01*
X19349192Y-63524059D01*
X19343235Y-63575408D01*
X19335489Y-63592950D01*
X19330970Y-63615671D01*
X19314716Y-63639995D01*
X19305534Y-63660793D01*
X19291329Y-63674997D01*
X19276777Y-63696777D01*
X19254997Y-63711329D01*
X19240793Y-63725534D01*
X19219995Y-63734716D01*
X19195671Y-63750970D01*
X19172950Y-63755489D01*
X19155408Y-63763235D01*
X19104061Y-63769192D01*
X19100000Y-63770000D01*
X17850000Y-63770000D01*
X17845941Y-63769192D01*
X17794591Y-63763235D01*
X17777048Y-63755489D01*
X17754329Y-63750970D01*
X17730006Y-63734718D01*
X17709206Y-63725534D01*
X17694999Y-63711327D01*
X17673223Y-63696777D01*
X17658672Y-63675000D01*
X17644465Y-63660793D01*
X17635280Y-63639991D01*
X17619030Y-63615671D01*
X17614511Y-63592954D01*
X17606764Y-63575408D01*
X17600805Y-63524049D01*
X17600000Y-63520000D01*
X17600000Y-62720000D01*
X17600804Y-62715953D01*
X17606764Y-62664591D01*
X17614511Y-62647043D01*
X17619030Y-62624329D01*
X17635278Y-62600010D01*
X17644465Y-62579206D01*
X17658674Y-62564996D01*
X17673223Y-62543223D01*
X17694996Y-62528674D01*
X17709206Y-62514465D01*
X17730010Y-62505278D01*
X17754329Y-62489030D01*
X17777043Y-62484511D01*
X17794591Y-62476764D01*
X17845952Y-62470805D01*
X17850000Y-62470000D01*
X19100000Y-62470000D01*
X19104047Y-62470805D01*
G37*
G36*
X47373513Y-60444208D02*
G01*
X47612293Y-60521793D01*
X47835998Y-60635776D01*
X48039117Y-60783350D01*
X48216650Y-60960883D01*
X48364224Y-61164002D01*
X48478207Y-61387707D01*
X48555792Y-61626487D01*
X48595068Y-61874465D01*
X48595068Y-62125535D01*
X48555792Y-62373513D01*
X48478207Y-62612293D01*
X48364224Y-62835998D01*
X48216650Y-63039117D01*
X48039117Y-63216650D01*
X47835998Y-63364224D01*
X47612293Y-63478207D01*
X47373513Y-63555792D01*
X47125535Y-63595068D01*
X46874465Y-63595068D01*
X46626487Y-63555792D01*
X46387707Y-63478207D01*
X46164002Y-63364224D01*
X45960883Y-63216650D01*
X45783350Y-63039117D01*
X45635776Y-62835998D01*
X45521793Y-62612293D01*
X45444208Y-62373513D01*
X45404932Y-62125535D01*
X45404932Y-61874465D01*
X45444208Y-61626487D01*
X45521793Y-61387707D01*
X45635776Y-61164002D01*
X45783350Y-60960883D01*
X45960883Y-60783350D01*
X46164002Y-60635776D01*
X46387707Y-60521793D01*
X46626487Y-60444208D01*
X46874465Y-60404932D01*
X47125535Y-60404932D01*
X47373513Y-60444208D01*
G37*
G36*
X10757228Y-61544448D02*
G01*
X10902117Y-61604463D01*
X11032515Y-61691592D01*
X11143408Y-61802485D01*
X11230537Y-61932883D01*
X11290552Y-62077772D01*
X11321148Y-62231586D01*
X11321148Y-62388414D01*
X11290552Y-62542228D01*
X11230537Y-62687117D01*
X11143408Y-62817515D01*
X11032515Y-62928408D01*
X10902117Y-63015537D01*
X10757228Y-63075552D01*
X10603414Y-63106148D01*
X10446586Y-63106148D01*
X10292772Y-63075552D01*
X10147883Y-63015537D01*
X10017485Y-62928408D01*
X9906592Y-62817515D01*
X9819463Y-62687117D01*
X9759448Y-62542228D01*
X9728852Y-62388414D01*
X9728852Y-62231586D01*
X9759448Y-62077772D01*
X9819463Y-61932883D01*
X9906592Y-61802485D01*
X10017485Y-61691592D01*
X10147883Y-61604463D01*
X10292772Y-61544448D01*
X10446586Y-61513852D01*
X10603414Y-61513852D01*
X10757228Y-61544448D01*
G37*
G36*
X15457228Y-61524448D02*
G01*
X15602117Y-61584463D01*
X15732515Y-61671592D01*
X15843408Y-61782485D01*
X15930537Y-61912883D01*
X15990552Y-62057772D01*
X16021148Y-62211586D01*
X16021148Y-62368414D01*
X15990552Y-62522228D01*
X15930537Y-62667117D01*
X15843408Y-62797515D01*
X15732515Y-62908408D01*
X15602117Y-62995537D01*
X15457228Y-63055552D01*
X15303414Y-63086148D01*
X15146586Y-63086148D01*
X14992772Y-63055552D01*
X14847883Y-62995537D01*
X14717485Y-62908408D01*
X14606592Y-62797515D01*
X14519463Y-62667117D01*
X14459448Y-62522228D01*
X14428852Y-62368414D01*
X14428852Y-62211586D01*
X14459448Y-62057772D01*
X14519463Y-61912883D01*
X14606592Y-61782485D01*
X14717485Y-61671592D01*
X14847883Y-61584463D01*
X14992772Y-61524448D01*
X15146586Y-61493852D01*
X15303414Y-61493852D01*
X15457228Y-61524448D01*
G37*
G36*
X27507228Y-60639448D02*
G01*
X27652117Y-60699463D01*
X27782515Y-60786592D01*
X27893408Y-60897485D01*
X27980537Y-61027883D01*
X28040552Y-61172772D01*
X28071148Y-61326586D01*
X28071148Y-61483414D01*
X28040552Y-61637228D01*
X27980537Y-61782117D01*
X27893408Y-61912515D01*
X27782515Y-62023408D01*
X27652117Y-62110537D01*
X27507228Y-62170552D01*
X27353414Y-62201148D01*
X27196586Y-62201148D01*
X27042772Y-62170552D01*
X26897883Y-62110537D01*
X26767485Y-62023408D01*
X26656592Y-61912515D01*
X26569463Y-61782117D01*
X26509448Y-61637228D01*
X26478852Y-61483414D01*
X26478852Y-61326586D01*
X26509448Y-61172772D01*
X26569463Y-61027883D01*
X26656592Y-60897485D01*
X26767485Y-60786592D01*
X26897883Y-60699463D01*
X27042772Y-60639448D01*
X27196586Y-60608852D01*
X27353414Y-60608852D01*
X27507228Y-60639448D01*
G37*
G36*
X31154047Y-60755805D02*
G01*
X31205408Y-60761764D01*
X31222954Y-60769511D01*
X31245671Y-60774030D01*
X31269991Y-60790280D01*
X31290793Y-60799465D01*
X31305000Y-60813672D01*
X31326777Y-60828223D01*
X31341327Y-60849999D01*
X31355534Y-60864206D01*
X31364718Y-60885006D01*
X31380970Y-60909329D01*
X31385489Y-60932048D01*
X31393235Y-60949591D01*
X31399192Y-61000940D01*
X31400000Y-61005000D01*
X31400000Y-61805000D01*
X31399192Y-61809059D01*
X31393235Y-61860408D01*
X31385489Y-61877950D01*
X31380970Y-61900671D01*
X31364716Y-61924995D01*
X31355534Y-61945793D01*
X31341329Y-61959997D01*
X31326777Y-61981777D01*
X31304997Y-61996329D01*
X31290793Y-62010534D01*
X31269995Y-62019716D01*
X31245671Y-62035970D01*
X31222950Y-62040489D01*
X31205408Y-62048235D01*
X31154061Y-62054192D01*
X31150000Y-62055000D01*
X29900000Y-62055000D01*
X29895941Y-62054192D01*
X29844591Y-62048235D01*
X29827048Y-62040489D01*
X29804329Y-62035970D01*
X29780006Y-62019718D01*
X29759206Y-62010534D01*
X29744999Y-61996327D01*
X29723223Y-61981777D01*
X29708672Y-61960000D01*
X29694465Y-61945793D01*
X29685280Y-61924991D01*
X29669030Y-61900671D01*
X29664511Y-61877954D01*
X29656764Y-61860408D01*
X29650805Y-61809049D01*
X29650000Y-61805000D01*
X29650000Y-61005000D01*
X29650804Y-61000953D01*
X29656764Y-60949591D01*
X29664511Y-60932043D01*
X29669030Y-60909329D01*
X29685278Y-60885010D01*
X29694465Y-60864206D01*
X29708674Y-60849996D01*
X29723223Y-60828223D01*
X29744996Y-60813674D01*
X29759206Y-60799465D01*
X29780010Y-60790278D01*
X29804329Y-60774030D01*
X29827043Y-60769511D01*
X29844591Y-60761764D01*
X29895952Y-60755805D01*
X29900000Y-60755000D01*
X31150000Y-60755000D01*
X31154047Y-60755805D01*
G37*
G36*
X21479047Y-60260805D02*
G01*
X21530408Y-60266764D01*
X21547954Y-60274511D01*
X21570671Y-60279030D01*
X21594991Y-60295280D01*
X21615793Y-60304465D01*
X21630000Y-60318672D01*
X21651777Y-60333223D01*
X21666327Y-60354999D01*
X21680534Y-60369206D01*
X21689718Y-60390006D01*
X21705970Y-60414329D01*
X21710489Y-60437048D01*
X21718235Y-60454591D01*
X21724192Y-60505940D01*
X21725000Y-60510000D01*
X21725000Y-61760000D01*
X21724192Y-61764059D01*
X21718235Y-61815408D01*
X21710489Y-61832950D01*
X21705970Y-61855671D01*
X21689716Y-61879995D01*
X21680534Y-61900793D01*
X21666329Y-61914997D01*
X21651777Y-61936777D01*
X21629997Y-61951329D01*
X21615793Y-61965534D01*
X21594995Y-61974716D01*
X21570671Y-61990970D01*
X21547950Y-61995489D01*
X21530408Y-62003235D01*
X21479061Y-62009192D01*
X21475000Y-62010000D01*
X20675000Y-62010000D01*
X20670941Y-62009192D01*
X20619591Y-62003235D01*
X20602048Y-61995489D01*
X20579329Y-61990970D01*
X20555006Y-61974718D01*
X20534206Y-61965534D01*
X20519999Y-61951327D01*
X20498223Y-61936777D01*
X20483672Y-61915000D01*
X20469465Y-61900793D01*
X20460280Y-61879991D01*
X20444030Y-61855671D01*
X20439511Y-61832954D01*
X20431764Y-61815408D01*
X20425805Y-61764049D01*
X20425000Y-61760000D01*
X20425000Y-60510000D01*
X20425804Y-60505953D01*
X20431764Y-60454591D01*
X20439511Y-60437043D01*
X20444030Y-60414329D01*
X20460278Y-60390010D01*
X20469465Y-60369206D01*
X20483674Y-60354996D01*
X20498223Y-60333223D01*
X20519996Y-60318674D01*
X20534206Y-60304465D01*
X20555010Y-60295278D01*
X20579329Y-60279030D01*
X20602043Y-60274511D01*
X20619591Y-60266764D01*
X20670952Y-60260805D01*
X20675000Y-60260000D01*
X21475000Y-60260000D01*
X21479047Y-60260805D01*
G37*
G36*
X24579047Y-60260805D02*
G01*
X24630408Y-60266764D01*
X24647954Y-60274511D01*
X24670671Y-60279030D01*
X24694991Y-60295280D01*
X24715793Y-60304465D01*
X24730000Y-60318672D01*
X24751777Y-60333223D01*
X24766327Y-60354999D01*
X24780534Y-60369206D01*
X24789718Y-60390006D01*
X24805970Y-60414329D01*
X24810489Y-60437048D01*
X24818235Y-60454591D01*
X24824192Y-60505940D01*
X24825000Y-60510000D01*
X24825000Y-61760000D01*
X24824192Y-61764059D01*
X24818235Y-61815408D01*
X24810489Y-61832950D01*
X24805970Y-61855671D01*
X24789716Y-61879995D01*
X24780534Y-61900793D01*
X24766329Y-61914997D01*
X24751777Y-61936777D01*
X24729997Y-61951329D01*
X24715793Y-61965534D01*
X24694995Y-61974716D01*
X24670671Y-61990970D01*
X24647950Y-61995489D01*
X24630408Y-62003235D01*
X24579061Y-62009192D01*
X24575000Y-62010000D01*
X23775000Y-62010000D01*
X23770941Y-62009192D01*
X23719591Y-62003235D01*
X23702048Y-61995489D01*
X23679329Y-61990970D01*
X23655006Y-61974718D01*
X23634206Y-61965534D01*
X23619999Y-61951327D01*
X23598223Y-61936777D01*
X23583672Y-61915000D01*
X23569465Y-61900793D01*
X23560280Y-61879991D01*
X23544030Y-61855671D01*
X23539511Y-61832954D01*
X23531764Y-61815408D01*
X23525805Y-61764049D01*
X23525000Y-61760000D01*
X23525000Y-60510000D01*
X23525804Y-60505953D01*
X23531764Y-60454591D01*
X23539511Y-60437043D01*
X23544030Y-60414329D01*
X23560278Y-60390010D01*
X23569465Y-60369206D01*
X23583674Y-60354996D01*
X23598223Y-60333223D01*
X23619996Y-60318674D01*
X23634206Y-60304465D01*
X23655010Y-60295278D01*
X23679329Y-60279030D01*
X23702043Y-60274511D01*
X23719591Y-60266764D01*
X23770952Y-60260805D01*
X23775000Y-60260000D01*
X24575000Y-60260000D01*
X24579047Y-60260805D01*
G37*
G36*
X19104047Y-59370805D02*
G01*
X19155408Y-59376764D01*
X19172954Y-59384511D01*
X19195671Y-59389030D01*
X19219991Y-59405280D01*
X19240793Y-59414465D01*
X19255000Y-59428672D01*
X19276777Y-59443223D01*
X19291327Y-59464999D01*
X19305534Y-59479206D01*
X19314718Y-59500006D01*
X19330970Y-59524329D01*
X19335489Y-59547048D01*
X19343235Y-59564591D01*
X19349192Y-59615940D01*
X19350000Y-59620000D01*
X19350000Y-60420000D01*
X19349192Y-60424059D01*
X19343235Y-60475408D01*
X19335489Y-60492950D01*
X19330970Y-60515671D01*
X19314716Y-60539995D01*
X19305534Y-60560793D01*
X19291329Y-60574997D01*
X19276777Y-60596777D01*
X19254997Y-60611329D01*
X19240793Y-60625534D01*
X19219995Y-60634716D01*
X19195671Y-60650970D01*
X19172950Y-60655489D01*
X19155408Y-60663235D01*
X19104061Y-60669192D01*
X19100000Y-60670000D01*
X17850000Y-60670000D01*
X17845941Y-60669192D01*
X17794591Y-60663235D01*
X17777048Y-60655489D01*
X17754329Y-60650970D01*
X17730006Y-60634718D01*
X17709206Y-60625534D01*
X17694999Y-60611327D01*
X17673223Y-60596777D01*
X17658672Y-60575000D01*
X17644465Y-60560793D01*
X17635280Y-60539991D01*
X17619030Y-60515671D01*
X17614511Y-60492954D01*
X17606764Y-60475408D01*
X17600805Y-60424049D01*
X17600000Y-60420000D01*
X17600000Y-59620000D01*
X17600804Y-59615953D01*
X17606764Y-59564591D01*
X17614511Y-59547043D01*
X17619030Y-59524329D01*
X17635278Y-59500010D01*
X17644465Y-59479206D01*
X17658674Y-59464996D01*
X17673223Y-59443223D01*
X17694996Y-59428674D01*
X17709206Y-59414465D01*
X17730010Y-59405278D01*
X17754329Y-59389030D01*
X17777043Y-59384511D01*
X17794591Y-59376764D01*
X17845952Y-59370805D01*
X17850000Y-59370000D01*
X19100000Y-59370000D01*
X19104047Y-59370805D01*
G37*
G36*
X11407403Y-59521418D02*
G01*
X11456066Y-59553934D01*
X11488582Y-59602597D01*
X11500000Y-59660000D01*
X11500000Y-59960000D01*
X11488582Y-60017403D01*
X11456066Y-60066066D01*
X11407403Y-60098582D01*
X11350000Y-60110000D01*
X9700000Y-60110000D01*
X9642597Y-60098582D01*
X9593934Y-60066066D01*
X9561418Y-60017403D01*
X9550000Y-59960000D01*
X9550000Y-59660000D01*
X9561418Y-59602597D01*
X9593934Y-59553934D01*
X9642597Y-59521418D01*
X9700000Y-59510000D01*
X11350000Y-59510000D01*
X11407403Y-59521418D01*
G37*
G36*
X16357403Y-59521418D02*
G01*
X16406066Y-59553934D01*
X16438582Y-59602597D01*
X16450000Y-59660000D01*
X16450000Y-59960000D01*
X16438582Y-60017403D01*
X16406066Y-60066066D01*
X16357403Y-60098582D01*
X16300000Y-60110000D01*
X14650000Y-60110000D01*
X14592597Y-60098582D01*
X14543934Y-60066066D01*
X14511418Y-60017403D01*
X14500000Y-59960000D01*
X14500000Y-59660000D01*
X14511418Y-59602597D01*
X14543934Y-59553934D01*
X14592597Y-59521418D01*
X14650000Y-59510000D01*
X16300000Y-59510000D01*
X16357403Y-59521418D01*
G37*
G36*
X35290285Y-57543060D02*
G01*
X35471397Y-57618079D01*
X35634393Y-57726990D01*
X35773010Y-57865607D01*
X35881921Y-58028603D01*
X35956940Y-58209715D01*
X35995185Y-58401983D01*
X35995185Y-58598017D01*
X35956940Y-58790285D01*
X35881921Y-58971397D01*
X35773010Y-59134393D01*
X35634393Y-59273010D01*
X35471397Y-59381921D01*
X35290285Y-59456940D01*
X35098017Y-59495185D01*
X34901983Y-59495185D01*
X34709715Y-59456940D01*
X34528603Y-59381921D01*
X34365607Y-59273010D01*
X34226990Y-59134393D01*
X34118079Y-58971397D01*
X34043060Y-58790285D01*
X34004815Y-58598017D01*
X34004815Y-58401983D01*
X34043060Y-58209715D01*
X34118079Y-58028603D01*
X34226990Y-57865607D01*
X34365607Y-57726990D01*
X34528603Y-57618079D01*
X34709715Y-57543060D01*
X34901983Y-57504815D01*
X35098017Y-57504815D01*
X35290285Y-57543060D01*
G37*
G36*
X23207403Y-58366418D02*
G01*
X23256066Y-58398934D01*
X23288582Y-58447597D01*
X23300000Y-58505000D01*
X23300000Y-58805000D01*
X23288582Y-58862403D01*
X23256066Y-58911066D01*
X23207403Y-58943582D01*
X23150000Y-58955000D01*
X21500000Y-58955000D01*
X21442597Y-58943582D01*
X21393934Y-58911066D01*
X21361418Y-58862403D01*
X21350000Y-58805000D01*
X21350000Y-58505000D01*
X21361418Y-58447597D01*
X21393934Y-58398934D01*
X21442597Y-58366418D01*
X21500000Y-58355000D01*
X23150000Y-58355000D01*
X23207403Y-58366418D01*
G37*
G36*
X28157403Y-58366418D02*
G01*
X28206066Y-58398934D01*
X28238582Y-58447597D01*
X28250000Y-58505000D01*
X28250000Y-58805000D01*
X28238582Y-58862403D01*
X28206066Y-58911066D01*
X28157403Y-58943582D01*
X28100000Y-58955000D01*
X26450000Y-58955000D01*
X26392597Y-58943582D01*
X26343934Y-58911066D01*
X26311418Y-58862403D01*
X26300000Y-58805000D01*
X26300000Y-58505000D01*
X26311418Y-58447597D01*
X26343934Y-58398934D01*
X26392597Y-58366418D01*
X26450000Y-58355000D01*
X28100000Y-58355000D01*
X28157403Y-58366418D01*
G37*
G36*
X11407403Y-58251418D02*
G01*
X11456066Y-58283934D01*
X11488582Y-58332597D01*
X11500000Y-58390000D01*
X11500000Y-58690000D01*
X11488582Y-58747403D01*
X11456066Y-58796066D01*
X11407403Y-58828582D01*
X11350000Y-58840000D01*
X9700000Y-58840000D01*
X9642597Y-58828582D01*
X9593934Y-58796066D01*
X9561418Y-58747403D01*
X9550000Y-58690000D01*
X9550000Y-58390000D01*
X9561418Y-58332597D01*
X9593934Y-58283934D01*
X9642597Y-58251418D01*
X9700000Y-58240000D01*
X11350000Y-58240000D01*
X11407403Y-58251418D01*
G37*
G36*
X16357403Y-58251418D02*
G01*
X16406066Y-58283934D01*
X16438582Y-58332597D01*
X16450000Y-58390000D01*
X16450000Y-58690000D01*
X16438582Y-58747403D01*
X16406066Y-58796066D01*
X16357403Y-58828582D01*
X16300000Y-58840000D01*
X14650000Y-58840000D01*
X14592597Y-58828582D01*
X14543934Y-58796066D01*
X14511418Y-58747403D01*
X14500000Y-58690000D01*
X14500000Y-58390000D01*
X14511418Y-58332597D01*
X14543934Y-58283934D01*
X14592597Y-58251418D01*
X14650000Y-58240000D01*
X16300000Y-58240000D01*
X16357403Y-58251418D01*
G37*
G36*
X19057228Y-56619448D02*
G01*
X19202117Y-56679463D01*
X19332515Y-56766592D01*
X19443408Y-56877485D01*
X19530537Y-57007883D01*
X19590552Y-57152772D01*
X19621148Y-57306586D01*
X19621148Y-57463414D01*
X19590552Y-57617228D01*
X19530537Y-57762117D01*
X19443408Y-57892515D01*
X19332515Y-58003408D01*
X19202117Y-58090537D01*
X19057228Y-58150552D01*
X18903414Y-58181148D01*
X18746586Y-58181148D01*
X18592772Y-58150552D01*
X18447883Y-58090537D01*
X18317485Y-58003408D01*
X18206592Y-57892515D01*
X18119463Y-57762117D01*
X18059448Y-57617228D01*
X18028852Y-57463414D01*
X18028852Y-57306586D01*
X18059448Y-57152772D01*
X18119463Y-57007883D01*
X18206592Y-56877485D01*
X18317485Y-56766592D01*
X18447883Y-56679463D01*
X18592772Y-56619448D01*
X18746586Y-56588852D01*
X18903414Y-56588852D01*
X19057228Y-56619448D01*
G37*
G36*
X32582403Y-57411418D02*
G01*
X32631066Y-57443934D01*
X32663582Y-57492597D01*
X32675000Y-57550000D01*
X32675000Y-57850000D01*
X32663582Y-57907403D01*
X32631066Y-57956066D01*
X32582403Y-57988582D01*
X32525000Y-58000000D01*
X31350000Y-58000000D01*
X31292597Y-57988582D01*
X31243934Y-57956066D01*
X31211418Y-57907403D01*
X31200000Y-57850000D01*
X31200000Y-57550000D01*
X31211418Y-57492597D01*
X31243934Y-57443934D01*
X31292597Y-57411418D01*
X31350000Y-57400000D01*
X32525000Y-57400000D01*
X32582403Y-57411418D01*
G37*
G36*
X23207403Y-57096418D02*
G01*
X23256066Y-57128934D01*
X23288582Y-57177597D01*
X23300000Y-57235000D01*
X23300000Y-57535000D01*
X23288582Y-57592403D01*
X23256066Y-57641066D01*
X23207403Y-57673582D01*
X23150000Y-57685000D01*
X21500000Y-57685000D01*
X21442597Y-57673582D01*
X21393934Y-57641066D01*
X21361418Y-57592403D01*
X21350000Y-57535000D01*
X21350000Y-57235000D01*
X21361418Y-57177597D01*
X21393934Y-57128934D01*
X21442597Y-57096418D01*
X21500000Y-57085000D01*
X23150000Y-57085000D01*
X23207403Y-57096418D01*
G37*
G36*
X28157403Y-57096418D02*
G01*
X28206066Y-57128934D01*
X28238582Y-57177597D01*
X28250000Y-57235000D01*
X28250000Y-57535000D01*
X28238582Y-57592403D01*
X28206066Y-57641066D01*
X28157403Y-57673582D01*
X28100000Y-57685000D01*
X26450000Y-57685000D01*
X26392597Y-57673582D01*
X26343934Y-57641066D01*
X26311418Y-57592403D01*
X26300000Y-57535000D01*
X26300000Y-57235000D01*
X26311418Y-57177597D01*
X26343934Y-57128934D01*
X26392597Y-57096418D01*
X26450000Y-57085000D01*
X28100000Y-57085000D01*
X28157403Y-57096418D01*
G37*
G36*
X11407403Y-56981418D02*
G01*
X11456066Y-57013934D01*
X11488582Y-57062597D01*
X11500000Y-57120000D01*
X11500000Y-57420000D01*
X11488582Y-57477403D01*
X11456066Y-57526066D01*
X11407403Y-57558582D01*
X11350000Y-57570000D01*
X9700000Y-57570000D01*
X9642597Y-57558582D01*
X9593934Y-57526066D01*
X9561418Y-57477403D01*
X9550000Y-57420000D01*
X9550000Y-57120000D01*
X9561418Y-57062597D01*
X9593934Y-57013934D01*
X9642597Y-56981418D01*
X9700000Y-56970000D01*
X11350000Y-56970000D01*
X11407403Y-56981418D01*
G37*
G36*
X16357403Y-56981418D02*
G01*
X16406066Y-57013934D01*
X16438582Y-57062597D01*
X16450000Y-57120000D01*
X16450000Y-57420000D01*
X16438582Y-57477403D01*
X16406066Y-57526066D01*
X16357403Y-57558582D01*
X16300000Y-57570000D01*
X14650000Y-57570000D01*
X14592597Y-57558582D01*
X14543934Y-57526066D01*
X14511418Y-57477403D01*
X14500000Y-57420000D01*
X14500000Y-57120000D01*
X14511418Y-57062597D01*
X14543934Y-57013934D01*
X14592597Y-56981418D01*
X14650000Y-56970000D01*
X16300000Y-56970000D01*
X16357403Y-56981418D01*
G37*
G36*
X30707403Y-56461418D02*
G01*
X30756066Y-56493934D01*
X30788582Y-56542597D01*
X30800000Y-56600000D01*
X30800000Y-56900000D01*
X30788582Y-56957403D01*
X30756066Y-57006066D01*
X30707403Y-57038582D01*
X30650000Y-57050000D01*
X29475000Y-57050000D01*
X29417597Y-57038582D01*
X29368934Y-57006066D01*
X29336418Y-56957403D01*
X29325000Y-56900000D01*
X29325000Y-56600000D01*
X29336418Y-56542597D01*
X29368934Y-56493934D01*
X29417597Y-56461418D01*
X29475000Y-56450000D01*
X30650000Y-56450000D01*
X30707403Y-56461418D01*
G37*
G36*
X23207403Y-55826418D02*
G01*
X23256066Y-55858934D01*
X23288582Y-55907597D01*
X23300000Y-55965000D01*
X23300000Y-56265000D01*
X23288582Y-56322403D01*
X23256066Y-56371066D01*
X23207403Y-56403582D01*
X23150000Y-56415000D01*
X21500000Y-56415000D01*
X21442597Y-56403582D01*
X21393934Y-56371066D01*
X21361418Y-56322403D01*
X21350000Y-56265000D01*
X21350000Y-55965000D01*
X21361418Y-55907597D01*
X21393934Y-55858934D01*
X21442597Y-55826418D01*
X21500000Y-55815000D01*
X23150000Y-55815000D01*
X23207403Y-55826418D01*
G37*
G36*
X28157403Y-55826418D02*
G01*
X28206066Y-55858934D01*
X28238582Y-55907597D01*
X28250000Y-55965000D01*
X28250000Y-56265000D01*
X28238582Y-56322403D01*
X28206066Y-56371066D01*
X28157403Y-56403582D01*
X28100000Y-56415000D01*
X26450000Y-56415000D01*
X26392597Y-56403582D01*
X26343934Y-56371066D01*
X26311418Y-56322403D01*
X26300000Y-56265000D01*
X26300000Y-55965000D01*
X26311418Y-55907597D01*
X26343934Y-55858934D01*
X26392597Y-55826418D01*
X26450000Y-55815000D01*
X28100000Y-55815000D01*
X28157403Y-55826418D01*
G37*
G36*
X11407403Y-55711418D02*
G01*
X11456066Y-55743934D01*
X11488582Y-55792597D01*
X11500000Y-55850000D01*
X11500000Y-56150000D01*
X11488582Y-56207403D01*
X11456066Y-56256066D01*
X11407403Y-56288582D01*
X11350000Y-56300000D01*
X9700000Y-56300000D01*
X9642597Y-56288582D01*
X9593934Y-56256066D01*
X9561418Y-56207403D01*
X9550000Y-56150000D01*
X9550000Y-55850000D01*
X9561418Y-55792597D01*
X9593934Y-55743934D01*
X9642597Y-55711418D01*
X9700000Y-55700000D01*
X11350000Y-55700000D01*
X11407403Y-55711418D01*
G37*
G36*
X16357403Y-55711418D02*
G01*
X16406066Y-55743934D01*
X16438582Y-55792597D01*
X16450000Y-55850000D01*
X16450000Y-56150000D01*
X16438582Y-56207403D01*
X16406066Y-56256066D01*
X16357403Y-56288582D01*
X16300000Y-56300000D01*
X14650000Y-56300000D01*
X14592597Y-56288582D01*
X14543934Y-56256066D01*
X14511418Y-56207403D01*
X14500000Y-56150000D01*
X14500000Y-55850000D01*
X14511418Y-55792597D01*
X14543934Y-55743934D01*
X14592597Y-55711418D01*
X14650000Y-55700000D01*
X16300000Y-55700000D01*
X16357403Y-55711418D01*
G37*
G36*
X32582403Y-55511418D02*
G01*
X32631066Y-55543934D01*
X32663582Y-55592597D01*
X32675000Y-55650000D01*
X32675000Y-55950000D01*
X32663582Y-56007403D01*
X32631066Y-56056066D01*
X32582403Y-56088582D01*
X32525000Y-56100000D01*
X31350000Y-56100000D01*
X31292597Y-56088582D01*
X31243934Y-56056066D01*
X31211418Y-56007403D01*
X31200000Y-55950000D01*
X31200000Y-55650000D01*
X31211418Y-55592597D01*
X31243934Y-55543934D01*
X31292597Y-55511418D01*
X31350000Y-55500000D01*
X32525000Y-55500000D01*
X32582403Y-55511418D01*
G37*
G36*
X36000000Y-56000000D02*
G01*
X34000000Y-56000000D01*
X34000000Y-54000000D01*
X36000000Y-54000000D01*
X36000000Y-56000000D01*
G37*
G36*
X23207403Y-54556418D02*
G01*
X23256066Y-54588934D01*
X23288582Y-54637597D01*
X23300000Y-54695000D01*
X23300000Y-54995000D01*
X23288582Y-55052403D01*
X23256066Y-55101066D01*
X23207403Y-55133582D01*
X23150000Y-55145000D01*
X21500000Y-55145000D01*
X21442597Y-55133582D01*
X21393934Y-55101066D01*
X21361418Y-55052403D01*
X21350000Y-54995000D01*
X21350000Y-54695000D01*
X21361418Y-54637597D01*
X21393934Y-54588934D01*
X21442597Y-54556418D01*
X21500000Y-54545000D01*
X23150000Y-54545000D01*
X23207403Y-54556418D01*
G37*
G36*
X28157403Y-54556418D02*
G01*
X28206066Y-54588934D01*
X28238582Y-54637597D01*
X28250000Y-54695000D01*
X28250000Y-54995000D01*
X28238582Y-55052403D01*
X28206066Y-55101066D01*
X28157403Y-55133582D01*
X28100000Y-55145000D01*
X26450000Y-55145000D01*
X26392597Y-55133582D01*
X26343934Y-55101066D01*
X26311418Y-55052403D01*
X26300000Y-54995000D01*
X26300000Y-54695000D01*
X26311418Y-54637597D01*
X26343934Y-54588934D01*
X26392597Y-54556418D01*
X26450000Y-54545000D01*
X28100000Y-54545000D01*
X28157403Y-54556418D01*
G37*
G36*
X11407403Y-54441418D02*
G01*
X11456066Y-54473934D01*
X11488582Y-54522597D01*
X11500000Y-54580000D01*
X11500000Y-54880000D01*
X11488582Y-54937403D01*
X11456066Y-54986066D01*
X11407403Y-55018582D01*
X11350000Y-55030000D01*
X9700000Y-55030000D01*
X9642597Y-55018582D01*
X9593934Y-54986066D01*
X9561418Y-54937403D01*
X9550000Y-54880000D01*
X9550000Y-54580000D01*
X9561418Y-54522597D01*
X9593934Y-54473934D01*
X9642597Y-54441418D01*
X9700000Y-54430000D01*
X11350000Y-54430000D01*
X11407403Y-54441418D01*
G37*
G36*
X16357403Y-54441418D02*
G01*
X16406066Y-54473934D01*
X16438582Y-54522597D01*
X16450000Y-54580000D01*
X16450000Y-54880000D01*
X16438582Y-54937403D01*
X16406066Y-54986066D01*
X16357403Y-55018582D01*
X16300000Y-55030000D01*
X14650000Y-55030000D01*
X14592597Y-55018582D01*
X14543934Y-54986066D01*
X14511418Y-54937403D01*
X14500000Y-54880000D01*
X14500000Y-54580000D01*
X14511418Y-54522597D01*
X14543934Y-54473934D01*
X14592597Y-54441418D01*
X14650000Y-54430000D01*
X16300000Y-54430000D01*
X16357403Y-54441418D01*
G37*
G36*
X11407403Y-53171418D02*
G01*
X11456066Y-53203934D01*
X11488582Y-53252597D01*
X11500000Y-53310000D01*
X11500000Y-53610000D01*
X11488582Y-53667403D01*
X11456066Y-53716066D01*
X11407403Y-53748582D01*
X11350000Y-53760000D01*
X9700000Y-53760000D01*
X9642597Y-53748582D01*
X9593934Y-53716066D01*
X9561418Y-53667403D01*
X9550000Y-53610000D01*
X9550000Y-53310000D01*
X9561418Y-53252597D01*
X9593934Y-53203934D01*
X9642597Y-53171418D01*
X9700000Y-53160000D01*
X11350000Y-53160000D01*
X11407403Y-53171418D01*
G37*
G36*
X16357403Y-53171418D02*
G01*
X16406066Y-53203934D01*
X16438582Y-53252597D01*
X16450000Y-53310000D01*
X16450000Y-53610000D01*
X16438582Y-53667403D01*
X16406066Y-53716066D01*
X16357403Y-53748582D01*
X16300000Y-53760000D01*
X14650000Y-53760000D01*
X14592597Y-53748582D01*
X14543934Y-53716066D01*
X14511418Y-53667403D01*
X14500000Y-53610000D01*
X14500000Y-53310000D01*
X14511418Y-53252597D01*
X14543934Y-53203934D01*
X14592597Y-53171418D01*
X14650000Y-53160000D01*
X16300000Y-53160000D01*
X16357403Y-53171418D01*
G37*
G36*
X19057228Y-51619448D02*
G01*
X19202117Y-51679463D01*
X19332515Y-51766592D01*
X19443408Y-51877485D01*
X19530537Y-52007883D01*
X19590552Y-52152772D01*
X19621148Y-52306586D01*
X19621148Y-52463414D01*
X19590552Y-52617228D01*
X19530537Y-52762117D01*
X19443408Y-52892515D01*
X19332515Y-53003408D01*
X19202117Y-53090537D01*
X19057228Y-53150552D01*
X18903414Y-53181148D01*
X18746586Y-53181148D01*
X18592772Y-53150552D01*
X18447883Y-53090537D01*
X18317485Y-53003408D01*
X18206592Y-52892515D01*
X18119463Y-52762117D01*
X18059448Y-52617228D01*
X18028852Y-52463414D01*
X18028852Y-52306586D01*
X18059448Y-52152772D01*
X18119463Y-52007883D01*
X18206592Y-51877485D01*
X18317485Y-51766592D01*
X18447883Y-51679463D01*
X18592772Y-51619448D01*
X18746586Y-51588852D01*
X18903414Y-51588852D01*
X19057228Y-51619448D01*
G37*
G36*
X47373513Y-49944208D02*
G01*
X47612293Y-50021793D01*
X47835998Y-50135776D01*
X48039117Y-50283350D01*
X48216650Y-50460883D01*
X48364224Y-50664002D01*
X48478207Y-50887707D01*
X48555792Y-51126487D01*
X48595068Y-51374465D01*
X48595068Y-51625535D01*
X48555792Y-51873513D01*
X48478207Y-52112293D01*
X48364224Y-52335998D01*
X48216650Y-52539117D01*
X48039117Y-52716650D01*
X47835998Y-52864224D01*
X47612293Y-52978207D01*
X47373513Y-53055792D01*
X47125535Y-53095068D01*
X46874465Y-53095068D01*
X46626487Y-53055792D01*
X46387707Y-52978207D01*
X46164002Y-52864224D01*
X45960883Y-52716650D01*
X45783350Y-52539117D01*
X45635776Y-52335998D01*
X45521793Y-52112293D01*
X45444208Y-51873513D01*
X45404932Y-51625535D01*
X45404932Y-51374465D01*
X45444208Y-51126487D01*
X45521793Y-50887707D01*
X45635776Y-50664002D01*
X45783350Y-50460883D01*
X45960883Y-50283350D01*
X46164002Y-50135776D01*
X46387707Y-50021793D01*
X46626487Y-49944208D01*
X46874465Y-49904932D01*
X47125535Y-49904932D01*
X47373513Y-49944208D01*
G37*
G36*
X31482228Y-50984448D02*
G01*
X31627117Y-51044463D01*
X31757515Y-51131592D01*
X31868408Y-51242485D01*
X31955537Y-51372883D01*
X32015552Y-51517772D01*
X32046148Y-51671586D01*
X32046148Y-51828414D01*
X32015552Y-51982228D01*
X31955537Y-52127117D01*
X31868408Y-52257515D01*
X31757515Y-52368408D01*
X31627117Y-52455537D01*
X31482228Y-52515552D01*
X31328414Y-52546148D01*
X31171586Y-52546148D01*
X31017772Y-52515552D01*
X30872883Y-52455537D01*
X30742485Y-52368408D01*
X30631592Y-52257515D01*
X30544463Y-52127117D01*
X30484448Y-51982228D01*
X30453852Y-51828414D01*
X30453852Y-51671586D01*
X30484448Y-51517772D01*
X30544463Y-51372883D01*
X30631592Y-51242485D01*
X30742485Y-51131592D01*
X30872883Y-51044463D01*
X31017772Y-50984448D01*
X31171586Y-50953852D01*
X31328414Y-50953852D01*
X31482228Y-50984448D01*
G37*
G36*
X11407403Y-51901418D02*
G01*
X11456066Y-51933934D01*
X11488582Y-51982597D01*
X11500000Y-52040000D01*
X11500000Y-52340000D01*
X11488582Y-52397403D01*
X11456066Y-52446066D01*
X11407403Y-52478582D01*
X11350000Y-52490000D01*
X9700000Y-52490000D01*
X9642597Y-52478582D01*
X9593934Y-52446066D01*
X9561418Y-52397403D01*
X9550000Y-52340000D01*
X9550000Y-52040000D01*
X9561418Y-51982597D01*
X9593934Y-51933934D01*
X9642597Y-51901418D01*
X9700000Y-51890000D01*
X11350000Y-51890000D01*
X11407403Y-51901418D01*
G37*
G36*
X16357403Y-51901418D02*
G01*
X16406066Y-51933934D01*
X16438582Y-51982597D01*
X16450000Y-52040000D01*
X16450000Y-52340000D01*
X16438582Y-52397403D01*
X16406066Y-52446066D01*
X16357403Y-52478582D01*
X16300000Y-52490000D01*
X14650000Y-52490000D01*
X14592597Y-52478582D01*
X14543934Y-52446066D01*
X14511418Y-52397403D01*
X14500000Y-52340000D01*
X14500000Y-52040000D01*
X14511418Y-51982597D01*
X14543934Y-51933934D01*
X14592597Y-51901418D01*
X14650000Y-51890000D01*
X16300000Y-51890000D01*
X16357403Y-51901418D01*
G37*
G36*
X31482228Y-45904448D02*
G01*
X31627117Y-45964463D01*
X31757515Y-46051592D01*
X31868408Y-46162485D01*
X31955537Y-46292883D01*
X32015552Y-46437772D01*
X32046148Y-46591586D01*
X32046148Y-46748414D01*
X32015552Y-46902228D01*
X31955537Y-47047117D01*
X31868408Y-47177515D01*
X31757515Y-47288408D01*
X31627117Y-47375537D01*
X31482228Y-47435552D01*
X31328414Y-47466148D01*
X31171586Y-47466148D01*
X31017772Y-47435552D01*
X30872883Y-47375537D01*
X30742485Y-47288408D01*
X30631592Y-47177515D01*
X30544463Y-47047117D01*
X30484448Y-46902228D01*
X30453852Y-46748414D01*
X30453852Y-46591586D01*
X30484448Y-46437772D01*
X30544463Y-46292883D01*
X30631592Y-46162485D01*
X30742485Y-46051592D01*
X30872883Y-45964463D01*
X31017772Y-45904448D01*
X31171586Y-45873852D01*
X31328414Y-45873852D01*
X31482228Y-45904448D01*
G37*
G36*
X22074047Y-18752805D02*
G01*
X22125408Y-18758764D01*
X22142954Y-18766511D01*
X22165671Y-18771030D01*
X22189991Y-18787280D01*
X22210793Y-18796465D01*
X22225000Y-18810672D01*
X22246777Y-18825223D01*
X22261327Y-18846999D01*
X22275534Y-18861206D01*
X22284718Y-18882006D01*
X22300970Y-18906329D01*
X22305489Y-18929048D01*
X22313235Y-18946591D01*
X22319192Y-18997940D01*
X22320000Y-19002000D01*
X22320000Y-19827000D01*
X22319192Y-19831059D01*
X22313235Y-19882408D01*
X22305489Y-19899950D01*
X22300970Y-19922671D01*
X22284716Y-19946995D01*
X22275534Y-19967793D01*
X22261329Y-19981997D01*
X22246777Y-20003777D01*
X22224997Y-20018329D01*
X22210793Y-20032534D01*
X22189995Y-20041716D01*
X22165671Y-20057970D01*
X22142950Y-20062489D01*
X22125408Y-20070235D01*
X22074061Y-20076192D01*
X22070000Y-20077000D01*
X20770000Y-20077000D01*
X20765941Y-20076192D01*
X20714591Y-20070235D01*
X20697048Y-20062489D01*
X20674329Y-20057970D01*
X20650006Y-20041718D01*
X20629206Y-20032534D01*
X20614999Y-20018327D01*
X20593223Y-20003777D01*
X20578672Y-19982000D01*
X20564465Y-19967793D01*
X20555280Y-19946991D01*
X20539030Y-19922671D01*
X20534511Y-19899954D01*
X20526764Y-19882408D01*
X20520805Y-19831049D01*
X20520000Y-19827000D01*
X20520000Y-19002000D01*
X20520804Y-18997953D01*
X20526764Y-18946591D01*
X20534511Y-18929043D01*
X20539030Y-18906329D01*
X20555278Y-18882010D01*
X20564465Y-18861206D01*
X20578674Y-18846996D01*
X20593223Y-18825223D01*
X20614996Y-18810674D01*
X20629206Y-18796465D01*
X20650010Y-18787278D01*
X20674329Y-18771030D01*
X20697043Y-18766511D01*
X20714591Y-18758764D01*
X20765952Y-18752805D01*
X20770000Y-18752000D01*
X22070000Y-18752000D01*
X22074047Y-18752805D01*
G37*
G36*
X25114047Y-18752805D02*
G01*
X25165408Y-18758764D01*
X25182954Y-18766511D01*
X25205671Y-18771030D01*
X25229991Y-18787280D01*
X25250793Y-18796465D01*
X25265000Y-18810672D01*
X25286777Y-18825223D01*
X25301327Y-18846999D01*
X25315534Y-18861206D01*
X25324718Y-18882006D01*
X25340970Y-18906329D01*
X25345489Y-18929048D01*
X25353235Y-18946591D01*
X25359192Y-18997940D01*
X25360000Y-19002000D01*
X25360000Y-19827000D01*
X25359192Y-19831059D01*
X25353235Y-19882408D01*
X25345489Y-19899950D01*
X25340970Y-19922671D01*
X25324716Y-19946995D01*
X25315534Y-19967793D01*
X25301329Y-19981997D01*
X25286777Y-20003777D01*
X25264997Y-20018329D01*
X25250793Y-20032534D01*
X25229995Y-20041716D01*
X25205671Y-20057970D01*
X25182950Y-20062489D01*
X25165408Y-20070235D01*
X25114061Y-20076192D01*
X25110000Y-20077000D01*
X23810000Y-20077000D01*
X23805941Y-20076192D01*
X23754591Y-20070235D01*
X23737048Y-20062489D01*
X23714329Y-20057970D01*
X23690006Y-20041718D01*
X23669206Y-20032534D01*
X23654999Y-20018327D01*
X23633223Y-20003777D01*
X23618672Y-19982000D01*
X23604465Y-19967793D01*
X23595280Y-19946991D01*
X23579030Y-19922671D01*
X23574511Y-19899954D01*
X23566764Y-19882408D01*
X23560805Y-19831049D01*
X23560000Y-19827000D01*
X23560000Y-19002000D01*
X23560804Y-18997953D01*
X23566764Y-18946591D01*
X23574511Y-18929043D01*
X23579030Y-18906329D01*
X23595278Y-18882010D01*
X23604465Y-18861206D01*
X23618674Y-18846996D01*
X23633223Y-18825223D01*
X23654996Y-18810674D01*
X23669206Y-18796465D01*
X23690010Y-18787278D01*
X23714329Y-18771030D01*
X23737043Y-18766511D01*
X23754591Y-18758764D01*
X23805952Y-18752805D01*
X23810000Y-18752000D01*
X25110000Y-18752000D01*
X25114047Y-18752805D01*
G37*
G36*
X28129047Y-18740805D02*
G01*
X28180408Y-18746764D01*
X28197954Y-18754511D01*
X28220671Y-18759030D01*
X28244991Y-18775280D01*
X28265793Y-18784465D01*
X28280000Y-18798672D01*
X28301777Y-18813223D01*
X28316327Y-18834999D01*
X28330534Y-18849206D01*
X28339718Y-18870006D01*
X28355970Y-18894329D01*
X28360489Y-18917048D01*
X28368235Y-18934591D01*
X28374192Y-18985940D01*
X28375000Y-18990000D01*
X28375000Y-19790000D01*
X28374192Y-19794059D01*
X28368235Y-19845408D01*
X28360489Y-19862950D01*
X28355970Y-19885671D01*
X28339716Y-19909995D01*
X28330534Y-19930793D01*
X28316329Y-19944997D01*
X28301777Y-19966777D01*
X28279997Y-19981329D01*
X28265793Y-19995534D01*
X28244995Y-20004716D01*
X28220671Y-20020970D01*
X28197950Y-20025489D01*
X28180408Y-20033235D01*
X28129061Y-20039192D01*
X28125000Y-20040000D01*
X26875000Y-20040000D01*
X26870941Y-20039192D01*
X26819591Y-20033235D01*
X26802048Y-20025489D01*
X26779329Y-20020970D01*
X26755006Y-20004718D01*
X26734206Y-19995534D01*
X26719999Y-19981327D01*
X26698223Y-19966777D01*
X26683672Y-19945000D01*
X26669465Y-19930793D01*
X26660280Y-19909991D01*
X26644030Y-19885671D01*
X26639511Y-19862954D01*
X26631764Y-19845408D01*
X26625805Y-19794049D01*
X26625000Y-19790000D01*
X26625000Y-18990000D01*
X26625804Y-18985953D01*
X26631764Y-18934591D01*
X26639511Y-18917043D01*
X26644030Y-18894329D01*
X26660278Y-18870010D01*
X26669465Y-18849206D01*
X26683674Y-18834996D01*
X26698223Y-18813223D01*
X26719996Y-18798674D01*
X26734206Y-18784465D01*
X26755010Y-18775278D01*
X26779329Y-18759030D01*
X26802043Y-18754511D01*
X26819591Y-18746764D01*
X26870952Y-18740805D01*
X26875000Y-18740000D01*
X28125000Y-18740000D01*
X28129047Y-18740805D01*
G37*
G36*
X22074047Y-15627805D02*
G01*
X22125408Y-15633764D01*
X22142954Y-15641511D01*
X22165671Y-15646030D01*
X22189991Y-15662280D01*
X22210793Y-15671465D01*
X22225000Y-15685672D01*
X22246777Y-15700223D01*
X22261327Y-15721999D01*
X22275534Y-15736206D01*
X22284718Y-15757006D01*
X22300970Y-15781329D01*
X22305489Y-15804048D01*
X22313235Y-15821591D01*
X22319192Y-15872940D01*
X22320000Y-15877000D01*
X22320000Y-16702000D01*
X22319192Y-16706059D01*
X22313235Y-16757408D01*
X22305489Y-16774950D01*
X22300970Y-16797671D01*
X22284716Y-16821995D01*
X22275534Y-16842793D01*
X22261329Y-16856997D01*
X22246777Y-16878777D01*
X22224997Y-16893329D01*
X22210793Y-16907534D01*
X22189995Y-16916716D01*
X22165671Y-16932970D01*
X22142950Y-16937489D01*
X22125408Y-16945235D01*
X22074061Y-16951192D01*
X22070000Y-16952000D01*
X20770000Y-16952000D01*
X20765941Y-16951192D01*
X20714591Y-16945235D01*
X20697048Y-16937489D01*
X20674329Y-16932970D01*
X20650006Y-16916718D01*
X20629206Y-16907534D01*
X20614999Y-16893327D01*
X20593223Y-16878777D01*
X20578672Y-16857000D01*
X20564465Y-16842793D01*
X20555280Y-16821991D01*
X20539030Y-16797671D01*
X20534511Y-16774954D01*
X20526764Y-16757408D01*
X20520805Y-16706049D01*
X20520000Y-16702000D01*
X20520000Y-15877000D01*
X20520804Y-15872953D01*
X20526764Y-15821591D01*
X20534511Y-15804043D01*
X20539030Y-15781329D01*
X20555278Y-15757010D01*
X20564465Y-15736206D01*
X20578674Y-15721996D01*
X20593223Y-15700223D01*
X20614996Y-15685674D01*
X20629206Y-15671465D01*
X20650010Y-15662278D01*
X20674329Y-15646030D01*
X20697043Y-15641511D01*
X20714591Y-15633764D01*
X20765952Y-15627805D01*
X20770000Y-15627000D01*
X22070000Y-15627000D01*
X22074047Y-15627805D01*
G37*
G36*
X25114047Y-15627805D02*
G01*
X25165408Y-15633764D01*
X25182954Y-15641511D01*
X25205671Y-15646030D01*
X25229991Y-15662280D01*
X25250793Y-15671465D01*
X25265000Y-15685672D01*
X25286777Y-15700223D01*
X25301327Y-15721999D01*
X25315534Y-15736206D01*
X25324718Y-15757006D01*
X25340970Y-15781329D01*
X25345489Y-15804048D01*
X25353235Y-15821591D01*
X25359192Y-15872940D01*
X25360000Y-15877000D01*
X25360000Y-16702000D01*
X25359192Y-16706059D01*
X25353235Y-16757408D01*
X25345489Y-16774950D01*
X25340970Y-16797671D01*
X25324716Y-16821995D01*
X25315534Y-16842793D01*
X25301329Y-16856997D01*
X25286777Y-16878777D01*
X25264997Y-16893329D01*
X25250793Y-16907534D01*
X25229995Y-16916716D01*
X25205671Y-16932970D01*
X25182950Y-16937489D01*
X25165408Y-16945235D01*
X25114061Y-16951192D01*
X25110000Y-16952000D01*
X23810000Y-16952000D01*
X23805941Y-16951192D01*
X23754591Y-16945235D01*
X23737048Y-16937489D01*
X23714329Y-16932970D01*
X23690006Y-16916718D01*
X23669206Y-16907534D01*
X23654999Y-16893327D01*
X23633223Y-16878777D01*
X23618672Y-16857000D01*
X23604465Y-16842793D01*
X23595280Y-16821991D01*
X23579030Y-16797671D01*
X23574511Y-16774954D01*
X23566764Y-16757408D01*
X23560805Y-16706049D01*
X23560000Y-16702000D01*
X23560000Y-15877000D01*
X23560804Y-15872953D01*
X23566764Y-15821591D01*
X23574511Y-15804043D01*
X23579030Y-15781329D01*
X23595278Y-15757010D01*
X23604465Y-15736206D01*
X23618674Y-15721996D01*
X23633223Y-15700223D01*
X23654996Y-15685674D01*
X23669206Y-15671465D01*
X23690010Y-15662278D01*
X23714329Y-15646030D01*
X23737043Y-15641511D01*
X23754591Y-15633764D01*
X23805952Y-15627805D01*
X23810000Y-15627000D01*
X25110000Y-15627000D01*
X25114047Y-15627805D01*
G37*
G36*
X28129047Y-15640805D02*
G01*
X28180408Y-15646764D01*
X28197954Y-15654511D01*
X28220671Y-15659030D01*
X28244991Y-15675280D01*
X28265793Y-15684465D01*
X28280000Y-15698672D01*
X28301777Y-15713223D01*
X28316327Y-15734999D01*
X28330534Y-15749206D01*
X28339718Y-15770006D01*
X28355970Y-15794329D01*
X28360489Y-15817048D01*
X28368235Y-15834591D01*
X28374192Y-15885940D01*
X28375000Y-15890000D01*
X28375000Y-16690000D01*
X28374192Y-16694059D01*
X28368235Y-16745408D01*
X28360489Y-16762950D01*
X28355970Y-16785671D01*
X28339716Y-16809995D01*
X28330534Y-16830793D01*
X28316329Y-16844997D01*
X28301777Y-16866777D01*
X28279997Y-16881329D01*
X28265793Y-16895534D01*
X28244995Y-16904716D01*
X28220671Y-16920970D01*
X28197950Y-16925489D01*
X28180408Y-16933235D01*
X28129061Y-16939192D01*
X28125000Y-16940000D01*
X26875000Y-16940000D01*
X26870941Y-16939192D01*
X26819591Y-16933235D01*
X26802048Y-16925489D01*
X26779329Y-16920970D01*
X26755006Y-16904718D01*
X26734206Y-16895534D01*
X26719999Y-16881327D01*
X26698223Y-16866777D01*
X26683672Y-16845000D01*
X26669465Y-16830793D01*
X26660280Y-16809991D01*
X26644030Y-16785671D01*
X26639511Y-16762954D01*
X26631764Y-16745408D01*
X26625805Y-16694049D01*
X26625000Y-16690000D01*
X26625000Y-15890000D01*
X26625804Y-15885953D01*
X26631764Y-15834591D01*
X26639511Y-15817043D01*
X26644030Y-15794329D01*
X26660278Y-15770010D01*
X26669465Y-15749206D01*
X26683674Y-15734996D01*
X26698223Y-15713223D01*
X26719996Y-15698674D01*
X26734206Y-15684465D01*
X26755010Y-15675278D01*
X26779329Y-15659030D01*
X26802043Y-15654511D01*
X26819591Y-15646764D01*
X26870952Y-15640805D01*
X26875000Y-15640000D01*
X28125000Y-15640000D01*
X28129047Y-15640805D01*
G37*
G36*
X22024047Y-12480805D02*
G01*
X22075408Y-12486764D01*
X22092954Y-12494511D01*
X22115671Y-12499030D01*
X22139991Y-12515280D01*
X22160793Y-12524465D01*
X22175000Y-12538672D01*
X22196777Y-12553223D01*
X22211327Y-12574999D01*
X22225534Y-12589206D01*
X22234718Y-12610006D01*
X22250970Y-12634329D01*
X22255489Y-12657048D01*
X22263235Y-12674591D01*
X22269192Y-12725940D01*
X22270000Y-12730000D01*
X22270000Y-13930000D01*
X22269192Y-13934059D01*
X22263235Y-13985408D01*
X22255489Y-14002950D01*
X22250970Y-14025671D01*
X22234716Y-14049995D01*
X22225534Y-14070793D01*
X22211329Y-14084997D01*
X22196777Y-14106777D01*
X22174997Y-14121329D01*
X22160793Y-14135534D01*
X22139995Y-14144716D01*
X22115671Y-14160970D01*
X22092950Y-14165489D01*
X22075408Y-14173235D01*
X22024061Y-14179192D01*
X22020000Y-14180000D01*
X20820000Y-14180000D01*
X20815941Y-14179192D01*
X20764591Y-14173235D01*
X20747048Y-14165489D01*
X20724329Y-14160970D01*
X20700006Y-14144718D01*
X20679206Y-14135534D01*
X20664999Y-14121327D01*
X20643223Y-14106777D01*
X20628672Y-14085000D01*
X20614465Y-14070793D01*
X20605280Y-14049991D01*
X20589030Y-14025671D01*
X20584511Y-14002954D01*
X20576764Y-13985408D01*
X20570805Y-13934049D01*
X20570000Y-13930000D01*
X20570000Y-12730000D01*
X20570804Y-12725953D01*
X20576764Y-12674591D01*
X20584511Y-12657043D01*
X20589030Y-12634329D01*
X20605278Y-12610010D01*
X20614465Y-12589206D01*
X20628674Y-12574996D01*
X20643223Y-12553223D01*
X20664996Y-12538674D01*
X20679206Y-12524465D01*
X20700010Y-12515278D01*
X20724329Y-12499030D01*
X20747043Y-12494511D01*
X20764591Y-12486764D01*
X20815952Y-12480805D01*
X20820000Y-12480000D01*
X22020000Y-12480000D01*
X22024047Y-12480805D01*
G37*
G36*
X24206742Y-12516601D02*
G01*
X24360687Y-12580367D01*
X24499234Y-12672941D01*
X24617059Y-12790766D01*
X24709633Y-12929313D01*
X24773399Y-13083258D01*
X24805907Y-13246685D01*
X24805907Y-13413315D01*
X24773399Y-13576742D01*
X24709633Y-13730687D01*
X24617059Y-13869234D01*
X24499234Y-13987059D01*
X24360687Y-14079633D01*
X24206742Y-14143399D01*
X24043315Y-14175907D01*
X23876685Y-14175907D01*
X23713258Y-14143399D01*
X23559313Y-14079633D01*
X23420766Y-13987059D01*
X23302941Y-13869234D01*
X23210367Y-13730687D01*
X23146601Y-13576742D01*
X23114093Y-13413315D01*
X23114093Y-13246685D01*
X23146601Y-13083258D01*
X23210367Y-12929313D01*
X23302941Y-12790766D01*
X23420766Y-12672941D01*
X23559313Y-12580367D01*
X23713258Y-12516601D01*
X23876685Y-12484093D01*
X24043315Y-12484093D01*
X24206742Y-12516601D01*
G37*
G36*
X26746742Y-12516601D02*
G01*
X26900687Y-12580367D01*
X27039234Y-12672941D01*
X27157059Y-12790766D01*
X27249633Y-12929313D01*
X27313399Y-13083258D01*
X27345907Y-13246685D01*
X27345907Y-13413315D01*
X27313399Y-13576742D01*
X27249633Y-13730687D01*
X27157059Y-13869234D01*
X27039234Y-13987059D01*
X26900687Y-14079633D01*
X26746742Y-14143399D01*
X26583315Y-14175907D01*
X26416685Y-14175907D01*
X26253258Y-14143399D01*
X26099313Y-14079633D01*
X25960766Y-13987059D01*
X25842941Y-13869234D01*
X25750367Y-13730687D01*
X25686601Y-13576742D01*
X25654093Y-13413315D01*
X25654093Y-13246685D01*
X25686601Y-13083258D01*
X25750367Y-12929313D01*
X25842941Y-12790766D01*
X25960766Y-12672941D01*
X26099313Y-12580367D01*
X26253258Y-12516601D01*
X26416685Y-12484093D01*
X26583315Y-12484093D01*
X26746742Y-12516601D01*
G37*
G36*
X29286742Y-12516601D02*
G01*
X29440687Y-12580367D01*
X29579234Y-12672941D01*
X29697059Y-12790766D01*
X29789633Y-12929313D01*
X29853399Y-13083258D01*
X29885907Y-13246685D01*
X29885907Y-13413315D01*
X29853399Y-13576742D01*
X29789633Y-13730687D01*
X29697059Y-13869234D01*
X29579234Y-13987059D01*
X29440687Y-14079633D01*
X29286742Y-14143399D01*
X29123315Y-14175907D01*
X28956685Y-14175907D01*
X28793258Y-14143399D01*
X28639313Y-14079633D01*
X28500766Y-13987059D01*
X28382941Y-13869234D01*
X28290367Y-13730687D01*
X28226601Y-13576742D01*
X28194093Y-13413315D01*
X28194093Y-13246685D01*
X28226601Y-13083258D01*
X28290367Y-12929313D01*
X28382941Y-12790766D01*
X28500766Y-12672941D01*
X28639313Y-12580367D01*
X28793258Y-12516601D01*
X28956685Y-12484093D01*
X29123315Y-12484093D01*
X29286742Y-12516601D01*
G37*
G36*
X31826742Y-12516601D02*
G01*
X31980687Y-12580367D01*
X32119234Y-12672941D01*
X32237059Y-12790766D01*
X32329633Y-12929313D01*
X32393399Y-13083258D01*
X32425907Y-13246685D01*
X32425907Y-13413315D01*
X32393399Y-13576742D01*
X32329633Y-13730687D01*
X32237059Y-13869234D01*
X32119234Y-13987059D01*
X31980687Y-14079633D01*
X31826742Y-14143399D01*
X31663315Y-14175907D01*
X31496685Y-14175907D01*
X31333258Y-14143399D01*
X31179313Y-14079633D01*
X31040766Y-13987059D01*
X30922941Y-13869234D01*
X30830367Y-13730687D01*
X30766601Y-13576742D01*
X30734093Y-13413315D01*
X30734093Y-13246685D01*
X30766601Y-13083258D01*
X30830367Y-12929313D01*
X30922941Y-12790766D01*
X31040766Y-12672941D01*
X31179313Y-12580367D01*
X31333258Y-12516601D01*
X31496685Y-12484093D01*
X31663315Y-12484093D01*
X31826742Y-12516601D01*
G37*
G36*
X21666742Y-9976601D02*
G01*
X21820687Y-10040367D01*
X21959234Y-10132941D01*
X22077059Y-10250766D01*
X22169633Y-10389313D01*
X22233399Y-10543258D01*
X22265907Y-10706685D01*
X22265907Y-10873315D01*
X22233399Y-11036742D01*
X22169633Y-11190687D01*
X22077059Y-11329234D01*
X21959234Y-11447059D01*
X21820687Y-11539633D01*
X21666742Y-11603399D01*
X21503315Y-11635907D01*
X21336685Y-11635907D01*
X21173258Y-11603399D01*
X21019313Y-11539633D01*
X20880766Y-11447059D01*
X20762941Y-11329234D01*
X20670367Y-11190687D01*
X20606601Y-11036742D01*
X20574093Y-10873315D01*
X20574093Y-10706685D01*
X20606601Y-10543258D01*
X20670367Y-10389313D01*
X20762941Y-10250766D01*
X20880766Y-10132941D01*
X21019313Y-10040367D01*
X21173258Y-9976601D01*
X21336685Y-9944093D01*
X21503315Y-9944093D01*
X21666742Y-9976601D01*
G37*
G36*
X24206742Y-9976601D02*
G01*
X24360687Y-10040367D01*
X24499234Y-10132941D01*
X24617059Y-10250766D01*
X24709633Y-10389313D01*
X24773399Y-10543258D01*
X24805907Y-10706685D01*
X24805907Y-10873315D01*
X24773399Y-11036742D01*
X24709633Y-11190687D01*
X24617059Y-11329234D01*
X24499234Y-11447059D01*
X24360687Y-11539633D01*
X24206742Y-11603399D01*
X24043315Y-11635907D01*
X23876685Y-11635907D01*
X23713258Y-11603399D01*
X23559313Y-11539633D01*
X23420766Y-11447059D01*
X23302941Y-11329234D01*
X23210367Y-11190687D01*
X23146601Y-11036742D01*
X23114093Y-10873315D01*
X23114093Y-10706685D01*
X23146601Y-10543258D01*
X23210367Y-10389313D01*
X23302941Y-10250766D01*
X23420766Y-10132941D01*
X23559313Y-10040367D01*
X23713258Y-9976601D01*
X23876685Y-9944093D01*
X24043315Y-9944093D01*
X24206742Y-9976601D01*
G37*
G36*
X26746742Y-9976601D02*
G01*
X26900687Y-10040367D01*
X27039234Y-10132941D01*
X27157059Y-10250766D01*
X27249633Y-10389313D01*
X27313399Y-10543258D01*
X27345907Y-10706685D01*
X27345907Y-10873315D01*
X27313399Y-11036742D01*
X27249633Y-11190687D01*
X27157059Y-11329234D01*
X27039234Y-11447059D01*
X26900687Y-11539633D01*
X26746742Y-11603399D01*
X26583315Y-11635907D01*
X26416685Y-11635907D01*
X26253258Y-11603399D01*
X26099313Y-11539633D01*
X25960766Y-11447059D01*
X25842941Y-11329234D01*
X25750367Y-11190687D01*
X25686601Y-11036742D01*
X25654093Y-10873315D01*
X25654093Y-10706685D01*
X25686601Y-10543258D01*
X25750367Y-10389313D01*
X25842941Y-10250766D01*
X25960766Y-10132941D01*
X26099313Y-10040367D01*
X26253258Y-9976601D01*
X26416685Y-9944093D01*
X26583315Y-9944093D01*
X26746742Y-9976601D01*
G37*
G36*
X29286742Y-9976601D02*
G01*
X29440687Y-10040367D01*
X29579234Y-10132941D01*
X29697059Y-10250766D01*
X29789633Y-10389313D01*
X29853399Y-10543258D01*
X29885907Y-10706685D01*
X29885907Y-10873315D01*
X29853399Y-11036742D01*
X29789633Y-11190687D01*
X29697059Y-11329234D01*
X29579234Y-11447059D01*
X29440687Y-11539633D01*
X29286742Y-11603399D01*
X29123315Y-11635907D01*
X28956685Y-11635907D01*
X28793258Y-11603399D01*
X28639313Y-11539633D01*
X28500766Y-11447059D01*
X28382941Y-11329234D01*
X28290367Y-11190687D01*
X28226601Y-11036742D01*
X28194093Y-10873315D01*
X28194093Y-10706685D01*
X28226601Y-10543258D01*
X28290367Y-10389313D01*
X28382941Y-10250766D01*
X28500766Y-10132941D01*
X28639313Y-10040367D01*
X28793258Y-9976601D01*
X28956685Y-9944093D01*
X29123315Y-9944093D01*
X29286742Y-9976601D01*
G37*
G36*
X31826742Y-9976601D02*
G01*
X31980687Y-10040367D01*
X32119234Y-10132941D01*
X32237059Y-10250766D01*
X32329633Y-10389313D01*
X32393399Y-10543258D01*
X32425907Y-10706685D01*
X32425907Y-10873315D01*
X32393399Y-11036742D01*
X32329633Y-11190687D01*
X32237059Y-11329234D01*
X32119234Y-11447059D01*
X31980687Y-11539633D01*
X31826742Y-11603399D01*
X31663315Y-11635907D01*
X31496685Y-11635907D01*
X31333258Y-11603399D01*
X31179313Y-11539633D01*
X31040766Y-11447059D01*
X30922941Y-11329234D01*
X30830367Y-11190687D01*
X30766601Y-11036742D01*
X30734093Y-10873315D01*
X30734093Y-10706685D01*
X30766601Y-10543258D01*
X30830367Y-10389313D01*
X30922941Y-10250766D01*
X31040766Y-10132941D01*
X31179313Y-10040367D01*
X31333258Y-9976601D01*
X31496685Y-9944093D01*
X31663315Y-9944093D01*
X31826742Y-9976601D01*
G37*
%LPD*%
M02*
