M48
; DRILL file KiCad 10.0.6 date 2026-10-04T14:02:43
; FORMAT={-:-/ absolute / metric / decimal}
; #@! TF.CreationDate,2026-10-04T14:02:43+02:00
; #@! TF.GenerationSoftware,Kicad,Pcbnew,10.0.6
; #@! TF.FileFunction,Plated,1,2,PTH
FMAT,2
METRIC
; #@! TA.AperFunction,Plated,PTH,ViaDrill
T1C0.400
; #@! TA.AperFunction,Plated,PTH,ComponentDrill
T2C0.800
; #@! TA.AperFunction,Plated,PTH,ComponentDrill
T3C1.000
%
G90
G05
T1
X5.0Y-30.0
X5.0Y-50.0
X5.0Y-70.0
X10.0Y-20.0
X10.0Y-40.0
X10.0Y-80.0
X13.0Y-52.19
X13.0Y-59.81
X15.0Y-10.0
X15.0Y-30.0
X15.0Y-90.0
X18.778Y-19.503
X20.0Y-40.0
X20.0Y-80.0
X20.825Y-55.615
X21.19Y-8.0
X21.228Y-36.878
X21.367Y-20.88
X22.889Y-17.611
X24.466Y-20.88
X25.0Y-90.0
X25.964Y-14.943
X28.337Y-90.177
X29.088Y-15.818
X29.23Y-62.978
X30.0Y-40.0
X30.273Y-55.562
X33.144Y-69.41
X34.35Y-8.0
X35.0Y-30.0
X35.0Y-90.0
X40.0Y-20.0
X40.0Y-40.0
X40.0Y-80.0
X45.0Y-10.0
X45.0Y-30.0
X45.0Y-70.0
X45.0Y-90.0
X50.0Y-20.0
X50.0Y-40.0
X50.0Y-80.0
T2
X10.525Y-62.31
X10.525Y-67.31
X15.225Y-62.29
X15.225Y-67.37
X18.825Y-52.385
X18.825Y-57.385
X27.275Y-61.405
X27.275Y-66.405
X31.25Y-46.67
X31.25Y-51.75
X35.0Y-66.25
X40.08Y-66.25
T3
X16.34Y-95.96
X18.88Y-95.96
X21.42Y-10.79
X21.42Y-13.33
X21.42Y-95.96
X23.96Y-10.79
X23.96Y-13.33
X23.96Y-95.96
X26.5Y-10.79
X26.5Y-13.33
X26.5Y-95.96
X29.04Y-10.79
X29.04Y-13.33
X29.04Y-95.96
X31.58Y-10.79
X31.58Y-13.33
X31.58Y-95.96
X34.12Y-95.96
X35.0Y-55.0
X35.0Y-58.5
X36.66Y-95.96
M30
