%TF.GenerationSoftware,KiCad,Pcbnew,10.0.6*%
%TF.CreationDate,2026-10-04T14:02:42+02:00*%
%TF.ProjectId,P10,5031302e-6b69-4636-9164-5f7063625858,P10-R2 PCB*%
%TF.SameCoordinates,Original*%
%TF.FileFunction,Soldermask,Top*%
%TF.FilePolarity,Negative*%
%FSLAX46Y46*%
G04 Gerber Fmt 4.6, Leading zero omitted, Abs format (unit mm)*
G04 Created by KiCad (PCBNEW 10.0.6) date 2026-10-04 14:02:42*
%MOMM*%
%LPD*%
G01*
G04 APERTURE LIST*
G04 APERTURE END LIST*
G36*
X37510000Y-96810000D02*
G01*
X35810000Y-96810000D01*
X35810000Y-95110000D01*
X37510000Y-95110000D01*
X37510000Y-96810000D01*
G37*
G36*
X16586742Y-95146601D02*
G01*
X16740687Y-95210367D01*
X16879234Y-95302941D01*
X16997059Y-95420766D01*
X17089633Y-95559313D01*
X17153399Y-95713258D01*
X17185907Y-95876685D01*
X17185907Y-96043315D01*
X17153399Y-96206742D01*
X17089633Y-96360687D01*
X16997059Y-96499234D01*
X16879234Y-96617059D01*
X16740687Y-96709633D01*
X16586742Y-96773399D01*
X16423315Y-96805907D01*
X16256685Y-96805907D01*
X16093258Y-96773399D01*
X15939313Y-96709633D01*
X15800766Y-96617059D01*
X15682941Y-96499234D01*
X15590367Y-96360687D01*
X15526601Y-96206742D01*
X15494093Y-96043315D01*
X15494093Y-95876685D01*
X15526601Y-95713258D01*
X15590367Y-95559313D01*
X15682941Y-95420766D01*
X15800766Y-95302941D01*
X15939313Y-95210367D01*
X16093258Y-95146601D01*
X16256685Y-95114093D01*
X16423315Y-95114093D01*
X16586742Y-95146601D01*
G37*
G36*
X19126742Y-95146601D02*
G01*
X19280687Y-95210367D01*
X19419234Y-95302941D01*
X19537059Y-95420766D01*
X19629633Y-95559313D01*
X19693399Y-95713258D01*
X19725907Y-95876685D01*
X19725907Y-96043315D01*
X19693399Y-96206742D01*
X19629633Y-96360687D01*
X19537059Y-96499234D01*
X19419234Y-96617059D01*
X19280687Y-96709633D01*
X19126742Y-96773399D01*
X18963315Y-96805907D01*
X18796685Y-96805907D01*
X18633258Y-96773399D01*
X18479313Y-96709633D01*
X18340766Y-96617059D01*
X18222941Y-96499234D01*
X18130367Y-96360687D01*
X18066601Y-96206742D01*
X18034093Y-96043315D01*
X18034093Y-95876685D01*
X18066601Y-95713258D01*
X18130367Y-95559313D01*
X18222941Y-95420766D01*
X18340766Y-95302941D01*
X18479313Y-95210367D01*
X18633258Y-95146601D01*
X18796685Y-95114093D01*
X18963315Y-95114093D01*
X19126742Y-95146601D01*
G37*
G36*
X21666742Y-95146601D02*
G01*
X21820687Y-95210367D01*
X21959234Y-95302941D01*
X22077059Y-95420766D01*
X22169633Y-95559313D01*
X22233399Y-95713258D01*
X22265907Y-95876685D01*
X22265907Y-96043315D01*
X22233399Y-96206742D01*
X22169633Y-96360687D01*
X22077059Y-96499234D01*
X21959234Y-96617059D01*
X21820687Y-96709633D01*
X21666742Y-96773399D01*
X21503315Y-96805907D01*
X21336685Y-96805907D01*
X21173258Y-96773399D01*
X21019313Y-96709633D01*
X20880766Y-96617059D01*
X20762941Y-96499234D01*
X20670367Y-96360687D01*
X20606601Y-96206742D01*
X20574093Y-96043315D01*
X20574093Y-95876685D01*
X20606601Y-95713258D01*
X20670367Y-95559313D01*
X20762941Y-95420766D01*
X20880766Y-95302941D01*
X21019313Y-95210367D01*
X21173258Y-95146601D01*
X21336685Y-95114093D01*
X21503315Y-95114093D01*
X21666742Y-95146601D01*
G37*
G36*
X24206742Y-95146601D02*
G01*
X24360687Y-95210367D01*
X24499234Y-95302941D01*
X24617059Y-95420766D01*
X24709633Y-95559313D01*
X24773399Y-95713258D01*
X24805907Y-95876685D01*
X24805907Y-96043315D01*
X24773399Y-96206742D01*
X24709633Y-96360687D01*
X24617059Y-96499234D01*
X24499234Y-96617059D01*
X24360687Y-96709633D01*
X24206742Y-96773399D01*
X24043315Y-96805907D01*
X23876685Y-96805907D01*
X23713258Y-96773399D01*
X23559313Y-96709633D01*
X23420766Y-96617059D01*
X23302941Y-96499234D01*
X23210367Y-96360687D01*
X23146601Y-96206742D01*
X23114093Y-96043315D01*
X23114093Y-95876685D01*
X23146601Y-95713258D01*
X23210367Y-95559313D01*
X23302941Y-95420766D01*
X23420766Y-95302941D01*
X23559313Y-95210367D01*
X23713258Y-95146601D01*
X23876685Y-95114093D01*
X24043315Y-95114093D01*
X24206742Y-95146601D01*
G37*
G36*
X26746742Y-95146601D02*
G01*
X26900687Y-95210367D01*
X27039234Y-95302941D01*
X27157059Y-95420766D01*
X27249633Y-95559313D01*
X27313399Y-95713258D01*
X27345907Y-95876685D01*
X27345907Y-96043315D01*
X27313399Y-96206742D01*
X27249633Y-96360687D01*
X27157059Y-96499234D01*
X27039234Y-96617059D01*
X26900687Y-96709633D01*
X26746742Y-96773399D01*
X26583315Y-96805907D01*
X26416685Y-96805907D01*
X26253258Y-96773399D01*
X26099313Y-96709633D01*
X25960766Y-96617059D01*
X25842941Y-96499234D01*
X25750367Y-96360687D01*
X25686601Y-96206742D01*
X25654093Y-96043315D01*
X25654093Y-95876685D01*
X25686601Y-95713258D01*
X25750367Y-95559313D01*
X25842941Y-95420766D01*
X25960766Y-95302941D01*
X26099313Y-95210367D01*
X26253258Y-95146601D01*
X26416685Y-95114093D01*
X26583315Y-95114093D01*
X26746742Y-95146601D01*
G37*
G36*
X29286742Y-95146601D02*
G01*
X29440687Y-95210367D01*
X29579234Y-95302941D01*
X29697059Y-95420766D01*
X29789633Y-95559313D01*
X29853399Y-95713258D01*
X29885907Y-95876685D01*
X29885907Y-96043315D01*
X29853399Y-96206742D01*
X29789633Y-96360687D01*
X29697059Y-96499234D01*
X29579234Y-96617059D01*
X29440687Y-96709633D01*
X29286742Y-96773399D01*
X29123315Y-96805907D01*
X28956685Y-96805907D01*
X28793258Y-96773399D01*
X28639313Y-96709633D01*
X28500766Y-96617059D01*
X28382941Y-96499234D01*
X28290367Y-96360687D01*
X28226601Y-96206742D01*
X28194093Y-96043315D01*
X28194093Y-95876685D01*
X28226601Y-95713258D01*
X28290367Y-95559313D01*
X28382941Y-95420766D01*
X28500766Y-95302941D01*
X28639313Y-95210367D01*
X28793258Y-95146601D01*
X28956685Y-95114093D01*
X29123315Y-95114093D01*
X29286742Y-95146601D01*
G37*
G36*
X31826742Y-95146601D02*
G01*
X31980687Y-95210367D01*
X32119234Y-95302941D01*
X32237059Y-95420766D01*
X32329633Y-95559313D01*
X32393399Y-95713258D01*
X32425907Y-95876685D01*
X32425907Y-96043315D01*
X32393399Y-96206742D01*
X32329633Y-96360687D01*
X32237059Y-96499234D01*
X32119234Y-96617059D01*
X31980687Y-96709633D01*
X31826742Y-96773399D01*
X31663315Y-96805907D01*
X31496685Y-96805907D01*
X31333258Y-96773399D01*
X31179313Y-96709633D01*
X31040766Y-96617059D01*
X30922941Y-96499234D01*
X30830367Y-96360687D01*
X30766601Y-96206742D01*
X30734093Y-96043315D01*
X30734093Y-95876685D01*
X30766601Y-95713258D01*
X30830367Y-95559313D01*
X30922941Y-95420766D01*
X31040766Y-95302941D01*
X31179313Y-95210367D01*
X31333258Y-95146601D01*
X31496685Y-95114093D01*
X31663315Y-95114093D01*
X31826742Y-95146601D01*
G37*
G36*
X34366742Y-95146601D02*
G01*
X34520687Y-95210367D01*
X34659234Y-95302941D01*
X34777059Y-95420766D01*
X34869633Y-95559313D01*
X34933399Y-95713258D01*
X34965907Y-95876685D01*
X34965907Y-96043315D01*
X34933399Y-96206742D01*
X34869633Y-96360687D01*
X34777059Y-96499234D01*
X34659234Y-96617059D01*
X34520687Y-96709633D01*
X34366742Y-96773399D01*
X34203315Y-96805907D01*
X34036685Y-96805907D01*
X33873258Y-96773399D01*
X33719313Y-96709633D01*
X33580766Y-96617059D01*
X33462941Y-96499234D01*
X33370367Y-96360687D01*
X33306601Y-96206742D01*
X33274093Y-96043315D01*
X33274093Y-95876685D01*
X33306601Y-95713258D01*
X33370367Y-95559313D01*
X33462941Y-95420766D01*
X33580766Y-95302941D01*
X33719313Y-95210367D01*
X33873258Y-95146601D01*
X34036685Y-95114093D01*
X34203315Y-95114093D01*
X34366742Y-95146601D01*
G37*
G36*
X19104047Y-68070805D02*
G01*
X19155408Y-68076764D01*
X19172954Y-68084511D01*
X19195671Y-68089030D01*
X19219991Y-68105280D01*
X19240793Y-68114465D01*
X19255000Y-68128672D01*
X19276777Y-68143223D01*
X19291327Y-68164999D01*
X19305534Y-68179206D01*
X19314718Y-68200006D01*
X19330970Y-68224329D01*
X19335489Y-68247048D01*
X19343235Y-68264591D01*
X19349192Y-68315940D01*
X19350000Y-68320000D01*
X19350000Y-69120000D01*
X19349192Y-69124059D01*
X19343235Y-69175408D01*
X19335489Y-69192950D01*
X19330970Y-69215671D01*
X19314716Y-69239995D01*
X19305534Y-69260793D01*
X19291329Y-69274997D01*
X19276777Y-69296777D01*
X19254997Y-69311329D01*
X19240793Y-69325534D01*
X19219995Y-69334716D01*
X19195671Y-69350970D01*
X19172950Y-69355489D01*
X19155408Y-69363235D01*
X19104061Y-69369192D01*
X19100000Y-69370000D01*
X17850000Y-69370000D01*
X17845941Y-69369192D01*
X17794591Y-69363235D01*
X17777048Y-69355489D01*
X17754329Y-69350970D01*
X17730006Y-69334718D01*
X17709206Y-69325534D01*
X17694999Y-69311327D01*
X17673223Y-69296777D01*
X17658672Y-69275000D01*
X17644465Y-69260793D01*
X17635280Y-69239991D01*
X17619030Y-69215671D01*
X17614511Y-69192954D01*
X17606764Y-69175408D01*
X17600805Y-69124049D01*
X17600000Y-69120000D01*
X17600000Y-68320000D01*
X17600804Y-68315953D01*
X17606764Y-68264591D01*
X17614511Y-68247043D01*
X17619030Y-68224329D01*
X17635278Y-68200010D01*
X17644465Y-68179206D01*
X17658674Y-68164996D01*
X17673223Y-68143223D01*
X17694996Y-68128674D01*
X17709206Y-68114465D01*
X17730010Y-68105278D01*
X17754329Y-68089030D01*
X17777043Y-68084511D01*
X17794591Y-68076764D01*
X17845952Y-68070805D01*
X17850000Y-68070000D01*
X19100000Y-68070000D01*
X19104047Y-68070805D01*
G37*
G36*
X15457228Y-66604448D02*
G01*
X15602117Y-66664463D01*
X15732515Y-66751592D01*
X15843408Y-66862485D01*
X15930537Y-66992883D01*
X15990552Y-67137772D01*
X16021148Y-67291586D01*
X16021148Y-67448414D01*
X15990552Y-67602228D01*
X15930537Y-67747117D01*
X15843408Y-67877515D01*
X15732515Y-67988408D01*
X15602117Y-68075537D01*
X15457228Y-68135552D01*
X15303414Y-68166148D01*
X15146586Y-68166148D01*
X14992772Y-68135552D01*
X14847883Y-68075537D01*
X14717485Y-67988408D01*
X14606592Y-67877515D01*
X14519463Y-67747117D01*
X14459448Y-67602228D01*
X14428852Y-67448414D01*
X14428852Y-67291586D01*
X14459448Y-67137772D01*
X14519463Y-66992883D01*
X14606592Y-66862485D01*
X14717485Y-66751592D01*
X14847883Y-66664463D01*
X14992772Y-66604448D01*
X15146586Y-66573852D01*
X15303414Y-66573852D01*
X15457228Y-66604448D01*
G37*
G36*
X10757228Y-66544448D02*
G01*
X10902117Y-66604463D01*
X11032515Y-66691592D01*
X11143408Y-66802485D01*
X11230537Y-66932883D01*
X11290552Y-67077772D01*
X11321148Y-67231586D01*
X11321148Y-67388414D01*
X11290552Y-67542228D01*
X11230537Y-67687117D01*
X11143408Y-67817515D01*
X11032515Y-67928408D01*
X10902117Y-68015537D01*
X10757228Y-68075552D01*
X10603414Y-68106148D01*
X10446586Y-68106148D01*
X10292772Y-68075552D01*
X10147883Y-68015537D01*
X10017485Y-67928408D01*
X9906592Y-67817515D01*
X9819463Y-67687117D01*
X9759448Y-67542228D01*
X9728852Y-67388414D01*
X9728852Y-67231586D01*
X9759448Y-67077772D01*
X9819463Y-66932883D01*
X9906592Y-66802485D01*
X10017485Y-66691592D01*
X10147883Y-66604463D01*
X10292772Y-66544448D01*
X10446586Y-66513852D01*
X10603414Y-66513852D01*
X10757228Y-66544448D01*
G37*
G36*
X22954047Y-66355805D02*
G01*
X23005408Y-66361764D01*
X23022954Y-66369511D01*
X23045671Y-66374030D01*
X23069991Y-66390280D01*
X23090793Y-66399465D01*
X23105000Y-66413672D01*
X23126777Y-66428223D01*
X23141327Y-66449999D01*
X23155534Y-66464206D01*
X23164718Y-66485006D01*
X23180970Y-66509329D01*
X23185489Y-66532048D01*
X23193235Y-66549591D01*
X23199192Y-66600940D01*
X23200000Y-66605000D01*
X23200000Y-67405000D01*
X23199192Y-67409059D01*
X23193235Y-67460408D01*
X23185489Y-67477950D01*
X23180970Y-67500671D01*
X23164716Y-67524995D01*
X23155534Y-67545793D01*
X23141329Y-67559997D01*
X23126777Y-67581777D01*
X23104997Y-67596329D01*
X23090793Y-67610534D01*
X23069995Y-67619716D01*
X23045671Y-67635970D01*
X23022950Y-67640489D01*
X23005408Y-67648235D01*
X22954061Y-67654192D01*
X22950000Y-67655000D01*
X21700000Y-67655000D01*
X21695941Y-67654192D01*
X21644591Y-67648235D01*
X21627048Y-67640489D01*
X21604329Y-67635970D01*
X21580006Y-67619718D01*
X21559206Y-67610534D01*
X21544999Y-67596327D01*
X21523223Y-67581777D01*
X21508672Y-67560000D01*
X21494465Y-67545793D01*
X21485280Y-67524991D01*
X21469030Y-67500671D01*
X21464511Y-67477954D01*
X21456764Y-67460408D01*
X21450805Y-67409049D01*
X21450000Y-67405000D01*
X21450000Y-66605000D01*
X21450804Y-66600953D01*
X21456764Y-66549591D01*
X21464511Y-66532043D01*
X21469030Y-66509329D01*
X21485278Y-66485010D01*
X21494465Y-66464206D01*
X21508674Y-66449996D01*
X21523223Y-66428223D01*
X21544996Y-66413674D01*
X21559206Y-66399465D01*
X21580010Y-66390278D01*
X21604329Y-66374030D01*
X21627043Y-66369511D01*
X21644591Y-66361764D01*
X21695952Y-66355805D01*
X21700000Y-66355000D01*
X22950000Y-66355000D01*
X22954047Y-66355805D01*
G37*
G36*
X27507228Y-65639448D02*
G01*
X27652117Y-65699463D01*
X27782515Y-65786592D01*
X27893408Y-65897485D01*
X27980537Y-66027883D01*
X28040552Y-66172772D01*
X28071148Y-66326586D01*
X28071148Y-66483414D01*
X28040552Y-66637228D01*
X27980537Y-66782117D01*
X27893408Y-66912515D01*
X27782515Y-67023408D01*
X27652117Y-67110537D01*
X27507228Y-67170552D01*
X27353414Y-67201148D01*
X27196586Y-67201148D01*
X27042772Y-67170552D01*
X26897883Y-67110537D01*
X26767485Y-67023408D01*
X26656592Y-66912515D01*
X26569463Y-66782117D01*
X26509448Y-66637228D01*
X26478852Y-66483414D01*
X26478852Y-66326586D01*
X26509448Y-66172772D01*
X26569463Y-66027883D01*
X26656592Y-65897485D01*
X26767485Y-65786592D01*
X26897883Y-65699463D01*
X27042772Y-65639448D01*
X27196586Y-65608852D01*
X27353414Y-65608852D01*
X27507228Y-65639448D01*
G37*
G36*
X35232228Y-65484448D02*
G01*
X35377117Y-65544463D01*
X35507515Y-65631592D01*
X35618408Y-65742485D01*
X35705537Y-65872883D01*
X35765552Y-66017772D01*
X35796148Y-66171586D01*
X35796148Y-66328414D01*
X35765552Y-66482228D01*
X35705537Y-66627117D01*
X35618408Y-66757515D01*
X35507515Y-66868408D01*
X35377117Y-66955537D01*
X35232228Y-67015552D01*
X35078414Y-67046148D01*
X34921586Y-67046148D01*
X34767772Y-67015552D01*
X34622883Y-66955537D01*
X34492485Y-66868408D01*
X34381592Y-66757515D01*
X34294463Y-66627117D01*
X34234448Y-66482228D01*
X34203852Y-66328414D01*
X34203852Y-66171586D01*
X34234448Y-66017772D01*
X34294463Y-65872883D01*
X34381592Y-65742485D01*
X34492485Y-65631592D01*
X34622883Y-65544463D01*
X34767772Y-65484448D01*
X34921586Y-65453852D01*
X35078414Y-65453852D01*
X35232228Y-65484448D01*
G37*
G36*
X40312228Y-65484448D02*
G01*
X40457117Y-65544463D01*
X40587515Y-65631592D01*
X40698408Y-65742485D01*
X40785537Y-65872883D01*
X40845552Y-66017772D01*
X40876148Y-66171586D01*
X40876148Y-66328414D01*
X40845552Y-66482228D01*
X40785537Y-66627117D01*
X40698408Y-66757515D01*
X40587515Y-66868408D01*
X40457117Y-66955537D01*
X40312228Y-67015552D01*
X40158414Y-67046148D01*
X40001586Y-67046148D01*
X39847772Y-67015552D01*
X39702883Y-66955537D01*
X39572485Y-66868408D01*
X39461592Y-66757515D01*
X39374463Y-66627117D01*
X39314448Y-66482228D01*
X39283852Y-66328414D01*
X39283852Y-66171586D01*
X39314448Y-66017772D01*
X39374463Y-65872883D01*
X39461592Y-65742485D01*
X39572485Y-65631592D01*
X39702883Y-65544463D01*
X39847772Y-65484448D01*
X40001586Y-65453852D01*
X40158414Y-65453852D01*
X40312228Y-65484448D01*
G37*
G36*
X19104047Y-64970805D02*
G01*
X19155408Y-64976764D01*
X19172954Y-64984511D01*
X19195671Y-64989030D01*
X19219991Y-65005280D01*
X19240793Y-65014465D01*
X19255000Y-65028672D01*
X19276777Y-65043223D01*
X19291327Y-65064999D01*
X19305534Y-65079206D01*
X19314718Y-65100006D01*
X19330970Y-65124329D01*
X19335489Y-65147048D01*
X19343235Y-65164591D01*
X19349192Y-65215940D01*
X19350000Y-65220000D01*
X19350000Y-66020000D01*
X19349192Y-66024059D01*
X19343235Y-66075408D01*
X19335489Y-66092950D01*
X19330970Y-66115671D01*
X19314716Y-66139995D01*
X19305534Y-66160793D01*
X19291329Y-66174997D01*
X19276777Y-66196777D01*
X19254997Y-66211329D01*
X19240793Y-66225534D01*
X19219995Y-66234716D01*
X19195671Y-66250970D01*
X19172950Y-66255489D01*
X19155408Y-66263235D01*
X19104061Y-66269192D01*
X19100000Y-66270000D01*
X17850000Y-66270000D01*
X17845941Y-66269192D01*
X17794591Y-66263235D01*
X17777048Y-66255489D01*
X17754329Y-66250970D01*
X17730006Y-66234718D01*
X17709206Y-66225534D01*
X17694999Y-66211327D01*
X17673223Y-66196777D01*
X17658672Y-66175000D01*
X17644465Y-66160793D01*
X17635280Y-66139991D01*
X17619030Y-66115671D01*
X17614511Y-66092954D01*
X17606764Y-66075408D01*
X17600805Y-66024049D01*
X17600000Y-66020000D01*
X17600000Y-65220000D01*
X17600804Y-65215953D01*
X17606764Y-65164591D01*
X17614511Y-65147043D01*
X17619030Y-65124329D01*
X17635278Y-65100010D01*
X17644465Y-65079206D01*
X17658674Y-65064996D01*
X17673223Y-65043223D01*
X17694996Y-65028674D01*
X17709206Y-65014465D01*
X17730010Y-65005278D01*
X17754329Y-64989030D01*
X17777043Y-64984511D01*
X17794591Y-64976764D01*
X17845952Y-64970805D01*
X17850000Y-64970000D01*
X19100000Y-64970000D01*
X19104047Y-64970805D01*
G37*
G36*
X31154047Y-63855805D02*
G01*
X31205408Y-63861764D01*
X31222954Y-63869511D01*
X31245671Y-63874030D01*
X31269991Y-63890280D01*
X31290793Y-63899465D01*
X31305000Y-63913672D01*
X31326777Y-63928223D01*
X31341327Y-63949999D01*
X31355534Y-63964206D01*
X31364718Y-63985006D01*
X31380970Y-64009329D01*
X31385489Y-64032048D01*
X31393235Y-64049591D01*
X31399192Y-64100940D01*
X31400000Y-64105000D01*
X31400000Y-64905000D01*
X31399192Y-64909059D01*
X31393235Y-64960408D01*
X31385489Y-64977950D01*
X31380970Y-65000671D01*
X31364716Y-65024995D01*
X31355534Y-65045793D01*
X31341329Y-65059997D01*
X31326777Y-65081777D01*
X31304997Y-65096329D01*
X31290793Y-65110534D01*
X31269995Y-65119716D01*
X31245671Y-65135970D01*
X31222950Y-65140489D01*
X31205408Y-65148235D01*
X31154061Y-65154192D01*
X31150000Y-65155000D01*
X29900000Y-65155000D01*
X29895941Y-65154192D01*
X29844591Y-65148235D01*
X29827048Y-65140489D01*
X29804329Y-65135970D01*
X29780006Y-65119718D01*
X29759206Y-65110534D01*
X29744999Y-65096327D01*
X29723223Y-65081777D01*
X29708672Y-65060000D01*
X29694465Y-65045793D01*
X29685280Y-65024991D01*
X29669030Y-65000671D01*
X29664511Y-64977954D01*
X29656764Y-64960408D01*
X29650805Y-64909049D01*
X29650000Y-64905000D01*
X29650000Y-64105000D01*
X29650804Y-64100953D01*
X29656764Y-64049591D01*
X29664511Y-64032043D01*
X29669030Y-64009329D01*
X29685278Y-63985010D01*
X29694465Y-63964206D01*
X29708674Y-63949996D01*
X29723223Y-63928223D01*
X29744996Y-63913674D01*
X29759206Y-63899465D01*
X29780010Y-63890278D01*
X29804329Y-63874030D01*
X29827043Y-63869511D01*
X29844591Y-63861764D01*
X29895952Y-63855805D01*
X29900000Y-63855000D01*
X31150000Y-63855000D01*
X31154047Y-63855805D01*
G37*
G36*
X22954047Y-63255805D02*
G01*
X23005408Y-63261764D01*
X23022954Y-63269511D01*
X23045671Y-63274030D01*
X23069991Y-63290280D01*
X23090793Y-63299465D01*
X23105000Y-63313672D01*
X23126777Y-63328223D01*
X23141327Y-63349999D01*
X23155534Y-63364206D01*
X23164718Y-63385006D01*
X23180970Y-63409329D01*
X23185489Y-63432048D01*
X23193235Y-63449591D01*
X23199192Y-63500940D01*
X23200000Y-63505000D01*
X23200000Y-64305000D01*
X23199192Y-64309059D01*
X23193235Y-64360408D01*
X23185489Y-64377950D01*
X23180970Y-64400671D01*
X23164716Y-64424995D01*
X23155534Y-64445793D01*
X23141329Y-64459997D01*
X23126777Y-64481777D01*
X23104997Y-64496329D01*
X23090793Y-64510534D01*
X23069995Y-64519716D01*
X23045671Y-64535970D01*
X23022950Y-64540489D01*
X23005408Y-64548235D01*
X22954061Y-64554192D01*
X22950000Y-64555000D01*
X21700000Y-64555000D01*
X21695941Y-64554192D01*
X21644591Y-64548235D01*
X21627048Y-64540489D01*
X21604329Y-64535970D01*
X21580006Y-64519718D01*
X21559206Y-64510534D01*
X21544999Y-64496327D01*
X21523223Y-64481777D01*
X21508672Y-64460000D01*
X21494465Y-64445793D01*
X21485280Y-64424991D01*
X21469030Y-64400671D01*
X21464511Y-64377954D01*
X21456764Y-64360408D01*
X21450805Y-64309049D01*
X21450000Y-64305000D01*
X21450000Y-63505000D01*
X21450804Y-63500953D01*
X21456764Y-63449591D01*
X21464511Y-63432043D01*
X21469030Y-63409329D01*
X21485278Y-63385010D01*
X21494465Y-63364206D01*
X21508674Y-63349996D01*
X21523223Y-63328223D01*
X21544996Y-63313674D01*
X21559206Y-63299465D01*
X21580010Y-63290278D01*
X21604329Y-63274030D01*
X21627043Y-63269511D01*
X21644591Y-63261764D01*
X21695952Y-63255805D01*
X21700000Y-63255000D01*
X22950000Y-63255000D01*
X22954047Y-63255805D01*
G37*
G36*
X19104047Y-62470805D02*
G01*
X19155408Y-62476764D01*
X19172954Y-62484511D01*
X19195671Y-62489030D01*
X19219991Y-62505280D01*
X19240793Y-62514465D01*
X19255000Y-62528672D01*
X19276777Y-62543223D01*
X19291327Y-62564999D01*
X19305534Y-62579206D01*
X19314718Y-62600006D01*
X19330970Y-62624329D01*
X19335489Y-62647048D01*
X19343235Y-62664591D01*
X19349192Y-62715940D01*
X19350000Y-62720000D01*
X19350000Y-63520000D01*
X19349192Y-63524059D01*
X19343235Y-63575408D01*
X19335489Y-63592950D01*
X19330970Y-63615671D01*
X19314716Y-63639995D01*
X19305534Y-63660793D01*
X19291329Y-63674997D01*
X19276777Y-63696777D01*
X19254997Y-63711329D01*
X19240793Y-63725534D01*
X19219995Y-63734716D01*
X19195671Y-63750970D01*
X19172950Y-63755489D01*
X19155408Y-63763235D01*
X19104061Y-63769192D01*
X19100000Y-63770000D01*
X17850000Y-63770000D01*
X17845941Y-63769192D01*
X17794591Y-63763235D01*
X17777048Y-63755489D01*
X17754329Y-63750970D01*
X17730006Y-63734718D01*
X17709206Y-63725534D01*
X17694999Y-63711327D01*
X17673223Y-63696777D01*
X17658672Y-63675000D01*
X17644465Y-63660793D01*
X17635280Y-63639991D01*
X17619030Y-63615671D01*
X17614511Y-63592954D01*
X17606764Y-63575408D01*
X17600805Y-63524049D01*
X17600000Y-63520000D01*
X17600000Y-62720000D01*
X17600804Y-62715953D01*
X17606764Y-62664591D01*
X17614511Y-62647043D01*
X17619030Y-62624329D01*
X17635278Y-62600010D01*
X17644465Y-62579206D01*
X17658674Y-62564996D01*
X17673223Y-62543223D01*
X17694996Y-62528674D01*
X17709206Y-62514465D01*
X17730010Y-62505278D01*
X17754329Y-62489030D01*
X17777043Y-62484511D01*
X17794591Y-62476764D01*
X17845952Y-62470805D01*
X17850000Y-62470000D01*
X19100000Y-62470000D01*
X19104047Y-62470805D01*
G37*
G36*
X47373513Y-60444208D02*
G01*
X47612293Y-60521793D01*
X47835998Y-60635776D01*
X48039117Y-60783350D01*
X48216650Y-60960883D01*
X48364224Y-61164002D01*
X48478207Y-61387707D01*
X48555792Y-61626487D01*
X48595068Y-61874465D01*
X48595068Y-62125535D01*
X48555792Y-62373513D01*
X48478207Y-62612293D01*
X48364224Y-62835998D01*
X48216650Y-63039117D01*
X48039117Y-63216650D01*
X47835998Y-63364224D01*
X47612293Y-63478207D01*
X47373513Y-63555792D01*
X47125535Y-63595068D01*
X46874465Y-63595068D01*
X46626487Y-63555792D01*
X46387707Y-63478207D01*
X46164002Y-63364224D01*
X45960883Y-63216650D01*
X45783350Y-63039117D01*
X45635776Y-62835998D01*
X45521793Y-62612293D01*
X45444208Y-62373513D01*
X45404932Y-62125535D01*
X45404932Y-61874465D01*
X45444208Y-61626487D01*
X45521793Y-61387707D01*
X45635776Y-61164002D01*
X45783350Y-60960883D01*
X45960883Y-60783350D01*
X46164002Y-60635776D01*
X46387707Y-60521793D01*
X46626487Y-60444208D01*
X46874465Y-60404932D01*
X47125535Y-60404932D01*
X47373513Y-60444208D01*
G37*
G36*
X10757228Y-61544448D02*
G01*
X10902117Y-61604463D01*
X11032515Y-61691592D01*
X11143408Y-61802485D01*
X11230537Y-61932883D01*
X11290552Y-62077772D01*
X11321148Y-62231586D01*
X11321148Y-62388414D01*
X11290552Y-62542228D01*
X11230537Y-62687117D01*
X11143408Y-62817515D01*
X11032515Y-62928408D01*
X10902117Y-63015537D01*
X10757228Y-63075552D01*
X10603414Y-63106148D01*
X10446586Y-63106148D01*
X10292772Y-63075552D01*
X10147883Y-63015537D01*
X10017485Y-62928408D01*
X9906592Y-62817515D01*
X9819463Y-62687117D01*
X9759448Y-62542228D01*
X9728852Y-62388414D01*
X9728852Y-62231586D01*
X9759448Y-62077772D01*
X9819463Y-61932883D01*
X9906592Y-61802485D01*
X10017485Y-61691592D01*
X10147883Y-61604463D01*
X10292772Y-61544448D01*
X10446586Y-61513852D01*
X10603414Y-61513852D01*
X10757228Y-61544448D01*
G37*
G36*
X15457228Y-61524448D02*
G01*
X15602117Y-61584463D01*
X15732515Y-61671592D01*
X15843408Y-61782485D01*
X15930537Y-61912883D01*
X15990552Y-62057772D01*
X16021148Y-62211586D01*
X16021148Y-62368414D01*
X15990552Y-62522228D01*
X15930537Y-62667117D01*
X15843408Y-62797515D01*
X15732515Y-62908408D01*
X15602117Y-62995537D01*
X15457228Y-63055552D01*
X15303414Y-63086148D01*
X15146586Y-63086148D01*
X14992772Y-63055552D01*
X14847883Y-62995537D01*
X14717485Y-62908408D01*
X14606592Y-62797515D01*
X14519463Y-62667117D01*
X14459448Y-62522228D01*
X14428852Y-62368414D01*
X14428852Y-62211586D01*
X14459448Y-62057772D01*
X14519463Y-61912883D01*
X14606592Y-61782485D01*
X14717485Y-61671592D01*
X14847883Y-61584463D01*
X14992772Y-61524448D01*
X15146586Y-61493852D01*
X15303414Y-61493852D01*
X15457228Y-61524448D01*
G37*
G36*
X27507228Y-60639448D02*
G01*
X27652117Y-60699463D01*
X27782515Y-60786592D01*
X27893408Y-60897485D01*
X27980537Y-61027883D01*
X28040552Y-61172772D01*
X28071148Y-61326586D01*
X28071148Y-61483414D01*
X28040552Y-61637228D01*
X27980537Y-61782117D01*
X27893408Y-61912515D01*
X27782515Y-62023408D01*
X27652117Y-62110537D01*
X27507228Y-62170552D01*
X27353414Y-62201148D01*
X27196586Y-62201148D01*
X27042772Y-62170552D01*
X26897883Y-62110537D01*
X26767485Y-62023408D01*
X26656592Y-61912515D01*
X26569463Y-61782117D01*
X26509448Y-61637228D01*
X26478852Y-61483414D01*
X26478852Y-61326586D01*
X26509448Y-61172772D01*
X26569463Y-61027883D01*
X26656592Y-60897485D01*
X26767485Y-60786592D01*
X26897883Y-60699463D01*
X27042772Y-60639448D01*
X27196586Y-60608852D01*
X27353414Y-60608852D01*
X27507228Y-60639448D01*
G37*
G36*
X31154047Y-60755805D02*
G01*
X31205408Y-60761764D01*
X31222954Y-60769511D01*
X31245671Y-60774030D01*
X31269991Y-60790280D01*
X31290793Y-60799465D01*
X31305000Y-60813672D01*
X31326777Y-60828223D01*
X31341327Y-60849999D01*
X31355534Y-60864206D01*
X31364718Y-60885006D01*
X31380970Y-60909329D01*
X31385489Y-60932048D01*
X31393235Y-60949591D01*
X31399192Y-61000940D01*
X31400000Y-61005000D01*
X31400000Y-61805000D01*
X31399192Y-61809059D01*
X31393235Y-61860408D01*
X31385489Y-61877950D01*
X31380970Y-61900671D01*
X31364716Y-61924995D01*
X31355534Y-61945793D01*
X31341329Y-61959997D01*
X31326777Y-61981777D01*
X31304997Y-61996329D01*
X31290793Y-62010534D01*
X31269995Y-62019716D01*
X31245671Y-62035970D01*
X31222950Y-62040489D01*
X31205408Y-62048235D01*
X31154061Y-62054192D01*
X31150000Y-62055000D01*
X29900000Y-62055000D01*
X29895941Y-62054192D01*
X29844591Y-62048235D01*
X29827048Y-62040489D01*
X29804329Y-62035970D01*
X29780006Y-62019718D01*
X29759206Y-62010534D01*
X29744999Y-61996327D01*
X29723223Y-61981777D01*
X29708672Y-61960000D01*
X29694465Y-61945793D01*
X29685280Y-61924991D01*
X29669030Y-61900671D01*
X29664511Y-61877954D01*
X29656764Y-61860408D01*
X29650805Y-61809049D01*
X29650000Y-61805000D01*
X29650000Y-61005000D01*
X29650804Y-61000953D01*
X29656764Y-60949591D01*
X29664511Y-60932043D01*
X29669030Y-60909329D01*
X29685278Y-60885010D01*
X29694465Y-60864206D01*
X29708674Y-60849996D01*
X29723223Y-60828223D01*
X29744996Y-60813674D01*
X29759206Y-60799465D01*
X29780010Y-60790278D01*
X29804329Y-60774030D01*
X29827043Y-60769511D01*
X29844591Y-60761764D01*
X29895952Y-60755805D01*
X29900000Y-60755000D01*
X31150000Y-60755000D01*
X31154047Y-60755805D01*
G37*
G36*
X21479047Y-60260805D02*
G01*
X21530408Y-60266764D01*
X21547954Y-60274511D01*
X21570671Y-60279030D01*
X21594991Y-60295280D01*
X21615793Y-60304465D01*
X21630000Y-60318672D01*
X21651777Y-60333223D01*
X21666327Y-60354999D01*
X21680534Y-60369206D01*
X21689718Y-60390006D01*
X21705970Y-60414329D01*
X21710489Y-60437048D01*
X21718235Y-60454591D01*
X21724192Y-60505940D01*
X21725000Y-60510000D01*
X21725000Y-61760000D01*
X21724192Y-61764059D01*
X21718235Y-61815408D01*
X21710489Y-61832950D01*
X21705970Y-61855671D01*
X21689716Y-61879995D01*
X21680534Y-61900793D01*
X21666329Y-61914997D01*
X21651777Y-61936777D01*
X21629997Y-61951329D01*
X21615793Y-61965534D01*
X21594995Y-61974716D01*
X21570671Y-61990970D01*
X21547950Y-61995489D01*
X21530408Y-62003235D01*
X21479061Y-62009192D01*
X21475000Y-62010000D01*
X20675000Y-62010000D01*
X20670941Y-62009192D01*
X20619591Y-62003235D01*
X20602048Y-61995489D01*
X20579329Y-61990970D01*
X20555006Y-61974718D01*
X20534206Y-61965534D01*
X20519999Y-61951327D01*
X20498223Y-61936777D01*
X20483672Y-61915000D01*
X20469465Y-61900793D01*
X20460280Y-61879991D01*
X20444030Y-61855671D01*
X20439511Y-61832954D01*
X20431764Y-61815408D01*
X20425805Y-61764049D01*
X20425000Y-61760000D01*
X20425000Y-60510000D01*
X20425804Y-60505953D01*
X20431764Y-60454591D01*
X20439511Y-60437043D01*
X20444030Y-60414329D01*
X20460278Y-60390010D01*
X20469465Y-60369206D01*
X20483674Y-60354996D01*
X20498223Y-60333223D01*
X20519996Y-60318674D01*
X20534206Y-60304465D01*
X20555010Y-60295278D01*
X20579329Y-60279030D01*
X20602043Y-60274511D01*
X20619591Y-60266764D01*
X20670952Y-60260805D01*
X20675000Y-60260000D01*
X21475000Y-60260000D01*
X21479047Y-60260805D01*
G37*
G36*
X24579047Y-60260805D02*
G01*
X24630408Y-60266764D01*
X24647954Y-60274511D01*
X24670671Y-60279030D01*
X24694991Y-60295280D01*
X24715793Y-60304465D01*
X24730000Y-60318672D01*
X24751777Y-60333223D01*
X24766327Y-60354999D01*
X24780534Y-60369206D01*
X24789718Y-60390006D01*
X24805970Y-60414329D01*
X24810489Y-60437048D01*
X24818235Y-60454591D01*
X24824192Y-60505940D01*
X24825000Y-60510000D01*
X24825000Y-61760000D01*
X24824192Y-61764059D01*
X24818235Y-61815408D01*
X24810489Y-61832950D01*
X24805970Y-61855671D01*
X24789716Y-61879995D01*
X24780534Y-61900793D01*
X24766329Y-61914997D01*
X24751777Y-61936777D01*
X24729997Y-61951329D01*
X24715793Y-61965534D01*
X24694995Y-61974716D01*
X24670671Y-61990970D01*
X24647950Y-61995489D01*
X24630408Y-62003235D01*
X24579061Y-62009192D01*
X24575000Y-62010000D01*
X23775000Y-62010000D01*
X23770941Y-62009192D01*
X23719591Y-62003235D01*
X23702048Y-61995489D01*
X23679329Y-61990970D01*
X23655006Y-61974718D01*
X23634206Y-61965534D01*
X23619999Y-61951327D01*
X23598223Y-61936777D01*
X23583672Y-61915000D01*
X23569465Y-61900793D01*
X23560280Y-61879991D01*
X23544030Y-61855671D01*
X23539511Y-61832954D01*
X23531764Y-61815408D01*
X23525805Y-61764049D01*
X23525000Y-61760000D01*
X23525000Y-60510000D01*
X23525804Y-60505953D01*
X23531764Y-60454591D01*
X23539511Y-60437043D01*
X23544030Y-60414329D01*
X23560278Y-60390010D01*
X23569465Y-60369206D01*
X23583674Y-60354996D01*
X23598223Y-60333223D01*
X23619996Y-60318674D01*
X23634206Y-60304465D01*
X23655010Y-60295278D01*
X23679329Y-60279030D01*
X23702043Y-60274511D01*
X23719591Y-60266764D01*
X23770952Y-60260805D01*
X23775000Y-60260000D01*
X24575000Y-60260000D01*
X24579047Y-60260805D01*
G37*
G36*
X19104047Y-59370805D02*
G01*
X19155408Y-59376764D01*
X19172954Y-59384511D01*
X19195671Y-59389030D01*
X19219991Y-59405280D01*
X19240793Y-59414465D01*
X19255000Y-59428672D01*
X19276777Y-59443223D01*
X19291327Y-59464999D01*
X19305534Y-59479206D01*
X19314718Y-59500006D01*
X19330970Y-59524329D01*
X19335489Y-59547048D01*
X19343235Y-59564591D01*
X19349192Y-59615940D01*
X19350000Y-59620000D01*
X19350000Y-60420000D01*
X19349192Y-60424059D01*
X19343235Y-60475408D01*
X19335489Y-60492950D01*
X19330970Y-60515671D01*
X19314716Y-60539995D01*
X19305534Y-60560793D01*
X19291329Y-60574997D01*
X19276777Y-60596777D01*
X19254997Y-60611329D01*
X19240793Y-60625534D01*
X19219995Y-60634716D01*
X19195671Y-60650970D01*
X19172950Y-60655489D01*
X19155408Y-60663235D01*
X19104061Y-60669192D01*
X19100000Y-60670000D01*
X17850000Y-60670000D01*
X17845941Y-60669192D01*
X17794591Y-60663235D01*
X17777048Y-60655489D01*
X17754329Y-60650970D01*
X17730006Y-60634718D01*
X17709206Y-60625534D01*
X17694999Y-60611327D01*
X17673223Y-60596777D01*
X17658672Y-60575000D01*
X17644465Y-60560793D01*
X17635280Y-60539991D01*
X17619030Y-60515671D01*
X17614511Y-60492954D01*
X17606764Y-60475408D01*
X17600805Y-60424049D01*
X17600000Y-60420000D01*
X17600000Y-59620000D01*
X17600804Y-59615953D01*
X17606764Y-59564591D01*
X17614511Y-59547043D01*
X17619030Y-59524329D01*
X17635278Y-59500010D01*
X17644465Y-59479206D01*
X17658674Y-59464996D01*
X17673223Y-59443223D01*
X17694996Y-59428674D01*
X17709206Y-59414465D01*
X17730010Y-59405278D01*
X17754329Y-59389030D01*
X17777043Y-59384511D01*
X17794591Y-59376764D01*
X17845952Y-59370805D01*
X17850000Y-59370000D01*
X19100000Y-59370000D01*
X19104047Y-59370805D01*
G37*
G36*
X11407403Y-59521418D02*
G01*
X11456066Y-59553934D01*
X11488582Y-59602597D01*
X11500000Y-59660000D01*
X11500000Y-59960000D01*
X11488582Y-60017403D01*
X11456066Y-60066066D01*
X11407403Y-60098582D01*
X11350000Y-60110000D01*
X9700000Y-60110000D01*
X9642597Y-60098582D01*
X9593934Y-60066066D01*
X9561418Y-60017403D01*
X9550000Y-59960000D01*
X9550000Y-59660000D01*
X9561418Y-59602597D01*
X9593934Y-59553934D01*
X9642597Y-59521418D01*
X9700000Y-59510000D01*
X11350000Y-59510000D01*
X11407403Y-59521418D01*
G37*
G36*
X16357403Y-59521418D02*
G01*
X16406066Y-59553934D01*
X16438582Y-59602597D01*
X16450000Y-59660000D01*
X16450000Y-59960000D01*
X16438582Y-60017403D01*
X16406066Y-60066066D01*
X16357403Y-60098582D01*
X16300000Y-60110000D01*
X14650000Y-60110000D01*
X14592597Y-60098582D01*
X14543934Y-60066066D01*
X14511418Y-60017403D01*
X14500000Y-59960000D01*
X14500000Y-59660000D01*
X14511418Y-59602597D01*
X14543934Y-59553934D01*
X14592597Y-59521418D01*
X14650000Y-59510000D01*
X16300000Y-59510000D01*
X16357403Y-59521418D01*
G37*
G36*
X35290285Y-57543060D02*
G01*
X35471397Y-57618079D01*
X35634393Y-57726990D01*
X35773010Y-57865607D01*
X35881921Y-58028603D01*
X35956940Y-58209715D01*
X35995185Y-58401983D01*
X35995185Y-58598017D01*
X35956940Y-58790285D01*
X35881921Y-58971397D01*
X35773010Y-59134393D01*
X35634393Y-59273010D01*
X35471397Y-59381921D01*
X35290285Y-59456940D01*
X35098017Y-59495185D01*
X34901983Y-59495185D01*
X34709715Y-59456940D01*
X34528603Y-59381921D01*
X34365607Y-59273010D01*
X34226990Y-59134393D01*
X34118079Y-58971397D01*
X34043060Y-58790285D01*
X34004815Y-58598017D01*
X34004815Y-58401983D01*
X34043060Y-58209715D01*
X34118079Y-58028603D01*
X34226990Y-57865607D01*
X34365607Y-57726990D01*
X34528603Y-57618079D01*
X34709715Y-57543060D01*
X34901983Y-57504815D01*
X35098017Y-57504815D01*
X35290285Y-57543060D01*
G37*
G36*
X23207403Y-58366418D02*
G01*
X23256066Y-58398934D01*
X23288582Y-58447597D01*
X23300000Y-58505000D01*
X23300000Y-58805000D01*
X23288582Y-58862403D01*
X23256066Y-58911066D01*
X23207403Y-58943582D01*
X23150000Y-58955000D01*
X21500000Y-58955000D01*
X21442597Y-58943582D01*
X21393934Y-58911066D01*
X21361418Y-58862403D01*
X21350000Y-58805000D01*
X21350000Y-58505000D01*
X21361418Y-58447597D01*
X21393934Y-58398934D01*
X21442597Y-58366418D01*
X21500000Y-58355000D01*
X23150000Y-58355000D01*
X23207403Y-58366418D01*
G37*
G36*
X28157403Y-58366418D02*
G01*
X28206066Y-58398934D01*
X28238582Y-58447597D01*
X28250000Y-58505000D01*
X28250000Y-58805000D01*
X28238582Y-58862403D01*
X28206066Y-58911066D01*
X28157403Y-58943582D01*
X28100000Y-58955000D01*
X26450000Y-58955000D01*
X26392597Y-58943582D01*
X26343934Y-58911066D01*
X26311418Y-58862403D01*
X26300000Y-58805000D01*
X26300000Y-58505000D01*
X26311418Y-58447597D01*
X26343934Y-58398934D01*
X26392597Y-58366418D01*
X26450000Y-58355000D01*
X28100000Y-58355000D01*
X28157403Y-58366418D01*
G37*
G36*
X11407403Y-58251418D02*
G01*
X11456066Y-58283934D01*
X11488582Y-58332597D01*
X11500000Y-58390000D01*
X11500000Y-58690000D01*
X11488582Y-58747403D01*
X11456066Y-58796066D01*
X11407403Y-58828582D01*
X11350000Y-58840000D01*
X9700000Y-58840000D01*
X9642597Y-58828582D01*
X9593934Y-58796066D01*
X9561418Y-58747403D01*
X9550000Y-58690000D01*
X9550000Y-58390000D01*
X9561418Y-58332597D01*
X9593934Y-58283934D01*
X9642597Y-58251418D01*
X9700000Y-58240000D01*
X11350000Y-58240000D01*
X11407403Y-58251418D01*
G37*
G36*
X16357403Y-58251418D02*
G01*
X16406066Y-58283934D01*
X16438582Y-58332597D01*
X16450000Y-58390000D01*
X16450000Y-58690000D01*
X16438582Y-58747403D01*
X16406066Y-58796066D01*
X16357403Y-58828582D01*
X16300000Y-58840000D01*
X14650000Y-58840000D01*
X14592597Y-58828582D01*
X14543934Y-58796066D01*
X14511418Y-58747403D01*
X14500000Y-58690000D01*
X14500000Y-58390000D01*
X14511418Y-58332597D01*
X14543934Y-58283934D01*
X14592597Y-58251418D01*
X14650000Y-58240000D01*
X16300000Y-58240000D01*
X16357403Y-58251418D01*
G37*
G36*
X19057228Y-56619448D02*
G01*
X19202117Y-56679463D01*
X19332515Y-56766592D01*
X19443408Y-56877485D01*
X19530537Y-57007883D01*
X19590552Y-57152772D01*
X19621148Y-57306586D01*
X19621148Y-57463414D01*
X19590552Y-57617228D01*
X19530537Y-57762117D01*
X19443408Y-57892515D01*
X19332515Y-58003408D01*
X19202117Y-58090537D01*
X19057228Y-58150552D01*
X18903414Y-58181148D01*
X18746586Y-58181148D01*
X18592772Y-58150552D01*
X18447883Y-58090537D01*
X18317485Y-58003408D01*
X18206592Y-57892515D01*
X18119463Y-57762117D01*
X18059448Y-57617228D01*
X18028852Y-57463414D01*
X18028852Y-57306586D01*
X18059448Y-57152772D01*
X18119463Y-57007883D01*
X18206592Y-56877485D01*
X18317485Y-56766592D01*
X18447883Y-56679463D01*
X18592772Y-56619448D01*
X18746586Y-56588852D01*
X18903414Y-56588852D01*
X19057228Y-56619448D01*
G37*
G36*
X32582403Y-57411418D02*
G01*
X32631066Y-57443934D01*
X32663582Y-57492597D01*
X32675000Y-57550000D01*
X32675000Y-57850000D01*
X32663582Y-57907403D01*
X32631066Y-57956066D01*
X32582403Y-57988582D01*
X32525000Y-58000000D01*
X31350000Y-58000000D01*
X31292597Y-57988582D01*
X31243934Y-57956066D01*
X31211418Y-57907403D01*
X31200000Y-57850000D01*
X31200000Y-57550000D01*
X31211418Y-57492597D01*
X31243934Y-57443934D01*
X31292597Y-57411418D01*
X31350000Y-57400000D01*
X32525000Y-57400000D01*
X32582403Y-57411418D01*
G37*
G36*
X23207403Y-57096418D02*
G01*
X23256066Y-57128934D01*
X23288582Y-57177597D01*
X23300000Y-57235000D01*
X23300000Y-57535000D01*
X23288582Y-57592403D01*
X23256066Y-57641066D01*
X23207403Y-57673582D01*
X23150000Y-57685000D01*
X21500000Y-57685000D01*
X21442597Y-57673582D01*
X21393934Y-57641066D01*
X21361418Y-57592403D01*
X21350000Y-57535000D01*
X21350000Y-57235000D01*
X21361418Y-57177597D01*
X21393934Y-57128934D01*
X21442597Y-57096418D01*
X21500000Y-57085000D01*
X23150000Y-57085000D01*
X23207403Y-57096418D01*
G37*
G36*
X28157403Y-57096418D02*
G01*
X28206066Y-57128934D01*
X28238582Y-57177597D01*
X28250000Y-57235000D01*
X28250000Y-57535000D01*
X28238582Y-57592403D01*
X28206066Y-57641066D01*
X28157403Y-57673582D01*
X28100000Y-57685000D01*
X26450000Y-57685000D01*
X26392597Y-57673582D01*
X26343934Y-57641066D01*
X26311418Y-57592403D01*
X26300000Y-57535000D01*
X26300000Y-57235000D01*
X26311418Y-57177597D01*
X26343934Y-57128934D01*
X26392597Y-57096418D01*
X26450000Y-57085000D01*
X28100000Y-57085000D01*
X28157403Y-57096418D01*
G37*
G36*
X11407403Y-56981418D02*
G01*
X11456066Y-57013934D01*
X11488582Y-57062597D01*
X11500000Y-57120000D01*
X11500000Y-57420000D01*
X11488582Y-57477403D01*
X11456066Y-57526066D01*
X11407403Y-57558582D01*
X11350000Y-57570000D01*
X9700000Y-57570000D01*
X9642597Y-57558582D01*
X9593934Y-57526066D01*
X9561418Y-57477403D01*
X9550000Y-57420000D01*
X9550000Y-57120000D01*
X9561418Y-57062597D01*
X9593934Y-57013934D01*
X9642597Y-56981418D01*
X9700000Y-56970000D01*
X11350000Y-56970000D01*
X11407403Y-56981418D01*
G37*
G36*
X16357403Y-56981418D02*
G01*
X16406066Y-57013934D01*
X16438582Y-57062597D01*
X16450000Y-57120000D01*
X16450000Y-57420000D01*
X16438582Y-57477403D01*
X16406066Y-57526066D01*
X16357403Y-57558582D01*
X16300000Y-57570000D01*
X14650000Y-57570000D01*
X14592597Y-57558582D01*
X14543934Y-57526066D01*
X14511418Y-57477403D01*
X14500000Y-57420000D01*
X14500000Y-57120000D01*
X14511418Y-57062597D01*
X14543934Y-57013934D01*
X14592597Y-56981418D01*
X14650000Y-56970000D01*
X16300000Y-56970000D01*
X16357403Y-56981418D01*
G37*
G36*
X30707403Y-56461418D02*
G01*
X30756066Y-56493934D01*
X30788582Y-56542597D01*
X30800000Y-56600000D01*
X30800000Y-56900000D01*
X30788582Y-56957403D01*
X30756066Y-57006066D01*
X30707403Y-57038582D01*
X30650000Y-57050000D01*
X29475000Y-57050000D01*
X29417597Y-57038582D01*
X29368934Y-57006066D01*
X29336418Y-56957403D01*
X29325000Y-56900000D01*
X29325000Y-56600000D01*
X29336418Y-56542597D01*
X29368934Y-56493934D01*
X29417597Y-56461418D01*
X29475000Y-56450000D01*
X30650000Y-56450000D01*
X30707403Y-56461418D01*
G37*
G36*
X23207403Y-55826418D02*
G01*
X23256066Y-55858934D01*
X23288582Y-55907597D01*
X23300000Y-55965000D01*
X23300000Y-56265000D01*
X23288582Y-56322403D01*
X23256066Y-56371066D01*
X23207403Y-56403582D01*
X23150000Y-56415000D01*
X21500000Y-56415000D01*
X21442597Y-56403582D01*
X21393934Y-56371066D01*
X21361418Y-56322403D01*
X21350000Y-56265000D01*
X21350000Y-55965000D01*
X21361418Y-55907597D01*
X21393934Y-55858934D01*
X21442597Y-55826418D01*
X21500000Y-55815000D01*
X23150000Y-55815000D01*
X23207403Y-55826418D01*
G37*
G36*
X28157403Y-55826418D02*
G01*
X28206066Y-55858934D01*
X28238582Y-55907597D01*
X28250000Y-55965000D01*
X28250000Y-56265000D01*
X28238582Y-56322403D01*
X28206066Y-56371066D01*
X28157403Y-56403582D01*
X28100000Y-56415000D01*
X26450000Y-56415000D01*
X26392597Y-56403582D01*
X26343934Y-56371066D01*
X26311418Y-56322403D01*
X26300000Y-56265000D01*
X26300000Y-55965000D01*
X26311418Y-55907597D01*
X26343934Y-55858934D01*
X26392597Y-55826418D01*
X26450000Y-55815000D01*
X28100000Y-55815000D01*
X28157403Y-55826418D01*
G37*
G36*
X11407403Y-55711418D02*
G01*
X11456066Y-55743934D01*
X11488582Y-55792597D01*
X11500000Y-55850000D01*
X11500000Y-56150000D01*
X11488582Y-56207403D01*
X11456066Y-56256066D01*
X11407403Y-56288582D01*
X11350000Y-56300000D01*
X9700000Y-56300000D01*
X9642597Y-56288582D01*
X9593934Y-56256066D01*
X9561418Y-56207403D01*
X9550000Y-56150000D01*
X9550000Y-55850000D01*
X9561418Y-55792597D01*
X9593934Y-55743934D01*
X9642597Y-55711418D01*
X9700000Y-55700000D01*
X11350000Y-55700000D01*
X11407403Y-55711418D01*
G37*
G36*
X16357403Y-55711418D02*
G01*
X16406066Y-55743934D01*
X16438582Y-55792597D01*
X16450000Y-55850000D01*
X16450000Y-56150000D01*
X16438582Y-56207403D01*
X16406066Y-56256066D01*
X16357403Y-56288582D01*
X16300000Y-56300000D01*
X14650000Y-56300000D01*
X14592597Y-56288582D01*
X14543934Y-56256066D01*
X14511418Y-56207403D01*
X14500000Y-56150000D01*
X14500000Y-55850000D01*
X14511418Y-55792597D01*
X14543934Y-55743934D01*
X14592597Y-55711418D01*
X14650000Y-55700000D01*
X16300000Y-55700000D01*
X16357403Y-55711418D01*
G37*
G36*
X32582403Y-55511418D02*
G01*
X32631066Y-55543934D01*
X32663582Y-55592597D01*
X32675000Y-55650000D01*
X32675000Y-55950000D01*
X32663582Y-56007403D01*
X32631066Y-56056066D01*
X32582403Y-56088582D01*
X32525000Y-56100000D01*
X31350000Y-56100000D01*
X31292597Y-56088582D01*
X31243934Y-56056066D01*
X31211418Y-56007403D01*
X31200000Y-55950000D01*
X31200000Y-55650000D01*
X31211418Y-55592597D01*
X31243934Y-55543934D01*
X31292597Y-55511418D01*
X31350000Y-55500000D01*
X32525000Y-55500000D01*
X32582403Y-55511418D01*
G37*
G36*
X36000000Y-56000000D02*
G01*
X34000000Y-56000000D01*
X34000000Y-54000000D01*
X36000000Y-54000000D01*
X36000000Y-56000000D01*
G37*
G36*
X23207403Y-54556418D02*
G01*
X23256066Y-54588934D01*
X23288582Y-54637597D01*
X23300000Y-54695000D01*
X23300000Y-54995000D01*
X23288582Y-55052403D01*
X23256066Y-55101066D01*
X23207403Y-55133582D01*
X23150000Y-55145000D01*
X21500000Y-55145000D01*
X21442597Y-55133582D01*
X21393934Y-55101066D01*
X21361418Y-55052403D01*
X21350000Y-54995000D01*
X21350000Y-54695000D01*
X21361418Y-54637597D01*
X21393934Y-54588934D01*
X21442597Y-54556418D01*
X21500000Y-54545000D01*
X23150000Y-54545000D01*
X23207403Y-54556418D01*
G37*
G36*
X28157403Y-54556418D02*
G01*
X28206066Y-54588934D01*
X28238582Y-54637597D01*
X28250000Y-54695000D01*
X28250000Y-54995000D01*
X28238582Y-55052403D01*
X28206066Y-55101066D01*
X28157403Y-55133582D01*
X28100000Y-55145000D01*
X26450000Y-55145000D01*
X26392597Y-55133582D01*
X26343934Y-55101066D01*
X26311418Y-55052403D01*
X26300000Y-54995000D01*
X26300000Y-54695000D01*
X26311418Y-54637597D01*
X26343934Y-54588934D01*
X26392597Y-54556418D01*
X26450000Y-54545000D01*
X28100000Y-54545000D01*
X28157403Y-54556418D01*
G37*
G36*
X11407403Y-54441418D02*
G01*
X11456066Y-54473934D01*
X11488582Y-54522597D01*
X11500000Y-54580000D01*
X11500000Y-54880000D01*
X11488582Y-54937403D01*
X11456066Y-54986066D01*
X11407403Y-55018582D01*
X11350000Y-55030000D01*
X9700000Y-55030000D01*
X9642597Y-55018582D01*
X9593934Y-54986066D01*
X9561418Y-54937403D01*
X9550000Y-54880000D01*
X9550000Y-54580000D01*
X9561418Y-54522597D01*
X9593934Y-54473934D01*
X9642597Y-54441418D01*
X9700000Y-54430000D01*
X11350000Y-54430000D01*
X11407403Y-54441418D01*
G37*
G36*
X16357403Y-54441418D02*
G01*
X16406066Y-54473934D01*
X16438582Y-54522597D01*
X16450000Y-54580000D01*
X16450000Y-54880000D01*
X16438582Y-54937403D01*
X16406066Y-54986066D01*
X16357403Y-55018582D01*
X16300000Y-55030000D01*
X14650000Y-55030000D01*
X14592597Y-55018582D01*
X14543934Y-54986066D01*
X14511418Y-54937403D01*
X14500000Y-54880000D01*
X14500000Y-54580000D01*
X14511418Y-54522597D01*
X14543934Y-54473934D01*
X14592597Y-54441418D01*
X14650000Y-54430000D01*
X16300000Y-54430000D01*
X16357403Y-54441418D01*
G37*
G36*
X11407403Y-53171418D02*
G01*
X11456066Y-53203934D01*
X11488582Y-53252597D01*
X11500000Y-53310000D01*
X11500000Y-53610000D01*
X11488582Y-53667403D01*
X11456066Y-53716066D01*
X11407403Y-53748582D01*
X11350000Y-53760000D01*
X9700000Y-53760000D01*
X9642597Y-53748582D01*
X9593934Y-53716066D01*
X9561418Y-53667403D01*
X9550000Y-53610000D01*
X9550000Y-53310000D01*
X9561418Y-53252597D01*
X9593934Y-53203934D01*
X9642597Y-53171418D01*
X9700000Y-53160000D01*
X11350000Y-53160000D01*
X11407403Y-53171418D01*
G37*
G36*
X16357403Y-53171418D02*
G01*
X16406066Y-53203934D01*
X16438582Y-53252597D01*
X16450000Y-53310000D01*
X16450000Y-53610000D01*
X16438582Y-53667403D01*
X16406066Y-53716066D01*
X16357403Y-53748582D01*
X16300000Y-53760000D01*
X14650000Y-53760000D01*
X14592597Y-53748582D01*
X14543934Y-53716066D01*
X14511418Y-53667403D01*
X14500000Y-53610000D01*
X14500000Y-53310000D01*
X14511418Y-53252597D01*
X14543934Y-53203934D01*
X14592597Y-53171418D01*
X14650000Y-53160000D01*
X16300000Y-53160000D01*
X16357403Y-53171418D01*
G37*
G36*
X19057228Y-51619448D02*
G01*
X19202117Y-51679463D01*
X19332515Y-51766592D01*
X19443408Y-51877485D01*
X19530537Y-52007883D01*
X19590552Y-52152772D01*
X19621148Y-52306586D01*
X19621148Y-52463414D01*
X19590552Y-52617228D01*
X19530537Y-52762117D01*
X19443408Y-52892515D01*
X19332515Y-53003408D01*
X19202117Y-53090537D01*
X19057228Y-53150552D01*
X18903414Y-53181148D01*
X18746586Y-53181148D01*
X18592772Y-53150552D01*
X18447883Y-53090537D01*
X18317485Y-53003408D01*
X18206592Y-52892515D01*
X18119463Y-52762117D01*
X18059448Y-52617228D01*
X18028852Y-52463414D01*
X18028852Y-52306586D01*
X18059448Y-52152772D01*
X18119463Y-52007883D01*
X18206592Y-51877485D01*
X18317485Y-51766592D01*
X18447883Y-51679463D01*
X18592772Y-51619448D01*
X18746586Y-51588852D01*
X18903414Y-51588852D01*
X19057228Y-51619448D01*
G37*
G36*
X47373513Y-49944208D02*
G01*
X47612293Y-50021793D01*
X47835998Y-50135776D01*
X48039117Y-50283350D01*
X48216650Y-50460883D01*
X48364224Y-50664002D01*
X48478207Y-50887707D01*
X48555792Y-51126487D01*
X48595068Y-51374465D01*
X48595068Y-51625535D01*
X48555792Y-51873513D01*
X48478207Y-52112293D01*
X48364224Y-52335998D01*
X48216650Y-52539117D01*
X48039117Y-52716650D01*
X47835998Y-52864224D01*
X47612293Y-52978207D01*
X47373513Y-53055792D01*
X47125535Y-53095068D01*
X46874465Y-53095068D01*
X46626487Y-53055792D01*
X46387707Y-52978207D01*
X46164002Y-52864224D01*
X45960883Y-52716650D01*
X45783350Y-52539117D01*
X45635776Y-52335998D01*
X45521793Y-52112293D01*
X45444208Y-51873513D01*
X45404932Y-51625535D01*
X45404932Y-51374465D01*
X45444208Y-51126487D01*
X45521793Y-50887707D01*
X45635776Y-50664002D01*
X45783350Y-50460883D01*
X45960883Y-50283350D01*
X46164002Y-50135776D01*
X46387707Y-50021793D01*
X46626487Y-49944208D01*
X46874465Y-49904932D01*
X47125535Y-49904932D01*
X47373513Y-49944208D01*
G37*
G36*
X31482228Y-50984448D02*
G01*
X31627117Y-51044463D01*
X31757515Y-51131592D01*
X31868408Y-51242485D01*
X31955537Y-51372883D01*
X32015552Y-51517772D01*
X32046148Y-51671586D01*
X32046148Y-51828414D01*
X32015552Y-51982228D01*
X31955537Y-52127117D01*
X31868408Y-52257515D01*
X31757515Y-52368408D01*
X31627117Y-52455537D01*
X31482228Y-52515552D01*
X31328414Y-52546148D01*
X31171586Y-52546148D01*
X31017772Y-52515552D01*
X30872883Y-52455537D01*
X30742485Y-52368408D01*
X30631592Y-52257515D01*
X30544463Y-52127117D01*
X30484448Y-51982228D01*
X30453852Y-51828414D01*
X30453852Y-51671586D01*
X30484448Y-51517772D01*
X30544463Y-51372883D01*
X30631592Y-51242485D01*
X30742485Y-51131592D01*
X30872883Y-51044463D01*
X31017772Y-50984448D01*
X31171586Y-50953852D01*
X31328414Y-50953852D01*
X31482228Y-50984448D01*
G37*
G36*
X11407403Y-51901418D02*
G01*
X11456066Y-51933934D01*
X11488582Y-51982597D01*
X11500000Y-52040000D01*
X11500000Y-52340000D01*
X11488582Y-52397403D01*
X11456066Y-52446066D01*
X11407403Y-52478582D01*
X11350000Y-52490000D01*
X9700000Y-52490000D01*
X9642597Y-52478582D01*
X9593934Y-52446066D01*
X9561418Y-52397403D01*
X9550000Y-52340000D01*
X9550000Y-52040000D01*
X9561418Y-51982597D01*
X9593934Y-51933934D01*
X9642597Y-51901418D01*
X9700000Y-51890000D01*
X11350000Y-51890000D01*
X11407403Y-51901418D01*
G37*
G36*
X16357403Y-51901418D02*
G01*
X16406066Y-51933934D01*
X16438582Y-51982597D01*
X16450000Y-52040000D01*
X16450000Y-52340000D01*
X16438582Y-52397403D01*
X16406066Y-52446066D01*
X16357403Y-52478582D01*
X16300000Y-52490000D01*
X14650000Y-52490000D01*
X14592597Y-52478582D01*
X14543934Y-52446066D01*
X14511418Y-52397403D01*
X14500000Y-52340000D01*
X14500000Y-52040000D01*
X14511418Y-51982597D01*
X14543934Y-51933934D01*
X14592597Y-51901418D01*
X14650000Y-51890000D01*
X16300000Y-51890000D01*
X16357403Y-51901418D01*
G37*
G36*
X31482228Y-45904448D02*
G01*
X31627117Y-45964463D01*
X31757515Y-46051592D01*
X31868408Y-46162485D01*
X31955537Y-46292883D01*
X32015552Y-46437772D01*
X32046148Y-46591586D01*
X32046148Y-46748414D01*
X32015552Y-46902228D01*
X31955537Y-47047117D01*
X31868408Y-47177515D01*
X31757515Y-47288408D01*
X31627117Y-47375537D01*
X31482228Y-47435552D01*
X31328414Y-47466148D01*
X31171586Y-47466148D01*
X31017772Y-47435552D01*
X30872883Y-47375537D01*
X30742485Y-47288408D01*
X30631592Y-47177515D01*
X30544463Y-47047117D01*
X30484448Y-46902228D01*
X30453852Y-46748414D01*
X30453852Y-46591586D01*
X30484448Y-46437772D01*
X30544463Y-46292883D01*
X30631592Y-46162485D01*
X30742485Y-46051592D01*
X30872883Y-45964463D01*
X31017772Y-45904448D01*
X31171586Y-45873852D01*
X31328414Y-45873852D01*
X31482228Y-45904448D01*
G37*
G36*
X22074047Y-18752805D02*
G01*
X22125408Y-18758764D01*
X22142954Y-18766511D01*
X22165671Y-18771030D01*
X22189991Y-18787280D01*
X22210793Y-18796465D01*
X22225000Y-18810672D01*
X22246777Y-18825223D01*
X22261327Y-18846999D01*
X22275534Y-18861206D01*
X22284718Y-18882006D01*
X22300970Y-18906329D01*
X22305489Y-18929048D01*
X22313235Y-18946591D01*
X22319192Y-18997940D01*
X22320000Y-19002000D01*
X22320000Y-19827000D01*
X22319192Y-19831059D01*
X22313235Y-19882408D01*
X22305489Y-19899950D01*
X22300970Y-19922671D01*
X22284716Y-19946995D01*
X22275534Y-19967793D01*
X22261329Y-19981997D01*
X22246777Y-20003777D01*
X22224997Y-20018329D01*
X22210793Y-20032534D01*
X22189995Y-20041716D01*
X22165671Y-20057970D01*
X22142950Y-20062489D01*
X22125408Y-20070235D01*
X22074061Y-20076192D01*
X22070000Y-20077000D01*
X20770000Y-20077000D01*
X20765941Y-20076192D01*
X20714591Y-20070235D01*
X20697048Y-20062489D01*
X20674329Y-20057970D01*
X20650006Y-20041718D01*
X20629206Y-20032534D01*
X20614999Y-20018327D01*
X20593223Y-20003777D01*
X20578672Y-19982000D01*
X20564465Y-19967793D01*
X20555280Y-19946991D01*
X20539030Y-19922671D01*
X20534511Y-19899954D01*
X20526764Y-19882408D01*
X20520805Y-19831049D01*
X20520000Y-19827000D01*
X20520000Y-19002000D01*
X20520804Y-18997953D01*
X20526764Y-18946591D01*
X20534511Y-18929043D01*
X20539030Y-18906329D01*
X20555278Y-18882010D01*
X20564465Y-18861206D01*
X20578674Y-18846996D01*
X20593223Y-18825223D01*
X20614996Y-18810674D01*
X20629206Y-18796465D01*
X20650010Y-18787278D01*
X20674329Y-18771030D01*
X20697043Y-18766511D01*
X20714591Y-18758764D01*
X20765952Y-18752805D01*
X20770000Y-18752000D01*
X22070000Y-18752000D01*
X22074047Y-18752805D01*
G37*
G36*
X25114047Y-18752805D02*
G01*
X25165408Y-18758764D01*
X25182954Y-18766511D01*
X25205671Y-18771030D01*
X25229991Y-18787280D01*
X25250793Y-18796465D01*
X25265000Y-18810672D01*
X25286777Y-18825223D01*
X25301327Y-18846999D01*
X25315534Y-18861206D01*
X25324718Y-18882006D01*
X25340970Y-18906329D01*
X25345489Y-18929048D01*
X25353235Y-18946591D01*
X25359192Y-18997940D01*
X25360000Y-19002000D01*
X25360000Y-19827000D01*
X25359192Y-19831059D01*
X25353235Y-19882408D01*
X25345489Y-19899950D01*
X25340970Y-19922671D01*
X25324716Y-19946995D01*
X25315534Y-19967793D01*
X25301329Y-19981997D01*
X25286777Y-20003777D01*
X25264997Y-20018329D01*
X25250793Y-20032534D01*
X25229995Y-20041716D01*
X25205671Y-20057970D01*
X25182950Y-20062489D01*
X25165408Y-20070235D01*
X25114061Y-20076192D01*
X25110000Y-20077000D01*
X23810000Y-20077000D01*
X23805941Y-20076192D01*
X23754591Y-20070235D01*
X23737048Y-20062489D01*
X23714329Y-20057970D01*
X23690006Y-20041718D01*
X23669206Y-20032534D01*
X23654999Y-20018327D01*
X23633223Y-20003777D01*
X23618672Y-19982000D01*
X23604465Y-19967793D01*
X23595280Y-19946991D01*
X23579030Y-19922671D01*
X23574511Y-19899954D01*
X23566764Y-19882408D01*
X23560805Y-19831049D01*
X23560000Y-19827000D01*
X23560000Y-19002000D01*
X23560804Y-18997953D01*
X23566764Y-18946591D01*
X23574511Y-18929043D01*
X23579030Y-18906329D01*
X23595278Y-18882010D01*
X23604465Y-18861206D01*
X23618674Y-18846996D01*
X23633223Y-18825223D01*
X23654996Y-18810674D01*
X23669206Y-18796465D01*
X23690010Y-18787278D01*
X23714329Y-18771030D01*
X23737043Y-18766511D01*
X23754591Y-18758764D01*
X23805952Y-18752805D01*
X23810000Y-18752000D01*
X25110000Y-18752000D01*
X25114047Y-18752805D01*
G37*
G36*
X28129047Y-18740805D02*
G01*
X28180408Y-18746764D01*
X28197954Y-18754511D01*
X28220671Y-18759030D01*
X28244991Y-18775280D01*
X28265793Y-18784465D01*
X28280000Y-18798672D01*
X28301777Y-18813223D01*
X28316327Y-18834999D01*
X28330534Y-18849206D01*
X28339718Y-18870006D01*
X28355970Y-18894329D01*
X28360489Y-18917048D01*
X28368235Y-18934591D01*
X28374192Y-18985940D01*
X28375000Y-18990000D01*
X28375000Y-19790000D01*
X28374192Y-19794059D01*
X28368235Y-19845408D01*
X28360489Y-19862950D01*
X28355970Y-19885671D01*
X28339716Y-19909995D01*
X28330534Y-19930793D01*
X28316329Y-19944997D01*
X28301777Y-19966777D01*
X28279997Y-19981329D01*
X28265793Y-19995534D01*
X28244995Y-20004716D01*
X28220671Y-20020970D01*
X28197950Y-20025489D01*
X28180408Y-20033235D01*
X28129061Y-20039192D01*
X28125000Y-20040000D01*
X26875000Y-20040000D01*
X26870941Y-20039192D01*
X26819591Y-20033235D01*
X26802048Y-20025489D01*
X26779329Y-20020970D01*
X26755006Y-20004718D01*
X26734206Y-19995534D01*
X26719999Y-19981327D01*
X26698223Y-19966777D01*
X26683672Y-19945000D01*
X26669465Y-19930793D01*
X26660280Y-19909991D01*
X26644030Y-19885671D01*
X26639511Y-19862954D01*
X26631764Y-19845408D01*
X26625805Y-19794049D01*
X26625000Y-19790000D01*
X26625000Y-18990000D01*
X26625804Y-18985953D01*
X26631764Y-18934591D01*
X26639511Y-18917043D01*
X26644030Y-18894329D01*
X26660278Y-18870010D01*
X26669465Y-18849206D01*
X26683674Y-18834996D01*
X26698223Y-18813223D01*
X26719996Y-18798674D01*
X26734206Y-18784465D01*
X26755010Y-18775278D01*
X26779329Y-18759030D01*
X26802043Y-18754511D01*
X26819591Y-18746764D01*
X26870952Y-18740805D01*
X26875000Y-18740000D01*
X28125000Y-18740000D01*
X28129047Y-18740805D01*
G37*
G36*
X22074047Y-15627805D02*
G01*
X22125408Y-15633764D01*
X22142954Y-15641511D01*
X22165671Y-15646030D01*
X22189991Y-15662280D01*
X22210793Y-15671465D01*
X22225000Y-15685672D01*
X22246777Y-15700223D01*
X22261327Y-15721999D01*
X22275534Y-15736206D01*
X22284718Y-15757006D01*
X22300970Y-15781329D01*
X22305489Y-15804048D01*
X22313235Y-15821591D01*
X22319192Y-15872940D01*
X22320000Y-15877000D01*
X22320000Y-16702000D01*
X22319192Y-16706059D01*
X22313235Y-16757408D01*
X22305489Y-16774950D01*
X22300970Y-16797671D01*
X22284716Y-16821995D01*
X22275534Y-16842793D01*
X22261329Y-16856997D01*
X22246777Y-16878777D01*
X22224997Y-16893329D01*
X22210793Y-16907534D01*
X22189995Y-16916716D01*
X22165671Y-16932970D01*
X22142950Y-16937489D01*
X22125408Y-16945235D01*
X22074061Y-16951192D01*
X22070000Y-16952000D01*
X20770000Y-16952000D01*
X20765941Y-16951192D01*
X20714591Y-16945235D01*
X20697048Y-16937489D01*
X20674329Y-16932970D01*
X20650006Y-16916718D01*
X20629206Y-16907534D01*
X20614999Y-16893327D01*
X20593223Y-16878777D01*
X20578672Y-16857000D01*
X20564465Y-16842793D01*
X20555280Y-16821991D01*
X20539030Y-16797671D01*
X20534511Y-16774954D01*
X20526764Y-16757408D01*
X20520805Y-16706049D01*
X20520000Y-16702000D01*
X20520000Y-15877000D01*
X20520804Y-15872953D01*
X20526764Y-15821591D01*
X20534511Y-15804043D01*
X20539030Y-15781329D01*
X20555278Y-15757010D01*
X20564465Y-15736206D01*
X20578674Y-15721996D01*
X20593223Y-15700223D01*
X20614996Y-15685674D01*
X20629206Y-15671465D01*
X20650010Y-15662278D01*
X20674329Y-15646030D01*
X20697043Y-15641511D01*
X20714591Y-15633764D01*
X20765952Y-15627805D01*
X20770000Y-15627000D01*
X22070000Y-15627000D01*
X22074047Y-15627805D01*
G37*
G36*
X25114047Y-15627805D02*
G01*
X25165408Y-15633764D01*
X25182954Y-15641511D01*
X25205671Y-15646030D01*
X25229991Y-15662280D01*
X25250793Y-15671465D01*
X25265000Y-15685672D01*
X25286777Y-15700223D01*
X25301327Y-15721999D01*
X25315534Y-15736206D01*
X25324718Y-15757006D01*
X25340970Y-15781329D01*
X25345489Y-15804048D01*
X25353235Y-15821591D01*
X25359192Y-15872940D01*
X25360000Y-15877000D01*
X25360000Y-16702000D01*
X25359192Y-16706059D01*
X25353235Y-16757408D01*
X25345489Y-16774950D01*
X25340970Y-16797671D01*
X25324716Y-16821995D01*
X25315534Y-16842793D01*
X25301329Y-16856997D01*
X25286777Y-16878777D01*
X25264997Y-16893329D01*
X25250793Y-16907534D01*
X25229995Y-16916716D01*
X25205671Y-16932970D01*
X25182950Y-16937489D01*
X25165408Y-16945235D01*
X25114061Y-16951192D01*
X25110000Y-16952000D01*
X23810000Y-16952000D01*
X23805941Y-16951192D01*
X23754591Y-16945235D01*
X23737048Y-16937489D01*
X23714329Y-16932970D01*
X23690006Y-16916718D01*
X23669206Y-16907534D01*
X23654999Y-16893327D01*
X23633223Y-16878777D01*
X23618672Y-16857000D01*
X23604465Y-16842793D01*
X23595280Y-16821991D01*
X23579030Y-16797671D01*
X23574511Y-16774954D01*
X23566764Y-16757408D01*
X23560805Y-16706049D01*
X23560000Y-16702000D01*
X23560000Y-15877000D01*
X23560804Y-15872953D01*
X23566764Y-15821591D01*
X23574511Y-15804043D01*
X23579030Y-15781329D01*
X23595278Y-15757010D01*
X23604465Y-15736206D01*
X23618674Y-15721996D01*
X23633223Y-15700223D01*
X23654996Y-15685674D01*
X23669206Y-15671465D01*
X23690010Y-15662278D01*
X23714329Y-15646030D01*
X23737043Y-15641511D01*
X23754591Y-15633764D01*
X23805952Y-15627805D01*
X23810000Y-15627000D01*
X25110000Y-15627000D01*
X25114047Y-15627805D01*
G37*
G36*
X28129047Y-15640805D02*
G01*
X28180408Y-15646764D01*
X28197954Y-15654511D01*
X28220671Y-15659030D01*
X28244991Y-15675280D01*
X28265793Y-15684465D01*
X28280000Y-15698672D01*
X28301777Y-15713223D01*
X28316327Y-15734999D01*
X28330534Y-15749206D01*
X28339718Y-15770006D01*
X28355970Y-15794329D01*
X28360489Y-15817048D01*
X28368235Y-15834591D01*
X28374192Y-15885940D01*
X28375000Y-15890000D01*
X28375000Y-16690000D01*
X28374192Y-16694059D01*
X28368235Y-16745408D01*
X28360489Y-16762950D01*
X28355970Y-16785671D01*
X28339716Y-16809995D01*
X28330534Y-16830793D01*
X28316329Y-16844997D01*
X28301777Y-16866777D01*
X28279997Y-16881329D01*
X28265793Y-16895534D01*
X28244995Y-16904716D01*
X28220671Y-16920970D01*
X28197950Y-16925489D01*
X28180408Y-16933235D01*
X28129061Y-16939192D01*
X28125000Y-16940000D01*
X26875000Y-16940000D01*
X26870941Y-16939192D01*
X26819591Y-16933235D01*
X26802048Y-16925489D01*
X26779329Y-16920970D01*
X26755006Y-16904718D01*
X26734206Y-16895534D01*
X26719999Y-16881327D01*
X26698223Y-16866777D01*
X26683672Y-16845000D01*
X26669465Y-16830793D01*
X26660280Y-16809991D01*
X26644030Y-16785671D01*
X26639511Y-16762954D01*
X26631764Y-16745408D01*
X26625805Y-16694049D01*
X26625000Y-16690000D01*
X26625000Y-15890000D01*
X26625804Y-15885953D01*
X26631764Y-15834591D01*
X26639511Y-15817043D01*
X26644030Y-15794329D01*
X26660278Y-15770010D01*
X26669465Y-15749206D01*
X26683674Y-15734996D01*
X26698223Y-15713223D01*
X26719996Y-15698674D01*
X26734206Y-15684465D01*
X26755010Y-15675278D01*
X26779329Y-15659030D01*
X26802043Y-15654511D01*
X26819591Y-15646764D01*
X26870952Y-15640805D01*
X26875000Y-15640000D01*
X28125000Y-15640000D01*
X28129047Y-15640805D01*
G37*
G36*
X22024047Y-12480805D02*
G01*
X22075408Y-12486764D01*
X22092954Y-12494511D01*
X22115671Y-12499030D01*
X22139991Y-12515280D01*
X22160793Y-12524465D01*
X22175000Y-12538672D01*
X22196777Y-12553223D01*
X22211327Y-12574999D01*
X22225534Y-12589206D01*
X22234718Y-12610006D01*
X22250970Y-12634329D01*
X22255489Y-12657048D01*
X22263235Y-12674591D01*
X22269192Y-12725940D01*
X22270000Y-12730000D01*
X22270000Y-13930000D01*
X22269192Y-13934059D01*
X22263235Y-13985408D01*
X22255489Y-14002950D01*
X22250970Y-14025671D01*
X22234716Y-14049995D01*
X22225534Y-14070793D01*
X22211329Y-14084997D01*
X22196777Y-14106777D01*
X22174997Y-14121329D01*
X22160793Y-14135534D01*
X22139995Y-14144716D01*
X22115671Y-14160970D01*
X22092950Y-14165489D01*
X22075408Y-14173235D01*
X22024061Y-14179192D01*
X22020000Y-14180000D01*
X20820000Y-14180000D01*
X20815941Y-14179192D01*
X20764591Y-14173235D01*
X20747048Y-14165489D01*
X20724329Y-14160970D01*
X20700006Y-14144718D01*
X20679206Y-14135534D01*
X20664999Y-14121327D01*
X20643223Y-14106777D01*
X20628672Y-14085000D01*
X20614465Y-14070793D01*
X20605280Y-14049991D01*
X20589030Y-14025671D01*
X20584511Y-14002954D01*
X20576764Y-13985408D01*
X20570805Y-13934049D01*
X20570000Y-13930000D01*
X20570000Y-12730000D01*
X20570804Y-12725953D01*
X20576764Y-12674591D01*
X20584511Y-12657043D01*
X20589030Y-12634329D01*
X20605278Y-12610010D01*
X20614465Y-12589206D01*
X20628674Y-12574996D01*
X20643223Y-12553223D01*
X20664996Y-12538674D01*
X20679206Y-12524465D01*
X20700010Y-12515278D01*
X20724329Y-12499030D01*
X20747043Y-12494511D01*
X20764591Y-12486764D01*
X20815952Y-12480805D01*
X20820000Y-12480000D01*
X22020000Y-12480000D01*
X22024047Y-12480805D01*
G37*
G36*
X24206742Y-12516601D02*
G01*
X24360687Y-12580367D01*
X24499234Y-12672941D01*
X24617059Y-12790766D01*
X24709633Y-12929313D01*
X24773399Y-13083258D01*
X24805907Y-13246685D01*
X24805907Y-13413315D01*
X24773399Y-13576742D01*
X24709633Y-13730687D01*
X24617059Y-13869234D01*
X24499234Y-13987059D01*
X24360687Y-14079633D01*
X24206742Y-14143399D01*
X24043315Y-14175907D01*
X23876685Y-14175907D01*
X23713258Y-14143399D01*
X23559313Y-14079633D01*
X23420766Y-13987059D01*
X23302941Y-13869234D01*
X23210367Y-13730687D01*
X23146601Y-13576742D01*
X23114093Y-13413315D01*
X23114093Y-13246685D01*
X23146601Y-13083258D01*
X23210367Y-12929313D01*
X23302941Y-12790766D01*
X23420766Y-12672941D01*
X23559313Y-12580367D01*
X23713258Y-12516601D01*
X23876685Y-12484093D01*
X24043315Y-12484093D01*
X24206742Y-12516601D01*
G37*
G36*
X26746742Y-12516601D02*
G01*
X26900687Y-12580367D01*
X27039234Y-12672941D01*
X27157059Y-12790766D01*
X27249633Y-12929313D01*
X27313399Y-13083258D01*
X27345907Y-13246685D01*
X27345907Y-13413315D01*
X27313399Y-13576742D01*
X27249633Y-13730687D01*
X27157059Y-13869234D01*
X27039234Y-13987059D01*
X26900687Y-14079633D01*
X26746742Y-14143399D01*
X26583315Y-14175907D01*
X26416685Y-14175907D01*
X26253258Y-14143399D01*
X26099313Y-14079633D01*
X25960766Y-13987059D01*
X25842941Y-13869234D01*
X25750367Y-13730687D01*
X25686601Y-13576742D01*
X25654093Y-13413315D01*
X25654093Y-13246685D01*
X25686601Y-13083258D01*
X25750367Y-12929313D01*
X25842941Y-12790766D01*
X25960766Y-12672941D01*
X26099313Y-12580367D01*
X26253258Y-12516601D01*
X26416685Y-12484093D01*
X26583315Y-12484093D01*
X26746742Y-12516601D01*
G37*
G36*
X29286742Y-12516601D02*
G01*
X29440687Y-12580367D01*
X29579234Y-12672941D01*
X29697059Y-12790766D01*
X29789633Y-12929313D01*
X29853399Y-13083258D01*
X29885907Y-13246685D01*
X29885907Y-13413315D01*
X29853399Y-13576742D01*
X29789633Y-13730687D01*
X29697059Y-13869234D01*
X29579234Y-13987059D01*
X29440687Y-14079633D01*
X29286742Y-14143399D01*
X29123315Y-14175907D01*
X28956685Y-14175907D01*
X28793258Y-14143399D01*
X28639313Y-14079633D01*
X28500766Y-13987059D01*
X28382941Y-13869234D01*
X28290367Y-13730687D01*
X28226601Y-13576742D01*
X28194093Y-13413315D01*
X28194093Y-13246685D01*
X28226601Y-13083258D01*
X28290367Y-12929313D01*
X28382941Y-12790766D01*
X28500766Y-12672941D01*
X28639313Y-12580367D01*
X28793258Y-12516601D01*
X28956685Y-12484093D01*
X29123315Y-12484093D01*
X29286742Y-12516601D01*
G37*
G36*
X31826742Y-12516601D02*
G01*
X31980687Y-12580367D01*
X32119234Y-12672941D01*
X32237059Y-12790766D01*
X32329633Y-12929313D01*
X32393399Y-13083258D01*
X32425907Y-13246685D01*
X32425907Y-13413315D01*
X32393399Y-13576742D01*
X32329633Y-13730687D01*
X32237059Y-13869234D01*
X32119234Y-13987059D01*
X31980687Y-14079633D01*
X31826742Y-14143399D01*
X31663315Y-14175907D01*
X31496685Y-14175907D01*
X31333258Y-14143399D01*
X31179313Y-14079633D01*
X31040766Y-13987059D01*
X30922941Y-13869234D01*
X30830367Y-13730687D01*
X30766601Y-13576742D01*
X30734093Y-13413315D01*
X30734093Y-13246685D01*
X30766601Y-13083258D01*
X30830367Y-12929313D01*
X30922941Y-12790766D01*
X31040766Y-12672941D01*
X31179313Y-12580367D01*
X31333258Y-12516601D01*
X31496685Y-12484093D01*
X31663315Y-12484093D01*
X31826742Y-12516601D01*
G37*
G36*
X21666742Y-9976601D02*
G01*
X21820687Y-10040367D01*
X21959234Y-10132941D01*
X22077059Y-10250766D01*
X22169633Y-10389313D01*
X22233399Y-10543258D01*
X22265907Y-10706685D01*
X22265907Y-10873315D01*
X22233399Y-11036742D01*
X22169633Y-11190687D01*
X22077059Y-11329234D01*
X21959234Y-11447059D01*
X21820687Y-11539633D01*
X21666742Y-11603399D01*
X21503315Y-11635907D01*
X21336685Y-11635907D01*
X21173258Y-11603399D01*
X21019313Y-11539633D01*
X20880766Y-11447059D01*
X20762941Y-11329234D01*
X20670367Y-11190687D01*
X20606601Y-11036742D01*
X20574093Y-10873315D01*
X20574093Y-10706685D01*
X20606601Y-10543258D01*
X20670367Y-10389313D01*
X20762941Y-10250766D01*
X20880766Y-10132941D01*
X21019313Y-10040367D01*
X21173258Y-9976601D01*
X21336685Y-9944093D01*
X21503315Y-9944093D01*
X21666742Y-9976601D01*
G37*
G36*
X24206742Y-9976601D02*
G01*
X24360687Y-10040367D01*
X24499234Y-10132941D01*
X24617059Y-10250766D01*
X24709633Y-10389313D01*
X24773399Y-10543258D01*
X24805907Y-10706685D01*
X24805907Y-10873315D01*
X24773399Y-11036742D01*
X24709633Y-11190687D01*
X24617059Y-11329234D01*
X24499234Y-11447059D01*
X24360687Y-11539633D01*
X24206742Y-11603399D01*
X24043315Y-11635907D01*
X23876685Y-11635907D01*
X23713258Y-11603399D01*
X23559313Y-11539633D01*
X23420766Y-11447059D01*
X23302941Y-11329234D01*
X23210367Y-11190687D01*
X23146601Y-11036742D01*
X23114093Y-10873315D01*
X23114093Y-10706685D01*
X23146601Y-10543258D01*
X23210367Y-10389313D01*
X23302941Y-10250766D01*
X23420766Y-10132941D01*
X23559313Y-10040367D01*
X23713258Y-9976601D01*
X23876685Y-9944093D01*
X24043315Y-9944093D01*
X24206742Y-9976601D01*
G37*
G36*
X26746742Y-9976601D02*
G01*
X26900687Y-10040367D01*
X27039234Y-10132941D01*
X27157059Y-10250766D01*
X27249633Y-10389313D01*
X27313399Y-10543258D01*
X27345907Y-10706685D01*
X27345907Y-10873315D01*
X27313399Y-11036742D01*
X27249633Y-11190687D01*
X27157059Y-11329234D01*
X27039234Y-11447059D01*
X26900687Y-11539633D01*
X26746742Y-11603399D01*
X26583315Y-11635907D01*
X26416685Y-11635907D01*
X26253258Y-11603399D01*
X26099313Y-11539633D01*
X25960766Y-11447059D01*
X25842941Y-11329234D01*
X25750367Y-11190687D01*
X25686601Y-11036742D01*
X25654093Y-10873315D01*
X25654093Y-10706685D01*
X25686601Y-10543258D01*
X25750367Y-10389313D01*
X25842941Y-10250766D01*
X25960766Y-10132941D01*
X26099313Y-10040367D01*
X26253258Y-9976601D01*
X26416685Y-9944093D01*
X26583315Y-9944093D01*
X26746742Y-9976601D01*
G37*
G36*
X29286742Y-9976601D02*
G01*
X29440687Y-10040367D01*
X29579234Y-10132941D01*
X29697059Y-10250766D01*
X29789633Y-10389313D01*
X29853399Y-10543258D01*
X29885907Y-10706685D01*
X29885907Y-10873315D01*
X29853399Y-11036742D01*
X29789633Y-11190687D01*
X29697059Y-11329234D01*
X29579234Y-11447059D01*
X29440687Y-11539633D01*
X29286742Y-11603399D01*
X29123315Y-11635907D01*
X28956685Y-11635907D01*
X28793258Y-11603399D01*
X28639313Y-11539633D01*
X28500766Y-11447059D01*
X28382941Y-11329234D01*
X28290367Y-11190687D01*
X28226601Y-11036742D01*
X28194093Y-10873315D01*
X28194093Y-10706685D01*
X28226601Y-10543258D01*
X28290367Y-10389313D01*
X28382941Y-10250766D01*
X28500766Y-10132941D01*
X28639313Y-10040367D01*
X28793258Y-9976601D01*
X28956685Y-9944093D01*
X29123315Y-9944093D01*
X29286742Y-9976601D01*
G37*
G36*
X31826742Y-9976601D02*
G01*
X31980687Y-10040367D01*
X32119234Y-10132941D01*
X32237059Y-10250766D01*
X32329633Y-10389313D01*
X32393399Y-10543258D01*
X32425907Y-10706685D01*
X32425907Y-10873315D01*
X32393399Y-11036742D01*
X32329633Y-11190687D01*
X32237059Y-11329234D01*
X32119234Y-11447059D01*
X31980687Y-11539633D01*
X31826742Y-11603399D01*
X31663315Y-11635907D01*
X31496685Y-11635907D01*
X31333258Y-11603399D01*
X31179313Y-11539633D01*
X31040766Y-11447059D01*
X30922941Y-11329234D01*
X30830367Y-11190687D01*
X30766601Y-11036742D01*
X30734093Y-10873315D01*
X30734093Y-10706685D01*
X30766601Y-10543258D01*
X30830367Y-10389313D01*
X30922941Y-10250766D01*
X31040766Y-10132941D01*
X31179313Y-10040367D01*
X31333258Y-9976601D01*
X31496685Y-9944093D01*
X31663315Y-9944093D01*
X31826742Y-9976601D01*
G37*
M02*
