#VRML V2.0 utf8
Shape { appearance Appearance { material Material { diffuseColor 0.55 0.37 0.23 } } geometry IndexedFaceSet { solid FALSE coord Coordinate { point [ 0.7598425 -0.4921260 0.8858268, 0.7598425 -0.4753572 1.0131983, 0.7598425 -0.4261936 1.1318898, 0.7598425 -0.3479856 1.2338124, 0.7598425 -0.2460630 1.3120204, 0.7598425 -0.1273716 1.3611840, 0.7598425 -0.0000000 1.3779528, 0.7598425 0.1273716 1.3611840, 0.7598425 0.2460630 1.3120204, 0.7598425 0.3479856 1.2338124, 0.7598425 0.4261936 1.1318898, 0.7598425 0.4753572 1.0131983, 0.7598425 0.4921260 0.8858268, 0.7598425 0.4753572 0.7584552, 0.7598425 0.4261936 0.6397638, 0.7598425 0.3479856 0.5378412, 0.7598425 0.2460630 0.4596332, 0.7598425 0.1273716 0.4104696, 0.7598425 0.0000000 0.3937008, 0.7598425 -0.1273716 0.4104696, 0.7598425 -0.2460630 0.4596332, 0.7598425 -0.3479856 0.5378412, 0.7598425 -0.4261936 0.6397638, 0.7598425 -0.4753572 0.7584552, 3.2401575 -0.4921260 0.8858268, 3.2401575 -0.4753572 1.0131983, 3.2401575 -0.4261936 1.1318898, 3.2401575 -0.3479856 1.2338124, 3.2401575 -0.2460630 1.3120204, 3.2401575 -0.1273716 1.3611840, 3.2401575 -0.0000000 1.3779528, 3.2401575 0.1273716 1.3611840, 3.2401575 0.2460630 1.3120204, 3.2401575 0.3479856 1.2338124, 3.2401575 0.4261936 1.1318898, 3.2401575 0.4753572 1.0131983, 3.2401575 0.4921260 0.8858268, 3.2401575 0.4753572 0.7584552, 3.2401575 0.4261936 0.6397638, 3.2401575 0.3479856 0.5378412, 3.2401575 0.2460630 0.4596332, 3.2401575 0.1273716 0.4104696, 3.2401575 0.0000000 0.3937008, 3.2401575 -0.1273716 0.4104696, 3.2401575 -0.2460630 0.4596332, 3.2401575 -0.3479856 0.5378412, 3.2401575 -0.4261936 0.6397638, 3.2401575 -0.4753572 0.7584552, 0.7598425 0.0000000 0.8858268, 3.2401575 0.0000000 0.8858268 ] } coordIndex [ 25 1 0 -1, 24 25 0 -1, 0 1 48 -1, 25 24 49 -1, 26 2 1 -1, 25 26 1 -1, 1 2 48 -1, 26 25 49 -1, 27 3 2 -1, 26 27 2 -1, 2 3 48 -1, 27 26 49 -1, 28 4 3 -1, 27 28 3 -1, 3 4 48 -1, 28 27 49 -1, 29 5 4 -1, 28 29 4 -1, 4 5 48 -1, 29 28 49 -1, 30 6 5 -1, 29 30 5 -1, 5 6 48 -1, 30 29 49 -1, 31 7 6 -1, 30 31 6 -1, 6 7 48 -1, 31 30 49 -1, 32 8 7 -1, 31 32 7 -1, 7 8 48 -1, 32 31 49 -1, 33 9 8 -1, 32 33 8 -1, 8 9 48 -1, 33 32 49 -1, 34 10 9 -1, 33 34 9 -1, 9 10 48 -1, 34 33 49 -1, 35 11 10 -1, 34 35 10 -1, 10 11 48 -1, 35 34 49 -1, 36 12 11 -1, 35 36 11 -1, 11 12 48 -1, 36 35 49 -1, 37 13 12 -1, 36 37 12 -1, 12 13 48 -1, 37 36 49 -1, 38 14 13 -1, 37 38 13 -1, 13 14 48 -1, 38 37 49 -1, 39 15 14 -1, 38 39 14 -1, 14 15 48 -1, 39 38 49 -1, 40 16 15 -1, 39 40 15 -1, 15 16 48 -1, 40 39 49 -1, 41 17 16 -1, 40 41 16 -1, 16 17 48 -1, 41 40 49 -1, 42 18 17 -1, 41 42 17 -1, 17 18 48 -1, 42 41 49 -1, 43 19 18 -1, 42 43 18 -1, 18 19 48 -1, 43 42 49 -1, 44 20 19 -1, 43 44 19 -1, 19 20 48 -1, 44 43 49 -1, 45 21 20 -1, 44 45 20 -1, 20 21 48 -1, 45 44 49 -1, 46 22 21 -1, 45 46 21 -1, 21 22 48 -1, 46 45 49 -1, 47 23 22 -1, 46 47 22 -1, 22 23 48 -1, 47 46 49 -1, 24 0 23 -1, 47 24 23 -1, 23 0 48 -1, 24 47 49 -1 ] } }
Transform { translation 2.0000000 0.0000000 0.8858268 children [ Shape { appearance Appearance { material Material { diffuseColor 0.7 0.7 0.68 } } geometry Box { size 4.0000000 0.2165354 0.2165354 } } ] }
Shape { appearance Appearance { material Material { diffuseColor 0.7 0.7 0.68 } } geometry IndexedFaceSet { solid FALSE coord Coordinate { point [ 0.1102362 0.0000000 -0.6299213, 0.1064800 -0.0285312 -0.6299213, 0.0954674 -0.0551181 -0.6299213, 0.0779488 -0.0779488 -0.6299213, 0.0551181 -0.0954674 -0.6299213, 0.0285312 -0.1064800 -0.6299213, 0.0000000 -0.1102362 -0.6299213, -0.0285312 -0.1064800 -0.6299213, -0.0551181 -0.0954674 -0.6299213, -0.0779488 -0.0779488 -0.6299213, -0.0954674 -0.0551181 -0.6299213, -0.1064800 -0.0285312 -0.6299213, -0.1102362 -0.0000000 -0.6299213, -0.1064800 0.0285312 -0.6299213, -0.0954674 0.0551181 -0.6299213, -0.0779488 0.0779488 -0.6299213, -0.0551181 0.0954674 -0.6299213, -0.0285312 0.1064800 -0.6299213, -0.0000000 0.1102362 -0.6299213, 0.0285312 0.1064800 -0.6299213, 0.0551181 0.0954674 -0.6299213, 0.0779488 0.0779488 -0.6299213, 0.0954674 0.0551181 -0.6299213, 0.1064800 0.0285312 -0.6299213, 0.1102362 0.0000000 0.8858268, 0.1064800 -0.0285312 0.8858268, 0.0954674 -0.0551181 0.8858268, 0.0779488 -0.0779488 0.8858268, 0.0551181 -0.0954674 0.8858268, 0.0285312 -0.1064800 0.8858268, 0.0000000 -0.1102362 0.8858268, -0.0285312 -0.1064800 0.8858268, -0.0551181 -0.0954674 0.8858268, -0.0779488 -0.0779488 0.8858268, -0.0954674 -0.0551181 0.8858268, -0.1064800 -0.0285312 0.8858268, -0.1102362 -0.0000000 0.8858268, -0.1064800 0.0285312 0.8858268, -0.0954674 0.0551181 0.8858268, -0.0779488 0.0779488 0.8858268, -0.0551181 0.0954674 0.8858268, -0.0285312 0.1064800 0.8858268, -0.0000000 0.1102362 0.8858268, 0.0285312 0.1064800 0.8858268, 0.0551181 0.0954674 0.8858268, 0.0779488 0.0779488 0.8858268, 0.0954674 0.0551181 0.8858268, 0.1064800 0.0285312 0.8858268, 0.0000000 0.0000000 -0.6299213, 0.0000000 0.0000000 0.8858268 ] } coordIndex [ 25 1 0 -1, 24 25 0 -1, 0 1 48 -1, 25 24 49 -1, 26 2 1 -1, 25 26 1 -1, 1 2 48 -1, 26 25 49 -1, 27 3 2 -1, 26 27 2 -1, 2 3 48 -1, 27 26 49 -1, 28 4 3 -1, 27 28 3 -1, 3 4 48 -1, 28 27 49 -1, 29 5 4 -1, 28 29 4 -1, 4 5 48 -1, 29 28 49 -1, 30 6 5 -1, 29 30 5 -1, 5 6 48 -1, 30 29 49 -1, 31 7 6 -1, 30 31 6 -1, 6 7 48 -1, 31 30 49 -1, 32 8 7 -1, 31 32 7 -1, 7 8 48 -1, 32 31 49 -1, 33 9 8 -1, 32 33 8 -1, 8 9 48 -1, 33 32 49 -1, 34 10 9 -1, 33 34 9 -1, 9 10 48 -1, 34 33 49 -1, 35 11 10 -1, 34 35 10 -1, 10 11 48 -1, 35 34 49 -1, 36 12 11 -1, 35 36 11 -1, 11 12 48 -1, 36 35 49 -1, 37 13 12 -1, 36 37 12 -1, 12 13 48 -1, 37 36 49 -1, 38 14 13 -1, 37 38 13 -1, 13 14 48 -1, 38 37 49 -1, 39 15 14 -1, 38 39 14 -1, 14 15 48 -1, 39 38 49 -1, 40 16 15 -1, 39 40 15 -1, 15 16 48 -1, 40 39 49 -1, 41 17 16 -1, 40 41 16 -1, 16 17 48 -1, 41 40 49 -1, 42 18 17 -1, 41 42 17 -1, 17 18 48 -1, 42 41 49 -1, 43 19 18 -1, 42 43 18 -1, 18 19 48 -1, 43 42 49 -1, 44 20 19 -1, 43 44 19 -1, 19 20 48 -1, 44 43 49 -1, 45 21 20 -1, 44 45 20 -1, 20 21 48 -1, 45 44 49 -1, 46 22 21 -1, 45 46 21 -1, 21 22 48 -1, 46 45 49 -1, 47 23 22 -1, 46 47 22 -1, 22 23 48 -1, 47 46 49 -1, 24 0 23 -1, 47 24 23 -1, 23 0 48 -1, 24 47 49 -1 ] } }
Shape { appearance Appearance { material Material { diffuseColor 0.7 0.7 0.68 } } geometry IndexedFaceSet { solid FALSE coord Coordinate { point [ 4.1102362 0.0000000 -0.6299213, 4.1064800 -0.0285312 -0.6299213, 4.0954674 -0.0551181 -0.6299213, 4.0779488 -0.0779488 -0.6299213, 4.0551181 -0.0954674 -0.6299213, 4.0285312 -0.1064800 -0.6299213, 4.0000000 -0.1102362 -0.6299213, 3.9714688 -0.1064800 -0.6299213, 3.9448819 -0.0954674 -0.6299213, 3.9220512 -0.0779488 -0.6299213, 3.9045326 -0.0551181 -0.6299213, 3.8935200 -0.0285312 -0.6299213, 3.8897638 -0.0000000 -0.6299213, 3.8935200 0.0285312 -0.6299213, 3.9045326 0.0551181 -0.6299213, 3.9220512 0.0779488 -0.6299213, 3.9448819 0.0954674 -0.6299213, 3.9714688 0.1064800 -0.6299213, 4.0000000 0.1102362 -0.6299213, 4.0285312 0.1064800 -0.6299213, 4.0551181 0.0954674 -0.6299213, 4.0779488 0.0779488 -0.6299213, 4.0954674 0.0551181 -0.6299213, 4.1064800 0.0285312 -0.6299213, 4.1102362 0.0000000 0.8858268, 4.1064800 -0.0285312 0.8858268, 4.0954674 -0.0551181 0.8858268, 4.0779488 -0.0779488 0.8858268, 4.0551181 -0.0954674 0.8858268, 4.0285312 -0.1064800 0.8858268, 4.0000000 -0.1102362 0.8858268, 3.9714688 -0.1064800 0.8858268, 3.9448819 -0.0954674 0.8858268, 3.9220512 -0.0779488 0.8858268, 3.9045326 -0.0551181 0.8858268, 3.8935200 -0.0285312 0.8858268, 3.8897638 -0.0000000 0.8858268, 3.8935200 0.0285312 0.8858268, 3.9045326 0.0551181 0.8858268, 3.9220512 0.0779488 0.8858268, 3.9448819 0.0954674 0.8858268, 3.9714688 0.1064800 0.8858268, 4.0000000 0.1102362 0.8858268, 4.0285312 0.1064800 0.8858268, 4.0551181 0.0954674 0.8858268, 4.0779488 0.0779488 0.8858268, 4.0954674 0.0551181 0.8858268, 4.1064800 0.0285312 0.8858268, 4.0000000 0.0000000 -0.6299213, 4.0000000 0.0000000 0.8858268 ] } coordIndex [ 25 1 0 -1, 24 25 0 -1, 0 1 48 -1, 25 24 49 -1, 26 2 1 -1, 25 26 1 -1, 1 2 48 -1, 26 25 49 -1, 27 3 2 -1, 26 27 2 -1, 2 3 48 -1, 27 26 49 -1, 28 4 3 -1, 27 28 3 -1, 3 4 48 -1, 28 27 49 -1, 29 5 4 -1, 28 29 4 -1, 4 5 48 -1, 29 28 49 -1, 30 6 5 -1, 29 30 5 -1, 5 6 48 -1, 30 29 49 -1, 31 7 6 -1, 30 31 6 -1, 6 7 48 -1, 31 30 49 -1, 32 8 7 -1, 31 32 7 -1, 7 8 48 -1, 32 31 49 -1, 33 9 8 -1, 32 33 8 -1, 8 9 48 -1, 33 32 49 -1, 34 10 9 -1, 33 34 9 -1, 9 10 48 -1, 34 33 49 -1, 35 11 10 -1, 34 35 10 -1, 10 11 48 -1, 35 34 49 -1, 36 12 11 -1, 35 36 11 -1, 11 12 48 -1, 36 35 49 -1, 37 13 12 -1, 36 37 12 -1, 12 13 48 -1, 37 36 49 -1, 38 14 13 -1, 37 38 13 -1, 13 14 48 -1, 38 37 49 -1, 39 15 14 -1, 38 39 14 -1, 14 15 48 -1, 39 38 49 -1, 40 16 15 -1, 39 40 15 -1, 15 16 48 -1, 40 39 49 -1, 41 17 16 -1, 40 41 16 -1, 16 17 48 -1, 41 40 49 -1, 42 18 17 -1, 41 42 17 -1, 17 18 48 -1, 42 41 49 -1, 43 19 18 -1, 42 43 18 -1, 18 19 48 -1, 43 42 49 -1, 44 20 19 -1, 43 44 19 -1, 19 20 48 -1, 44 43 49 -1, 45 21 20 -1, 44 45 20 -1, 20 21 48 -1, 45 44 49 -1, 46 22 21 -1, 45 46 21 -1, 21 22 48 -1, 46 45 49 -1, 47 23 22 -1, 46 47 22 -1, 22 23 48 -1, 47 46 49 -1, 24 0 23 -1, 47 24 23 -1, 23 0 48 -1, 24 47 49 -1 ] } }
