%TF.GenerationSoftware,KiCad,Pcbnew,10.0.6*%
%TF.CreationDate,2026-10-04T20:55:17+02:00*%
%TF.ProjectId,P12,5031322e-6b69-4636-9164-5f7063625858,P12-R1 PCB*%
%TF.SameCoordinates,Original*%
%TF.FileFunction,Legend,Bot*%
%TF.FilePolarity,Positive*%
%FSLAX46Y46*%
G04 Gerber Fmt 4.6, Leading zero omitted, Abs format (unit mm)*
G04 Created by KiCad (PCBNEW 10.0.6) date 2026-10-04 20:55:17*
%MOMM*%
%LPD*%
G01*
G04 APERTURE LIST*
%ADD10C,0.180000*%
G04 APERTURE END LIST*
D10*
X109392856Y-69684568D02*
X109392856Y-68184568D01*
X109392856Y-68184568D02*
X108821427Y-68184568D01*
X108821427Y-68184568D02*
X108678570Y-68255997D01*
X108678570Y-68255997D02*
X108607141Y-68327425D01*
X108607141Y-68327425D02*
X108535713Y-68470282D01*
X108535713Y-68470282D02*
X108535713Y-68684568D01*
X108535713Y-68684568D02*
X108607141Y-68827425D01*
X108607141Y-68827425D02*
X108678570Y-68898854D01*
X108678570Y-68898854D02*
X108821427Y-68970282D01*
X108821427Y-68970282D02*
X109392856Y-68970282D01*
X107107141Y-69684568D02*
X107964284Y-69684568D01*
X107535713Y-69684568D02*
X107535713Y-68184568D01*
X107535713Y-68184568D02*
X107678570Y-68398854D01*
X107678570Y-68398854D02*
X107821427Y-68541711D01*
X107821427Y-68541711D02*
X107964284Y-68613140D01*
X106535713Y-68327425D02*
X106464285Y-68255997D01*
X106464285Y-68255997D02*
X106321428Y-68184568D01*
X106321428Y-68184568D02*
X105964285Y-68184568D01*
X105964285Y-68184568D02*
X105821428Y-68255997D01*
X105821428Y-68255997D02*
X105749999Y-68327425D01*
X105749999Y-68327425D02*
X105678570Y-68470282D01*
X105678570Y-68470282D02*
X105678570Y-68613140D01*
X105678570Y-68613140D02*
X105749999Y-68827425D01*
X105749999Y-68827425D02*
X106607142Y-69684568D01*
X106607142Y-69684568D02*
X105678570Y-69684568D01*
X103035714Y-69684568D02*
X103535714Y-68970282D01*
X103892857Y-69684568D02*
X103892857Y-68184568D01*
X103892857Y-68184568D02*
X103321428Y-68184568D01*
X103321428Y-68184568D02*
X103178571Y-68255997D01*
X103178571Y-68255997D02*
X103107142Y-68327425D01*
X103107142Y-68327425D02*
X103035714Y-68470282D01*
X103035714Y-68470282D02*
X103035714Y-68684568D01*
X103035714Y-68684568D02*
X103107142Y-68827425D01*
X103107142Y-68827425D02*
X103178571Y-68898854D01*
X103178571Y-68898854D02*
X103321428Y-68970282D01*
X103321428Y-68970282D02*
X103892857Y-68970282D01*
X101607142Y-69684568D02*
X102464285Y-69684568D01*
X102035714Y-69684568D02*
X102035714Y-68184568D01*
X102035714Y-68184568D02*
X102178571Y-68398854D01*
X102178571Y-68398854D02*
X102321428Y-68541711D01*
X102321428Y-68541711D02*
X102464285Y-68613140D01*
X100035714Y-68184568D02*
X99178572Y-68184568D01*
X99607143Y-69684568D02*
X99607143Y-68184568D01*
X98392857Y-68970282D02*
X98392857Y-69684568D01*
X98892857Y-68184568D02*
X98392857Y-68970282D01*
X98392857Y-68970282D02*
X97892857Y-68184568D01*
X96678572Y-69684568D02*
X97392858Y-69684568D01*
X97392858Y-69684568D02*
X97392858Y-68184568D01*
X95035715Y-69113140D02*
X93892858Y-69113140D01*
X92107143Y-69613140D02*
X91892858Y-69684568D01*
X91892858Y-69684568D02*
X91535715Y-69684568D01*
X91535715Y-69684568D02*
X91392858Y-69613140D01*
X91392858Y-69613140D02*
X91321429Y-69541711D01*
X91321429Y-69541711D02*
X91250000Y-69398854D01*
X91250000Y-69398854D02*
X91250000Y-69255997D01*
X91250000Y-69255997D02*
X91321429Y-69113140D01*
X91321429Y-69113140D02*
X91392858Y-69041711D01*
X91392858Y-69041711D02*
X91535715Y-68970282D01*
X91535715Y-68970282D02*
X91821429Y-68898854D01*
X91821429Y-68898854D02*
X91964286Y-68827425D01*
X91964286Y-68827425D02*
X92035715Y-68755997D01*
X92035715Y-68755997D02*
X92107143Y-68613140D01*
X92107143Y-68613140D02*
X92107143Y-68470282D01*
X92107143Y-68470282D02*
X92035715Y-68327425D01*
X92035715Y-68327425D02*
X91964286Y-68255997D01*
X91964286Y-68255997D02*
X91821429Y-68184568D01*
X91821429Y-68184568D02*
X91464286Y-68184568D01*
X91464286Y-68184568D02*
X91250000Y-68255997D01*
X89750001Y-69541711D02*
X89821429Y-69613140D01*
X89821429Y-69613140D02*
X90035715Y-69684568D01*
X90035715Y-69684568D02*
X90178572Y-69684568D01*
X90178572Y-69684568D02*
X90392858Y-69613140D01*
X90392858Y-69613140D02*
X90535715Y-69470282D01*
X90535715Y-69470282D02*
X90607144Y-69327425D01*
X90607144Y-69327425D02*
X90678572Y-69041711D01*
X90678572Y-69041711D02*
X90678572Y-68827425D01*
X90678572Y-68827425D02*
X90607144Y-68541711D01*
X90607144Y-68541711D02*
X90535715Y-68398854D01*
X90535715Y-68398854D02*
X90392858Y-68255997D01*
X90392858Y-68255997D02*
X90178572Y-68184568D01*
X90178572Y-68184568D02*
X90035715Y-68184568D01*
X90035715Y-68184568D02*
X89821429Y-68255997D01*
X89821429Y-68255997D02*
X89750001Y-68327425D01*
X89107144Y-69684568D02*
X89107144Y-68184568D01*
X88464286Y-69255997D02*
X87750001Y-69255997D01*
X88607143Y-69684568D02*
X88107143Y-68184568D01*
X88107143Y-68184568D02*
X87607143Y-69684568D01*
X87107144Y-69684568D02*
X87107144Y-68184568D01*
X87107144Y-68184568D02*
X86250001Y-69684568D01*
X86250001Y-69684568D02*
X86250001Y-68184568D01*
X85607143Y-69255997D02*
X84892858Y-69255997D01*
X85750000Y-69684568D02*
X85250000Y-68184568D01*
X85250000Y-68184568D02*
X84750000Y-69684568D01*
X83178572Y-69255997D02*
X82464287Y-69255997D01*
X83321429Y-69684568D02*
X82821429Y-68184568D01*
X82821429Y-68184568D02*
X82321429Y-69684568D01*
X80250001Y-70255997D02*
X80321430Y-70184568D01*
X80321430Y-70184568D02*
X80464287Y-69970282D01*
X80464287Y-69970282D02*
X80535716Y-69827425D01*
X80535716Y-69827425D02*
X80607144Y-69613140D01*
X80607144Y-69613140D02*
X80678573Y-69255997D01*
X80678573Y-69255997D02*
X80678573Y-68970282D01*
X80678573Y-68970282D02*
X80607144Y-68613140D01*
X80607144Y-68613140D02*
X80535716Y-68398854D01*
X80535716Y-68398854D02*
X80464287Y-68255997D01*
X80464287Y-68255997D02*
X80321430Y-68041711D01*
X80321430Y-68041711D02*
X80250001Y-67970282D01*
X79821430Y-68684568D02*
X79035716Y-68684568D01*
X79035716Y-68684568D02*
X79821430Y-69684568D01*
X79821430Y-69684568D02*
X79035716Y-69684568D01*
X78250001Y-69684568D02*
X78392858Y-69613140D01*
X78392858Y-69613140D02*
X78464287Y-69470282D01*
X78464287Y-69470282D02*
X78464287Y-68184568D01*
X77035716Y-69684568D02*
X77035716Y-68898854D01*
X77035716Y-68898854D02*
X77107144Y-68755997D01*
X77107144Y-68755997D02*
X77250001Y-68684568D01*
X77250001Y-68684568D02*
X77535716Y-68684568D01*
X77535716Y-68684568D02*
X77678573Y-68755997D01*
X77035716Y-69613140D02*
X77178573Y-69684568D01*
X77178573Y-69684568D02*
X77535716Y-69684568D01*
X77535716Y-69684568D02*
X77678573Y-69613140D01*
X77678573Y-69613140D02*
X77750001Y-69470282D01*
X77750001Y-69470282D02*
X77750001Y-69327425D01*
X77750001Y-69327425D02*
X77678573Y-69184568D01*
X77678573Y-69184568D02*
X77535716Y-69113140D01*
X77535716Y-69113140D02*
X77178573Y-69113140D01*
X77178573Y-69113140D02*
X77035716Y-69041711D01*
X75678573Y-69613140D02*
X75821430Y-69684568D01*
X75821430Y-69684568D02*
X76107144Y-69684568D01*
X76107144Y-69684568D02*
X76250001Y-69613140D01*
X76250001Y-69613140D02*
X76321430Y-69541711D01*
X76321430Y-69541711D02*
X76392858Y-69398854D01*
X76392858Y-69398854D02*
X76392858Y-68970282D01*
X76392858Y-68970282D02*
X76321430Y-68827425D01*
X76321430Y-68827425D02*
X76250001Y-68755997D01*
X76250001Y-68755997D02*
X76107144Y-68684568D01*
X76107144Y-68684568D02*
X75821430Y-68684568D01*
X75821430Y-68684568D02*
X75678573Y-68755997D01*
X75178573Y-68684568D02*
X74392859Y-68684568D01*
X74392859Y-68684568D02*
X75178573Y-69684568D01*
X75178573Y-69684568D02*
X74392859Y-69684568D01*
X73178573Y-69684568D02*
X73178573Y-68898854D01*
X73178573Y-68898854D02*
X73250001Y-68755997D01*
X73250001Y-68755997D02*
X73392858Y-68684568D01*
X73392858Y-68684568D02*
X73678573Y-68684568D01*
X73678573Y-68684568D02*
X73821430Y-68755997D01*
X73178573Y-69613140D02*
X73321430Y-69684568D01*
X73321430Y-69684568D02*
X73678573Y-69684568D01*
X73678573Y-69684568D02*
X73821430Y-69613140D01*
X73821430Y-69613140D02*
X73892858Y-69470282D01*
X73892858Y-69470282D02*
X73892858Y-69327425D01*
X73892858Y-69327425D02*
X73821430Y-69184568D01*
X73821430Y-69184568D02*
X73678573Y-69113140D01*
X73678573Y-69113140D02*
X73321430Y-69113140D01*
X73321430Y-69113140D02*
X73178573Y-69041711D01*
X71321430Y-68684568D02*
X71321430Y-70184568D01*
X71321430Y-68755997D02*
X71178573Y-68684568D01*
X71178573Y-68684568D02*
X70892858Y-68684568D01*
X70892858Y-68684568D02*
X70750001Y-68755997D01*
X70750001Y-68755997D02*
X70678573Y-68827425D01*
X70678573Y-68827425D02*
X70607144Y-68970282D01*
X70607144Y-68970282D02*
X70607144Y-69398854D01*
X70607144Y-69398854D02*
X70678573Y-69541711D01*
X70678573Y-69541711D02*
X70750001Y-69613140D01*
X70750001Y-69613140D02*
X70892858Y-69684568D01*
X70892858Y-69684568D02*
X71178573Y-69684568D01*
X71178573Y-69684568D02*
X71321430Y-69613140D01*
X69750001Y-69684568D02*
X69892858Y-69613140D01*
X69892858Y-69613140D02*
X69964287Y-69541711D01*
X69964287Y-69541711D02*
X70035715Y-69398854D01*
X70035715Y-69398854D02*
X70035715Y-68970282D01*
X70035715Y-68970282D02*
X69964287Y-68827425D01*
X69964287Y-68827425D02*
X69892858Y-68755997D01*
X69892858Y-68755997D02*
X69750001Y-68684568D01*
X69750001Y-68684568D02*
X69535715Y-68684568D01*
X69535715Y-68684568D02*
X69392858Y-68755997D01*
X69392858Y-68755997D02*
X69321430Y-68827425D01*
X69321430Y-68827425D02*
X69250001Y-68970282D01*
X69250001Y-68970282D02*
X69250001Y-69398854D01*
X69250001Y-69398854D02*
X69321430Y-69541711D01*
X69321430Y-69541711D02*
X69392858Y-69613140D01*
X69392858Y-69613140D02*
X69535715Y-69684568D01*
X69535715Y-69684568D02*
X69750001Y-69684568D01*
X66821430Y-69684568D02*
X66821430Y-68184568D01*
X66821430Y-69613140D02*
X66964287Y-69684568D01*
X66964287Y-69684568D02*
X67250001Y-69684568D01*
X67250001Y-69684568D02*
X67392858Y-69613140D01*
X67392858Y-69613140D02*
X67464287Y-69541711D01*
X67464287Y-69541711D02*
X67535715Y-69398854D01*
X67535715Y-69398854D02*
X67535715Y-68970282D01*
X67535715Y-68970282D02*
X67464287Y-68827425D01*
X67464287Y-68827425D02*
X67392858Y-68755997D01*
X67392858Y-68755997D02*
X67250001Y-68684568D01*
X67250001Y-68684568D02*
X66964287Y-68684568D01*
X66964287Y-68684568D02*
X66821430Y-68755997D01*
X66107144Y-69684568D02*
X66107144Y-68684568D01*
X66107144Y-68970282D02*
X66035715Y-68827425D01*
X66035715Y-68827425D02*
X65964287Y-68755997D01*
X65964287Y-68755997D02*
X65821429Y-68684568D01*
X65821429Y-68684568D02*
X65678572Y-68684568D01*
X64535716Y-68684568D02*
X64535716Y-69684568D01*
X65178573Y-68684568D02*
X65178573Y-69470282D01*
X65178573Y-69470282D02*
X65107144Y-69613140D01*
X65107144Y-69613140D02*
X64964287Y-69684568D01*
X64964287Y-69684568D02*
X64750001Y-69684568D01*
X64750001Y-69684568D02*
X64607144Y-69613140D01*
X64607144Y-69613140D02*
X64535716Y-69541711D01*
X63178573Y-68684568D02*
X63178573Y-69898854D01*
X63178573Y-69898854D02*
X63250001Y-70041711D01*
X63250001Y-70041711D02*
X63321430Y-70113140D01*
X63321430Y-70113140D02*
X63464287Y-70184568D01*
X63464287Y-70184568D02*
X63678573Y-70184568D01*
X63678573Y-70184568D02*
X63821430Y-70113140D01*
X63178573Y-69613140D02*
X63321430Y-69684568D01*
X63321430Y-69684568D02*
X63607144Y-69684568D01*
X63607144Y-69684568D02*
X63750001Y-69613140D01*
X63750001Y-69613140D02*
X63821430Y-69541711D01*
X63821430Y-69541711D02*
X63892858Y-69398854D01*
X63892858Y-69398854D02*
X63892858Y-68970282D01*
X63892858Y-68970282D02*
X63821430Y-68827425D01*
X63821430Y-68827425D02*
X63750001Y-68755997D01*
X63750001Y-68755997D02*
X63607144Y-68684568D01*
X63607144Y-68684568D02*
X63321430Y-68684568D01*
X63321430Y-68684568D02*
X63178573Y-68755997D01*
X62464287Y-69684568D02*
X62464287Y-68684568D01*
X62464287Y-68184568D02*
X62535715Y-68255997D01*
X62535715Y-68255997D02*
X62464287Y-68327425D01*
X62464287Y-68327425D02*
X62392858Y-68255997D01*
X62392858Y-68255997D02*
X62464287Y-68184568D01*
X62464287Y-68184568D02*
X62464287Y-68327425D01*
X61178572Y-69613140D02*
X61321429Y-69684568D01*
X61321429Y-69684568D02*
X61607144Y-69684568D01*
X61607144Y-69684568D02*
X61750001Y-69613140D01*
X61750001Y-69613140D02*
X61821429Y-69470282D01*
X61821429Y-69470282D02*
X61821429Y-68898854D01*
X61821429Y-68898854D02*
X61750001Y-68755997D01*
X61750001Y-68755997D02*
X61607144Y-68684568D01*
X61607144Y-68684568D02*
X61321429Y-68684568D01*
X61321429Y-68684568D02*
X61178572Y-68755997D01*
X61178572Y-68755997D02*
X61107144Y-68898854D01*
X61107144Y-68898854D02*
X61107144Y-69041711D01*
X61107144Y-69041711D02*
X61821429Y-69184568D01*
X60464287Y-68684568D02*
X60464287Y-69970282D01*
X60464287Y-69970282D02*
X60535715Y-70113140D01*
X60535715Y-70113140D02*
X60678572Y-70184568D01*
X60678572Y-70184568D02*
X60750001Y-70184568D01*
X60464287Y-68184568D02*
X60535715Y-68255997D01*
X60535715Y-68255997D02*
X60464287Y-68327425D01*
X60464287Y-68327425D02*
X60392858Y-68255997D01*
X60392858Y-68255997D02*
X60464287Y-68184568D01*
X60464287Y-68184568D02*
X60464287Y-68327425D01*
X58678572Y-69613140D02*
X58535715Y-69684568D01*
X58535715Y-69684568D02*
X58250001Y-69684568D01*
X58250001Y-69684568D02*
X58107144Y-69613140D01*
X58107144Y-69613140D02*
X58035715Y-69470282D01*
X58035715Y-69470282D02*
X58035715Y-69398854D01*
X58035715Y-69398854D02*
X58107144Y-69255997D01*
X58107144Y-69255997D02*
X58250001Y-69184568D01*
X58250001Y-69184568D02*
X58464287Y-69184568D01*
X58464287Y-69184568D02*
X58607144Y-69113140D01*
X58607144Y-69113140D02*
X58678572Y-68970282D01*
X58678572Y-68970282D02*
X58678572Y-68898854D01*
X58678572Y-68898854D02*
X58607144Y-68755997D01*
X58607144Y-68755997D02*
X58464287Y-68684568D01*
X58464287Y-68684568D02*
X58250001Y-68684568D01*
X58250001Y-68684568D02*
X58107144Y-68755997D01*
X57607143Y-68684568D02*
X57035715Y-68684568D01*
X57392858Y-68184568D02*
X57392858Y-69470282D01*
X57392858Y-69470282D02*
X57321429Y-69613140D01*
X57321429Y-69613140D02*
X57178572Y-69684568D01*
X57178572Y-69684568D02*
X57035715Y-69684568D01*
X56535715Y-69684568D02*
X56535715Y-68684568D01*
X56535715Y-68970282D02*
X56464286Y-68827425D01*
X56464286Y-68827425D02*
X56392858Y-68755997D01*
X56392858Y-68755997D02*
X56250000Y-68684568D01*
X56250000Y-68684568D02*
X56107143Y-68684568D01*
X55392858Y-69684568D02*
X55535715Y-69613140D01*
X55535715Y-69613140D02*
X55607144Y-69541711D01*
X55607144Y-69541711D02*
X55678572Y-69398854D01*
X55678572Y-69398854D02*
X55678572Y-68970282D01*
X55678572Y-68970282D02*
X55607144Y-68827425D01*
X55607144Y-68827425D02*
X55535715Y-68755997D01*
X55535715Y-68755997D02*
X55392858Y-68684568D01*
X55392858Y-68684568D02*
X55178572Y-68684568D01*
X55178572Y-68684568D02*
X55035715Y-68755997D01*
X55035715Y-68755997D02*
X54964287Y-68827425D01*
X54964287Y-68827425D02*
X54892858Y-68970282D01*
X54892858Y-68970282D02*
X54892858Y-69398854D01*
X54892858Y-69398854D02*
X54964287Y-69541711D01*
X54964287Y-69541711D02*
X55035715Y-69613140D01*
X55035715Y-69613140D02*
X55178572Y-69684568D01*
X55178572Y-69684568D02*
X55392858Y-69684568D01*
X54250001Y-68684568D02*
X54250001Y-69684568D01*
X54250001Y-68827425D02*
X54178572Y-68755997D01*
X54178572Y-68755997D02*
X54035715Y-68684568D01*
X54035715Y-68684568D02*
X53821429Y-68684568D01*
X53821429Y-68684568D02*
X53678572Y-68755997D01*
X53678572Y-68755997D02*
X53607144Y-68898854D01*
X53607144Y-68898854D02*
X53607144Y-69684568D01*
X52892858Y-69684568D02*
X52892858Y-68684568D01*
X52892858Y-68184568D02*
X52964286Y-68255997D01*
X52964286Y-68255997D02*
X52892858Y-68327425D01*
X52892858Y-68327425D02*
X52821429Y-68255997D01*
X52821429Y-68255997D02*
X52892858Y-68184568D01*
X52892858Y-68184568D02*
X52892858Y-68327425D01*
X51607143Y-69613140D02*
X51750000Y-69684568D01*
X51750000Y-69684568D02*
X52035715Y-69684568D01*
X52035715Y-69684568D02*
X52178572Y-69613140D01*
X52178572Y-69613140D02*
X52250000Y-69470282D01*
X52250000Y-69470282D02*
X52250000Y-68898854D01*
X52250000Y-68898854D02*
X52178572Y-68755997D01*
X52178572Y-68755997D02*
X52035715Y-68684568D01*
X52035715Y-68684568D02*
X51750000Y-68684568D01*
X51750000Y-68684568D02*
X51607143Y-68755997D01*
X51607143Y-68755997D02*
X51535715Y-68898854D01*
X51535715Y-68898854D02*
X51535715Y-69041711D01*
X51535715Y-69041711D02*
X52250000Y-69184568D01*
X51035715Y-70255997D02*
X50964286Y-70184568D01*
X50964286Y-70184568D02*
X50821429Y-69970282D01*
X50821429Y-69970282D02*
X50750001Y-69827425D01*
X50750001Y-69827425D02*
X50678572Y-69613140D01*
X50678572Y-69613140D02*
X50607143Y-69255997D01*
X50607143Y-69255997D02*
X50607143Y-68970282D01*
X50607143Y-68970282D02*
X50678572Y-68613140D01*
X50678572Y-68613140D02*
X50750001Y-68398854D01*
X50750001Y-68398854D02*
X50821429Y-68255997D01*
X50821429Y-68255997D02*
X50964286Y-68041711D01*
X50964286Y-68041711D02*
X51035715Y-67970282D01*
%LPC*%
G36*
X15674047Y-82370805D02*
G01*
X15725408Y-82376764D01*
X15742954Y-82384511D01*
X15765671Y-82389030D01*
X15789991Y-82405280D01*
X15810793Y-82414465D01*
X15825000Y-82428672D01*
X15846777Y-82443223D01*
X15861327Y-82464999D01*
X15875534Y-82479206D01*
X15884718Y-82500006D01*
X15900970Y-82524329D01*
X15905489Y-82547048D01*
X15913235Y-82564591D01*
X15919192Y-82615940D01*
X15920000Y-82620000D01*
X15920000Y-83820000D01*
X15919192Y-83824059D01*
X15913235Y-83875408D01*
X15905489Y-83892950D01*
X15900970Y-83915671D01*
X15884716Y-83939995D01*
X15875534Y-83960793D01*
X15861329Y-83974997D01*
X15846777Y-83996777D01*
X15824997Y-84011329D01*
X15810793Y-84025534D01*
X15789995Y-84034716D01*
X15765671Y-84050970D01*
X15742950Y-84055489D01*
X15725408Y-84063235D01*
X15674061Y-84069192D01*
X15670000Y-84070000D01*
X14470000Y-84070000D01*
X14465941Y-84069192D01*
X14414591Y-84063235D01*
X14397048Y-84055489D01*
X14374329Y-84050970D01*
X14350006Y-84034718D01*
X14329206Y-84025534D01*
X14314999Y-84011327D01*
X14293223Y-83996777D01*
X14278672Y-83975000D01*
X14264465Y-83960793D01*
X14255280Y-83939991D01*
X14239030Y-83915671D01*
X14234511Y-83892954D01*
X14226764Y-83875408D01*
X14220805Y-83824049D01*
X14220000Y-83820000D01*
X14220000Y-82620000D01*
X14220804Y-82615953D01*
X14226764Y-82564591D01*
X14234511Y-82547043D01*
X14239030Y-82524329D01*
X14255278Y-82500010D01*
X14264465Y-82479206D01*
X14278674Y-82464996D01*
X14293223Y-82443223D01*
X14314996Y-82428674D01*
X14329206Y-82414465D01*
X14350010Y-82405278D01*
X14374329Y-82389030D01*
X14397043Y-82384511D01*
X14414591Y-82376764D01*
X14465952Y-82370805D01*
X14470000Y-82370000D01*
X15670000Y-82370000D01*
X15674047Y-82370805D01*
G37*
G36*
X122674047Y-82370805D02*
G01*
X122725408Y-82376764D01*
X122742954Y-82384511D01*
X122765671Y-82389030D01*
X122789991Y-82405280D01*
X122810793Y-82414465D01*
X122825000Y-82428672D01*
X122846777Y-82443223D01*
X122861327Y-82464999D01*
X122875534Y-82479206D01*
X122884718Y-82500006D01*
X122900970Y-82524329D01*
X122905489Y-82547048D01*
X122913235Y-82564591D01*
X122919192Y-82615940D01*
X122920000Y-82620000D01*
X122920000Y-83820000D01*
X122919192Y-83824059D01*
X122913235Y-83875408D01*
X122905489Y-83892950D01*
X122900970Y-83915671D01*
X122884716Y-83939995D01*
X122875534Y-83960793D01*
X122861329Y-83974997D01*
X122846777Y-83996777D01*
X122824997Y-84011329D01*
X122810793Y-84025534D01*
X122789995Y-84034716D01*
X122765671Y-84050970D01*
X122742950Y-84055489D01*
X122725408Y-84063235D01*
X122674061Y-84069192D01*
X122670000Y-84070000D01*
X121470000Y-84070000D01*
X121465941Y-84069192D01*
X121414591Y-84063235D01*
X121397048Y-84055489D01*
X121374329Y-84050970D01*
X121350006Y-84034718D01*
X121329206Y-84025534D01*
X121314999Y-84011327D01*
X121293223Y-83996777D01*
X121278672Y-83975000D01*
X121264465Y-83960793D01*
X121255280Y-83939991D01*
X121239030Y-83915671D01*
X121234511Y-83892954D01*
X121226764Y-83875408D01*
X121220805Y-83824049D01*
X121220000Y-83820000D01*
X121220000Y-82620000D01*
X121220804Y-82615953D01*
X121226764Y-82564591D01*
X121234511Y-82547043D01*
X121239030Y-82524329D01*
X121255278Y-82500010D01*
X121264465Y-82479206D01*
X121278674Y-82464996D01*
X121293223Y-82443223D01*
X121314996Y-82428674D01*
X121329206Y-82414465D01*
X121350010Y-82405278D01*
X121374329Y-82389030D01*
X121397043Y-82384511D01*
X121414591Y-82376764D01*
X121465952Y-82370805D01*
X121470000Y-82370000D01*
X122670000Y-82370000D01*
X122674047Y-82370805D01*
G37*
G36*
X17856742Y-82406601D02*
G01*
X18010687Y-82470367D01*
X18149234Y-82562941D01*
X18267059Y-82680766D01*
X18359633Y-82819313D01*
X18423399Y-82973258D01*
X18455907Y-83136685D01*
X18455907Y-83303315D01*
X18423399Y-83466742D01*
X18359633Y-83620687D01*
X18267059Y-83759234D01*
X18149234Y-83877059D01*
X18010687Y-83969633D01*
X17856742Y-84033399D01*
X17693315Y-84065907D01*
X17526685Y-84065907D01*
X17363258Y-84033399D01*
X17209313Y-83969633D01*
X17070766Y-83877059D01*
X16952941Y-83759234D01*
X16860367Y-83620687D01*
X16796601Y-83466742D01*
X16764093Y-83303315D01*
X16764093Y-83136685D01*
X16796601Y-82973258D01*
X16860367Y-82819313D01*
X16952941Y-82680766D01*
X17070766Y-82562941D01*
X17209313Y-82470367D01*
X17363258Y-82406601D01*
X17526685Y-82374093D01*
X17693315Y-82374093D01*
X17856742Y-82406601D01*
G37*
G36*
X20396742Y-82406601D02*
G01*
X20550687Y-82470367D01*
X20689234Y-82562941D01*
X20807059Y-82680766D01*
X20899633Y-82819313D01*
X20963399Y-82973258D01*
X20995907Y-83136685D01*
X20995907Y-83303315D01*
X20963399Y-83466742D01*
X20899633Y-83620687D01*
X20807059Y-83759234D01*
X20689234Y-83877059D01*
X20550687Y-83969633D01*
X20396742Y-84033399D01*
X20233315Y-84065907D01*
X20066685Y-84065907D01*
X19903258Y-84033399D01*
X19749313Y-83969633D01*
X19610766Y-83877059D01*
X19492941Y-83759234D01*
X19400367Y-83620687D01*
X19336601Y-83466742D01*
X19304093Y-83303315D01*
X19304093Y-83136685D01*
X19336601Y-82973258D01*
X19400367Y-82819313D01*
X19492941Y-82680766D01*
X19610766Y-82562941D01*
X19749313Y-82470367D01*
X19903258Y-82406601D01*
X20066685Y-82374093D01*
X20233315Y-82374093D01*
X20396742Y-82406601D01*
G37*
G36*
X22936742Y-82406601D02*
G01*
X23090687Y-82470367D01*
X23229234Y-82562941D01*
X23347059Y-82680766D01*
X23439633Y-82819313D01*
X23503399Y-82973258D01*
X23535907Y-83136685D01*
X23535907Y-83303315D01*
X23503399Y-83466742D01*
X23439633Y-83620687D01*
X23347059Y-83759234D01*
X23229234Y-83877059D01*
X23090687Y-83969633D01*
X22936742Y-84033399D01*
X22773315Y-84065907D01*
X22606685Y-84065907D01*
X22443258Y-84033399D01*
X22289313Y-83969633D01*
X22150766Y-83877059D01*
X22032941Y-83759234D01*
X21940367Y-83620687D01*
X21876601Y-83466742D01*
X21844093Y-83303315D01*
X21844093Y-83136685D01*
X21876601Y-82973258D01*
X21940367Y-82819313D01*
X22032941Y-82680766D01*
X22150766Y-82562941D01*
X22289313Y-82470367D01*
X22443258Y-82406601D01*
X22606685Y-82374093D01*
X22773315Y-82374093D01*
X22936742Y-82406601D01*
G37*
G36*
X25476742Y-82406601D02*
G01*
X25630687Y-82470367D01*
X25769234Y-82562941D01*
X25887059Y-82680766D01*
X25979633Y-82819313D01*
X26043399Y-82973258D01*
X26075907Y-83136685D01*
X26075907Y-83303315D01*
X26043399Y-83466742D01*
X25979633Y-83620687D01*
X25887059Y-83759234D01*
X25769234Y-83877059D01*
X25630687Y-83969633D01*
X25476742Y-84033399D01*
X25313315Y-84065907D01*
X25146685Y-84065907D01*
X24983258Y-84033399D01*
X24829313Y-83969633D01*
X24690766Y-83877059D01*
X24572941Y-83759234D01*
X24480367Y-83620687D01*
X24416601Y-83466742D01*
X24384093Y-83303315D01*
X24384093Y-83136685D01*
X24416601Y-82973258D01*
X24480367Y-82819313D01*
X24572941Y-82680766D01*
X24690766Y-82562941D01*
X24829313Y-82470367D01*
X24983258Y-82406601D01*
X25146685Y-82374093D01*
X25313315Y-82374093D01*
X25476742Y-82406601D01*
G37*
G36*
X28016742Y-82406601D02*
G01*
X28170687Y-82470367D01*
X28309234Y-82562941D01*
X28427059Y-82680766D01*
X28519633Y-82819313D01*
X28583399Y-82973258D01*
X28615907Y-83136685D01*
X28615907Y-83303315D01*
X28583399Y-83466742D01*
X28519633Y-83620687D01*
X28427059Y-83759234D01*
X28309234Y-83877059D01*
X28170687Y-83969633D01*
X28016742Y-84033399D01*
X27853315Y-84065907D01*
X27686685Y-84065907D01*
X27523258Y-84033399D01*
X27369313Y-83969633D01*
X27230766Y-83877059D01*
X27112941Y-83759234D01*
X27020367Y-83620687D01*
X26956601Y-83466742D01*
X26924093Y-83303315D01*
X26924093Y-83136685D01*
X26956601Y-82973258D01*
X27020367Y-82819313D01*
X27112941Y-82680766D01*
X27230766Y-82562941D01*
X27369313Y-82470367D01*
X27523258Y-82406601D01*
X27686685Y-82374093D01*
X27853315Y-82374093D01*
X28016742Y-82406601D01*
G37*
G36*
X30556742Y-82406601D02*
G01*
X30710687Y-82470367D01*
X30849234Y-82562941D01*
X30967059Y-82680766D01*
X31059633Y-82819313D01*
X31123399Y-82973258D01*
X31155907Y-83136685D01*
X31155907Y-83303315D01*
X31123399Y-83466742D01*
X31059633Y-83620687D01*
X30967059Y-83759234D01*
X30849234Y-83877059D01*
X30710687Y-83969633D01*
X30556742Y-84033399D01*
X30393315Y-84065907D01*
X30226685Y-84065907D01*
X30063258Y-84033399D01*
X29909313Y-83969633D01*
X29770766Y-83877059D01*
X29652941Y-83759234D01*
X29560367Y-83620687D01*
X29496601Y-83466742D01*
X29464093Y-83303315D01*
X29464093Y-83136685D01*
X29496601Y-82973258D01*
X29560367Y-82819313D01*
X29652941Y-82680766D01*
X29770766Y-82562941D01*
X29909313Y-82470367D01*
X30063258Y-82406601D01*
X30226685Y-82374093D01*
X30393315Y-82374093D01*
X30556742Y-82406601D01*
G37*
G36*
X33096742Y-82406601D02*
G01*
X33250687Y-82470367D01*
X33389234Y-82562941D01*
X33507059Y-82680766D01*
X33599633Y-82819313D01*
X33663399Y-82973258D01*
X33695907Y-83136685D01*
X33695907Y-83303315D01*
X33663399Y-83466742D01*
X33599633Y-83620687D01*
X33507059Y-83759234D01*
X33389234Y-83877059D01*
X33250687Y-83969633D01*
X33096742Y-84033399D01*
X32933315Y-84065907D01*
X32766685Y-84065907D01*
X32603258Y-84033399D01*
X32449313Y-83969633D01*
X32310766Y-83877059D01*
X32192941Y-83759234D01*
X32100367Y-83620687D01*
X32036601Y-83466742D01*
X32004093Y-83303315D01*
X32004093Y-83136685D01*
X32036601Y-82973258D01*
X32100367Y-82819313D01*
X32192941Y-82680766D01*
X32310766Y-82562941D01*
X32449313Y-82470367D01*
X32603258Y-82406601D01*
X32766685Y-82374093D01*
X32933315Y-82374093D01*
X33096742Y-82406601D01*
G37*
G36*
X35636742Y-82406601D02*
G01*
X35790687Y-82470367D01*
X35929234Y-82562941D01*
X36047059Y-82680766D01*
X36139633Y-82819313D01*
X36203399Y-82973258D01*
X36235907Y-83136685D01*
X36235907Y-83303315D01*
X36203399Y-83466742D01*
X36139633Y-83620687D01*
X36047059Y-83759234D01*
X35929234Y-83877059D01*
X35790687Y-83969633D01*
X35636742Y-84033399D01*
X35473315Y-84065907D01*
X35306685Y-84065907D01*
X35143258Y-84033399D01*
X34989313Y-83969633D01*
X34850766Y-83877059D01*
X34732941Y-83759234D01*
X34640367Y-83620687D01*
X34576601Y-83466742D01*
X34544093Y-83303315D01*
X34544093Y-83136685D01*
X34576601Y-82973258D01*
X34640367Y-82819313D01*
X34732941Y-82680766D01*
X34850766Y-82562941D01*
X34989313Y-82470367D01*
X35143258Y-82406601D01*
X35306685Y-82374093D01*
X35473315Y-82374093D01*
X35636742Y-82406601D01*
G37*
G36*
X38176742Y-82406601D02*
G01*
X38330687Y-82470367D01*
X38469234Y-82562941D01*
X38587059Y-82680766D01*
X38679633Y-82819313D01*
X38743399Y-82973258D01*
X38775907Y-83136685D01*
X38775907Y-83303315D01*
X38743399Y-83466742D01*
X38679633Y-83620687D01*
X38587059Y-83759234D01*
X38469234Y-83877059D01*
X38330687Y-83969633D01*
X38176742Y-84033399D01*
X38013315Y-84065907D01*
X37846685Y-84065907D01*
X37683258Y-84033399D01*
X37529313Y-83969633D01*
X37390766Y-83877059D01*
X37272941Y-83759234D01*
X37180367Y-83620687D01*
X37116601Y-83466742D01*
X37084093Y-83303315D01*
X37084093Y-83136685D01*
X37116601Y-82973258D01*
X37180367Y-82819313D01*
X37272941Y-82680766D01*
X37390766Y-82562941D01*
X37529313Y-82470367D01*
X37683258Y-82406601D01*
X37846685Y-82374093D01*
X38013315Y-82374093D01*
X38176742Y-82406601D01*
G37*
G36*
X124856742Y-82406601D02*
G01*
X125010687Y-82470367D01*
X125149234Y-82562941D01*
X125267059Y-82680766D01*
X125359633Y-82819313D01*
X125423399Y-82973258D01*
X125455907Y-83136685D01*
X125455907Y-83303315D01*
X125423399Y-83466742D01*
X125359633Y-83620687D01*
X125267059Y-83759234D01*
X125149234Y-83877059D01*
X125010687Y-83969633D01*
X124856742Y-84033399D01*
X124693315Y-84065907D01*
X124526685Y-84065907D01*
X124363258Y-84033399D01*
X124209313Y-83969633D01*
X124070766Y-83877059D01*
X123952941Y-83759234D01*
X123860367Y-83620687D01*
X123796601Y-83466742D01*
X123764093Y-83303315D01*
X123764093Y-83136685D01*
X123796601Y-82973258D01*
X123860367Y-82819313D01*
X123952941Y-82680766D01*
X124070766Y-82562941D01*
X124209313Y-82470367D01*
X124363258Y-82406601D01*
X124526685Y-82374093D01*
X124693315Y-82374093D01*
X124856742Y-82406601D01*
G37*
G36*
X127396742Y-82406601D02*
G01*
X127550687Y-82470367D01*
X127689234Y-82562941D01*
X127807059Y-82680766D01*
X127899633Y-82819313D01*
X127963399Y-82973258D01*
X127995907Y-83136685D01*
X127995907Y-83303315D01*
X127963399Y-83466742D01*
X127899633Y-83620687D01*
X127807059Y-83759234D01*
X127689234Y-83877059D01*
X127550687Y-83969633D01*
X127396742Y-84033399D01*
X127233315Y-84065907D01*
X127066685Y-84065907D01*
X126903258Y-84033399D01*
X126749313Y-83969633D01*
X126610766Y-83877059D01*
X126492941Y-83759234D01*
X126400367Y-83620687D01*
X126336601Y-83466742D01*
X126304093Y-83303315D01*
X126304093Y-83136685D01*
X126336601Y-82973258D01*
X126400367Y-82819313D01*
X126492941Y-82680766D01*
X126610766Y-82562941D01*
X126749313Y-82470367D01*
X126903258Y-82406601D01*
X127066685Y-82374093D01*
X127233315Y-82374093D01*
X127396742Y-82406601D01*
G37*
G36*
X129936742Y-82406601D02*
G01*
X130090687Y-82470367D01*
X130229234Y-82562941D01*
X130347059Y-82680766D01*
X130439633Y-82819313D01*
X130503399Y-82973258D01*
X130535907Y-83136685D01*
X130535907Y-83303315D01*
X130503399Y-83466742D01*
X130439633Y-83620687D01*
X130347059Y-83759234D01*
X130229234Y-83877059D01*
X130090687Y-83969633D01*
X129936742Y-84033399D01*
X129773315Y-84065907D01*
X129606685Y-84065907D01*
X129443258Y-84033399D01*
X129289313Y-83969633D01*
X129150766Y-83877059D01*
X129032941Y-83759234D01*
X128940367Y-83620687D01*
X128876601Y-83466742D01*
X128844093Y-83303315D01*
X128844093Y-83136685D01*
X128876601Y-82973258D01*
X128940367Y-82819313D01*
X129032941Y-82680766D01*
X129150766Y-82562941D01*
X129289313Y-82470367D01*
X129443258Y-82406601D01*
X129606685Y-82374093D01*
X129773315Y-82374093D01*
X129936742Y-82406601D01*
G37*
G36*
X132476742Y-82406601D02*
G01*
X132630687Y-82470367D01*
X132769234Y-82562941D01*
X132887059Y-82680766D01*
X132979633Y-82819313D01*
X133043399Y-82973258D01*
X133075907Y-83136685D01*
X133075907Y-83303315D01*
X133043399Y-83466742D01*
X132979633Y-83620687D01*
X132887059Y-83759234D01*
X132769234Y-83877059D01*
X132630687Y-83969633D01*
X132476742Y-84033399D01*
X132313315Y-84065907D01*
X132146685Y-84065907D01*
X131983258Y-84033399D01*
X131829313Y-83969633D01*
X131690766Y-83877059D01*
X131572941Y-83759234D01*
X131480367Y-83620687D01*
X131416601Y-83466742D01*
X131384093Y-83303315D01*
X131384093Y-83136685D01*
X131416601Y-82973258D01*
X131480367Y-82819313D01*
X131572941Y-82680766D01*
X131690766Y-82562941D01*
X131829313Y-82470367D01*
X131983258Y-82406601D01*
X132146685Y-82374093D01*
X132313315Y-82374093D01*
X132476742Y-82406601D01*
G37*
G36*
X135016742Y-82406601D02*
G01*
X135170687Y-82470367D01*
X135309234Y-82562941D01*
X135427059Y-82680766D01*
X135519633Y-82819313D01*
X135583399Y-82973258D01*
X135615907Y-83136685D01*
X135615907Y-83303315D01*
X135583399Y-83466742D01*
X135519633Y-83620687D01*
X135427059Y-83759234D01*
X135309234Y-83877059D01*
X135170687Y-83969633D01*
X135016742Y-84033399D01*
X134853315Y-84065907D01*
X134686685Y-84065907D01*
X134523258Y-84033399D01*
X134369313Y-83969633D01*
X134230766Y-83877059D01*
X134112941Y-83759234D01*
X134020367Y-83620687D01*
X133956601Y-83466742D01*
X133924093Y-83303315D01*
X133924093Y-83136685D01*
X133956601Y-82973258D01*
X134020367Y-82819313D01*
X134112941Y-82680766D01*
X134230766Y-82562941D01*
X134369313Y-82470367D01*
X134523258Y-82406601D01*
X134686685Y-82374093D01*
X134853315Y-82374093D01*
X135016742Y-82406601D01*
G37*
G36*
X137556742Y-82406601D02*
G01*
X137710687Y-82470367D01*
X137849234Y-82562941D01*
X137967059Y-82680766D01*
X138059633Y-82819313D01*
X138123399Y-82973258D01*
X138155907Y-83136685D01*
X138155907Y-83303315D01*
X138123399Y-83466742D01*
X138059633Y-83620687D01*
X137967059Y-83759234D01*
X137849234Y-83877059D01*
X137710687Y-83969633D01*
X137556742Y-84033399D01*
X137393315Y-84065907D01*
X137226685Y-84065907D01*
X137063258Y-84033399D01*
X136909313Y-83969633D01*
X136770766Y-83877059D01*
X136652941Y-83759234D01*
X136560367Y-83620687D01*
X136496601Y-83466742D01*
X136464093Y-83303315D01*
X136464093Y-83136685D01*
X136496601Y-82973258D01*
X136560367Y-82819313D01*
X136652941Y-82680766D01*
X136770766Y-82562941D01*
X136909313Y-82470367D01*
X137063258Y-82406601D01*
X137226685Y-82374093D01*
X137393315Y-82374093D01*
X137556742Y-82406601D01*
G37*
G36*
X140096742Y-82406601D02*
G01*
X140250687Y-82470367D01*
X140389234Y-82562941D01*
X140507059Y-82680766D01*
X140599633Y-82819313D01*
X140663399Y-82973258D01*
X140695907Y-83136685D01*
X140695907Y-83303315D01*
X140663399Y-83466742D01*
X140599633Y-83620687D01*
X140507059Y-83759234D01*
X140389234Y-83877059D01*
X140250687Y-83969633D01*
X140096742Y-84033399D01*
X139933315Y-84065907D01*
X139766685Y-84065907D01*
X139603258Y-84033399D01*
X139449313Y-83969633D01*
X139310766Y-83877059D01*
X139192941Y-83759234D01*
X139100367Y-83620687D01*
X139036601Y-83466742D01*
X139004093Y-83303315D01*
X139004093Y-83136685D01*
X139036601Y-82973258D01*
X139100367Y-82819313D01*
X139192941Y-82680766D01*
X139310766Y-82562941D01*
X139449313Y-82470367D01*
X139603258Y-82406601D01*
X139766685Y-82374093D01*
X139933315Y-82374093D01*
X140096742Y-82406601D01*
G37*
G36*
X142636742Y-82406601D02*
G01*
X142790687Y-82470367D01*
X142929234Y-82562941D01*
X143047059Y-82680766D01*
X143139633Y-82819313D01*
X143203399Y-82973258D01*
X143235907Y-83136685D01*
X143235907Y-83303315D01*
X143203399Y-83466742D01*
X143139633Y-83620687D01*
X143047059Y-83759234D01*
X142929234Y-83877059D01*
X142790687Y-83969633D01*
X142636742Y-84033399D01*
X142473315Y-84065907D01*
X142306685Y-84065907D01*
X142143258Y-84033399D01*
X141989313Y-83969633D01*
X141850766Y-83877059D01*
X141732941Y-83759234D01*
X141640367Y-83620687D01*
X141576601Y-83466742D01*
X141544093Y-83303315D01*
X141544093Y-83136685D01*
X141576601Y-82973258D01*
X141640367Y-82819313D01*
X141732941Y-82680766D01*
X141850766Y-82562941D01*
X141989313Y-82470367D01*
X142143258Y-82406601D01*
X142306685Y-82374093D01*
X142473315Y-82374093D01*
X142636742Y-82406601D01*
G37*
G36*
X145176742Y-82406601D02*
G01*
X145330687Y-82470367D01*
X145469234Y-82562941D01*
X145587059Y-82680766D01*
X145679633Y-82819313D01*
X145743399Y-82973258D01*
X145775907Y-83136685D01*
X145775907Y-83303315D01*
X145743399Y-83466742D01*
X145679633Y-83620687D01*
X145587059Y-83759234D01*
X145469234Y-83877059D01*
X145330687Y-83969633D01*
X145176742Y-84033399D01*
X145013315Y-84065907D01*
X144846685Y-84065907D01*
X144683258Y-84033399D01*
X144529313Y-83969633D01*
X144390766Y-83877059D01*
X144272941Y-83759234D01*
X144180367Y-83620687D01*
X144116601Y-83466742D01*
X144084093Y-83303315D01*
X144084093Y-83136685D01*
X144116601Y-82973258D01*
X144180367Y-82819313D01*
X144272941Y-82680766D01*
X144390766Y-82562941D01*
X144529313Y-82470367D01*
X144683258Y-82406601D01*
X144846685Y-82374093D01*
X145013315Y-82374093D01*
X145176742Y-82406601D01*
G37*
G36*
X94290285Y-80993060D02*
G01*
X94471397Y-81068079D01*
X94634393Y-81176990D01*
X94773010Y-81315607D01*
X94881921Y-81478603D01*
X94956940Y-81659715D01*
X94995185Y-81851983D01*
X94995185Y-82048017D01*
X94956940Y-82240285D01*
X94881921Y-82421397D01*
X94773010Y-82584393D01*
X94634393Y-82723010D01*
X94471397Y-82831921D01*
X94290285Y-82906940D01*
X94098017Y-82945185D01*
X93901983Y-82945185D01*
X93709715Y-82906940D01*
X93528603Y-82831921D01*
X93365607Y-82723010D01*
X93226990Y-82584393D01*
X93118079Y-82421397D01*
X93043060Y-82240285D01*
X93004815Y-82048017D01*
X93004815Y-81851983D01*
X93043060Y-81659715D01*
X93118079Y-81478603D01*
X93226990Y-81315607D01*
X93365607Y-81176990D01*
X93528603Y-81068079D01*
X93709715Y-80993060D01*
X93901983Y-80954815D01*
X94098017Y-80954815D01*
X94290285Y-80993060D01*
G37*
G36*
X100290285Y-80993060D02*
G01*
X100471397Y-81068079D01*
X100634393Y-81176990D01*
X100773010Y-81315607D01*
X100881921Y-81478603D01*
X100956940Y-81659715D01*
X100995185Y-81851983D01*
X100995185Y-82048017D01*
X100956940Y-82240285D01*
X100881921Y-82421397D01*
X100773010Y-82584393D01*
X100634393Y-82723010D01*
X100471397Y-82831921D01*
X100290285Y-82906940D01*
X100098017Y-82945185D01*
X99901983Y-82945185D01*
X99709715Y-82906940D01*
X99528603Y-82831921D01*
X99365607Y-82723010D01*
X99226990Y-82584393D01*
X99118079Y-82421397D01*
X99043060Y-82240285D01*
X99004815Y-82048017D01*
X99004815Y-81851983D01*
X99043060Y-81659715D01*
X99118079Y-81478603D01*
X99226990Y-81315607D01*
X99365607Y-81176990D01*
X99528603Y-81068079D01*
X99709715Y-80993060D01*
X99901983Y-80954815D01*
X100098017Y-80954815D01*
X100290285Y-80993060D01*
G37*
G36*
X106290285Y-80993060D02*
G01*
X106471397Y-81068079D01*
X106634393Y-81176990D01*
X106773010Y-81315607D01*
X106881921Y-81478603D01*
X106956940Y-81659715D01*
X106995185Y-81851983D01*
X106995185Y-82048017D01*
X106956940Y-82240285D01*
X106881921Y-82421397D01*
X106773010Y-82584393D01*
X106634393Y-82723010D01*
X106471397Y-82831921D01*
X106290285Y-82906940D01*
X106098017Y-82945185D01*
X105901983Y-82945185D01*
X105709715Y-82906940D01*
X105528603Y-82831921D01*
X105365607Y-82723010D01*
X105226990Y-82584393D01*
X105118079Y-82421397D01*
X105043060Y-82240285D01*
X105004815Y-82048017D01*
X105004815Y-81851983D01*
X105043060Y-81659715D01*
X105118079Y-81478603D01*
X105226990Y-81315607D01*
X105365607Y-81176990D01*
X105528603Y-81068079D01*
X105709715Y-80993060D01*
X105901983Y-80954815D01*
X106098017Y-80954815D01*
X106290285Y-80993060D01*
G37*
G36*
X112290285Y-80993060D02*
G01*
X112471397Y-81068079D01*
X112634393Y-81176990D01*
X112773010Y-81315607D01*
X112881921Y-81478603D01*
X112956940Y-81659715D01*
X112995185Y-81851983D01*
X112995185Y-82048017D01*
X112956940Y-82240285D01*
X112881921Y-82421397D01*
X112773010Y-82584393D01*
X112634393Y-82723010D01*
X112471397Y-82831921D01*
X112290285Y-82906940D01*
X112098017Y-82945185D01*
X111901983Y-82945185D01*
X111709715Y-82906940D01*
X111528603Y-82831921D01*
X111365607Y-82723010D01*
X111226990Y-82584393D01*
X111118079Y-82421397D01*
X111043060Y-82240285D01*
X111004815Y-82048017D01*
X111004815Y-81851983D01*
X111043060Y-81659715D01*
X111118079Y-81478603D01*
X111226990Y-81315607D01*
X111365607Y-81176990D01*
X111528603Y-81068079D01*
X111709715Y-80993060D01*
X111901983Y-80954815D01*
X112098017Y-80954815D01*
X112290285Y-80993060D01*
G37*
G36*
X15316742Y-79866601D02*
G01*
X15470687Y-79930367D01*
X15609234Y-80022941D01*
X15727059Y-80140766D01*
X15819633Y-80279313D01*
X15883399Y-80433258D01*
X15915907Y-80596685D01*
X15915907Y-80763315D01*
X15883399Y-80926742D01*
X15819633Y-81080687D01*
X15727059Y-81219234D01*
X15609234Y-81337059D01*
X15470687Y-81429633D01*
X15316742Y-81493399D01*
X15153315Y-81525907D01*
X14986685Y-81525907D01*
X14823258Y-81493399D01*
X14669313Y-81429633D01*
X14530766Y-81337059D01*
X14412941Y-81219234D01*
X14320367Y-81080687D01*
X14256601Y-80926742D01*
X14224093Y-80763315D01*
X14224093Y-80596685D01*
X14256601Y-80433258D01*
X14320367Y-80279313D01*
X14412941Y-80140766D01*
X14530766Y-80022941D01*
X14669313Y-79930367D01*
X14823258Y-79866601D01*
X14986685Y-79834093D01*
X15153315Y-79834093D01*
X15316742Y-79866601D01*
G37*
G36*
X17856742Y-79866601D02*
G01*
X18010687Y-79930367D01*
X18149234Y-80022941D01*
X18267059Y-80140766D01*
X18359633Y-80279313D01*
X18423399Y-80433258D01*
X18455907Y-80596685D01*
X18455907Y-80763315D01*
X18423399Y-80926742D01*
X18359633Y-81080687D01*
X18267059Y-81219234D01*
X18149234Y-81337059D01*
X18010687Y-81429633D01*
X17856742Y-81493399D01*
X17693315Y-81525907D01*
X17526685Y-81525907D01*
X17363258Y-81493399D01*
X17209313Y-81429633D01*
X17070766Y-81337059D01*
X16952941Y-81219234D01*
X16860367Y-81080687D01*
X16796601Y-80926742D01*
X16764093Y-80763315D01*
X16764093Y-80596685D01*
X16796601Y-80433258D01*
X16860367Y-80279313D01*
X16952941Y-80140766D01*
X17070766Y-80022941D01*
X17209313Y-79930367D01*
X17363258Y-79866601D01*
X17526685Y-79834093D01*
X17693315Y-79834093D01*
X17856742Y-79866601D01*
G37*
G36*
X20396742Y-79866601D02*
G01*
X20550687Y-79930367D01*
X20689234Y-80022941D01*
X20807059Y-80140766D01*
X20899633Y-80279313D01*
X20963399Y-80433258D01*
X20995907Y-80596685D01*
X20995907Y-80763315D01*
X20963399Y-80926742D01*
X20899633Y-81080687D01*
X20807059Y-81219234D01*
X20689234Y-81337059D01*
X20550687Y-81429633D01*
X20396742Y-81493399D01*
X20233315Y-81525907D01*
X20066685Y-81525907D01*
X19903258Y-81493399D01*
X19749313Y-81429633D01*
X19610766Y-81337059D01*
X19492941Y-81219234D01*
X19400367Y-81080687D01*
X19336601Y-80926742D01*
X19304093Y-80763315D01*
X19304093Y-80596685D01*
X19336601Y-80433258D01*
X19400367Y-80279313D01*
X19492941Y-80140766D01*
X19610766Y-80022941D01*
X19749313Y-79930367D01*
X19903258Y-79866601D01*
X20066685Y-79834093D01*
X20233315Y-79834093D01*
X20396742Y-79866601D01*
G37*
G36*
X22936742Y-79866601D02*
G01*
X23090687Y-79930367D01*
X23229234Y-80022941D01*
X23347059Y-80140766D01*
X23439633Y-80279313D01*
X23503399Y-80433258D01*
X23535907Y-80596685D01*
X23535907Y-80763315D01*
X23503399Y-80926742D01*
X23439633Y-81080687D01*
X23347059Y-81219234D01*
X23229234Y-81337059D01*
X23090687Y-81429633D01*
X22936742Y-81493399D01*
X22773315Y-81525907D01*
X22606685Y-81525907D01*
X22443258Y-81493399D01*
X22289313Y-81429633D01*
X22150766Y-81337059D01*
X22032941Y-81219234D01*
X21940367Y-81080687D01*
X21876601Y-80926742D01*
X21844093Y-80763315D01*
X21844093Y-80596685D01*
X21876601Y-80433258D01*
X21940367Y-80279313D01*
X22032941Y-80140766D01*
X22150766Y-80022941D01*
X22289313Y-79930367D01*
X22443258Y-79866601D01*
X22606685Y-79834093D01*
X22773315Y-79834093D01*
X22936742Y-79866601D01*
G37*
G36*
X25476742Y-79866601D02*
G01*
X25630687Y-79930367D01*
X25769234Y-80022941D01*
X25887059Y-80140766D01*
X25979633Y-80279313D01*
X26043399Y-80433258D01*
X26075907Y-80596685D01*
X26075907Y-80763315D01*
X26043399Y-80926742D01*
X25979633Y-81080687D01*
X25887059Y-81219234D01*
X25769234Y-81337059D01*
X25630687Y-81429633D01*
X25476742Y-81493399D01*
X25313315Y-81525907D01*
X25146685Y-81525907D01*
X24983258Y-81493399D01*
X24829313Y-81429633D01*
X24690766Y-81337059D01*
X24572941Y-81219234D01*
X24480367Y-81080687D01*
X24416601Y-80926742D01*
X24384093Y-80763315D01*
X24384093Y-80596685D01*
X24416601Y-80433258D01*
X24480367Y-80279313D01*
X24572941Y-80140766D01*
X24690766Y-80022941D01*
X24829313Y-79930367D01*
X24983258Y-79866601D01*
X25146685Y-79834093D01*
X25313315Y-79834093D01*
X25476742Y-79866601D01*
G37*
G36*
X28016742Y-79866601D02*
G01*
X28170687Y-79930367D01*
X28309234Y-80022941D01*
X28427059Y-80140766D01*
X28519633Y-80279313D01*
X28583399Y-80433258D01*
X28615907Y-80596685D01*
X28615907Y-80763315D01*
X28583399Y-80926742D01*
X28519633Y-81080687D01*
X28427059Y-81219234D01*
X28309234Y-81337059D01*
X28170687Y-81429633D01*
X28016742Y-81493399D01*
X27853315Y-81525907D01*
X27686685Y-81525907D01*
X27523258Y-81493399D01*
X27369313Y-81429633D01*
X27230766Y-81337059D01*
X27112941Y-81219234D01*
X27020367Y-81080687D01*
X26956601Y-80926742D01*
X26924093Y-80763315D01*
X26924093Y-80596685D01*
X26956601Y-80433258D01*
X27020367Y-80279313D01*
X27112941Y-80140766D01*
X27230766Y-80022941D01*
X27369313Y-79930367D01*
X27523258Y-79866601D01*
X27686685Y-79834093D01*
X27853315Y-79834093D01*
X28016742Y-79866601D01*
G37*
G36*
X30556742Y-79866601D02*
G01*
X30710687Y-79930367D01*
X30849234Y-80022941D01*
X30967059Y-80140766D01*
X31059633Y-80279313D01*
X31123399Y-80433258D01*
X31155907Y-80596685D01*
X31155907Y-80763315D01*
X31123399Y-80926742D01*
X31059633Y-81080687D01*
X30967059Y-81219234D01*
X30849234Y-81337059D01*
X30710687Y-81429633D01*
X30556742Y-81493399D01*
X30393315Y-81525907D01*
X30226685Y-81525907D01*
X30063258Y-81493399D01*
X29909313Y-81429633D01*
X29770766Y-81337059D01*
X29652941Y-81219234D01*
X29560367Y-81080687D01*
X29496601Y-80926742D01*
X29464093Y-80763315D01*
X29464093Y-80596685D01*
X29496601Y-80433258D01*
X29560367Y-80279313D01*
X29652941Y-80140766D01*
X29770766Y-80022941D01*
X29909313Y-79930367D01*
X30063258Y-79866601D01*
X30226685Y-79834093D01*
X30393315Y-79834093D01*
X30556742Y-79866601D01*
G37*
G36*
X33096742Y-79866601D02*
G01*
X33250687Y-79930367D01*
X33389234Y-80022941D01*
X33507059Y-80140766D01*
X33599633Y-80279313D01*
X33663399Y-80433258D01*
X33695907Y-80596685D01*
X33695907Y-80763315D01*
X33663399Y-80926742D01*
X33599633Y-81080687D01*
X33507059Y-81219234D01*
X33389234Y-81337059D01*
X33250687Y-81429633D01*
X33096742Y-81493399D01*
X32933315Y-81525907D01*
X32766685Y-81525907D01*
X32603258Y-81493399D01*
X32449313Y-81429633D01*
X32310766Y-81337059D01*
X32192941Y-81219234D01*
X32100367Y-81080687D01*
X32036601Y-80926742D01*
X32004093Y-80763315D01*
X32004093Y-80596685D01*
X32036601Y-80433258D01*
X32100367Y-80279313D01*
X32192941Y-80140766D01*
X32310766Y-80022941D01*
X32449313Y-79930367D01*
X32603258Y-79866601D01*
X32766685Y-79834093D01*
X32933315Y-79834093D01*
X33096742Y-79866601D01*
G37*
G36*
X35636742Y-79866601D02*
G01*
X35790687Y-79930367D01*
X35929234Y-80022941D01*
X36047059Y-80140766D01*
X36139633Y-80279313D01*
X36203399Y-80433258D01*
X36235907Y-80596685D01*
X36235907Y-80763315D01*
X36203399Y-80926742D01*
X36139633Y-81080687D01*
X36047059Y-81219234D01*
X35929234Y-81337059D01*
X35790687Y-81429633D01*
X35636742Y-81493399D01*
X35473315Y-81525907D01*
X35306685Y-81525907D01*
X35143258Y-81493399D01*
X34989313Y-81429633D01*
X34850766Y-81337059D01*
X34732941Y-81219234D01*
X34640367Y-81080687D01*
X34576601Y-80926742D01*
X34544093Y-80763315D01*
X34544093Y-80596685D01*
X34576601Y-80433258D01*
X34640367Y-80279313D01*
X34732941Y-80140766D01*
X34850766Y-80022941D01*
X34989313Y-79930367D01*
X35143258Y-79866601D01*
X35306685Y-79834093D01*
X35473315Y-79834093D01*
X35636742Y-79866601D01*
G37*
G36*
X38176742Y-79866601D02*
G01*
X38330687Y-79930367D01*
X38469234Y-80022941D01*
X38587059Y-80140766D01*
X38679633Y-80279313D01*
X38743399Y-80433258D01*
X38775907Y-80596685D01*
X38775907Y-80763315D01*
X38743399Y-80926742D01*
X38679633Y-81080687D01*
X38587059Y-81219234D01*
X38469234Y-81337059D01*
X38330687Y-81429633D01*
X38176742Y-81493399D01*
X38013315Y-81525907D01*
X37846685Y-81525907D01*
X37683258Y-81493399D01*
X37529313Y-81429633D01*
X37390766Y-81337059D01*
X37272941Y-81219234D01*
X37180367Y-81080687D01*
X37116601Y-80926742D01*
X37084093Y-80763315D01*
X37084093Y-80596685D01*
X37116601Y-80433258D01*
X37180367Y-80279313D01*
X37272941Y-80140766D01*
X37390766Y-80022941D01*
X37529313Y-79930367D01*
X37683258Y-79866601D01*
X37846685Y-79834093D01*
X38013315Y-79834093D01*
X38176742Y-79866601D01*
G37*
G36*
X122316742Y-79866601D02*
G01*
X122470687Y-79930367D01*
X122609234Y-80022941D01*
X122727059Y-80140766D01*
X122819633Y-80279313D01*
X122883399Y-80433258D01*
X122915907Y-80596685D01*
X122915907Y-80763315D01*
X122883399Y-80926742D01*
X122819633Y-81080687D01*
X122727059Y-81219234D01*
X122609234Y-81337059D01*
X122470687Y-81429633D01*
X122316742Y-81493399D01*
X122153315Y-81525907D01*
X121986685Y-81525907D01*
X121823258Y-81493399D01*
X121669313Y-81429633D01*
X121530766Y-81337059D01*
X121412941Y-81219234D01*
X121320367Y-81080687D01*
X121256601Y-80926742D01*
X121224093Y-80763315D01*
X121224093Y-80596685D01*
X121256601Y-80433258D01*
X121320367Y-80279313D01*
X121412941Y-80140766D01*
X121530766Y-80022941D01*
X121669313Y-79930367D01*
X121823258Y-79866601D01*
X121986685Y-79834093D01*
X122153315Y-79834093D01*
X122316742Y-79866601D01*
G37*
G36*
X124856742Y-79866601D02*
G01*
X125010687Y-79930367D01*
X125149234Y-80022941D01*
X125267059Y-80140766D01*
X125359633Y-80279313D01*
X125423399Y-80433258D01*
X125455907Y-80596685D01*
X125455907Y-80763315D01*
X125423399Y-80926742D01*
X125359633Y-81080687D01*
X125267059Y-81219234D01*
X125149234Y-81337059D01*
X125010687Y-81429633D01*
X124856742Y-81493399D01*
X124693315Y-81525907D01*
X124526685Y-81525907D01*
X124363258Y-81493399D01*
X124209313Y-81429633D01*
X124070766Y-81337059D01*
X123952941Y-81219234D01*
X123860367Y-81080687D01*
X123796601Y-80926742D01*
X123764093Y-80763315D01*
X123764093Y-80596685D01*
X123796601Y-80433258D01*
X123860367Y-80279313D01*
X123952941Y-80140766D01*
X124070766Y-80022941D01*
X124209313Y-79930367D01*
X124363258Y-79866601D01*
X124526685Y-79834093D01*
X124693315Y-79834093D01*
X124856742Y-79866601D01*
G37*
G36*
X127396742Y-79866601D02*
G01*
X127550687Y-79930367D01*
X127689234Y-80022941D01*
X127807059Y-80140766D01*
X127899633Y-80279313D01*
X127963399Y-80433258D01*
X127995907Y-80596685D01*
X127995907Y-80763315D01*
X127963399Y-80926742D01*
X127899633Y-81080687D01*
X127807059Y-81219234D01*
X127689234Y-81337059D01*
X127550687Y-81429633D01*
X127396742Y-81493399D01*
X127233315Y-81525907D01*
X127066685Y-81525907D01*
X126903258Y-81493399D01*
X126749313Y-81429633D01*
X126610766Y-81337059D01*
X126492941Y-81219234D01*
X126400367Y-81080687D01*
X126336601Y-80926742D01*
X126304093Y-80763315D01*
X126304093Y-80596685D01*
X126336601Y-80433258D01*
X126400367Y-80279313D01*
X126492941Y-80140766D01*
X126610766Y-80022941D01*
X126749313Y-79930367D01*
X126903258Y-79866601D01*
X127066685Y-79834093D01*
X127233315Y-79834093D01*
X127396742Y-79866601D01*
G37*
G36*
X129936742Y-79866601D02*
G01*
X130090687Y-79930367D01*
X130229234Y-80022941D01*
X130347059Y-80140766D01*
X130439633Y-80279313D01*
X130503399Y-80433258D01*
X130535907Y-80596685D01*
X130535907Y-80763315D01*
X130503399Y-80926742D01*
X130439633Y-81080687D01*
X130347059Y-81219234D01*
X130229234Y-81337059D01*
X130090687Y-81429633D01*
X129936742Y-81493399D01*
X129773315Y-81525907D01*
X129606685Y-81525907D01*
X129443258Y-81493399D01*
X129289313Y-81429633D01*
X129150766Y-81337059D01*
X129032941Y-81219234D01*
X128940367Y-81080687D01*
X128876601Y-80926742D01*
X128844093Y-80763315D01*
X128844093Y-80596685D01*
X128876601Y-80433258D01*
X128940367Y-80279313D01*
X129032941Y-80140766D01*
X129150766Y-80022941D01*
X129289313Y-79930367D01*
X129443258Y-79866601D01*
X129606685Y-79834093D01*
X129773315Y-79834093D01*
X129936742Y-79866601D01*
G37*
G36*
X132476742Y-79866601D02*
G01*
X132630687Y-79930367D01*
X132769234Y-80022941D01*
X132887059Y-80140766D01*
X132979633Y-80279313D01*
X133043399Y-80433258D01*
X133075907Y-80596685D01*
X133075907Y-80763315D01*
X133043399Y-80926742D01*
X132979633Y-81080687D01*
X132887059Y-81219234D01*
X132769234Y-81337059D01*
X132630687Y-81429633D01*
X132476742Y-81493399D01*
X132313315Y-81525907D01*
X132146685Y-81525907D01*
X131983258Y-81493399D01*
X131829313Y-81429633D01*
X131690766Y-81337059D01*
X131572941Y-81219234D01*
X131480367Y-81080687D01*
X131416601Y-80926742D01*
X131384093Y-80763315D01*
X131384093Y-80596685D01*
X131416601Y-80433258D01*
X131480367Y-80279313D01*
X131572941Y-80140766D01*
X131690766Y-80022941D01*
X131829313Y-79930367D01*
X131983258Y-79866601D01*
X132146685Y-79834093D01*
X132313315Y-79834093D01*
X132476742Y-79866601D01*
G37*
G36*
X135016742Y-79866601D02*
G01*
X135170687Y-79930367D01*
X135309234Y-80022941D01*
X135427059Y-80140766D01*
X135519633Y-80279313D01*
X135583399Y-80433258D01*
X135615907Y-80596685D01*
X135615907Y-80763315D01*
X135583399Y-80926742D01*
X135519633Y-81080687D01*
X135427059Y-81219234D01*
X135309234Y-81337059D01*
X135170687Y-81429633D01*
X135016742Y-81493399D01*
X134853315Y-81525907D01*
X134686685Y-81525907D01*
X134523258Y-81493399D01*
X134369313Y-81429633D01*
X134230766Y-81337059D01*
X134112941Y-81219234D01*
X134020367Y-81080687D01*
X133956601Y-80926742D01*
X133924093Y-80763315D01*
X133924093Y-80596685D01*
X133956601Y-80433258D01*
X134020367Y-80279313D01*
X134112941Y-80140766D01*
X134230766Y-80022941D01*
X134369313Y-79930367D01*
X134523258Y-79866601D01*
X134686685Y-79834093D01*
X134853315Y-79834093D01*
X135016742Y-79866601D01*
G37*
G36*
X137556742Y-79866601D02*
G01*
X137710687Y-79930367D01*
X137849234Y-80022941D01*
X137967059Y-80140766D01*
X138059633Y-80279313D01*
X138123399Y-80433258D01*
X138155907Y-80596685D01*
X138155907Y-80763315D01*
X138123399Y-80926742D01*
X138059633Y-81080687D01*
X137967059Y-81219234D01*
X137849234Y-81337059D01*
X137710687Y-81429633D01*
X137556742Y-81493399D01*
X137393315Y-81525907D01*
X137226685Y-81525907D01*
X137063258Y-81493399D01*
X136909313Y-81429633D01*
X136770766Y-81337059D01*
X136652941Y-81219234D01*
X136560367Y-81080687D01*
X136496601Y-80926742D01*
X136464093Y-80763315D01*
X136464093Y-80596685D01*
X136496601Y-80433258D01*
X136560367Y-80279313D01*
X136652941Y-80140766D01*
X136770766Y-80022941D01*
X136909313Y-79930367D01*
X137063258Y-79866601D01*
X137226685Y-79834093D01*
X137393315Y-79834093D01*
X137556742Y-79866601D01*
G37*
G36*
X140096742Y-79866601D02*
G01*
X140250687Y-79930367D01*
X140389234Y-80022941D01*
X140507059Y-80140766D01*
X140599633Y-80279313D01*
X140663399Y-80433258D01*
X140695907Y-80596685D01*
X140695907Y-80763315D01*
X140663399Y-80926742D01*
X140599633Y-81080687D01*
X140507059Y-81219234D01*
X140389234Y-81337059D01*
X140250687Y-81429633D01*
X140096742Y-81493399D01*
X139933315Y-81525907D01*
X139766685Y-81525907D01*
X139603258Y-81493399D01*
X139449313Y-81429633D01*
X139310766Y-81337059D01*
X139192941Y-81219234D01*
X139100367Y-81080687D01*
X139036601Y-80926742D01*
X139004093Y-80763315D01*
X139004093Y-80596685D01*
X139036601Y-80433258D01*
X139100367Y-80279313D01*
X139192941Y-80140766D01*
X139310766Y-80022941D01*
X139449313Y-79930367D01*
X139603258Y-79866601D01*
X139766685Y-79834093D01*
X139933315Y-79834093D01*
X140096742Y-79866601D01*
G37*
G36*
X142636742Y-79866601D02*
G01*
X142790687Y-79930367D01*
X142929234Y-80022941D01*
X143047059Y-80140766D01*
X143139633Y-80279313D01*
X143203399Y-80433258D01*
X143235907Y-80596685D01*
X143235907Y-80763315D01*
X143203399Y-80926742D01*
X143139633Y-81080687D01*
X143047059Y-81219234D01*
X142929234Y-81337059D01*
X142790687Y-81429633D01*
X142636742Y-81493399D01*
X142473315Y-81525907D01*
X142306685Y-81525907D01*
X142143258Y-81493399D01*
X141989313Y-81429633D01*
X141850766Y-81337059D01*
X141732941Y-81219234D01*
X141640367Y-81080687D01*
X141576601Y-80926742D01*
X141544093Y-80763315D01*
X141544093Y-80596685D01*
X141576601Y-80433258D01*
X141640367Y-80279313D01*
X141732941Y-80140766D01*
X141850766Y-80022941D01*
X141989313Y-79930367D01*
X142143258Y-79866601D01*
X142306685Y-79834093D01*
X142473315Y-79834093D01*
X142636742Y-79866601D01*
G37*
G36*
X145176742Y-79866601D02*
G01*
X145330687Y-79930367D01*
X145469234Y-80022941D01*
X145587059Y-80140766D01*
X145679633Y-80279313D01*
X145743399Y-80433258D01*
X145775907Y-80596685D01*
X145775907Y-80763315D01*
X145743399Y-80926742D01*
X145679633Y-81080687D01*
X145587059Y-81219234D01*
X145469234Y-81337059D01*
X145330687Y-81429633D01*
X145176742Y-81493399D01*
X145013315Y-81525907D01*
X144846685Y-81525907D01*
X144683258Y-81493399D01*
X144529313Y-81429633D01*
X144390766Y-81337059D01*
X144272941Y-81219234D01*
X144180367Y-81080687D01*
X144116601Y-80926742D01*
X144084093Y-80763315D01*
X144084093Y-80596685D01*
X144116601Y-80433258D01*
X144180367Y-80279313D01*
X144272941Y-80140766D01*
X144390766Y-80022941D01*
X144529313Y-79930367D01*
X144683258Y-79866601D01*
X144846685Y-79834093D01*
X145013315Y-79834093D01*
X145176742Y-79866601D01*
G37*
G36*
X15674047Y-55770805D02*
G01*
X15725408Y-55776764D01*
X15742954Y-55784511D01*
X15765671Y-55789030D01*
X15789991Y-55805280D01*
X15810793Y-55814465D01*
X15825000Y-55828672D01*
X15846777Y-55843223D01*
X15861327Y-55864999D01*
X15875534Y-55879206D01*
X15884718Y-55900006D01*
X15900970Y-55924329D01*
X15905489Y-55947048D01*
X15913235Y-55964591D01*
X15919192Y-56015940D01*
X15920000Y-56020000D01*
X15920000Y-57220000D01*
X15919192Y-57224059D01*
X15913235Y-57275408D01*
X15905489Y-57292950D01*
X15900970Y-57315671D01*
X15884716Y-57339995D01*
X15875534Y-57360793D01*
X15861329Y-57374997D01*
X15846777Y-57396777D01*
X15824997Y-57411329D01*
X15810793Y-57425534D01*
X15789995Y-57434716D01*
X15765671Y-57450970D01*
X15742950Y-57455489D01*
X15725408Y-57463235D01*
X15674061Y-57469192D01*
X15670000Y-57470000D01*
X14470000Y-57470000D01*
X14465941Y-57469192D01*
X14414591Y-57463235D01*
X14397048Y-57455489D01*
X14374329Y-57450970D01*
X14350006Y-57434718D01*
X14329206Y-57425534D01*
X14314999Y-57411327D01*
X14293223Y-57396777D01*
X14278672Y-57375000D01*
X14264465Y-57360793D01*
X14255280Y-57339991D01*
X14239030Y-57315671D01*
X14234511Y-57292954D01*
X14226764Y-57275408D01*
X14220805Y-57224049D01*
X14220000Y-57220000D01*
X14220000Y-56020000D01*
X14220804Y-56015953D01*
X14226764Y-55964591D01*
X14234511Y-55947043D01*
X14239030Y-55924329D01*
X14255278Y-55900010D01*
X14264465Y-55879206D01*
X14278674Y-55864996D01*
X14293223Y-55843223D01*
X14314996Y-55828674D01*
X14329206Y-55814465D01*
X14350010Y-55805278D01*
X14374329Y-55789030D01*
X14397043Y-55784511D01*
X14414591Y-55776764D01*
X14465952Y-55770805D01*
X14470000Y-55770000D01*
X15670000Y-55770000D01*
X15674047Y-55770805D01*
G37*
G36*
X69174047Y-55770805D02*
G01*
X69225408Y-55776764D01*
X69242954Y-55784511D01*
X69265671Y-55789030D01*
X69289991Y-55805280D01*
X69310793Y-55814465D01*
X69325000Y-55828672D01*
X69346777Y-55843223D01*
X69361327Y-55864999D01*
X69375534Y-55879206D01*
X69384718Y-55900006D01*
X69400970Y-55924329D01*
X69405489Y-55947048D01*
X69413235Y-55964591D01*
X69419192Y-56015940D01*
X69420000Y-56020000D01*
X69420000Y-57220000D01*
X69419192Y-57224059D01*
X69413235Y-57275408D01*
X69405489Y-57292950D01*
X69400970Y-57315671D01*
X69384716Y-57339995D01*
X69375534Y-57360793D01*
X69361329Y-57374997D01*
X69346777Y-57396777D01*
X69324997Y-57411329D01*
X69310793Y-57425534D01*
X69289995Y-57434716D01*
X69265671Y-57450970D01*
X69242950Y-57455489D01*
X69225408Y-57463235D01*
X69174061Y-57469192D01*
X69170000Y-57470000D01*
X67970000Y-57470000D01*
X67965941Y-57469192D01*
X67914591Y-57463235D01*
X67897048Y-57455489D01*
X67874329Y-57450970D01*
X67850006Y-57434718D01*
X67829206Y-57425534D01*
X67814999Y-57411327D01*
X67793223Y-57396777D01*
X67778672Y-57375000D01*
X67764465Y-57360793D01*
X67755280Y-57339991D01*
X67739030Y-57315671D01*
X67734511Y-57292954D01*
X67726764Y-57275408D01*
X67720805Y-57224049D01*
X67720000Y-57220000D01*
X67720000Y-56020000D01*
X67720804Y-56015953D01*
X67726764Y-55964591D01*
X67734511Y-55947043D01*
X67739030Y-55924329D01*
X67755278Y-55900010D01*
X67764465Y-55879206D01*
X67778674Y-55864996D01*
X67793223Y-55843223D01*
X67814996Y-55828674D01*
X67829206Y-55814465D01*
X67850010Y-55805278D01*
X67874329Y-55789030D01*
X67897043Y-55784511D01*
X67914591Y-55776764D01*
X67965952Y-55770805D01*
X67970000Y-55770000D01*
X69170000Y-55770000D01*
X69174047Y-55770805D01*
G37*
G36*
X122674047Y-55770805D02*
G01*
X122725408Y-55776764D01*
X122742954Y-55784511D01*
X122765671Y-55789030D01*
X122789991Y-55805280D01*
X122810793Y-55814465D01*
X122825000Y-55828672D01*
X122846777Y-55843223D01*
X122861327Y-55864999D01*
X122875534Y-55879206D01*
X122884718Y-55900006D01*
X122900970Y-55924329D01*
X122905489Y-55947048D01*
X122913235Y-55964591D01*
X122919192Y-56015940D01*
X122920000Y-56020000D01*
X122920000Y-57220000D01*
X122919192Y-57224059D01*
X122913235Y-57275408D01*
X122905489Y-57292950D01*
X122900970Y-57315671D01*
X122884716Y-57339995D01*
X122875534Y-57360793D01*
X122861329Y-57374997D01*
X122846777Y-57396777D01*
X122824997Y-57411329D01*
X122810793Y-57425534D01*
X122789995Y-57434716D01*
X122765671Y-57450970D01*
X122742950Y-57455489D01*
X122725408Y-57463235D01*
X122674061Y-57469192D01*
X122670000Y-57470000D01*
X121470000Y-57470000D01*
X121465941Y-57469192D01*
X121414591Y-57463235D01*
X121397048Y-57455489D01*
X121374329Y-57450970D01*
X121350006Y-57434718D01*
X121329206Y-57425534D01*
X121314999Y-57411327D01*
X121293223Y-57396777D01*
X121278672Y-57375000D01*
X121264465Y-57360793D01*
X121255280Y-57339991D01*
X121239030Y-57315671D01*
X121234511Y-57292954D01*
X121226764Y-57275408D01*
X121220805Y-57224049D01*
X121220000Y-57220000D01*
X121220000Y-56020000D01*
X121220804Y-56015953D01*
X121226764Y-55964591D01*
X121234511Y-55947043D01*
X121239030Y-55924329D01*
X121255278Y-55900010D01*
X121264465Y-55879206D01*
X121278674Y-55864996D01*
X121293223Y-55843223D01*
X121314996Y-55828674D01*
X121329206Y-55814465D01*
X121350010Y-55805278D01*
X121374329Y-55789030D01*
X121397043Y-55784511D01*
X121414591Y-55776764D01*
X121465952Y-55770805D01*
X121470000Y-55770000D01*
X122670000Y-55770000D01*
X122674047Y-55770805D01*
G37*
G36*
X17856742Y-55806601D02*
G01*
X18010687Y-55870367D01*
X18149234Y-55962941D01*
X18267059Y-56080766D01*
X18359633Y-56219313D01*
X18423399Y-56373258D01*
X18455907Y-56536685D01*
X18455907Y-56703315D01*
X18423399Y-56866742D01*
X18359633Y-57020687D01*
X18267059Y-57159234D01*
X18149234Y-57277059D01*
X18010687Y-57369633D01*
X17856742Y-57433399D01*
X17693315Y-57465907D01*
X17526685Y-57465907D01*
X17363258Y-57433399D01*
X17209313Y-57369633D01*
X17070766Y-57277059D01*
X16952941Y-57159234D01*
X16860367Y-57020687D01*
X16796601Y-56866742D01*
X16764093Y-56703315D01*
X16764093Y-56536685D01*
X16796601Y-56373258D01*
X16860367Y-56219313D01*
X16952941Y-56080766D01*
X17070766Y-55962941D01*
X17209313Y-55870367D01*
X17363258Y-55806601D01*
X17526685Y-55774093D01*
X17693315Y-55774093D01*
X17856742Y-55806601D01*
G37*
G36*
X20396742Y-55806601D02*
G01*
X20550687Y-55870367D01*
X20689234Y-55962941D01*
X20807059Y-56080766D01*
X20899633Y-56219313D01*
X20963399Y-56373258D01*
X20995907Y-56536685D01*
X20995907Y-56703315D01*
X20963399Y-56866742D01*
X20899633Y-57020687D01*
X20807059Y-57159234D01*
X20689234Y-57277059D01*
X20550687Y-57369633D01*
X20396742Y-57433399D01*
X20233315Y-57465907D01*
X20066685Y-57465907D01*
X19903258Y-57433399D01*
X19749313Y-57369633D01*
X19610766Y-57277059D01*
X19492941Y-57159234D01*
X19400367Y-57020687D01*
X19336601Y-56866742D01*
X19304093Y-56703315D01*
X19304093Y-56536685D01*
X19336601Y-56373258D01*
X19400367Y-56219313D01*
X19492941Y-56080766D01*
X19610766Y-55962941D01*
X19749313Y-55870367D01*
X19903258Y-55806601D01*
X20066685Y-55774093D01*
X20233315Y-55774093D01*
X20396742Y-55806601D01*
G37*
G36*
X22936742Y-55806601D02*
G01*
X23090687Y-55870367D01*
X23229234Y-55962941D01*
X23347059Y-56080766D01*
X23439633Y-56219313D01*
X23503399Y-56373258D01*
X23535907Y-56536685D01*
X23535907Y-56703315D01*
X23503399Y-56866742D01*
X23439633Y-57020687D01*
X23347059Y-57159234D01*
X23229234Y-57277059D01*
X23090687Y-57369633D01*
X22936742Y-57433399D01*
X22773315Y-57465907D01*
X22606685Y-57465907D01*
X22443258Y-57433399D01*
X22289313Y-57369633D01*
X22150766Y-57277059D01*
X22032941Y-57159234D01*
X21940367Y-57020687D01*
X21876601Y-56866742D01*
X21844093Y-56703315D01*
X21844093Y-56536685D01*
X21876601Y-56373258D01*
X21940367Y-56219313D01*
X22032941Y-56080766D01*
X22150766Y-55962941D01*
X22289313Y-55870367D01*
X22443258Y-55806601D01*
X22606685Y-55774093D01*
X22773315Y-55774093D01*
X22936742Y-55806601D01*
G37*
G36*
X25476742Y-55806601D02*
G01*
X25630687Y-55870367D01*
X25769234Y-55962941D01*
X25887059Y-56080766D01*
X25979633Y-56219313D01*
X26043399Y-56373258D01*
X26075907Y-56536685D01*
X26075907Y-56703315D01*
X26043399Y-56866742D01*
X25979633Y-57020687D01*
X25887059Y-57159234D01*
X25769234Y-57277059D01*
X25630687Y-57369633D01*
X25476742Y-57433399D01*
X25313315Y-57465907D01*
X25146685Y-57465907D01*
X24983258Y-57433399D01*
X24829313Y-57369633D01*
X24690766Y-57277059D01*
X24572941Y-57159234D01*
X24480367Y-57020687D01*
X24416601Y-56866742D01*
X24384093Y-56703315D01*
X24384093Y-56536685D01*
X24416601Y-56373258D01*
X24480367Y-56219313D01*
X24572941Y-56080766D01*
X24690766Y-55962941D01*
X24829313Y-55870367D01*
X24983258Y-55806601D01*
X25146685Y-55774093D01*
X25313315Y-55774093D01*
X25476742Y-55806601D01*
G37*
G36*
X28016742Y-55806601D02*
G01*
X28170687Y-55870367D01*
X28309234Y-55962941D01*
X28427059Y-56080766D01*
X28519633Y-56219313D01*
X28583399Y-56373258D01*
X28615907Y-56536685D01*
X28615907Y-56703315D01*
X28583399Y-56866742D01*
X28519633Y-57020687D01*
X28427059Y-57159234D01*
X28309234Y-57277059D01*
X28170687Y-57369633D01*
X28016742Y-57433399D01*
X27853315Y-57465907D01*
X27686685Y-57465907D01*
X27523258Y-57433399D01*
X27369313Y-57369633D01*
X27230766Y-57277059D01*
X27112941Y-57159234D01*
X27020367Y-57020687D01*
X26956601Y-56866742D01*
X26924093Y-56703315D01*
X26924093Y-56536685D01*
X26956601Y-56373258D01*
X27020367Y-56219313D01*
X27112941Y-56080766D01*
X27230766Y-55962941D01*
X27369313Y-55870367D01*
X27523258Y-55806601D01*
X27686685Y-55774093D01*
X27853315Y-55774093D01*
X28016742Y-55806601D01*
G37*
G36*
X30556742Y-55806601D02*
G01*
X30710687Y-55870367D01*
X30849234Y-55962941D01*
X30967059Y-56080766D01*
X31059633Y-56219313D01*
X31123399Y-56373258D01*
X31155907Y-56536685D01*
X31155907Y-56703315D01*
X31123399Y-56866742D01*
X31059633Y-57020687D01*
X30967059Y-57159234D01*
X30849234Y-57277059D01*
X30710687Y-57369633D01*
X30556742Y-57433399D01*
X30393315Y-57465907D01*
X30226685Y-57465907D01*
X30063258Y-57433399D01*
X29909313Y-57369633D01*
X29770766Y-57277059D01*
X29652941Y-57159234D01*
X29560367Y-57020687D01*
X29496601Y-56866742D01*
X29464093Y-56703315D01*
X29464093Y-56536685D01*
X29496601Y-56373258D01*
X29560367Y-56219313D01*
X29652941Y-56080766D01*
X29770766Y-55962941D01*
X29909313Y-55870367D01*
X30063258Y-55806601D01*
X30226685Y-55774093D01*
X30393315Y-55774093D01*
X30556742Y-55806601D01*
G37*
G36*
X33096742Y-55806601D02*
G01*
X33250687Y-55870367D01*
X33389234Y-55962941D01*
X33507059Y-56080766D01*
X33599633Y-56219313D01*
X33663399Y-56373258D01*
X33695907Y-56536685D01*
X33695907Y-56703315D01*
X33663399Y-56866742D01*
X33599633Y-57020687D01*
X33507059Y-57159234D01*
X33389234Y-57277059D01*
X33250687Y-57369633D01*
X33096742Y-57433399D01*
X32933315Y-57465907D01*
X32766685Y-57465907D01*
X32603258Y-57433399D01*
X32449313Y-57369633D01*
X32310766Y-57277059D01*
X32192941Y-57159234D01*
X32100367Y-57020687D01*
X32036601Y-56866742D01*
X32004093Y-56703315D01*
X32004093Y-56536685D01*
X32036601Y-56373258D01*
X32100367Y-56219313D01*
X32192941Y-56080766D01*
X32310766Y-55962941D01*
X32449313Y-55870367D01*
X32603258Y-55806601D01*
X32766685Y-55774093D01*
X32933315Y-55774093D01*
X33096742Y-55806601D01*
G37*
G36*
X35636742Y-55806601D02*
G01*
X35790687Y-55870367D01*
X35929234Y-55962941D01*
X36047059Y-56080766D01*
X36139633Y-56219313D01*
X36203399Y-56373258D01*
X36235907Y-56536685D01*
X36235907Y-56703315D01*
X36203399Y-56866742D01*
X36139633Y-57020687D01*
X36047059Y-57159234D01*
X35929234Y-57277059D01*
X35790687Y-57369633D01*
X35636742Y-57433399D01*
X35473315Y-57465907D01*
X35306685Y-57465907D01*
X35143258Y-57433399D01*
X34989313Y-57369633D01*
X34850766Y-57277059D01*
X34732941Y-57159234D01*
X34640367Y-57020687D01*
X34576601Y-56866742D01*
X34544093Y-56703315D01*
X34544093Y-56536685D01*
X34576601Y-56373258D01*
X34640367Y-56219313D01*
X34732941Y-56080766D01*
X34850766Y-55962941D01*
X34989313Y-55870367D01*
X35143258Y-55806601D01*
X35306685Y-55774093D01*
X35473315Y-55774093D01*
X35636742Y-55806601D01*
G37*
G36*
X38176742Y-55806601D02*
G01*
X38330687Y-55870367D01*
X38469234Y-55962941D01*
X38587059Y-56080766D01*
X38679633Y-56219313D01*
X38743399Y-56373258D01*
X38775907Y-56536685D01*
X38775907Y-56703315D01*
X38743399Y-56866742D01*
X38679633Y-57020687D01*
X38587059Y-57159234D01*
X38469234Y-57277059D01*
X38330687Y-57369633D01*
X38176742Y-57433399D01*
X38013315Y-57465907D01*
X37846685Y-57465907D01*
X37683258Y-57433399D01*
X37529313Y-57369633D01*
X37390766Y-57277059D01*
X37272941Y-57159234D01*
X37180367Y-57020687D01*
X37116601Y-56866742D01*
X37084093Y-56703315D01*
X37084093Y-56536685D01*
X37116601Y-56373258D01*
X37180367Y-56219313D01*
X37272941Y-56080766D01*
X37390766Y-55962941D01*
X37529313Y-55870367D01*
X37683258Y-55806601D01*
X37846685Y-55774093D01*
X38013315Y-55774093D01*
X38176742Y-55806601D01*
G37*
G36*
X71356742Y-55806601D02*
G01*
X71510687Y-55870367D01*
X71649234Y-55962941D01*
X71767059Y-56080766D01*
X71859633Y-56219313D01*
X71923399Y-56373258D01*
X71955907Y-56536685D01*
X71955907Y-56703315D01*
X71923399Y-56866742D01*
X71859633Y-57020687D01*
X71767059Y-57159234D01*
X71649234Y-57277059D01*
X71510687Y-57369633D01*
X71356742Y-57433399D01*
X71193315Y-57465907D01*
X71026685Y-57465907D01*
X70863258Y-57433399D01*
X70709313Y-57369633D01*
X70570766Y-57277059D01*
X70452941Y-57159234D01*
X70360367Y-57020687D01*
X70296601Y-56866742D01*
X70264093Y-56703315D01*
X70264093Y-56536685D01*
X70296601Y-56373258D01*
X70360367Y-56219313D01*
X70452941Y-56080766D01*
X70570766Y-55962941D01*
X70709313Y-55870367D01*
X70863258Y-55806601D01*
X71026685Y-55774093D01*
X71193315Y-55774093D01*
X71356742Y-55806601D01*
G37*
G36*
X73896742Y-55806601D02*
G01*
X74050687Y-55870367D01*
X74189234Y-55962941D01*
X74307059Y-56080766D01*
X74399633Y-56219313D01*
X74463399Y-56373258D01*
X74495907Y-56536685D01*
X74495907Y-56703315D01*
X74463399Y-56866742D01*
X74399633Y-57020687D01*
X74307059Y-57159234D01*
X74189234Y-57277059D01*
X74050687Y-57369633D01*
X73896742Y-57433399D01*
X73733315Y-57465907D01*
X73566685Y-57465907D01*
X73403258Y-57433399D01*
X73249313Y-57369633D01*
X73110766Y-57277059D01*
X72992941Y-57159234D01*
X72900367Y-57020687D01*
X72836601Y-56866742D01*
X72804093Y-56703315D01*
X72804093Y-56536685D01*
X72836601Y-56373258D01*
X72900367Y-56219313D01*
X72992941Y-56080766D01*
X73110766Y-55962941D01*
X73249313Y-55870367D01*
X73403258Y-55806601D01*
X73566685Y-55774093D01*
X73733315Y-55774093D01*
X73896742Y-55806601D01*
G37*
G36*
X76436742Y-55806601D02*
G01*
X76590687Y-55870367D01*
X76729234Y-55962941D01*
X76847059Y-56080766D01*
X76939633Y-56219313D01*
X77003399Y-56373258D01*
X77035907Y-56536685D01*
X77035907Y-56703315D01*
X77003399Y-56866742D01*
X76939633Y-57020687D01*
X76847059Y-57159234D01*
X76729234Y-57277059D01*
X76590687Y-57369633D01*
X76436742Y-57433399D01*
X76273315Y-57465907D01*
X76106685Y-57465907D01*
X75943258Y-57433399D01*
X75789313Y-57369633D01*
X75650766Y-57277059D01*
X75532941Y-57159234D01*
X75440367Y-57020687D01*
X75376601Y-56866742D01*
X75344093Y-56703315D01*
X75344093Y-56536685D01*
X75376601Y-56373258D01*
X75440367Y-56219313D01*
X75532941Y-56080766D01*
X75650766Y-55962941D01*
X75789313Y-55870367D01*
X75943258Y-55806601D01*
X76106685Y-55774093D01*
X76273315Y-55774093D01*
X76436742Y-55806601D01*
G37*
G36*
X78976742Y-55806601D02*
G01*
X79130687Y-55870367D01*
X79269234Y-55962941D01*
X79387059Y-56080766D01*
X79479633Y-56219313D01*
X79543399Y-56373258D01*
X79575907Y-56536685D01*
X79575907Y-56703315D01*
X79543399Y-56866742D01*
X79479633Y-57020687D01*
X79387059Y-57159234D01*
X79269234Y-57277059D01*
X79130687Y-57369633D01*
X78976742Y-57433399D01*
X78813315Y-57465907D01*
X78646685Y-57465907D01*
X78483258Y-57433399D01*
X78329313Y-57369633D01*
X78190766Y-57277059D01*
X78072941Y-57159234D01*
X77980367Y-57020687D01*
X77916601Y-56866742D01*
X77884093Y-56703315D01*
X77884093Y-56536685D01*
X77916601Y-56373258D01*
X77980367Y-56219313D01*
X78072941Y-56080766D01*
X78190766Y-55962941D01*
X78329313Y-55870367D01*
X78483258Y-55806601D01*
X78646685Y-55774093D01*
X78813315Y-55774093D01*
X78976742Y-55806601D01*
G37*
G36*
X81516742Y-55806601D02*
G01*
X81670687Y-55870367D01*
X81809234Y-55962941D01*
X81927059Y-56080766D01*
X82019633Y-56219313D01*
X82083399Y-56373258D01*
X82115907Y-56536685D01*
X82115907Y-56703315D01*
X82083399Y-56866742D01*
X82019633Y-57020687D01*
X81927059Y-57159234D01*
X81809234Y-57277059D01*
X81670687Y-57369633D01*
X81516742Y-57433399D01*
X81353315Y-57465907D01*
X81186685Y-57465907D01*
X81023258Y-57433399D01*
X80869313Y-57369633D01*
X80730766Y-57277059D01*
X80612941Y-57159234D01*
X80520367Y-57020687D01*
X80456601Y-56866742D01*
X80424093Y-56703315D01*
X80424093Y-56536685D01*
X80456601Y-56373258D01*
X80520367Y-56219313D01*
X80612941Y-56080766D01*
X80730766Y-55962941D01*
X80869313Y-55870367D01*
X81023258Y-55806601D01*
X81186685Y-55774093D01*
X81353315Y-55774093D01*
X81516742Y-55806601D01*
G37*
G36*
X84056742Y-55806601D02*
G01*
X84210687Y-55870367D01*
X84349234Y-55962941D01*
X84467059Y-56080766D01*
X84559633Y-56219313D01*
X84623399Y-56373258D01*
X84655907Y-56536685D01*
X84655907Y-56703315D01*
X84623399Y-56866742D01*
X84559633Y-57020687D01*
X84467059Y-57159234D01*
X84349234Y-57277059D01*
X84210687Y-57369633D01*
X84056742Y-57433399D01*
X83893315Y-57465907D01*
X83726685Y-57465907D01*
X83563258Y-57433399D01*
X83409313Y-57369633D01*
X83270766Y-57277059D01*
X83152941Y-57159234D01*
X83060367Y-57020687D01*
X82996601Y-56866742D01*
X82964093Y-56703315D01*
X82964093Y-56536685D01*
X82996601Y-56373258D01*
X83060367Y-56219313D01*
X83152941Y-56080766D01*
X83270766Y-55962941D01*
X83409313Y-55870367D01*
X83563258Y-55806601D01*
X83726685Y-55774093D01*
X83893315Y-55774093D01*
X84056742Y-55806601D01*
G37*
G36*
X86596742Y-55806601D02*
G01*
X86750687Y-55870367D01*
X86889234Y-55962941D01*
X87007059Y-56080766D01*
X87099633Y-56219313D01*
X87163399Y-56373258D01*
X87195907Y-56536685D01*
X87195907Y-56703315D01*
X87163399Y-56866742D01*
X87099633Y-57020687D01*
X87007059Y-57159234D01*
X86889234Y-57277059D01*
X86750687Y-57369633D01*
X86596742Y-57433399D01*
X86433315Y-57465907D01*
X86266685Y-57465907D01*
X86103258Y-57433399D01*
X85949313Y-57369633D01*
X85810766Y-57277059D01*
X85692941Y-57159234D01*
X85600367Y-57020687D01*
X85536601Y-56866742D01*
X85504093Y-56703315D01*
X85504093Y-56536685D01*
X85536601Y-56373258D01*
X85600367Y-56219313D01*
X85692941Y-56080766D01*
X85810766Y-55962941D01*
X85949313Y-55870367D01*
X86103258Y-55806601D01*
X86266685Y-55774093D01*
X86433315Y-55774093D01*
X86596742Y-55806601D01*
G37*
G36*
X89136742Y-55806601D02*
G01*
X89290687Y-55870367D01*
X89429234Y-55962941D01*
X89547059Y-56080766D01*
X89639633Y-56219313D01*
X89703399Y-56373258D01*
X89735907Y-56536685D01*
X89735907Y-56703315D01*
X89703399Y-56866742D01*
X89639633Y-57020687D01*
X89547059Y-57159234D01*
X89429234Y-57277059D01*
X89290687Y-57369633D01*
X89136742Y-57433399D01*
X88973315Y-57465907D01*
X88806685Y-57465907D01*
X88643258Y-57433399D01*
X88489313Y-57369633D01*
X88350766Y-57277059D01*
X88232941Y-57159234D01*
X88140367Y-57020687D01*
X88076601Y-56866742D01*
X88044093Y-56703315D01*
X88044093Y-56536685D01*
X88076601Y-56373258D01*
X88140367Y-56219313D01*
X88232941Y-56080766D01*
X88350766Y-55962941D01*
X88489313Y-55870367D01*
X88643258Y-55806601D01*
X88806685Y-55774093D01*
X88973315Y-55774093D01*
X89136742Y-55806601D01*
G37*
G36*
X91676742Y-55806601D02*
G01*
X91830687Y-55870367D01*
X91969234Y-55962941D01*
X92087059Y-56080766D01*
X92179633Y-56219313D01*
X92243399Y-56373258D01*
X92275907Y-56536685D01*
X92275907Y-56703315D01*
X92243399Y-56866742D01*
X92179633Y-57020687D01*
X92087059Y-57159234D01*
X91969234Y-57277059D01*
X91830687Y-57369633D01*
X91676742Y-57433399D01*
X91513315Y-57465907D01*
X91346685Y-57465907D01*
X91183258Y-57433399D01*
X91029313Y-57369633D01*
X90890766Y-57277059D01*
X90772941Y-57159234D01*
X90680367Y-57020687D01*
X90616601Y-56866742D01*
X90584093Y-56703315D01*
X90584093Y-56536685D01*
X90616601Y-56373258D01*
X90680367Y-56219313D01*
X90772941Y-56080766D01*
X90890766Y-55962941D01*
X91029313Y-55870367D01*
X91183258Y-55806601D01*
X91346685Y-55774093D01*
X91513315Y-55774093D01*
X91676742Y-55806601D01*
G37*
G36*
X124856742Y-55806601D02*
G01*
X125010687Y-55870367D01*
X125149234Y-55962941D01*
X125267059Y-56080766D01*
X125359633Y-56219313D01*
X125423399Y-56373258D01*
X125455907Y-56536685D01*
X125455907Y-56703315D01*
X125423399Y-56866742D01*
X125359633Y-57020687D01*
X125267059Y-57159234D01*
X125149234Y-57277059D01*
X125010687Y-57369633D01*
X124856742Y-57433399D01*
X124693315Y-57465907D01*
X124526685Y-57465907D01*
X124363258Y-57433399D01*
X124209313Y-57369633D01*
X124070766Y-57277059D01*
X123952941Y-57159234D01*
X123860367Y-57020687D01*
X123796601Y-56866742D01*
X123764093Y-56703315D01*
X123764093Y-56536685D01*
X123796601Y-56373258D01*
X123860367Y-56219313D01*
X123952941Y-56080766D01*
X124070766Y-55962941D01*
X124209313Y-55870367D01*
X124363258Y-55806601D01*
X124526685Y-55774093D01*
X124693315Y-55774093D01*
X124856742Y-55806601D01*
G37*
G36*
X127396742Y-55806601D02*
G01*
X127550687Y-55870367D01*
X127689234Y-55962941D01*
X127807059Y-56080766D01*
X127899633Y-56219313D01*
X127963399Y-56373258D01*
X127995907Y-56536685D01*
X127995907Y-56703315D01*
X127963399Y-56866742D01*
X127899633Y-57020687D01*
X127807059Y-57159234D01*
X127689234Y-57277059D01*
X127550687Y-57369633D01*
X127396742Y-57433399D01*
X127233315Y-57465907D01*
X127066685Y-57465907D01*
X126903258Y-57433399D01*
X126749313Y-57369633D01*
X126610766Y-57277059D01*
X126492941Y-57159234D01*
X126400367Y-57020687D01*
X126336601Y-56866742D01*
X126304093Y-56703315D01*
X126304093Y-56536685D01*
X126336601Y-56373258D01*
X126400367Y-56219313D01*
X126492941Y-56080766D01*
X126610766Y-55962941D01*
X126749313Y-55870367D01*
X126903258Y-55806601D01*
X127066685Y-55774093D01*
X127233315Y-55774093D01*
X127396742Y-55806601D01*
G37*
G36*
X129936742Y-55806601D02*
G01*
X130090687Y-55870367D01*
X130229234Y-55962941D01*
X130347059Y-56080766D01*
X130439633Y-56219313D01*
X130503399Y-56373258D01*
X130535907Y-56536685D01*
X130535907Y-56703315D01*
X130503399Y-56866742D01*
X130439633Y-57020687D01*
X130347059Y-57159234D01*
X130229234Y-57277059D01*
X130090687Y-57369633D01*
X129936742Y-57433399D01*
X129773315Y-57465907D01*
X129606685Y-57465907D01*
X129443258Y-57433399D01*
X129289313Y-57369633D01*
X129150766Y-57277059D01*
X129032941Y-57159234D01*
X128940367Y-57020687D01*
X128876601Y-56866742D01*
X128844093Y-56703315D01*
X128844093Y-56536685D01*
X128876601Y-56373258D01*
X128940367Y-56219313D01*
X129032941Y-56080766D01*
X129150766Y-55962941D01*
X129289313Y-55870367D01*
X129443258Y-55806601D01*
X129606685Y-55774093D01*
X129773315Y-55774093D01*
X129936742Y-55806601D01*
G37*
G36*
X132476742Y-55806601D02*
G01*
X132630687Y-55870367D01*
X132769234Y-55962941D01*
X132887059Y-56080766D01*
X132979633Y-56219313D01*
X133043399Y-56373258D01*
X133075907Y-56536685D01*
X133075907Y-56703315D01*
X133043399Y-56866742D01*
X132979633Y-57020687D01*
X132887059Y-57159234D01*
X132769234Y-57277059D01*
X132630687Y-57369633D01*
X132476742Y-57433399D01*
X132313315Y-57465907D01*
X132146685Y-57465907D01*
X131983258Y-57433399D01*
X131829313Y-57369633D01*
X131690766Y-57277059D01*
X131572941Y-57159234D01*
X131480367Y-57020687D01*
X131416601Y-56866742D01*
X131384093Y-56703315D01*
X131384093Y-56536685D01*
X131416601Y-56373258D01*
X131480367Y-56219313D01*
X131572941Y-56080766D01*
X131690766Y-55962941D01*
X131829313Y-55870367D01*
X131983258Y-55806601D01*
X132146685Y-55774093D01*
X132313315Y-55774093D01*
X132476742Y-55806601D01*
G37*
G36*
X135016742Y-55806601D02*
G01*
X135170687Y-55870367D01*
X135309234Y-55962941D01*
X135427059Y-56080766D01*
X135519633Y-56219313D01*
X135583399Y-56373258D01*
X135615907Y-56536685D01*
X135615907Y-56703315D01*
X135583399Y-56866742D01*
X135519633Y-57020687D01*
X135427059Y-57159234D01*
X135309234Y-57277059D01*
X135170687Y-57369633D01*
X135016742Y-57433399D01*
X134853315Y-57465907D01*
X134686685Y-57465907D01*
X134523258Y-57433399D01*
X134369313Y-57369633D01*
X134230766Y-57277059D01*
X134112941Y-57159234D01*
X134020367Y-57020687D01*
X133956601Y-56866742D01*
X133924093Y-56703315D01*
X133924093Y-56536685D01*
X133956601Y-56373258D01*
X134020367Y-56219313D01*
X134112941Y-56080766D01*
X134230766Y-55962941D01*
X134369313Y-55870367D01*
X134523258Y-55806601D01*
X134686685Y-55774093D01*
X134853315Y-55774093D01*
X135016742Y-55806601D01*
G37*
G36*
X137556742Y-55806601D02*
G01*
X137710687Y-55870367D01*
X137849234Y-55962941D01*
X137967059Y-56080766D01*
X138059633Y-56219313D01*
X138123399Y-56373258D01*
X138155907Y-56536685D01*
X138155907Y-56703315D01*
X138123399Y-56866742D01*
X138059633Y-57020687D01*
X137967059Y-57159234D01*
X137849234Y-57277059D01*
X137710687Y-57369633D01*
X137556742Y-57433399D01*
X137393315Y-57465907D01*
X137226685Y-57465907D01*
X137063258Y-57433399D01*
X136909313Y-57369633D01*
X136770766Y-57277059D01*
X136652941Y-57159234D01*
X136560367Y-57020687D01*
X136496601Y-56866742D01*
X136464093Y-56703315D01*
X136464093Y-56536685D01*
X136496601Y-56373258D01*
X136560367Y-56219313D01*
X136652941Y-56080766D01*
X136770766Y-55962941D01*
X136909313Y-55870367D01*
X137063258Y-55806601D01*
X137226685Y-55774093D01*
X137393315Y-55774093D01*
X137556742Y-55806601D01*
G37*
G36*
X140096742Y-55806601D02*
G01*
X140250687Y-55870367D01*
X140389234Y-55962941D01*
X140507059Y-56080766D01*
X140599633Y-56219313D01*
X140663399Y-56373258D01*
X140695907Y-56536685D01*
X140695907Y-56703315D01*
X140663399Y-56866742D01*
X140599633Y-57020687D01*
X140507059Y-57159234D01*
X140389234Y-57277059D01*
X140250687Y-57369633D01*
X140096742Y-57433399D01*
X139933315Y-57465907D01*
X139766685Y-57465907D01*
X139603258Y-57433399D01*
X139449313Y-57369633D01*
X139310766Y-57277059D01*
X139192941Y-57159234D01*
X139100367Y-57020687D01*
X139036601Y-56866742D01*
X139004093Y-56703315D01*
X139004093Y-56536685D01*
X139036601Y-56373258D01*
X139100367Y-56219313D01*
X139192941Y-56080766D01*
X139310766Y-55962941D01*
X139449313Y-55870367D01*
X139603258Y-55806601D01*
X139766685Y-55774093D01*
X139933315Y-55774093D01*
X140096742Y-55806601D01*
G37*
G36*
X142636742Y-55806601D02*
G01*
X142790687Y-55870367D01*
X142929234Y-55962941D01*
X143047059Y-56080766D01*
X143139633Y-56219313D01*
X143203399Y-56373258D01*
X143235907Y-56536685D01*
X143235907Y-56703315D01*
X143203399Y-56866742D01*
X143139633Y-57020687D01*
X143047059Y-57159234D01*
X142929234Y-57277059D01*
X142790687Y-57369633D01*
X142636742Y-57433399D01*
X142473315Y-57465907D01*
X142306685Y-57465907D01*
X142143258Y-57433399D01*
X141989313Y-57369633D01*
X141850766Y-57277059D01*
X141732941Y-57159234D01*
X141640367Y-57020687D01*
X141576601Y-56866742D01*
X141544093Y-56703315D01*
X141544093Y-56536685D01*
X141576601Y-56373258D01*
X141640367Y-56219313D01*
X141732941Y-56080766D01*
X141850766Y-55962941D01*
X141989313Y-55870367D01*
X142143258Y-55806601D01*
X142306685Y-55774093D01*
X142473315Y-55774093D01*
X142636742Y-55806601D01*
G37*
G36*
X145176742Y-55806601D02*
G01*
X145330687Y-55870367D01*
X145469234Y-55962941D01*
X145587059Y-56080766D01*
X145679633Y-56219313D01*
X145743399Y-56373258D01*
X145775907Y-56536685D01*
X145775907Y-56703315D01*
X145743399Y-56866742D01*
X145679633Y-57020687D01*
X145587059Y-57159234D01*
X145469234Y-57277059D01*
X145330687Y-57369633D01*
X145176742Y-57433399D01*
X145013315Y-57465907D01*
X144846685Y-57465907D01*
X144683258Y-57433399D01*
X144529313Y-57369633D01*
X144390766Y-57277059D01*
X144272941Y-57159234D01*
X144180367Y-57020687D01*
X144116601Y-56866742D01*
X144084093Y-56703315D01*
X144084093Y-56536685D01*
X144116601Y-56373258D01*
X144180367Y-56219313D01*
X144272941Y-56080766D01*
X144390766Y-55962941D01*
X144529313Y-55870367D01*
X144683258Y-55806601D01*
X144846685Y-55774093D01*
X145013315Y-55774093D01*
X145176742Y-55806601D01*
G37*
G36*
X15316742Y-53266601D02*
G01*
X15470687Y-53330367D01*
X15609234Y-53422941D01*
X15727059Y-53540766D01*
X15819633Y-53679313D01*
X15883399Y-53833258D01*
X15915907Y-53996685D01*
X15915907Y-54163315D01*
X15883399Y-54326742D01*
X15819633Y-54480687D01*
X15727059Y-54619234D01*
X15609234Y-54737059D01*
X15470687Y-54829633D01*
X15316742Y-54893399D01*
X15153315Y-54925907D01*
X14986685Y-54925907D01*
X14823258Y-54893399D01*
X14669313Y-54829633D01*
X14530766Y-54737059D01*
X14412941Y-54619234D01*
X14320367Y-54480687D01*
X14256601Y-54326742D01*
X14224093Y-54163315D01*
X14224093Y-53996685D01*
X14256601Y-53833258D01*
X14320367Y-53679313D01*
X14412941Y-53540766D01*
X14530766Y-53422941D01*
X14669313Y-53330367D01*
X14823258Y-53266601D01*
X14986685Y-53234093D01*
X15153315Y-53234093D01*
X15316742Y-53266601D01*
G37*
G36*
X17856742Y-53266601D02*
G01*
X18010687Y-53330367D01*
X18149234Y-53422941D01*
X18267059Y-53540766D01*
X18359633Y-53679313D01*
X18423399Y-53833258D01*
X18455907Y-53996685D01*
X18455907Y-54163315D01*
X18423399Y-54326742D01*
X18359633Y-54480687D01*
X18267059Y-54619234D01*
X18149234Y-54737059D01*
X18010687Y-54829633D01*
X17856742Y-54893399D01*
X17693315Y-54925907D01*
X17526685Y-54925907D01*
X17363258Y-54893399D01*
X17209313Y-54829633D01*
X17070766Y-54737059D01*
X16952941Y-54619234D01*
X16860367Y-54480687D01*
X16796601Y-54326742D01*
X16764093Y-54163315D01*
X16764093Y-53996685D01*
X16796601Y-53833258D01*
X16860367Y-53679313D01*
X16952941Y-53540766D01*
X17070766Y-53422941D01*
X17209313Y-53330367D01*
X17363258Y-53266601D01*
X17526685Y-53234093D01*
X17693315Y-53234093D01*
X17856742Y-53266601D01*
G37*
G36*
X20396742Y-53266601D02*
G01*
X20550687Y-53330367D01*
X20689234Y-53422941D01*
X20807059Y-53540766D01*
X20899633Y-53679313D01*
X20963399Y-53833258D01*
X20995907Y-53996685D01*
X20995907Y-54163315D01*
X20963399Y-54326742D01*
X20899633Y-54480687D01*
X20807059Y-54619234D01*
X20689234Y-54737059D01*
X20550687Y-54829633D01*
X20396742Y-54893399D01*
X20233315Y-54925907D01*
X20066685Y-54925907D01*
X19903258Y-54893399D01*
X19749313Y-54829633D01*
X19610766Y-54737059D01*
X19492941Y-54619234D01*
X19400367Y-54480687D01*
X19336601Y-54326742D01*
X19304093Y-54163315D01*
X19304093Y-53996685D01*
X19336601Y-53833258D01*
X19400367Y-53679313D01*
X19492941Y-53540766D01*
X19610766Y-53422941D01*
X19749313Y-53330367D01*
X19903258Y-53266601D01*
X20066685Y-53234093D01*
X20233315Y-53234093D01*
X20396742Y-53266601D01*
G37*
G36*
X22936742Y-53266601D02*
G01*
X23090687Y-53330367D01*
X23229234Y-53422941D01*
X23347059Y-53540766D01*
X23439633Y-53679313D01*
X23503399Y-53833258D01*
X23535907Y-53996685D01*
X23535907Y-54163315D01*
X23503399Y-54326742D01*
X23439633Y-54480687D01*
X23347059Y-54619234D01*
X23229234Y-54737059D01*
X23090687Y-54829633D01*
X22936742Y-54893399D01*
X22773315Y-54925907D01*
X22606685Y-54925907D01*
X22443258Y-54893399D01*
X22289313Y-54829633D01*
X22150766Y-54737059D01*
X22032941Y-54619234D01*
X21940367Y-54480687D01*
X21876601Y-54326742D01*
X21844093Y-54163315D01*
X21844093Y-53996685D01*
X21876601Y-53833258D01*
X21940367Y-53679313D01*
X22032941Y-53540766D01*
X22150766Y-53422941D01*
X22289313Y-53330367D01*
X22443258Y-53266601D01*
X22606685Y-53234093D01*
X22773315Y-53234093D01*
X22936742Y-53266601D01*
G37*
G36*
X25476742Y-53266601D02*
G01*
X25630687Y-53330367D01*
X25769234Y-53422941D01*
X25887059Y-53540766D01*
X25979633Y-53679313D01*
X26043399Y-53833258D01*
X26075907Y-53996685D01*
X26075907Y-54163315D01*
X26043399Y-54326742D01*
X25979633Y-54480687D01*
X25887059Y-54619234D01*
X25769234Y-54737059D01*
X25630687Y-54829633D01*
X25476742Y-54893399D01*
X25313315Y-54925907D01*
X25146685Y-54925907D01*
X24983258Y-54893399D01*
X24829313Y-54829633D01*
X24690766Y-54737059D01*
X24572941Y-54619234D01*
X24480367Y-54480687D01*
X24416601Y-54326742D01*
X24384093Y-54163315D01*
X24384093Y-53996685D01*
X24416601Y-53833258D01*
X24480367Y-53679313D01*
X24572941Y-53540766D01*
X24690766Y-53422941D01*
X24829313Y-53330367D01*
X24983258Y-53266601D01*
X25146685Y-53234093D01*
X25313315Y-53234093D01*
X25476742Y-53266601D01*
G37*
G36*
X28016742Y-53266601D02*
G01*
X28170687Y-53330367D01*
X28309234Y-53422941D01*
X28427059Y-53540766D01*
X28519633Y-53679313D01*
X28583399Y-53833258D01*
X28615907Y-53996685D01*
X28615907Y-54163315D01*
X28583399Y-54326742D01*
X28519633Y-54480687D01*
X28427059Y-54619234D01*
X28309234Y-54737059D01*
X28170687Y-54829633D01*
X28016742Y-54893399D01*
X27853315Y-54925907D01*
X27686685Y-54925907D01*
X27523258Y-54893399D01*
X27369313Y-54829633D01*
X27230766Y-54737059D01*
X27112941Y-54619234D01*
X27020367Y-54480687D01*
X26956601Y-54326742D01*
X26924093Y-54163315D01*
X26924093Y-53996685D01*
X26956601Y-53833258D01*
X27020367Y-53679313D01*
X27112941Y-53540766D01*
X27230766Y-53422941D01*
X27369313Y-53330367D01*
X27523258Y-53266601D01*
X27686685Y-53234093D01*
X27853315Y-53234093D01*
X28016742Y-53266601D01*
G37*
G36*
X30556742Y-53266601D02*
G01*
X30710687Y-53330367D01*
X30849234Y-53422941D01*
X30967059Y-53540766D01*
X31059633Y-53679313D01*
X31123399Y-53833258D01*
X31155907Y-53996685D01*
X31155907Y-54163315D01*
X31123399Y-54326742D01*
X31059633Y-54480687D01*
X30967059Y-54619234D01*
X30849234Y-54737059D01*
X30710687Y-54829633D01*
X30556742Y-54893399D01*
X30393315Y-54925907D01*
X30226685Y-54925907D01*
X30063258Y-54893399D01*
X29909313Y-54829633D01*
X29770766Y-54737059D01*
X29652941Y-54619234D01*
X29560367Y-54480687D01*
X29496601Y-54326742D01*
X29464093Y-54163315D01*
X29464093Y-53996685D01*
X29496601Y-53833258D01*
X29560367Y-53679313D01*
X29652941Y-53540766D01*
X29770766Y-53422941D01*
X29909313Y-53330367D01*
X30063258Y-53266601D01*
X30226685Y-53234093D01*
X30393315Y-53234093D01*
X30556742Y-53266601D01*
G37*
G36*
X33096742Y-53266601D02*
G01*
X33250687Y-53330367D01*
X33389234Y-53422941D01*
X33507059Y-53540766D01*
X33599633Y-53679313D01*
X33663399Y-53833258D01*
X33695907Y-53996685D01*
X33695907Y-54163315D01*
X33663399Y-54326742D01*
X33599633Y-54480687D01*
X33507059Y-54619234D01*
X33389234Y-54737059D01*
X33250687Y-54829633D01*
X33096742Y-54893399D01*
X32933315Y-54925907D01*
X32766685Y-54925907D01*
X32603258Y-54893399D01*
X32449313Y-54829633D01*
X32310766Y-54737059D01*
X32192941Y-54619234D01*
X32100367Y-54480687D01*
X32036601Y-54326742D01*
X32004093Y-54163315D01*
X32004093Y-53996685D01*
X32036601Y-53833258D01*
X32100367Y-53679313D01*
X32192941Y-53540766D01*
X32310766Y-53422941D01*
X32449313Y-53330367D01*
X32603258Y-53266601D01*
X32766685Y-53234093D01*
X32933315Y-53234093D01*
X33096742Y-53266601D01*
G37*
G36*
X35636742Y-53266601D02*
G01*
X35790687Y-53330367D01*
X35929234Y-53422941D01*
X36047059Y-53540766D01*
X36139633Y-53679313D01*
X36203399Y-53833258D01*
X36235907Y-53996685D01*
X36235907Y-54163315D01*
X36203399Y-54326742D01*
X36139633Y-54480687D01*
X36047059Y-54619234D01*
X35929234Y-54737059D01*
X35790687Y-54829633D01*
X35636742Y-54893399D01*
X35473315Y-54925907D01*
X35306685Y-54925907D01*
X35143258Y-54893399D01*
X34989313Y-54829633D01*
X34850766Y-54737059D01*
X34732941Y-54619234D01*
X34640367Y-54480687D01*
X34576601Y-54326742D01*
X34544093Y-54163315D01*
X34544093Y-53996685D01*
X34576601Y-53833258D01*
X34640367Y-53679313D01*
X34732941Y-53540766D01*
X34850766Y-53422941D01*
X34989313Y-53330367D01*
X35143258Y-53266601D01*
X35306685Y-53234093D01*
X35473315Y-53234093D01*
X35636742Y-53266601D01*
G37*
G36*
X38176742Y-53266601D02*
G01*
X38330687Y-53330367D01*
X38469234Y-53422941D01*
X38587059Y-53540766D01*
X38679633Y-53679313D01*
X38743399Y-53833258D01*
X38775907Y-53996685D01*
X38775907Y-54163315D01*
X38743399Y-54326742D01*
X38679633Y-54480687D01*
X38587059Y-54619234D01*
X38469234Y-54737059D01*
X38330687Y-54829633D01*
X38176742Y-54893399D01*
X38013315Y-54925907D01*
X37846685Y-54925907D01*
X37683258Y-54893399D01*
X37529313Y-54829633D01*
X37390766Y-54737059D01*
X37272941Y-54619234D01*
X37180367Y-54480687D01*
X37116601Y-54326742D01*
X37084093Y-54163315D01*
X37084093Y-53996685D01*
X37116601Y-53833258D01*
X37180367Y-53679313D01*
X37272941Y-53540766D01*
X37390766Y-53422941D01*
X37529313Y-53330367D01*
X37683258Y-53266601D01*
X37846685Y-53234093D01*
X38013315Y-53234093D01*
X38176742Y-53266601D01*
G37*
G36*
X68816742Y-53266601D02*
G01*
X68970687Y-53330367D01*
X69109234Y-53422941D01*
X69227059Y-53540766D01*
X69319633Y-53679313D01*
X69383399Y-53833258D01*
X69415907Y-53996685D01*
X69415907Y-54163315D01*
X69383399Y-54326742D01*
X69319633Y-54480687D01*
X69227059Y-54619234D01*
X69109234Y-54737059D01*
X68970687Y-54829633D01*
X68816742Y-54893399D01*
X68653315Y-54925907D01*
X68486685Y-54925907D01*
X68323258Y-54893399D01*
X68169313Y-54829633D01*
X68030766Y-54737059D01*
X67912941Y-54619234D01*
X67820367Y-54480687D01*
X67756601Y-54326742D01*
X67724093Y-54163315D01*
X67724093Y-53996685D01*
X67756601Y-53833258D01*
X67820367Y-53679313D01*
X67912941Y-53540766D01*
X68030766Y-53422941D01*
X68169313Y-53330367D01*
X68323258Y-53266601D01*
X68486685Y-53234093D01*
X68653315Y-53234093D01*
X68816742Y-53266601D01*
G37*
G36*
X71356742Y-53266601D02*
G01*
X71510687Y-53330367D01*
X71649234Y-53422941D01*
X71767059Y-53540766D01*
X71859633Y-53679313D01*
X71923399Y-53833258D01*
X71955907Y-53996685D01*
X71955907Y-54163315D01*
X71923399Y-54326742D01*
X71859633Y-54480687D01*
X71767059Y-54619234D01*
X71649234Y-54737059D01*
X71510687Y-54829633D01*
X71356742Y-54893399D01*
X71193315Y-54925907D01*
X71026685Y-54925907D01*
X70863258Y-54893399D01*
X70709313Y-54829633D01*
X70570766Y-54737059D01*
X70452941Y-54619234D01*
X70360367Y-54480687D01*
X70296601Y-54326742D01*
X70264093Y-54163315D01*
X70264093Y-53996685D01*
X70296601Y-53833258D01*
X70360367Y-53679313D01*
X70452941Y-53540766D01*
X70570766Y-53422941D01*
X70709313Y-53330367D01*
X70863258Y-53266601D01*
X71026685Y-53234093D01*
X71193315Y-53234093D01*
X71356742Y-53266601D01*
G37*
G36*
X73896742Y-53266601D02*
G01*
X74050687Y-53330367D01*
X74189234Y-53422941D01*
X74307059Y-53540766D01*
X74399633Y-53679313D01*
X74463399Y-53833258D01*
X74495907Y-53996685D01*
X74495907Y-54163315D01*
X74463399Y-54326742D01*
X74399633Y-54480687D01*
X74307059Y-54619234D01*
X74189234Y-54737059D01*
X74050687Y-54829633D01*
X73896742Y-54893399D01*
X73733315Y-54925907D01*
X73566685Y-54925907D01*
X73403258Y-54893399D01*
X73249313Y-54829633D01*
X73110766Y-54737059D01*
X72992941Y-54619234D01*
X72900367Y-54480687D01*
X72836601Y-54326742D01*
X72804093Y-54163315D01*
X72804093Y-53996685D01*
X72836601Y-53833258D01*
X72900367Y-53679313D01*
X72992941Y-53540766D01*
X73110766Y-53422941D01*
X73249313Y-53330367D01*
X73403258Y-53266601D01*
X73566685Y-53234093D01*
X73733315Y-53234093D01*
X73896742Y-53266601D01*
G37*
G36*
X76436742Y-53266601D02*
G01*
X76590687Y-53330367D01*
X76729234Y-53422941D01*
X76847059Y-53540766D01*
X76939633Y-53679313D01*
X77003399Y-53833258D01*
X77035907Y-53996685D01*
X77035907Y-54163315D01*
X77003399Y-54326742D01*
X76939633Y-54480687D01*
X76847059Y-54619234D01*
X76729234Y-54737059D01*
X76590687Y-54829633D01*
X76436742Y-54893399D01*
X76273315Y-54925907D01*
X76106685Y-54925907D01*
X75943258Y-54893399D01*
X75789313Y-54829633D01*
X75650766Y-54737059D01*
X75532941Y-54619234D01*
X75440367Y-54480687D01*
X75376601Y-54326742D01*
X75344093Y-54163315D01*
X75344093Y-53996685D01*
X75376601Y-53833258D01*
X75440367Y-53679313D01*
X75532941Y-53540766D01*
X75650766Y-53422941D01*
X75789313Y-53330367D01*
X75943258Y-53266601D01*
X76106685Y-53234093D01*
X76273315Y-53234093D01*
X76436742Y-53266601D01*
G37*
G36*
X78976742Y-53266601D02*
G01*
X79130687Y-53330367D01*
X79269234Y-53422941D01*
X79387059Y-53540766D01*
X79479633Y-53679313D01*
X79543399Y-53833258D01*
X79575907Y-53996685D01*
X79575907Y-54163315D01*
X79543399Y-54326742D01*
X79479633Y-54480687D01*
X79387059Y-54619234D01*
X79269234Y-54737059D01*
X79130687Y-54829633D01*
X78976742Y-54893399D01*
X78813315Y-54925907D01*
X78646685Y-54925907D01*
X78483258Y-54893399D01*
X78329313Y-54829633D01*
X78190766Y-54737059D01*
X78072941Y-54619234D01*
X77980367Y-54480687D01*
X77916601Y-54326742D01*
X77884093Y-54163315D01*
X77884093Y-53996685D01*
X77916601Y-53833258D01*
X77980367Y-53679313D01*
X78072941Y-53540766D01*
X78190766Y-53422941D01*
X78329313Y-53330367D01*
X78483258Y-53266601D01*
X78646685Y-53234093D01*
X78813315Y-53234093D01*
X78976742Y-53266601D01*
G37*
G36*
X81516742Y-53266601D02*
G01*
X81670687Y-53330367D01*
X81809234Y-53422941D01*
X81927059Y-53540766D01*
X82019633Y-53679313D01*
X82083399Y-53833258D01*
X82115907Y-53996685D01*
X82115907Y-54163315D01*
X82083399Y-54326742D01*
X82019633Y-54480687D01*
X81927059Y-54619234D01*
X81809234Y-54737059D01*
X81670687Y-54829633D01*
X81516742Y-54893399D01*
X81353315Y-54925907D01*
X81186685Y-54925907D01*
X81023258Y-54893399D01*
X80869313Y-54829633D01*
X80730766Y-54737059D01*
X80612941Y-54619234D01*
X80520367Y-54480687D01*
X80456601Y-54326742D01*
X80424093Y-54163315D01*
X80424093Y-53996685D01*
X80456601Y-53833258D01*
X80520367Y-53679313D01*
X80612941Y-53540766D01*
X80730766Y-53422941D01*
X80869313Y-53330367D01*
X81023258Y-53266601D01*
X81186685Y-53234093D01*
X81353315Y-53234093D01*
X81516742Y-53266601D01*
G37*
G36*
X84056742Y-53266601D02*
G01*
X84210687Y-53330367D01*
X84349234Y-53422941D01*
X84467059Y-53540766D01*
X84559633Y-53679313D01*
X84623399Y-53833258D01*
X84655907Y-53996685D01*
X84655907Y-54163315D01*
X84623399Y-54326742D01*
X84559633Y-54480687D01*
X84467059Y-54619234D01*
X84349234Y-54737059D01*
X84210687Y-54829633D01*
X84056742Y-54893399D01*
X83893315Y-54925907D01*
X83726685Y-54925907D01*
X83563258Y-54893399D01*
X83409313Y-54829633D01*
X83270766Y-54737059D01*
X83152941Y-54619234D01*
X83060367Y-54480687D01*
X82996601Y-54326742D01*
X82964093Y-54163315D01*
X82964093Y-53996685D01*
X82996601Y-53833258D01*
X83060367Y-53679313D01*
X83152941Y-53540766D01*
X83270766Y-53422941D01*
X83409313Y-53330367D01*
X83563258Y-53266601D01*
X83726685Y-53234093D01*
X83893315Y-53234093D01*
X84056742Y-53266601D01*
G37*
G36*
X86596742Y-53266601D02*
G01*
X86750687Y-53330367D01*
X86889234Y-53422941D01*
X87007059Y-53540766D01*
X87099633Y-53679313D01*
X87163399Y-53833258D01*
X87195907Y-53996685D01*
X87195907Y-54163315D01*
X87163399Y-54326742D01*
X87099633Y-54480687D01*
X87007059Y-54619234D01*
X86889234Y-54737059D01*
X86750687Y-54829633D01*
X86596742Y-54893399D01*
X86433315Y-54925907D01*
X86266685Y-54925907D01*
X86103258Y-54893399D01*
X85949313Y-54829633D01*
X85810766Y-54737059D01*
X85692941Y-54619234D01*
X85600367Y-54480687D01*
X85536601Y-54326742D01*
X85504093Y-54163315D01*
X85504093Y-53996685D01*
X85536601Y-53833258D01*
X85600367Y-53679313D01*
X85692941Y-53540766D01*
X85810766Y-53422941D01*
X85949313Y-53330367D01*
X86103258Y-53266601D01*
X86266685Y-53234093D01*
X86433315Y-53234093D01*
X86596742Y-53266601D01*
G37*
G36*
X89136742Y-53266601D02*
G01*
X89290687Y-53330367D01*
X89429234Y-53422941D01*
X89547059Y-53540766D01*
X89639633Y-53679313D01*
X89703399Y-53833258D01*
X89735907Y-53996685D01*
X89735907Y-54163315D01*
X89703399Y-54326742D01*
X89639633Y-54480687D01*
X89547059Y-54619234D01*
X89429234Y-54737059D01*
X89290687Y-54829633D01*
X89136742Y-54893399D01*
X88973315Y-54925907D01*
X88806685Y-54925907D01*
X88643258Y-54893399D01*
X88489313Y-54829633D01*
X88350766Y-54737059D01*
X88232941Y-54619234D01*
X88140367Y-54480687D01*
X88076601Y-54326742D01*
X88044093Y-54163315D01*
X88044093Y-53996685D01*
X88076601Y-53833258D01*
X88140367Y-53679313D01*
X88232941Y-53540766D01*
X88350766Y-53422941D01*
X88489313Y-53330367D01*
X88643258Y-53266601D01*
X88806685Y-53234093D01*
X88973315Y-53234093D01*
X89136742Y-53266601D01*
G37*
G36*
X91676742Y-53266601D02*
G01*
X91830687Y-53330367D01*
X91969234Y-53422941D01*
X92087059Y-53540766D01*
X92179633Y-53679313D01*
X92243399Y-53833258D01*
X92275907Y-53996685D01*
X92275907Y-54163315D01*
X92243399Y-54326742D01*
X92179633Y-54480687D01*
X92087059Y-54619234D01*
X91969234Y-54737059D01*
X91830687Y-54829633D01*
X91676742Y-54893399D01*
X91513315Y-54925907D01*
X91346685Y-54925907D01*
X91183258Y-54893399D01*
X91029313Y-54829633D01*
X90890766Y-54737059D01*
X90772941Y-54619234D01*
X90680367Y-54480687D01*
X90616601Y-54326742D01*
X90584093Y-54163315D01*
X90584093Y-53996685D01*
X90616601Y-53833258D01*
X90680367Y-53679313D01*
X90772941Y-53540766D01*
X90890766Y-53422941D01*
X91029313Y-53330367D01*
X91183258Y-53266601D01*
X91346685Y-53234093D01*
X91513315Y-53234093D01*
X91676742Y-53266601D01*
G37*
G36*
X122316742Y-53266601D02*
G01*
X122470687Y-53330367D01*
X122609234Y-53422941D01*
X122727059Y-53540766D01*
X122819633Y-53679313D01*
X122883399Y-53833258D01*
X122915907Y-53996685D01*
X122915907Y-54163315D01*
X122883399Y-54326742D01*
X122819633Y-54480687D01*
X122727059Y-54619234D01*
X122609234Y-54737059D01*
X122470687Y-54829633D01*
X122316742Y-54893399D01*
X122153315Y-54925907D01*
X121986685Y-54925907D01*
X121823258Y-54893399D01*
X121669313Y-54829633D01*
X121530766Y-54737059D01*
X121412941Y-54619234D01*
X121320367Y-54480687D01*
X121256601Y-54326742D01*
X121224093Y-54163315D01*
X121224093Y-53996685D01*
X121256601Y-53833258D01*
X121320367Y-53679313D01*
X121412941Y-53540766D01*
X121530766Y-53422941D01*
X121669313Y-53330367D01*
X121823258Y-53266601D01*
X121986685Y-53234093D01*
X122153315Y-53234093D01*
X122316742Y-53266601D01*
G37*
G36*
X124856742Y-53266601D02*
G01*
X125010687Y-53330367D01*
X125149234Y-53422941D01*
X125267059Y-53540766D01*
X125359633Y-53679313D01*
X125423399Y-53833258D01*
X125455907Y-53996685D01*
X125455907Y-54163315D01*
X125423399Y-54326742D01*
X125359633Y-54480687D01*
X125267059Y-54619234D01*
X125149234Y-54737059D01*
X125010687Y-54829633D01*
X124856742Y-54893399D01*
X124693315Y-54925907D01*
X124526685Y-54925907D01*
X124363258Y-54893399D01*
X124209313Y-54829633D01*
X124070766Y-54737059D01*
X123952941Y-54619234D01*
X123860367Y-54480687D01*
X123796601Y-54326742D01*
X123764093Y-54163315D01*
X123764093Y-53996685D01*
X123796601Y-53833258D01*
X123860367Y-53679313D01*
X123952941Y-53540766D01*
X124070766Y-53422941D01*
X124209313Y-53330367D01*
X124363258Y-53266601D01*
X124526685Y-53234093D01*
X124693315Y-53234093D01*
X124856742Y-53266601D01*
G37*
G36*
X127396742Y-53266601D02*
G01*
X127550687Y-53330367D01*
X127689234Y-53422941D01*
X127807059Y-53540766D01*
X127899633Y-53679313D01*
X127963399Y-53833258D01*
X127995907Y-53996685D01*
X127995907Y-54163315D01*
X127963399Y-54326742D01*
X127899633Y-54480687D01*
X127807059Y-54619234D01*
X127689234Y-54737059D01*
X127550687Y-54829633D01*
X127396742Y-54893399D01*
X127233315Y-54925907D01*
X127066685Y-54925907D01*
X126903258Y-54893399D01*
X126749313Y-54829633D01*
X126610766Y-54737059D01*
X126492941Y-54619234D01*
X126400367Y-54480687D01*
X126336601Y-54326742D01*
X126304093Y-54163315D01*
X126304093Y-53996685D01*
X126336601Y-53833258D01*
X126400367Y-53679313D01*
X126492941Y-53540766D01*
X126610766Y-53422941D01*
X126749313Y-53330367D01*
X126903258Y-53266601D01*
X127066685Y-53234093D01*
X127233315Y-53234093D01*
X127396742Y-53266601D01*
G37*
G36*
X129936742Y-53266601D02*
G01*
X130090687Y-53330367D01*
X130229234Y-53422941D01*
X130347059Y-53540766D01*
X130439633Y-53679313D01*
X130503399Y-53833258D01*
X130535907Y-53996685D01*
X130535907Y-54163315D01*
X130503399Y-54326742D01*
X130439633Y-54480687D01*
X130347059Y-54619234D01*
X130229234Y-54737059D01*
X130090687Y-54829633D01*
X129936742Y-54893399D01*
X129773315Y-54925907D01*
X129606685Y-54925907D01*
X129443258Y-54893399D01*
X129289313Y-54829633D01*
X129150766Y-54737059D01*
X129032941Y-54619234D01*
X128940367Y-54480687D01*
X128876601Y-54326742D01*
X128844093Y-54163315D01*
X128844093Y-53996685D01*
X128876601Y-53833258D01*
X128940367Y-53679313D01*
X129032941Y-53540766D01*
X129150766Y-53422941D01*
X129289313Y-53330367D01*
X129443258Y-53266601D01*
X129606685Y-53234093D01*
X129773315Y-53234093D01*
X129936742Y-53266601D01*
G37*
G36*
X132476742Y-53266601D02*
G01*
X132630687Y-53330367D01*
X132769234Y-53422941D01*
X132887059Y-53540766D01*
X132979633Y-53679313D01*
X133043399Y-53833258D01*
X133075907Y-53996685D01*
X133075907Y-54163315D01*
X133043399Y-54326742D01*
X132979633Y-54480687D01*
X132887059Y-54619234D01*
X132769234Y-54737059D01*
X132630687Y-54829633D01*
X132476742Y-54893399D01*
X132313315Y-54925907D01*
X132146685Y-54925907D01*
X131983258Y-54893399D01*
X131829313Y-54829633D01*
X131690766Y-54737059D01*
X131572941Y-54619234D01*
X131480367Y-54480687D01*
X131416601Y-54326742D01*
X131384093Y-54163315D01*
X131384093Y-53996685D01*
X131416601Y-53833258D01*
X131480367Y-53679313D01*
X131572941Y-53540766D01*
X131690766Y-53422941D01*
X131829313Y-53330367D01*
X131983258Y-53266601D01*
X132146685Y-53234093D01*
X132313315Y-53234093D01*
X132476742Y-53266601D01*
G37*
G36*
X135016742Y-53266601D02*
G01*
X135170687Y-53330367D01*
X135309234Y-53422941D01*
X135427059Y-53540766D01*
X135519633Y-53679313D01*
X135583399Y-53833258D01*
X135615907Y-53996685D01*
X135615907Y-54163315D01*
X135583399Y-54326742D01*
X135519633Y-54480687D01*
X135427059Y-54619234D01*
X135309234Y-54737059D01*
X135170687Y-54829633D01*
X135016742Y-54893399D01*
X134853315Y-54925907D01*
X134686685Y-54925907D01*
X134523258Y-54893399D01*
X134369313Y-54829633D01*
X134230766Y-54737059D01*
X134112941Y-54619234D01*
X134020367Y-54480687D01*
X133956601Y-54326742D01*
X133924093Y-54163315D01*
X133924093Y-53996685D01*
X133956601Y-53833258D01*
X134020367Y-53679313D01*
X134112941Y-53540766D01*
X134230766Y-53422941D01*
X134369313Y-53330367D01*
X134523258Y-53266601D01*
X134686685Y-53234093D01*
X134853315Y-53234093D01*
X135016742Y-53266601D01*
G37*
G36*
X137556742Y-53266601D02*
G01*
X137710687Y-53330367D01*
X137849234Y-53422941D01*
X137967059Y-53540766D01*
X138059633Y-53679313D01*
X138123399Y-53833258D01*
X138155907Y-53996685D01*
X138155907Y-54163315D01*
X138123399Y-54326742D01*
X138059633Y-54480687D01*
X137967059Y-54619234D01*
X137849234Y-54737059D01*
X137710687Y-54829633D01*
X137556742Y-54893399D01*
X137393315Y-54925907D01*
X137226685Y-54925907D01*
X137063258Y-54893399D01*
X136909313Y-54829633D01*
X136770766Y-54737059D01*
X136652941Y-54619234D01*
X136560367Y-54480687D01*
X136496601Y-54326742D01*
X136464093Y-54163315D01*
X136464093Y-53996685D01*
X136496601Y-53833258D01*
X136560367Y-53679313D01*
X136652941Y-53540766D01*
X136770766Y-53422941D01*
X136909313Y-53330367D01*
X137063258Y-53266601D01*
X137226685Y-53234093D01*
X137393315Y-53234093D01*
X137556742Y-53266601D01*
G37*
G36*
X140096742Y-53266601D02*
G01*
X140250687Y-53330367D01*
X140389234Y-53422941D01*
X140507059Y-53540766D01*
X140599633Y-53679313D01*
X140663399Y-53833258D01*
X140695907Y-53996685D01*
X140695907Y-54163315D01*
X140663399Y-54326742D01*
X140599633Y-54480687D01*
X140507059Y-54619234D01*
X140389234Y-54737059D01*
X140250687Y-54829633D01*
X140096742Y-54893399D01*
X139933315Y-54925907D01*
X139766685Y-54925907D01*
X139603258Y-54893399D01*
X139449313Y-54829633D01*
X139310766Y-54737059D01*
X139192941Y-54619234D01*
X139100367Y-54480687D01*
X139036601Y-54326742D01*
X139004093Y-54163315D01*
X139004093Y-53996685D01*
X139036601Y-53833258D01*
X139100367Y-53679313D01*
X139192941Y-53540766D01*
X139310766Y-53422941D01*
X139449313Y-53330367D01*
X139603258Y-53266601D01*
X139766685Y-53234093D01*
X139933315Y-53234093D01*
X140096742Y-53266601D01*
G37*
G36*
X142636742Y-53266601D02*
G01*
X142790687Y-53330367D01*
X142929234Y-53422941D01*
X143047059Y-53540766D01*
X143139633Y-53679313D01*
X143203399Y-53833258D01*
X143235907Y-53996685D01*
X143235907Y-54163315D01*
X143203399Y-54326742D01*
X143139633Y-54480687D01*
X143047059Y-54619234D01*
X142929234Y-54737059D01*
X142790687Y-54829633D01*
X142636742Y-54893399D01*
X142473315Y-54925907D01*
X142306685Y-54925907D01*
X142143258Y-54893399D01*
X141989313Y-54829633D01*
X141850766Y-54737059D01*
X141732941Y-54619234D01*
X141640367Y-54480687D01*
X141576601Y-54326742D01*
X141544093Y-54163315D01*
X141544093Y-53996685D01*
X141576601Y-53833258D01*
X141640367Y-53679313D01*
X141732941Y-53540766D01*
X141850766Y-53422941D01*
X141989313Y-53330367D01*
X142143258Y-53266601D01*
X142306685Y-53234093D01*
X142473315Y-53234093D01*
X142636742Y-53266601D01*
G37*
G36*
X145176742Y-53266601D02*
G01*
X145330687Y-53330367D01*
X145469234Y-53422941D01*
X145587059Y-53540766D01*
X145679633Y-53679313D01*
X145743399Y-53833258D01*
X145775907Y-53996685D01*
X145775907Y-54163315D01*
X145743399Y-54326742D01*
X145679633Y-54480687D01*
X145587059Y-54619234D01*
X145469234Y-54737059D01*
X145330687Y-54829633D01*
X145176742Y-54893399D01*
X145013315Y-54925907D01*
X144846685Y-54925907D01*
X144683258Y-54893399D01*
X144529313Y-54829633D01*
X144390766Y-54737059D01*
X144272941Y-54619234D01*
X144180367Y-54480687D01*
X144116601Y-54326742D01*
X144084093Y-54163315D01*
X144084093Y-53996685D01*
X144116601Y-53833258D01*
X144180367Y-53679313D01*
X144272941Y-53540766D01*
X144390766Y-53422941D01*
X144529313Y-53330367D01*
X144683258Y-53266601D01*
X144846685Y-53234093D01*
X145013315Y-53234093D01*
X145176742Y-53266601D01*
G37*
G36*
X22024047Y-34170805D02*
G01*
X22075408Y-34176764D01*
X22092954Y-34184511D01*
X22115671Y-34189030D01*
X22139991Y-34205280D01*
X22160793Y-34214465D01*
X22175000Y-34228672D01*
X22196777Y-34243223D01*
X22211327Y-34264999D01*
X22225534Y-34279206D01*
X22234718Y-34300006D01*
X22250970Y-34324329D01*
X22255489Y-34347048D01*
X22263235Y-34364591D01*
X22269192Y-34415940D01*
X22270000Y-34420000D01*
X22270000Y-35620000D01*
X22269192Y-35624059D01*
X22263235Y-35675408D01*
X22255489Y-35692950D01*
X22250970Y-35715671D01*
X22234716Y-35739995D01*
X22225534Y-35760793D01*
X22211329Y-35774997D01*
X22196777Y-35796777D01*
X22174997Y-35811329D01*
X22160793Y-35825534D01*
X22139995Y-35834716D01*
X22115671Y-35850970D01*
X22092950Y-35855489D01*
X22075408Y-35863235D01*
X22024061Y-35869192D01*
X22020000Y-35870000D01*
X20820000Y-35870000D01*
X20815941Y-35869192D01*
X20764591Y-35863235D01*
X20747048Y-35855489D01*
X20724329Y-35850970D01*
X20700006Y-35834718D01*
X20679206Y-35825534D01*
X20664999Y-35811327D01*
X20643223Y-35796777D01*
X20628672Y-35775000D01*
X20614465Y-35760793D01*
X20605280Y-35739991D01*
X20589030Y-35715671D01*
X20584511Y-35692954D01*
X20576764Y-35675408D01*
X20570805Y-35624049D01*
X20570000Y-35620000D01*
X20570000Y-34420000D01*
X20570804Y-34415953D01*
X20576764Y-34364591D01*
X20584511Y-34347043D01*
X20589030Y-34324329D01*
X20605278Y-34300010D01*
X20614465Y-34279206D01*
X20628674Y-34264996D01*
X20643223Y-34243223D01*
X20664996Y-34228674D01*
X20679206Y-34214465D01*
X20700010Y-34205278D01*
X20724329Y-34189030D01*
X20747043Y-34184511D01*
X20764591Y-34176764D01*
X20815952Y-34170805D01*
X20820000Y-34170000D01*
X22020000Y-34170000D01*
X22024047Y-34170805D01*
G37*
G36*
X69174047Y-34170805D02*
G01*
X69225408Y-34176764D01*
X69242954Y-34184511D01*
X69265671Y-34189030D01*
X69289991Y-34205280D01*
X69310793Y-34214465D01*
X69325000Y-34228672D01*
X69346777Y-34243223D01*
X69361327Y-34264999D01*
X69375534Y-34279206D01*
X69384718Y-34300006D01*
X69400970Y-34324329D01*
X69405489Y-34347048D01*
X69413235Y-34364591D01*
X69419192Y-34415940D01*
X69420000Y-34420000D01*
X69420000Y-35620000D01*
X69419192Y-35624059D01*
X69413235Y-35675408D01*
X69405489Y-35692950D01*
X69400970Y-35715671D01*
X69384716Y-35739995D01*
X69375534Y-35760793D01*
X69361329Y-35774997D01*
X69346777Y-35796777D01*
X69324997Y-35811329D01*
X69310793Y-35825534D01*
X69289995Y-35834716D01*
X69265671Y-35850970D01*
X69242950Y-35855489D01*
X69225408Y-35863235D01*
X69174061Y-35869192D01*
X69170000Y-35870000D01*
X67970000Y-35870000D01*
X67965941Y-35869192D01*
X67914591Y-35863235D01*
X67897048Y-35855489D01*
X67874329Y-35850970D01*
X67850006Y-35834718D01*
X67829206Y-35825534D01*
X67814999Y-35811327D01*
X67793223Y-35796777D01*
X67778672Y-35775000D01*
X67764465Y-35760793D01*
X67755280Y-35739991D01*
X67739030Y-35715671D01*
X67734511Y-35692954D01*
X67726764Y-35675408D01*
X67720805Y-35624049D01*
X67720000Y-35620000D01*
X67720000Y-34420000D01*
X67720804Y-34415953D01*
X67726764Y-34364591D01*
X67734511Y-34347043D01*
X67739030Y-34324329D01*
X67755278Y-34300010D01*
X67764465Y-34279206D01*
X67778674Y-34264996D01*
X67793223Y-34243223D01*
X67814996Y-34228674D01*
X67829206Y-34214465D01*
X67850010Y-34205278D01*
X67874329Y-34189030D01*
X67897043Y-34184511D01*
X67914591Y-34176764D01*
X67965952Y-34170805D01*
X67970000Y-34170000D01*
X69170000Y-34170000D01*
X69174047Y-34170805D01*
G37*
G36*
X125214047Y-34170805D02*
G01*
X125265408Y-34176764D01*
X125282954Y-34184511D01*
X125305671Y-34189030D01*
X125329991Y-34205280D01*
X125350793Y-34214465D01*
X125365000Y-34228672D01*
X125386777Y-34243223D01*
X125401327Y-34264999D01*
X125415534Y-34279206D01*
X125424718Y-34300006D01*
X125440970Y-34324329D01*
X125445489Y-34347048D01*
X125453235Y-34364591D01*
X125459192Y-34415940D01*
X125460000Y-34420000D01*
X125460000Y-35620000D01*
X125459192Y-35624059D01*
X125453235Y-35675408D01*
X125445489Y-35692950D01*
X125440970Y-35715671D01*
X125424716Y-35739995D01*
X125415534Y-35760793D01*
X125401329Y-35774997D01*
X125386777Y-35796777D01*
X125364997Y-35811329D01*
X125350793Y-35825534D01*
X125329995Y-35834716D01*
X125305671Y-35850970D01*
X125282950Y-35855489D01*
X125265408Y-35863235D01*
X125214061Y-35869192D01*
X125210000Y-35870000D01*
X124010000Y-35870000D01*
X124005941Y-35869192D01*
X123954591Y-35863235D01*
X123937048Y-35855489D01*
X123914329Y-35850970D01*
X123890006Y-35834718D01*
X123869206Y-35825534D01*
X123854999Y-35811327D01*
X123833223Y-35796777D01*
X123818672Y-35775000D01*
X123804465Y-35760793D01*
X123795280Y-35739991D01*
X123779030Y-35715671D01*
X123774511Y-35692954D01*
X123766764Y-35675408D01*
X123760805Y-35624049D01*
X123760000Y-35620000D01*
X123760000Y-34420000D01*
X123760804Y-34415953D01*
X123766764Y-34364591D01*
X123774511Y-34347043D01*
X123779030Y-34324329D01*
X123795278Y-34300010D01*
X123804465Y-34279206D01*
X123818674Y-34264996D01*
X123833223Y-34243223D01*
X123854996Y-34228674D01*
X123869206Y-34214465D01*
X123890010Y-34205278D01*
X123914329Y-34189030D01*
X123937043Y-34184511D01*
X123954591Y-34176764D01*
X124005952Y-34170805D01*
X124010000Y-34170000D01*
X125210000Y-34170000D01*
X125214047Y-34170805D01*
G37*
G36*
X24206742Y-34206601D02*
G01*
X24360687Y-34270367D01*
X24499234Y-34362941D01*
X24617059Y-34480766D01*
X24709633Y-34619313D01*
X24773399Y-34773258D01*
X24805907Y-34936685D01*
X24805907Y-35103315D01*
X24773399Y-35266742D01*
X24709633Y-35420687D01*
X24617059Y-35559234D01*
X24499234Y-35677059D01*
X24360687Y-35769633D01*
X24206742Y-35833399D01*
X24043315Y-35865907D01*
X23876685Y-35865907D01*
X23713258Y-35833399D01*
X23559313Y-35769633D01*
X23420766Y-35677059D01*
X23302941Y-35559234D01*
X23210367Y-35420687D01*
X23146601Y-35266742D01*
X23114093Y-35103315D01*
X23114093Y-34936685D01*
X23146601Y-34773258D01*
X23210367Y-34619313D01*
X23302941Y-34480766D01*
X23420766Y-34362941D01*
X23559313Y-34270367D01*
X23713258Y-34206601D01*
X23876685Y-34174093D01*
X24043315Y-34174093D01*
X24206742Y-34206601D01*
G37*
G36*
X26746742Y-34206601D02*
G01*
X26900687Y-34270367D01*
X27039234Y-34362941D01*
X27157059Y-34480766D01*
X27249633Y-34619313D01*
X27313399Y-34773258D01*
X27345907Y-34936685D01*
X27345907Y-35103315D01*
X27313399Y-35266742D01*
X27249633Y-35420687D01*
X27157059Y-35559234D01*
X27039234Y-35677059D01*
X26900687Y-35769633D01*
X26746742Y-35833399D01*
X26583315Y-35865907D01*
X26416685Y-35865907D01*
X26253258Y-35833399D01*
X26099313Y-35769633D01*
X25960766Y-35677059D01*
X25842941Y-35559234D01*
X25750367Y-35420687D01*
X25686601Y-35266742D01*
X25654093Y-35103315D01*
X25654093Y-34936685D01*
X25686601Y-34773258D01*
X25750367Y-34619313D01*
X25842941Y-34480766D01*
X25960766Y-34362941D01*
X26099313Y-34270367D01*
X26253258Y-34206601D01*
X26416685Y-34174093D01*
X26583315Y-34174093D01*
X26746742Y-34206601D01*
G37*
G36*
X29286742Y-34206601D02*
G01*
X29440687Y-34270367D01*
X29579234Y-34362941D01*
X29697059Y-34480766D01*
X29789633Y-34619313D01*
X29853399Y-34773258D01*
X29885907Y-34936685D01*
X29885907Y-35103315D01*
X29853399Y-35266742D01*
X29789633Y-35420687D01*
X29697059Y-35559234D01*
X29579234Y-35677059D01*
X29440687Y-35769633D01*
X29286742Y-35833399D01*
X29123315Y-35865907D01*
X28956685Y-35865907D01*
X28793258Y-35833399D01*
X28639313Y-35769633D01*
X28500766Y-35677059D01*
X28382941Y-35559234D01*
X28290367Y-35420687D01*
X28226601Y-35266742D01*
X28194093Y-35103315D01*
X28194093Y-34936685D01*
X28226601Y-34773258D01*
X28290367Y-34619313D01*
X28382941Y-34480766D01*
X28500766Y-34362941D01*
X28639313Y-34270367D01*
X28793258Y-34206601D01*
X28956685Y-34174093D01*
X29123315Y-34174093D01*
X29286742Y-34206601D01*
G37*
G36*
X31826742Y-34206601D02*
G01*
X31980687Y-34270367D01*
X32119234Y-34362941D01*
X32237059Y-34480766D01*
X32329633Y-34619313D01*
X32393399Y-34773258D01*
X32425907Y-34936685D01*
X32425907Y-35103315D01*
X32393399Y-35266742D01*
X32329633Y-35420687D01*
X32237059Y-35559234D01*
X32119234Y-35677059D01*
X31980687Y-35769633D01*
X31826742Y-35833399D01*
X31663315Y-35865907D01*
X31496685Y-35865907D01*
X31333258Y-35833399D01*
X31179313Y-35769633D01*
X31040766Y-35677059D01*
X30922941Y-35559234D01*
X30830367Y-35420687D01*
X30766601Y-35266742D01*
X30734093Y-35103315D01*
X30734093Y-34936685D01*
X30766601Y-34773258D01*
X30830367Y-34619313D01*
X30922941Y-34480766D01*
X31040766Y-34362941D01*
X31179313Y-34270367D01*
X31333258Y-34206601D01*
X31496685Y-34174093D01*
X31663315Y-34174093D01*
X31826742Y-34206601D01*
G37*
G36*
X71356742Y-34206601D02*
G01*
X71510687Y-34270367D01*
X71649234Y-34362941D01*
X71767059Y-34480766D01*
X71859633Y-34619313D01*
X71923399Y-34773258D01*
X71955907Y-34936685D01*
X71955907Y-35103315D01*
X71923399Y-35266742D01*
X71859633Y-35420687D01*
X71767059Y-35559234D01*
X71649234Y-35677059D01*
X71510687Y-35769633D01*
X71356742Y-35833399D01*
X71193315Y-35865907D01*
X71026685Y-35865907D01*
X70863258Y-35833399D01*
X70709313Y-35769633D01*
X70570766Y-35677059D01*
X70452941Y-35559234D01*
X70360367Y-35420687D01*
X70296601Y-35266742D01*
X70264093Y-35103315D01*
X70264093Y-34936685D01*
X70296601Y-34773258D01*
X70360367Y-34619313D01*
X70452941Y-34480766D01*
X70570766Y-34362941D01*
X70709313Y-34270367D01*
X70863258Y-34206601D01*
X71026685Y-34174093D01*
X71193315Y-34174093D01*
X71356742Y-34206601D01*
G37*
G36*
X73896742Y-34206601D02*
G01*
X74050687Y-34270367D01*
X74189234Y-34362941D01*
X74307059Y-34480766D01*
X74399633Y-34619313D01*
X74463399Y-34773258D01*
X74495907Y-34936685D01*
X74495907Y-35103315D01*
X74463399Y-35266742D01*
X74399633Y-35420687D01*
X74307059Y-35559234D01*
X74189234Y-35677059D01*
X74050687Y-35769633D01*
X73896742Y-35833399D01*
X73733315Y-35865907D01*
X73566685Y-35865907D01*
X73403258Y-35833399D01*
X73249313Y-35769633D01*
X73110766Y-35677059D01*
X72992941Y-35559234D01*
X72900367Y-35420687D01*
X72836601Y-35266742D01*
X72804093Y-35103315D01*
X72804093Y-34936685D01*
X72836601Y-34773258D01*
X72900367Y-34619313D01*
X72992941Y-34480766D01*
X73110766Y-34362941D01*
X73249313Y-34270367D01*
X73403258Y-34206601D01*
X73566685Y-34174093D01*
X73733315Y-34174093D01*
X73896742Y-34206601D01*
G37*
G36*
X76436742Y-34206601D02*
G01*
X76590687Y-34270367D01*
X76729234Y-34362941D01*
X76847059Y-34480766D01*
X76939633Y-34619313D01*
X77003399Y-34773258D01*
X77035907Y-34936685D01*
X77035907Y-35103315D01*
X77003399Y-35266742D01*
X76939633Y-35420687D01*
X76847059Y-35559234D01*
X76729234Y-35677059D01*
X76590687Y-35769633D01*
X76436742Y-35833399D01*
X76273315Y-35865907D01*
X76106685Y-35865907D01*
X75943258Y-35833399D01*
X75789313Y-35769633D01*
X75650766Y-35677059D01*
X75532941Y-35559234D01*
X75440367Y-35420687D01*
X75376601Y-35266742D01*
X75344093Y-35103315D01*
X75344093Y-34936685D01*
X75376601Y-34773258D01*
X75440367Y-34619313D01*
X75532941Y-34480766D01*
X75650766Y-34362941D01*
X75789313Y-34270367D01*
X75943258Y-34206601D01*
X76106685Y-34174093D01*
X76273315Y-34174093D01*
X76436742Y-34206601D01*
G37*
G36*
X78976742Y-34206601D02*
G01*
X79130687Y-34270367D01*
X79269234Y-34362941D01*
X79387059Y-34480766D01*
X79479633Y-34619313D01*
X79543399Y-34773258D01*
X79575907Y-34936685D01*
X79575907Y-35103315D01*
X79543399Y-35266742D01*
X79479633Y-35420687D01*
X79387059Y-35559234D01*
X79269234Y-35677059D01*
X79130687Y-35769633D01*
X78976742Y-35833399D01*
X78813315Y-35865907D01*
X78646685Y-35865907D01*
X78483258Y-35833399D01*
X78329313Y-35769633D01*
X78190766Y-35677059D01*
X78072941Y-35559234D01*
X77980367Y-35420687D01*
X77916601Y-35266742D01*
X77884093Y-35103315D01*
X77884093Y-34936685D01*
X77916601Y-34773258D01*
X77980367Y-34619313D01*
X78072941Y-34480766D01*
X78190766Y-34362941D01*
X78329313Y-34270367D01*
X78483258Y-34206601D01*
X78646685Y-34174093D01*
X78813315Y-34174093D01*
X78976742Y-34206601D01*
G37*
G36*
X81516742Y-34206601D02*
G01*
X81670687Y-34270367D01*
X81809234Y-34362941D01*
X81927059Y-34480766D01*
X82019633Y-34619313D01*
X82083399Y-34773258D01*
X82115907Y-34936685D01*
X82115907Y-35103315D01*
X82083399Y-35266742D01*
X82019633Y-35420687D01*
X81927059Y-35559234D01*
X81809234Y-35677059D01*
X81670687Y-35769633D01*
X81516742Y-35833399D01*
X81353315Y-35865907D01*
X81186685Y-35865907D01*
X81023258Y-35833399D01*
X80869313Y-35769633D01*
X80730766Y-35677059D01*
X80612941Y-35559234D01*
X80520367Y-35420687D01*
X80456601Y-35266742D01*
X80424093Y-35103315D01*
X80424093Y-34936685D01*
X80456601Y-34773258D01*
X80520367Y-34619313D01*
X80612941Y-34480766D01*
X80730766Y-34362941D01*
X80869313Y-34270367D01*
X81023258Y-34206601D01*
X81186685Y-34174093D01*
X81353315Y-34174093D01*
X81516742Y-34206601D01*
G37*
G36*
X84056742Y-34206601D02*
G01*
X84210687Y-34270367D01*
X84349234Y-34362941D01*
X84467059Y-34480766D01*
X84559633Y-34619313D01*
X84623399Y-34773258D01*
X84655907Y-34936685D01*
X84655907Y-35103315D01*
X84623399Y-35266742D01*
X84559633Y-35420687D01*
X84467059Y-35559234D01*
X84349234Y-35677059D01*
X84210687Y-35769633D01*
X84056742Y-35833399D01*
X83893315Y-35865907D01*
X83726685Y-35865907D01*
X83563258Y-35833399D01*
X83409313Y-35769633D01*
X83270766Y-35677059D01*
X83152941Y-35559234D01*
X83060367Y-35420687D01*
X82996601Y-35266742D01*
X82964093Y-35103315D01*
X82964093Y-34936685D01*
X82996601Y-34773258D01*
X83060367Y-34619313D01*
X83152941Y-34480766D01*
X83270766Y-34362941D01*
X83409313Y-34270367D01*
X83563258Y-34206601D01*
X83726685Y-34174093D01*
X83893315Y-34174093D01*
X84056742Y-34206601D01*
G37*
G36*
X86596742Y-34206601D02*
G01*
X86750687Y-34270367D01*
X86889234Y-34362941D01*
X87007059Y-34480766D01*
X87099633Y-34619313D01*
X87163399Y-34773258D01*
X87195907Y-34936685D01*
X87195907Y-35103315D01*
X87163399Y-35266742D01*
X87099633Y-35420687D01*
X87007059Y-35559234D01*
X86889234Y-35677059D01*
X86750687Y-35769633D01*
X86596742Y-35833399D01*
X86433315Y-35865907D01*
X86266685Y-35865907D01*
X86103258Y-35833399D01*
X85949313Y-35769633D01*
X85810766Y-35677059D01*
X85692941Y-35559234D01*
X85600367Y-35420687D01*
X85536601Y-35266742D01*
X85504093Y-35103315D01*
X85504093Y-34936685D01*
X85536601Y-34773258D01*
X85600367Y-34619313D01*
X85692941Y-34480766D01*
X85810766Y-34362941D01*
X85949313Y-34270367D01*
X86103258Y-34206601D01*
X86266685Y-34174093D01*
X86433315Y-34174093D01*
X86596742Y-34206601D01*
G37*
G36*
X89136742Y-34206601D02*
G01*
X89290687Y-34270367D01*
X89429234Y-34362941D01*
X89547059Y-34480766D01*
X89639633Y-34619313D01*
X89703399Y-34773258D01*
X89735907Y-34936685D01*
X89735907Y-35103315D01*
X89703399Y-35266742D01*
X89639633Y-35420687D01*
X89547059Y-35559234D01*
X89429234Y-35677059D01*
X89290687Y-35769633D01*
X89136742Y-35833399D01*
X88973315Y-35865907D01*
X88806685Y-35865907D01*
X88643258Y-35833399D01*
X88489313Y-35769633D01*
X88350766Y-35677059D01*
X88232941Y-35559234D01*
X88140367Y-35420687D01*
X88076601Y-35266742D01*
X88044093Y-35103315D01*
X88044093Y-34936685D01*
X88076601Y-34773258D01*
X88140367Y-34619313D01*
X88232941Y-34480766D01*
X88350766Y-34362941D01*
X88489313Y-34270367D01*
X88643258Y-34206601D01*
X88806685Y-34174093D01*
X88973315Y-34174093D01*
X89136742Y-34206601D01*
G37*
G36*
X91676742Y-34206601D02*
G01*
X91830687Y-34270367D01*
X91969234Y-34362941D01*
X92087059Y-34480766D01*
X92179633Y-34619313D01*
X92243399Y-34773258D01*
X92275907Y-34936685D01*
X92275907Y-35103315D01*
X92243399Y-35266742D01*
X92179633Y-35420687D01*
X92087059Y-35559234D01*
X91969234Y-35677059D01*
X91830687Y-35769633D01*
X91676742Y-35833399D01*
X91513315Y-35865907D01*
X91346685Y-35865907D01*
X91183258Y-35833399D01*
X91029313Y-35769633D01*
X90890766Y-35677059D01*
X90772941Y-35559234D01*
X90680367Y-35420687D01*
X90616601Y-35266742D01*
X90584093Y-35103315D01*
X90584093Y-34936685D01*
X90616601Y-34773258D01*
X90680367Y-34619313D01*
X90772941Y-34480766D01*
X90890766Y-34362941D01*
X91029313Y-34270367D01*
X91183258Y-34206601D01*
X91346685Y-34174093D01*
X91513315Y-34174093D01*
X91676742Y-34206601D01*
G37*
G36*
X127396742Y-34206601D02*
G01*
X127550687Y-34270367D01*
X127689234Y-34362941D01*
X127807059Y-34480766D01*
X127899633Y-34619313D01*
X127963399Y-34773258D01*
X127995907Y-34936685D01*
X127995907Y-35103315D01*
X127963399Y-35266742D01*
X127899633Y-35420687D01*
X127807059Y-35559234D01*
X127689234Y-35677059D01*
X127550687Y-35769633D01*
X127396742Y-35833399D01*
X127233315Y-35865907D01*
X127066685Y-35865907D01*
X126903258Y-35833399D01*
X126749313Y-35769633D01*
X126610766Y-35677059D01*
X126492941Y-35559234D01*
X126400367Y-35420687D01*
X126336601Y-35266742D01*
X126304093Y-35103315D01*
X126304093Y-34936685D01*
X126336601Y-34773258D01*
X126400367Y-34619313D01*
X126492941Y-34480766D01*
X126610766Y-34362941D01*
X126749313Y-34270367D01*
X126903258Y-34206601D01*
X127066685Y-34174093D01*
X127233315Y-34174093D01*
X127396742Y-34206601D01*
G37*
G36*
X129936742Y-34206601D02*
G01*
X130090687Y-34270367D01*
X130229234Y-34362941D01*
X130347059Y-34480766D01*
X130439633Y-34619313D01*
X130503399Y-34773258D01*
X130535907Y-34936685D01*
X130535907Y-35103315D01*
X130503399Y-35266742D01*
X130439633Y-35420687D01*
X130347059Y-35559234D01*
X130229234Y-35677059D01*
X130090687Y-35769633D01*
X129936742Y-35833399D01*
X129773315Y-35865907D01*
X129606685Y-35865907D01*
X129443258Y-35833399D01*
X129289313Y-35769633D01*
X129150766Y-35677059D01*
X129032941Y-35559234D01*
X128940367Y-35420687D01*
X128876601Y-35266742D01*
X128844093Y-35103315D01*
X128844093Y-34936685D01*
X128876601Y-34773258D01*
X128940367Y-34619313D01*
X129032941Y-34480766D01*
X129150766Y-34362941D01*
X129289313Y-34270367D01*
X129443258Y-34206601D01*
X129606685Y-34174093D01*
X129773315Y-34174093D01*
X129936742Y-34206601D01*
G37*
G36*
X132476742Y-34206601D02*
G01*
X132630687Y-34270367D01*
X132769234Y-34362941D01*
X132887059Y-34480766D01*
X132979633Y-34619313D01*
X133043399Y-34773258D01*
X133075907Y-34936685D01*
X133075907Y-35103315D01*
X133043399Y-35266742D01*
X132979633Y-35420687D01*
X132887059Y-35559234D01*
X132769234Y-35677059D01*
X132630687Y-35769633D01*
X132476742Y-35833399D01*
X132313315Y-35865907D01*
X132146685Y-35865907D01*
X131983258Y-35833399D01*
X131829313Y-35769633D01*
X131690766Y-35677059D01*
X131572941Y-35559234D01*
X131480367Y-35420687D01*
X131416601Y-35266742D01*
X131384093Y-35103315D01*
X131384093Y-34936685D01*
X131416601Y-34773258D01*
X131480367Y-34619313D01*
X131572941Y-34480766D01*
X131690766Y-34362941D01*
X131829313Y-34270367D01*
X131983258Y-34206601D01*
X132146685Y-34174093D01*
X132313315Y-34174093D01*
X132476742Y-34206601D01*
G37*
G36*
X135016742Y-34206601D02*
G01*
X135170687Y-34270367D01*
X135309234Y-34362941D01*
X135427059Y-34480766D01*
X135519633Y-34619313D01*
X135583399Y-34773258D01*
X135615907Y-34936685D01*
X135615907Y-35103315D01*
X135583399Y-35266742D01*
X135519633Y-35420687D01*
X135427059Y-35559234D01*
X135309234Y-35677059D01*
X135170687Y-35769633D01*
X135016742Y-35833399D01*
X134853315Y-35865907D01*
X134686685Y-35865907D01*
X134523258Y-35833399D01*
X134369313Y-35769633D01*
X134230766Y-35677059D01*
X134112941Y-35559234D01*
X134020367Y-35420687D01*
X133956601Y-35266742D01*
X133924093Y-35103315D01*
X133924093Y-34936685D01*
X133956601Y-34773258D01*
X134020367Y-34619313D01*
X134112941Y-34480766D01*
X134230766Y-34362941D01*
X134369313Y-34270367D01*
X134523258Y-34206601D01*
X134686685Y-34174093D01*
X134853315Y-34174093D01*
X135016742Y-34206601D01*
G37*
G36*
X137556742Y-34206601D02*
G01*
X137710687Y-34270367D01*
X137849234Y-34362941D01*
X137967059Y-34480766D01*
X138059633Y-34619313D01*
X138123399Y-34773258D01*
X138155907Y-34936685D01*
X138155907Y-35103315D01*
X138123399Y-35266742D01*
X138059633Y-35420687D01*
X137967059Y-35559234D01*
X137849234Y-35677059D01*
X137710687Y-35769633D01*
X137556742Y-35833399D01*
X137393315Y-35865907D01*
X137226685Y-35865907D01*
X137063258Y-35833399D01*
X136909313Y-35769633D01*
X136770766Y-35677059D01*
X136652941Y-35559234D01*
X136560367Y-35420687D01*
X136496601Y-35266742D01*
X136464093Y-35103315D01*
X136464093Y-34936685D01*
X136496601Y-34773258D01*
X136560367Y-34619313D01*
X136652941Y-34480766D01*
X136770766Y-34362941D01*
X136909313Y-34270367D01*
X137063258Y-34206601D01*
X137226685Y-34174093D01*
X137393315Y-34174093D01*
X137556742Y-34206601D01*
G37*
G36*
X140096742Y-34206601D02*
G01*
X140250687Y-34270367D01*
X140389234Y-34362941D01*
X140507059Y-34480766D01*
X140599633Y-34619313D01*
X140663399Y-34773258D01*
X140695907Y-34936685D01*
X140695907Y-35103315D01*
X140663399Y-35266742D01*
X140599633Y-35420687D01*
X140507059Y-35559234D01*
X140389234Y-35677059D01*
X140250687Y-35769633D01*
X140096742Y-35833399D01*
X139933315Y-35865907D01*
X139766685Y-35865907D01*
X139603258Y-35833399D01*
X139449313Y-35769633D01*
X139310766Y-35677059D01*
X139192941Y-35559234D01*
X139100367Y-35420687D01*
X139036601Y-35266742D01*
X139004093Y-35103315D01*
X139004093Y-34936685D01*
X139036601Y-34773258D01*
X139100367Y-34619313D01*
X139192941Y-34480766D01*
X139310766Y-34362941D01*
X139449313Y-34270367D01*
X139603258Y-34206601D01*
X139766685Y-34174093D01*
X139933315Y-34174093D01*
X140096742Y-34206601D01*
G37*
G36*
X142636742Y-34206601D02*
G01*
X142790687Y-34270367D01*
X142929234Y-34362941D01*
X143047059Y-34480766D01*
X143139633Y-34619313D01*
X143203399Y-34773258D01*
X143235907Y-34936685D01*
X143235907Y-35103315D01*
X143203399Y-35266742D01*
X143139633Y-35420687D01*
X143047059Y-35559234D01*
X142929234Y-35677059D01*
X142790687Y-35769633D01*
X142636742Y-35833399D01*
X142473315Y-35865907D01*
X142306685Y-35865907D01*
X142143258Y-35833399D01*
X141989313Y-35769633D01*
X141850766Y-35677059D01*
X141732941Y-35559234D01*
X141640367Y-35420687D01*
X141576601Y-35266742D01*
X141544093Y-35103315D01*
X141544093Y-34936685D01*
X141576601Y-34773258D01*
X141640367Y-34619313D01*
X141732941Y-34480766D01*
X141850766Y-34362941D01*
X141989313Y-34270367D01*
X142143258Y-34206601D01*
X142306685Y-34174093D01*
X142473315Y-34174093D01*
X142636742Y-34206601D01*
G37*
G36*
X21666742Y-31666601D02*
G01*
X21820687Y-31730367D01*
X21959234Y-31822941D01*
X22077059Y-31940766D01*
X22169633Y-32079313D01*
X22233399Y-32233258D01*
X22265907Y-32396685D01*
X22265907Y-32563315D01*
X22233399Y-32726742D01*
X22169633Y-32880687D01*
X22077059Y-33019234D01*
X21959234Y-33137059D01*
X21820687Y-33229633D01*
X21666742Y-33293399D01*
X21503315Y-33325907D01*
X21336685Y-33325907D01*
X21173258Y-33293399D01*
X21019313Y-33229633D01*
X20880766Y-33137059D01*
X20762941Y-33019234D01*
X20670367Y-32880687D01*
X20606601Y-32726742D01*
X20574093Y-32563315D01*
X20574093Y-32396685D01*
X20606601Y-32233258D01*
X20670367Y-32079313D01*
X20762941Y-31940766D01*
X20880766Y-31822941D01*
X21019313Y-31730367D01*
X21173258Y-31666601D01*
X21336685Y-31634093D01*
X21503315Y-31634093D01*
X21666742Y-31666601D01*
G37*
G36*
X24206742Y-31666601D02*
G01*
X24360687Y-31730367D01*
X24499234Y-31822941D01*
X24617059Y-31940766D01*
X24709633Y-32079313D01*
X24773399Y-32233258D01*
X24805907Y-32396685D01*
X24805907Y-32563315D01*
X24773399Y-32726742D01*
X24709633Y-32880687D01*
X24617059Y-33019234D01*
X24499234Y-33137059D01*
X24360687Y-33229633D01*
X24206742Y-33293399D01*
X24043315Y-33325907D01*
X23876685Y-33325907D01*
X23713258Y-33293399D01*
X23559313Y-33229633D01*
X23420766Y-33137059D01*
X23302941Y-33019234D01*
X23210367Y-32880687D01*
X23146601Y-32726742D01*
X23114093Y-32563315D01*
X23114093Y-32396685D01*
X23146601Y-32233258D01*
X23210367Y-32079313D01*
X23302941Y-31940766D01*
X23420766Y-31822941D01*
X23559313Y-31730367D01*
X23713258Y-31666601D01*
X23876685Y-31634093D01*
X24043315Y-31634093D01*
X24206742Y-31666601D01*
G37*
G36*
X26746742Y-31666601D02*
G01*
X26900687Y-31730367D01*
X27039234Y-31822941D01*
X27157059Y-31940766D01*
X27249633Y-32079313D01*
X27313399Y-32233258D01*
X27345907Y-32396685D01*
X27345907Y-32563315D01*
X27313399Y-32726742D01*
X27249633Y-32880687D01*
X27157059Y-33019234D01*
X27039234Y-33137059D01*
X26900687Y-33229633D01*
X26746742Y-33293399D01*
X26583315Y-33325907D01*
X26416685Y-33325907D01*
X26253258Y-33293399D01*
X26099313Y-33229633D01*
X25960766Y-33137059D01*
X25842941Y-33019234D01*
X25750367Y-32880687D01*
X25686601Y-32726742D01*
X25654093Y-32563315D01*
X25654093Y-32396685D01*
X25686601Y-32233258D01*
X25750367Y-32079313D01*
X25842941Y-31940766D01*
X25960766Y-31822941D01*
X26099313Y-31730367D01*
X26253258Y-31666601D01*
X26416685Y-31634093D01*
X26583315Y-31634093D01*
X26746742Y-31666601D01*
G37*
G36*
X29286742Y-31666601D02*
G01*
X29440687Y-31730367D01*
X29579234Y-31822941D01*
X29697059Y-31940766D01*
X29789633Y-32079313D01*
X29853399Y-32233258D01*
X29885907Y-32396685D01*
X29885907Y-32563315D01*
X29853399Y-32726742D01*
X29789633Y-32880687D01*
X29697059Y-33019234D01*
X29579234Y-33137059D01*
X29440687Y-33229633D01*
X29286742Y-33293399D01*
X29123315Y-33325907D01*
X28956685Y-33325907D01*
X28793258Y-33293399D01*
X28639313Y-33229633D01*
X28500766Y-33137059D01*
X28382941Y-33019234D01*
X28290367Y-32880687D01*
X28226601Y-32726742D01*
X28194093Y-32563315D01*
X28194093Y-32396685D01*
X28226601Y-32233258D01*
X28290367Y-32079313D01*
X28382941Y-31940766D01*
X28500766Y-31822941D01*
X28639313Y-31730367D01*
X28793258Y-31666601D01*
X28956685Y-31634093D01*
X29123315Y-31634093D01*
X29286742Y-31666601D01*
G37*
G36*
X31826742Y-31666601D02*
G01*
X31980687Y-31730367D01*
X32119234Y-31822941D01*
X32237059Y-31940766D01*
X32329633Y-32079313D01*
X32393399Y-32233258D01*
X32425907Y-32396685D01*
X32425907Y-32563315D01*
X32393399Y-32726742D01*
X32329633Y-32880687D01*
X32237059Y-33019234D01*
X32119234Y-33137059D01*
X31980687Y-33229633D01*
X31826742Y-33293399D01*
X31663315Y-33325907D01*
X31496685Y-33325907D01*
X31333258Y-33293399D01*
X31179313Y-33229633D01*
X31040766Y-33137059D01*
X30922941Y-33019234D01*
X30830367Y-32880687D01*
X30766601Y-32726742D01*
X30734093Y-32563315D01*
X30734093Y-32396685D01*
X30766601Y-32233258D01*
X30830367Y-32079313D01*
X30922941Y-31940766D01*
X31040766Y-31822941D01*
X31179313Y-31730367D01*
X31333258Y-31666601D01*
X31496685Y-31634093D01*
X31663315Y-31634093D01*
X31826742Y-31666601D01*
G37*
G36*
X68816742Y-31666601D02*
G01*
X68970687Y-31730367D01*
X69109234Y-31822941D01*
X69227059Y-31940766D01*
X69319633Y-32079313D01*
X69383399Y-32233258D01*
X69415907Y-32396685D01*
X69415907Y-32563315D01*
X69383399Y-32726742D01*
X69319633Y-32880687D01*
X69227059Y-33019234D01*
X69109234Y-33137059D01*
X68970687Y-33229633D01*
X68816742Y-33293399D01*
X68653315Y-33325907D01*
X68486685Y-33325907D01*
X68323258Y-33293399D01*
X68169313Y-33229633D01*
X68030766Y-33137059D01*
X67912941Y-33019234D01*
X67820367Y-32880687D01*
X67756601Y-32726742D01*
X67724093Y-32563315D01*
X67724093Y-32396685D01*
X67756601Y-32233258D01*
X67820367Y-32079313D01*
X67912941Y-31940766D01*
X68030766Y-31822941D01*
X68169313Y-31730367D01*
X68323258Y-31666601D01*
X68486685Y-31634093D01*
X68653315Y-31634093D01*
X68816742Y-31666601D01*
G37*
G36*
X71356742Y-31666601D02*
G01*
X71510687Y-31730367D01*
X71649234Y-31822941D01*
X71767059Y-31940766D01*
X71859633Y-32079313D01*
X71923399Y-32233258D01*
X71955907Y-32396685D01*
X71955907Y-32563315D01*
X71923399Y-32726742D01*
X71859633Y-32880687D01*
X71767059Y-33019234D01*
X71649234Y-33137059D01*
X71510687Y-33229633D01*
X71356742Y-33293399D01*
X71193315Y-33325907D01*
X71026685Y-33325907D01*
X70863258Y-33293399D01*
X70709313Y-33229633D01*
X70570766Y-33137059D01*
X70452941Y-33019234D01*
X70360367Y-32880687D01*
X70296601Y-32726742D01*
X70264093Y-32563315D01*
X70264093Y-32396685D01*
X70296601Y-32233258D01*
X70360367Y-32079313D01*
X70452941Y-31940766D01*
X70570766Y-31822941D01*
X70709313Y-31730367D01*
X70863258Y-31666601D01*
X71026685Y-31634093D01*
X71193315Y-31634093D01*
X71356742Y-31666601D01*
G37*
G36*
X73896742Y-31666601D02*
G01*
X74050687Y-31730367D01*
X74189234Y-31822941D01*
X74307059Y-31940766D01*
X74399633Y-32079313D01*
X74463399Y-32233258D01*
X74495907Y-32396685D01*
X74495907Y-32563315D01*
X74463399Y-32726742D01*
X74399633Y-32880687D01*
X74307059Y-33019234D01*
X74189234Y-33137059D01*
X74050687Y-33229633D01*
X73896742Y-33293399D01*
X73733315Y-33325907D01*
X73566685Y-33325907D01*
X73403258Y-33293399D01*
X73249313Y-33229633D01*
X73110766Y-33137059D01*
X72992941Y-33019234D01*
X72900367Y-32880687D01*
X72836601Y-32726742D01*
X72804093Y-32563315D01*
X72804093Y-32396685D01*
X72836601Y-32233258D01*
X72900367Y-32079313D01*
X72992941Y-31940766D01*
X73110766Y-31822941D01*
X73249313Y-31730367D01*
X73403258Y-31666601D01*
X73566685Y-31634093D01*
X73733315Y-31634093D01*
X73896742Y-31666601D01*
G37*
G36*
X76436742Y-31666601D02*
G01*
X76590687Y-31730367D01*
X76729234Y-31822941D01*
X76847059Y-31940766D01*
X76939633Y-32079313D01*
X77003399Y-32233258D01*
X77035907Y-32396685D01*
X77035907Y-32563315D01*
X77003399Y-32726742D01*
X76939633Y-32880687D01*
X76847059Y-33019234D01*
X76729234Y-33137059D01*
X76590687Y-33229633D01*
X76436742Y-33293399D01*
X76273315Y-33325907D01*
X76106685Y-33325907D01*
X75943258Y-33293399D01*
X75789313Y-33229633D01*
X75650766Y-33137059D01*
X75532941Y-33019234D01*
X75440367Y-32880687D01*
X75376601Y-32726742D01*
X75344093Y-32563315D01*
X75344093Y-32396685D01*
X75376601Y-32233258D01*
X75440367Y-32079313D01*
X75532941Y-31940766D01*
X75650766Y-31822941D01*
X75789313Y-31730367D01*
X75943258Y-31666601D01*
X76106685Y-31634093D01*
X76273315Y-31634093D01*
X76436742Y-31666601D01*
G37*
G36*
X78976742Y-31666601D02*
G01*
X79130687Y-31730367D01*
X79269234Y-31822941D01*
X79387059Y-31940766D01*
X79479633Y-32079313D01*
X79543399Y-32233258D01*
X79575907Y-32396685D01*
X79575907Y-32563315D01*
X79543399Y-32726742D01*
X79479633Y-32880687D01*
X79387059Y-33019234D01*
X79269234Y-33137059D01*
X79130687Y-33229633D01*
X78976742Y-33293399D01*
X78813315Y-33325907D01*
X78646685Y-33325907D01*
X78483258Y-33293399D01*
X78329313Y-33229633D01*
X78190766Y-33137059D01*
X78072941Y-33019234D01*
X77980367Y-32880687D01*
X77916601Y-32726742D01*
X77884093Y-32563315D01*
X77884093Y-32396685D01*
X77916601Y-32233258D01*
X77980367Y-32079313D01*
X78072941Y-31940766D01*
X78190766Y-31822941D01*
X78329313Y-31730367D01*
X78483258Y-31666601D01*
X78646685Y-31634093D01*
X78813315Y-31634093D01*
X78976742Y-31666601D01*
G37*
G36*
X81516742Y-31666601D02*
G01*
X81670687Y-31730367D01*
X81809234Y-31822941D01*
X81927059Y-31940766D01*
X82019633Y-32079313D01*
X82083399Y-32233258D01*
X82115907Y-32396685D01*
X82115907Y-32563315D01*
X82083399Y-32726742D01*
X82019633Y-32880687D01*
X81927059Y-33019234D01*
X81809234Y-33137059D01*
X81670687Y-33229633D01*
X81516742Y-33293399D01*
X81353315Y-33325907D01*
X81186685Y-33325907D01*
X81023258Y-33293399D01*
X80869313Y-33229633D01*
X80730766Y-33137059D01*
X80612941Y-33019234D01*
X80520367Y-32880687D01*
X80456601Y-32726742D01*
X80424093Y-32563315D01*
X80424093Y-32396685D01*
X80456601Y-32233258D01*
X80520367Y-32079313D01*
X80612941Y-31940766D01*
X80730766Y-31822941D01*
X80869313Y-31730367D01*
X81023258Y-31666601D01*
X81186685Y-31634093D01*
X81353315Y-31634093D01*
X81516742Y-31666601D01*
G37*
G36*
X84056742Y-31666601D02*
G01*
X84210687Y-31730367D01*
X84349234Y-31822941D01*
X84467059Y-31940766D01*
X84559633Y-32079313D01*
X84623399Y-32233258D01*
X84655907Y-32396685D01*
X84655907Y-32563315D01*
X84623399Y-32726742D01*
X84559633Y-32880687D01*
X84467059Y-33019234D01*
X84349234Y-33137059D01*
X84210687Y-33229633D01*
X84056742Y-33293399D01*
X83893315Y-33325907D01*
X83726685Y-33325907D01*
X83563258Y-33293399D01*
X83409313Y-33229633D01*
X83270766Y-33137059D01*
X83152941Y-33019234D01*
X83060367Y-32880687D01*
X82996601Y-32726742D01*
X82964093Y-32563315D01*
X82964093Y-32396685D01*
X82996601Y-32233258D01*
X83060367Y-32079313D01*
X83152941Y-31940766D01*
X83270766Y-31822941D01*
X83409313Y-31730367D01*
X83563258Y-31666601D01*
X83726685Y-31634093D01*
X83893315Y-31634093D01*
X84056742Y-31666601D01*
G37*
G36*
X86596742Y-31666601D02*
G01*
X86750687Y-31730367D01*
X86889234Y-31822941D01*
X87007059Y-31940766D01*
X87099633Y-32079313D01*
X87163399Y-32233258D01*
X87195907Y-32396685D01*
X87195907Y-32563315D01*
X87163399Y-32726742D01*
X87099633Y-32880687D01*
X87007059Y-33019234D01*
X86889234Y-33137059D01*
X86750687Y-33229633D01*
X86596742Y-33293399D01*
X86433315Y-33325907D01*
X86266685Y-33325907D01*
X86103258Y-33293399D01*
X85949313Y-33229633D01*
X85810766Y-33137059D01*
X85692941Y-33019234D01*
X85600367Y-32880687D01*
X85536601Y-32726742D01*
X85504093Y-32563315D01*
X85504093Y-32396685D01*
X85536601Y-32233258D01*
X85600367Y-32079313D01*
X85692941Y-31940766D01*
X85810766Y-31822941D01*
X85949313Y-31730367D01*
X86103258Y-31666601D01*
X86266685Y-31634093D01*
X86433315Y-31634093D01*
X86596742Y-31666601D01*
G37*
G36*
X89136742Y-31666601D02*
G01*
X89290687Y-31730367D01*
X89429234Y-31822941D01*
X89547059Y-31940766D01*
X89639633Y-32079313D01*
X89703399Y-32233258D01*
X89735907Y-32396685D01*
X89735907Y-32563315D01*
X89703399Y-32726742D01*
X89639633Y-32880687D01*
X89547059Y-33019234D01*
X89429234Y-33137059D01*
X89290687Y-33229633D01*
X89136742Y-33293399D01*
X88973315Y-33325907D01*
X88806685Y-33325907D01*
X88643258Y-33293399D01*
X88489313Y-33229633D01*
X88350766Y-33137059D01*
X88232941Y-33019234D01*
X88140367Y-32880687D01*
X88076601Y-32726742D01*
X88044093Y-32563315D01*
X88044093Y-32396685D01*
X88076601Y-32233258D01*
X88140367Y-32079313D01*
X88232941Y-31940766D01*
X88350766Y-31822941D01*
X88489313Y-31730367D01*
X88643258Y-31666601D01*
X88806685Y-31634093D01*
X88973315Y-31634093D01*
X89136742Y-31666601D01*
G37*
G36*
X91676742Y-31666601D02*
G01*
X91830687Y-31730367D01*
X91969234Y-31822941D01*
X92087059Y-31940766D01*
X92179633Y-32079313D01*
X92243399Y-32233258D01*
X92275907Y-32396685D01*
X92275907Y-32563315D01*
X92243399Y-32726742D01*
X92179633Y-32880687D01*
X92087059Y-33019234D01*
X91969234Y-33137059D01*
X91830687Y-33229633D01*
X91676742Y-33293399D01*
X91513315Y-33325907D01*
X91346685Y-33325907D01*
X91183258Y-33293399D01*
X91029313Y-33229633D01*
X90890766Y-33137059D01*
X90772941Y-33019234D01*
X90680367Y-32880687D01*
X90616601Y-32726742D01*
X90584093Y-32563315D01*
X90584093Y-32396685D01*
X90616601Y-32233258D01*
X90680367Y-32079313D01*
X90772941Y-31940766D01*
X90890766Y-31822941D01*
X91029313Y-31730367D01*
X91183258Y-31666601D01*
X91346685Y-31634093D01*
X91513315Y-31634093D01*
X91676742Y-31666601D01*
G37*
G36*
X124856742Y-31666601D02*
G01*
X125010687Y-31730367D01*
X125149234Y-31822941D01*
X125267059Y-31940766D01*
X125359633Y-32079313D01*
X125423399Y-32233258D01*
X125455907Y-32396685D01*
X125455907Y-32563315D01*
X125423399Y-32726742D01*
X125359633Y-32880687D01*
X125267059Y-33019234D01*
X125149234Y-33137059D01*
X125010687Y-33229633D01*
X124856742Y-33293399D01*
X124693315Y-33325907D01*
X124526685Y-33325907D01*
X124363258Y-33293399D01*
X124209313Y-33229633D01*
X124070766Y-33137059D01*
X123952941Y-33019234D01*
X123860367Y-32880687D01*
X123796601Y-32726742D01*
X123764093Y-32563315D01*
X123764093Y-32396685D01*
X123796601Y-32233258D01*
X123860367Y-32079313D01*
X123952941Y-31940766D01*
X124070766Y-31822941D01*
X124209313Y-31730367D01*
X124363258Y-31666601D01*
X124526685Y-31634093D01*
X124693315Y-31634093D01*
X124856742Y-31666601D01*
G37*
G36*
X127396742Y-31666601D02*
G01*
X127550687Y-31730367D01*
X127689234Y-31822941D01*
X127807059Y-31940766D01*
X127899633Y-32079313D01*
X127963399Y-32233258D01*
X127995907Y-32396685D01*
X127995907Y-32563315D01*
X127963399Y-32726742D01*
X127899633Y-32880687D01*
X127807059Y-33019234D01*
X127689234Y-33137059D01*
X127550687Y-33229633D01*
X127396742Y-33293399D01*
X127233315Y-33325907D01*
X127066685Y-33325907D01*
X126903258Y-33293399D01*
X126749313Y-33229633D01*
X126610766Y-33137059D01*
X126492941Y-33019234D01*
X126400367Y-32880687D01*
X126336601Y-32726742D01*
X126304093Y-32563315D01*
X126304093Y-32396685D01*
X126336601Y-32233258D01*
X126400367Y-32079313D01*
X126492941Y-31940766D01*
X126610766Y-31822941D01*
X126749313Y-31730367D01*
X126903258Y-31666601D01*
X127066685Y-31634093D01*
X127233315Y-31634093D01*
X127396742Y-31666601D01*
G37*
G36*
X129936742Y-31666601D02*
G01*
X130090687Y-31730367D01*
X130229234Y-31822941D01*
X130347059Y-31940766D01*
X130439633Y-32079313D01*
X130503399Y-32233258D01*
X130535907Y-32396685D01*
X130535907Y-32563315D01*
X130503399Y-32726742D01*
X130439633Y-32880687D01*
X130347059Y-33019234D01*
X130229234Y-33137059D01*
X130090687Y-33229633D01*
X129936742Y-33293399D01*
X129773315Y-33325907D01*
X129606685Y-33325907D01*
X129443258Y-33293399D01*
X129289313Y-33229633D01*
X129150766Y-33137059D01*
X129032941Y-33019234D01*
X128940367Y-32880687D01*
X128876601Y-32726742D01*
X128844093Y-32563315D01*
X128844093Y-32396685D01*
X128876601Y-32233258D01*
X128940367Y-32079313D01*
X129032941Y-31940766D01*
X129150766Y-31822941D01*
X129289313Y-31730367D01*
X129443258Y-31666601D01*
X129606685Y-31634093D01*
X129773315Y-31634093D01*
X129936742Y-31666601D01*
G37*
G36*
X132476742Y-31666601D02*
G01*
X132630687Y-31730367D01*
X132769234Y-31822941D01*
X132887059Y-31940766D01*
X132979633Y-32079313D01*
X133043399Y-32233258D01*
X133075907Y-32396685D01*
X133075907Y-32563315D01*
X133043399Y-32726742D01*
X132979633Y-32880687D01*
X132887059Y-33019234D01*
X132769234Y-33137059D01*
X132630687Y-33229633D01*
X132476742Y-33293399D01*
X132313315Y-33325907D01*
X132146685Y-33325907D01*
X131983258Y-33293399D01*
X131829313Y-33229633D01*
X131690766Y-33137059D01*
X131572941Y-33019234D01*
X131480367Y-32880687D01*
X131416601Y-32726742D01*
X131384093Y-32563315D01*
X131384093Y-32396685D01*
X131416601Y-32233258D01*
X131480367Y-32079313D01*
X131572941Y-31940766D01*
X131690766Y-31822941D01*
X131829313Y-31730367D01*
X131983258Y-31666601D01*
X132146685Y-31634093D01*
X132313315Y-31634093D01*
X132476742Y-31666601D01*
G37*
G36*
X135016742Y-31666601D02*
G01*
X135170687Y-31730367D01*
X135309234Y-31822941D01*
X135427059Y-31940766D01*
X135519633Y-32079313D01*
X135583399Y-32233258D01*
X135615907Y-32396685D01*
X135615907Y-32563315D01*
X135583399Y-32726742D01*
X135519633Y-32880687D01*
X135427059Y-33019234D01*
X135309234Y-33137059D01*
X135170687Y-33229633D01*
X135016742Y-33293399D01*
X134853315Y-33325907D01*
X134686685Y-33325907D01*
X134523258Y-33293399D01*
X134369313Y-33229633D01*
X134230766Y-33137059D01*
X134112941Y-33019234D01*
X134020367Y-32880687D01*
X133956601Y-32726742D01*
X133924093Y-32563315D01*
X133924093Y-32396685D01*
X133956601Y-32233258D01*
X134020367Y-32079313D01*
X134112941Y-31940766D01*
X134230766Y-31822941D01*
X134369313Y-31730367D01*
X134523258Y-31666601D01*
X134686685Y-31634093D01*
X134853315Y-31634093D01*
X135016742Y-31666601D01*
G37*
G36*
X137556742Y-31666601D02*
G01*
X137710687Y-31730367D01*
X137849234Y-31822941D01*
X137967059Y-31940766D01*
X138059633Y-32079313D01*
X138123399Y-32233258D01*
X138155907Y-32396685D01*
X138155907Y-32563315D01*
X138123399Y-32726742D01*
X138059633Y-32880687D01*
X137967059Y-33019234D01*
X137849234Y-33137059D01*
X137710687Y-33229633D01*
X137556742Y-33293399D01*
X137393315Y-33325907D01*
X137226685Y-33325907D01*
X137063258Y-33293399D01*
X136909313Y-33229633D01*
X136770766Y-33137059D01*
X136652941Y-33019234D01*
X136560367Y-32880687D01*
X136496601Y-32726742D01*
X136464093Y-32563315D01*
X136464093Y-32396685D01*
X136496601Y-32233258D01*
X136560367Y-32079313D01*
X136652941Y-31940766D01*
X136770766Y-31822941D01*
X136909313Y-31730367D01*
X137063258Y-31666601D01*
X137226685Y-31634093D01*
X137393315Y-31634093D01*
X137556742Y-31666601D01*
G37*
G36*
X140096742Y-31666601D02*
G01*
X140250687Y-31730367D01*
X140389234Y-31822941D01*
X140507059Y-31940766D01*
X140599633Y-32079313D01*
X140663399Y-32233258D01*
X140695907Y-32396685D01*
X140695907Y-32563315D01*
X140663399Y-32726742D01*
X140599633Y-32880687D01*
X140507059Y-33019234D01*
X140389234Y-33137059D01*
X140250687Y-33229633D01*
X140096742Y-33293399D01*
X139933315Y-33325907D01*
X139766685Y-33325907D01*
X139603258Y-33293399D01*
X139449313Y-33229633D01*
X139310766Y-33137059D01*
X139192941Y-33019234D01*
X139100367Y-32880687D01*
X139036601Y-32726742D01*
X139004093Y-32563315D01*
X139004093Y-32396685D01*
X139036601Y-32233258D01*
X139100367Y-32079313D01*
X139192941Y-31940766D01*
X139310766Y-31822941D01*
X139449313Y-31730367D01*
X139603258Y-31666601D01*
X139766685Y-31634093D01*
X139933315Y-31634093D01*
X140096742Y-31666601D01*
G37*
G36*
X142636742Y-31666601D02*
G01*
X142790687Y-31730367D01*
X142929234Y-31822941D01*
X143047059Y-31940766D01*
X143139633Y-32079313D01*
X143203399Y-32233258D01*
X143235907Y-32396685D01*
X143235907Y-32563315D01*
X143203399Y-32726742D01*
X143139633Y-32880687D01*
X143047059Y-33019234D01*
X142929234Y-33137059D01*
X142790687Y-33229633D01*
X142636742Y-33293399D01*
X142473315Y-33325907D01*
X142306685Y-33325907D01*
X142143258Y-33293399D01*
X141989313Y-33229633D01*
X141850766Y-33137059D01*
X141732941Y-33019234D01*
X141640367Y-32880687D01*
X141576601Y-32726742D01*
X141544093Y-32563315D01*
X141544093Y-32396685D01*
X141576601Y-32233258D01*
X141640367Y-32079313D01*
X141732941Y-31940766D01*
X141850766Y-31822941D01*
X141989313Y-31730367D01*
X142143258Y-31666601D01*
X142306685Y-31634093D01*
X142473315Y-31634093D01*
X142636742Y-31666601D01*
G37*
G36*
X71714047Y-12570805D02*
G01*
X71765408Y-12576764D01*
X71782954Y-12584511D01*
X71805671Y-12589030D01*
X71829991Y-12605280D01*
X71850793Y-12614465D01*
X71865000Y-12628672D01*
X71886777Y-12643223D01*
X71901327Y-12664999D01*
X71915534Y-12679206D01*
X71924718Y-12700006D01*
X71940970Y-12724329D01*
X71945489Y-12747048D01*
X71953235Y-12764591D01*
X71959192Y-12815940D01*
X71960000Y-12820000D01*
X71960000Y-14020000D01*
X71959192Y-14024059D01*
X71953235Y-14075408D01*
X71945489Y-14092950D01*
X71940970Y-14115671D01*
X71924716Y-14139995D01*
X71915534Y-14160793D01*
X71901329Y-14174997D01*
X71886777Y-14196777D01*
X71864997Y-14211329D01*
X71850793Y-14225534D01*
X71829995Y-14234716D01*
X71805671Y-14250970D01*
X71782950Y-14255489D01*
X71765408Y-14263235D01*
X71714061Y-14269192D01*
X71710000Y-14270000D01*
X70510000Y-14270000D01*
X70505941Y-14269192D01*
X70454591Y-14263235D01*
X70437048Y-14255489D01*
X70414329Y-14250970D01*
X70390006Y-14234718D01*
X70369206Y-14225534D01*
X70354999Y-14211327D01*
X70333223Y-14196777D01*
X70318672Y-14175000D01*
X70304465Y-14160793D01*
X70295280Y-14139991D01*
X70279030Y-14115671D01*
X70274511Y-14092954D01*
X70266764Y-14075408D01*
X70260805Y-14024049D01*
X70260000Y-14020000D01*
X70260000Y-12820000D01*
X70260804Y-12815953D01*
X70266764Y-12764591D01*
X70274511Y-12747043D01*
X70279030Y-12724329D01*
X70295278Y-12700010D01*
X70304465Y-12679206D01*
X70318674Y-12664996D01*
X70333223Y-12643223D01*
X70354996Y-12628674D01*
X70369206Y-12614465D01*
X70390010Y-12605278D01*
X70414329Y-12589030D01*
X70437043Y-12584511D01*
X70454591Y-12576764D01*
X70505952Y-12570805D01*
X70510000Y-12570000D01*
X71710000Y-12570000D01*
X71714047Y-12570805D01*
G37*
G36*
X129024046Y-12570805D02*
G01*
X129075407Y-12576764D01*
X129092953Y-12584511D01*
X129115670Y-12589030D01*
X129139990Y-12605280D01*
X129160792Y-12614465D01*
X129174999Y-12628672D01*
X129196776Y-12643223D01*
X129211326Y-12664999D01*
X129225533Y-12679206D01*
X129234717Y-12700006D01*
X129250969Y-12724329D01*
X129255488Y-12747048D01*
X129263234Y-12764591D01*
X129269191Y-12815940D01*
X129269999Y-12820000D01*
X129269999Y-14020000D01*
X129269191Y-14024059D01*
X129263234Y-14075408D01*
X129255488Y-14092950D01*
X129250969Y-14115671D01*
X129234715Y-14139995D01*
X129225533Y-14160793D01*
X129211328Y-14174997D01*
X129196776Y-14196777D01*
X129174996Y-14211329D01*
X129160792Y-14225534D01*
X129139994Y-14234716D01*
X129115670Y-14250970D01*
X129092949Y-14255489D01*
X129075407Y-14263235D01*
X129024060Y-14269192D01*
X129019999Y-14270000D01*
X127819999Y-14270000D01*
X127815940Y-14269192D01*
X127764590Y-14263235D01*
X127747047Y-14255489D01*
X127724328Y-14250970D01*
X127700005Y-14234718D01*
X127679205Y-14225534D01*
X127664998Y-14211327D01*
X127643222Y-14196777D01*
X127628671Y-14175000D01*
X127614464Y-14160793D01*
X127605279Y-14139991D01*
X127589029Y-14115671D01*
X127584510Y-14092954D01*
X127576763Y-14075408D01*
X127570804Y-14024049D01*
X127569999Y-14020000D01*
X127569999Y-12820000D01*
X127570803Y-12815953D01*
X127576763Y-12764591D01*
X127584510Y-12747043D01*
X127589029Y-12724329D01*
X127605277Y-12700010D01*
X127614464Y-12679206D01*
X127628673Y-12664996D01*
X127643222Y-12643223D01*
X127664995Y-12628674D01*
X127679205Y-12614465D01*
X127700009Y-12605278D01*
X127724328Y-12589030D01*
X127747042Y-12584511D01*
X127764590Y-12576764D01*
X127815951Y-12570805D01*
X127819999Y-12570000D01*
X129019999Y-12570000D01*
X129024046Y-12570805D01*
G37*
G36*
X73896742Y-12606601D02*
G01*
X74050687Y-12670367D01*
X74189234Y-12762941D01*
X74307059Y-12880766D01*
X74399633Y-13019313D01*
X74463399Y-13173258D01*
X74495907Y-13336685D01*
X74495907Y-13503315D01*
X74463399Y-13666742D01*
X74399633Y-13820687D01*
X74307059Y-13959234D01*
X74189234Y-14077059D01*
X74050687Y-14169633D01*
X73896742Y-14233399D01*
X73733315Y-14265907D01*
X73566685Y-14265907D01*
X73403258Y-14233399D01*
X73249313Y-14169633D01*
X73110766Y-14077059D01*
X72992941Y-13959234D01*
X72900367Y-13820687D01*
X72836601Y-13666742D01*
X72804093Y-13503315D01*
X72804093Y-13336685D01*
X72836601Y-13173258D01*
X72900367Y-13019313D01*
X72992941Y-12880766D01*
X73110766Y-12762941D01*
X73249313Y-12670367D01*
X73403258Y-12606601D01*
X73566685Y-12574093D01*
X73733315Y-12574093D01*
X73896742Y-12606601D01*
G37*
G36*
X76436742Y-12606601D02*
G01*
X76590687Y-12670367D01*
X76729234Y-12762941D01*
X76847059Y-12880766D01*
X76939633Y-13019313D01*
X77003399Y-13173258D01*
X77035907Y-13336685D01*
X77035907Y-13503315D01*
X77003399Y-13666742D01*
X76939633Y-13820687D01*
X76847059Y-13959234D01*
X76729234Y-14077059D01*
X76590687Y-14169633D01*
X76436742Y-14233399D01*
X76273315Y-14265907D01*
X76106685Y-14265907D01*
X75943258Y-14233399D01*
X75789313Y-14169633D01*
X75650766Y-14077059D01*
X75532941Y-13959234D01*
X75440367Y-13820687D01*
X75376601Y-13666742D01*
X75344093Y-13503315D01*
X75344093Y-13336685D01*
X75376601Y-13173258D01*
X75440367Y-13019313D01*
X75532941Y-12880766D01*
X75650766Y-12762941D01*
X75789313Y-12670367D01*
X75943258Y-12606601D01*
X76106685Y-12574093D01*
X76273315Y-12574093D01*
X76436742Y-12606601D01*
G37*
G36*
X78976742Y-12606601D02*
G01*
X79130687Y-12670367D01*
X79269234Y-12762941D01*
X79387059Y-12880766D01*
X79479633Y-13019313D01*
X79543399Y-13173258D01*
X79575907Y-13336685D01*
X79575907Y-13503315D01*
X79543399Y-13666742D01*
X79479633Y-13820687D01*
X79387059Y-13959234D01*
X79269234Y-14077059D01*
X79130687Y-14169633D01*
X78976742Y-14233399D01*
X78813315Y-14265907D01*
X78646685Y-14265907D01*
X78483258Y-14233399D01*
X78329313Y-14169633D01*
X78190766Y-14077059D01*
X78072941Y-13959234D01*
X77980367Y-13820687D01*
X77916601Y-13666742D01*
X77884093Y-13503315D01*
X77884093Y-13336685D01*
X77916601Y-13173258D01*
X77980367Y-13019313D01*
X78072941Y-12880766D01*
X78190766Y-12762941D01*
X78329313Y-12670367D01*
X78483258Y-12606601D01*
X78646685Y-12574093D01*
X78813315Y-12574093D01*
X78976742Y-12606601D01*
G37*
G36*
X81516742Y-12606601D02*
G01*
X81670687Y-12670367D01*
X81809234Y-12762941D01*
X81927059Y-12880766D01*
X82019633Y-13019313D01*
X82083399Y-13173258D01*
X82115907Y-13336685D01*
X82115907Y-13503315D01*
X82083399Y-13666742D01*
X82019633Y-13820687D01*
X81927059Y-13959234D01*
X81809234Y-14077059D01*
X81670687Y-14169633D01*
X81516742Y-14233399D01*
X81353315Y-14265907D01*
X81186685Y-14265907D01*
X81023258Y-14233399D01*
X80869313Y-14169633D01*
X80730766Y-14077059D01*
X80612941Y-13959234D01*
X80520367Y-13820687D01*
X80456601Y-13666742D01*
X80424093Y-13503315D01*
X80424093Y-13336685D01*
X80456601Y-13173258D01*
X80520367Y-13019313D01*
X80612941Y-12880766D01*
X80730766Y-12762941D01*
X80869313Y-12670367D01*
X81023258Y-12606601D01*
X81186685Y-12574093D01*
X81353315Y-12574093D01*
X81516742Y-12606601D01*
G37*
G36*
X84056742Y-12606601D02*
G01*
X84210687Y-12670367D01*
X84349234Y-12762941D01*
X84467059Y-12880766D01*
X84559633Y-13019313D01*
X84623399Y-13173258D01*
X84655907Y-13336685D01*
X84655907Y-13503315D01*
X84623399Y-13666742D01*
X84559633Y-13820687D01*
X84467059Y-13959234D01*
X84349234Y-14077059D01*
X84210687Y-14169633D01*
X84056742Y-14233399D01*
X83893315Y-14265907D01*
X83726685Y-14265907D01*
X83563258Y-14233399D01*
X83409313Y-14169633D01*
X83270766Y-14077059D01*
X83152941Y-13959234D01*
X83060367Y-13820687D01*
X82996601Y-13666742D01*
X82964093Y-13503315D01*
X82964093Y-13336685D01*
X82996601Y-13173258D01*
X83060367Y-13019313D01*
X83152941Y-12880766D01*
X83270766Y-12762941D01*
X83409313Y-12670367D01*
X83563258Y-12606601D01*
X83726685Y-12574093D01*
X83893315Y-12574093D01*
X84056742Y-12606601D01*
G37*
G36*
X86596742Y-12606601D02*
G01*
X86750687Y-12670367D01*
X86889234Y-12762941D01*
X87007059Y-12880766D01*
X87099633Y-13019313D01*
X87163399Y-13173258D01*
X87195907Y-13336685D01*
X87195907Y-13503315D01*
X87163399Y-13666742D01*
X87099633Y-13820687D01*
X87007059Y-13959234D01*
X86889234Y-14077059D01*
X86750687Y-14169633D01*
X86596742Y-14233399D01*
X86433315Y-14265907D01*
X86266685Y-14265907D01*
X86103258Y-14233399D01*
X85949313Y-14169633D01*
X85810766Y-14077059D01*
X85692941Y-13959234D01*
X85600367Y-13820687D01*
X85536601Y-13666742D01*
X85504093Y-13503315D01*
X85504093Y-13336685D01*
X85536601Y-13173258D01*
X85600367Y-13019313D01*
X85692941Y-12880766D01*
X85810766Y-12762941D01*
X85949313Y-12670367D01*
X86103258Y-12606601D01*
X86266685Y-12574093D01*
X86433315Y-12574093D01*
X86596742Y-12606601D01*
G37*
G36*
X89136742Y-12606601D02*
G01*
X89290687Y-12670367D01*
X89429234Y-12762941D01*
X89547059Y-12880766D01*
X89639633Y-13019313D01*
X89703399Y-13173258D01*
X89735907Y-13336685D01*
X89735907Y-13503315D01*
X89703399Y-13666742D01*
X89639633Y-13820687D01*
X89547059Y-13959234D01*
X89429234Y-14077059D01*
X89290687Y-14169633D01*
X89136742Y-14233399D01*
X88973315Y-14265907D01*
X88806685Y-14265907D01*
X88643258Y-14233399D01*
X88489313Y-14169633D01*
X88350766Y-14077059D01*
X88232941Y-13959234D01*
X88140367Y-13820687D01*
X88076601Y-13666742D01*
X88044093Y-13503315D01*
X88044093Y-13336685D01*
X88076601Y-13173258D01*
X88140367Y-13019313D01*
X88232941Y-12880766D01*
X88350766Y-12762941D01*
X88489313Y-12670367D01*
X88643258Y-12606601D01*
X88806685Y-12574093D01*
X88973315Y-12574093D01*
X89136742Y-12606601D01*
G37*
G36*
X131206741Y-12606601D02*
G01*
X131360686Y-12670367D01*
X131499233Y-12762941D01*
X131617058Y-12880766D01*
X131709632Y-13019313D01*
X131773398Y-13173258D01*
X131805906Y-13336685D01*
X131805906Y-13503315D01*
X131773398Y-13666742D01*
X131709632Y-13820687D01*
X131617058Y-13959234D01*
X131499233Y-14077059D01*
X131360686Y-14169633D01*
X131206741Y-14233399D01*
X131043314Y-14265907D01*
X130876684Y-14265907D01*
X130713257Y-14233399D01*
X130559312Y-14169633D01*
X130420765Y-14077059D01*
X130302940Y-13959234D01*
X130210366Y-13820687D01*
X130146600Y-13666742D01*
X130114092Y-13503315D01*
X130114092Y-13336685D01*
X130146600Y-13173258D01*
X130210366Y-13019313D01*
X130302940Y-12880766D01*
X130420765Y-12762941D01*
X130559312Y-12670367D01*
X130713257Y-12606601D01*
X130876684Y-12574093D01*
X131043314Y-12574093D01*
X131206741Y-12606601D01*
G37*
G36*
X133746741Y-12606601D02*
G01*
X133900686Y-12670367D01*
X134039233Y-12762941D01*
X134157058Y-12880766D01*
X134249632Y-13019313D01*
X134313398Y-13173258D01*
X134345906Y-13336685D01*
X134345906Y-13503315D01*
X134313398Y-13666742D01*
X134249632Y-13820687D01*
X134157058Y-13959234D01*
X134039233Y-14077059D01*
X133900686Y-14169633D01*
X133746741Y-14233399D01*
X133583314Y-14265907D01*
X133416684Y-14265907D01*
X133253257Y-14233399D01*
X133099312Y-14169633D01*
X132960765Y-14077059D01*
X132842940Y-13959234D01*
X132750366Y-13820687D01*
X132686600Y-13666742D01*
X132654092Y-13503315D01*
X132654092Y-13336685D01*
X132686600Y-13173258D01*
X132750366Y-13019313D01*
X132842940Y-12880766D01*
X132960765Y-12762941D01*
X133099312Y-12670367D01*
X133253257Y-12606601D01*
X133416684Y-12574093D01*
X133583314Y-12574093D01*
X133746741Y-12606601D01*
G37*
G36*
X136286741Y-12606601D02*
G01*
X136440686Y-12670367D01*
X136579233Y-12762941D01*
X136697058Y-12880766D01*
X136789632Y-13019313D01*
X136853398Y-13173258D01*
X136885906Y-13336685D01*
X136885906Y-13503315D01*
X136853398Y-13666742D01*
X136789632Y-13820687D01*
X136697058Y-13959234D01*
X136579233Y-14077059D01*
X136440686Y-14169633D01*
X136286741Y-14233399D01*
X136123314Y-14265907D01*
X135956684Y-14265907D01*
X135793257Y-14233399D01*
X135639312Y-14169633D01*
X135500765Y-14077059D01*
X135382940Y-13959234D01*
X135290366Y-13820687D01*
X135226600Y-13666742D01*
X135194092Y-13503315D01*
X135194092Y-13336685D01*
X135226600Y-13173258D01*
X135290366Y-13019313D01*
X135382940Y-12880766D01*
X135500765Y-12762941D01*
X135639312Y-12670367D01*
X135793257Y-12606601D01*
X135956684Y-12574093D01*
X136123314Y-12574093D01*
X136286741Y-12606601D01*
G37*
G36*
X138826741Y-12606601D02*
G01*
X138980686Y-12670367D01*
X139119233Y-12762941D01*
X139237058Y-12880766D01*
X139329632Y-13019313D01*
X139393398Y-13173258D01*
X139425906Y-13336685D01*
X139425906Y-13503315D01*
X139393398Y-13666742D01*
X139329632Y-13820687D01*
X139237058Y-13959234D01*
X139119233Y-14077059D01*
X138980686Y-14169633D01*
X138826741Y-14233399D01*
X138663314Y-14265907D01*
X138496684Y-14265907D01*
X138333257Y-14233399D01*
X138179312Y-14169633D01*
X138040765Y-14077059D01*
X137922940Y-13959234D01*
X137830366Y-13820687D01*
X137766600Y-13666742D01*
X137734092Y-13503315D01*
X137734092Y-13336685D01*
X137766600Y-13173258D01*
X137830366Y-13019313D01*
X137922940Y-12880766D01*
X138040765Y-12762941D01*
X138179312Y-12670367D01*
X138333257Y-12606601D01*
X138496684Y-12574093D01*
X138663314Y-12574093D01*
X138826741Y-12606601D01*
G37*
G36*
X71356742Y-10066601D02*
G01*
X71510687Y-10130367D01*
X71649234Y-10222941D01*
X71767059Y-10340766D01*
X71859633Y-10479313D01*
X71923399Y-10633258D01*
X71955907Y-10796685D01*
X71955907Y-10963315D01*
X71923399Y-11126742D01*
X71859633Y-11280687D01*
X71767059Y-11419234D01*
X71649234Y-11537059D01*
X71510687Y-11629633D01*
X71356742Y-11693399D01*
X71193315Y-11725907D01*
X71026685Y-11725907D01*
X70863258Y-11693399D01*
X70709313Y-11629633D01*
X70570766Y-11537059D01*
X70452941Y-11419234D01*
X70360367Y-11280687D01*
X70296601Y-11126742D01*
X70264093Y-10963315D01*
X70264093Y-10796685D01*
X70296601Y-10633258D01*
X70360367Y-10479313D01*
X70452941Y-10340766D01*
X70570766Y-10222941D01*
X70709313Y-10130367D01*
X70863258Y-10066601D01*
X71026685Y-10034093D01*
X71193315Y-10034093D01*
X71356742Y-10066601D01*
G37*
G36*
X73896742Y-10066601D02*
G01*
X74050687Y-10130367D01*
X74189234Y-10222941D01*
X74307059Y-10340766D01*
X74399633Y-10479313D01*
X74463399Y-10633258D01*
X74495907Y-10796685D01*
X74495907Y-10963315D01*
X74463399Y-11126742D01*
X74399633Y-11280687D01*
X74307059Y-11419234D01*
X74189234Y-11537059D01*
X74050687Y-11629633D01*
X73896742Y-11693399D01*
X73733315Y-11725907D01*
X73566685Y-11725907D01*
X73403258Y-11693399D01*
X73249313Y-11629633D01*
X73110766Y-11537059D01*
X72992941Y-11419234D01*
X72900367Y-11280687D01*
X72836601Y-11126742D01*
X72804093Y-10963315D01*
X72804093Y-10796685D01*
X72836601Y-10633258D01*
X72900367Y-10479313D01*
X72992941Y-10340766D01*
X73110766Y-10222941D01*
X73249313Y-10130367D01*
X73403258Y-10066601D01*
X73566685Y-10034093D01*
X73733315Y-10034093D01*
X73896742Y-10066601D01*
G37*
G36*
X76436742Y-10066601D02*
G01*
X76590687Y-10130367D01*
X76729234Y-10222941D01*
X76847059Y-10340766D01*
X76939633Y-10479313D01*
X77003399Y-10633258D01*
X77035907Y-10796685D01*
X77035907Y-10963315D01*
X77003399Y-11126742D01*
X76939633Y-11280687D01*
X76847059Y-11419234D01*
X76729234Y-11537059D01*
X76590687Y-11629633D01*
X76436742Y-11693399D01*
X76273315Y-11725907D01*
X76106685Y-11725907D01*
X75943258Y-11693399D01*
X75789313Y-11629633D01*
X75650766Y-11537059D01*
X75532941Y-11419234D01*
X75440367Y-11280687D01*
X75376601Y-11126742D01*
X75344093Y-10963315D01*
X75344093Y-10796685D01*
X75376601Y-10633258D01*
X75440367Y-10479313D01*
X75532941Y-10340766D01*
X75650766Y-10222941D01*
X75789313Y-10130367D01*
X75943258Y-10066601D01*
X76106685Y-10034093D01*
X76273315Y-10034093D01*
X76436742Y-10066601D01*
G37*
G36*
X78976742Y-10066601D02*
G01*
X79130687Y-10130367D01*
X79269234Y-10222941D01*
X79387059Y-10340766D01*
X79479633Y-10479313D01*
X79543399Y-10633258D01*
X79575907Y-10796685D01*
X79575907Y-10963315D01*
X79543399Y-11126742D01*
X79479633Y-11280687D01*
X79387059Y-11419234D01*
X79269234Y-11537059D01*
X79130687Y-11629633D01*
X78976742Y-11693399D01*
X78813315Y-11725907D01*
X78646685Y-11725907D01*
X78483258Y-11693399D01*
X78329313Y-11629633D01*
X78190766Y-11537059D01*
X78072941Y-11419234D01*
X77980367Y-11280687D01*
X77916601Y-11126742D01*
X77884093Y-10963315D01*
X77884093Y-10796685D01*
X77916601Y-10633258D01*
X77980367Y-10479313D01*
X78072941Y-10340766D01*
X78190766Y-10222941D01*
X78329313Y-10130367D01*
X78483258Y-10066601D01*
X78646685Y-10034093D01*
X78813315Y-10034093D01*
X78976742Y-10066601D01*
G37*
G36*
X81516742Y-10066601D02*
G01*
X81670687Y-10130367D01*
X81809234Y-10222941D01*
X81927059Y-10340766D01*
X82019633Y-10479313D01*
X82083399Y-10633258D01*
X82115907Y-10796685D01*
X82115907Y-10963315D01*
X82083399Y-11126742D01*
X82019633Y-11280687D01*
X81927059Y-11419234D01*
X81809234Y-11537059D01*
X81670687Y-11629633D01*
X81516742Y-11693399D01*
X81353315Y-11725907D01*
X81186685Y-11725907D01*
X81023258Y-11693399D01*
X80869313Y-11629633D01*
X80730766Y-11537059D01*
X80612941Y-11419234D01*
X80520367Y-11280687D01*
X80456601Y-11126742D01*
X80424093Y-10963315D01*
X80424093Y-10796685D01*
X80456601Y-10633258D01*
X80520367Y-10479313D01*
X80612941Y-10340766D01*
X80730766Y-10222941D01*
X80869313Y-10130367D01*
X81023258Y-10066601D01*
X81186685Y-10034093D01*
X81353315Y-10034093D01*
X81516742Y-10066601D01*
G37*
G36*
X84056742Y-10066601D02*
G01*
X84210687Y-10130367D01*
X84349234Y-10222941D01*
X84467059Y-10340766D01*
X84559633Y-10479313D01*
X84623399Y-10633258D01*
X84655907Y-10796685D01*
X84655907Y-10963315D01*
X84623399Y-11126742D01*
X84559633Y-11280687D01*
X84467059Y-11419234D01*
X84349234Y-11537059D01*
X84210687Y-11629633D01*
X84056742Y-11693399D01*
X83893315Y-11725907D01*
X83726685Y-11725907D01*
X83563258Y-11693399D01*
X83409313Y-11629633D01*
X83270766Y-11537059D01*
X83152941Y-11419234D01*
X83060367Y-11280687D01*
X82996601Y-11126742D01*
X82964093Y-10963315D01*
X82964093Y-10796685D01*
X82996601Y-10633258D01*
X83060367Y-10479313D01*
X83152941Y-10340766D01*
X83270766Y-10222941D01*
X83409313Y-10130367D01*
X83563258Y-10066601D01*
X83726685Y-10034093D01*
X83893315Y-10034093D01*
X84056742Y-10066601D01*
G37*
G36*
X86596742Y-10066601D02*
G01*
X86750687Y-10130367D01*
X86889234Y-10222941D01*
X87007059Y-10340766D01*
X87099633Y-10479313D01*
X87163399Y-10633258D01*
X87195907Y-10796685D01*
X87195907Y-10963315D01*
X87163399Y-11126742D01*
X87099633Y-11280687D01*
X87007059Y-11419234D01*
X86889234Y-11537059D01*
X86750687Y-11629633D01*
X86596742Y-11693399D01*
X86433315Y-11725907D01*
X86266685Y-11725907D01*
X86103258Y-11693399D01*
X85949313Y-11629633D01*
X85810766Y-11537059D01*
X85692941Y-11419234D01*
X85600367Y-11280687D01*
X85536601Y-11126742D01*
X85504093Y-10963315D01*
X85504093Y-10796685D01*
X85536601Y-10633258D01*
X85600367Y-10479313D01*
X85692941Y-10340766D01*
X85810766Y-10222941D01*
X85949313Y-10130367D01*
X86103258Y-10066601D01*
X86266685Y-10034093D01*
X86433315Y-10034093D01*
X86596742Y-10066601D01*
G37*
G36*
X89136742Y-10066601D02*
G01*
X89290687Y-10130367D01*
X89429234Y-10222941D01*
X89547059Y-10340766D01*
X89639633Y-10479313D01*
X89703399Y-10633258D01*
X89735907Y-10796685D01*
X89735907Y-10963315D01*
X89703399Y-11126742D01*
X89639633Y-11280687D01*
X89547059Y-11419234D01*
X89429234Y-11537059D01*
X89290687Y-11629633D01*
X89136742Y-11693399D01*
X88973315Y-11725907D01*
X88806685Y-11725907D01*
X88643258Y-11693399D01*
X88489313Y-11629633D01*
X88350766Y-11537059D01*
X88232941Y-11419234D01*
X88140367Y-11280687D01*
X88076601Y-11126742D01*
X88044093Y-10963315D01*
X88044093Y-10796685D01*
X88076601Y-10633258D01*
X88140367Y-10479313D01*
X88232941Y-10340766D01*
X88350766Y-10222941D01*
X88489313Y-10130367D01*
X88643258Y-10066601D01*
X88806685Y-10034093D01*
X88973315Y-10034093D01*
X89136742Y-10066601D01*
G37*
G36*
X128666741Y-10066601D02*
G01*
X128820686Y-10130367D01*
X128959233Y-10222941D01*
X129077058Y-10340766D01*
X129169632Y-10479313D01*
X129233398Y-10633258D01*
X129265906Y-10796685D01*
X129265906Y-10963315D01*
X129233398Y-11126742D01*
X129169632Y-11280687D01*
X129077058Y-11419234D01*
X128959233Y-11537059D01*
X128820686Y-11629633D01*
X128666741Y-11693399D01*
X128503314Y-11725907D01*
X128336684Y-11725907D01*
X128173257Y-11693399D01*
X128019312Y-11629633D01*
X127880765Y-11537059D01*
X127762940Y-11419234D01*
X127670366Y-11280687D01*
X127606600Y-11126742D01*
X127574092Y-10963315D01*
X127574092Y-10796685D01*
X127606600Y-10633258D01*
X127670366Y-10479313D01*
X127762940Y-10340766D01*
X127880765Y-10222941D01*
X128019312Y-10130367D01*
X128173257Y-10066601D01*
X128336684Y-10034093D01*
X128503314Y-10034093D01*
X128666741Y-10066601D01*
G37*
G36*
X131206741Y-10066601D02*
G01*
X131360686Y-10130367D01*
X131499233Y-10222941D01*
X131617058Y-10340766D01*
X131709632Y-10479313D01*
X131773398Y-10633258D01*
X131805906Y-10796685D01*
X131805906Y-10963315D01*
X131773398Y-11126742D01*
X131709632Y-11280687D01*
X131617058Y-11419234D01*
X131499233Y-11537059D01*
X131360686Y-11629633D01*
X131206741Y-11693399D01*
X131043314Y-11725907D01*
X130876684Y-11725907D01*
X130713257Y-11693399D01*
X130559312Y-11629633D01*
X130420765Y-11537059D01*
X130302940Y-11419234D01*
X130210366Y-11280687D01*
X130146600Y-11126742D01*
X130114092Y-10963315D01*
X130114092Y-10796685D01*
X130146600Y-10633258D01*
X130210366Y-10479313D01*
X130302940Y-10340766D01*
X130420765Y-10222941D01*
X130559312Y-10130367D01*
X130713257Y-10066601D01*
X130876684Y-10034093D01*
X131043314Y-10034093D01*
X131206741Y-10066601D01*
G37*
G36*
X133746741Y-10066601D02*
G01*
X133900686Y-10130367D01*
X134039233Y-10222941D01*
X134157058Y-10340766D01*
X134249632Y-10479313D01*
X134313398Y-10633258D01*
X134345906Y-10796685D01*
X134345906Y-10963315D01*
X134313398Y-11126742D01*
X134249632Y-11280687D01*
X134157058Y-11419234D01*
X134039233Y-11537059D01*
X133900686Y-11629633D01*
X133746741Y-11693399D01*
X133583314Y-11725907D01*
X133416684Y-11725907D01*
X133253257Y-11693399D01*
X133099312Y-11629633D01*
X132960765Y-11537059D01*
X132842940Y-11419234D01*
X132750366Y-11280687D01*
X132686600Y-11126742D01*
X132654092Y-10963315D01*
X132654092Y-10796685D01*
X132686600Y-10633258D01*
X132750366Y-10479313D01*
X132842940Y-10340766D01*
X132960765Y-10222941D01*
X133099312Y-10130367D01*
X133253257Y-10066601D01*
X133416684Y-10034093D01*
X133583314Y-10034093D01*
X133746741Y-10066601D01*
G37*
G36*
X136286741Y-10066601D02*
G01*
X136440686Y-10130367D01*
X136579233Y-10222941D01*
X136697058Y-10340766D01*
X136789632Y-10479313D01*
X136853398Y-10633258D01*
X136885906Y-10796685D01*
X136885906Y-10963315D01*
X136853398Y-11126742D01*
X136789632Y-11280687D01*
X136697058Y-11419234D01*
X136579233Y-11537059D01*
X136440686Y-11629633D01*
X136286741Y-11693399D01*
X136123314Y-11725907D01*
X135956684Y-11725907D01*
X135793257Y-11693399D01*
X135639312Y-11629633D01*
X135500765Y-11537059D01*
X135382940Y-11419234D01*
X135290366Y-11280687D01*
X135226600Y-11126742D01*
X135194092Y-10963315D01*
X135194092Y-10796685D01*
X135226600Y-10633258D01*
X135290366Y-10479313D01*
X135382940Y-10340766D01*
X135500765Y-10222941D01*
X135639312Y-10130367D01*
X135793257Y-10066601D01*
X135956684Y-10034093D01*
X136123314Y-10034093D01*
X136286741Y-10066601D01*
G37*
G36*
X138826741Y-10066601D02*
G01*
X138980686Y-10130367D01*
X139119233Y-10222941D01*
X139237058Y-10340766D01*
X139329632Y-10479313D01*
X139393398Y-10633258D01*
X139425906Y-10796685D01*
X139425906Y-10963315D01*
X139393398Y-11126742D01*
X139329632Y-11280687D01*
X139237058Y-11419234D01*
X139119233Y-11537059D01*
X138980686Y-11629633D01*
X138826741Y-11693399D01*
X138663314Y-11725907D01*
X138496684Y-11725907D01*
X138333257Y-11693399D01*
X138179312Y-11629633D01*
X138040765Y-11537059D01*
X137922940Y-11419234D01*
X137830366Y-11280687D01*
X137766600Y-11126742D01*
X137734092Y-10963315D01*
X137734092Y-10796685D01*
X137766600Y-10633258D01*
X137830366Y-10479313D01*
X137922940Y-10340766D01*
X138040765Y-10222941D01*
X138179312Y-10130367D01*
X138333257Y-10066601D01*
X138496684Y-10034093D01*
X138663314Y-10034093D01*
X138826741Y-10066601D01*
G37*
%LPD*%
M02*
