M48
; DRILL file KiCad 10.0.6 date 2026-10-04T20:55:17
; FORMAT={-:-/ absolute / metric / decimal}
; #@! TF.CreationDate,2026-10-04T20:55:17+02:00
; #@! TF.GenerationSoftware,Kicad,Pcbnew,10.0.6
; #@! TF.FileFunction,Plated,1,2,PTH
FMAT,2
METRIC
; #@! TA.AperFunction,Plated,PTH,ViaDrill
T1C0.400
; #@! TA.AperFunction,Plated,PTH,ComponentDrill
T2C1.000
%
G90
G05
T1
X5.0Y-10.0
X5.0Y-30.0
X5.0Y-50.0
X5.0Y-70.0
X10.0Y-20.0
X10.0Y-40.0
X15.0Y-10.0
X15.0Y-30.0
X15.0Y-50.0
X15.0Y-70.0
X20.0Y-20.0
X20.0Y-40.0
X25.0Y-10.0
X30.0Y-20.0
X35.0Y-10.0
X35.0Y-50.0
X40.0Y-20.0
X42.175Y-46.003
X45.0Y-30.0
X45.0Y-70.0
X50.0Y-40.0
X50.0Y-60.0
X55.0Y-30.0
X55.0Y-50.0
X55.0Y-70.0
X60.0Y-20.0
X60.0Y-40.0
X60.0Y-60.0
X65.0Y-50.0
X70.0Y-20.0
X80.0Y-20.0
X90.0Y-20.0
X90.0Y-40.0
X95.0Y-50.0
X100.0Y-20.0
X100.0Y-40.0
X105.0Y-30.0
X105.0Y-50.0
X110.0Y-20.0
X110.0Y-40.0
X115.0Y-30.0
X115.0Y-50.0
X120.0Y-20.0
X126.035Y-9.72
X130.0Y-20.0
X135.0Y-70.0
X140.0Y-20.0
X140.0Y-40.0
X145.0Y-10.0
X145.0Y-50.0
X145.0Y-70.0
X150.0Y-20.0
X150.0Y-40.0
X155.0Y-10.0
X155.0Y-30.0
X155.0Y-50.0
X155.0Y-70.0
T2
X15.07Y-54.08
X15.07Y-56.62
X15.07Y-80.68
X15.07Y-83.22
X17.61Y-54.08
X17.61Y-56.62
X17.61Y-80.68
X17.61Y-83.22
X20.15Y-54.08
X20.15Y-56.62
X20.15Y-80.68
X20.15Y-83.22
X21.42Y-32.48
X21.42Y-35.02
X22.69Y-54.08
X22.69Y-56.62
X22.69Y-80.68
X22.69Y-83.22
X23.96Y-32.48
X23.96Y-35.02
X25.23Y-54.08
X25.23Y-56.62
X25.23Y-80.68
X25.23Y-83.22
X26.5Y-32.48
X26.5Y-35.02
X27.77Y-54.08
X27.77Y-56.62
X27.77Y-80.68
X27.77Y-83.22
X29.04Y-32.48
X29.04Y-35.02
X30.31Y-54.08
X30.31Y-56.62
X30.31Y-80.68
X30.31Y-83.22
X31.58Y-32.48
X31.58Y-35.02
X32.85Y-54.08
X32.85Y-56.62
X32.85Y-80.68
X32.85Y-83.22
X35.39Y-54.08
X35.39Y-56.62
X35.39Y-80.68
X35.39Y-83.22
X37.93Y-54.08
X37.93Y-56.62
X37.93Y-80.68
X37.93Y-83.22
X68.57Y-32.48
X68.57Y-35.02
X68.57Y-54.08
X68.57Y-56.62
X71.11Y-10.88
X71.11Y-13.42
X71.11Y-32.48
X71.11Y-35.02
X71.11Y-54.08
X71.11Y-56.62
X73.65Y-10.88
X73.65Y-13.42
X73.65Y-32.48
X73.65Y-35.02
X73.65Y-54.08
X73.65Y-56.62
X76.19Y-10.88
X76.19Y-13.42
X76.19Y-32.48
X76.19Y-35.02
X76.19Y-54.08
X76.19Y-56.62
X78.73Y-10.88
X78.73Y-13.42
X78.73Y-32.48
X78.73Y-35.02
X78.73Y-54.08
X78.73Y-56.62
X81.27Y-10.88
X81.27Y-13.42
X81.27Y-32.48
X81.27Y-35.02
X81.27Y-54.08
X81.27Y-56.62
X83.81Y-10.88
X83.81Y-13.42
X83.81Y-32.48
X83.81Y-35.02
X83.81Y-54.08
X83.81Y-56.62
X86.35Y-10.88
X86.35Y-13.42
X86.35Y-32.48
X86.35Y-35.02
X86.35Y-54.08
X86.35Y-56.62
X88.89Y-10.88
X88.89Y-13.42
X88.89Y-32.48
X88.89Y-35.02
X88.89Y-54.08
X88.89Y-56.62
X91.43Y-32.48
X91.43Y-35.02
X91.43Y-54.08
X91.43Y-56.62
X94.0Y-81.95
X100.0Y-81.95
X106.0Y-81.95
X112.0Y-81.95
X122.07Y-54.08
X122.07Y-56.62
X122.07Y-80.68
X122.07Y-83.22
X124.61Y-32.48
X124.61Y-35.02
X124.61Y-54.08
X124.61Y-56.62
X124.61Y-80.68
X124.61Y-83.22
X127.15Y-32.48
X127.15Y-35.02
X127.15Y-54.08
X127.15Y-56.62
X127.15Y-80.68
X127.15Y-83.22
X128.42Y-10.88
X128.42Y-13.42
X129.69Y-32.48
X129.69Y-35.02
X129.69Y-54.08
X129.69Y-56.62
X129.69Y-80.68
X129.69Y-83.22
X130.96Y-10.88
X130.96Y-13.42
X132.23Y-32.48
X132.23Y-35.02
X132.23Y-54.08
X132.23Y-56.62
X132.23Y-80.68
X132.23Y-83.22
X133.5Y-10.88
X133.5Y-13.42
X134.77Y-32.48
X134.77Y-35.02
X134.77Y-54.08
X134.77Y-56.62
X134.77Y-80.68
X134.77Y-83.22
X136.04Y-10.88
X136.04Y-13.42
X137.31Y-32.48
X137.31Y-35.02
X137.31Y-54.08
X137.31Y-56.62
X137.31Y-80.68
X137.31Y-83.22
X138.58Y-10.88
X138.58Y-13.42
X139.85Y-32.48
X139.85Y-35.02
X139.85Y-54.08
X139.85Y-56.62
X139.85Y-80.68
X139.85Y-83.22
X142.39Y-32.48
X142.39Y-35.02
X142.39Y-54.08
X142.39Y-56.62
X142.39Y-80.68
X142.39Y-83.22
X144.93Y-54.08
X144.93Y-56.62
X144.93Y-80.68
X144.93Y-83.22
M30
