%TF.GenerationSoftware,KiCad,Pcbnew,10.0.6*%
%TF.CreationDate,2026-10-05T15:08:55+02:00*%
%TF.ProjectId,P08,5030382e-6b69-4636-9164-5f7063625858,P08-R2 PCB*%
%TF.SameCoordinates,Original*%
%TF.FileFunction,Soldermask,Top*%
%TF.FilePolarity,Negative*%
%FSLAX46Y46*%
G04 Gerber Fmt 4.6, Leading zero omitted, Abs format (unit mm)*
G04 Created by KiCad (PCBNEW 10.0.6) date 2026-10-05 15:08:55*
%MOMM*%
%LPD*%
G01*
G04 APERTURE LIST*
G04 APERTURE END LIST*
G36*
X42590000Y-96810000D02*
G01*
X40890000Y-96810000D01*
X40890000Y-95110000D01*
X42590000Y-95110000D01*
X42590000Y-96810000D01*
G37*
G36*
X11506742Y-95146601D02*
G01*
X11660687Y-95210367D01*
X11799234Y-95302941D01*
X11917059Y-95420766D01*
X12009633Y-95559313D01*
X12073399Y-95713258D01*
X12105907Y-95876685D01*
X12105907Y-96043315D01*
X12073399Y-96206742D01*
X12009633Y-96360687D01*
X11917059Y-96499234D01*
X11799234Y-96617059D01*
X11660687Y-96709633D01*
X11506742Y-96773399D01*
X11343315Y-96805907D01*
X11176685Y-96805907D01*
X11013258Y-96773399D01*
X10859313Y-96709633D01*
X10720766Y-96617059D01*
X10602941Y-96499234D01*
X10510367Y-96360687D01*
X10446601Y-96206742D01*
X10414093Y-96043315D01*
X10414093Y-95876685D01*
X10446601Y-95713258D01*
X10510367Y-95559313D01*
X10602941Y-95420766D01*
X10720766Y-95302941D01*
X10859313Y-95210367D01*
X11013258Y-95146601D01*
X11176685Y-95114093D01*
X11343315Y-95114093D01*
X11506742Y-95146601D01*
G37*
G36*
X14046742Y-95146601D02*
G01*
X14200687Y-95210367D01*
X14339234Y-95302941D01*
X14457059Y-95420766D01*
X14549633Y-95559313D01*
X14613399Y-95713258D01*
X14645907Y-95876685D01*
X14645907Y-96043315D01*
X14613399Y-96206742D01*
X14549633Y-96360687D01*
X14457059Y-96499234D01*
X14339234Y-96617059D01*
X14200687Y-96709633D01*
X14046742Y-96773399D01*
X13883315Y-96805907D01*
X13716685Y-96805907D01*
X13553258Y-96773399D01*
X13399313Y-96709633D01*
X13260766Y-96617059D01*
X13142941Y-96499234D01*
X13050367Y-96360687D01*
X12986601Y-96206742D01*
X12954093Y-96043315D01*
X12954093Y-95876685D01*
X12986601Y-95713258D01*
X13050367Y-95559313D01*
X13142941Y-95420766D01*
X13260766Y-95302941D01*
X13399313Y-95210367D01*
X13553258Y-95146601D01*
X13716685Y-95114093D01*
X13883315Y-95114093D01*
X14046742Y-95146601D01*
G37*
G36*
X16586742Y-95146601D02*
G01*
X16740687Y-95210367D01*
X16879234Y-95302941D01*
X16997059Y-95420766D01*
X17089633Y-95559313D01*
X17153399Y-95713258D01*
X17185907Y-95876685D01*
X17185907Y-96043315D01*
X17153399Y-96206742D01*
X17089633Y-96360687D01*
X16997059Y-96499234D01*
X16879234Y-96617059D01*
X16740687Y-96709633D01*
X16586742Y-96773399D01*
X16423315Y-96805907D01*
X16256685Y-96805907D01*
X16093258Y-96773399D01*
X15939313Y-96709633D01*
X15800766Y-96617059D01*
X15682941Y-96499234D01*
X15590367Y-96360687D01*
X15526601Y-96206742D01*
X15494093Y-96043315D01*
X15494093Y-95876685D01*
X15526601Y-95713258D01*
X15590367Y-95559313D01*
X15682941Y-95420766D01*
X15800766Y-95302941D01*
X15939313Y-95210367D01*
X16093258Y-95146601D01*
X16256685Y-95114093D01*
X16423315Y-95114093D01*
X16586742Y-95146601D01*
G37*
G36*
X19126742Y-95146601D02*
G01*
X19280687Y-95210367D01*
X19419234Y-95302941D01*
X19537059Y-95420766D01*
X19629633Y-95559313D01*
X19693399Y-95713258D01*
X19725907Y-95876685D01*
X19725907Y-96043315D01*
X19693399Y-96206742D01*
X19629633Y-96360687D01*
X19537059Y-96499234D01*
X19419234Y-96617059D01*
X19280687Y-96709633D01*
X19126742Y-96773399D01*
X18963315Y-96805907D01*
X18796685Y-96805907D01*
X18633258Y-96773399D01*
X18479313Y-96709633D01*
X18340766Y-96617059D01*
X18222941Y-96499234D01*
X18130367Y-96360687D01*
X18066601Y-96206742D01*
X18034093Y-96043315D01*
X18034093Y-95876685D01*
X18066601Y-95713258D01*
X18130367Y-95559313D01*
X18222941Y-95420766D01*
X18340766Y-95302941D01*
X18479313Y-95210367D01*
X18633258Y-95146601D01*
X18796685Y-95114093D01*
X18963315Y-95114093D01*
X19126742Y-95146601D01*
G37*
G36*
X21666742Y-95146601D02*
G01*
X21820687Y-95210367D01*
X21959234Y-95302941D01*
X22077059Y-95420766D01*
X22169633Y-95559313D01*
X22233399Y-95713258D01*
X22265907Y-95876685D01*
X22265907Y-96043315D01*
X22233399Y-96206742D01*
X22169633Y-96360687D01*
X22077059Y-96499234D01*
X21959234Y-96617059D01*
X21820687Y-96709633D01*
X21666742Y-96773399D01*
X21503315Y-96805907D01*
X21336685Y-96805907D01*
X21173258Y-96773399D01*
X21019313Y-96709633D01*
X20880766Y-96617059D01*
X20762941Y-96499234D01*
X20670367Y-96360687D01*
X20606601Y-96206742D01*
X20574093Y-96043315D01*
X20574093Y-95876685D01*
X20606601Y-95713258D01*
X20670367Y-95559313D01*
X20762941Y-95420766D01*
X20880766Y-95302941D01*
X21019313Y-95210367D01*
X21173258Y-95146601D01*
X21336685Y-95114093D01*
X21503315Y-95114093D01*
X21666742Y-95146601D01*
G37*
G36*
X24206742Y-95146601D02*
G01*
X24360687Y-95210367D01*
X24499234Y-95302941D01*
X24617059Y-95420766D01*
X24709633Y-95559313D01*
X24773399Y-95713258D01*
X24805907Y-95876685D01*
X24805907Y-96043315D01*
X24773399Y-96206742D01*
X24709633Y-96360687D01*
X24617059Y-96499234D01*
X24499234Y-96617059D01*
X24360687Y-96709633D01*
X24206742Y-96773399D01*
X24043315Y-96805907D01*
X23876685Y-96805907D01*
X23713258Y-96773399D01*
X23559313Y-96709633D01*
X23420766Y-96617059D01*
X23302941Y-96499234D01*
X23210367Y-96360687D01*
X23146601Y-96206742D01*
X23114093Y-96043315D01*
X23114093Y-95876685D01*
X23146601Y-95713258D01*
X23210367Y-95559313D01*
X23302941Y-95420766D01*
X23420766Y-95302941D01*
X23559313Y-95210367D01*
X23713258Y-95146601D01*
X23876685Y-95114093D01*
X24043315Y-95114093D01*
X24206742Y-95146601D01*
G37*
G36*
X26746742Y-95146601D02*
G01*
X26900687Y-95210367D01*
X27039234Y-95302941D01*
X27157059Y-95420766D01*
X27249633Y-95559313D01*
X27313399Y-95713258D01*
X27345907Y-95876685D01*
X27345907Y-96043315D01*
X27313399Y-96206742D01*
X27249633Y-96360687D01*
X27157059Y-96499234D01*
X27039234Y-96617059D01*
X26900687Y-96709633D01*
X26746742Y-96773399D01*
X26583315Y-96805907D01*
X26416685Y-96805907D01*
X26253258Y-96773399D01*
X26099313Y-96709633D01*
X25960766Y-96617059D01*
X25842941Y-96499234D01*
X25750367Y-96360687D01*
X25686601Y-96206742D01*
X25654093Y-96043315D01*
X25654093Y-95876685D01*
X25686601Y-95713258D01*
X25750367Y-95559313D01*
X25842941Y-95420766D01*
X25960766Y-95302941D01*
X26099313Y-95210367D01*
X26253258Y-95146601D01*
X26416685Y-95114093D01*
X26583315Y-95114093D01*
X26746742Y-95146601D01*
G37*
G36*
X29286742Y-95146601D02*
G01*
X29440687Y-95210367D01*
X29579234Y-95302941D01*
X29697059Y-95420766D01*
X29789633Y-95559313D01*
X29853399Y-95713258D01*
X29885907Y-95876685D01*
X29885907Y-96043315D01*
X29853399Y-96206742D01*
X29789633Y-96360687D01*
X29697059Y-96499234D01*
X29579234Y-96617059D01*
X29440687Y-96709633D01*
X29286742Y-96773399D01*
X29123315Y-96805907D01*
X28956685Y-96805907D01*
X28793258Y-96773399D01*
X28639313Y-96709633D01*
X28500766Y-96617059D01*
X28382941Y-96499234D01*
X28290367Y-96360687D01*
X28226601Y-96206742D01*
X28194093Y-96043315D01*
X28194093Y-95876685D01*
X28226601Y-95713258D01*
X28290367Y-95559313D01*
X28382941Y-95420766D01*
X28500766Y-95302941D01*
X28639313Y-95210367D01*
X28793258Y-95146601D01*
X28956685Y-95114093D01*
X29123315Y-95114093D01*
X29286742Y-95146601D01*
G37*
G36*
X31826742Y-95146601D02*
G01*
X31980687Y-95210367D01*
X32119234Y-95302941D01*
X32237059Y-95420766D01*
X32329633Y-95559313D01*
X32393399Y-95713258D01*
X32425907Y-95876685D01*
X32425907Y-96043315D01*
X32393399Y-96206742D01*
X32329633Y-96360687D01*
X32237059Y-96499234D01*
X32119234Y-96617059D01*
X31980687Y-96709633D01*
X31826742Y-96773399D01*
X31663315Y-96805907D01*
X31496685Y-96805907D01*
X31333258Y-96773399D01*
X31179313Y-96709633D01*
X31040766Y-96617059D01*
X30922941Y-96499234D01*
X30830367Y-96360687D01*
X30766601Y-96206742D01*
X30734093Y-96043315D01*
X30734093Y-95876685D01*
X30766601Y-95713258D01*
X30830367Y-95559313D01*
X30922941Y-95420766D01*
X31040766Y-95302941D01*
X31179313Y-95210367D01*
X31333258Y-95146601D01*
X31496685Y-95114093D01*
X31663315Y-95114093D01*
X31826742Y-95146601D01*
G37*
G36*
X34366742Y-95146601D02*
G01*
X34520687Y-95210367D01*
X34659234Y-95302941D01*
X34777059Y-95420766D01*
X34869633Y-95559313D01*
X34933399Y-95713258D01*
X34965907Y-95876685D01*
X34965907Y-96043315D01*
X34933399Y-96206742D01*
X34869633Y-96360687D01*
X34777059Y-96499234D01*
X34659234Y-96617059D01*
X34520687Y-96709633D01*
X34366742Y-96773399D01*
X34203315Y-96805907D01*
X34036685Y-96805907D01*
X33873258Y-96773399D01*
X33719313Y-96709633D01*
X33580766Y-96617059D01*
X33462941Y-96499234D01*
X33370367Y-96360687D01*
X33306601Y-96206742D01*
X33274093Y-96043315D01*
X33274093Y-95876685D01*
X33306601Y-95713258D01*
X33370367Y-95559313D01*
X33462941Y-95420766D01*
X33580766Y-95302941D01*
X33719313Y-95210367D01*
X33873258Y-95146601D01*
X34036685Y-95114093D01*
X34203315Y-95114093D01*
X34366742Y-95146601D01*
G37*
G36*
X36906742Y-95146601D02*
G01*
X37060687Y-95210367D01*
X37199234Y-95302941D01*
X37317059Y-95420766D01*
X37409633Y-95559313D01*
X37473399Y-95713258D01*
X37505907Y-95876685D01*
X37505907Y-96043315D01*
X37473399Y-96206742D01*
X37409633Y-96360687D01*
X37317059Y-96499234D01*
X37199234Y-96617059D01*
X37060687Y-96709633D01*
X36906742Y-96773399D01*
X36743315Y-96805907D01*
X36576685Y-96805907D01*
X36413258Y-96773399D01*
X36259313Y-96709633D01*
X36120766Y-96617059D01*
X36002941Y-96499234D01*
X35910367Y-96360687D01*
X35846601Y-96206742D01*
X35814093Y-96043315D01*
X35814093Y-95876685D01*
X35846601Y-95713258D01*
X35910367Y-95559313D01*
X36002941Y-95420766D01*
X36120766Y-95302941D01*
X36259313Y-95210367D01*
X36413258Y-95146601D01*
X36576685Y-95114093D01*
X36743315Y-95114093D01*
X36906742Y-95146601D01*
G37*
G36*
X39446742Y-95146601D02*
G01*
X39600687Y-95210367D01*
X39739234Y-95302941D01*
X39857059Y-95420766D01*
X39949633Y-95559313D01*
X40013399Y-95713258D01*
X40045907Y-95876685D01*
X40045907Y-96043315D01*
X40013399Y-96206742D01*
X39949633Y-96360687D01*
X39857059Y-96499234D01*
X39739234Y-96617059D01*
X39600687Y-96709633D01*
X39446742Y-96773399D01*
X39283315Y-96805907D01*
X39116685Y-96805907D01*
X38953258Y-96773399D01*
X38799313Y-96709633D01*
X38660766Y-96617059D01*
X38542941Y-96499234D01*
X38450367Y-96360687D01*
X38386601Y-96206742D01*
X38354093Y-96043315D01*
X38354093Y-95876685D01*
X38386601Y-95713258D01*
X38450367Y-95559313D01*
X38542941Y-95420766D01*
X38660766Y-95302941D01*
X38799313Y-95210367D01*
X38953258Y-95146601D01*
X39116685Y-95114093D01*
X39283315Y-95114093D01*
X39446742Y-95146601D01*
G37*
G36*
X21554047Y-73700805D02*
G01*
X21605408Y-73706764D01*
X21622954Y-73714511D01*
X21645671Y-73719030D01*
X21669991Y-73735280D01*
X21690793Y-73744465D01*
X21705000Y-73758672D01*
X21726777Y-73773223D01*
X21741327Y-73794999D01*
X21755534Y-73809206D01*
X21764718Y-73830006D01*
X21780970Y-73854329D01*
X21785489Y-73877048D01*
X21793235Y-73894591D01*
X21799192Y-73945940D01*
X21800000Y-73950000D01*
X21800000Y-75050000D01*
X21799192Y-75054059D01*
X21793235Y-75105408D01*
X21785489Y-75122950D01*
X21780970Y-75145671D01*
X21764716Y-75169995D01*
X21755534Y-75190793D01*
X21741329Y-75204997D01*
X21726777Y-75226777D01*
X21704997Y-75241329D01*
X21690793Y-75255534D01*
X21669995Y-75264716D01*
X21645671Y-75280970D01*
X21622950Y-75285489D01*
X21605408Y-75293235D01*
X21554061Y-75299192D01*
X21550000Y-75300000D01*
X20450000Y-75300000D01*
X20445941Y-75299192D01*
X20394591Y-75293235D01*
X20377048Y-75285489D01*
X20354329Y-75280970D01*
X20330006Y-75264718D01*
X20309206Y-75255534D01*
X20294999Y-75241327D01*
X20273223Y-75226777D01*
X20258672Y-75205000D01*
X20244465Y-75190793D01*
X20235280Y-75169991D01*
X20219030Y-75145671D01*
X20214511Y-75122954D01*
X20206764Y-75105408D01*
X20200805Y-75054049D01*
X20200000Y-75050000D01*
X20200000Y-73950000D01*
X20200804Y-73945953D01*
X20206764Y-73894591D01*
X20214511Y-73877043D01*
X20219030Y-73854329D01*
X20235278Y-73830010D01*
X20244465Y-73809206D01*
X20258674Y-73794996D01*
X20273223Y-73773223D01*
X20294996Y-73758674D01*
X20309206Y-73744465D01*
X20330010Y-73735278D01*
X20354329Y-73719030D01*
X20377043Y-73714511D01*
X20394591Y-73706764D01*
X20445952Y-73700805D01*
X20450000Y-73700000D01*
X21550000Y-73700000D01*
X21554047Y-73700805D01*
G37*
G36*
X23772228Y-73734448D02*
G01*
X23917117Y-73794463D01*
X24047515Y-73881592D01*
X24158408Y-73992485D01*
X24245537Y-74122883D01*
X24305552Y-74267772D01*
X24336148Y-74421586D01*
X24336148Y-74578414D01*
X24305552Y-74732228D01*
X24245537Y-74877117D01*
X24158408Y-75007515D01*
X24047515Y-75118408D01*
X23917117Y-75205537D01*
X23772228Y-75265552D01*
X23618414Y-75296148D01*
X23461586Y-75296148D01*
X23307772Y-75265552D01*
X23162883Y-75205537D01*
X23032485Y-75118408D01*
X22921592Y-75007515D01*
X22834463Y-74877117D01*
X22774448Y-74732228D01*
X22743852Y-74578414D01*
X22743852Y-74421586D01*
X22774448Y-74267772D01*
X22834463Y-74122883D01*
X22921592Y-73992485D01*
X23032485Y-73881592D01*
X23162883Y-73794463D01*
X23307772Y-73734448D01*
X23461586Y-73703852D01*
X23618414Y-73703852D01*
X23772228Y-73734448D01*
G37*
G36*
X26312228Y-73734448D02*
G01*
X26457117Y-73794463D01*
X26587515Y-73881592D01*
X26698408Y-73992485D01*
X26785537Y-74122883D01*
X26845552Y-74267772D01*
X26876148Y-74421586D01*
X26876148Y-74578414D01*
X26845552Y-74732228D01*
X26785537Y-74877117D01*
X26698408Y-75007515D01*
X26587515Y-75118408D01*
X26457117Y-75205537D01*
X26312228Y-75265552D01*
X26158414Y-75296148D01*
X26001586Y-75296148D01*
X25847772Y-75265552D01*
X25702883Y-75205537D01*
X25572485Y-75118408D01*
X25461592Y-75007515D01*
X25374463Y-74877117D01*
X25314448Y-74732228D01*
X25283852Y-74578414D01*
X25283852Y-74421586D01*
X25314448Y-74267772D01*
X25374463Y-74122883D01*
X25461592Y-73992485D01*
X25572485Y-73881592D01*
X25702883Y-73794463D01*
X25847772Y-73734448D01*
X26001586Y-73703852D01*
X26158414Y-73703852D01*
X26312228Y-73734448D01*
G37*
G36*
X28852228Y-73734448D02*
G01*
X28997117Y-73794463D01*
X29127515Y-73881592D01*
X29238408Y-73992485D01*
X29325537Y-74122883D01*
X29385552Y-74267772D01*
X29416148Y-74421586D01*
X29416148Y-74578414D01*
X29385552Y-74732228D01*
X29325537Y-74877117D01*
X29238408Y-75007515D01*
X29127515Y-75118408D01*
X28997117Y-75205537D01*
X28852228Y-75265552D01*
X28698414Y-75296148D01*
X28541586Y-75296148D01*
X28387772Y-75265552D01*
X28242883Y-75205537D01*
X28112485Y-75118408D01*
X28001592Y-75007515D01*
X27914463Y-74877117D01*
X27854448Y-74732228D01*
X27823852Y-74578414D01*
X27823852Y-74421586D01*
X27854448Y-74267772D01*
X27914463Y-74122883D01*
X28001592Y-73992485D01*
X28112485Y-73881592D01*
X28242883Y-73794463D01*
X28387772Y-73734448D01*
X28541586Y-73703852D01*
X28698414Y-73703852D01*
X28852228Y-73734448D01*
G37*
G36*
X31392228Y-73734448D02*
G01*
X31537117Y-73794463D01*
X31667515Y-73881592D01*
X31778408Y-73992485D01*
X31865537Y-74122883D01*
X31925552Y-74267772D01*
X31956148Y-74421586D01*
X31956148Y-74578414D01*
X31925552Y-74732228D01*
X31865537Y-74877117D01*
X31778408Y-75007515D01*
X31667515Y-75118408D01*
X31537117Y-75205537D01*
X31392228Y-75265552D01*
X31238414Y-75296148D01*
X31081586Y-75296148D01*
X30927772Y-75265552D01*
X30782883Y-75205537D01*
X30652485Y-75118408D01*
X30541592Y-75007515D01*
X30454463Y-74877117D01*
X30394448Y-74732228D01*
X30363852Y-74578414D01*
X30363852Y-74421586D01*
X30394448Y-74267772D01*
X30454463Y-74122883D01*
X30541592Y-73992485D01*
X30652485Y-73881592D01*
X30782883Y-73794463D01*
X30927772Y-73734448D01*
X31081586Y-73703852D01*
X31238414Y-73703852D01*
X31392228Y-73734448D01*
G37*
G36*
X33932228Y-73734448D02*
G01*
X34077117Y-73794463D01*
X34207515Y-73881592D01*
X34318408Y-73992485D01*
X34405537Y-74122883D01*
X34465552Y-74267772D01*
X34496148Y-74421586D01*
X34496148Y-74578414D01*
X34465552Y-74732228D01*
X34405537Y-74877117D01*
X34318408Y-75007515D01*
X34207515Y-75118408D01*
X34077117Y-75205537D01*
X33932228Y-75265552D01*
X33778414Y-75296148D01*
X33621586Y-75296148D01*
X33467772Y-75265552D01*
X33322883Y-75205537D01*
X33192485Y-75118408D01*
X33081592Y-75007515D01*
X32994463Y-74877117D01*
X32934448Y-74732228D01*
X32903852Y-74578414D01*
X32903852Y-74421586D01*
X32934448Y-74267772D01*
X32994463Y-74122883D01*
X33081592Y-73992485D01*
X33192485Y-73881592D01*
X33322883Y-73794463D01*
X33467772Y-73734448D01*
X33621586Y-73703852D01*
X33778414Y-73703852D01*
X33932228Y-73734448D01*
G37*
G36*
X36472228Y-73734448D02*
G01*
X36617117Y-73794463D01*
X36747515Y-73881592D01*
X36858408Y-73992485D01*
X36945537Y-74122883D01*
X37005552Y-74267772D01*
X37036148Y-74421586D01*
X37036148Y-74578414D01*
X37005552Y-74732228D01*
X36945537Y-74877117D01*
X36858408Y-75007515D01*
X36747515Y-75118408D01*
X36617117Y-75205537D01*
X36472228Y-75265552D01*
X36318414Y-75296148D01*
X36161586Y-75296148D01*
X36007772Y-75265552D01*
X35862883Y-75205537D01*
X35732485Y-75118408D01*
X35621592Y-75007515D01*
X35534463Y-74877117D01*
X35474448Y-74732228D01*
X35443852Y-74578414D01*
X35443852Y-74421586D01*
X35474448Y-74267772D01*
X35534463Y-74122883D01*
X35621592Y-73992485D01*
X35732485Y-73881592D01*
X35862883Y-73794463D01*
X36007772Y-73734448D01*
X36161586Y-73703852D01*
X36318414Y-73703852D01*
X36472228Y-73734448D01*
G37*
G36*
X39012228Y-73734448D02*
G01*
X39157117Y-73794463D01*
X39287515Y-73881592D01*
X39398408Y-73992485D01*
X39485537Y-74122883D01*
X39545552Y-74267772D01*
X39576148Y-74421586D01*
X39576148Y-74578414D01*
X39545552Y-74732228D01*
X39485537Y-74877117D01*
X39398408Y-75007515D01*
X39287515Y-75118408D01*
X39157117Y-75205537D01*
X39012228Y-75265552D01*
X38858414Y-75296148D01*
X38701586Y-75296148D01*
X38547772Y-75265552D01*
X38402883Y-75205537D01*
X38272485Y-75118408D01*
X38161592Y-75007515D01*
X38074463Y-74877117D01*
X38014448Y-74732228D01*
X37983852Y-74578414D01*
X37983852Y-74421586D01*
X38014448Y-74267772D01*
X38074463Y-74122883D01*
X38161592Y-73992485D01*
X38272485Y-73881592D01*
X38402883Y-73794463D01*
X38547772Y-73734448D01*
X38701586Y-73703852D01*
X38858414Y-73703852D01*
X39012228Y-73734448D01*
G37*
G36*
X41552228Y-73734448D02*
G01*
X41697117Y-73794463D01*
X41827515Y-73881592D01*
X41938408Y-73992485D01*
X42025537Y-74122883D01*
X42085552Y-74267772D01*
X42116148Y-74421586D01*
X42116148Y-74578414D01*
X42085552Y-74732228D01*
X42025537Y-74877117D01*
X41938408Y-75007515D01*
X41827515Y-75118408D01*
X41697117Y-75205537D01*
X41552228Y-75265552D01*
X41398414Y-75296148D01*
X41241586Y-75296148D01*
X41087772Y-75265552D01*
X40942883Y-75205537D01*
X40812485Y-75118408D01*
X40701592Y-75007515D01*
X40614463Y-74877117D01*
X40554448Y-74732228D01*
X40523852Y-74578414D01*
X40523852Y-74421586D01*
X40554448Y-74267772D01*
X40614463Y-74122883D01*
X40701592Y-73992485D01*
X40812485Y-73881592D01*
X40942883Y-73794463D01*
X41087772Y-73734448D01*
X41241586Y-73703852D01*
X41398414Y-73703852D01*
X41552228Y-73734448D01*
G37*
G36*
X21232228Y-66114448D02*
G01*
X21377117Y-66174463D01*
X21507515Y-66261592D01*
X21618408Y-66372485D01*
X21705537Y-66502883D01*
X21765552Y-66647772D01*
X21796148Y-66801586D01*
X21796148Y-66958414D01*
X21765552Y-67112228D01*
X21705537Y-67257117D01*
X21618408Y-67387515D01*
X21507515Y-67498408D01*
X21377117Y-67585537D01*
X21232228Y-67645552D01*
X21078414Y-67676148D01*
X20921586Y-67676148D01*
X20767772Y-67645552D01*
X20622883Y-67585537D01*
X20492485Y-67498408D01*
X20381592Y-67387515D01*
X20294463Y-67257117D01*
X20234448Y-67112228D01*
X20203852Y-66958414D01*
X20203852Y-66801586D01*
X20234448Y-66647772D01*
X20294463Y-66502883D01*
X20381592Y-66372485D01*
X20492485Y-66261592D01*
X20622883Y-66174463D01*
X20767772Y-66114448D01*
X20921586Y-66083852D01*
X21078414Y-66083852D01*
X21232228Y-66114448D01*
G37*
G36*
X23772228Y-66114448D02*
G01*
X23917117Y-66174463D01*
X24047515Y-66261592D01*
X24158408Y-66372485D01*
X24245537Y-66502883D01*
X24305552Y-66647772D01*
X24336148Y-66801586D01*
X24336148Y-66958414D01*
X24305552Y-67112228D01*
X24245537Y-67257117D01*
X24158408Y-67387515D01*
X24047515Y-67498408D01*
X23917117Y-67585537D01*
X23772228Y-67645552D01*
X23618414Y-67676148D01*
X23461586Y-67676148D01*
X23307772Y-67645552D01*
X23162883Y-67585537D01*
X23032485Y-67498408D01*
X22921592Y-67387515D01*
X22834463Y-67257117D01*
X22774448Y-67112228D01*
X22743852Y-66958414D01*
X22743852Y-66801586D01*
X22774448Y-66647772D01*
X22834463Y-66502883D01*
X22921592Y-66372485D01*
X23032485Y-66261592D01*
X23162883Y-66174463D01*
X23307772Y-66114448D01*
X23461586Y-66083852D01*
X23618414Y-66083852D01*
X23772228Y-66114448D01*
G37*
G36*
X26312228Y-66114448D02*
G01*
X26457117Y-66174463D01*
X26587515Y-66261592D01*
X26698408Y-66372485D01*
X26785537Y-66502883D01*
X26845552Y-66647772D01*
X26876148Y-66801586D01*
X26876148Y-66958414D01*
X26845552Y-67112228D01*
X26785537Y-67257117D01*
X26698408Y-67387515D01*
X26587515Y-67498408D01*
X26457117Y-67585537D01*
X26312228Y-67645552D01*
X26158414Y-67676148D01*
X26001586Y-67676148D01*
X25847772Y-67645552D01*
X25702883Y-67585537D01*
X25572485Y-67498408D01*
X25461592Y-67387515D01*
X25374463Y-67257117D01*
X25314448Y-67112228D01*
X25283852Y-66958414D01*
X25283852Y-66801586D01*
X25314448Y-66647772D01*
X25374463Y-66502883D01*
X25461592Y-66372485D01*
X25572485Y-66261592D01*
X25702883Y-66174463D01*
X25847772Y-66114448D01*
X26001586Y-66083852D01*
X26158414Y-66083852D01*
X26312228Y-66114448D01*
G37*
G36*
X28852228Y-66114448D02*
G01*
X28997117Y-66174463D01*
X29127515Y-66261592D01*
X29238408Y-66372485D01*
X29325537Y-66502883D01*
X29385552Y-66647772D01*
X29416148Y-66801586D01*
X29416148Y-66958414D01*
X29385552Y-67112228D01*
X29325537Y-67257117D01*
X29238408Y-67387515D01*
X29127515Y-67498408D01*
X28997117Y-67585537D01*
X28852228Y-67645552D01*
X28698414Y-67676148D01*
X28541586Y-67676148D01*
X28387772Y-67645552D01*
X28242883Y-67585537D01*
X28112485Y-67498408D01*
X28001592Y-67387515D01*
X27914463Y-67257117D01*
X27854448Y-67112228D01*
X27823852Y-66958414D01*
X27823852Y-66801586D01*
X27854448Y-66647772D01*
X27914463Y-66502883D01*
X28001592Y-66372485D01*
X28112485Y-66261592D01*
X28242883Y-66174463D01*
X28387772Y-66114448D01*
X28541586Y-66083852D01*
X28698414Y-66083852D01*
X28852228Y-66114448D01*
G37*
G36*
X31392228Y-66114448D02*
G01*
X31537117Y-66174463D01*
X31667515Y-66261592D01*
X31778408Y-66372485D01*
X31865537Y-66502883D01*
X31925552Y-66647772D01*
X31956148Y-66801586D01*
X31956148Y-66958414D01*
X31925552Y-67112228D01*
X31865537Y-67257117D01*
X31778408Y-67387515D01*
X31667515Y-67498408D01*
X31537117Y-67585537D01*
X31392228Y-67645552D01*
X31238414Y-67676148D01*
X31081586Y-67676148D01*
X30927772Y-67645552D01*
X30782883Y-67585537D01*
X30652485Y-67498408D01*
X30541592Y-67387515D01*
X30454463Y-67257117D01*
X30394448Y-67112228D01*
X30363852Y-66958414D01*
X30363852Y-66801586D01*
X30394448Y-66647772D01*
X30454463Y-66502883D01*
X30541592Y-66372485D01*
X30652485Y-66261592D01*
X30782883Y-66174463D01*
X30927772Y-66114448D01*
X31081586Y-66083852D01*
X31238414Y-66083852D01*
X31392228Y-66114448D01*
G37*
G36*
X33932228Y-66114448D02*
G01*
X34077117Y-66174463D01*
X34207515Y-66261592D01*
X34318408Y-66372485D01*
X34405537Y-66502883D01*
X34465552Y-66647772D01*
X34496148Y-66801586D01*
X34496148Y-66958414D01*
X34465552Y-67112228D01*
X34405537Y-67257117D01*
X34318408Y-67387515D01*
X34207515Y-67498408D01*
X34077117Y-67585537D01*
X33932228Y-67645552D01*
X33778414Y-67676148D01*
X33621586Y-67676148D01*
X33467772Y-67645552D01*
X33322883Y-67585537D01*
X33192485Y-67498408D01*
X33081592Y-67387515D01*
X32994463Y-67257117D01*
X32934448Y-67112228D01*
X32903852Y-66958414D01*
X32903852Y-66801586D01*
X32934448Y-66647772D01*
X32994463Y-66502883D01*
X33081592Y-66372485D01*
X33192485Y-66261592D01*
X33322883Y-66174463D01*
X33467772Y-66114448D01*
X33621586Y-66083852D01*
X33778414Y-66083852D01*
X33932228Y-66114448D01*
G37*
G36*
X36472228Y-66114448D02*
G01*
X36617117Y-66174463D01*
X36747515Y-66261592D01*
X36858408Y-66372485D01*
X36945537Y-66502883D01*
X37005552Y-66647772D01*
X37036148Y-66801586D01*
X37036148Y-66958414D01*
X37005552Y-67112228D01*
X36945537Y-67257117D01*
X36858408Y-67387515D01*
X36747515Y-67498408D01*
X36617117Y-67585537D01*
X36472228Y-67645552D01*
X36318414Y-67676148D01*
X36161586Y-67676148D01*
X36007772Y-67645552D01*
X35862883Y-67585537D01*
X35732485Y-67498408D01*
X35621592Y-67387515D01*
X35534463Y-67257117D01*
X35474448Y-67112228D01*
X35443852Y-66958414D01*
X35443852Y-66801586D01*
X35474448Y-66647772D01*
X35534463Y-66502883D01*
X35621592Y-66372485D01*
X35732485Y-66261592D01*
X35862883Y-66174463D01*
X36007772Y-66114448D01*
X36161586Y-66083852D01*
X36318414Y-66083852D01*
X36472228Y-66114448D01*
G37*
G36*
X39012228Y-66114448D02*
G01*
X39157117Y-66174463D01*
X39287515Y-66261592D01*
X39398408Y-66372485D01*
X39485537Y-66502883D01*
X39545552Y-66647772D01*
X39576148Y-66801586D01*
X39576148Y-66958414D01*
X39545552Y-67112228D01*
X39485537Y-67257117D01*
X39398408Y-67387515D01*
X39287515Y-67498408D01*
X39157117Y-67585537D01*
X39012228Y-67645552D01*
X38858414Y-67676148D01*
X38701586Y-67676148D01*
X38547772Y-67645552D01*
X38402883Y-67585537D01*
X38272485Y-67498408D01*
X38161592Y-67387515D01*
X38074463Y-67257117D01*
X38014448Y-67112228D01*
X37983852Y-66958414D01*
X37983852Y-66801586D01*
X38014448Y-66647772D01*
X38074463Y-66502883D01*
X38161592Y-66372485D01*
X38272485Y-66261592D01*
X38402883Y-66174463D01*
X38547772Y-66114448D01*
X38701586Y-66083852D01*
X38858414Y-66083852D01*
X39012228Y-66114448D01*
G37*
G36*
X41552228Y-66114448D02*
G01*
X41697117Y-66174463D01*
X41827515Y-66261592D01*
X41938408Y-66372485D01*
X42025537Y-66502883D01*
X42085552Y-66647772D01*
X42116148Y-66801586D01*
X42116148Y-66958414D01*
X42085552Y-67112228D01*
X42025537Y-67257117D01*
X41938408Y-67387515D01*
X41827515Y-67498408D01*
X41697117Y-67585537D01*
X41552228Y-67645552D01*
X41398414Y-67676148D01*
X41241586Y-67676148D01*
X41087772Y-67645552D01*
X40942883Y-67585537D01*
X40812485Y-67498408D01*
X40701592Y-67387515D01*
X40614463Y-67257117D01*
X40554448Y-67112228D01*
X40523852Y-66958414D01*
X40523852Y-66801586D01*
X40554448Y-66647772D01*
X40614463Y-66502883D01*
X40701592Y-66372485D01*
X40812485Y-66261592D01*
X40942883Y-66174463D01*
X41087772Y-66114448D01*
X41241586Y-66083852D01*
X41398414Y-66083852D01*
X41552228Y-66114448D01*
G37*
G36*
X3873513Y-64444208D02*
G01*
X4112293Y-64521793D01*
X4335998Y-64635776D01*
X4539117Y-64783350D01*
X4716650Y-64960883D01*
X4864224Y-65164002D01*
X4978207Y-65387707D01*
X5055792Y-65626487D01*
X5095068Y-65874465D01*
X5095068Y-66125535D01*
X5055792Y-66373513D01*
X4978207Y-66612293D01*
X4864224Y-66835998D01*
X4716650Y-67039117D01*
X4539117Y-67216650D01*
X4335998Y-67364224D01*
X4112293Y-67478207D01*
X3873513Y-67555792D01*
X3625535Y-67595068D01*
X3374465Y-67595068D01*
X3126487Y-67555792D01*
X2887707Y-67478207D01*
X2664002Y-67364224D01*
X2460883Y-67216650D01*
X2283350Y-67039117D01*
X2135776Y-66835998D01*
X2021793Y-66612293D01*
X1944208Y-66373513D01*
X1904932Y-66125535D01*
X1904932Y-65874465D01*
X1944208Y-65626487D01*
X2021793Y-65387707D01*
X2135776Y-65164002D01*
X2283350Y-64960883D01*
X2460883Y-64783350D01*
X2664002Y-64635776D01*
X2887707Y-64521793D01*
X3126487Y-64444208D01*
X3374465Y-64404932D01*
X3625535Y-64404932D01*
X3873513Y-64444208D01*
G37*
G36*
X30832228Y-62854448D02*
G01*
X30977117Y-62914463D01*
X31107515Y-63001592D01*
X31218408Y-63112485D01*
X31305537Y-63242883D01*
X31365552Y-63387772D01*
X31396148Y-63541586D01*
X31396148Y-63698414D01*
X31365552Y-63852228D01*
X31305537Y-63997117D01*
X31218408Y-64127515D01*
X31107515Y-64238408D01*
X30977117Y-64325537D01*
X30832228Y-64385552D01*
X30678414Y-64416148D01*
X30521586Y-64416148D01*
X30367772Y-64385552D01*
X30222883Y-64325537D01*
X30092485Y-64238408D01*
X29981592Y-64127515D01*
X29894463Y-63997117D01*
X29834448Y-63852228D01*
X29803852Y-63698414D01*
X29803852Y-63541586D01*
X29834448Y-63387772D01*
X29894463Y-63242883D01*
X29981592Y-63112485D01*
X30092485Y-63001592D01*
X30222883Y-62914463D01*
X30367772Y-62854448D01*
X30521586Y-62823852D01*
X30678414Y-62823852D01*
X30832228Y-62854448D01*
G37*
G36*
X41874047Y-62580805D02*
G01*
X41925408Y-62586764D01*
X41942954Y-62594511D01*
X41965671Y-62599030D01*
X41989991Y-62615280D01*
X42010793Y-62624465D01*
X42025000Y-62638672D01*
X42046777Y-62653223D01*
X42061327Y-62674999D01*
X42075534Y-62689206D01*
X42084718Y-62710006D01*
X42100970Y-62734329D01*
X42105489Y-62757048D01*
X42113235Y-62774591D01*
X42119192Y-62825940D01*
X42120000Y-62830000D01*
X42120000Y-63930000D01*
X42119192Y-63934059D01*
X42113235Y-63985408D01*
X42105489Y-64002950D01*
X42100970Y-64025671D01*
X42084716Y-64049995D01*
X42075534Y-64070793D01*
X42061329Y-64084997D01*
X42046777Y-64106777D01*
X42024997Y-64121329D01*
X42010793Y-64135534D01*
X41989995Y-64144716D01*
X41965671Y-64160970D01*
X41942950Y-64165489D01*
X41925408Y-64173235D01*
X41874061Y-64179192D01*
X41870000Y-64180000D01*
X40770000Y-64180000D01*
X40765941Y-64179192D01*
X40714591Y-64173235D01*
X40697048Y-64165489D01*
X40674329Y-64160970D01*
X40650006Y-64144718D01*
X40629206Y-64135534D01*
X40614999Y-64121327D01*
X40593223Y-64106777D01*
X40578672Y-64085000D01*
X40564465Y-64070793D01*
X40555280Y-64049991D01*
X40539030Y-64025671D01*
X40534511Y-64002954D01*
X40526764Y-63985408D01*
X40520805Y-63934049D01*
X40520000Y-63930000D01*
X40520000Y-62830000D01*
X40520804Y-62825953D01*
X40526764Y-62774591D01*
X40534511Y-62757043D01*
X40539030Y-62734329D01*
X40555278Y-62710010D01*
X40564465Y-62689206D01*
X40578674Y-62674996D01*
X40593223Y-62653223D01*
X40614996Y-62638674D01*
X40629206Y-62624465D01*
X40650010Y-62615278D01*
X40674329Y-62599030D01*
X40697043Y-62594511D01*
X40714591Y-62586764D01*
X40765952Y-62580805D01*
X40770000Y-62580000D01*
X41870000Y-62580000D01*
X41874047Y-62580805D01*
G37*
G36*
X16600000Y-63600000D02*
G01*
X14400000Y-63600000D01*
X14400000Y-61400000D01*
X16600000Y-61400000D01*
X16600000Y-63600000D01*
G37*
G36*
X19746742Y-61266601D02*
G01*
X19900687Y-61330367D01*
X20039234Y-61422941D01*
X20157059Y-61540766D01*
X20249633Y-61679313D01*
X20313399Y-61833258D01*
X20345907Y-61996685D01*
X20345907Y-62163315D01*
X20313399Y-62326742D01*
X20249633Y-62480687D01*
X20157059Y-62619234D01*
X20039234Y-62737059D01*
X19900687Y-62829633D01*
X19746742Y-62893399D01*
X19583315Y-62925907D01*
X19416685Y-62925907D01*
X19253258Y-62893399D01*
X19099313Y-62829633D01*
X18960766Y-62737059D01*
X18842941Y-62619234D01*
X18750367Y-62480687D01*
X18686601Y-62326742D01*
X18654093Y-62163315D01*
X18654093Y-61996685D01*
X18686601Y-61833258D01*
X18750367Y-61679313D01*
X18842941Y-61540766D01*
X18960766Y-61422941D01*
X19099313Y-61330367D01*
X19253258Y-61266601D01*
X19416685Y-61234093D01*
X19583315Y-61234093D01*
X19746742Y-61266601D01*
G37*
G36*
X21946742Y-61266601D02*
G01*
X22100687Y-61330367D01*
X22239234Y-61422941D01*
X22357059Y-61540766D01*
X22449633Y-61679313D01*
X22513399Y-61833258D01*
X22545907Y-61996685D01*
X22545907Y-62163315D01*
X22513399Y-62326742D01*
X22449633Y-62480687D01*
X22357059Y-62619234D01*
X22239234Y-62737059D01*
X22100687Y-62829633D01*
X21946742Y-62893399D01*
X21783315Y-62925907D01*
X21616685Y-62925907D01*
X21453258Y-62893399D01*
X21299313Y-62829633D01*
X21160766Y-62737059D01*
X21042941Y-62619234D01*
X20950367Y-62480687D01*
X20886601Y-62326742D01*
X20854093Y-62163315D01*
X20854093Y-61996685D01*
X20886601Y-61833258D01*
X20950367Y-61679313D01*
X21042941Y-61540766D01*
X21160766Y-61422941D01*
X21299313Y-61330367D01*
X21453258Y-61266601D01*
X21616685Y-61234093D01*
X21783315Y-61234093D01*
X21946742Y-61266601D01*
G37*
G36*
X24146742Y-61266601D02*
G01*
X24300687Y-61330367D01*
X24439234Y-61422941D01*
X24557059Y-61540766D01*
X24649633Y-61679313D01*
X24713399Y-61833258D01*
X24745907Y-61996685D01*
X24745907Y-62163315D01*
X24713399Y-62326742D01*
X24649633Y-62480687D01*
X24557059Y-62619234D01*
X24439234Y-62737059D01*
X24300687Y-62829633D01*
X24146742Y-62893399D01*
X23983315Y-62925907D01*
X23816685Y-62925907D01*
X23653258Y-62893399D01*
X23499313Y-62829633D01*
X23360766Y-62737059D01*
X23242941Y-62619234D01*
X23150367Y-62480687D01*
X23086601Y-62326742D01*
X23054093Y-62163315D01*
X23054093Y-61996685D01*
X23086601Y-61833258D01*
X23150367Y-61679313D01*
X23242941Y-61540766D01*
X23360766Y-61422941D01*
X23499313Y-61330367D01*
X23653258Y-61266601D01*
X23816685Y-61234093D01*
X23983315Y-61234093D01*
X24146742Y-61266601D01*
G37*
G36*
X27346742Y-61266601D02*
G01*
X27500687Y-61330367D01*
X27639234Y-61422941D01*
X27757059Y-61540766D01*
X27849633Y-61679313D01*
X27913399Y-61833258D01*
X27945907Y-61996685D01*
X27945907Y-62163315D01*
X27913399Y-62326742D01*
X27849633Y-62480687D01*
X27757059Y-62619234D01*
X27639234Y-62737059D01*
X27500687Y-62829633D01*
X27346742Y-62893399D01*
X27183315Y-62925907D01*
X27016685Y-62925907D01*
X26853258Y-62893399D01*
X26699313Y-62829633D01*
X26560766Y-62737059D01*
X26442941Y-62619234D01*
X26350367Y-62480687D01*
X26286601Y-62326742D01*
X26254093Y-62163315D01*
X26254093Y-61996685D01*
X26286601Y-61833258D01*
X26350367Y-61679313D01*
X26442941Y-61540766D01*
X26560766Y-61422941D01*
X26699313Y-61330367D01*
X26853258Y-61266601D01*
X27016685Y-61234093D01*
X27183315Y-61234093D01*
X27346742Y-61266601D01*
G37*
G36*
X41552228Y-60614448D02*
G01*
X41697117Y-60674463D01*
X41827515Y-60761592D01*
X41938408Y-60872485D01*
X42025537Y-61002883D01*
X42085552Y-61147772D01*
X42116148Y-61301586D01*
X42116148Y-61458414D01*
X42085552Y-61612228D01*
X42025537Y-61757117D01*
X41938408Y-61887515D01*
X41827515Y-61998408D01*
X41697117Y-62085537D01*
X41552228Y-62145552D01*
X41398414Y-62176148D01*
X41241586Y-62176148D01*
X41087772Y-62145552D01*
X40942883Y-62085537D01*
X40812485Y-61998408D01*
X40701592Y-61887515D01*
X40614463Y-61757117D01*
X40554448Y-61612228D01*
X40523852Y-61458414D01*
X40523852Y-61301586D01*
X40554448Y-61147772D01*
X40614463Y-61002883D01*
X40701592Y-60872485D01*
X40812485Y-60761592D01*
X40942883Y-60674463D01*
X41087772Y-60614448D01*
X41241586Y-60583852D01*
X41398414Y-60583852D01*
X41552228Y-60614448D01*
G37*
G36*
X34254047Y-59462805D02*
G01*
X34305408Y-59468764D01*
X34322954Y-59476511D01*
X34345671Y-59481030D01*
X34369991Y-59497280D01*
X34390793Y-59506465D01*
X34405000Y-59520672D01*
X34426777Y-59535223D01*
X34441327Y-59556999D01*
X34455534Y-59571206D01*
X34464718Y-59592006D01*
X34480970Y-59616329D01*
X34485489Y-59639048D01*
X34493235Y-59656591D01*
X34499192Y-59707940D01*
X34500000Y-59712000D01*
X34500000Y-60537000D01*
X34499192Y-60541059D01*
X34493235Y-60592408D01*
X34485489Y-60609950D01*
X34480970Y-60632671D01*
X34464716Y-60656995D01*
X34455534Y-60677793D01*
X34441329Y-60691997D01*
X34426777Y-60713777D01*
X34404997Y-60728329D01*
X34390793Y-60742534D01*
X34369995Y-60751716D01*
X34345671Y-60767970D01*
X34322950Y-60772489D01*
X34305408Y-60780235D01*
X34254061Y-60786192D01*
X34250000Y-60787000D01*
X32950000Y-60787000D01*
X32945941Y-60786192D01*
X32894591Y-60780235D01*
X32877048Y-60772489D01*
X32854329Y-60767970D01*
X32830006Y-60751718D01*
X32809206Y-60742534D01*
X32794999Y-60728327D01*
X32773223Y-60713777D01*
X32758672Y-60692000D01*
X32744465Y-60677793D01*
X32735280Y-60656991D01*
X32719030Y-60632671D01*
X32714511Y-60609954D01*
X32706764Y-60592408D01*
X32700805Y-60541049D01*
X32700000Y-60537000D01*
X32700000Y-59712000D01*
X32700804Y-59707953D01*
X32706764Y-59656591D01*
X32714511Y-59639043D01*
X32719030Y-59616329D01*
X32735278Y-59592010D01*
X32744465Y-59571206D01*
X32758674Y-59556996D01*
X32773223Y-59535223D01*
X32794996Y-59520674D01*
X32809206Y-59506465D01*
X32830010Y-59497278D01*
X32854329Y-59481030D01*
X32877043Y-59476511D01*
X32894591Y-59468764D01*
X32945952Y-59462805D01*
X32950000Y-59462000D01*
X34250000Y-59462000D01*
X34254047Y-59462805D01*
G37*
G36*
X15756790Y-57930393D02*
G01*
X15920952Y-57983733D01*
X16074748Y-58062096D01*
X16214393Y-58163553D01*
X16336447Y-58285607D01*
X16437904Y-58425252D01*
X16516267Y-58579048D01*
X16569607Y-58743210D01*
X16596609Y-58913695D01*
X16596609Y-59086305D01*
X16569607Y-59256790D01*
X16516267Y-59420952D01*
X16437904Y-59574748D01*
X16336447Y-59714393D01*
X16214393Y-59836447D01*
X16074748Y-59937904D01*
X15920952Y-60016267D01*
X15756790Y-60069607D01*
X15586305Y-60096609D01*
X15413695Y-60096609D01*
X15243210Y-60069607D01*
X15079048Y-60016267D01*
X14925252Y-59937904D01*
X14785607Y-59836447D01*
X14663553Y-59714393D01*
X14562096Y-59574748D01*
X14483733Y-59420952D01*
X14430393Y-59256790D01*
X14403391Y-59086305D01*
X14403391Y-58913695D01*
X14430393Y-58743210D01*
X14483733Y-58579048D01*
X14562096Y-58425252D01*
X14663553Y-58285607D01*
X14785607Y-58163553D01*
X14925252Y-58062096D01*
X15079048Y-57983733D01*
X15243210Y-57930393D01*
X15413695Y-57903391D01*
X15586305Y-57903391D01*
X15756790Y-57930393D01*
G37*
G36*
X27950000Y-57850000D02*
G01*
X26250000Y-57850000D01*
X26250000Y-56150000D01*
X27950000Y-56150000D01*
X27950000Y-57850000D01*
G37*
G36*
X19746742Y-56186601D02*
G01*
X19900687Y-56250367D01*
X20039234Y-56342941D01*
X20157059Y-56460766D01*
X20249633Y-56599313D01*
X20313399Y-56753258D01*
X20345907Y-56916685D01*
X20345907Y-57083315D01*
X20313399Y-57246742D01*
X20249633Y-57400687D01*
X20157059Y-57539234D01*
X20039234Y-57657059D01*
X19900687Y-57749633D01*
X19746742Y-57813399D01*
X19583315Y-57845907D01*
X19416685Y-57845907D01*
X19253258Y-57813399D01*
X19099313Y-57749633D01*
X18960766Y-57657059D01*
X18842941Y-57539234D01*
X18750367Y-57400687D01*
X18686601Y-57246742D01*
X18654093Y-57083315D01*
X18654093Y-56916685D01*
X18686601Y-56753258D01*
X18750367Y-56599313D01*
X18842941Y-56460766D01*
X18960766Y-56342941D01*
X19099313Y-56250367D01*
X19253258Y-56186601D01*
X19416685Y-56154093D01*
X19583315Y-56154093D01*
X19746742Y-56186601D01*
G37*
G36*
X21946742Y-56186601D02*
G01*
X22100687Y-56250367D01*
X22239234Y-56342941D01*
X22357059Y-56460766D01*
X22449633Y-56599313D01*
X22513399Y-56753258D01*
X22545907Y-56916685D01*
X22545907Y-57083315D01*
X22513399Y-57246742D01*
X22449633Y-57400687D01*
X22357059Y-57539234D01*
X22239234Y-57657059D01*
X22100687Y-57749633D01*
X21946742Y-57813399D01*
X21783315Y-57845907D01*
X21616685Y-57845907D01*
X21453258Y-57813399D01*
X21299313Y-57749633D01*
X21160766Y-57657059D01*
X21042941Y-57539234D01*
X20950367Y-57400687D01*
X20886601Y-57246742D01*
X20854093Y-57083315D01*
X20854093Y-56916685D01*
X20886601Y-56753258D01*
X20950367Y-56599313D01*
X21042941Y-56460766D01*
X21160766Y-56342941D01*
X21299313Y-56250367D01*
X21453258Y-56186601D01*
X21616685Y-56154093D01*
X21783315Y-56154093D01*
X21946742Y-56186601D01*
G37*
G36*
X24146742Y-56186601D02*
G01*
X24300687Y-56250367D01*
X24439234Y-56342941D01*
X24557059Y-56460766D01*
X24649633Y-56599313D01*
X24713399Y-56753258D01*
X24745907Y-56916685D01*
X24745907Y-57083315D01*
X24713399Y-57246742D01*
X24649633Y-57400687D01*
X24557059Y-57539234D01*
X24439234Y-57657059D01*
X24300687Y-57749633D01*
X24146742Y-57813399D01*
X23983315Y-57845907D01*
X23816685Y-57845907D01*
X23653258Y-57813399D01*
X23499313Y-57749633D01*
X23360766Y-57657059D01*
X23242941Y-57539234D01*
X23150367Y-57400687D01*
X23086601Y-57246742D01*
X23054093Y-57083315D01*
X23054093Y-56916685D01*
X23086601Y-56753258D01*
X23150367Y-56599313D01*
X23242941Y-56460766D01*
X23360766Y-56342941D01*
X23499313Y-56250367D01*
X23653258Y-56186601D01*
X23816685Y-56154093D01*
X23983315Y-56154093D01*
X24146742Y-56186601D01*
G37*
G36*
X34254047Y-56337805D02*
G01*
X34305408Y-56343764D01*
X34322954Y-56351511D01*
X34345671Y-56356030D01*
X34369991Y-56372280D01*
X34390793Y-56381465D01*
X34405000Y-56395672D01*
X34426777Y-56410223D01*
X34441327Y-56431999D01*
X34455534Y-56446206D01*
X34464718Y-56467006D01*
X34480970Y-56491329D01*
X34485489Y-56514048D01*
X34493235Y-56531591D01*
X34499192Y-56582940D01*
X34500000Y-56587000D01*
X34500000Y-57412000D01*
X34499192Y-57416059D01*
X34493235Y-57467408D01*
X34485489Y-57484950D01*
X34480970Y-57507671D01*
X34464716Y-57531995D01*
X34455534Y-57552793D01*
X34441329Y-57566997D01*
X34426777Y-57588777D01*
X34404997Y-57603329D01*
X34390793Y-57617534D01*
X34369995Y-57626716D01*
X34345671Y-57642970D01*
X34322950Y-57647489D01*
X34305408Y-57655235D01*
X34254061Y-57661192D01*
X34250000Y-57662000D01*
X32950000Y-57662000D01*
X32945941Y-57661192D01*
X32894591Y-57655235D01*
X32877048Y-57647489D01*
X32854329Y-57642970D01*
X32830006Y-57626718D01*
X32809206Y-57617534D01*
X32794999Y-57603327D01*
X32773223Y-57588777D01*
X32758672Y-57567000D01*
X32744465Y-57552793D01*
X32735280Y-57531991D01*
X32719030Y-57507671D01*
X32714511Y-57484954D01*
X32706764Y-57467408D01*
X32700805Y-57416049D01*
X32700000Y-57412000D01*
X32700000Y-56587000D01*
X32700804Y-56582953D01*
X32706764Y-56531591D01*
X32714511Y-56514043D01*
X32719030Y-56491329D01*
X32735278Y-56467010D01*
X32744465Y-56446206D01*
X32758674Y-56431996D01*
X32773223Y-56410223D01*
X32794996Y-56395674D01*
X32809206Y-56381465D01*
X32830010Y-56372278D01*
X32854329Y-56356030D01*
X32877043Y-56351511D01*
X32894591Y-56343764D01*
X32945952Y-56337805D01*
X32950000Y-56337000D01*
X34250000Y-56337000D01*
X34254047Y-56337805D01*
G37*
G36*
X36664047Y-55850805D02*
G01*
X36715408Y-55856764D01*
X36732954Y-55864511D01*
X36755671Y-55869030D01*
X36779991Y-55885280D01*
X36800793Y-55894465D01*
X36815000Y-55908672D01*
X36836777Y-55923223D01*
X36851327Y-55944999D01*
X36865534Y-55959206D01*
X36874718Y-55980006D01*
X36890970Y-56004329D01*
X36895489Y-56027048D01*
X36903235Y-56044591D01*
X36909192Y-56095940D01*
X36910000Y-56100000D01*
X36910000Y-57400000D01*
X36909192Y-57404059D01*
X36903235Y-57455408D01*
X36895489Y-57472950D01*
X36890970Y-57495671D01*
X36874716Y-57519995D01*
X36865534Y-57540793D01*
X36851329Y-57554997D01*
X36836777Y-57576777D01*
X36814997Y-57591329D01*
X36800793Y-57605534D01*
X36779995Y-57614716D01*
X36755671Y-57630970D01*
X36732950Y-57635489D01*
X36715408Y-57643235D01*
X36664061Y-57649192D01*
X36660000Y-57650000D01*
X35835000Y-57650000D01*
X35830941Y-57649192D01*
X35779591Y-57643235D01*
X35762048Y-57635489D01*
X35739329Y-57630970D01*
X35715006Y-57614718D01*
X35694206Y-57605534D01*
X35679999Y-57591327D01*
X35658223Y-57576777D01*
X35643672Y-57555000D01*
X35629465Y-57540793D01*
X35620280Y-57519991D01*
X35604030Y-57495671D01*
X35599511Y-57472954D01*
X35591764Y-57455408D01*
X35585805Y-57404049D01*
X35585000Y-57400000D01*
X35585000Y-56100000D01*
X35585804Y-56095953D01*
X35591764Y-56044591D01*
X35599511Y-56027043D01*
X35604030Y-56004329D01*
X35620278Y-55980010D01*
X35629465Y-55959206D01*
X35643674Y-55944996D01*
X35658223Y-55923223D01*
X35679996Y-55908674D01*
X35694206Y-55894465D01*
X35715010Y-55885278D01*
X35739329Y-55869030D01*
X35762043Y-55864511D01*
X35779591Y-55856764D01*
X35830952Y-55850805D01*
X35835000Y-55850000D01*
X36660000Y-55850000D01*
X36664047Y-55850805D01*
G37*
G36*
X39789047Y-55850805D02*
G01*
X39840408Y-55856764D01*
X39857954Y-55864511D01*
X39880671Y-55869030D01*
X39904991Y-55885280D01*
X39925793Y-55894465D01*
X39940000Y-55908672D01*
X39961777Y-55923223D01*
X39976327Y-55944999D01*
X39990534Y-55959206D01*
X39999718Y-55980006D01*
X40015970Y-56004329D01*
X40020489Y-56027048D01*
X40028235Y-56044591D01*
X40034192Y-56095940D01*
X40035000Y-56100000D01*
X40035000Y-57400000D01*
X40034192Y-57404059D01*
X40028235Y-57455408D01*
X40020489Y-57472950D01*
X40015970Y-57495671D01*
X39999716Y-57519995D01*
X39990534Y-57540793D01*
X39976329Y-57554997D01*
X39961777Y-57576777D01*
X39939997Y-57591329D01*
X39925793Y-57605534D01*
X39904995Y-57614716D01*
X39880671Y-57630970D01*
X39857950Y-57635489D01*
X39840408Y-57643235D01*
X39789061Y-57649192D01*
X39785000Y-57650000D01*
X38960000Y-57650000D01*
X38955941Y-57649192D01*
X38904591Y-57643235D01*
X38887048Y-57635489D01*
X38864329Y-57630970D01*
X38840006Y-57614718D01*
X38819206Y-57605534D01*
X38804999Y-57591327D01*
X38783223Y-57576777D01*
X38768672Y-57555000D01*
X38754465Y-57540793D01*
X38745280Y-57519991D01*
X38729030Y-57495671D01*
X38724511Y-57472954D01*
X38716764Y-57455408D01*
X38710805Y-57404049D01*
X38710000Y-57400000D01*
X38710000Y-56100000D01*
X38710804Y-56095953D01*
X38716764Y-56044591D01*
X38724511Y-56027043D01*
X38729030Y-56004329D01*
X38745278Y-55980010D01*
X38754465Y-55959206D01*
X38768674Y-55944996D01*
X38783223Y-55923223D01*
X38804996Y-55908674D01*
X38819206Y-55894465D01*
X38840010Y-55885278D01*
X38864329Y-55869030D01*
X38887043Y-55864511D01*
X38904591Y-55856764D01*
X38955952Y-55850805D01*
X38960000Y-55850000D01*
X39785000Y-55850000D01*
X39789047Y-55850805D01*
G37*
G36*
X3873513Y-53944208D02*
G01*
X4112293Y-54021793D01*
X4335998Y-54135776D01*
X4539117Y-54283350D01*
X4716650Y-54460883D01*
X4864224Y-54664002D01*
X4978207Y-54887707D01*
X5055792Y-55126487D01*
X5095068Y-55374465D01*
X5095068Y-55625535D01*
X5055792Y-55873513D01*
X4978207Y-56112293D01*
X4864224Y-56335998D01*
X4716650Y-56539117D01*
X4539117Y-56716650D01*
X4335998Y-56864224D01*
X4112293Y-56978207D01*
X3873513Y-57055792D01*
X3625535Y-57095068D01*
X3374465Y-57095068D01*
X3126487Y-57055792D01*
X2887707Y-56978207D01*
X2664002Y-56864224D01*
X2460883Y-56716650D01*
X2283350Y-56539117D01*
X2135776Y-56335998D01*
X2021793Y-56112293D01*
X1944208Y-55873513D01*
X1904932Y-55625535D01*
X1904932Y-55374465D01*
X1944208Y-55126487D01*
X2021793Y-54887707D01*
X2135776Y-54664002D01*
X2283350Y-54460883D01*
X2460883Y-54283350D01*
X2664002Y-54135776D01*
X2887707Y-54021793D01*
X3126487Y-53944208D01*
X3374465Y-53904932D01*
X3625535Y-53904932D01*
X3873513Y-53944208D01*
G37*
G36*
X31154047Y-55200805D02*
G01*
X31205408Y-55206764D01*
X31222954Y-55214511D01*
X31245671Y-55219030D01*
X31269991Y-55235280D01*
X31290793Y-55244465D01*
X31305000Y-55258672D01*
X31326777Y-55273223D01*
X31341327Y-55294999D01*
X31355534Y-55309206D01*
X31364718Y-55330006D01*
X31380970Y-55354329D01*
X31385489Y-55377048D01*
X31393235Y-55394591D01*
X31399192Y-55445940D01*
X31400000Y-55450000D01*
X31400000Y-56550000D01*
X31399192Y-56554059D01*
X31393235Y-56605408D01*
X31385489Y-56622950D01*
X31380970Y-56645671D01*
X31364716Y-56669995D01*
X31355534Y-56690793D01*
X31341329Y-56704997D01*
X31326777Y-56726777D01*
X31304997Y-56741329D01*
X31290793Y-56755534D01*
X31269995Y-56764716D01*
X31245671Y-56780970D01*
X31222950Y-56785489D01*
X31205408Y-56793235D01*
X31154061Y-56799192D01*
X31150000Y-56800000D01*
X30050000Y-56800000D01*
X30045941Y-56799192D01*
X29994591Y-56793235D01*
X29977048Y-56785489D01*
X29954329Y-56780970D01*
X29930006Y-56764718D01*
X29909206Y-56755534D01*
X29894999Y-56741327D01*
X29873223Y-56726777D01*
X29858672Y-56705000D01*
X29844465Y-56690793D01*
X29835280Y-56669991D01*
X29819030Y-56645671D01*
X29814511Y-56622954D01*
X29806764Y-56605408D01*
X29800805Y-56554049D01*
X29800000Y-56550000D01*
X29800000Y-55450000D01*
X29800804Y-55445953D01*
X29806764Y-55394591D01*
X29814511Y-55377043D01*
X29819030Y-55354329D01*
X29835278Y-55330010D01*
X29844465Y-55309206D01*
X29858674Y-55294996D01*
X29873223Y-55273223D01*
X29894996Y-55258674D01*
X29909206Y-55244465D01*
X29930010Y-55235278D01*
X29954329Y-55219030D01*
X29977043Y-55214511D01*
X29994591Y-55206764D01*
X30045952Y-55200805D01*
X30050000Y-55200000D01*
X31150000Y-55200000D01*
X31154047Y-55200805D01*
G37*
G36*
X20129047Y-53600805D02*
G01*
X20180408Y-53606764D01*
X20197954Y-53614511D01*
X20220671Y-53619030D01*
X20244991Y-53635280D01*
X20265793Y-53644465D01*
X20280000Y-53658672D01*
X20301777Y-53673223D01*
X20316327Y-53694999D01*
X20330534Y-53709206D01*
X20339718Y-53730006D01*
X20355970Y-53754329D01*
X20360489Y-53777048D01*
X20368235Y-53794591D01*
X20374192Y-53845940D01*
X20375000Y-53850000D01*
X20375000Y-54650000D01*
X20374192Y-54654059D01*
X20368235Y-54705408D01*
X20360489Y-54722950D01*
X20355970Y-54745671D01*
X20339716Y-54769995D01*
X20330534Y-54790793D01*
X20316329Y-54804997D01*
X20301777Y-54826777D01*
X20279997Y-54841329D01*
X20265793Y-54855534D01*
X20244995Y-54864716D01*
X20220671Y-54880970D01*
X20197950Y-54885489D01*
X20180408Y-54893235D01*
X20129061Y-54899192D01*
X20125000Y-54900000D01*
X18875000Y-54900000D01*
X18870941Y-54899192D01*
X18819591Y-54893235D01*
X18802048Y-54885489D01*
X18779329Y-54880970D01*
X18755006Y-54864718D01*
X18734206Y-54855534D01*
X18719999Y-54841327D01*
X18698223Y-54826777D01*
X18683672Y-54805000D01*
X18669465Y-54790793D01*
X18660280Y-54769991D01*
X18644030Y-54745671D01*
X18639511Y-54722954D01*
X18631764Y-54705408D01*
X18625805Y-54654049D01*
X18625000Y-54650000D01*
X18625000Y-53850000D01*
X18625804Y-53845953D01*
X18631764Y-53794591D01*
X18639511Y-53777043D01*
X18644030Y-53754329D01*
X18660278Y-53730010D01*
X18669465Y-53709206D01*
X18683674Y-53694996D01*
X18698223Y-53673223D01*
X18719996Y-53658674D01*
X18734206Y-53644465D01*
X18755010Y-53635278D01*
X18779329Y-53619030D01*
X18802043Y-53614511D01*
X18819591Y-53606764D01*
X18870952Y-53600805D01*
X18875000Y-53600000D01*
X20125000Y-53600000D01*
X20129047Y-53600805D01*
G37*
G36*
X23932403Y-53761418D02*
G01*
X23981066Y-53793934D01*
X24013582Y-53842597D01*
X24025000Y-53900000D01*
X24025000Y-54200000D01*
X24013582Y-54257403D01*
X23981066Y-54306066D01*
X23932403Y-54338582D01*
X23875000Y-54350000D01*
X22850000Y-54350000D01*
X22792597Y-54338582D01*
X22743934Y-54306066D01*
X22711418Y-54257403D01*
X22700000Y-54200000D01*
X22700000Y-53900000D01*
X22711418Y-53842597D01*
X22743934Y-53793934D01*
X22792597Y-53761418D01*
X22850000Y-53750000D01*
X23875000Y-53750000D01*
X23932403Y-53761418D01*
G37*
G36*
X26207403Y-53761418D02*
G01*
X26256066Y-53793934D01*
X26288582Y-53842597D01*
X26300000Y-53900000D01*
X26300000Y-54200000D01*
X26288582Y-54257403D01*
X26256066Y-54306066D01*
X26207403Y-54338582D01*
X26150000Y-54350000D01*
X25125000Y-54350000D01*
X25067597Y-54338582D01*
X25018934Y-54306066D01*
X24986418Y-54257403D01*
X24975000Y-54200000D01*
X24975000Y-53900000D01*
X24986418Y-53842597D01*
X25018934Y-53793934D01*
X25067597Y-53761418D01*
X25125000Y-53750000D01*
X26150000Y-53750000D01*
X26207403Y-53761418D01*
G37*
G36*
X28454047Y-52200805D02*
G01*
X28505408Y-52206764D01*
X28522954Y-52214511D01*
X28545671Y-52219030D01*
X28569991Y-52235280D01*
X28590793Y-52244465D01*
X28605000Y-52258672D01*
X28626777Y-52273223D01*
X28641327Y-52294999D01*
X28655534Y-52309206D01*
X28664718Y-52330006D01*
X28680970Y-52354329D01*
X28685489Y-52377048D01*
X28693235Y-52394591D01*
X28699192Y-52445940D01*
X28700000Y-52450000D01*
X28700000Y-53750000D01*
X28699192Y-53754059D01*
X28693235Y-53805408D01*
X28685489Y-53822950D01*
X28680970Y-53845671D01*
X28664716Y-53869995D01*
X28655534Y-53890793D01*
X28641329Y-53904997D01*
X28626777Y-53926777D01*
X28604997Y-53941329D01*
X28590793Y-53955534D01*
X28569995Y-53964716D01*
X28545671Y-53980970D01*
X28522950Y-53985489D01*
X28505408Y-53993235D01*
X28454061Y-53999192D01*
X28450000Y-54000000D01*
X27625000Y-54000000D01*
X27620941Y-53999192D01*
X27569591Y-53993235D01*
X27552048Y-53985489D01*
X27529329Y-53980970D01*
X27505006Y-53964718D01*
X27484206Y-53955534D01*
X27469999Y-53941327D01*
X27448223Y-53926777D01*
X27433672Y-53905000D01*
X27419465Y-53890793D01*
X27410280Y-53869991D01*
X27394030Y-53845671D01*
X27389511Y-53822954D01*
X27381764Y-53805408D01*
X27375805Y-53754049D01*
X27375000Y-53750000D01*
X27375000Y-52450000D01*
X27375804Y-52445953D01*
X27381764Y-52394591D01*
X27389511Y-52377043D01*
X27394030Y-52354329D01*
X27410278Y-52330010D01*
X27419465Y-52309206D01*
X27433674Y-52294996D01*
X27448223Y-52273223D01*
X27469996Y-52258674D01*
X27484206Y-52244465D01*
X27505010Y-52235278D01*
X27529329Y-52219030D01*
X27552043Y-52214511D01*
X27569591Y-52206764D01*
X27620952Y-52200805D01*
X27625000Y-52200000D01*
X28450000Y-52200000D01*
X28454047Y-52200805D01*
G37*
G36*
X31579047Y-52200805D02*
G01*
X31630408Y-52206764D01*
X31647954Y-52214511D01*
X31670671Y-52219030D01*
X31694991Y-52235280D01*
X31715793Y-52244465D01*
X31730000Y-52258672D01*
X31751777Y-52273223D01*
X31766327Y-52294999D01*
X31780534Y-52309206D01*
X31789718Y-52330006D01*
X31805970Y-52354329D01*
X31810489Y-52377048D01*
X31818235Y-52394591D01*
X31824192Y-52445940D01*
X31825000Y-52450000D01*
X31825000Y-53750000D01*
X31824192Y-53754059D01*
X31818235Y-53805408D01*
X31810489Y-53822950D01*
X31805970Y-53845671D01*
X31789716Y-53869995D01*
X31780534Y-53890793D01*
X31766329Y-53904997D01*
X31751777Y-53926777D01*
X31729997Y-53941329D01*
X31715793Y-53955534D01*
X31694995Y-53964716D01*
X31670671Y-53980970D01*
X31647950Y-53985489D01*
X31630408Y-53993235D01*
X31579061Y-53999192D01*
X31575000Y-54000000D01*
X30750000Y-54000000D01*
X30745941Y-53999192D01*
X30694591Y-53993235D01*
X30677048Y-53985489D01*
X30654329Y-53980970D01*
X30630006Y-53964718D01*
X30609206Y-53955534D01*
X30594999Y-53941327D01*
X30573223Y-53926777D01*
X30558672Y-53905000D01*
X30544465Y-53890793D01*
X30535280Y-53869991D01*
X30519030Y-53845671D01*
X30514511Y-53822954D01*
X30506764Y-53805408D01*
X30500805Y-53754049D01*
X30500000Y-53750000D01*
X30500000Y-52450000D01*
X30500804Y-52445953D01*
X30506764Y-52394591D01*
X30514511Y-52377043D01*
X30519030Y-52354329D01*
X30535278Y-52330010D01*
X30544465Y-52309206D01*
X30558674Y-52294996D01*
X30573223Y-52273223D01*
X30594996Y-52258674D01*
X30609206Y-52244465D01*
X30630010Y-52235278D01*
X30654329Y-52219030D01*
X30677043Y-52214511D01*
X30694591Y-52206764D01*
X30745952Y-52200805D01*
X30750000Y-52200000D01*
X31575000Y-52200000D01*
X31579047Y-52200805D01*
G37*
G36*
X34750000Y-53750000D02*
G01*
X33250000Y-53750000D01*
X33250000Y-52250000D01*
X34750000Y-52250000D01*
X34750000Y-53750000D01*
G37*
G36*
X36757714Y-52282295D02*
G01*
X36893548Y-52338559D01*
X37015795Y-52420242D01*
X37119758Y-52524205D01*
X37201441Y-52646452D01*
X37257705Y-52782286D01*
X37286389Y-52926487D01*
X37286389Y-53073513D01*
X37257705Y-53217714D01*
X37201441Y-53353548D01*
X37119758Y-53475795D01*
X37015795Y-53579758D01*
X36893548Y-53661441D01*
X36757714Y-53717705D01*
X36613513Y-53746389D01*
X36466487Y-53746389D01*
X36322286Y-53717705D01*
X36186452Y-53661441D01*
X36064205Y-53579758D01*
X35960242Y-53475795D01*
X35878559Y-53353548D01*
X35822295Y-53217714D01*
X35793611Y-53073513D01*
X35793611Y-52926487D01*
X35822295Y-52782286D01*
X35878559Y-52646452D01*
X35960242Y-52524205D01*
X36064205Y-52420242D01*
X36186452Y-52338559D01*
X36322286Y-52282295D01*
X36466487Y-52253611D01*
X36613513Y-52253611D01*
X36757714Y-52282295D01*
G37*
G36*
X39297714Y-52282295D02*
G01*
X39433548Y-52338559D01*
X39555795Y-52420242D01*
X39659758Y-52524205D01*
X39741441Y-52646452D01*
X39797705Y-52782286D01*
X39826389Y-52926487D01*
X39826389Y-53073513D01*
X39797705Y-53217714D01*
X39741441Y-53353548D01*
X39659758Y-53475795D01*
X39555795Y-53579758D01*
X39433548Y-53661441D01*
X39297714Y-53717705D01*
X39153513Y-53746389D01*
X39006487Y-53746389D01*
X38862286Y-53717705D01*
X38726452Y-53661441D01*
X38604205Y-53579758D01*
X38500242Y-53475795D01*
X38418559Y-53353548D01*
X38362295Y-53217714D01*
X38333611Y-53073513D01*
X38333611Y-52926487D01*
X38362295Y-52782286D01*
X38418559Y-52646452D01*
X38500242Y-52524205D01*
X38604205Y-52420242D01*
X38726452Y-52338559D01*
X38862286Y-52282295D01*
X39006487Y-52253611D01*
X39153513Y-52253611D01*
X39297714Y-52282295D01*
G37*
G36*
X23932403Y-52811418D02*
G01*
X23981066Y-52843934D01*
X24013582Y-52892597D01*
X24025000Y-52950000D01*
X24025000Y-53250000D01*
X24013582Y-53307403D01*
X23981066Y-53356066D01*
X23932403Y-53388582D01*
X23875000Y-53400000D01*
X22850000Y-53400000D01*
X22792597Y-53388582D01*
X22743934Y-53356066D01*
X22711418Y-53307403D01*
X22700000Y-53250000D01*
X22700000Y-52950000D01*
X22711418Y-52892597D01*
X22743934Y-52843934D01*
X22792597Y-52811418D01*
X22850000Y-52800000D01*
X23875000Y-52800000D01*
X23932403Y-52811418D01*
G37*
G36*
X26207403Y-52811418D02*
G01*
X26256066Y-52843934D01*
X26288582Y-52892597D01*
X26300000Y-52950000D01*
X26300000Y-53250000D01*
X26288582Y-53307403D01*
X26256066Y-53356066D01*
X26207403Y-53388582D01*
X26150000Y-53400000D01*
X25125000Y-53400000D01*
X25067597Y-53388582D01*
X25018934Y-53356066D01*
X24986418Y-53307403D01*
X24975000Y-53250000D01*
X24975000Y-52950000D01*
X24986418Y-52892597D01*
X25018934Y-52843934D01*
X25067597Y-52811418D01*
X25125000Y-52800000D01*
X26150000Y-52800000D01*
X26207403Y-52811418D01*
G37*
G36*
X14166047Y-50775805D02*
G01*
X14217408Y-50781764D01*
X14234954Y-50789511D01*
X14257671Y-50794030D01*
X14281991Y-50810280D01*
X14302793Y-50819465D01*
X14317000Y-50833672D01*
X14338777Y-50848223D01*
X14353327Y-50869999D01*
X14367534Y-50884206D01*
X14376718Y-50905006D01*
X14392970Y-50929329D01*
X14397489Y-50952048D01*
X14405235Y-50969591D01*
X14411192Y-51020940D01*
X14412000Y-51025000D01*
X14412000Y-52275000D01*
X14411192Y-52279059D01*
X14405235Y-52330408D01*
X14397489Y-52347950D01*
X14392970Y-52370671D01*
X14376716Y-52394995D01*
X14367534Y-52415793D01*
X14353329Y-52429997D01*
X14338777Y-52451777D01*
X14316997Y-52466329D01*
X14302793Y-52480534D01*
X14281995Y-52489716D01*
X14257671Y-52505970D01*
X14234950Y-52510489D01*
X14217408Y-52518235D01*
X14166061Y-52524192D01*
X14162000Y-52525000D01*
X13362000Y-52525000D01*
X13357941Y-52524192D01*
X13306591Y-52518235D01*
X13289048Y-52510489D01*
X13266329Y-52505970D01*
X13242006Y-52489718D01*
X13221206Y-52480534D01*
X13206999Y-52466327D01*
X13185223Y-52451777D01*
X13170672Y-52430000D01*
X13156465Y-52415793D01*
X13147280Y-52394991D01*
X13131030Y-52370671D01*
X13126511Y-52347954D01*
X13118764Y-52330408D01*
X13112805Y-52279049D01*
X13112000Y-52275000D01*
X13112000Y-51025000D01*
X13112804Y-51020953D01*
X13118764Y-50969591D01*
X13126511Y-50952043D01*
X13131030Y-50929329D01*
X13147278Y-50905010D01*
X13156465Y-50884206D01*
X13170674Y-50869996D01*
X13185223Y-50848223D01*
X13206996Y-50833674D01*
X13221206Y-50819465D01*
X13242010Y-50810278D01*
X13266329Y-50794030D01*
X13289043Y-50789511D01*
X13306591Y-50781764D01*
X13357952Y-50775805D01*
X13362000Y-50775000D01*
X14162000Y-50775000D01*
X14166047Y-50775805D01*
G37*
G36*
X17266047Y-50775805D02*
G01*
X17317408Y-50781764D01*
X17334954Y-50789511D01*
X17357671Y-50794030D01*
X17381991Y-50810280D01*
X17402793Y-50819465D01*
X17417000Y-50833672D01*
X17438777Y-50848223D01*
X17453327Y-50869999D01*
X17467534Y-50884206D01*
X17476718Y-50905006D01*
X17492970Y-50929329D01*
X17497489Y-50952048D01*
X17505235Y-50969591D01*
X17511192Y-51020940D01*
X17512000Y-51025000D01*
X17512000Y-52275000D01*
X17511192Y-52279059D01*
X17505235Y-52330408D01*
X17497489Y-52347950D01*
X17492970Y-52370671D01*
X17476716Y-52394995D01*
X17467534Y-52415793D01*
X17453329Y-52429997D01*
X17438777Y-52451777D01*
X17416997Y-52466329D01*
X17402793Y-52480534D01*
X17381995Y-52489716D01*
X17357671Y-52505970D01*
X17334950Y-52510489D01*
X17317408Y-52518235D01*
X17266061Y-52524192D01*
X17262000Y-52525000D01*
X16462000Y-52525000D01*
X16457941Y-52524192D01*
X16406591Y-52518235D01*
X16389048Y-52510489D01*
X16366329Y-52505970D01*
X16342006Y-52489718D01*
X16321206Y-52480534D01*
X16306999Y-52466327D01*
X16285223Y-52451777D01*
X16270672Y-52430000D01*
X16256465Y-52415793D01*
X16247280Y-52394991D01*
X16231030Y-52370671D01*
X16226511Y-52347954D01*
X16218764Y-52330408D01*
X16212805Y-52279049D01*
X16212000Y-52275000D01*
X16212000Y-51025000D01*
X16212804Y-51020953D01*
X16218764Y-50969591D01*
X16226511Y-50952043D01*
X16231030Y-50929329D01*
X16247278Y-50905010D01*
X16256465Y-50884206D01*
X16270674Y-50869996D01*
X16285223Y-50848223D01*
X16306996Y-50833674D01*
X16321206Y-50819465D01*
X16342010Y-50810278D01*
X16366329Y-50794030D01*
X16389043Y-50789511D01*
X16406591Y-50781764D01*
X16457952Y-50775805D01*
X16462000Y-50775000D01*
X17262000Y-50775000D01*
X17266047Y-50775805D01*
G37*
G36*
X23932403Y-51861418D02*
G01*
X23981066Y-51893934D01*
X24013582Y-51942597D01*
X24025000Y-52000000D01*
X24025000Y-52300000D01*
X24013582Y-52357403D01*
X23981066Y-52406066D01*
X23932403Y-52438582D01*
X23875000Y-52450000D01*
X22850000Y-52450000D01*
X22792597Y-52438582D01*
X22743934Y-52406066D01*
X22711418Y-52357403D01*
X22700000Y-52300000D01*
X22700000Y-52000000D01*
X22711418Y-51942597D01*
X22743934Y-51893934D01*
X22792597Y-51861418D01*
X22850000Y-51850000D01*
X23875000Y-51850000D01*
X23932403Y-51861418D01*
G37*
G36*
X26207403Y-51861418D02*
G01*
X26256066Y-51893934D01*
X26288582Y-51942597D01*
X26300000Y-52000000D01*
X26300000Y-52300000D01*
X26288582Y-52357403D01*
X26256066Y-52406066D01*
X26207403Y-52438582D01*
X26150000Y-52450000D01*
X25125000Y-52450000D01*
X25067597Y-52438582D01*
X25018934Y-52406066D01*
X24986418Y-52357403D01*
X24975000Y-52300000D01*
X24975000Y-52000000D01*
X24986418Y-51942597D01*
X25018934Y-51893934D01*
X25067597Y-51861418D01*
X25125000Y-51850000D01*
X26150000Y-51850000D01*
X26207403Y-51861418D01*
G37*
G36*
X20129047Y-50500805D02*
G01*
X20180408Y-50506764D01*
X20197954Y-50514511D01*
X20220671Y-50519030D01*
X20244991Y-50535280D01*
X20265793Y-50544465D01*
X20280000Y-50558672D01*
X20301777Y-50573223D01*
X20316327Y-50594999D01*
X20330534Y-50609206D01*
X20339718Y-50630006D01*
X20355970Y-50654329D01*
X20360489Y-50677048D01*
X20368235Y-50694591D01*
X20374192Y-50745940D01*
X20375000Y-50750000D01*
X20375000Y-51550000D01*
X20374192Y-51554059D01*
X20368235Y-51605408D01*
X20360489Y-51622950D01*
X20355970Y-51645671D01*
X20339716Y-51669995D01*
X20330534Y-51690793D01*
X20316329Y-51704997D01*
X20301777Y-51726777D01*
X20279997Y-51741329D01*
X20265793Y-51755534D01*
X20244995Y-51764716D01*
X20220671Y-51780970D01*
X20197950Y-51785489D01*
X20180408Y-51793235D01*
X20129061Y-51799192D01*
X20125000Y-51800000D01*
X18875000Y-51800000D01*
X18870941Y-51799192D01*
X18819591Y-51793235D01*
X18802048Y-51785489D01*
X18779329Y-51780970D01*
X18755006Y-51764718D01*
X18734206Y-51755534D01*
X18719999Y-51741327D01*
X18698223Y-51726777D01*
X18683672Y-51705000D01*
X18669465Y-51690793D01*
X18660280Y-51669991D01*
X18644030Y-51645671D01*
X18639511Y-51622954D01*
X18631764Y-51605408D01*
X18625805Y-51554049D01*
X18625000Y-51550000D01*
X18625000Y-50750000D01*
X18625804Y-50745953D01*
X18631764Y-50694591D01*
X18639511Y-50677043D01*
X18644030Y-50654329D01*
X18660278Y-50630010D01*
X18669465Y-50609206D01*
X18683674Y-50594996D01*
X18698223Y-50573223D01*
X18719996Y-50558674D01*
X18734206Y-50544465D01*
X18755010Y-50535278D01*
X18779329Y-50519030D01*
X18802043Y-50514511D01*
X18819591Y-50506764D01*
X18870952Y-50500805D01*
X18875000Y-50500000D01*
X20125000Y-50500000D01*
X20129047Y-50500805D01*
G37*
G36*
X31453199Y-49580142D02*
G01*
X31579978Y-49632655D01*
X31694075Y-49708893D01*
X31791107Y-49805925D01*
X31867345Y-49920022D01*
X31919858Y-50046801D01*
X31946629Y-50181388D01*
X31946629Y-50318612D01*
X31919858Y-50453199D01*
X31867345Y-50579978D01*
X31791107Y-50694075D01*
X31694075Y-50791107D01*
X31579978Y-50867345D01*
X31453199Y-50919858D01*
X31318612Y-50946629D01*
X31181388Y-50946629D01*
X31046801Y-50919858D01*
X30920022Y-50867345D01*
X30805925Y-50791107D01*
X30708893Y-50694075D01*
X30632655Y-50579978D01*
X30580142Y-50453199D01*
X30553371Y-50318612D01*
X30553371Y-50181388D01*
X30580142Y-50046801D01*
X30632655Y-49920022D01*
X30708893Y-49805925D01*
X30805925Y-49708893D01*
X30920022Y-49632655D01*
X31046801Y-49580142D01*
X31181388Y-49553371D01*
X31318612Y-49553371D01*
X31453199Y-49580142D01*
G37*
G36*
X26992047Y-49200805D02*
G01*
X27043408Y-49206764D01*
X27060954Y-49214511D01*
X27083671Y-49219030D01*
X27107991Y-49235280D01*
X27128793Y-49244465D01*
X27143000Y-49258672D01*
X27164777Y-49273223D01*
X27179327Y-49294999D01*
X27193534Y-49309206D01*
X27202718Y-49330006D01*
X27218970Y-49354329D01*
X27223489Y-49377048D01*
X27231235Y-49394591D01*
X27237192Y-49445940D01*
X27238000Y-49450000D01*
X27238000Y-50250000D01*
X27237192Y-50254059D01*
X27231235Y-50305408D01*
X27223489Y-50322950D01*
X27218970Y-50345671D01*
X27202716Y-50369995D01*
X27193534Y-50390793D01*
X27179329Y-50404997D01*
X27164777Y-50426777D01*
X27142997Y-50441329D01*
X27128793Y-50455534D01*
X27107995Y-50464716D01*
X27083671Y-50480970D01*
X27060950Y-50485489D01*
X27043408Y-50493235D01*
X26992061Y-50499192D01*
X26988000Y-50500000D01*
X25738000Y-50500000D01*
X25733941Y-50499192D01*
X25682591Y-50493235D01*
X25665048Y-50485489D01*
X25642329Y-50480970D01*
X25618006Y-50464718D01*
X25597206Y-50455534D01*
X25582999Y-50441327D01*
X25561223Y-50426777D01*
X25546672Y-50405000D01*
X25532465Y-50390793D01*
X25523280Y-50369991D01*
X25507030Y-50345671D01*
X25502511Y-50322954D01*
X25494764Y-50305408D01*
X25488805Y-50254049D01*
X25488000Y-50250000D01*
X25488000Y-49450000D01*
X25488804Y-49445953D01*
X25494764Y-49394591D01*
X25502511Y-49377043D01*
X25507030Y-49354329D01*
X25523278Y-49330010D01*
X25532465Y-49309206D01*
X25546674Y-49294996D01*
X25561223Y-49273223D01*
X25582996Y-49258674D01*
X25597206Y-49244465D01*
X25618010Y-49235278D01*
X25642329Y-49219030D01*
X25665043Y-49214511D01*
X25682591Y-49206764D01*
X25733952Y-49200805D01*
X25738000Y-49200000D01*
X26988000Y-49200000D01*
X26992047Y-49200805D01*
G37*
G36*
X24017047Y-49138805D02*
G01*
X24068408Y-49144764D01*
X24085954Y-49152511D01*
X24108671Y-49157030D01*
X24132991Y-49173280D01*
X24153793Y-49182465D01*
X24168000Y-49196672D01*
X24189777Y-49211223D01*
X24204327Y-49232999D01*
X24218534Y-49247206D01*
X24227718Y-49268006D01*
X24243970Y-49292329D01*
X24248489Y-49315048D01*
X24256235Y-49332591D01*
X24262192Y-49383940D01*
X24263000Y-49388000D01*
X24263000Y-50213000D01*
X24262192Y-50217059D01*
X24256235Y-50268408D01*
X24248489Y-50285950D01*
X24243970Y-50308671D01*
X24227716Y-50332995D01*
X24218534Y-50353793D01*
X24204329Y-50367997D01*
X24189777Y-50389777D01*
X24167997Y-50404329D01*
X24153793Y-50418534D01*
X24132995Y-50427716D01*
X24108671Y-50443970D01*
X24085950Y-50448489D01*
X24068408Y-50456235D01*
X24017061Y-50462192D01*
X24013000Y-50463000D01*
X22713000Y-50463000D01*
X22708941Y-50462192D01*
X22657591Y-50456235D01*
X22640048Y-50448489D01*
X22617329Y-50443970D01*
X22593006Y-50427718D01*
X22572206Y-50418534D01*
X22557999Y-50404327D01*
X22536223Y-50389777D01*
X22521672Y-50368000D01*
X22507465Y-50353793D01*
X22498280Y-50332991D01*
X22482030Y-50308671D01*
X22477511Y-50285954D01*
X22469764Y-50268408D01*
X22463805Y-50217049D01*
X22463000Y-50213000D01*
X22463000Y-49388000D01*
X22463804Y-49383953D01*
X22469764Y-49332591D01*
X22477511Y-49315043D01*
X22482030Y-49292329D01*
X22498278Y-49268010D01*
X22507465Y-49247206D01*
X22521674Y-49232996D01*
X22536223Y-49211223D01*
X22557996Y-49196674D01*
X22572206Y-49182465D01*
X22593010Y-49173278D01*
X22617329Y-49157030D01*
X22640043Y-49152511D01*
X22657591Y-49144764D01*
X22708952Y-49138805D01*
X22713000Y-49138000D01*
X24013000Y-49138000D01*
X24017047Y-49138805D01*
G37*
G36*
X17917047Y-47675805D02*
G01*
X17968408Y-47681764D01*
X17985954Y-47689511D01*
X18008671Y-47694030D01*
X18032991Y-47710280D01*
X18053793Y-47719465D01*
X18068000Y-47733672D01*
X18089777Y-47748223D01*
X18104327Y-47769999D01*
X18118534Y-47784206D01*
X18127718Y-47805006D01*
X18143970Y-47829329D01*
X18148489Y-47852048D01*
X18156235Y-47869591D01*
X18162192Y-47920940D01*
X18163000Y-47925000D01*
X18163000Y-49175000D01*
X18162192Y-49179059D01*
X18156235Y-49230408D01*
X18148489Y-49247950D01*
X18143970Y-49270671D01*
X18127716Y-49294995D01*
X18118534Y-49315793D01*
X18104329Y-49329997D01*
X18089777Y-49351777D01*
X18067997Y-49366329D01*
X18053793Y-49380534D01*
X18032995Y-49389716D01*
X18008671Y-49405970D01*
X17985950Y-49410489D01*
X17968408Y-49418235D01*
X17917061Y-49424192D01*
X17913000Y-49425000D01*
X17113000Y-49425000D01*
X17108941Y-49424192D01*
X17057591Y-49418235D01*
X17040048Y-49410489D01*
X17017329Y-49405970D01*
X16993006Y-49389718D01*
X16972206Y-49380534D01*
X16957999Y-49366327D01*
X16936223Y-49351777D01*
X16921672Y-49330000D01*
X16907465Y-49315793D01*
X16898280Y-49294991D01*
X16882030Y-49270671D01*
X16877511Y-49247954D01*
X16869764Y-49230408D01*
X16863805Y-49179049D01*
X16863000Y-49175000D01*
X16863000Y-47925000D01*
X16863804Y-47920953D01*
X16869764Y-47869591D01*
X16877511Y-47852043D01*
X16882030Y-47829329D01*
X16898278Y-47805010D01*
X16907465Y-47784206D01*
X16921674Y-47769996D01*
X16936223Y-47748223D01*
X16957996Y-47733674D01*
X16972206Y-47719465D01*
X16993010Y-47710278D01*
X17017329Y-47694030D01*
X17040043Y-47689511D01*
X17057591Y-47681764D01*
X17108952Y-47675805D01*
X17113000Y-47675000D01*
X17913000Y-47675000D01*
X17917047Y-47675805D01*
G37*
G36*
X21017047Y-47675805D02*
G01*
X21068408Y-47681764D01*
X21085954Y-47689511D01*
X21108671Y-47694030D01*
X21132991Y-47710280D01*
X21153793Y-47719465D01*
X21168000Y-47733672D01*
X21189777Y-47748223D01*
X21204327Y-47769999D01*
X21218534Y-47784206D01*
X21227718Y-47805006D01*
X21243970Y-47829329D01*
X21248489Y-47852048D01*
X21256235Y-47869591D01*
X21262192Y-47920940D01*
X21263000Y-47925000D01*
X21263000Y-49175000D01*
X21262192Y-49179059D01*
X21256235Y-49230408D01*
X21248489Y-49247950D01*
X21243970Y-49270671D01*
X21227716Y-49294995D01*
X21218534Y-49315793D01*
X21204329Y-49329997D01*
X21189777Y-49351777D01*
X21167997Y-49366329D01*
X21153793Y-49380534D01*
X21132995Y-49389716D01*
X21108671Y-49405970D01*
X21085950Y-49410489D01*
X21068408Y-49418235D01*
X21017061Y-49424192D01*
X21013000Y-49425000D01*
X20213000Y-49425000D01*
X20208941Y-49424192D01*
X20157591Y-49418235D01*
X20140048Y-49410489D01*
X20117329Y-49405970D01*
X20093006Y-49389718D01*
X20072206Y-49380534D01*
X20057999Y-49366327D01*
X20036223Y-49351777D01*
X20021672Y-49330000D01*
X20007465Y-49315793D01*
X19998280Y-49294991D01*
X19982030Y-49270671D01*
X19977511Y-49247954D01*
X19969764Y-49230408D01*
X19963805Y-49179049D01*
X19963000Y-49175000D01*
X19963000Y-47925000D01*
X19963804Y-47920953D01*
X19969764Y-47869591D01*
X19977511Y-47852043D01*
X19982030Y-47829329D01*
X19998278Y-47805010D01*
X20007465Y-47784206D01*
X20021674Y-47769996D01*
X20036223Y-47748223D01*
X20057996Y-47733674D01*
X20072206Y-47719465D01*
X20093010Y-47710278D01*
X20117329Y-47694030D01*
X20140043Y-47689511D01*
X20157591Y-47681764D01*
X20208952Y-47675805D01*
X20213000Y-47675000D01*
X21013000Y-47675000D01*
X21017047Y-47675805D01*
G37*
G36*
X34732228Y-47734448D02*
G01*
X34877117Y-47794463D01*
X35007515Y-47881592D01*
X35118408Y-47992485D01*
X35205537Y-48122883D01*
X35265552Y-48267772D01*
X35296148Y-48421586D01*
X35296148Y-48578414D01*
X35265552Y-48732228D01*
X35205537Y-48877117D01*
X35118408Y-49007515D01*
X35007515Y-49118408D01*
X34877117Y-49205537D01*
X34732228Y-49265552D01*
X34578414Y-49296148D01*
X34421586Y-49296148D01*
X34267772Y-49265552D01*
X34122883Y-49205537D01*
X33992485Y-49118408D01*
X33881592Y-49007515D01*
X33794463Y-48877117D01*
X33734448Y-48732228D01*
X33703852Y-48578414D01*
X33703852Y-48421586D01*
X33734448Y-48267772D01*
X33794463Y-48122883D01*
X33881592Y-47992485D01*
X33992485Y-47881592D01*
X34122883Y-47794463D01*
X34267772Y-47734448D01*
X34421586Y-47703852D01*
X34578414Y-47703852D01*
X34732228Y-47734448D01*
G37*
G36*
X31453199Y-47040142D02*
G01*
X31579978Y-47092655D01*
X31694075Y-47168893D01*
X31791107Y-47265925D01*
X31867345Y-47380022D01*
X31919858Y-47506801D01*
X31946629Y-47641388D01*
X31946629Y-47778612D01*
X31919858Y-47913199D01*
X31867345Y-48039978D01*
X31791107Y-48154075D01*
X31694075Y-48251107D01*
X31579978Y-48327345D01*
X31453199Y-48379858D01*
X31318612Y-48406629D01*
X31181388Y-48406629D01*
X31046801Y-48379858D01*
X30920022Y-48327345D01*
X30805925Y-48251107D01*
X30708893Y-48154075D01*
X30632655Y-48039978D01*
X30580142Y-47913199D01*
X30553371Y-47778612D01*
X30553371Y-47641388D01*
X30580142Y-47506801D01*
X30632655Y-47380022D01*
X30708893Y-47265925D01*
X30805925Y-47168893D01*
X30920022Y-47092655D01*
X31046801Y-47040142D01*
X31181388Y-47013371D01*
X31318612Y-47013371D01*
X31453199Y-47040142D01*
G37*
G36*
X26992047Y-46100805D02*
G01*
X27043408Y-46106764D01*
X27060954Y-46114511D01*
X27083671Y-46119030D01*
X27107991Y-46135280D01*
X27128793Y-46144465D01*
X27143000Y-46158672D01*
X27164777Y-46173223D01*
X27179327Y-46194999D01*
X27193534Y-46209206D01*
X27202718Y-46230006D01*
X27218970Y-46254329D01*
X27223489Y-46277048D01*
X27231235Y-46294591D01*
X27237192Y-46345940D01*
X27238000Y-46350000D01*
X27238000Y-47150000D01*
X27237192Y-47154059D01*
X27231235Y-47205408D01*
X27223489Y-47222950D01*
X27218970Y-47245671D01*
X27202716Y-47269995D01*
X27193534Y-47290793D01*
X27179329Y-47304997D01*
X27164777Y-47326777D01*
X27142997Y-47341329D01*
X27128793Y-47355534D01*
X27107995Y-47364716D01*
X27083671Y-47380970D01*
X27060950Y-47385489D01*
X27043408Y-47393235D01*
X26992061Y-47399192D01*
X26988000Y-47400000D01*
X25738000Y-47400000D01*
X25733941Y-47399192D01*
X25682591Y-47393235D01*
X25665048Y-47385489D01*
X25642329Y-47380970D01*
X25618006Y-47364718D01*
X25597206Y-47355534D01*
X25582999Y-47341327D01*
X25561223Y-47326777D01*
X25546672Y-47305000D01*
X25532465Y-47290793D01*
X25523280Y-47269991D01*
X25507030Y-47245671D01*
X25502511Y-47222954D01*
X25494764Y-47205408D01*
X25488805Y-47154049D01*
X25488000Y-47150000D01*
X25488000Y-46350000D01*
X25488804Y-46345953D01*
X25494764Y-46294591D01*
X25502511Y-46277043D01*
X25507030Y-46254329D01*
X25523278Y-46230010D01*
X25532465Y-46209206D01*
X25546674Y-46194996D01*
X25561223Y-46173223D01*
X25582996Y-46158674D01*
X25597206Y-46144465D01*
X25618010Y-46135278D01*
X25642329Y-46119030D01*
X25665043Y-46114511D01*
X25682591Y-46106764D01*
X25733952Y-46100805D01*
X25738000Y-46100000D01*
X26988000Y-46100000D01*
X26992047Y-46100805D01*
G37*
G36*
X24017047Y-46013805D02*
G01*
X24068408Y-46019764D01*
X24085954Y-46027511D01*
X24108671Y-46032030D01*
X24132991Y-46048280D01*
X24153793Y-46057465D01*
X24168000Y-46071672D01*
X24189777Y-46086223D01*
X24204327Y-46107999D01*
X24218534Y-46122206D01*
X24227718Y-46143006D01*
X24243970Y-46167329D01*
X24248489Y-46190048D01*
X24256235Y-46207591D01*
X24262192Y-46258940D01*
X24263000Y-46263000D01*
X24263000Y-47088000D01*
X24262192Y-47092059D01*
X24256235Y-47143408D01*
X24248489Y-47160950D01*
X24243970Y-47183671D01*
X24227716Y-47207995D01*
X24218534Y-47228793D01*
X24204329Y-47242997D01*
X24189777Y-47264777D01*
X24167997Y-47279329D01*
X24153793Y-47293534D01*
X24132995Y-47302716D01*
X24108671Y-47318970D01*
X24085950Y-47323489D01*
X24068408Y-47331235D01*
X24017061Y-47337192D01*
X24013000Y-47338000D01*
X22713000Y-47338000D01*
X22708941Y-47337192D01*
X22657591Y-47331235D01*
X22640048Y-47323489D01*
X22617329Y-47318970D01*
X22593006Y-47302718D01*
X22572206Y-47293534D01*
X22557999Y-47279327D01*
X22536223Y-47264777D01*
X22521672Y-47243000D01*
X22507465Y-47228793D01*
X22498280Y-47207991D01*
X22482030Y-47183671D01*
X22477511Y-47160954D01*
X22469764Y-47143408D01*
X22463805Y-47092049D01*
X22463000Y-47088000D01*
X22463000Y-46263000D01*
X22463804Y-46258953D01*
X22469764Y-46207591D01*
X22477511Y-46190043D01*
X22482030Y-46167329D01*
X22498278Y-46143010D01*
X22507465Y-46122206D01*
X22521674Y-46107996D01*
X22536223Y-46086223D01*
X22557996Y-46071674D01*
X22572206Y-46057465D01*
X22593010Y-46048278D01*
X22617329Y-46032030D01*
X22640043Y-46027511D01*
X22657591Y-46019764D01*
X22708952Y-46013805D01*
X22713000Y-46013000D01*
X24013000Y-46013000D01*
X24017047Y-46013805D01*
G37*
G36*
X46664047Y-44350805D02*
G01*
X46715408Y-44356764D01*
X46732954Y-44364511D01*
X46755671Y-44369030D01*
X46779991Y-44385280D01*
X46800793Y-44394465D01*
X46815000Y-44408672D01*
X46836777Y-44423223D01*
X46851327Y-44444999D01*
X46865534Y-44459206D01*
X46874718Y-44480006D01*
X46890970Y-44504329D01*
X46895489Y-44527048D01*
X46903235Y-44544591D01*
X46909192Y-44595940D01*
X46910000Y-44600000D01*
X46910000Y-45900000D01*
X46909192Y-45904059D01*
X46903235Y-45955408D01*
X46895489Y-45972950D01*
X46890970Y-45995671D01*
X46874716Y-46019995D01*
X46865534Y-46040793D01*
X46851329Y-46054997D01*
X46836777Y-46076777D01*
X46814997Y-46091329D01*
X46800793Y-46105534D01*
X46779995Y-46114716D01*
X46755671Y-46130970D01*
X46732950Y-46135489D01*
X46715408Y-46143235D01*
X46664061Y-46149192D01*
X46660000Y-46150000D01*
X45835000Y-46150000D01*
X45830941Y-46149192D01*
X45779591Y-46143235D01*
X45762048Y-46135489D01*
X45739329Y-46130970D01*
X45715006Y-46114718D01*
X45694206Y-46105534D01*
X45679999Y-46091327D01*
X45658223Y-46076777D01*
X45643672Y-46055000D01*
X45629465Y-46040793D01*
X45620280Y-46019991D01*
X45604030Y-45995671D01*
X45599511Y-45972954D01*
X45591764Y-45955408D01*
X45585805Y-45904049D01*
X45585000Y-45900000D01*
X45585000Y-44600000D01*
X45585804Y-44595953D01*
X45591764Y-44544591D01*
X45599511Y-44527043D01*
X45604030Y-44504329D01*
X45620278Y-44480010D01*
X45629465Y-44459206D01*
X45643674Y-44444996D01*
X45658223Y-44423223D01*
X45679996Y-44408674D01*
X45694206Y-44394465D01*
X45715010Y-44385278D01*
X45739329Y-44369030D01*
X45762043Y-44364511D01*
X45779591Y-44356764D01*
X45830952Y-44350805D01*
X45835000Y-44350000D01*
X46660000Y-44350000D01*
X46664047Y-44350805D01*
G37*
G36*
X49789047Y-44350805D02*
G01*
X49840408Y-44356764D01*
X49857954Y-44364511D01*
X49880671Y-44369030D01*
X49904991Y-44385280D01*
X49925793Y-44394465D01*
X49940000Y-44408672D01*
X49961777Y-44423223D01*
X49976327Y-44444999D01*
X49990534Y-44459206D01*
X49999718Y-44480006D01*
X50015970Y-44504329D01*
X50020489Y-44527048D01*
X50028235Y-44544591D01*
X50034192Y-44595940D01*
X50035000Y-44600000D01*
X50035000Y-45900000D01*
X50034192Y-45904059D01*
X50028235Y-45955408D01*
X50020489Y-45972950D01*
X50015970Y-45995671D01*
X49999716Y-46019995D01*
X49990534Y-46040793D01*
X49976329Y-46054997D01*
X49961777Y-46076777D01*
X49939997Y-46091329D01*
X49925793Y-46105534D01*
X49904995Y-46114716D01*
X49880671Y-46130970D01*
X49857950Y-46135489D01*
X49840408Y-46143235D01*
X49789061Y-46149192D01*
X49785000Y-46150000D01*
X48960000Y-46150000D01*
X48955941Y-46149192D01*
X48904591Y-46143235D01*
X48887048Y-46135489D01*
X48864329Y-46130970D01*
X48840006Y-46114718D01*
X48819206Y-46105534D01*
X48804999Y-46091327D01*
X48783223Y-46076777D01*
X48768672Y-46055000D01*
X48754465Y-46040793D01*
X48745280Y-46019991D01*
X48729030Y-45995671D01*
X48724511Y-45972954D01*
X48716764Y-45955408D01*
X48710805Y-45904049D01*
X48710000Y-45900000D01*
X48710000Y-44600000D01*
X48710804Y-44595953D01*
X48716764Y-44544591D01*
X48724511Y-44527043D01*
X48729030Y-44504329D01*
X48745278Y-44480010D01*
X48754465Y-44459206D01*
X48768674Y-44444996D01*
X48783223Y-44423223D01*
X48804996Y-44408674D01*
X48819206Y-44394465D01*
X48840010Y-44385278D01*
X48864329Y-44369030D01*
X48887043Y-44364511D01*
X48904591Y-44356764D01*
X48955952Y-44350805D01*
X48960000Y-44350000D01*
X49785000Y-44350000D01*
X49789047Y-44350805D01*
G37*
G36*
X31829047Y-43200805D02*
G01*
X31880408Y-43206764D01*
X31897954Y-43214511D01*
X31920671Y-43219030D01*
X31944991Y-43235280D01*
X31965793Y-43244465D01*
X31980000Y-43258672D01*
X32001777Y-43273223D01*
X32016327Y-43294999D01*
X32030534Y-43309206D01*
X32039718Y-43330006D01*
X32055970Y-43354329D01*
X32060489Y-43377048D01*
X32068235Y-43394591D01*
X32074192Y-43445940D01*
X32075000Y-43450000D01*
X32075000Y-44250000D01*
X32074192Y-44254059D01*
X32068235Y-44305408D01*
X32060489Y-44322950D01*
X32055970Y-44345671D01*
X32039716Y-44369995D01*
X32030534Y-44390793D01*
X32016329Y-44404997D01*
X32001777Y-44426777D01*
X31979997Y-44441329D01*
X31965793Y-44455534D01*
X31944995Y-44464716D01*
X31920671Y-44480970D01*
X31897950Y-44485489D01*
X31880408Y-44493235D01*
X31829061Y-44499192D01*
X31825000Y-44500000D01*
X30575000Y-44500000D01*
X30570941Y-44499192D01*
X30519591Y-44493235D01*
X30502048Y-44485489D01*
X30479329Y-44480970D01*
X30455006Y-44464718D01*
X30434206Y-44455534D01*
X30419999Y-44441327D01*
X30398223Y-44426777D01*
X30383672Y-44405000D01*
X30369465Y-44390793D01*
X30360280Y-44369991D01*
X30344030Y-44345671D01*
X30339511Y-44322954D01*
X30331764Y-44305408D01*
X30325805Y-44254049D01*
X30325000Y-44250000D01*
X30325000Y-43450000D01*
X30325804Y-43445953D01*
X30331764Y-43394591D01*
X30339511Y-43377043D01*
X30344030Y-43354329D01*
X30360278Y-43330010D01*
X30369465Y-43309206D01*
X30383674Y-43294996D01*
X30398223Y-43273223D01*
X30419996Y-43258674D01*
X30434206Y-43244465D01*
X30455010Y-43235278D01*
X30479329Y-43219030D01*
X30502043Y-43214511D01*
X30519591Y-43206764D01*
X30570952Y-43200805D01*
X30575000Y-43200000D01*
X31825000Y-43200000D01*
X31829047Y-43200805D01*
G37*
G36*
X34732228Y-42654448D02*
G01*
X34877117Y-42714463D01*
X35007515Y-42801592D01*
X35118408Y-42912485D01*
X35205537Y-43042883D01*
X35265552Y-43187772D01*
X35296148Y-43341586D01*
X35296148Y-43498414D01*
X35265552Y-43652228D01*
X35205537Y-43797117D01*
X35118408Y-43927515D01*
X35007515Y-44038408D01*
X34877117Y-44125537D01*
X34732228Y-44185552D01*
X34578414Y-44216148D01*
X34421586Y-44216148D01*
X34267772Y-44185552D01*
X34122883Y-44125537D01*
X33992485Y-44038408D01*
X33881592Y-43927515D01*
X33794463Y-43797117D01*
X33734448Y-43652228D01*
X33703852Y-43498414D01*
X33703852Y-43341586D01*
X33734448Y-43187772D01*
X33794463Y-43042883D01*
X33881592Y-42912485D01*
X33992485Y-42801592D01*
X34122883Y-42714463D01*
X34267772Y-42654448D01*
X34421586Y-42623852D01*
X34578414Y-42623852D01*
X34732228Y-42654448D01*
G37*
G36*
X38804047Y-40625805D02*
G01*
X38855408Y-40631764D01*
X38872954Y-40639511D01*
X38895671Y-40644030D01*
X38919991Y-40660280D01*
X38940793Y-40669465D01*
X38955000Y-40683672D01*
X38976777Y-40698223D01*
X38991327Y-40719999D01*
X39005534Y-40734206D01*
X39014718Y-40755006D01*
X39030970Y-40779329D01*
X39035489Y-40802048D01*
X39043235Y-40819591D01*
X39049192Y-40870940D01*
X39050000Y-40875000D01*
X39050000Y-42125000D01*
X39049192Y-42129059D01*
X39043235Y-42180408D01*
X39035489Y-42197950D01*
X39030970Y-42220671D01*
X39014716Y-42244995D01*
X39005534Y-42265793D01*
X38991329Y-42279997D01*
X38976777Y-42301777D01*
X38954997Y-42316329D01*
X38940793Y-42330534D01*
X38919995Y-42339716D01*
X38895671Y-42355970D01*
X38872950Y-42360489D01*
X38855408Y-42368235D01*
X38804061Y-42374192D01*
X38800000Y-42375000D01*
X38000000Y-42375000D01*
X37995941Y-42374192D01*
X37944591Y-42368235D01*
X37927048Y-42360489D01*
X37904329Y-42355970D01*
X37880006Y-42339718D01*
X37859206Y-42330534D01*
X37844999Y-42316327D01*
X37823223Y-42301777D01*
X37808672Y-42280000D01*
X37794465Y-42265793D01*
X37785280Y-42244991D01*
X37769030Y-42220671D01*
X37764511Y-42197954D01*
X37756764Y-42180408D01*
X37750805Y-42129049D01*
X37750000Y-42125000D01*
X37750000Y-40875000D01*
X37750804Y-40870953D01*
X37756764Y-40819591D01*
X37764511Y-40802043D01*
X37769030Y-40779329D01*
X37785278Y-40755010D01*
X37794465Y-40734206D01*
X37808674Y-40719996D01*
X37823223Y-40698223D01*
X37844996Y-40683674D01*
X37859206Y-40669465D01*
X37880010Y-40660278D01*
X37904329Y-40644030D01*
X37927043Y-40639511D01*
X37944591Y-40631764D01*
X37995952Y-40625805D01*
X38000000Y-40625000D01*
X38800000Y-40625000D01*
X38804047Y-40625805D01*
G37*
G36*
X41904047Y-40625805D02*
G01*
X41955408Y-40631764D01*
X41972954Y-40639511D01*
X41995671Y-40644030D01*
X42019991Y-40660280D01*
X42040793Y-40669465D01*
X42055000Y-40683672D01*
X42076777Y-40698223D01*
X42091327Y-40719999D01*
X42105534Y-40734206D01*
X42114718Y-40755006D01*
X42130970Y-40779329D01*
X42135489Y-40802048D01*
X42143235Y-40819591D01*
X42149192Y-40870940D01*
X42150000Y-40875000D01*
X42150000Y-42125000D01*
X42149192Y-42129059D01*
X42143235Y-42180408D01*
X42135489Y-42197950D01*
X42130970Y-42220671D01*
X42114716Y-42244995D01*
X42105534Y-42265793D01*
X42091329Y-42279997D01*
X42076777Y-42301777D01*
X42054997Y-42316329D01*
X42040793Y-42330534D01*
X42019995Y-42339716D01*
X41995671Y-42355970D01*
X41972950Y-42360489D01*
X41955408Y-42368235D01*
X41904061Y-42374192D01*
X41900000Y-42375000D01*
X41100000Y-42375000D01*
X41095941Y-42374192D01*
X41044591Y-42368235D01*
X41027048Y-42360489D01*
X41004329Y-42355970D01*
X40980006Y-42339718D01*
X40959206Y-42330534D01*
X40944999Y-42316327D01*
X40923223Y-42301777D01*
X40908672Y-42280000D01*
X40894465Y-42265793D01*
X40885280Y-42244991D01*
X40869030Y-42220671D01*
X40864511Y-42197954D01*
X40856764Y-42180408D01*
X40850805Y-42129049D01*
X40850000Y-42125000D01*
X40850000Y-40875000D01*
X40850804Y-40870953D01*
X40856764Y-40819591D01*
X40864511Y-40802043D01*
X40869030Y-40779329D01*
X40885278Y-40755010D01*
X40894465Y-40734206D01*
X40908674Y-40719996D01*
X40923223Y-40698223D01*
X40944996Y-40683674D01*
X40959206Y-40669465D01*
X40980010Y-40660278D01*
X41004329Y-40644030D01*
X41027043Y-40639511D01*
X41044591Y-40631764D01*
X41095952Y-40625805D01*
X41100000Y-40625000D01*
X41900000Y-40625000D01*
X41904047Y-40625805D01*
G37*
G36*
X44750000Y-42250000D02*
G01*
X43250000Y-42250000D01*
X43250000Y-40750000D01*
X44750000Y-40750000D01*
X44750000Y-42250000D01*
G37*
G36*
X46757714Y-40782295D02*
G01*
X46893548Y-40838559D01*
X47015795Y-40920242D01*
X47119758Y-41024205D01*
X47201441Y-41146452D01*
X47257705Y-41282286D01*
X47286389Y-41426487D01*
X47286389Y-41573513D01*
X47257705Y-41717714D01*
X47201441Y-41853548D01*
X47119758Y-41975795D01*
X47015795Y-42079758D01*
X46893548Y-42161441D01*
X46757714Y-42217705D01*
X46613513Y-42246389D01*
X46466487Y-42246389D01*
X46322286Y-42217705D01*
X46186452Y-42161441D01*
X46064205Y-42079758D01*
X45960242Y-41975795D01*
X45878559Y-41853548D01*
X45822295Y-41717714D01*
X45793611Y-41573513D01*
X45793611Y-41426487D01*
X45822295Y-41282286D01*
X45878559Y-41146452D01*
X45960242Y-41024205D01*
X46064205Y-40920242D01*
X46186452Y-40838559D01*
X46322286Y-40782295D01*
X46466487Y-40753611D01*
X46613513Y-40753611D01*
X46757714Y-40782295D01*
G37*
G36*
X49297714Y-40782295D02*
G01*
X49433548Y-40838559D01*
X49555795Y-40920242D01*
X49659758Y-41024205D01*
X49741441Y-41146452D01*
X49797705Y-41282286D01*
X49826389Y-41426487D01*
X49826389Y-41573513D01*
X49797705Y-41717714D01*
X49741441Y-41853548D01*
X49659758Y-41975795D01*
X49555795Y-42079758D01*
X49433548Y-42161441D01*
X49297714Y-42217705D01*
X49153513Y-42246389D01*
X49006487Y-42246389D01*
X48862286Y-42217705D01*
X48726452Y-42161441D01*
X48604205Y-42079758D01*
X48500242Y-41975795D01*
X48418559Y-41853548D01*
X48362295Y-41717714D01*
X48333611Y-41573513D01*
X48333611Y-41426487D01*
X48362295Y-41282286D01*
X48418559Y-41146452D01*
X48500242Y-41024205D01*
X48604205Y-40920242D01*
X48726452Y-40838559D01*
X48862286Y-40782295D01*
X49006487Y-40753611D01*
X49153513Y-40753611D01*
X49297714Y-40782295D01*
G37*
G36*
X24984047Y-39875805D02*
G01*
X25035408Y-39881764D01*
X25052954Y-39889511D01*
X25075671Y-39894030D01*
X25099991Y-39910280D01*
X25120793Y-39919465D01*
X25135000Y-39933672D01*
X25156777Y-39948223D01*
X25171327Y-39969999D01*
X25185534Y-39984206D01*
X25194718Y-40005006D01*
X25210970Y-40029329D01*
X25215489Y-40052048D01*
X25223235Y-40069591D01*
X25229192Y-40120940D01*
X25230000Y-40125000D01*
X25230000Y-41375000D01*
X25229192Y-41379059D01*
X25223235Y-41430408D01*
X25215489Y-41447950D01*
X25210970Y-41470671D01*
X25194716Y-41494995D01*
X25185534Y-41515793D01*
X25171329Y-41529997D01*
X25156777Y-41551777D01*
X25134997Y-41566329D01*
X25120793Y-41580534D01*
X25099995Y-41589716D01*
X25075671Y-41605970D01*
X25052950Y-41610489D01*
X25035408Y-41618235D01*
X24984061Y-41624192D01*
X24980000Y-41625000D01*
X24180000Y-41625000D01*
X24175941Y-41624192D01*
X24124591Y-41618235D01*
X24107048Y-41610489D01*
X24084329Y-41605970D01*
X24060006Y-41589718D01*
X24039206Y-41580534D01*
X24024999Y-41566327D01*
X24003223Y-41551777D01*
X23988672Y-41530000D01*
X23974465Y-41515793D01*
X23965280Y-41494991D01*
X23949030Y-41470671D01*
X23944511Y-41447954D01*
X23936764Y-41430408D01*
X23930805Y-41379049D01*
X23930000Y-41375000D01*
X23930000Y-40125000D01*
X23930804Y-40120953D01*
X23936764Y-40069591D01*
X23944511Y-40052043D01*
X23949030Y-40029329D01*
X23965278Y-40005010D01*
X23974465Y-39984206D01*
X23988674Y-39969996D01*
X24003223Y-39948223D01*
X24024996Y-39933674D01*
X24039206Y-39919465D01*
X24060010Y-39910278D01*
X24084329Y-39894030D01*
X24107043Y-39889511D01*
X24124591Y-39881764D01*
X24175952Y-39875805D01*
X24180000Y-39875000D01*
X24980000Y-39875000D01*
X24984047Y-39875805D01*
G37*
G36*
X28084047Y-39875805D02*
G01*
X28135408Y-39881764D01*
X28152954Y-39889511D01*
X28175671Y-39894030D01*
X28199991Y-39910280D01*
X28220793Y-39919465D01*
X28235000Y-39933672D01*
X28256777Y-39948223D01*
X28271327Y-39969999D01*
X28285534Y-39984206D01*
X28294718Y-40005006D01*
X28310970Y-40029329D01*
X28315489Y-40052048D01*
X28323235Y-40069591D01*
X28329192Y-40120940D01*
X28330000Y-40125000D01*
X28330000Y-41375000D01*
X28329192Y-41379059D01*
X28323235Y-41430408D01*
X28315489Y-41447950D01*
X28310970Y-41470671D01*
X28294716Y-41494995D01*
X28285534Y-41515793D01*
X28271329Y-41529997D01*
X28256777Y-41551777D01*
X28234997Y-41566329D01*
X28220793Y-41580534D01*
X28199995Y-41589716D01*
X28175671Y-41605970D01*
X28152950Y-41610489D01*
X28135408Y-41618235D01*
X28084061Y-41624192D01*
X28080000Y-41625000D01*
X27280000Y-41625000D01*
X27275941Y-41624192D01*
X27224591Y-41618235D01*
X27207048Y-41610489D01*
X27184329Y-41605970D01*
X27160006Y-41589718D01*
X27139206Y-41580534D01*
X27124999Y-41566327D01*
X27103223Y-41551777D01*
X27088672Y-41530000D01*
X27074465Y-41515793D01*
X27065280Y-41494991D01*
X27049030Y-41470671D01*
X27044511Y-41447954D01*
X27036764Y-41430408D01*
X27030805Y-41379049D01*
X27030000Y-41375000D01*
X27030000Y-40125000D01*
X27030804Y-40120953D01*
X27036764Y-40069591D01*
X27044511Y-40052043D01*
X27049030Y-40029329D01*
X27065278Y-40005010D01*
X27074465Y-39984206D01*
X27088674Y-39969996D01*
X27103223Y-39948223D01*
X27124996Y-39933674D01*
X27139206Y-39919465D01*
X27160010Y-39910278D01*
X27184329Y-39894030D01*
X27207043Y-39889511D01*
X27224591Y-39881764D01*
X27275952Y-39875805D01*
X27280000Y-39875000D01*
X28080000Y-39875000D01*
X28084047Y-39875805D01*
G37*
G36*
X31829047Y-40100805D02*
G01*
X31880408Y-40106764D01*
X31897954Y-40114511D01*
X31920671Y-40119030D01*
X31944991Y-40135280D01*
X31965793Y-40144465D01*
X31980000Y-40158672D01*
X32001777Y-40173223D01*
X32016327Y-40194999D01*
X32030534Y-40209206D01*
X32039718Y-40230006D01*
X32055970Y-40254329D01*
X32060489Y-40277048D01*
X32068235Y-40294591D01*
X32074192Y-40345940D01*
X32075000Y-40350000D01*
X32075000Y-41150000D01*
X32074192Y-41154059D01*
X32068235Y-41205408D01*
X32060489Y-41222950D01*
X32055970Y-41245671D01*
X32039716Y-41269995D01*
X32030534Y-41290793D01*
X32016329Y-41304997D01*
X32001777Y-41326777D01*
X31979997Y-41341329D01*
X31965793Y-41355534D01*
X31944995Y-41364716D01*
X31920671Y-41380970D01*
X31897950Y-41385489D01*
X31880408Y-41393235D01*
X31829061Y-41399192D01*
X31825000Y-41400000D01*
X30575000Y-41400000D01*
X30570941Y-41399192D01*
X30519591Y-41393235D01*
X30502048Y-41385489D01*
X30479329Y-41380970D01*
X30455006Y-41364718D01*
X30434206Y-41355534D01*
X30419999Y-41341327D01*
X30398223Y-41326777D01*
X30383672Y-41305000D01*
X30369465Y-41290793D01*
X30360280Y-41269991D01*
X30344030Y-41245671D01*
X30339511Y-41222954D01*
X30331764Y-41205408D01*
X30325805Y-41154049D01*
X30325000Y-41150000D01*
X30325000Y-40350000D01*
X30325804Y-40345953D01*
X30331764Y-40294591D01*
X30339511Y-40277043D01*
X30344030Y-40254329D01*
X30360278Y-40230010D01*
X30369465Y-40209206D01*
X30383674Y-40194996D01*
X30398223Y-40173223D01*
X30419996Y-40158674D01*
X30434206Y-40144465D01*
X30455010Y-40135278D01*
X30479329Y-40119030D01*
X30502043Y-40114511D01*
X30519591Y-40106764D01*
X30570952Y-40100805D01*
X30575000Y-40100000D01*
X31825000Y-40100000D01*
X31829047Y-40100805D01*
G37*
G36*
X20054047Y-37200805D02*
G01*
X20105408Y-37206764D01*
X20122954Y-37214511D01*
X20145671Y-37219030D01*
X20169991Y-37235280D01*
X20190793Y-37244465D01*
X20205000Y-37258672D01*
X20226777Y-37273223D01*
X20241327Y-37294999D01*
X20255534Y-37309206D01*
X20264718Y-37330006D01*
X20280970Y-37354329D01*
X20285489Y-37377048D01*
X20293235Y-37394591D01*
X20299192Y-37445940D01*
X20300000Y-37450000D01*
X20300000Y-38550000D01*
X20299192Y-38554059D01*
X20293235Y-38605408D01*
X20285489Y-38622950D01*
X20280970Y-38645671D01*
X20264716Y-38669995D01*
X20255534Y-38690793D01*
X20241329Y-38704997D01*
X20226777Y-38726777D01*
X20204997Y-38741329D01*
X20190793Y-38755534D01*
X20169995Y-38764716D01*
X20145671Y-38780970D01*
X20122950Y-38785489D01*
X20105408Y-38793235D01*
X20054061Y-38799192D01*
X20050000Y-38800000D01*
X18950000Y-38800000D01*
X18945941Y-38799192D01*
X18894591Y-38793235D01*
X18877048Y-38785489D01*
X18854329Y-38780970D01*
X18830006Y-38764718D01*
X18809206Y-38755534D01*
X18794999Y-38741327D01*
X18773223Y-38726777D01*
X18758672Y-38705000D01*
X18744465Y-38690793D01*
X18735280Y-38669991D01*
X18719030Y-38645671D01*
X18714511Y-38622954D01*
X18706764Y-38605408D01*
X18700805Y-38554049D01*
X18700000Y-38550000D01*
X18700000Y-37450000D01*
X18700804Y-37445953D01*
X18706764Y-37394591D01*
X18714511Y-37377043D01*
X18719030Y-37354329D01*
X18735278Y-37330010D01*
X18744465Y-37309206D01*
X18758674Y-37294996D01*
X18773223Y-37273223D01*
X18794996Y-37258674D01*
X18809206Y-37244465D01*
X18830010Y-37235278D01*
X18854329Y-37219030D01*
X18877043Y-37214511D01*
X18894591Y-37206764D01*
X18945952Y-37200805D01*
X18950000Y-37200000D01*
X20050000Y-37200000D01*
X20054047Y-37200805D01*
G37*
G36*
X22272228Y-37234448D02*
G01*
X22417117Y-37294463D01*
X22547515Y-37381592D01*
X22658408Y-37492485D01*
X22745537Y-37622883D01*
X22805552Y-37767772D01*
X22836148Y-37921586D01*
X22836148Y-38078414D01*
X22805552Y-38232228D01*
X22745537Y-38377117D01*
X22658408Y-38507515D01*
X22547515Y-38618408D01*
X22417117Y-38705537D01*
X22272228Y-38765552D01*
X22118414Y-38796148D01*
X21961586Y-38796148D01*
X21807772Y-38765552D01*
X21662883Y-38705537D01*
X21532485Y-38618408D01*
X21421592Y-38507515D01*
X21334463Y-38377117D01*
X21274448Y-38232228D01*
X21243852Y-38078414D01*
X21243852Y-37921586D01*
X21274448Y-37767772D01*
X21334463Y-37622883D01*
X21421592Y-37492485D01*
X21532485Y-37381592D01*
X21662883Y-37294463D01*
X21807772Y-37234448D01*
X21961586Y-37203852D01*
X22118414Y-37203852D01*
X22272228Y-37234448D01*
G37*
G36*
X24812228Y-37234448D02*
G01*
X24957117Y-37294463D01*
X25087515Y-37381592D01*
X25198408Y-37492485D01*
X25285537Y-37622883D01*
X25345552Y-37767772D01*
X25376148Y-37921586D01*
X25376148Y-38078414D01*
X25345552Y-38232228D01*
X25285537Y-38377117D01*
X25198408Y-38507515D01*
X25087515Y-38618408D01*
X24957117Y-38705537D01*
X24812228Y-38765552D01*
X24658414Y-38796148D01*
X24501586Y-38796148D01*
X24347772Y-38765552D01*
X24202883Y-38705537D01*
X24072485Y-38618408D01*
X23961592Y-38507515D01*
X23874463Y-38377117D01*
X23814448Y-38232228D01*
X23783852Y-38078414D01*
X23783852Y-37921586D01*
X23814448Y-37767772D01*
X23874463Y-37622883D01*
X23961592Y-37492485D01*
X24072485Y-37381592D01*
X24202883Y-37294463D01*
X24347772Y-37234448D01*
X24501586Y-37203852D01*
X24658414Y-37203852D01*
X24812228Y-37234448D01*
G37*
G36*
X27352228Y-37234448D02*
G01*
X27497117Y-37294463D01*
X27627515Y-37381592D01*
X27738408Y-37492485D01*
X27825537Y-37622883D01*
X27885552Y-37767772D01*
X27916148Y-37921586D01*
X27916148Y-38078414D01*
X27885552Y-38232228D01*
X27825537Y-38377117D01*
X27738408Y-38507515D01*
X27627515Y-38618408D01*
X27497117Y-38705537D01*
X27352228Y-38765552D01*
X27198414Y-38796148D01*
X27041586Y-38796148D01*
X26887772Y-38765552D01*
X26742883Y-38705537D01*
X26612485Y-38618408D01*
X26501592Y-38507515D01*
X26414463Y-38377117D01*
X26354448Y-38232228D01*
X26323852Y-38078414D01*
X26323852Y-37921586D01*
X26354448Y-37767772D01*
X26414463Y-37622883D01*
X26501592Y-37492485D01*
X26612485Y-37381592D01*
X26742883Y-37294463D01*
X26887772Y-37234448D01*
X27041586Y-37203852D01*
X27198414Y-37203852D01*
X27352228Y-37234448D01*
G37*
G36*
X29892228Y-37234448D02*
G01*
X30037117Y-37294463D01*
X30167515Y-37381592D01*
X30278408Y-37492485D01*
X30365537Y-37622883D01*
X30425552Y-37767772D01*
X30456148Y-37921586D01*
X30456148Y-38078414D01*
X30425552Y-38232228D01*
X30365537Y-38377117D01*
X30278408Y-38507515D01*
X30167515Y-38618408D01*
X30037117Y-38705537D01*
X29892228Y-38765552D01*
X29738414Y-38796148D01*
X29581586Y-38796148D01*
X29427772Y-38765552D01*
X29282883Y-38705537D01*
X29152485Y-38618408D01*
X29041592Y-38507515D01*
X28954463Y-38377117D01*
X28894448Y-38232228D01*
X28863852Y-38078414D01*
X28863852Y-37921586D01*
X28894448Y-37767772D01*
X28954463Y-37622883D01*
X29041592Y-37492485D01*
X29152485Y-37381592D01*
X29282883Y-37294463D01*
X29427772Y-37234448D01*
X29581586Y-37203852D01*
X29738414Y-37203852D01*
X29892228Y-37234448D01*
G37*
G36*
X32432228Y-37234448D02*
G01*
X32577117Y-37294463D01*
X32707515Y-37381592D01*
X32818408Y-37492485D01*
X32905537Y-37622883D01*
X32965552Y-37767772D01*
X32996148Y-37921586D01*
X32996148Y-38078414D01*
X32965552Y-38232228D01*
X32905537Y-38377117D01*
X32818408Y-38507515D01*
X32707515Y-38618408D01*
X32577117Y-38705537D01*
X32432228Y-38765552D01*
X32278414Y-38796148D01*
X32121586Y-38796148D01*
X31967772Y-38765552D01*
X31822883Y-38705537D01*
X31692485Y-38618408D01*
X31581592Y-38507515D01*
X31494463Y-38377117D01*
X31434448Y-38232228D01*
X31403852Y-38078414D01*
X31403852Y-37921586D01*
X31434448Y-37767772D01*
X31494463Y-37622883D01*
X31581592Y-37492485D01*
X31692485Y-37381592D01*
X31822883Y-37294463D01*
X31967772Y-37234448D01*
X32121586Y-37203852D01*
X32278414Y-37203852D01*
X32432228Y-37234448D01*
G37*
G36*
X34972228Y-37234448D02*
G01*
X35117117Y-37294463D01*
X35247515Y-37381592D01*
X35358408Y-37492485D01*
X35445537Y-37622883D01*
X35505552Y-37767772D01*
X35536148Y-37921586D01*
X35536148Y-38078414D01*
X35505552Y-38232228D01*
X35445537Y-38377117D01*
X35358408Y-38507515D01*
X35247515Y-38618408D01*
X35117117Y-38705537D01*
X34972228Y-38765552D01*
X34818414Y-38796148D01*
X34661586Y-38796148D01*
X34507772Y-38765552D01*
X34362883Y-38705537D01*
X34232485Y-38618408D01*
X34121592Y-38507515D01*
X34034463Y-38377117D01*
X33974448Y-38232228D01*
X33943852Y-38078414D01*
X33943852Y-37921586D01*
X33974448Y-37767772D01*
X34034463Y-37622883D01*
X34121592Y-37492485D01*
X34232485Y-37381592D01*
X34362883Y-37294463D01*
X34507772Y-37234448D01*
X34661586Y-37203852D01*
X34818414Y-37203852D01*
X34972228Y-37234448D01*
G37*
G36*
X46664047Y-35850805D02*
G01*
X46715408Y-35856764D01*
X46732954Y-35864511D01*
X46755671Y-35869030D01*
X46779991Y-35885280D01*
X46800793Y-35894465D01*
X46815000Y-35908672D01*
X46836777Y-35923223D01*
X46851327Y-35944999D01*
X46865534Y-35959206D01*
X46874718Y-35980006D01*
X46890970Y-36004329D01*
X46895489Y-36027048D01*
X46903235Y-36044591D01*
X46909192Y-36095940D01*
X46910000Y-36100000D01*
X46910000Y-37400000D01*
X46909192Y-37404059D01*
X46903235Y-37455408D01*
X46895489Y-37472950D01*
X46890970Y-37495671D01*
X46874716Y-37519995D01*
X46865534Y-37540793D01*
X46851329Y-37554997D01*
X46836777Y-37576777D01*
X46814997Y-37591329D01*
X46800793Y-37605534D01*
X46779995Y-37614716D01*
X46755671Y-37630970D01*
X46732950Y-37635489D01*
X46715408Y-37643235D01*
X46664061Y-37649192D01*
X46660000Y-37650000D01*
X45835000Y-37650000D01*
X45830941Y-37649192D01*
X45779591Y-37643235D01*
X45762048Y-37635489D01*
X45739329Y-37630970D01*
X45715006Y-37614718D01*
X45694206Y-37605534D01*
X45679999Y-37591327D01*
X45658223Y-37576777D01*
X45643672Y-37555000D01*
X45629465Y-37540793D01*
X45620280Y-37519991D01*
X45604030Y-37495671D01*
X45599511Y-37472954D01*
X45591764Y-37455408D01*
X45585805Y-37404049D01*
X45585000Y-37400000D01*
X45585000Y-36100000D01*
X45585804Y-36095953D01*
X45591764Y-36044591D01*
X45599511Y-36027043D01*
X45604030Y-36004329D01*
X45620278Y-35980010D01*
X45629465Y-35959206D01*
X45643674Y-35944996D01*
X45658223Y-35923223D01*
X45679996Y-35908674D01*
X45694206Y-35894465D01*
X45715010Y-35885278D01*
X45739329Y-35869030D01*
X45762043Y-35864511D01*
X45779591Y-35856764D01*
X45830952Y-35850805D01*
X45835000Y-35850000D01*
X46660000Y-35850000D01*
X46664047Y-35850805D01*
G37*
G36*
X49789047Y-35850805D02*
G01*
X49840408Y-35856764D01*
X49857954Y-35864511D01*
X49880671Y-35869030D01*
X49904991Y-35885280D01*
X49925793Y-35894465D01*
X49940000Y-35908672D01*
X49961777Y-35923223D01*
X49976327Y-35944999D01*
X49990534Y-35959206D01*
X49999718Y-35980006D01*
X50015970Y-36004329D01*
X50020489Y-36027048D01*
X50028235Y-36044591D01*
X50034192Y-36095940D01*
X50035000Y-36100000D01*
X50035000Y-37400000D01*
X50034192Y-37404059D01*
X50028235Y-37455408D01*
X50020489Y-37472950D01*
X50015970Y-37495671D01*
X49999716Y-37519995D01*
X49990534Y-37540793D01*
X49976329Y-37554997D01*
X49961777Y-37576777D01*
X49939997Y-37591329D01*
X49925793Y-37605534D01*
X49904995Y-37614716D01*
X49880671Y-37630970D01*
X49857950Y-37635489D01*
X49840408Y-37643235D01*
X49789061Y-37649192D01*
X49785000Y-37650000D01*
X48960000Y-37650000D01*
X48955941Y-37649192D01*
X48904591Y-37643235D01*
X48887048Y-37635489D01*
X48864329Y-37630970D01*
X48840006Y-37614718D01*
X48819206Y-37605534D01*
X48804999Y-37591327D01*
X48783223Y-37576777D01*
X48768672Y-37555000D01*
X48754465Y-37540793D01*
X48745280Y-37519991D01*
X48729030Y-37495671D01*
X48724511Y-37472954D01*
X48716764Y-37455408D01*
X48710805Y-37404049D01*
X48710000Y-37400000D01*
X48710000Y-36100000D01*
X48710804Y-36095953D01*
X48716764Y-36044591D01*
X48724511Y-36027043D01*
X48729030Y-36004329D01*
X48745278Y-35980010D01*
X48754465Y-35959206D01*
X48768674Y-35944996D01*
X48783223Y-35923223D01*
X48804996Y-35908674D01*
X48819206Y-35894465D01*
X48840010Y-35885278D01*
X48864329Y-35869030D01*
X48887043Y-35864511D01*
X48904591Y-35856764D01*
X48955952Y-35850805D01*
X48960000Y-35850000D01*
X49785000Y-35850000D01*
X49789047Y-35850805D01*
G37*
G36*
X38804047Y-32125805D02*
G01*
X38855408Y-32131764D01*
X38872954Y-32139511D01*
X38895671Y-32144030D01*
X38919991Y-32160280D01*
X38940793Y-32169465D01*
X38955000Y-32183672D01*
X38976777Y-32198223D01*
X38991327Y-32219999D01*
X39005534Y-32234206D01*
X39014718Y-32255006D01*
X39030970Y-32279329D01*
X39035489Y-32302048D01*
X39043235Y-32319591D01*
X39049192Y-32370940D01*
X39050000Y-32375000D01*
X39050000Y-33625000D01*
X39049192Y-33629059D01*
X39043235Y-33680408D01*
X39035489Y-33697950D01*
X39030970Y-33720671D01*
X39014716Y-33744995D01*
X39005534Y-33765793D01*
X38991329Y-33779997D01*
X38976777Y-33801777D01*
X38954997Y-33816329D01*
X38940793Y-33830534D01*
X38919995Y-33839716D01*
X38895671Y-33855970D01*
X38872950Y-33860489D01*
X38855408Y-33868235D01*
X38804061Y-33874192D01*
X38800000Y-33875000D01*
X38000000Y-33875000D01*
X37995941Y-33874192D01*
X37944591Y-33868235D01*
X37927048Y-33860489D01*
X37904329Y-33855970D01*
X37880006Y-33839718D01*
X37859206Y-33830534D01*
X37844999Y-33816327D01*
X37823223Y-33801777D01*
X37808672Y-33780000D01*
X37794465Y-33765793D01*
X37785280Y-33744991D01*
X37769030Y-33720671D01*
X37764511Y-33697954D01*
X37756764Y-33680408D01*
X37750805Y-33629049D01*
X37750000Y-33625000D01*
X37750000Y-32375000D01*
X37750804Y-32370953D01*
X37756764Y-32319591D01*
X37764511Y-32302043D01*
X37769030Y-32279329D01*
X37785278Y-32255010D01*
X37794465Y-32234206D01*
X37808674Y-32219996D01*
X37823223Y-32198223D01*
X37844996Y-32183674D01*
X37859206Y-32169465D01*
X37880010Y-32160278D01*
X37904329Y-32144030D01*
X37927043Y-32139511D01*
X37944591Y-32131764D01*
X37995952Y-32125805D01*
X38000000Y-32125000D01*
X38800000Y-32125000D01*
X38804047Y-32125805D01*
G37*
G36*
X41904047Y-32125805D02*
G01*
X41955408Y-32131764D01*
X41972954Y-32139511D01*
X41995671Y-32144030D01*
X42019991Y-32160280D01*
X42040793Y-32169465D01*
X42055000Y-32183672D01*
X42076777Y-32198223D01*
X42091327Y-32219999D01*
X42105534Y-32234206D01*
X42114718Y-32255006D01*
X42130970Y-32279329D01*
X42135489Y-32302048D01*
X42143235Y-32319591D01*
X42149192Y-32370940D01*
X42150000Y-32375000D01*
X42150000Y-33625000D01*
X42149192Y-33629059D01*
X42143235Y-33680408D01*
X42135489Y-33697950D01*
X42130970Y-33720671D01*
X42114716Y-33744995D01*
X42105534Y-33765793D01*
X42091329Y-33779997D01*
X42076777Y-33801777D01*
X42054997Y-33816329D01*
X42040793Y-33830534D01*
X42019995Y-33839716D01*
X41995671Y-33855970D01*
X41972950Y-33860489D01*
X41955408Y-33868235D01*
X41904061Y-33874192D01*
X41900000Y-33875000D01*
X41100000Y-33875000D01*
X41095941Y-33874192D01*
X41044591Y-33868235D01*
X41027048Y-33860489D01*
X41004329Y-33855970D01*
X40980006Y-33839718D01*
X40959206Y-33830534D01*
X40944999Y-33816327D01*
X40923223Y-33801777D01*
X40908672Y-33780000D01*
X40894465Y-33765793D01*
X40885280Y-33744991D01*
X40869030Y-33720671D01*
X40864511Y-33697954D01*
X40856764Y-33680408D01*
X40850805Y-33629049D01*
X40850000Y-33625000D01*
X40850000Y-32375000D01*
X40850804Y-32370953D01*
X40856764Y-32319591D01*
X40864511Y-32302043D01*
X40869030Y-32279329D01*
X40885278Y-32255010D01*
X40894465Y-32234206D01*
X40908674Y-32219996D01*
X40923223Y-32198223D01*
X40944996Y-32183674D01*
X40959206Y-32169465D01*
X40980010Y-32160278D01*
X41004329Y-32144030D01*
X41027043Y-32139511D01*
X41044591Y-32131764D01*
X41095952Y-32125805D01*
X41100000Y-32125000D01*
X41900000Y-32125000D01*
X41904047Y-32125805D01*
G37*
G36*
X44750000Y-33750000D02*
G01*
X43250000Y-33750000D01*
X43250000Y-32250000D01*
X44750000Y-32250000D01*
X44750000Y-33750000D01*
G37*
G36*
X46757714Y-32282295D02*
G01*
X46893548Y-32338559D01*
X47015795Y-32420242D01*
X47119758Y-32524205D01*
X47201441Y-32646452D01*
X47257705Y-32782286D01*
X47286389Y-32926487D01*
X47286389Y-33073513D01*
X47257705Y-33217714D01*
X47201441Y-33353548D01*
X47119758Y-33475795D01*
X47015795Y-33579758D01*
X46893548Y-33661441D01*
X46757714Y-33717705D01*
X46613513Y-33746389D01*
X46466487Y-33746389D01*
X46322286Y-33717705D01*
X46186452Y-33661441D01*
X46064205Y-33579758D01*
X45960242Y-33475795D01*
X45878559Y-33353548D01*
X45822295Y-33217714D01*
X45793611Y-33073513D01*
X45793611Y-32926487D01*
X45822295Y-32782286D01*
X45878559Y-32646452D01*
X45960242Y-32524205D01*
X46064205Y-32420242D01*
X46186452Y-32338559D01*
X46322286Y-32282295D01*
X46466487Y-32253611D01*
X46613513Y-32253611D01*
X46757714Y-32282295D01*
G37*
G36*
X49297714Y-32282295D02*
G01*
X49433548Y-32338559D01*
X49555795Y-32420242D01*
X49659758Y-32524205D01*
X49741441Y-32646452D01*
X49797705Y-32782286D01*
X49826389Y-32926487D01*
X49826389Y-33073513D01*
X49797705Y-33217714D01*
X49741441Y-33353548D01*
X49659758Y-33475795D01*
X49555795Y-33579758D01*
X49433548Y-33661441D01*
X49297714Y-33717705D01*
X49153513Y-33746389D01*
X49006487Y-33746389D01*
X48862286Y-33717705D01*
X48726452Y-33661441D01*
X48604205Y-33579758D01*
X48500242Y-33475795D01*
X48418559Y-33353548D01*
X48362295Y-33217714D01*
X48333611Y-33073513D01*
X48333611Y-32926487D01*
X48362295Y-32782286D01*
X48418559Y-32646452D01*
X48500242Y-32524205D01*
X48604205Y-32420242D01*
X48726452Y-32338559D01*
X48862286Y-32282295D01*
X49006487Y-32253611D01*
X49153513Y-32253611D01*
X49297714Y-32282295D01*
G37*
G36*
X19732228Y-29614448D02*
G01*
X19877117Y-29674463D01*
X20007515Y-29761592D01*
X20118408Y-29872485D01*
X20205537Y-30002883D01*
X20265552Y-30147772D01*
X20296148Y-30301586D01*
X20296148Y-30458414D01*
X20265552Y-30612228D01*
X20205537Y-30757117D01*
X20118408Y-30887515D01*
X20007515Y-30998408D01*
X19877117Y-31085537D01*
X19732228Y-31145552D01*
X19578414Y-31176148D01*
X19421586Y-31176148D01*
X19267772Y-31145552D01*
X19122883Y-31085537D01*
X18992485Y-30998408D01*
X18881592Y-30887515D01*
X18794463Y-30757117D01*
X18734448Y-30612228D01*
X18703852Y-30458414D01*
X18703852Y-30301586D01*
X18734448Y-30147772D01*
X18794463Y-30002883D01*
X18881592Y-29872485D01*
X18992485Y-29761592D01*
X19122883Y-29674463D01*
X19267772Y-29614448D01*
X19421586Y-29583852D01*
X19578414Y-29583852D01*
X19732228Y-29614448D01*
G37*
G36*
X22272228Y-29614448D02*
G01*
X22417117Y-29674463D01*
X22547515Y-29761592D01*
X22658408Y-29872485D01*
X22745537Y-30002883D01*
X22805552Y-30147772D01*
X22836148Y-30301586D01*
X22836148Y-30458414D01*
X22805552Y-30612228D01*
X22745537Y-30757117D01*
X22658408Y-30887515D01*
X22547515Y-30998408D01*
X22417117Y-31085537D01*
X22272228Y-31145552D01*
X22118414Y-31176148D01*
X21961586Y-31176148D01*
X21807772Y-31145552D01*
X21662883Y-31085537D01*
X21532485Y-30998408D01*
X21421592Y-30887515D01*
X21334463Y-30757117D01*
X21274448Y-30612228D01*
X21243852Y-30458414D01*
X21243852Y-30301586D01*
X21274448Y-30147772D01*
X21334463Y-30002883D01*
X21421592Y-29872485D01*
X21532485Y-29761592D01*
X21662883Y-29674463D01*
X21807772Y-29614448D01*
X21961586Y-29583852D01*
X22118414Y-29583852D01*
X22272228Y-29614448D01*
G37*
G36*
X24812228Y-29614448D02*
G01*
X24957117Y-29674463D01*
X25087515Y-29761592D01*
X25198408Y-29872485D01*
X25285537Y-30002883D01*
X25345552Y-30147772D01*
X25376148Y-30301586D01*
X25376148Y-30458414D01*
X25345552Y-30612228D01*
X25285537Y-30757117D01*
X25198408Y-30887515D01*
X25087515Y-30998408D01*
X24957117Y-31085537D01*
X24812228Y-31145552D01*
X24658414Y-31176148D01*
X24501586Y-31176148D01*
X24347772Y-31145552D01*
X24202883Y-31085537D01*
X24072485Y-30998408D01*
X23961592Y-30887515D01*
X23874463Y-30757117D01*
X23814448Y-30612228D01*
X23783852Y-30458414D01*
X23783852Y-30301586D01*
X23814448Y-30147772D01*
X23874463Y-30002883D01*
X23961592Y-29872485D01*
X24072485Y-29761592D01*
X24202883Y-29674463D01*
X24347772Y-29614448D01*
X24501586Y-29583852D01*
X24658414Y-29583852D01*
X24812228Y-29614448D01*
G37*
G36*
X27352228Y-29614448D02*
G01*
X27497117Y-29674463D01*
X27627515Y-29761592D01*
X27738408Y-29872485D01*
X27825537Y-30002883D01*
X27885552Y-30147772D01*
X27916148Y-30301586D01*
X27916148Y-30458414D01*
X27885552Y-30612228D01*
X27825537Y-30757117D01*
X27738408Y-30887515D01*
X27627515Y-30998408D01*
X27497117Y-31085537D01*
X27352228Y-31145552D01*
X27198414Y-31176148D01*
X27041586Y-31176148D01*
X26887772Y-31145552D01*
X26742883Y-31085537D01*
X26612485Y-30998408D01*
X26501592Y-30887515D01*
X26414463Y-30757117D01*
X26354448Y-30612228D01*
X26323852Y-30458414D01*
X26323852Y-30301586D01*
X26354448Y-30147772D01*
X26414463Y-30002883D01*
X26501592Y-29872485D01*
X26612485Y-29761592D01*
X26742883Y-29674463D01*
X26887772Y-29614448D01*
X27041586Y-29583852D01*
X27198414Y-29583852D01*
X27352228Y-29614448D01*
G37*
G36*
X29892228Y-29614448D02*
G01*
X30037117Y-29674463D01*
X30167515Y-29761592D01*
X30278408Y-29872485D01*
X30365537Y-30002883D01*
X30425552Y-30147772D01*
X30456148Y-30301586D01*
X30456148Y-30458414D01*
X30425552Y-30612228D01*
X30365537Y-30757117D01*
X30278408Y-30887515D01*
X30167515Y-30998408D01*
X30037117Y-31085537D01*
X29892228Y-31145552D01*
X29738414Y-31176148D01*
X29581586Y-31176148D01*
X29427772Y-31145552D01*
X29282883Y-31085537D01*
X29152485Y-30998408D01*
X29041592Y-30887515D01*
X28954463Y-30757117D01*
X28894448Y-30612228D01*
X28863852Y-30458414D01*
X28863852Y-30301586D01*
X28894448Y-30147772D01*
X28954463Y-30002883D01*
X29041592Y-29872485D01*
X29152485Y-29761592D01*
X29282883Y-29674463D01*
X29427772Y-29614448D01*
X29581586Y-29583852D01*
X29738414Y-29583852D01*
X29892228Y-29614448D01*
G37*
G36*
X32432228Y-29614448D02*
G01*
X32577117Y-29674463D01*
X32707515Y-29761592D01*
X32818408Y-29872485D01*
X32905537Y-30002883D01*
X32965552Y-30147772D01*
X32996148Y-30301586D01*
X32996148Y-30458414D01*
X32965552Y-30612228D01*
X32905537Y-30757117D01*
X32818408Y-30887515D01*
X32707515Y-30998408D01*
X32577117Y-31085537D01*
X32432228Y-31145552D01*
X32278414Y-31176148D01*
X32121586Y-31176148D01*
X31967772Y-31145552D01*
X31822883Y-31085537D01*
X31692485Y-30998408D01*
X31581592Y-30887515D01*
X31494463Y-30757117D01*
X31434448Y-30612228D01*
X31403852Y-30458414D01*
X31403852Y-30301586D01*
X31434448Y-30147772D01*
X31494463Y-30002883D01*
X31581592Y-29872485D01*
X31692485Y-29761592D01*
X31822883Y-29674463D01*
X31967772Y-29614448D01*
X32121586Y-29583852D01*
X32278414Y-29583852D01*
X32432228Y-29614448D01*
G37*
G36*
X34972228Y-29614448D02*
G01*
X35117117Y-29674463D01*
X35247515Y-29761592D01*
X35358408Y-29872485D01*
X35445537Y-30002883D01*
X35505552Y-30147772D01*
X35536148Y-30301586D01*
X35536148Y-30458414D01*
X35505552Y-30612228D01*
X35445537Y-30757117D01*
X35358408Y-30887515D01*
X35247515Y-30998408D01*
X35117117Y-31085537D01*
X34972228Y-31145552D01*
X34818414Y-31176148D01*
X34661586Y-31176148D01*
X34507772Y-31145552D01*
X34362883Y-31085537D01*
X34232485Y-30998408D01*
X34121592Y-30887515D01*
X34034463Y-30757117D01*
X33974448Y-30612228D01*
X33943852Y-30458414D01*
X33943852Y-30301586D01*
X33974448Y-30147772D01*
X34034463Y-30002883D01*
X34121592Y-29872485D01*
X34232485Y-29761592D01*
X34362883Y-29674463D01*
X34507772Y-29614448D01*
X34661586Y-29583852D01*
X34818414Y-29583852D01*
X34972228Y-29614448D01*
G37*
G36*
X38144047Y-29255805D02*
G01*
X38195408Y-29261764D01*
X38212954Y-29269511D01*
X38235671Y-29274030D01*
X38259991Y-29290280D01*
X38280793Y-29299465D01*
X38295000Y-29313672D01*
X38316777Y-29328223D01*
X38331327Y-29349999D01*
X38345534Y-29364206D01*
X38354718Y-29385006D01*
X38370970Y-29409329D01*
X38375489Y-29432048D01*
X38383235Y-29449591D01*
X38389192Y-29500940D01*
X38390000Y-29505000D01*
X38390000Y-30755000D01*
X38389192Y-30759059D01*
X38383235Y-30810408D01*
X38375489Y-30827950D01*
X38370970Y-30850671D01*
X38354716Y-30874995D01*
X38345534Y-30895793D01*
X38331329Y-30909997D01*
X38316777Y-30931777D01*
X38294997Y-30946329D01*
X38280793Y-30960534D01*
X38259995Y-30969716D01*
X38235671Y-30985970D01*
X38212950Y-30990489D01*
X38195408Y-30998235D01*
X38144061Y-31004192D01*
X38140000Y-31005000D01*
X37340000Y-31005000D01*
X37335941Y-31004192D01*
X37284591Y-30998235D01*
X37267048Y-30990489D01*
X37244329Y-30985970D01*
X37220006Y-30969718D01*
X37199206Y-30960534D01*
X37184999Y-30946327D01*
X37163223Y-30931777D01*
X37148672Y-30910000D01*
X37134465Y-30895793D01*
X37125280Y-30874991D01*
X37109030Y-30850671D01*
X37104511Y-30827954D01*
X37096764Y-30810408D01*
X37090805Y-30759049D01*
X37090000Y-30755000D01*
X37090000Y-29505000D01*
X37090804Y-29500953D01*
X37096764Y-29449591D01*
X37104511Y-29432043D01*
X37109030Y-29409329D01*
X37125278Y-29385010D01*
X37134465Y-29364206D01*
X37148674Y-29349996D01*
X37163223Y-29328223D01*
X37184996Y-29313674D01*
X37199206Y-29299465D01*
X37220010Y-29290278D01*
X37244329Y-29274030D01*
X37267043Y-29269511D01*
X37284591Y-29261764D01*
X37335952Y-29255805D01*
X37340000Y-29255000D01*
X38140000Y-29255000D01*
X38144047Y-29255805D01*
G37*
G36*
X41244047Y-29255805D02*
G01*
X41295408Y-29261764D01*
X41312954Y-29269511D01*
X41335671Y-29274030D01*
X41359991Y-29290280D01*
X41380793Y-29299465D01*
X41395000Y-29313672D01*
X41416777Y-29328223D01*
X41431327Y-29349999D01*
X41445534Y-29364206D01*
X41454718Y-29385006D01*
X41470970Y-29409329D01*
X41475489Y-29432048D01*
X41483235Y-29449591D01*
X41489192Y-29500940D01*
X41490000Y-29505000D01*
X41490000Y-30755000D01*
X41489192Y-30759059D01*
X41483235Y-30810408D01*
X41475489Y-30827950D01*
X41470970Y-30850671D01*
X41454716Y-30874995D01*
X41445534Y-30895793D01*
X41431329Y-30909997D01*
X41416777Y-30931777D01*
X41394997Y-30946329D01*
X41380793Y-30960534D01*
X41359995Y-30969716D01*
X41335671Y-30985970D01*
X41312950Y-30990489D01*
X41295408Y-30998235D01*
X41244061Y-31004192D01*
X41240000Y-31005000D01*
X40440000Y-31005000D01*
X40435941Y-31004192D01*
X40384591Y-30998235D01*
X40367048Y-30990489D01*
X40344329Y-30985970D01*
X40320006Y-30969718D01*
X40299206Y-30960534D01*
X40284999Y-30946327D01*
X40263223Y-30931777D01*
X40248672Y-30910000D01*
X40234465Y-30895793D01*
X40225280Y-30874991D01*
X40209030Y-30850671D01*
X40204511Y-30827954D01*
X40196764Y-30810408D01*
X40190805Y-30759049D01*
X40190000Y-30755000D01*
X40190000Y-29505000D01*
X40190804Y-29500953D01*
X40196764Y-29449591D01*
X40204511Y-29432043D01*
X40209030Y-29409329D01*
X40225278Y-29385010D01*
X40234465Y-29364206D01*
X40248674Y-29349996D01*
X40263223Y-29328223D01*
X40284996Y-29313674D01*
X40299206Y-29299465D01*
X40320010Y-29290278D01*
X40344329Y-29274030D01*
X40367043Y-29269511D01*
X40384591Y-29261764D01*
X40435952Y-29255805D01*
X40440000Y-29255000D01*
X41240000Y-29255000D01*
X41244047Y-29255805D01*
G37*
G36*
X19916047Y-26730805D02*
G01*
X19967408Y-26736764D01*
X19984954Y-26744511D01*
X20007671Y-26749030D01*
X20031991Y-26765280D01*
X20052793Y-26774465D01*
X20067000Y-26788672D01*
X20088777Y-26803223D01*
X20103327Y-26824999D01*
X20117534Y-26839206D01*
X20126718Y-26860006D01*
X20142970Y-26884329D01*
X20147489Y-26907048D01*
X20155235Y-26924591D01*
X20161192Y-26975940D01*
X20162000Y-26980000D01*
X20162000Y-28280000D01*
X20161192Y-28284059D01*
X20155235Y-28335408D01*
X20147489Y-28352950D01*
X20142970Y-28375671D01*
X20126716Y-28399995D01*
X20117534Y-28420793D01*
X20103329Y-28434997D01*
X20088777Y-28456777D01*
X20066997Y-28471329D01*
X20052793Y-28485534D01*
X20031995Y-28494716D01*
X20007671Y-28510970D01*
X19984950Y-28515489D01*
X19967408Y-28523235D01*
X19916061Y-28529192D01*
X19912000Y-28530000D01*
X19087000Y-28530000D01*
X19082941Y-28529192D01*
X19031591Y-28523235D01*
X19014048Y-28515489D01*
X18991329Y-28510970D01*
X18967006Y-28494718D01*
X18946206Y-28485534D01*
X18931999Y-28471327D01*
X18910223Y-28456777D01*
X18895672Y-28435000D01*
X18881465Y-28420793D01*
X18872280Y-28399991D01*
X18856030Y-28375671D01*
X18851511Y-28352954D01*
X18843764Y-28335408D01*
X18837805Y-28284049D01*
X18837000Y-28280000D01*
X18837000Y-26980000D01*
X18837804Y-26975953D01*
X18843764Y-26924591D01*
X18851511Y-26907043D01*
X18856030Y-26884329D01*
X18872278Y-26860010D01*
X18881465Y-26839206D01*
X18895674Y-26824996D01*
X18910223Y-26803223D01*
X18931996Y-26788674D01*
X18946206Y-26774465D01*
X18967010Y-26765278D01*
X18991329Y-26749030D01*
X19014043Y-26744511D01*
X19031591Y-26736764D01*
X19082952Y-26730805D01*
X19087000Y-26730000D01*
X19912000Y-26730000D01*
X19916047Y-26730805D01*
G37*
G36*
X23041047Y-26730805D02*
G01*
X23092408Y-26736764D01*
X23109954Y-26744511D01*
X23132671Y-26749030D01*
X23156991Y-26765280D01*
X23177793Y-26774465D01*
X23192000Y-26788672D01*
X23213777Y-26803223D01*
X23228327Y-26824999D01*
X23242534Y-26839206D01*
X23251718Y-26860006D01*
X23267970Y-26884329D01*
X23272489Y-26907048D01*
X23280235Y-26924591D01*
X23286192Y-26975940D01*
X23287000Y-26980000D01*
X23287000Y-28280000D01*
X23286192Y-28284059D01*
X23280235Y-28335408D01*
X23272489Y-28352950D01*
X23267970Y-28375671D01*
X23251716Y-28399995D01*
X23242534Y-28420793D01*
X23228329Y-28434997D01*
X23213777Y-28456777D01*
X23191997Y-28471329D01*
X23177793Y-28485534D01*
X23156995Y-28494716D01*
X23132671Y-28510970D01*
X23109950Y-28515489D01*
X23092408Y-28523235D01*
X23041061Y-28529192D01*
X23037000Y-28530000D01*
X22212000Y-28530000D01*
X22207941Y-28529192D01*
X22156591Y-28523235D01*
X22139048Y-28515489D01*
X22116329Y-28510970D01*
X22092006Y-28494718D01*
X22071206Y-28485534D01*
X22056999Y-28471327D01*
X22035223Y-28456777D01*
X22020672Y-28435000D01*
X22006465Y-28420793D01*
X21997280Y-28399991D01*
X21981030Y-28375671D01*
X21976511Y-28352954D01*
X21968764Y-28335408D01*
X21962805Y-28284049D01*
X21962000Y-28280000D01*
X21962000Y-26980000D01*
X21962804Y-26975953D01*
X21968764Y-26924591D01*
X21976511Y-26907043D01*
X21981030Y-26884329D01*
X21997278Y-26860010D01*
X22006465Y-26839206D01*
X22020674Y-26824996D01*
X22035223Y-26803223D01*
X22056996Y-26788674D01*
X22071206Y-26774465D01*
X22092010Y-26765278D01*
X22116329Y-26749030D01*
X22139043Y-26744511D01*
X22156591Y-26736764D01*
X22207952Y-26730805D01*
X22212000Y-26730000D01*
X23037000Y-26730000D01*
X23041047Y-26730805D01*
G37*
G36*
X11907403Y-27021418D02*
G01*
X11956066Y-27053934D01*
X11988582Y-27102597D01*
X12000000Y-27160000D01*
X12000000Y-27460000D01*
X11988582Y-27517403D01*
X11956066Y-27566066D01*
X11907403Y-27598582D01*
X11850000Y-27610000D01*
X10200000Y-27610000D01*
X10142597Y-27598582D01*
X10093934Y-27566066D01*
X10061418Y-27517403D01*
X10050000Y-27460000D01*
X10050000Y-27160000D01*
X10061418Y-27102597D01*
X10093934Y-27053934D01*
X10142597Y-27021418D01*
X10200000Y-27010000D01*
X11850000Y-27010000D01*
X11907403Y-27021418D01*
G37*
G36*
X16857403Y-27021418D02*
G01*
X16906066Y-27053934D01*
X16938582Y-27102597D01*
X16950000Y-27160000D01*
X16950000Y-27460000D01*
X16938582Y-27517403D01*
X16906066Y-27566066D01*
X16857403Y-27598582D01*
X16800000Y-27610000D01*
X15150000Y-27610000D01*
X15092597Y-27598582D01*
X15043934Y-27566066D01*
X15011418Y-27517403D01*
X15000000Y-27460000D01*
X15000000Y-27160000D01*
X15011418Y-27102597D01*
X15043934Y-27053934D01*
X15092597Y-27021418D01*
X15150000Y-27010000D01*
X16800000Y-27010000D01*
X16857403Y-27021418D01*
G37*
G36*
X37907403Y-27021418D02*
G01*
X37956066Y-27053934D01*
X37988582Y-27102597D01*
X38000000Y-27160000D01*
X38000000Y-27460000D01*
X37988582Y-27517403D01*
X37956066Y-27566066D01*
X37907403Y-27598582D01*
X37850000Y-27610000D01*
X36200000Y-27610000D01*
X36142597Y-27598582D01*
X36093934Y-27566066D01*
X36061418Y-27517403D01*
X36050000Y-27460000D01*
X36050000Y-27160000D01*
X36061418Y-27102597D01*
X36093934Y-27053934D01*
X36142597Y-27021418D01*
X36200000Y-27010000D01*
X37850000Y-27010000D01*
X37907403Y-27021418D01*
G37*
G36*
X42857403Y-27021418D02*
G01*
X42906066Y-27053934D01*
X42938582Y-27102597D01*
X42950000Y-27160000D01*
X42950000Y-27460000D01*
X42938582Y-27517403D01*
X42906066Y-27566066D01*
X42857403Y-27598582D01*
X42800000Y-27610000D01*
X41150000Y-27610000D01*
X41092597Y-27598582D01*
X41043934Y-27566066D01*
X41011418Y-27517403D01*
X41000000Y-27460000D01*
X41000000Y-27160000D01*
X41011418Y-27102597D01*
X41043934Y-27053934D01*
X41092597Y-27021418D01*
X41150000Y-27010000D01*
X42800000Y-27010000D01*
X42857403Y-27021418D01*
G37*
G36*
X5579047Y-25165805D02*
G01*
X5630408Y-25171764D01*
X5647954Y-25179511D01*
X5670671Y-25184030D01*
X5694991Y-25200280D01*
X5715793Y-25209465D01*
X5730000Y-25223672D01*
X5751777Y-25238223D01*
X5766327Y-25259999D01*
X5780534Y-25274206D01*
X5789718Y-25295006D01*
X5805970Y-25319329D01*
X5810489Y-25342048D01*
X5818235Y-25359591D01*
X5824192Y-25410940D01*
X5825000Y-25415000D01*
X5825000Y-26665000D01*
X5824192Y-26669059D01*
X5818235Y-26720408D01*
X5810489Y-26737950D01*
X5805970Y-26760671D01*
X5789716Y-26784995D01*
X5780534Y-26805793D01*
X5766329Y-26819997D01*
X5751777Y-26841777D01*
X5729997Y-26856329D01*
X5715793Y-26870534D01*
X5694995Y-26879716D01*
X5670671Y-26895970D01*
X5647950Y-26900489D01*
X5630408Y-26908235D01*
X5579061Y-26914192D01*
X5575000Y-26915000D01*
X4775000Y-26915000D01*
X4770941Y-26914192D01*
X4719591Y-26908235D01*
X4702048Y-26900489D01*
X4679329Y-26895970D01*
X4655006Y-26879718D01*
X4634206Y-26870534D01*
X4619999Y-26856327D01*
X4598223Y-26841777D01*
X4583672Y-26820000D01*
X4569465Y-26805793D01*
X4560280Y-26784991D01*
X4544030Y-26760671D01*
X4539511Y-26737954D01*
X4531764Y-26720408D01*
X4525805Y-26669049D01*
X4525000Y-26665000D01*
X4525000Y-25415000D01*
X4525804Y-25410953D01*
X4531764Y-25359591D01*
X4539511Y-25342043D01*
X4544030Y-25319329D01*
X4560278Y-25295010D01*
X4569465Y-25274206D01*
X4583674Y-25259996D01*
X4598223Y-25238223D01*
X4619996Y-25223674D01*
X4634206Y-25209465D01*
X4655010Y-25200278D01*
X4679329Y-25184030D01*
X4702043Y-25179511D01*
X4719591Y-25171764D01*
X4770952Y-25165805D01*
X4775000Y-25165000D01*
X5575000Y-25165000D01*
X5579047Y-25165805D01*
G37*
G36*
X8679047Y-25165805D02*
G01*
X8730408Y-25171764D01*
X8747954Y-25179511D01*
X8770671Y-25184030D01*
X8794991Y-25200280D01*
X8815793Y-25209465D01*
X8830000Y-25223672D01*
X8851777Y-25238223D01*
X8866327Y-25259999D01*
X8880534Y-25274206D01*
X8889718Y-25295006D01*
X8905970Y-25319329D01*
X8910489Y-25342048D01*
X8918235Y-25359591D01*
X8924192Y-25410940D01*
X8925000Y-25415000D01*
X8925000Y-26665000D01*
X8924192Y-26669059D01*
X8918235Y-26720408D01*
X8910489Y-26737950D01*
X8905970Y-26760671D01*
X8889716Y-26784995D01*
X8880534Y-26805793D01*
X8866329Y-26819997D01*
X8851777Y-26841777D01*
X8829997Y-26856329D01*
X8815793Y-26870534D01*
X8794995Y-26879716D01*
X8770671Y-26895970D01*
X8747950Y-26900489D01*
X8730408Y-26908235D01*
X8679061Y-26914192D01*
X8675000Y-26915000D01*
X7875000Y-26915000D01*
X7870941Y-26914192D01*
X7819591Y-26908235D01*
X7802048Y-26900489D01*
X7779329Y-26895970D01*
X7755006Y-26879718D01*
X7734206Y-26870534D01*
X7719999Y-26856327D01*
X7698223Y-26841777D01*
X7683672Y-26820000D01*
X7669465Y-26805793D01*
X7660280Y-26784991D01*
X7644030Y-26760671D01*
X7639511Y-26737954D01*
X7631764Y-26720408D01*
X7625805Y-26669049D01*
X7625000Y-26665000D01*
X7625000Y-25415000D01*
X7625804Y-25410953D01*
X7631764Y-25359591D01*
X7639511Y-25342043D01*
X7644030Y-25319329D01*
X7660278Y-25295010D01*
X7669465Y-25274206D01*
X7683674Y-25259996D01*
X7698223Y-25238223D01*
X7719996Y-25223674D01*
X7734206Y-25209465D01*
X7755010Y-25200278D01*
X7779329Y-25184030D01*
X7802043Y-25179511D01*
X7819591Y-25171764D01*
X7870952Y-25165805D01*
X7875000Y-25165000D01*
X8675000Y-25165000D01*
X8679047Y-25165805D01*
G37*
G36*
X25979047Y-25165805D02*
G01*
X26030408Y-25171764D01*
X26047954Y-25179511D01*
X26070671Y-25184030D01*
X26094991Y-25200280D01*
X26115793Y-25209465D01*
X26130000Y-25223672D01*
X26151777Y-25238223D01*
X26166327Y-25259999D01*
X26180534Y-25274206D01*
X26189718Y-25295006D01*
X26205970Y-25319329D01*
X26210489Y-25342048D01*
X26218235Y-25359591D01*
X26224192Y-25410940D01*
X26225000Y-25415000D01*
X26225000Y-26665000D01*
X26224192Y-26669059D01*
X26218235Y-26720408D01*
X26210489Y-26737950D01*
X26205970Y-26760671D01*
X26189716Y-26784995D01*
X26180534Y-26805793D01*
X26166329Y-26819997D01*
X26151777Y-26841777D01*
X26129997Y-26856329D01*
X26115793Y-26870534D01*
X26094995Y-26879716D01*
X26070671Y-26895970D01*
X26047950Y-26900489D01*
X26030408Y-26908235D01*
X25979061Y-26914192D01*
X25975000Y-26915000D01*
X25175000Y-26915000D01*
X25170941Y-26914192D01*
X25119591Y-26908235D01*
X25102048Y-26900489D01*
X25079329Y-26895970D01*
X25055006Y-26879718D01*
X25034206Y-26870534D01*
X25019999Y-26856327D01*
X24998223Y-26841777D01*
X24983672Y-26820000D01*
X24969465Y-26805793D01*
X24960280Y-26784991D01*
X24944030Y-26760671D01*
X24939511Y-26737954D01*
X24931764Y-26720408D01*
X24925805Y-26669049D01*
X24925000Y-26665000D01*
X24925000Y-25415000D01*
X24925804Y-25410953D01*
X24931764Y-25359591D01*
X24939511Y-25342043D01*
X24944030Y-25319329D01*
X24960278Y-25295010D01*
X24969465Y-25274206D01*
X24983674Y-25259996D01*
X24998223Y-25238223D01*
X25019996Y-25223674D01*
X25034206Y-25209465D01*
X25055010Y-25200278D01*
X25079329Y-25184030D01*
X25102043Y-25179511D01*
X25119591Y-25171764D01*
X25170952Y-25165805D01*
X25175000Y-25165000D01*
X25975000Y-25165000D01*
X25979047Y-25165805D01*
G37*
G36*
X29079047Y-25165805D02*
G01*
X29130408Y-25171764D01*
X29147954Y-25179511D01*
X29170671Y-25184030D01*
X29194991Y-25200280D01*
X29215793Y-25209465D01*
X29230000Y-25223672D01*
X29251777Y-25238223D01*
X29266327Y-25259999D01*
X29280534Y-25274206D01*
X29289718Y-25295006D01*
X29305970Y-25319329D01*
X29310489Y-25342048D01*
X29318235Y-25359591D01*
X29324192Y-25410940D01*
X29325000Y-25415000D01*
X29325000Y-26665000D01*
X29324192Y-26669059D01*
X29318235Y-26720408D01*
X29310489Y-26737950D01*
X29305970Y-26760671D01*
X29289716Y-26784995D01*
X29280534Y-26805793D01*
X29266329Y-26819997D01*
X29251777Y-26841777D01*
X29229997Y-26856329D01*
X29215793Y-26870534D01*
X29194995Y-26879716D01*
X29170671Y-26895970D01*
X29147950Y-26900489D01*
X29130408Y-26908235D01*
X29079061Y-26914192D01*
X29075000Y-26915000D01*
X28275000Y-26915000D01*
X28270941Y-26914192D01*
X28219591Y-26908235D01*
X28202048Y-26900489D01*
X28179329Y-26895970D01*
X28155006Y-26879718D01*
X28134206Y-26870534D01*
X28119999Y-26856327D01*
X28098223Y-26841777D01*
X28083672Y-26820000D01*
X28069465Y-26805793D01*
X28060280Y-26784991D01*
X28044030Y-26760671D01*
X28039511Y-26737954D01*
X28031764Y-26720408D01*
X28025805Y-26669049D01*
X28025000Y-26665000D01*
X28025000Y-25415000D01*
X28025804Y-25410953D01*
X28031764Y-25359591D01*
X28039511Y-25342043D01*
X28044030Y-25319329D01*
X28060278Y-25295010D01*
X28069465Y-25274206D01*
X28083674Y-25259996D01*
X28098223Y-25238223D01*
X28119996Y-25223674D01*
X28134206Y-25209465D01*
X28155010Y-25200278D01*
X28179329Y-25184030D01*
X28202043Y-25179511D01*
X28219591Y-25171764D01*
X28270952Y-25165805D01*
X28275000Y-25165000D01*
X29075000Y-25165000D01*
X29079047Y-25165805D01*
G37*
G36*
X31579047Y-25165805D02*
G01*
X31630408Y-25171764D01*
X31647954Y-25179511D01*
X31670671Y-25184030D01*
X31694991Y-25200280D01*
X31715793Y-25209465D01*
X31730000Y-25223672D01*
X31751777Y-25238223D01*
X31766327Y-25259999D01*
X31780534Y-25274206D01*
X31789718Y-25295006D01*
X31805970Y-25319329D01*
X31810489Y-25342048D01*
X31818235Y-25359591D01*
X31824192Y-25410940D01*
X31825000Y-25415000D01*
X31825000Y-26665000D01*
X31824192Y-26669059D01*
X31818235Y-26720408D01*
X31810489Y-26737950D01*
X31805970Y-26760671D01*
X31789716Y-26784995D01*
X31780534Y-26805793D01*
X31766329Y-26819997D01*
X31751777Y-26841777D01*
X31729997Y-26856329D01*
X31715793Y-26870534D01*
X31694995Y-26879716D01*
X31670671Y-26895970D01*
X31647950Y-26900489D01*
X31630408Y-26908235D01*
X31579061Y-26914192D01*
X31575000Y-26915000D01*
X30775000Y-26915000D01*
X30770941Y-26914192D01*
X30719591Y-26908235D01*
X30702048Y-26900489D01*
X30679329Y-26895970D01*
X30655006Y-26879718D01*
X30634206Y-26870534D01*
X30619999Y-26856327D01*
X30598223Y-26841777D01*
X30583672Y-26820000D01*
X30569465Y-26805793D01*
X30560280Y-26784991D01*
X30544030Y-26760671D01*
X30539511Y-26737954D01*
X30531764Y-26720408D01*
X30525805Y-26669049D01*
X30525000Y-26665000D01*
X30525000Y-25415000D01*
X30525804Y-25410953D01*
X30531764Y-25359591D01*
X30539511Y-25342043D01*
X30544030Y-25319329D01*
X30560278Y-25295010D01*
X30569465Y-25274206D01*
X30583674Y-25259996D01*
X30598223Y-25238223D01*
X30619996Y-25223674D01*
X30634206Y-25209465D01*
X30655010Y-25200278D01*
X30679329Y-25184030D01*
X30702043Y-25179511D01*
X30719591Y-25171764D01*
X30770952Y-25165805D01*
X30775000Y-25165000D01*
X31575000Y-25165000D01*
X31579047Y-25165805D01*
G37*
G36*
X34679047Y-25165805D02*
G01*
X34730408Y-25171764D01*
X34747954Y-25179511D01*
X34770671Y-25184030D01*
X34794991Y-25200280D01*
X34815793Y-25209465D01*
X34830000Y-25223672D01*
X34851777Y-25238223D01*
X34866327Y-25259999D01*
X34880534Y-25274206D01*
X34889718Y-25295006D01*
X34905970Y-25319329D01*
X34910489Y-25342048D01*
X34918235Y-25359591D01*
X34924192Y-25410940D01*
X34925000Y-25415000D01*
X34925000Y-26665000D01*
X34924192Y-26669059D01*
X34918235Y-26720408D01*
X34910489Y-26737950D01*
X34905970Y-26760671D01*
X34889716Y-26784995D01*
X34880534Y-26805793D01*
X34866329Y-26819997D01*
X34851777Y-26841777D01*
X34829997Y-26856329D01*
X34815793Y-26870534D01*
X34794995Y-26879716D01*
X34770671Y-26895970D01*
X34747950Y-26900489D01*
X34730408Y-26908235D01*
X34679061Y-26914192D01*
X34675000Y-26915000D01*
X33875000Y-26915000D01*
X33870941Y-26914192D01*
X33819591Y-26908235D01*
X33802048Y-26900489D01*
X33779329Y-26895970D01*
X33755006Y-26879718D01*
X33734206Y-26870534D01*
X33719999Y-26856327D01*
X33698223Y-26841777D01*
X33683672Y-26820000D01*
X33669465Y-26805793D01*
X33660280Y-26784991D01*
X33644030Y-26760671D01*
X33639511Y-26737954D01*
X33631764Y-26720408D01*
X33625805Y-26669049D01*
X33625000Y-26665000D01*
X33625000Y-25415000D01*
X33625804Y-25410953D01*
X33631764Y-25359591D01*
X33639511Y-25342043D01*
X33644030Y-25319329D01*
X33660278Y-25295010D01*
X33669465Y-25274206D01*
X33683674Y-25259996D01*
X33698223Y-25238223D01*
X33719996Y-25223674D01*
X33734206Y-25209465D01*
X33755010Y-25200278D01*
X33779329Y-25184030D01*
X33802043Y-25179511D01*
X33819591Y-25171764D01*
X33870952Y-25165805D01*
X33875000Y-25165000D01*
X34675000Y-25165000D01*
X34679047Y-25165805D01*
G37*
G36*
X3054047Y-25390805D02*
G01*
X3105408Y-25396764D01*
X3122954Y-25404511D01*
X3145671Y-25409030D01*
X3169991Y-25425280D01*
X3190793Y-25434465D01*
X3205000Y-25448672D01*
X3226777Y-25463223D01*
X3241327Y-25484999D01*
X3255534Y-25499206D01*
X3264718Y-25520006D01*
X3280970Y-25544329D01*
X3285489Y-25567048D01*
X3293235Y-25584591D01*
X3299192Y-25635940D01*
X3300000Y-25640000D01*
X3300000Y-26440000D01*
X3299192Y-26444059D01*
X3293235Y-26495408D01*
X3285489Y-26512950D01*
X3280970Y-26535671D01*
X3264716Y-26559995D01*
X3255534Y-26580793D01*
X3241329Y-26594997D01*
X3226777Y-26616777D01*
X3204997Y-26631329D01*
X3190793Y-26645534D01*
X3169995Y-26654716D01*
X3145671Y-26670970D01*
X3122950Y-26675489D01*
X3105408Y-26683235D01*
X3054061Y-26689192D01*
X3050000Y-26690000D01*
X1800000Y-26690000D01*
X1795941Y-26689192D01*
X1744591Y-26683235D01*
X1727048Y-26675489D01*
X1704329Y-26670970D01*
X1680006Y-26654718D01*
X1659206Y-26645534D01*
X1644999Y-26631327D01*
X1623223Y-26616777D01*
X1608672Y-26595000D01*
X1594465Y-26580793D01*
X1585280Y-26559991D01*
X1569030Y-26535671D01*
X1564511Y-26512954D01*
X1556764Y-26495408D01*
X1550805Y-26444049D01*
X1550000Y-26440000D01*
X1550000Y-25640000D01*
X1550804Y-25635953D01*
X1556764Y-25584591D01*
X1564511Y-25567043D01*
X1569030Y-25544329D01*
X1585278Y-25520010D01*
X1594465Y-25499206D01*
X1608674Y-25484996D01*
X1623223Y-25463223D01*
X1644996Y-25448674D01*
X1659206Y-25434465D01*
X1680010Y-25425278D01*
X1704329Y-25409030D01*
X1727043Y-25404511D01*
X1744591Y-25396764D01*
X1795952Y-25390805D01*
X1800000Y-25390000D01*
X3050000Y-25390000D01*
X3054047Y-25390805D01*
G37*
G36*
X11907403Y-25751418D02*
G01*
X11956066Y-25783934D01*
X11988582Y-25832597D01*
X12000000Y-25890000D01*
X12000000Y-26190000D01*
X11988582Y-26247403D01*
X11956066Y-26296066D01*
X11907403Y-26328582D01*
X11850000Y-26340000D01*
X10200000Y-26340000D01*
X10142597Y-26328582D01*
X10093934Y-26296066D01*
X10061418Y-26247403D01*
X10050000Y-26190000D01*
X10050000Y-25890000D01*
X10061418Y-25832597D01*
X10093934Y-25783934D01*
X10142597Y-25751418D01*
X10200000Y-25740000D01*
X11850000Y-25740000D01*
X11907403Y-25751418D01*
G37*
G36*
X16857403Y-25751418D02*
G01*
X16906066Y-25783934D01*
X16938582Y-25832597D01*
X16950000Y-25890000D01*
X16950000Y-26190000D01*
X16938582Y-26247403D01*
X16906066Y-26296066D01*
X16857403Y-26328582D01*
X16800000Y-26340000D01*
X15150000Y-26340000D01*
X15092597Y-26328582D01*
X15043934Y-26296066D01*
X15011418Y-26247403D01*
X15000000Y-26190000D01*
X15000000Y-25890000D01*
X15011418Y-25832597D01*
X15043934Y-25783934D01*
X15092597Y-25751418D01*
X15150000Y-25740000D01*
X16800000Y-25740000D01*
X16857403Y-25751418D01*
G37*
G36*
X37907403Y-25751418D02*
G01*
X37956066Y-25783934D01*
X37988582Y-25832597D01*
X38000000Y-25890000D01*
X38000000Y-26190000D01*
X37988582Y-26247403D01*
X37956066Y-26296066D01*
X37907403Y-26328582D01*
X37850000Y-26340000D01*
X36200000Y-26340000D01*
X36142597Y-26328582D01*
X36093934Y-26296066D01*
X36061418Y-26247403D01*
X36050000Y-26190000D01*
X36050000Y-25890000D01*
X36061418Y-25832597D01*
X36093934Y-25783934D01*
X36142597Y-25751418D01*
X36200000Y-25740000D01*
X37850000Y-25740000D01*
X37907403Y-25751418D01*
G37*
G36*
X42857403Y-25751418D02*
G01*
X42906066Y-25783934D01*
X42938582Y-25832597D01*
X42950000Y-25890000D01*
X42950000Y-26190000D01*
X42938582Y-26247403D01*
X42906066Y-26296066D01*
X42857403Y-26328582D01*
X42800000Y-26340000D01*
X41150000Y-26340000D01*
X41092597Y-26328582D01*
X41043934Y-26296066D01*
X41011418Y-26247403D01*
X41000000Y-26190000D01*
X41000000Y-25890000D01*
X41011418Y-25832597D01*
X41043934Y-25783934D01*
X41092597Y-25751418D01*
X41150000Y-25740000D01*
X42800000Y-25740000D01*
X42857403Y-25751418D01*
G37*
G36*
X11907403Y-24481418D02*
G01*
X11956066Y-24513934D01*
X11988582Y-24562597D01*
X12000000Y-24620000D01*
X12000000Y-24920000D01*
X11988582Y-24977403D01*
X11956066Y-25026066D01*
X11907403Y-25058582D01*
X11850000Y-25070000D01*
X10200000Y-25070000D01*
X10142597Y-25058582D01*
X10093934Y-25026066D01*
X10061418Y-24977403D01*
X10050000Y-24920000D01*
X10050000Y-24620000D01*
X10061418Y-24562597D01*
X10093934Y-24513934D01*
X10142597Y-24481418D01*
X10200000Y-24470000D01*
X11850000Y-24470000D01*
X11907403Y-24481418D01*
G37*
G36*
X16857403Y-24481418D02*
G01*
X16906066Y-24513934D01*
X16938582Y-24562597D01*
X16950000Y-24620000D01*
X16950000Y-24920000D01*
X16938582Y-24977403D01*
X16906066Y-25026066D01*
X16857403Y-25058582D01*
X16800000Y-25070000D01*
X15150000Y-25070000D01*
X15092597Y-25058582D01*
X15043934Y-25026066D01*
X15011418Y-24977403D01*
X15000000Y-24920000D01*
X15000000Y-24620000D01*
X15011418Y-24562597D01*
X15043934Y-24513934D01*
X15092597Y-24481418D01*
X15150000Y-24470000D01*
X16800000Y-24470000D01*
X16857403Y-24481418D01*
G37*
G36*
X37907403Y-24481418D02*
G01*
X37956066Y-24513934D01*
X37988582Y-24562597D01*
X38000000Y-24620000D01*
X38000000Y-24920000D01*
X37988582Y-24977403D01*
X37956066Y-25026066D01*
X37907403Y-25058582D01*
X37850000Y-25070000D01*
X36200000Y-25070000D01*
X36142597Y-25058582D01*
X36093934Y-25026066D01*
X36061418Y-24977403D01*
X36050000Y-24920000D01*
X36050000Y-24620000D01*
X36061418Y-24562597D01*
X36093934Y-24513934D01*
X36142597Y-24481418D01*
X36200000Y-24470000D01*
X37850000Y-24470000D01*
X37907403Y-24481418D01*
G37*
G36*
X42857403Y-24481418D02*
G01*
X42906066Y-24513934D01*
X42938582Y-24562597D01*
X42950000Y-24620000D01*
X42950000Y-24920000D01*
X42938582Y-24977403D01*
X42906066Y-25026066D01*
X42857403Y-25058582D01*
X42800000Y-25070000D01*
X41150000Y-25070000D01*
X41092597Y-25058582D01*
X41043934Y-25026066D01*
X41011418Y-24977403D01*
X41000000Y-24920000D01*
X41000000Y-24620000D01*
X41011418Y-24562597D01*
X41043934Y-24513934D01*
X41092597Y-24481418D01*
X41150000Y-24470000D01*
X42800000Y-24470000D01*
X42857403Y-24481418D01*
G37*
G36*
X11907403Y-23211418D02*
G01*
X11956066Y-23243934D01*
X11988582Y-23292597D01*
X12000000Y-23350000D01*
X12000000Y-23650000D01*
X11988582Y-23707403D01*
X11956066Y-23756066D01*
X11907403Y-23788582D01*
X11850000Y-23800000D01*
X10200000Y-23800000D01*
X10142597Y-23788582D01*
X10093934Y-23756066D01*
X10061418Y-23707403D01*
X10050000Y-23650000D01*
X10050000Y-23350000D01*
X10061418Y-23292597D01*
X10093934Y-23243934D01*
X10142597Y-23211418D01*
X10200000Y-23200000D01*
X11850000Y-23200000D01*
X11907403Y-23211418D01*
G37*
G36*
X16857403Y-23211418D02*
G01*
X16906066Y-23243934D01*
X16938582Y-23292597D01*
X16950000Y-23350000D01*
X16950000Y-23650000D01*
X16938582Y-23707403D01*
X16906066Y-23756066D01*
X16857403Y-23788582D01*
X16800000Y-23800000D01*
X15150000Y-23800000D01*
X15092597Y-23788582D01*
X15043934Y-23756066D01*
X15011418Y-23707403D01*
X15000000Y-23650000D01*
X15000000Y-23350000D01*
X15011418Y-23292597D01*
X15043934Y-23243934D01*
X15092597Y-23211418D01*
X15150000Y-23200000D01*
X16800000Y-23200000D01*
X16857403Y-23211418D01*
G37*
G36*
X37907403Y-23211418D02*
G01*
X37956066Y-23243934D01*
X37988582Y-23292597D01*
X38000000Y-23350000D01*
X38000000Y-23650000D01*
X37988582Y-23707403D01*
X37956066Y-23756066D01*
X37907403Y-23788582D01*
X37850000Y-23800000D01*
X36200000Y-23800000D01*
X36142597Y-23788582D01*
X36093934Y-23756066D01*
X36061418Y-23707403D01*
X36050000Y-23650000D01*
X36050000Y-23350000D01*
X36061418Y-23292597D01*
X36093934Y-23243934D01*
X36142597Y-23211418D01*
X36200000Y-23200000D01*
X37850000Y-23200000D01*
X37907403Y-23211418D01*
G37*
G36*
X42857403Y-23211418D02*
G01*
X42906066Y-23243934D01*
X42938582Y-23292597D01*
X42950000Y-23350000D01*
X42950000Y-23650000D01*
X42938582Y-23707403D01*
X42906066Y-23756066D01*
X42857403Y-23788582D01*
X42800000Y-23800000D01*
X41150000Y-23800000D01*
X41092597Y-23788582D01*
X41043934Y-23756066D01*
X41011418Y-23707403D01*
X41000000Y-23650000D01*
X41000000Y-23350000D01*
X41011418Y-23292597D01*
X41043934Y-23243934D01*
X41092597Y-23211418D01*
X41150000Y-23200000D01*
X42800000Y-23200000D01*
X42857403Y-23211418D01*
G37*
G36*
X3054047Y-22290805D02*
G01*
X3105408Y-22296764D01*
X3122954Y-22304511D01*
X3145671Y-22309030D01*
X3169991Y-22325280D01*
X3190793Y-22334465D01*
X3205000Y-22348672D01*
X3226777Y-22363223D01*
X3241327Y-22384999D01*
X3255534Y-22399206D01*
X3264718Y-22420006D01*
X3280970Y-22444329D01*
X3285489Y-22467048D01*
X3293235Y-22484591D01*
X3299192Y-22535940D01*
X3300000Y-22540000D01*
X3300000Y-23340000D01*
X3299192Y-23344059D01*
X3293235Y-23395408D01*
X3285489Y-23412950D01*
X3280970Y-23435671D01*
X3264716Y-23459995D01*
X3255534Y-23480793D01*
X3241329Y-23494997D01*
X3226777Y-23516777D01*
X3204997Y-23531329D01*
X3190793Y-23545534D01*
X3169995Y-23554716D01*
X3145671Y-23570970D01*
X3122950Y-23575489D01*
X3105408Y-23583235D01*
X3054061Y-23589192D01*
X3050000Y-23590000D01*
X1800000Y-23590000D01*
X1795941Y-23589192D01*
X1744591Y-23583235D01*
X1727048Y-23575489D01*
X1704329Y-23570970D01*
X1680006Y-23554718D01*
X1659206Y-23545534D01*
X1644999Y-23531327D01*
X1623223Y-23516777D01*
X1608672Y-23495000D01*
X1594465Y-23480793D01*
X1585280Y-23459991D01*
X1569030Y-23435671D01*
X1564511Y-23412954D01*
X1556764Y-23395408D01*
X1550805Y-23344049D01*
X1550000Y-23340000D01*
X1550000Y-22540000D01*
X1550804Y-22535953D01*
X1556764Y-22484591D01*
X1564511Y-22467043D01*
X1569030Y-22444329D01*
X1585278Y-22420010D01*
X1594465Y-22399206D01*
X1608674Y-22384996D01*
X1623223Y-22363223D01*
X1644996Y-22348674D01*
X1659206Y-22334465D01*
X1680010Y-22325278D01*
X1704329Y-22309030D01*
X1727043Y-22304511D01*
X1744591Y-22296764D01*
X1795952Y-22290805D01*
X1800000Y-22290000D01*
X3050000Y-22290000D01*
X3054047Y-22290805D01*
G37*
G36*
X5579047Y-21355805D02*
G01*
X5630408Y-21361764D01*
X5647954Y-21369511D01*
X5670671Y-21374030D01*
X5694991Y-21390280D01*
X5715793Y-21399465D01*
X5730000Y-21413672D01*
X5751777Y-21428223D01*
X5766327Y-21449999D01*
X5780534Y-21464206D01*
X5789718Y-21485006D01*
X5805970Y-21509329D01*
X5810489Y-21532048D01*
X5818235Y-21549591D01*
X5824192Y-21600940D01*
X5825000Y-21605000D01*
X5825000Y-22855000D01*
X5824192Y-22859059D01*
X5818235Y-22910408D01*
X5810489Y-22927950D01*
X5805970Y-22950671D01*
X5789716Y-22974995D01*
X5780534Y-22995793D01*
X5766329Y-23009997D01*
X5751777Y-23031777D01*
X5729997Y-23046329D01*
X5715793Y-23060534D01*
X5694995Y-23069716D01*
X5670671Y-23085970D01*
X5647950Y-23090489D01*
X5630408Y-23098235D01*
X5579061Y-23104192D01*
X5575000Y-23105000D01*
X4775000Y-23105000D01*
X4770941Y-23104192D01*
X4719591Y-23098235D01*
X4702048Y-23090489D01*
X4679329Y-23085970D01*
X4655006Y-23069718D01*
X4634206Y-23060534D01*
X4619999Y-23046327D01*
X4598223Y-23031777D01*
X4583672Y-23010000D01*
X4569465Y-22995793D01*
X4560280Y-22974991D01*
X4544030Y-22950671D01*
X4539511Y-22927954D01*
X4531764Y-22910408D01*
X4525805Y-22859049D01*
X4525000Y-22855000D01*
X4525000Y-21605000D01*
X4525804Y-21600953D01*
X4531764Y-21549591D01*
X4539511Y-21532043D01*
X4544030Y-21509329D01*
X4560278Y-21485010D01*
X4569465Y-21464206D01*
X4583674Y-21449996D01*
X4598223Y-21428223D01*
X4619996Y-21413674D01*
X4634206Y-21399465D01*
X4655010Y-21390278D01*
X4679329Y-21374030D01*
X4702043Y-21369511D01*
X4719591Y-21361764D01*
X4770952Y-21355805D01*
X4775000Y-21355000D01*
X5575000Y-21355000D01*
X5579047Y-21355805D01*
G37*
G36*
X8679047Y-21355805D02*
G01*
X8730408Y-21361764D01*
X8747954Y-21369511D01*
X8770671Y-21374030D01*
X8794991Y-21390280D01*
X8815793Y-21399465D01*
X8830000Y-21413672D01*
X8851777Y-21428223D01*
X8866327Y-21449999D01*
X8880534Y-21464206D01*
X8889718Y-21485006D01*
X8905970Y-21509329D01*
X8910489Y-21532048D01*
X8918235Y-21549591D01*
X8924192Y-21600940D01*
X8925000Y-21605000D01*
X8925000Y-22855000D01*
X8924192Y-22859059D01*
X8918235Y-22910408D01*
X8910489Y-22927950D01*
X8905970Y-22950671D01*
X8889716Y-22974995D01*
X8880534Y-22995793D01*
X8866329Y-23009997D01*
X8851777Y-23031777D01*
X8829997Y-23046329D01*
X8815793Y-23060534D01*
X8794995Y-23069716D01*
X8770671Y-23085970D01*
X8747950Y-23090489D01*
X8730408Y-23098235D01*
X8679061Y-23104192D01*
X8675000Y-23105000D01*
X7875000Y-23105000D01*
X7870941Y-23104192D01*
X7819591Y-23098235D01*
X7802048Y-23090489D01*
X7779329Y-23085970D01*
X7755006Y-23069718D01*
X7734206Y-23060534D01*
X7719999Y-23046327D01*
X7698223Y-23031777D01*
X7683672Y-23010000D01*
X7669465Y-22995793D01*
X7660280Y-22974991D01*
X7644030Y-22950671D01*
X7639511Y-22927954D01*
X7631764Y-22910408D01*
X7625805Y-22859049D01*
X7625000Y-22855000D01*
X7625000Y-21605000D01*
X7625804Y-21600953D01*
X7631764Y-21549591D01*
X7639511Y-21532043D01*
X7644030Y-21509329D01*
X7660278Y-21485010D01*
X7669465Y-21464206D01*
X7683674Y-21449996D01*
X7698223Y-21428223D01*
X7719996Y-21413674D01*
X7734206Y-21399465D01*
X7755010Y-21390278D01*
X7779329Y-21374030D01*
X7802043Y-21369511D01*
X7819591Y-21361764D01*
X7870952Y-21355805D01*
X7875000Y-21355000D01*
X8675000Y-21355000D01*
X8679047Y-21355805D01*
G37*
G36*
X31579047Y-21355805D02*
G01*
X31630408Y-21361764D01*
X31647954Y-21369511D01*
X31670671Y-21374030D01*
X31694991Y-21390280D01*
X31715793Y-21399465D01*
X31730000Y-21413672D01*
X31751777Y-21428223D01*
X31766327Y-21449999D01*
X31780534Y-21464206D01*
X31789718Y-21485006D01*
X31805970Y-21509329D01*
X31810489Y-21532048D01*
X31818235Y-21549591D01*
X31824192Y-21600940D01*
X31825000Y-21605000D01*
X31825000Y-22855000D01*
X31824192Y-22859059D01*
X31818235Y-22910408D01*
X31810489Y-22927950D01*
X31805970Y-22950671D01*
X31789716Y-22974995D01*
X31780534Y-22995793D01*
X31766329Y-23009997D01*
X31751777Y-23031777D01*
X31729997Y-23046329D01*
X31715793Y-23060534D01*
X31694995Y-23069716D01*
X31670671Y-23085970D01*
X31647950Y-23090489D01*
X31630408Y-23098235D01*
X31579061Y-23104192D01*
X31575000Y-23105000D01*
X30775000Y-23105000D01*
X30770941Y-23104192D01*
X30719591Y-23098235D01*
X30702048Y-23090489D01*
X30679329Y-23085970D01*
X30655006Y-23069718D01*
X30634206Y-23060534D01*
X30619999Y-23046327D01*
X30598223Y-23031777D01*
X30583672Y-23010000D01*
X30569465Y-22995793D01*
X30560280Y-22974991D01*
X30544030Y-22950671D01*
X30539511Y-22927954D01*
X30531764Y-22910408D01*
X30525805Y-22859049D01*
X30525000Y-22855000D01*
X30525000Y-21605000D01*
X30525804Y-21600953D01*
X30531764Y-21549591D01*
X30539511Y-21532043D01*
X30544030Y-21509329D01*
X30560278Y-21485010D01*
X30569465Y-21464206D01*
X30583674Y-21449996D01*
X30598223Y-21428223D01*
X30619996Y-21413674D01*
X30634206Y-21399465D01*
X30655010Y-21390278D01*
X30679329Y-21374030D01*
X30702043Y-21369511D01*
X30719591Y-21361764D01*
X30770952Y-21355805D01*
X30775000Y-21355000D01*
X31575000Y-21355000D01*
X31579047Y-21355805D01*
G37*
G36*
X34679047Y-21355805D02*
G01*
X34730408Y-21361764D01*
X34747954Y-21369511D01*
X34770671Y-21374030D01*
X34794991Y-21390280D01*
X34815793Y-21399465D01*
X34830000Y-21413672D01*
X34851777Y-21428223D01*
X34866327Y-21449999D01*
X34880534Y-21464206D01*
X34889718Y-21485006D01*
X34905970Y-21509329D01*
X34910489Y-21532048D01*
X34918235Y-21549591D01*
X34924192Y-21600940D01*
X34925000Y-21605000D01*
X34925000Y-22855000D01*
X34924192Y-22859059D01*
X34918235Y-22910408D01*
X34910489Y-22927950D01*
X34905970Y-22950671D01*
X34889716Y-22974995D01*
X34880534Y-22995793D01*
X34866329Y-23009997D01*
X34851777Y-23031777D01*
X34829997Y-23046329D01*
X34815793Y-23060534D01*
X34794995Y-23069716D01*
X34770671Y-23085970D01*
X34747950Y-23090489D01*
X34730408Y-23098235D01*
X34679061Y-23104192D01*
X34675000Y-23105000D01*
X33875000Y-23105000D01*
X33870941Y-23104192D01*
X33819591Y-23098235D01*
X33802048Y-23090489D01*
X33779329Y-23085970D01*
X33755006Y-23069718D01*
X33734206Y-23060534D01*
X33719999Y-23046327D01*
X33698223Y-23031777D01*
X33683672Y-23010000D01*
X33669465Y-22995793D01*
X33660280Y-22974991D01*
X33644030Y-22950671D01*
X33639511Y-22927954D01*
X33631764Y-22910408D01*
X33625805Y-22859049D01*
X33625000Y-22855000D01*
X33625000Y-21605000D01*
X33625804Y-21600953D01*
X33631764Y-21549591D01*
X33639511Y-21532043D01*
X33644030Y-21509329D01*
X33660278Y-21485010D01*
X33669465Y-21464206D01*
X33683674Y-21449996D01*
X33698223Y-21428223D01*
X33719996Y-21413674D01*
X33734206Y-21399465D01*
X33755010Y-21390278D01*
X33779329Y-21374030D01*
X33802043Y-21369511D01*
X33819591Y-21361764D01*
X33870952Y-21355805D01*
X33875000Y-21355000D01*
X34675000Y-21355000D01*
X34679047Y-21355805D01*
G37*
G36*
X11907403Y-21941418D02*
G01*
X11956066Y-21973934D01*
X11988582Y-22022597D01*
X12000000Y-22080000D01*
X12000000Y-22380000D01*
X11988582Y-22437403D01*
X11956066Y-22486066D01*
X11907403Y-22518582D01*
X11850000Y-22530000D01*
X10200000Y-22530000D01*
X10142597Y-22518582D01*
X10093934Y-22486066D01*
X10061418Y-22437403D01*
X10050000Y-22380000D01*
X10050000Y-22080000D01*
X10061418Y-22022597D01*
X10093934Y-21973934D01*
X10142597Y-21941418D01*
X10200000Y-21930000D01*
X11850000Y-21930000D01*
X11907403Y-21941418D01*
G37*
G36*
X16857403Y-21941418D02*
G01*
X16906066Y-21973934D01*
X16938582Y-22022597D01*
X16950000Y-22080000D01*
X16950000Y-22380000D01*
X16938582Y-22437403D01*
X16906066Y-22486066D01*
X16857403Y-22518582D01*
X16800000Y-22530000D01*
X15150000Y-22530000D01*
X15092597Y-22518582D01*
X15043934Y-22486066D01*
X15011418Y-22437403D01*
X15000000Y-22380000D01*
X15000000Y-22080000D01*
X15011418Y-22022597D01*
X15043934Y-21973934D01*
X15092597Y-21941418D01*
X15150000Y-21930000D01*
X16800000Y-21930000D01*
X16857403Y-21941418D01*
G37*
G36*
X37907403Y-21941418D02*
G01*
X37956066Y-21973934D01*
X37988582Y-22022597D01*
X38000000Y-22080000D01*
X38000000Y-22380000D01*
X37988582Y-22437403D01*
X37956066Y-22486066D01*
X37907403Y-22518582D01*
X37850000Y-22530000D01*
X36200000Y-22530000D01*
X36142597Y-22518582D01*
X36093934Y-22486066D01*
X36061418Y-22437403D01*
X36050000Y-22380000D01*
X36050000Y-22080000D01*
X36061418Y-22022597D01*
X36093934Y-21973934D01*
X36142597Y-21941418D01*
X36200000Y-21930000D01*
X37850000Y-21930000D01*
X37907403Y-21941418D01*
G37*
G36*
X42857403Y-21941418D02*
G01*
X42906066Y-21973934D01*
X42938582Y-22022597D01*
X42950000Y-22080000D01*
X42950000Y-22380000D01*
X42938582Y-22437403D01*
X42906066Y-22486066D01*
X42857403Y-22518582D01*
X42800000Y-22530000D01*
X41150000Y-22530000D01*
X41092597Y-22518582D01*
X41043934Y-22486066D01*
X41011418Y-22437403D01*
X41000000Y-22380000D01*
X41000000Y-22080000D01*
X41011418Y-22022597D01*
X41043934Y-21973934D01*
X41092597Y-21941418D01*
X41150000Y-21930000D01*
X42800000Y-21930000D01*
X42857403Y-21941418D01*
G37*
G36*
X11907403Y-20671418D02*
G01*
X11956066Y-20703934D01*
X11988582Y-20752597D01*
X12000000Y-20810000D01*
X12000000Y-21110000D01*
X11988582Y-21167403D01*
X11956066Y-21216066D01*
X11907403Y-21248582D01*
X11850000Y-21260000D01*
X10200000Y-21260000D01*
X10142597Y-21248582D01*
X10093934Y-21216066D01*
X10061418Y-21167403D01*
X10050000Y-21110000D01*
X10050000Y-20810000D01*
X10061418Y-20752597D01*
X10093934Y-20703934D01*
X10142597Y-20671418D01*
X10200000Y-20660000D01*
X11850000Y-20660000D01*
X11907403Y-20671418D01*
G37*
G36*
X16857403Y-20671418D02*
G01*
X16906066Y-20703934D01*
X16938582Y-20752597D01*
X16950000Y-20810000D01*
X16950000Y-21110000D01*
X16938582Y-21167403D01*
X16906066Y-21216066D01*
X16857403Y-21248582D01*
X16800000Y-21260000D01*
X15150000Y-21260000D01*
X15092597Y-21248582D01*
X15043934Y-21216066D01*
X15011418Y-21167403D01*
X15000000Y-21110000D01*
X15000000Y-20810000D01*
X15011418Y-20752597D01*
X15043934Y-20703934D01*
X15092597Y-20671418D01*
X15150000Y-20660000D01*
X16800000Y-20660000D01*
X16857403Y-20671418D01*
G37*
G36*
X37907403Y-20671418D02*
G01*
X37956066Y-20703934D01*
X37988582Y-20752597D01*
X38000000Y-20810000D01*
X38000000Y-21110000D01*
X37988582Y-21167403D01*
X37956066Y-21216066D01*
X37907403Y-21248582D01*
X37850000Y-21260000D01*
X36200000Y-21260000D01*
X36142597Y-21248582D01*
X36093934Y-21216066D01*
X36061418Y-21167403D01*
X36050000Y-21110000D01*
X36050000Y-20810000D01*
X36061418Y-20752597D01*
X36093934Y-20703934D01*
X36142597Y-20671418D01*
X36200000Y-20660000D01*
X37850000Y-20660000D01*
X37907403Y-20671418D01*
G37*
G36*
X42857403Y-20671418D02*
G01*
X42906066Y-20703934D01*
X42938582Y-20752597D01*
X42950000Y-20810000D01*
X42950000Y-21110000D01*
X42938582Y-21167403D01*
X42906066Y-21216066D01*
X42857403Y-21248582D01*
X42800000Y-21260000D01*
X41150000Y-21260000D01*
X41092597Y-21248582D01*
X41043934Y-21216066D01*
X41011418Y-21167403D01*
X41000000Y-21110000D01*
X41000000Y-20810000D01*
X41011418Y-20752597D01*
X41043934Y-20703934D01*
X41092597Y-20671418D01*
X41150000Y-20660000D01*
X42800000Y-20660000D01*
X42857403Y-20671418D01*
G37*
G36*
X5579047Y-18335805D02*
G01*
X5630408Y-18341764D01*
X5647954Y-18349511D01*
X5670671Y-18354030D01*
X5694991Y-18370280D01*
X5715793Y-18379465D01*
X5730000Y-18393672D01*
X5751777Y-18408223D01*
X5766327Y-18429999D01*
X5780534Y-18444206D01*
X5789718Y-18465006D01*
X5805970Y-18489329D01*
X5810489Y-18512048D01*
X5818235Y-18529591D01*
X5824192Y-18580940D01*
X5825000Y-18585000D01*
X5825000Y-19835000D01*
X5824192Y-19839059D01*
X5818235Y-19890408D01*
X5810489Y-19907950D01*
X5805970Y-19930671D01*
X5789716Y-19954995D01*
X5780534Y-19975793D01*
X5766329Y-19989997D01*
X5751777Y-20011777D01*
X5729997Y-20026329D01*
X5715793Y-20040534D01*
X5694995Y-20049716D01*
X5670671Y-20065970D01*
X5647950Y-20070489D01*
X5630408Y-20078235D01*
X5579061Y-20084192D01*
X5575000Y-20085000D01*
X4775000Y-20085000D01*
X4770941Y-20084192D01*
X4719591Y-20078235D01*
X4702048Y-20070489D01*
X4679329Y-20065970D01*
X4655006Y-20049718D01*
X4634206Y-20040534D01*
X4619999Y-20026327D01*
X4598223Y-20011777D01*
X4583671Y-19989999D01*
X4569465Y-19975793D01*
X4560280Y-19954991D01*
X4544030Y-19930671D01*
X4539511Y-19907954D01*
X4531764Y-19890408D01*
X4525805Y-19839049D01*
X4525000Y-19835000D01*
X4525000Y-18585000D01*
X4525804Y-18580953D01*
X4531764Y-18529591D01*
X4539511Y-18512043D01*
X4544030Y-18489329D01*
X4560278Y-18465010D01*
X4569465Y-18444206D01*
X4583674Y-18429996D01*
X4598223Y-18408223D01*
X4619996Y-18393674D01*
X4634206Y-18379465D01*
X4655010Y-18370278D01*
X4679329Y-18354030D01*
X4702043Y-18349511D01*
X4719591Y-18341764D01*
X4770952Y-18335805D01*
X4775000Y-18335000D01*
X5575000Y-18335000D01*
X5579047Y-18335805D01*
G37*
G36*
X8679047Y-18335805D02*
G01*
X8730408Y-18341764D01*
X8747954Y-18349511D01*
X8770671Y-18354030D01*
X8794991Y-18370280D01*
X8815793Y-18379465D01*
X8830000Y-18393672D01*
X8851777Y-18408223D01*
X8866327Y-18429999D01*
X8880534Y-18444206D01*
X8889718Y-18465006D01*
X8905970Y-18489329D01*
X8910489Y-18512048D01*
X8918235Y-18529591D01*
X8924192Y-18580940D01*
X8925000Y-18585000D01*
X8925000Y-19835000D01*
X8924192Y-19839059D01*
X8918235Y-19890408D01*
X8910489Y-19907950D01*
X8905970Y-19930671D01*
X8889716Y-19954995D01*
X8880534Y-19975793D01*
X8866329Y-19989997D01*
X8851777Y-20011777D01*
X8829997Y-20026329D01*
X8815793Y-20040534D01*
X8794995Y-20049716D01*
X8770671Y-20065970D01*
X8747950Y-20070489D01*
X8730408Y-20078235D01*
X8679061Y-20084192D01*
X8675000Y-20085000D01*
X7875000Y-20085000D01*
X7870941Y-20084192D01*
X7819591Y-20078235D01*
X7802048Y-20070489D01*
X7779329Y-20065970D01*
X7755006Y-20049718D01*
X7734206Y-20040534D01*
X7719999Y-20026327D01*
X7698223Y-20011777D01*
X7683671Y-19989999D01*
X7669465Y-19975793D01*
X7660280Y-19954991D01*
X7644030Y-19930671D01*
X7639511Y-19907954D01*
X7631764Y-19890408D01*
X7625805Y-19839049D01*
X7625000Y-19835000D01*
X7625000Y-18585000D01*
X7625804Y-18580953D01*
X7631764Y-18529591D01*
X7639511Y-18512043D01*
X7644030Y-18489329D01*
X7660278Y-18465010D01*
X7669465Y-18444206D01*
X7683674Y-18429996D01*
X7698223Y-18408223D01*
X7719996Y-18393674D01*
X7734206Y-18379465D01*
X7755010Y-18370278D01*
X7779329Y-18354030D01*
X7802043Y-18349511D01*
X7819591Y-18341764D01*
X7870952Y-18335805D01*
X7875000Y-18335000D01*
X8675000Y-18335000D01*
X8679047Y-18335805D01*
G37*
G36*
X11907403Y-19401418D02*
G01*
X11956066Y-19433934D01*
X11988582Y-19482597D01*
X12000000Y-19540000D01*
X12000000Y-19840000D01*
X11988582Y-19897403D01*
X11956066Y-19946066D01*
X11907403Y-19978582D01*
X11850000Y-19990000D01*
X10200000Y-19990000D01*
X10142597Y-19978582D01*
X10093934Y-19946066D01*
X10061418Y-19897403D01*
X10050000Y-19840000D01*
X10050000Y-19540000D01*
X10061418Y-19482597D01*
X10093934Y-19433934D01*
X10142597Y-19401418D01*
X10200000Y-19390000D01*
X11850000Y-19390000D01*
X11907403Y-19401418D01*
G37*
G36*
X16857403Y-19401418D02*
G01*
X16906066Y-19433934D01*
X16938582Y-19482597D01*
X16950000Y-19540000D01*
X16950000Y-19840000D01*
X16938582Y-19897403D01*
X16906066Y-19946066D01*
X16857403Y-19978582D01*
X16800000Y-19990000D01*
X15150000Y-19990000D01*
X15092597Y-19978582D01*
X15043934Y-19946066D01*
X15011418Y-19897403D01*
X15000000Y-19840000D01*
X15000000Y-19540000D01*
X15011418Y-19482597D01*
X15043934Y-19433934D01*
X15092597Y-19401418D01*
X15150000Y-19390000D01*
X16800000Y-19390000D01*
X16857403Y-19401418D01*
G37*
G36*
X37907403Y-19401418D02*
G01*
X37956066Y-19433934D01*
X37988582Y-19482597D01*
X38000000Y-19540000D01*
X38000000Y-19840000D01*
X37988582Y-19897403D01*
X37956066Y-19946066D01*
X37907403Y-19978582D01*
X37850000Y-19990000D01*
X36200000Y-19990000D01*
X36142597Y-19978582D01*
X36093934Y-19946066D01*
X36061418Y-19897403D01*
X36050000Y-19840000D01*
X36050000Y-19540000D01*
X36061418Y-19482597D01*
X36093934Y-19433934D01*
X36142597Y-19401418D01*
X36200000Y-19390000D01*
X37850000Y-19390000D01*
X37907403Y-19401418D01*
G37*
G36*
X42857403Y-19401418D02*
G01*
X42906066Y-19433934D01*
X42938582Y-19482597D01*
X42950000Y-19540000D01*
X42950000Y-19840000D01*
X42938582Y-19897403D01*
X42906066Y-19946066D01*
X42857403Y-19978582D01*
X42800000Y-19990000D01*
X41150000Y-19990000D01*
X41092597Y-19978582D01*
X41043934Y-19946066D01*
X41011418Y-19897403D01*
X41000000Y-19840000D01*
X41000000Y-19540000D01*
X41011418Y-19482597D01*
X41043934Y-19433934D01*
X41092597Y-19401418D01*
X41150000Y-19390000D01*
X42800000Y-19390000D01*
X42857403Y-19401418D01*
G37*
G36*
X43379047Y-16778805D02*
G01*
X43430408Y-16784764D01*
X43447954Y-16792511D01*
X43470671Y-16797030D01*
X43494991Y-16813280D01*
X43515793Y-16822465D01*
X43530000Y-16836672D01*
X43551777Y-16851223D01*
X43566327Y-16872999D01*
X43580534Y-16887206D01*
X43589718Y-16908006D01*
X43605970Y-16932329D01*
X43610489Y-16955048D01*
X43618235Y-16972591D01*
X43624192Y-17023940D01*
X43625000Y-17028000D01*
X43625000Y-17853000D01*
X43624192Y-17857059D01*
X43618235Y-17908408D01*
X43610489Y-17925950D01*
X43605970Y-17948671D01*
X43589716Y-17972995D01*
X43580534Y-17993793D01*
X43566329Y-18007997D01*
X43551777Y-18029777D01*
X43529997Y-18044329D01*
X43515793Y-18058534D01*
X43494995Y-18067716D01*
X43470671Y-18083970D01*
X43447950Y-18088489D01*
X43430408Y-18096235D01*
X43379061Y-18102192D01*
X43375000Y-18103000D01*
X42075000Y-18103000D01*
X42070941Y-18102192D01*
X42019591Y-18096235D01*
X42002048Y-18088489D01*
X41979329Y-18083970D01*
X41955006Y-18067718D01*
X41934206Y-18058534D01*
X41919999Y-18044327D01*
X41898223Y-18029777D01*
X41883672Y-18008000D01*
X41869465Y-17993793D01*
X41860280Y-17972991D01*
X41844030Y-17948671D01*
X41839511Y-17925954D01*
X41831764Y-17908408D01*
X41825805Y-17857049D01*
X41825000Y-17853000D01*
X41825000Y-17028000D01*
X41825804Y-17023953D01*
X41831764Y-16972591D01*
X41839511Y-16955043D01*
X41844030Y-16932329D01*
X41860278Y-16908010D01*
X41869465Y-16887206D01*
X41883674Y-16872996D01*
X41898223Y-16851223D01*
X41919996Y-16836674D01*
X41934206Y-16822465D01*
X41955010Y-16813278D01*
X41979329Y-16797030D01*
X42002043Y-16792511D01*
X42019591Y-16784764D01*
X42070952Y-16778805D01*
X42075000Y-16778000D01*
X43375000Y-16778000D01*
X43379047Y-16778805D01*
G37*
G36*
X16392047Y-16290805D02*
G01*
X16443408Y-16296764D01*
X16460954Y-16304511D01*
X16483671Y-16309030D01*
X16507991Y-16325280D01*
X16528793Y-16334465D01*
X16543000Y-16348672D01*
X16564777Y-16363223D01*
X16579327Y-16384999D01*
X16593534Y-16399206D01*
X16602718Y-16420006D01*
X16618970Y-16444329D01*
X16623489Y-16467048D01*
X16631235Y-16484591D01*
X16637192Y-16535940D01*
X16638000Y-16540000D01*
X16638000Y-17840000D01*
X16637192Y-17844059D01*
X16631235Y-17895408D01*
X16623489Y-17912950D01*
X16618970Y-17935671D01*
X16602716Y-17959995D01*
X16593534Y-17980793D01*
X16579329Y-17994997D01*
X16564777Y-18016777D01*
X16542997Y-18031329D01*
X16528793Y-18045534D01*
X16507995Y-18054716D01*
X16483671Y-18070970D01*
X16460950Y-18075489D01*
X16443408Y-18083235D01*
X16392061Y-18089192D01*
X16388000Y-18090000D01*
X15563000Y-18090000D01*
X15558941Y-18089192D01*
X15507591Y-18083235D01*
X15490048Y-18075489D01*
X15467329Y-18070970D01*
X15443006Y-18054718D01*
X15422206Y-18045534D01*
X15407999Y-18031327D01*
X15386223Y-18016777D01*
X15371672Y-17995000D01*
X15357465Y-17980793D01*
X15348280Y-17959991D01*
X15332030Y-17935671D01*
X15327511Y-17912954D01*
X15319764Y-17895408D01*
X15313805Y-17844049D01*
X15313000Y-17840000D01*
X15313000Y-16540000D01*
X15313804Y-16535953D01*
X15319764Y-16484591D01*
X15327511Y-16467043D01*
X15332030Y-16444329D01*
X15348278Y-16420010D01*
X15357465Y-16399206D01*
X15371674Y-16384996D01*
X15386223Y-16363223D01*
X15407996Y-16348674D01*
X15422206Y-16334465D01*
X15443010Y-16325278D01*
X15467329Y-16309030D01*
X15490043Y-16304511D01*
X15507591Y-16296764D01*
X15558952Y-16290805D01*
X15563000Y-16290000D01*
X16388000Y-16290000D01*
X16392047Y-16290805D01*
G37*
G36*
X19517047Y-16290805D02*
G01*
X19568408Y-16296764D01*
X19585954Y-16304511D01*
X19608671Y-16309030D01*
X19632991Y-16325280D01*
X19653793Y-16334465D01*
X19668000Y-16348672D01*
X19689777Y-16363223D01*
X19704327Y-16384999D01*
X19718534Y-16399206D01*
X19727718Y-16420006D01*
X19743970Y-16444329D01*
X19748489Y-16467048D01*
X19756235Y-16484591D01*
X19762192Y-16535940D01*
X19763000Y-16540000D01*
X19763000Y-17840000D01*
X19762192Y-17844059D01*
X19756235Y-17895408D01*
X19748489Y-17912950D01*
X19743970Y-17935671D01*
X19727716Y-17959995D01*
X19718534Y-17980793D01*
X19704329Y-17994997D01*
X19689777Y-18016777D01*
X19667997Y-18031329D01*
X19653793Y-18045534D01*
X19632995Y-18054716D01*
X19608671Y-18070970D01*
X19585950Y-18075489D01*
X19568408Y-18083235D01*
X19517061Y-18089192D01*
X19513000Y-18090000D01*
X18688000Y-18090000D01*
X18683941Y-18089192D01*
X18632591Y-18083235D01*
X18615048Y-18075489D01*
X18592329Y-18070970D01*
X18568006Y-18054718D01*
X18547206Y-18045534D01*
X18532999Y-18031327D01*
X18511223Y-18016777D01*
X18496672Y-17995000D01*
X18482465Y-17980793D01*
X18473280Y-17959991D01*
X18457030Y-17935671D01*
X18452511Y-17912954D01*
X18444764Y-17895408D01*
X18438805Y-17844049D01*
X18438000Y-17840000D01*
X18438000Y-16540000D01*
X18438804Y-16535953D01*
X18444764Y-16484591D01*
X18452511Y-16467043D01*
X18457030Y-16444329D01*
X18473278Y-16420010D01*
X18482465Y-16399206D01*
X18496674Y-16384996D01*
X18511223Y-16363223D01*
X18532996Y-16348674D01*
X18547206Y-16334465D01*
X18568010Y-16325278D01*
X18592329Y-16309030D01*
X18615043Y-16304511D01*
X18632591Y-16296764D01*
X18683952Y-16290805D01*
X18688000Y-16290000D01*
X19513000Y-16290000D01*
X19517047Y-16290805D01*
G37*
G36*
X43379047Y-13653805D02*
G01*
X43430408Y-13659764D01*
X43447954Y-13667511D01*
X43470671Y-13672030D01*
X43494991Y-13688280D01*
X43515793Y-13697465D01*
X43530000Y-13711672D01*
X43551777Y-13726223D01*
X43566327Y-13747999D01*
X43580534Y-13762206D01*
X43589718Y-13783006D01*
X43605970Y-13807329D01*
X43610489Y-13830048D01*
X43618235Y-13847591D01*
X43624192Y-13898940D01*
X43625000Y-13903000D01*
X43625000Y-14728000D01*
X43624192Y-14732059D01*
X43618235Y-14783408D01*
X43610489Y-14800950D01*
X43605970Y-14823671D01*
X43589716Y-14847995D01*
X43580534Y-14868793D01*
X43566329Y-14882997D01*
X43551777Y-14904777D01*
X43529997Y-14919329D01*
X43515793Y-14933534D01*
X43494995Y-14942716D01*
X43470671Y-14958970D01*
X43447950Y-14963489D01*
X43430408Y-14971235D01*
X43379061Y-14977192D01*
X43375000Y-14978000D01*
X42075000Y-14978000D01*
X42070941Y-14977192D01*
X42019591Y-14971235D01*
X42002048Y-14963489D01*
X41979329Y-14958970D01*
X41955006Y-14942718D01*
X41934206Y-14933534D01*
X41919999Y-14919327D01*
X41898223Y-14904777D01*
X41883672Y-14883000D01*
X41869465Y-14868793D01*
X41860280Y-14847991D01*
X41844030Y-14823671D01*
X41839511Y-14800954D01*
X41831764Y-14783408D01*
X41825805Y-14732049D01*
X41825000Y-14728000D01*
X41825000Y-13903000D01*
X41825804Y-13898953D01*
X41831764Y-13847591D01*
X41839511Y-13830043D01*
X41844030Y-13807329D01*
X41860278Y-13783010D01*
X41869465Y-13762206D01*
X41883674Y-13747996D01*
X41898223Y-13726223D01*
X41919996Y-13711674D01*
X41934206Y-13697465D01*
X41955010Y-13688278D01*
X41979329Y-13672030D01*
X42002043Y-13667511D01*
X42019591Y-13659764D01*
X42070952Y-13653805D01*
X42075000Y-13653000D01*
X43375000Y-13653000D01*
X43379047Y-13653805D01*
G37*
G36*
X18214047Y-12480805D02*
G01*
X18265408Y-12486764D01*
X18282954Y-12494511D01*
X18305671Y-12499030D01*
X18329991Y-12515280D01*
X18350793Y-12524465D01*
X18365000Y-12538672D01*
X18386777Y-12553223D01*
X18401327Y-12574999D01*
X18415534Y-12589206D01*
X18424718Y-12610006D01*
X18440970Y-12634329D01*
X18445489Y-12657048D01*
X18453235Y-12674591D01*
X18459192Y-12725940D01*
X18460000Y-12730000D01*
X18460000Y-13930000D01*
X18459192Y-13934059D01*
X18453235Y-13985408D01*
X18445489Y-14002950D01*
X18440970Y-14025671D01*
X18424716Y-14049995D01*
X18415534Y-14070793D01*
X18401329Y-14084997D01*
X18386777Y-14106777D01*
X18364997Y-14121329D01*
X18350793Y-14135534D01*
X18329995Y-14144716D01*
X18305671Y-14160970D01*
X18282950Y-14165489D01*
X18265408Y-14173235D01*
X18214061Y-14179192D01*
X18210000Y-14180000D01*
X17010000Y-14180000D01*
X17005941Y-14179192D01*
X16954591Y-14173235D01*
X16937048Y-14165489D01*
X16914329Y-14160970D01*
X16890006Y-14144718D01*
X16869206Y-14135534D01*
X16854999Y-14121327D01*
X16833223Y-14106777D01*
X16818672Y-14085000D01*
X16804465Y-14070793D01*
X16795280Y-14049991D01*
X16779030Y-14025671D01*
X16774511Y-14002954D01*
X16766764Y-13985408D01*
X16760805Y-13934049D01*
X16760000Y-13930000D01*
X16760000Y-12730000D01*
X16760804Y-12725953D01*
X16766764Y-12674591D01*
X16774511Y-12657043D01*
X16779030Y-12634329D01*
X16795278Y-12610010D01*
X16804465Y-12589206D01*
X16818674Y-12574996D01*
X16833223Y-12553223D01*
X16854996Y-12538674D01*
X16869206Y-12524465D01*
X16890010Y-12515278D01*
X16914329Y-12499030D01*
X16937043Y-12494511D01*
X16954591Y-12486764D01*
X17005952Y-12480805D01*
X17010000Y-12480000D01*
X18210000Y-12480000D01*
X18214047Y-12480805D01*
G37*
G36*
X20396742Y-12516601D02*
G01*
X20550687Y-12580367D01*
X20689234Y-12672941D01*
X20807059Y-12790766D01*
X20899633Y-12929313D01*
X20963399Y-13083258D01*
X20995907Y-13246685D01*
X20995907Y-13413315D01*
X20963399Y-13576742D01*
X20899633Y-13730687D01*
X20807059Y-13869234D01*
X20689234Y-13987059D01*
X20550687Y-14079633D01*
X20396742Y-14143399D01*
X20233315Y-14175907D01*
X20066685Y-14175907D01*
X19903258Y-14143399D01*
X19749313Y-14079633D01*
X19610766Y-13987059D01*
X19492941Y-13869234D01*
X19400367Y-13730687D01*
X19336601Y-13576742D01*
X19304093Y-13413315D01*
X19304093Y-13246685D01*
X19336601Y-13083258D01*
X19400367Y-12929313D01*
X19492941Y-12790766D01*
X19610766Y-12672941D01*
X19749313Y-12580367D01*
X19903258Y-12516601D01*
X20066685Y-12484093D01*
X20233315Y-12484093D01*
X20396742Y-12516601D01*
G37*
G36*
X22936742Y-12516601D02*
G01*
X23090687Y-12580367D01*
X23229234Y-12672941D01*
X23347059Y-12790766D01*
X23439633Y-12929313D01*
X23503399Y-13083258D01*
X23535907Y-13246685D01*
X23535907Y-13413315D01*
X23503399Y-13576742D01*
X23439633Y-13730687D01*
X23347059Y-13869234D01*
X23229234Y-13987059D01*
X23090687Y-14079633D01*
X22936742Y-14143399D01*
X22773315Y-14175907D01*
X22606685Y-14175907D01*
X22443258Y-14143399D01*
X22289313Y-14079633D01*
X22150766Y-13987059D01*
X22032941Y-13869234D01*
X21940367Y-13730687D01*
X21876601Y-13576742D01*
X21844093Y-13413315D01*
X21844093Y-13246685D01*
X21876601Y-13083258D01*
X21940367Y-12929313D01*
X22032941Y-12790766D01*
X22150766Y-12672941D01*
X22289313Y-12580367D01*
X22443258Y-12516601D01*
X22606685Y-12484093D01*
X22773315Y-12484093D01*
X22936742Y-12516601D01*
G37*
G36*
X25476742Y-12516601D02*
G01*
X25630687Y-12580367D01*
X25769234Y-12672941D01*
X25887059Y-12790766D01*
X25979633Y-12929313D01*
X26043399Y-13083258D01*
X26075907Y-13246685D01*
X26075907Y-13413315D01*
X26043399Y-13576742D01*
X25979633Y-13730687D01*
X25887059Y-13869234D01*
X25769234Y-13987059D01*
X25630687Y-14079633D01*
X25476742Y-14143399D01*
X25313315Y-14175907D01*
X25146685Y-14175907D01*
X24983258Y-14143399D01*
X24829313Y-14079633D01*
X24690766Y-13987059D01*
X24572941Y-13869234D01*
X24480367Y-13730687D01*
X24416601Y-13576742D01*
X24384093Y-13413315D01*
X24384093Y-13246685D01*
X24416601Y-13083258D01*
X24480367Y-12929313D01*
X24572941Y-12790766D01*
X24690766Y-12672941D01*
X24829313Y-12580367D01*
X24983258Y-12516601D01*
X25146685Y-12484093D01*
X25313315Y-12484093D01*
X25476742Y-12516601D01*
G37*
G36*
X28016742Y-12516601D02*
G01*
X28170687Y-12580367D01*
X28309234Y-12672941D01*
X28427059Y-12790766D01*
X28519633Y-12929313D01*
X28583399Y-13083258D01*
X28615907Y-13246685D01*
X28615907Y-13413315D01*
X28583399Y-13576742D01*
X28519633Y-13730687D01*
X28427059Y-13869234D01*
X28309234Y-13987059D01*
X28170687Y-14079633D01*
X28016742Y-14143399D01*
X27853315Y-14175907D01*
X27686685Y-14175907D01*
X27523258Y-14143399D01*
X27369313Y-14079633D01*
X27230766Y-13987059D01*
X27112941Y-13869234D01*
X27020367Y-13730687D01*
X26956601Y-13576742D01*
X26924093Y-13413315D01*
X26924093Y-13246685D01*
X26956601Y-13083258D01*
X27020367Y-12929313D01*
X27112941Y-12790766D01*
X27230766Y-12672941D01*
X27369313Y-12580367D01*
X27523258Y-12516601D01*
X27686685Y-12484093D01*
X27853315Y-12484093D01*
X28016742Y-12516601D01*
G37*
G36*
X30556742Y-12516601D02*
G01*
X30710687Y-12580367D01*
X30849234Y-12672941D01*
X30967059Y-12790766D01*
X31059633Y-12929313D01*
X31123399Y-13083258D01*
X31155907Y-13246685D01*
X31155907Y-13413315D01*
X31123399Y-13576742D01*
X31059633Y-13730687D01*
X30967059Y-13869234D01*
X30849234Y-13987059D01*
X30710687Y-14079633D01*
X30556742Y-14143399D01*
X30393315Y-14175907D01*
X30226685Y-14175907D01*
X30063258Y-14143399D01*
X29909313Y-14079633D01*
X29770766Y-13987059D01*
X29652941Y-13869234D01*
X29560367Y-13730687D01*
X29496601Y-13576742D01*
X29464093Y-13413315D01*
X29464093Y-13246685D01*
X29496601Y-13083258D01*
X29560367Y-12929313D01*
X29652941Y-12790766D01*
X29770766Y-12672941D01*
X29909313Y-12580367D01*
X30063258Y-12516601D01*
X30226685Y-12484093D01*
X30393315Y-12484093D01*
X30556742Y-12516601D01*
G37*
G36*
X33096742Y-12516601D02*
G01*
X33250687Y-12580367D01*
X33389234Y-12672941D01*
X33507059Y-12790766D01*
X33599633Y-12929313D01*
X33663399Y-13083258D01*
X33695907Y-13246685D01*
X33695907Y-13413315D01*
X33663399Y-13576742D01*
X33599633Y-13730687D01*
X33507059Y-13869234D01*
X33389234Y-13987059D01*
X33250687Y-14079633D01*
X33096742Y-14143399D01*
X32933315Y-14175907D01*
X32766685Y-14175907D01*
X32603258Y-14143399D01*
X32449313Y-14079633D01*
X32310766Y-13987059D01*
X32192941Y-13869234D01*
X32100367Y-13730687D01*
X32036601Y-13576742D01*
X32004093Y-13413315D01*
X32004093Y-13246685D01*
X32036601Y-13083258D01*
X32100367Y-12929313D01*
X32192941Y-12790766D01*
X32310766Y-12672941D01*
X32449313Y-12580367D01*
X32603258Y-12516601D01*
X32766685Y-12484093D01*
X32933315Y-12484093D01*
X33096742Y-12516601D01*
G37*
G36*
X35636742Y-12516601D02*
G01*
X35790687Y-12580367D01*
X35929234Y-12672941D01*
X36047059Y-12790766D01*
X36139633Y-12929313D01*
X36203399Y-13083258D01*
X36235907Y-13246685D01*
X36235907Y-13413315D01*
X36203399Y-13576742D01*
X36139633Y-13730687D01*
X36047059Y-13869234D01*
X35929234Y-13987059D01*
X35790687Y-14079633D01*
X35636742Y-14143399D01*
X35473315Y-14175907D01*
X35306685Y-14175907D01*
X35143258Y-14143399D01*
X34989313Y-14079633D01*
X34850766Y-13987059D01*
X34732941Y-13869234D01*
X34640367Y-13730687D01*
X34576601Y-13576742D01*
X34544093Y-13413315D01*
X34544093Y-13246685D01*
X34576601Y-13083258D01*
X34640367Y-12929313D01*
X34732941Y-12790766D01*
X34850766Y-12672941D01*
X34989313Y-12580367D01*
X35143258Y-12516601D01*
X35306685Y-12484093D01*
X35473315Y-12484093D01*
X35636742Y-12516601D01*
G37*
G36*
X17856742Y-9976601D02*
G01*
X18010687Y-10040367D01*
X18149234Y-10132941D01*
X18267059Y-10250766D01*
X18359633Y-10389313D01*
X18423399Y-10543258D01*
X18455907Y-10706685D01*
X18455907Y-10873315D01*
X18423399Y-11036742D01*
X18359633Y-11190687D01*
X18267059Y-11329234D01*
X18149234Y-11447059D01*
X18010687Y-11539633D01*
X17856742Y-11603399D01*
X17693315Y-11635907D01*
X17526685Y-11635907D01*
X17363258Y-11603399D01*
X17209313Y-11539633D01*
X17070766Y-11447059D01*
X16952941Y-11329234D01*
X16860367Y-11190687D01*
X16796601Y-11036742D01*
X16764093Y-10873315D01*
X16764093Y-10706685D01*
X16796601Y-10543258D01*
X16860367Y-10389313D01*
X16952941Y-10250766D01*
X17070766Y-10132941D01*
X17209313Y-10040367D01*
X17363258Y-9976601D01*
X17526685Y-9944093D01*
X17693315Y-9944093D01*
X17856742Y-9976601D01*
G37*
G36*
X20396742Y-9976601D02*
G01*
X20550687Y-10040367D01*
X20689234Y-10132941D01*
X20807059Y-10250766D01*
X20899633Y-10389313D01*
X20963399Y-10543258D01*
X20995907Y-10706685D01*
X20995907Y-10873315D01*
X20963399Y-11036742D01*
X20899633Y-11190687D01*
X20807059Y-11329234D01*
X20689234Y-11447059D01*
X20550687Y-11539633D01*
X20396742Y-11603399D01*
X20233315Y-11635907D01*
X20066685Y-11635907D01*
X19903258Y-11603399D01*
X19749313Y-11539633D01*
X19610766Y-11447059D01*
X19492941Y-11329234D01*
X19400367Y-11190687D01*
X19336601Y-11036742D01*
X19304093Y-10873315D01*
X19304093Y-10706685D01*
X19336601Y-10543258D01*
X19400367Y-10389313D01*
X19492941Y-10250766D01*
X19610766Y-10132941D01*
X19749313Y-10040367D01*
X19903258Y-9976601D01*
X20066685Y-9944093D01*
X20233315Y-9944093D01*
X20396742Y-9976601D01*
G37*
G36*
X22936742Y-9976601D02*
G01*
X23090687Y-10040367D01*
X23229234Y-10132941D01*
X23347059Y-10250766D01*
X23439633Y-10389313D01*
X23503399Y-10543258D01*
X23535907Y-10706685D01*
X23535907Y-10873315D01*
X23503399Y-11036742D01*
X23439633Y-11190687D01*
X23347059Y-11329234D01*
X23229234Y-11447059D01*
X23090687Y-11539633D01*
X22936742Y-11603399D01*
X22773315Y-11635907D01*
X22606685Y-11635907D01*
X22443258Y-11603399D01*
X22289313Y-11539633D01*
X22150766Y-11447059D01*
X22032941Y-11329234D01*
X21940367Y-11190687D01*
X21876601Y-11036742D01*
X21844093Y-10873315D01*
X21844093Y-10706685D01*
X21876601Y-10543258D01*
X21940367Y-10389313D01*
X22032941Y-10250766D01*
X22150766Y-10132941D01*
X22289313Y-10040367D01*
X22443258Y-9976601D01*
X22606685Y-9944093D01*
X22773315Y-9944093D01*
X22936742Y-9976601D01*
G37*
G36*
X25476742Y-9976601D02*
G01*
X25630687Y-10040367D01*
X25769234Y-10132941D01*
X25887059Y-10250766D01*
X25979633Y-10389313D01*
X26043399Y-10543258D01*
X26075907Y-10706685D01*
X26075907Y-10873315D01*
X26043399Y-11036742D01*
X25979633Y-11190687D01*
X25887059Y-11329234D01*
X25769234Y-11447059D01*
X25630687Y-11539633D01*
X25476742Y-11603399D01*
X25313315Y-11635907D01*
X25146685Y-11635907D01*
X24983258Y-11603399D01*
X24829313Y-11539633D01*
X24690766Y-11447059D01*
X24572941Y-11329234D01*
X24480367Y-11190687D01*
X24416601Y-11036742D01*
X24384093Y-10873315D01*
X24384093Y-10706685D01*
X24416601Y-10543258D01*
X24480367Y-10389313D01*
X24572941Y-10250766D01*
X24690766Y-10132941D01*
X24829313Y-10040367D01*
X24983258Y-9976601D01*
X25146685Y-9944093D01*
X25313315Y-9944093D01*
X25476742Y-9976601D01*
G37*
G36*
X28016742Y-9976601D02*
G01*
X28170687Y-10040367D01*
X28309234Y-10132941D01*
X28427059Y-10250766D01*
X28519633Y-10389313D01*
X28583399Y-10543258D01*
X28615907Y-10706685D01*
X28615907Y-10873315D01*
X28583399Y-11036742D01*
X28519633Y-11190687D01*
X28427059Y-11329234D01*
X28309234Y-11447059D01*
X28170687Y-11539633D01*
X28016742Y-11603399D01*
X27853315Y-11635907D01*
X27686685Y-11635907D01*
X27523258Y-11603399D01*
X27369313Y-11539633D01*
X27230766Y-11447059D01*
X27112941Y-11329234D01*
X27020367Y-11190687D01*
X26956601Y-11036742D01*
X26924093Y-10873315D01*
X26924093Y-10706685D01*
X26956601Y-10543258D01*
X27020367Y-10389313D01*
X27112941Y-10250766D01*
X27230766Y-10132941D01*
X27369313Y-10040367D01*
X27523258Y-9976601D01*
X27686685Y-9944093D01*
X27853315Y-9944093D01*
X28016742Y-9976601D01*
G37*
G36*
X30556742Y-9976601D02*
G01*
X30710687Y-10040367D01*
X30849234Y-10132941D01*
X30967059Y-10250766D01*
X31059633Y-10389313D01*
X31123399Y-10543258D01*
X31155907Y-10706685D01*
X31155907Y-10873315D01*
X31123399Y-11036742D01*
X31059633Y-11190687D01*
X30967059Y-11329234D01*
X30849234Y-11447059D01*
X30710687Y-11539633D01*
X30556742Y-11603399D01*
X30393315Y-11635907D01*
X30226685Y-11635907D01*
X30063258Y-11603399D01*
X29909313Y-11539633D01*
X29770766Y-11447059D01*
X29652941Y-11329234D01*
X29560367Y-11190687D01*
X29496601Y-11036742D01*
X29464093Y-10873315D01*
X29464093Y-10706685D01*
X29496601Y-10543258D01*
X29560367Y-10389313D01*
X29652941Y-10250766D01*
X29770766Y-10132941D01*
X29909313Y-10040367D01*
X30063258Y-9976601D01*
X30226685Y-9944093D01*
X30393315Y-9944093D01*
X30556742Y-9976601D01*
G37*
G36*
X33096742Y-9976601D02*
G01*
X33250687Y-10040367D01*
X33389234Y-10132941D01*
X33507059Y-10250766D01*
X33599633Y-10389313D01*
X33663399Y-10543258D01*
X33695907Y-10706685D01*
X33695907Y-10873315D01*
X33663399Y-11036742D01*
X33599633Y-11190687D01*
X33507059Y-11329234D01*
X33389234Y-11447059D01*
X33250687Y-11539633D01*
X33096742Y-11603399D01*
X32933315Y-11635907D01*
X32766685Y-11635907D01*
X32603258Y-11603399D01*
X32449313Y-11539633D01*
X32310766Y-11447059D01*
X32192941Y-11329234D01*
X32100367Y-11190687D01*
X32036601Y-11036742D01*
X32004093Y-10873315D01*
X32004093Y-10706685D01*
X32036601Y-10543258D01*
X32100367Y-10389313D01*
X32192941Y-10250766D01*
X32310766Y-10132941D01*
X32449313Y-10040367D01*
X32603258Y-9976601D01*
X32766685Y-9944093D01*
X32933315Y-9944093D01*
X33096742Y-9976601D01*
G37*
G36*
X35636742Y-9976601D02*
G01*
X35790687Y-10040367D01*
X35929234Y-10132941D01*
X36047059Y-10250766D01*
X36139633Y-10389313D01*
X36203399Y-10543258D01*
X36235907Y-10706685D01*
X36235907Y-10873315D01*
X36203399Y-11036742D01*
X36139633Y-11190687D01*
X36047059Y-11329234D01*
X35929234Y-11447059D01*
X35790687Y-11539633D01*
X35636742Y-11603399D01*
X35473315Y-11635907D01*
X35306685Y-11635907D01*
X35143258Y-11603399D01*
X34989313Y-11539633D01*
X34850766Y-11447059D01*
X34732941Y-11329234D01*
X34640367Y-11190687D01*
X34576601Y-11036742D01*
X34544093Y-10873315D01*
X34544093Y-10706685D01*
X34576601Y-10543258D01*
X34640367Y-10389313D01*
X34732941Y-10250766D01*
X34850766Y-10132941D01*
X34989313Y-10040367D01*
X35143258Y-9976601D01*
X35306685Y-9944093D01*
X35473315Y-9944093D01*
X35636742Y-9976601D01*
G37*
M02*
