M48
; DRILL file KiCad 10.0.6 date 2026-10-05T15:08:55
; FORMAT={-:-/ absolute / metric / decimal}
; #@! TF.CreationDate,2026-10-05T15:08:55+02:00
; #@! TF.GenerationSoftware,Kicad,Pcbnew,10.0.6
; #@! TF.FileFunction,Plated,1,2,PTH
FMAT,2
METRIC
; #@! TA.AperFunction,Plated,PTH,ViaDrill
T1C0.400
; #@! TA.AperFunction,Plated,PTH,ComponentDrill
T2C0.700
; #@! TA.AperFunction,Plated,PTH,ComponentDrill
T3C0.800
; #@! TA.AperFunction,Plated,PTH,ComponentDrill
T4C0.850
; #@! TA.AperFunction,Plated,PTH,ComponentDrill
T5C1.000
; #@! TA.AperFunction,Plated,PTH,ComponentDrill
T6C1.100
%
G90
G05
T1
X2.469Y-19.16
X3.459Y-24.655
X5.0Y-50.0
X5.0Y-70.0
X5.08Y-24.135
X8.333Y-23.829
X11.97Y-58.712
X13.5Y-19.69
X13.5Y-27.31
X14.044Y-53.907
X14.63Y-47.104
X14.871Y-29.208
X14.9Y-18.6
X15.992Y-28.358
X16.378Y-53.409
X16.423Y-49.878
X16.836Y-15.235
X17.0Y-18.6
X17.212Y-38.764
X17.273Y-89.546
X17.601Y-17.19
X19.85Y-19.886
X19.92Y-8.0
X21.142Y-24.899
X22.6Y-34.8
X23.777Y-44.738
X24.124Y-27.43
X24.208Y-23.423
X24.324Y-85.438
X25.0Y-90.0
X25.85Y-29.35
X26.796Y-44.782
X26.837Y-53.1
X27.416Y-42.545
X27.6Y-27.45
X28.512Y-24.454
X30.0Y-80.0
X30.9Y-29.45
X31.299Y-42.424
X31.38Y-24.135
X31.9Y-60.124
X32.86Y-24.011
X33.947Y-63.069
X34.34Y-24.135
X35.0Y-90.0
X35.62Y-8.0
X37.414Y-63.596
X38.5Y-25.55
X39.372Y-55.05
X39.5Y-19.69
X39.5Y-27.31
X40.0Y-80.0
X40.84Y-28.529
X42.017Y-10.79
X42.592Y-48.758
X42.725Y-12.816
X43.913Y-84.852
X45.0Y-10.0
X45.0Y-30.0
X45.0Y-90.0
X45.237Y-24.139
X46.088Y-46.958
X49.372Y-35.05
X49.372Y-43.55
X50.0Y-20.0
T2
X31.25Y-47.71
X31.25Y-50.25
T3
X19.5Y-30.38
X19.5Y-38.0
X21.0Y-66.88
X21.0Y-74.5
X22.04Y-30.38
X22.04Y-38.0
X23.54Y-66.88
X23.54Y-74.5
X24.58Y-30.38
X24.58Y-38.0
X26.08Y-66.88
X26.08Y-74.5
X27.12Y-30.38
X27.12Y-38.0
X28.62Y-66.88
X28.62Y-74.5
X29.66Y-30.38
X29.66Y-38.0
X30.6Y-56.0
X30.6Y-63.62
X31.16Y-66.88
X31.16Y-74.5
X32.2Y-30.38
X32.2Y-38.0
X33.7Y-66.88
X33.7Y-74.5
X34.0Y-53.0
X34.5Y-43.42
X34.5Y-48.5
X34.74Y-30.38
X34.74Y-38.0
X36.24Y-66.88
X36.24Y-74.5
X36.54Y-53.0
X38.78Y-66.88
X38.78Y-74.5
X39.08Y-53.0
X41.32Y-61.38
X41.32Y-63.38
X41.32Y-66.88
X41.32Y-74.5
X44.0Y-33.0
X44.0Y-41.5
X46.54Y-33.0
X46.54Y-41.5
X49.08Y-33.0
X49.08Y-41.5
T4
X19.5Y-57.0
X19.5Y-62.08
X21.7Y-57.0
X21.7Y-62.08
X23.9Y-57.0
X23.9Y-62.08
X27.1Y-57.0
X27.1Y-62.08
T5
X11.26Y-95.96
X13.8Y-95.96
X16.34Y-95.96
X17.61Y-10.79
X17.61Y-13.33
X18.88Y-95.96
X20.15Y-10.79
X20.15Y-13.33
X21.42Y-95.96
X22.69Y-10.79
X22.69Y-13.33
X23.96Y-95.96
X25.23Y-10.79
X25.23Y-13.33
X26.5Y-95.96
X27.77Y-10.79
X27.77Y-13.33
X29.04Y-95.96
X30.31Y-10.79
X30.31Y-13.33
X31.58Y-95.96
X32.85Y-10.79
X32.85Y-13.33
X34.12Y-95.96
X35.39Y-10.79
X35.39Y-13.33
X36.66Y-95.96
X39.2Y-95.96
X41.74Y-95.96
T6
X15.5Y-59.0
X15.5Y-62.5
M30
