%TF.GenerationSoftware,KiCad,Pcbnew,10.0.6*%
%TF.CreationDate,2026-10-04T20:51:44+02:00*%
%TF.ProjectId,P11,5031312e-6b69-4636-9164-5f7063625858,P11-R2 PCB*%
%TF.SameCoordinates,Original*%
%TF.FileFunction,Legend,Top*%
%TF.FilePolarity,Positive*%
%FSLAX46Y46*%
G04 Gerber Fmt 4.6, Leading zero omitted, Abs format (unit mm)*
G04 Created by KiCad (PCBNEW 10.0.6) date 2026-10-04 20:51:44*
%MOMM*%
%LPD*%
G01*
G04 APERTURE LIST*
%ADD10C,0.150000*%
%ADD11C,0.120000*%
G04 APERTURE END LIST*
D10*
X16934398Y-67454819D02*
X17448684Y-67454819D01*
X17191541Y-68454819D02*
X17191541Y-67454819D01*
X17748683Y-67931009D02*
X18048683Y-67931009D01*
X18177255Y-68454819D02*
X17748683Y-68454819D01*
X17748683Y-68454819D02*
X17748683Y-67454819D01*
X17748683Y-67454819D02*
X18177255Y-67454819D01*
X18520112Y-68407200D02*
X18648684Y-68454819D01*
X18648684Y-68454819D02*
X18862969Y-68454819D01*
X18862969Y-68454819D02*
X18948684Y-68407200D01*
X18948684Y-68407200D02*
X18991541Y-68359580D01*
X18991541Y-68359580D02*
X19034398Y-68264342D01*
X19034398Y-68264342D02*
X19034398Y-68169104D01*
X19034398Y-68169104D02*
X18991541Y-68073866D01*
X18991541Y-68073866D02*
X18948684Y-68026247D01*
X18948684Y-68026247D02*
X18862969Y-67978628D01*
X18862969Y-67978628D02*
X18691541Y-67931009D01*
X18691541Y-67931009D02*
X18605826Y-67883390D01*
X18605826Y-67883390D02*
X18562969Y-67835771D01*
X18562969Y-67835771D02*
X18520112Y-67740533D01*
X18520112Y-67740533D02*
X18520112Y-67645295D01*
X18520112Y-67645295D02*
X18562969Y-67550057D01*
X18562969Y-67550057D02*
X18605826Y-67502438D01*
X18605826Y-67502438D02*
X18691541Y-67454819D01*
X18691541Y-67454819D02*
X18905826Y-67454819D01*
X18905826Y-67454819D02*
X19034398Y-67502438D01*
X19291541Y-67454819D02*
X19805827Y-67454819D01*
X19548684Y-68454819D02*
X19548684Y-67454819D01*
X20791540Y-68454819D02*
X20791540Y-67454819D01*
X20877255Y-68073866D02*
X21134397Y-68454819D01*
X21134397Y-67788152D02*
X20791540Y-68169104D01*
X21648683Y-68454819D02*
X21562968Y-68407200D01*
X21562968Y-68407200D02*
X21520111Y-68359580D01*
X21520111Y-68359580D02*
X21477254Y-68264342D01*
X21477254Y-68264342D02*
X21477254Y-67978628D01*
X21477254Y-67978628D02*
X21520111Y-67883390D01*
X21520111Y-67883390D02*
X21562968Y-67835771D01*
X21562968Y-67835771D02*
X21648683Y-67788152D01*
X21648683Y-67788152D02*
X21777254Y-67788152D01*
X21777254Y-67788152D02*
X21862968Y-67835771D01*
X21862968Y-67835771D02*
X21905826Y-67883390D01*
X21905826Y-67883390D02*
X21948683Y-67978628D01*
X21948683Y-67978628D02*
X21948683Y-68264342D01*
X21948683Y-68264342D02*
X21905826Y-68359580D01*
X21905826Y-68359580D02*
X21862968Y-68407200D01*
X21862968Y-68407200D02*
X21777254Y-68454819D01*
X21777254Y-68454819D02*
X21648683Y-68454819D01*
X22334397Y-68454819D02*
X22334397Y-67788152D01*
X22334397Y-67883390D02*
X22377254Y-67835771D01*
X22377254Y-67835771D02*
X22462969Y-67788152D01*
X22462969Y-67788152D02*
X22591540Y-67788152D01*
X22591540Y-67788152D02*
X22677254Y-67835771D01*
X22677254Y-67835771D02*
X22720112Y-67931009D01*
X22720112Y-67931009D02*
X22720112Y-68454819D01*
X22720112Y-67931009D02*
X22762969Y-67835771D01*
X22762969Y-67835771D02*
X22848683Y-67788152D01*
X22848683Y-67788152D02*
X22977254Y-67788152D01*
X22977254Y-67788152D02*
X23062969Y-67835771D01*
X23062969Y-67835771D02*
X23105826Y-67931009D01*
X23105826Y-67931009D02*
X23105826Y-68454819D01*
X23534397Y-68359580D02*
X23577254Y-68407200D01*
X23577254Y-68407200D02*
X23534397Y-68454819D01*
X23534397Y-68454819D02*
X23491540Y-68407200D01*
X23491540Y-68407200D02*
X23534397Y-68359580D01*
X23534397Y-68359580D02*
X23534397Y-68454819D01*
X24434397Y-68454819D02*
X23920111Y-68454819D01*
X24177254Y-68454819D02*
X24177254Y-67454819D01*
X24177254Y-67454819D02*
X24091540Y-67597676D01*
X24091540Y-67597676D02*
X24005825Y-67692914D01*
X24005825Y-67692914D02*
X23920111Y-67740533D01*
X25291540Y-68454819D02*
X24777254Y-68454819D01*
X25034397Y-68454819D02*
X25034397Y-67454819D01*
X25034397Y-67454819D02*
X24948683Y-67597676D01*
X24948683Y-67597676D02*
X24862968Y-67692914D01*
X24862968Y-67692914D02*
X24777254Y-67740533D01*
X16934398Y-70954819D02*
X17448684Y-70954819D01*
X17191541Y-71954819D02*
X17191541Y-70954819D01*
X17748683Y-71431009D02*
X18048683Y-71431009D01*
X18177255Y-71954819D02*
X17748683Y-71954819D01*
X17748683Y-71954819D02*
X17748683Y-70954819D01*
X17748683Y-70954819D02*
X18177255Y-70954819D01*
X18520112Y-71907200D02*
X18648684Y-71954819D01*
X18648684Y-71954819D02*
X18862969Y-71954819D01*
X18862969Y-71954819D02*
X18948684Y-71907200D01*
X18948684Y-71907200D02*
X18991541Y-71859580D01*
X18991541Y-71859580D02*
X19034398Y-71764342D01*
X19034398Y-71764342D02*
X19034398Y-71669104D01*
X19034398Y-71669104D02*
X18991541Y-71573866D01*
X18991541Y-71573866D02*
X18948684Y-71526247D01*
X18948684Y-71526247D02*
X18862969Y-71478628D01*
X18862969Y-71478628D02*
X18691541Y-71431009D01*
X18691541Y-71431009D02*
X18605826Y-71383390D01*
X18605826Y-71383390D02*
X18562969Y-71335771D01*
X18562969Y-71335771D02*
X18520112Y-71240533D01*
X18520112Y-71240533D02*
X18520112Y-71145295D01*
X18520112Y-71145295D02*
X18562969Y-71050057D01*
X18562969Y-71050057D02*
X18605826Y-71002438D01*
X18605826Y-71002438D02*
X18691541Y-70954819D01*
X18691541Y-70954819D02*
X18905826Y-70954819D01*
X18905826Y-70954819D02*
X19034398Y-71002438D01*
X19291541Y-70954819D02*
X19805827Y-70954819D01*
X19548684Y-71954819D02*
X19548684Y-70954819D01*
X20791540Y-71954819D02*
X20791540Y-70954819D01*
X20877255Y-71573866D02*
X21134397Y-71954819D01*
X21134397Y-71288152D02*
X20791540Y-71669104D01*
X21648683Y-71954819D02*
X21562968Y-71907200D01*
X21562968Y-71907200D02*
X21520111Y-71859580D01*
X21520111Y-71859580D02*
X21477254Y-71764342D01*
X21477254Y-71764342D02*
X21477254Y-71478628D01*
X21477254Y-71478628D02*
X21520111Y-71383390D01*
X21520111Y-71383390D02*
X21562968Y-71335771D01*
X21562968Y-71335771D02*
X21648683Y-71288152D01*
X21648683Y-71288152D02*
X21777254Y-71288152D01*
X21777254Y-71288152D02*
X21862968Y-71335771D01*
X21862968Y-71335771D02*
X21905826Y-71383390D01*
X21905826Y-71383390D02*
X21948683Y-71478628D01*
X21948683Y-71478628D02*
X21948683Y-71764342D01*
X21948683Y-71764342D02*
X21905826Y-71859580D01*
X21905826Y-71859580D02*
X21862968Y-71907200D01*
X21862968Y-71907200D02*
X21777254Y-71954819D01*
X21777254Y-71954819D02*
X21648683Y-71954819D01*
X22334397Y-71954819D02*
X22334397Y-71288152D01*
X22334397Y-71383390D02*
X22377254Y-71335771D01*
X22377254Y-71335771D02*
X22462969Y-71288152D01*
X22462969Y-71288152D02*
X22591540Y-71288152D01*
X22591540Y-71288152D02*
X22677254Y-71335771D01*
X22677254Y-71335771D02*
X22720112Y-71431009D01*
X22720112Y-71431009D02*
X22720112Y-71954819D01*
X22720112Y-71431009D02*
X22762969Y-71335771D01*
X22762969Y-71335771D02*
X22848683Y-71288152D01*
X22848683Y-71288152D02*
X22977254Y-71288152D01*
X22977254Y-71288152D02*
X23062969Y-71335771D01*
X23062969Y-71335771D02*
X23105826Y-71431009D01*
X23105826Y-71431009D02*
X23105826Y-71954819D01*
X23534397Y-71859580D02*
X23577254Y-71907200D01*
X23577254Y-71907200D02*
X23534397Y-71954819D01*
X23534397Y-71954819D02*
X23491540Y-71907200D01*
X23491540Y-71907200D02*
X23534397Y-71859580D01*
X23534397Y-71859580D02*
X23534397Y-71954819D01*
X24434397Y-71954819D02*
X23920111Y-71954819D01*
X24177254Y-71954819D02*
X24177254Y-70954819D01*
X24177254Y-70954819D02*
X24091540Y-71097676D01*
X24091540Y-71097676D02*
X24005825Y-71192914D01*
X24005825Y-71192914D02*
X23920111Y-71240533D01*
X24991540Y-70954819D02*
X25077254Y-70954819D01*
X25077254Y-70954819D02*
X25162968Y-71002438D01*
X25162968Y-71002438D02*
X25205826Y-71050057D01*
X25205826Y-71050057D02*
X25248683Y-71145295D01*
X25248683Y-71145295D02*
X25291540Y-71335771D01*
X25291540Y-71335771D02*
X25291540Y-71573866D01*
X25291540Y-71573866D02*
X25248683Y-71764342D01*
X25248683Y-71764342D02*
X25205826Y-71859580D01*
X25205826Y-71859580D02*
X25162968Y-71907200D01*
X25162968Y-71907200D02*
X25077254Y-71954819D01*
X25077254Y-71954819D02*
X24991540Y-71954819D01*
X24991540Y-71954819D02*
X24905826Y-71907200D01*
X24905826Y-71907200D02*
X24862968Y-71859580D01*
X24862968Y-71859580D02*
X24820111Y-71764342D01*
X24820111Y-71764342D02*
X24777254Y-71573866D01*
X24777254Y-71573866D02*
X24777254Y-71335771D01*
X24777254Y-71335771D02*
X24820111Y-71145295D01*
X24820111Y-71145295D02*
X24862968Y-71050057D01*
X24862968Y-71050057D02*
X24905826Y-71002438D01*
X24905826Y-71002438D02*
X24991540Y-70954819D01*
X17020112Y-83407200D02*
X17148684Y-83454819D01*
X17148684Y-83454819D02*
X17362969Y-83454819D01*
X17362969Y-83454819D02*
X17448684Y-83407200D01*
X17448684Y-83407200D02*
X17491541Y-83359580D01*
X17491541Y-83359580D02*
X17534398Y-83264342D01*
X17534398Y-83264342D02*
X17534398Y-83169104D01*
X17534398Y-83169104D02*
X17491541Y-83073866D01*
X17491541Y-83073866D02*
X17448684Y-83026247D01*
X17448684Y-83026247D02*
X17362969Y-82978628D01*
X17362969Y-82978628D02*
X17191541Y-82931009D01*
X17191541Y-82931009D02*
X17105826Y-82883390D01*
X17105826Y-82883390D02*
X17062969Y-82835771D01*
X17062969Y-82835771D02*
X17020112Y-82740533D01*
X17020112Y-82740533D02*
X17020112Y-82645295D01*
X17020112Y-82645295D02*
X17062969Y-82550057D01*
X17062969Y-82550057D02*
X17105826Y-82502438D01*
X17105826Y-82502438D02*
X17191541Y-82454819D01*
X17191541Y-82454819D02*
X17405826Y-82454819D01*
X17405826Y-82454819D02*
X17534398Y-82502438D01*
X18434398Y-83359580D02*
X18391541Y-83407200D01*
X18391541Y-83407200D02*
X18262969Y-83454819D01*
X18262969Y-83454819D02*
X18177255Y-83454819D01*
X18177255Y-83454819D02*
X18048684Y-83407200D01*
X18048684Y-83407200D02*
X17962969Y-83311961D01*
X17962969Y-83311961D02*
X17920112Y-83216723D01*
X17920112Y-83216723D02*
X17877255Y-83026247D01*
X17877255Y-83026247D02*
X17877255Y-82883390D01*
X17877255Y-82883390D02*
X17920112Y-82692914D01*
X17920112Y-82692914D02*
X17962969Y-82597676D01*
X17962969Y-82597676D02*
X18048684Y-82502438D01*
X18048684Y-82502438D02*
X18177255Y-82454819D01*
X18177255Y-82454819D02*
X18262969Y-82454819D01*
X18262969Y-82454819D02*
X18391541Y-82502438D01*
X18391541Y-82502438D02*
X18434398Y-82550057D01*
X18991541Y-82454819D02*
X19162969Y-82454819D01*
X19162969Y-82454819D02*
X19248684Y-82502438D01*
X19248684Y-82502438D02*
X19334398Y-82597676D01*
X19334398Y-82597676D02*
X19377255Y-82788152D01*
X19377255Y-82788152D02*
X19377255Y-83121485D01*
X19377255Y-83121485D02*
X19334398Y-83311961D01*
X19334398Y-83311961D02*
X19248684Y-83407200D01*
X19248684Y-83407200D02*
X19162969Y-83454819D01*
X19162969Y-83454819D02*
X18991541Y-83454819D01*
X18991541Y-83454819D02*
X18905827Y-83407200D01*
X18905827Y-83407200D02*
X18820112Y-83311961D01*
X18820112Y-83311961D02*
X18777255Y-83121485D01*
X18777255Y-83121485D02*
X18777255Y-82788152D01*
X18777255Y-82788152D02*
X18820112Y-82597676D01*
X18820112Y-82597676D02*
X18905827Y-82502438D01*
X18905827Y-82502438D02*
X18991541Y-82454819D01*
X19762969Y-83454819D02*
X19762969Y-82454819D01*
X19762969Y-82454819D02*
X20105826Y-82454819D01*
X20105826Y-82454819D02*
X20191541Y-82502438D01*
X20191541Y-82502438D02*
X20234398Y-82550057D01*
X20234398Y-82550057D02*
X20277255Y-82645295D01*
X20277255Y-82645295D02*
X20277255Y-82788152D01*
X20277255Y-82788152D02*
X20234398Y-82883390D01*
X20234398Y-82883390D02*
X20191541Y-82931009D01*
X20191541Y-82931009D02*
X20105826Y-82978628D01*
X20105826Y-82978628D02*
X19762969Y-82978628D01*
X20662969Y-82931009D02*
X20962969Y-82931009D01*
X21091541Y-83454819D02*
X20662969Y-83454819D01*
X20662969Y-83454819D02*
X20662969Y-82454819D01*
X20662969Y-82454819D02*
X21091541Y-82454819D01*
X22505826Y-83407200D02*
X22420112Y-83454819D01*
X22420112Y-83454819D02*
X22248684Y-83454819D01*
X22248684Y-83454819D02*
X22162969Y-83407200D01*
X22162969Y-83407200D02*
X22120112Y-83311961D01*
X22120112Y-83311961D02*
X22120112Y-82931009D01*
X22120112Y-82931009D02*
X22162969Y-82835771D01*
X22162969Y-82835771D02*
X22248684Y-82788152D01*
X22248684Y-82788152D02*
X22420112Y-82788152D01*
X22420112Y-82788152D02*
X22505826Y-82835771D01*
X22505826Y-82835771D02*
X22548684Y-82931009D01*
X22548684Y-82931009D02*
X22548684Y-83026247D01*
X22548684Y-83026247D02*
X22120112Y-83121485D01*
X22934398Y-83454819D02*
X22934398Y-82454819D01*
X23020113Y-83073866D02*
X23277255Y-83454819D01*
X23277255Y-82788152D02*
X22934398Y-83169104D01*
X23662969Y-83454819D02*
X23662969Y-82788152D01*
X23662969Y-82978628D02*
X23705826Y-82883390D01*
X23705826Y-82883390D02*
X23748684Y-82835771D01*
X23748684Y-82835771D02*
X23834398Y-82788152D01*
X23834398Y-82788152D02*
X23920112Y-82788152D01*
X24605827Y-83454819D02*
X24605827Y-82931009D01*
X24605827Y-82931009D02*
X24562969Y-82835771D01*
X24562969Y-82835771D02*
X24477255Y-82788152D01*
X24477255Y-82788152D02*
X24305827Y-82788152D01*
X24305827Y-82788152D02*
X24220112Y-82835771D01*
X24605827Y-83407200D02*
X24520112Y-83454819D01*
X24520112Y-83454819D02*
X24305827Y-83454819D01*
X24305827Y-83454819D02*
X24220112Y-83407200D01*
X24220112Y-83407200D02*
X24177255Y-83311961D01*
X24177255Y-83311961D02*
X24177255Y-83216723D01*
X24177255Y-83216723D02*
X24220112Y-83121485D01*
X24220112Y-83121485D02*
X24305827Y-83073866D01*
X24305827Y-83073866D02*
X24520112Y-83073866D01*
X24520112Y-83073866D02*
X24605827Y-83026247D01*
X25034398Y-82788152D02*
X25034398Y-83454819D01*
X25034398Y-82883390D02*
X25077255Y-82835771D01*
X25077255Y-82835771D02*
X25162970Y-82788152D01*
X25162970Y-82788152D02*
X25291541Y-82788152D01*
X25291541Y-82788152D02*
X25377255Y-82835771D01*
X25377255Y-82835771D02*
X25420113Y-82931009D01*
X25420113Y-82931009D02*
X25420113Y-83454819D01*
X17020112Y-86907200D02*
X17148684Y-86954819D01*
X17148684Y-86954819D02*
X17362969Y-86954819D01*
X17362969Y-86954819D02*
X17448684Y-86907200D01*
X17448684Y-86907200D02*
X17491541Y-86859580D01*
X17491541Y-86859580D02*
X17534398Y-86764342D01*
X17534398Y-86764342D02*
X17534398Y-86669104D01*
X17534398Y-86669104D02*
X17491541Y-86573866D01*
X17491541Y-86573866D02*
X17448684Y-86526247D01*
X17448684Y-86526247D02*
X17362969Y-86478628D01*
X17362969Y-86478628D02*
X17191541Y-86431009D01*
X17191541Y-86431009D02*
X17105826Y-86383390D01*
X17105826Y-86383390D02*
X17062969Y-86335771D01*
X17062969Y-86335771D02*
X17020112Y-86240533D01*
X17020112Y-86240533D02*
X17020112Y-86145295D01*
X17020112Y-86145295D02*
X17062969Y-86050057D01*
X17062969Y-86050057D02*
X17105826Y-86002438D01*
X17105826Y-86002438D02*
X17191541Y-85954819D01*
X17191541Y-85954819D02*
X17405826Y-85954819D01*
X17405826Y-85954819D02*
X17534398Y-86002438D01*
X18434398Y-86859580D02*
X18391541Y-86907200D01*
X18391541Y-86907200D02*
X18262969Y-86954819D01*
X18262969Y-86954819D02*
X18177255Y-86954819D01*
X18177255Y-86954819D02*
X18048684Y-86907200D01*
X18048684Y-86907200D02*
X17962969Y-86811961D01*
X17962969Y-86811961D02*
X17920112Y-86716723D01*
X17920112Y-86716723D02*
X17877255Y-86526247D01*
X17877255Y-86526247D02*
X17877255Y-86383390D01*
X17877255Y-86383390D02*
X17920112Y-86192914D01*
X17920112Y-86192914D02*
X17962969Y-86097676D01*
X17962969Y-86097676D02*
X18048684Y-86002438D01*
X18048684Y-86002438D02*
X18177255Y-85954819D01*
X18177255Y-85954819D02*
X18262969Y-85954819D01*
X18262969Y-85954819D02*
X18391541Y-86002438D01*
X18391541Y-86002438D02*
X18434398Y-86050057D01*
X18991541Y-85954819D02*
X19162969Y-85954819D01*
X19162969Y-85954819D02*
X19248684Y-86002438D01*
X19248684Y-86002438D02*
X19334398Y-86097676D01*
X19334398Y-86097676D02*
X19377255Y-86288152D01*
X19377255Y-86288152D02*
X19377255Y-86621485D01*
X19377255Y-86621485D02*
X19334398Y-86811961D01*
X19334398Y-86811961D02*
X19248684Y-86907200D01*
X19248684Y-86907200D02*
X19162969Y-86954819D01*
X19162969Y-86954819D02*
X18991541Y-86954819D01*
X18991541Y-86954819D02*
X18905827Y-86907200D01*
X18905827Y-86907200D02*
X18820112Y-86811961D01*
X18820112Y-86811961D02*
X18777255Y-86621485D01*
X18777255Y-86621485D02*
X18777255Y-86288152D01*
X18777255Y-86288152D02*
X18820112Y-86097676D01*
X18820112Y-86097676D02*
X18905827Y-86002438D01*
X18905827Y-86002438D02*
X18991541Y-85954819D01*
X19762969Y-86954819D02*
X19762969Y-85954819D01*
X19762969Y-85954819D02*
X20105826Y-85954819D01*
X20105826Y-85954819D02*
X20191541Y-86002438D01*
X20191541Y-86002438D02*
X20234398Y-86050057D01*
X20234398Y-86050057D02*
X20277255Y-86145295D01*
X20277255Y-86145295D02*
X20277255Y-86288152D01*
X20277255Y-86288152D02*
X20234398Y-86383390D01*
X20234398Y-86383390D02*
X20191541Y-86431009D01*
X20191541Y-86431009D02*
X20105826Y-86478628D01*
X20105826Y-86478628D02*
X19762969Y-86478628D01*
X20662969Y-86431009D02*
X20962969Y-86431009D01*
X21091541Y-86954819D02*
X20662969Y-86954819D01*
X20662969Y-86954819D02*
X20662969Y-85954819D01*
X20662969Y-85954819D02*
X21091541Y-85954819D01*
X22120112Y-86907200D02*
X22205826Y-86954819D01*
X22205826Y-86954819D02*
X22377255Y-86954819D01*
X22377255Y-86954819D02*
X22462969Y-86907200D01*
X22462969Y-86907200D02*
X22505826Y-86811961D01*
X22505826Y-86811961D02*
X22505826Y-86764342D01*
X22505826Y-86764342D02*
X22462969Y-86669104D01*
X22462969Y-86669104D02*
X22377255Y-86621485D01*
X22377255Y-86621485D02*
X22248684Y-86621485D01*
X22248684Y-86621485D02*
X22162969Y-86573866D01*
X22162969Y-86573866D02*
X22120112Y-86478628D01*
X22120112Y-86478628D02*
X22120112Y-86431009D01*
X22120112Y-86431009D02*
X22162969Y-86335771D01*
X22162969Y-86335771D02*
X22248684Y-86288152D01*
X22248684Y-86288152D02*
X22377255Y-86288152D01*
X22377255Y-86288152D02*
X22462969Y-86335771D01*
X22891540Y-86954819D02*
X22891540Y-86288152D01*
X22891540Y-86478628D02*
X22934397Y-86383390D01*
X22934397Y-86383390D02*
X22977255Y-86335771D01*
X22977255Y-86335771D02*
X23062969Y-86288152D01*
X23062969Y-86288152D02*
X23148683Y-86288152D01*
X23577255Y-86954819D02*
X23491540Y-86907200D01*
X23491540Y-86907200D02*
X23448683Y-86859580D01*
X23448683Y-86859580D02*
X23405826Y-86764342D01*
X23405826Y-86764342D02*
X23405826Y-86478628D01*
X23405826Y-86478628D02*
X23448683Y-86383390D01*
X23448683Y-86383390D02*
X23491540Y-86335771D01*
X23491540Y-86335771D02*
X23577255Y-86288152D01*
X23577255Y-86288152D02*
X23705826Y-86288152D01*
X23705826Y-86288152D02*
X23791540Y-86335771D01*
X23791540Y-86335771D02*
X23834398Y-86383390D01*
X23834398Y-86383390D02*
X23877255Y-86478628D01*
X23877255Y-86478628D02*
X23877255Y-86764342D01*
X23877255Y-86764342D02*
X23834398Y-86859580D01*
X23834398Y-86859580D02*
X23791540Y-86907200D01*
X23791540Y-86907200D02*
X23705826Y-86954819D01*
X23705826Y-86954819D02*
X23577255Y-86954819D01*
X24648684Y-86954819D02*
X24648684Y-85954819D01*
X24648684Y-86907200D02*
X24562969Y-86954819D01*
X24562969Y-86954819D02*
X24391541Y-86954819D01*
X24391541Y-86954819D02*
X24305826Y-86907200D01*
X24305826Y-86907200D02*
X24262969Y-86859580D01*
X24262969Y-86859580D02*
X24220112Y-86764342D01*
X24220112Y-86764342D02*
X24220112Y-86478628D01*
X24220112Y-86478628D02*
X24262969Y-86383390D01*
X24262969Y-86383390D02*
X24305826Y-86335771D01*
X24305826Y-86335771D02*
X24391541Y-86288152D01*
X24391541Y-86288152D02*
X24562969Y-86288152D01*
X24562969Y-86288152D02*
X24648684Y-86335771D01*
X25420112Y-86907200D02*
X25334398Y-86954819D01*
X25334398Y-86954819D02*
X25162970Y-86954819D01*
X25162970Y-86954819D02*
X25077255Y-86907200D01*
X25077255Y-86907200D02*
X25034398Y-86811961D01*
X25034398Y-86811961D02*
X25034398Y-86431009D01*
X25034398Y-86431009D02*
X25077255Y-86335771D01*
X25077255Y-86335771D02*
X25162970Y-86288152D01*
X25162970Y-86288152D02*
X25334398Y-86288152D01*
X25334398Y-86288152D02*
X25420112Y-86335771D01*
X25420112Y-86335771D02*
X25462970Y-86431009D01*
X25462970Y-86431009D02*
X25462970Y-86526247D01*
X25462970Y-86526247D02*
X25034398Y-86621485D01*
X25848684Y-86954819D02*
X25848684Y-85954819D01*
X25934399Y-86573866D02*
X26191541Y-86954819D01*
X26191541Y-86288152D02*
X25848684Y-86669104D01*
X20477255Y-27954819D02*
X21077255Y-28954819D01*
X21077255Y-27954819D02*
X20477255Y-28954819D01*
X21891541Y-28954819D02*
X21377255Y-28954819D01*
X21634398Y-28954819D02*
X21634398Y-27954819D01*
X21634398Y-27954819D02*
X21548684Y-28097676D01*
X21548684Y-28097676D02*
X21462969Y-28192914D01*
X21462969Y-28192914D02*
X21377255Y-28240533D01*
X22191541Y-27954819D02*
X22791541Y-27954819D01*
X22791541Y-27954819D02*
X22405827Y-28954819D01*
X23134398Y-28859580D02*
X23177255Y-28907200D01*
X23177255Y-28907200D02*
X23134398Y-28954819D01*
X23134398Y-28954819D02*
X23091541Y-28907200D01*
X23091541Y-28907200D02*
X23134398Y-28859580D01*
X23134398Y-28859580D02*
X23134398Y-28954819D01*
X24034398Y-28954819D02*
X23520112Y-28954819D01*
X23777255Y-28954819D02*
X23777255Y-27954819D01*
X23777255Y-27954819D02*
X23691541Y-28097676D01*
X23691541Y-28097676D02*
X23605826Y-28192914D01*
X23605826Y-28192914D02*
X23520112Y-28240533D01*
X24420112Y-28573866D02*
X25105827Y-28573866D01*
X25491541Y-28050057D02*
X25534398Y-28002438D01*
X25534398Y-28002438D02*
X25620113Y-27954819D01*
X25620113Y-27954819D02*
X25834398Y-27954819D01*
X25834398Y-27954819D02*
X25920113Y-28002438D01*
X25920113Y-28002438D02*
X25962970Y-28050057D01*
X25962970Y-28050057D02*
X26005827Y-28145295D01*
X26005827Y-28145295D02*
X26005827Y-28240533D01*
X26005827Y-28240533D02*
X25962970Y-28383390D01*
X25962970Y-28383390D02*
X25448684Y-28954819D01*
X25448684Y-28954819D02*
X26005827Y-28954819D01*
X26948684Y-27954819D02*
X27462970Y-27954819D01*
X27205827Y-28954819D02*
X27205827Y-27954819D01*
X27762969Y-28431009D02*
X28062969Y-28431009D01*
X28191541Y-28954819D02*
X27762969Y-28954819D01*
X27762969Y-28954819D02*
X27762969Y-27954819D01*
X27762969Y-27954819D02*
X28191541Y-27954819D01*
X28534398Y-28907200D02*
X28662970Y-28954819D01*
X28662970Y-28954819D02*
X28877255Y-28954819D01*
X28877255Y-28954819D02*
X28962970Y-28907200D01*
X28962970Y-28907200D02*
X29005827Y-28859580D01*
X29005827Y-28859580D02*
X29048684Y-28764342D01*
X29048684Y-28764342D02*
X29048684Y-28669104D01*
X29048684Y-28669104D02*
X29005827Y-28573866D01*
X29005827Y-28573866D02*
X28962970Y-28526247D01*
X28962970Y-28526247D02*
X28877255Y-28478628D01*
X28877255Y-28478628D02*
X28705827Y-28431009D01*
X28705827Y-28431009D02*
X28620112Y-28383390D01*
X28620112Y-28383390D02*
X28577255Y-28335771D01*
X28577255Y-28335771D02*
X28534398Y-28240533D01*
X28534398Y-28240533D02*
X28534398Y-28145295D01*
X28534398Y-28145295D02*
X28577255Y-28050057D01*
X28577255Y-28050057D02*
X28620112Y-28002438D01*
X28620112Y-28002438D02*
X28705827Y-27954819D01*
X28705827Y-27954819D02*
X28920112Y-27954819D01*
X28920112Y-27954819D02*
X29048684Y-28002438D01*
X29305827Y-27954819D02*
X29820113Y-27954819D01*
X29562970Y-28954819D02*
X29562970Y-27954819D01*
X20477255Y-31454819D02*
X21077255Y-32454819D01*
X21077255Y-31454819D02*
X20477255Y-32454819D01*
X21891541Y-32454819D02*
X21377255Y-32454819D01*
X21634398Y-32454819D02*
X21634398Y-31454819D01*
X21634398Y-31454819D02*
X21548684Y-31597676D01*
X21548684Y-31597676D02*
X21462969Y-31692914D01*
X21462969Y-31692914D02*
X21377255Y-31740533D01*
X22662970Y-31788152D02*
X22662970Y-32454819D01*
X22448684Y-31407200D02*
X22234398Y-32121485D01*
X22234398Y-32121485D02*
X22791541Y-32121485D01*
X23134398Y-32359580D02*
X23177255Y-32407200D01*
X23177255Y-32407200D02*
X23134398Y-32454819D01*
X23134398Y-32454819D02*
X23091541Y-32407200D01*
X23091541Y-32407200D02*
X23134398Y-32359580D01*
X23134398Y-32359580D02*
X23134398Y-32454819D01*
X24034398Y-32454819D02*
X23520112Y-32454819D01*
X23777255Y-32454819D02*
X23777255Y-31454819D01*
X23777255Y-31454819D02*
X23691541Y-31597676D01*
X23691541Y-31597676D02*
X23605826Y-31692914D01*
X23605826Y-31692914D02*
X23520112Y-31740533D01*
X24420112Y-32073866D02*
X25105827Y-32073866D01*
X25491541Y-31550057D02*
X25534398Y-31502438D01*
X25534398Y-31502438D02*
X25620113Y-31454819D01*
X25620113Y-31454819D02*
X25834398Y-31454819D01*
X25834398Y-31454819D02*
X25920113Y-31502438D01*
X25920113Y-31502438D02*
X25962970Y-31550057D01*
X25962970Y-31550057D02*
X26005827Y-31645295D01*
X26005827Y-31645295D02*
X26005827Y-31740533D01*
X26005827Y-31740533D02*
X25962970Y-31883390D01*
X25962970Y-31883390D02*
X25448684Y-32454819D01*
X25448684Y-32454819D02*
X26005827Y-32454819D01*
X27077255Y-32454819D02*
X27077255Y-31454819D01*
X27077255Y-31454819D02*
X27377255Y-32169104D01*
X27377255Y-32169104D02*
X27677255Y-31454819D01*
X27677255Y-31454819D02*
X27677255Y-32454819D01*
X28062969Y-32169104D02*
X28491541Y-32169104D01*
X27977255Y-32454819D02*
X28277255Y-31454819D01*
X28277255Y-31454819D02*
X28577255Y-32454819D01*
X29391541Y-32454819D02*
X29091541Y-31978628D01*
X28877255Y-32454819D02*
X28877255Y-31454819D01*
X28877255Y-31454819D02*
X29220112Y-31454819D01*
X29220112Y-31454819D02*
X29305827Y-31502438D01*
X29305827Y-31502438D02*
X29348684Y-31550057D01*
X29348684Y-31550057D02*
X29391541Y-31645295D01*
X29391541Y-31645295D02*
X29391541Y-31788152D01*
X29391541Y-31788152D02*
X29348684Y-31883390D01*
X29348684Y-31883390D02*
X29305827Y-31931009D01*
X29305827Y-31931009D02*
X29220112Y-31978628D01*
X29220112Y-31978628D02*
X28877255Y-31978628D01*
X29777255Y-32454819D02*
X29777255Y-31454819D01*
X30291541Y-32454819D02*
X29905827Y-31883390D01*
X30291541Y-31454819D02*
X29777255Y-32026247D01*
X20477255Y-34954819D02*
X21077255Y-35954819D01*
X21077255Y-34954819D02*
X20477255Y-35954819D01*
X21891541Y-35954819D02*
X21377255Y-35954819D01*
X21634398Y-35954819D02*
X21634398Y-34954819D01*
X21634398Y-34954819D02*
X21548684Y-35097676D01*
X21548684Y-35097676D02*
X21462969Y-35192914D01*
X21462969Y-35192914D02*
X21377255Y-35240533D01*
X22748684Y-35954819D02*
X22234398Y-35954819D01*
X22491541Y-35954819D02*
X22491541Y-34954819D01*
X22491541Y-34954819D02*
X22405827Y-35097676D01*
X22405827Y-35097676D02*
X22320112Y-35192914D01*
X22320112Y-35192914D02*
X22234398Y-35240533D01*
X23134398Y-35859580D02*
X23177255Y-35907200D01*
X23177255Y-35907200D02*
X23134398Y-35954819D01*
X23134398Y-35954819D02*
X23091541Y-35907200D01*
X23091541Y-35907200D02*
X23134398Y-35859580D01*
X23134398Y-35859580D02*
X23134398Y-35954819D01*
X24034398Y-35954819D02*
X23520112Y-35954819D01*
X23777255Y-35954819D02*
X23777255Y-34954819D01*
X23777255Y-34954819D02*
X23691541Y-35097676D01*
X23691541Y-35097676D02*
X23605826Y-35192914D01*
X23605826Y-35192914D02*
X23520112Y-35240533D01*
X24420112Y-35573866D02*
X25105827Y-35573866D01*
X25491541Y-35050057D02*
X25534398Y-35002438D01*
X25534398Y-35002438D02*
X25620113Y-34954819D01*
X25620113Y-34954819D02*
X25834398Y-34954819D01*
X25834398Y-34954819D02*
X25920113Y-35002438D01*
X25920113Y-35002438D02*
X25962970Y-35050057D01*
X25962970Y-35050057D02*
X26005827Y-35145295D01*
X26005827Y-35145295D02*
X26005827Y-35240533D01*
X26005827Y-35240533D02*
X25962970Y-35383390D01*
X25962970Y-35383390D02*
X25448684Y-35954819D01*
X25448684Y-35954819D02*
X26005827Y-35954819D01*
X27034398Y-35669104D02*
X27462970Y-35669104D01*
X26948684Y-35954819D02*
X27248684Y-34954819D01*
X27248684Y-34954819D02*
X27548684Y-35954819D01*
X28362970Y-35954819D02*
X28062970Y-35478628D01*
X27848684Y-35954819D02*
X27848684Y-34954819D01*
X27848684Y-34954819D02*
X28191541Y-34954819D01*
X28191541Y-34954819D02*
X28277256Y-35002438D01*
X28277256Y-35002438D02*
X28320113Y-35050057D01*
X28320113Y-35050057D02*
X28362970Y-35145295D01*
X28362970Y-35145295D02*
X28362970Y-35288152D01*
X28362970Y-35288152D02*
X28320113Y-35383390D01*
X28320113Y-35383390D02*
X28277256Y-35431009D01*
X28277256Y-35431009D02*
X28191541Y-35478628D01*
X28191541Y-35478628D02*
X27848684Y-35478628D01*
X28748684Y-35954819D02*
X28748684Y-34954819D01*
X28748684Y-34954819D02*
X29048684Y-35669104D01*
X29048684Y-35669104D02*
X29348684Y-34954819D01*
X29348684Y-34954819D02*
X29348684Y-35954819D01*
X20477255Y-38454819D02*
X21077255Y-39454819D01*
X21077255Y-38454819D02*
X20477255Y-39454819D01*
X21891541Y-39454819D02*
X21377255Y-39454819D01*
X21634398Y-39454819D02*
X21634398Y-38454819D01*
X21634398Y-38454819D02*
X21548684Y-38597676D01*
X21548684Y-38597676D02*
X21462969Y-38692914D01*
X21462969Y-38692914D02*
X21377255Y-38740533D01*
X22662970Y-38454819D02*
X22491541Y-38454819D01*
X22491541Y-38454819D02*
X22405827Y-38502438D01*
X22405827Y-38502438D02*
X22362970Y-38550057D01*
X22362970Y-38550057D02*
X22277255Y-38692914D01*
X22277255Y-38692914D02*
X22234398Y-38883390D01*
X22234398Y-38883390D02*
X22234398Y-39264342D01*
X22234398Y-39264342D02*
X22277255Y-39359580D01*
X22277255Y-39359580D02*
X22320112Y-39407200D01*
X22320112Y-39407200D02*
X22405827Y-39454819D01*
X22405827Y-39454819D02*
X22577255Y-39454819D01*
X22577255Y-39454819D02*
X22662970Y-39407200D01*
X22662970Y-39407200D02*
X22705827Y-39359580D01*
X22705827Y-39359580D02*
X22748684Y-39264342D01*
X22748684Y-39264342D02*
X22748684Y-39026247D01*
X22748684Y-39026247D02*
X22705827Y-38931009D01*
X22705827Y-38931009D02*
X22662970Y-38883390D01*
X22662970Y-38883390D02*
X22577255Y-38835771D01*
X22577255Y-38835771D02*
X22405827Y-38835771D01*
X22405827Y-38835771D02*
X22320112Y-38883390D01*
X22320112Y-38883390D02*
X22277255Y-38931009D01*
X22277255Y-38931009D02*
X22234398Y-39026247D01*
X23134398Y-39359580D02*
X23177255Y-39407200D01*
X23177255Y-39407200D02*
X23134398Y-39454819D01*
X23134398Y-39454819D02*
X23091541Y-39407200D01*
X23091541Y-39407200D02*
X23134398Y-39359580D01*
X23134398Y-39359580D02*
X23134398Y-39454819D01*
X24034398Y-39454819D02*
X23520112Y-39454819D01*
X23777255Y-39454819D02*
X23777255Y-38454819D01*
X23777255Y-38454819D02*
X23691541Y-38597676D01*
X23691541Y-38597676D02*
X23605826Y-38692914D01*
X23605826Y-38692914D02*
X23520112Y-38740533D01*
X24420112Y-39073866D02*
X25105827Y-39073866D01*
X25491541Y-38550057D02*
X25534398Y-38502438D01*
X25534398Y-38502438D02*
X25620113Y-38454819D01*
X25620113Y-38454819D02*
X25834398Y-38454819D01*
X25834398Y-38454819D02*
X25920113Y-38502438D01*
X25920113Y-38502438D02*
X25962970Y-38550057D01*
X25962970Y-38550057D02*
X26005827Y-38645295D01*
X26005827Y-38645295D02*
X26005827Y-38740533D01*
X26005827Y-38740533D02*
X25962970Y-38883390D01*
X25962970Y-38883390D02*
X25448684Y-39454819D01*
X25448684Y-39454819D02*
X26005827Y-39454819D01*
X27034398Y-39407200D02*
X27162970Y-39454819D01*
X27162970Y-39454819D02*
X27377255Y-39454819D01*
X27377255Y-39454819D02*
X27462970Y-39407200D01*
X27462970Y-39407200D02*
X27505827Y-39359580D01*
X27505827Y-39359580D02*
X27548684Y-39264342D01*
X27548684Y-39264342D02*
X27548684Y-39169104D01*
X27548684Y-39169104D02*
X27505827Y-39073866D01*
X27505827Y-39073866D02*
X27462970Y-39026247D01*
X27462970Y-39026247D02*
X27377255Y-38978628D01*
X27377255Y-38978628D02*
X27205827Y-38931009D01*
X27205827Y-38931009D02*
X27120112Y-38883390D01*
X27120112Y-38883390D02*
X27077255Y-38835771D01*
X27077255Y-38835771D02*
X27034398Y-38740533D01*
X27034398Y-38740533D02*
X27034398Y-38645295D01*
X27034398Y-38645295D02*
X27077255Y-38550057D01*
X27077255Y-38550057D02*
X27120112Y-38502438D01*
X27120112Y-38502438D02*
X27205827Y-38454819D01*
X27205827Y-38454819D02*
X27420112Y-38454819D01*
X27420112Y-38454819D02*
X27548684Y-38502438D01*
X27805827Y-38454819D02*
X28320113Y-38454819D01*
X28062970Y-39454819D02*
X28062970Y-38454819D01*
X28791541Y-38454819D02*
X28962969Y-38454819D01*
X28962969Y-38454819D02*
X29048684Y-38502438D01*
X29048684Y-38502438D02*
X29134398Y-38597676D01*
X29134398Y-38597676D02*
X29177255Y-38788152D01*
X29177255Y-38788152D02*
X29177255Y-39121485D01*
X29177255Y-39121485D02*
X29134398Y-39311961D01*
X29134398Y-39311961D02*
X29048684Y-39407200D01*
X29048684Y-39407200D02*
X28962969Y-39454819D01*
X28962969Y-39454819D02*
X28791541Y-39454819D01*
X28791541Y-39454819D02*
X28705827Y-39407200D01*
X28705827Y-39407200D02*
X28620112Y-39311961D01*
X28620112Y-39311961D02*
X28577255Y-39121485D01*
X28577255Y-39121485D02*
X28577255Y-38788152D01*
X28577255Y-38788152D02*
X28620112Y-38597676D01*
X28620112Y-38597676D02*
X28705827Y-38502438D01*
X28705827Y-38502438D02*
X28791541Y-38454819D01*
X29562969Y-39454819D02*
X29562969Y-38454819D01*
X29562969Y-38454819D02*
X29905826Y-38454819D01*
X29905826Y-38454819D02*
X29991541Y-38502438D01*
X29991541Y-38502438D02*
X30034398Y-38550057D01*
X30034398Y-38550057D02*
X30077255Y-38645295D01*
X30077255Y-38645295D02*
X30077255Y-38788152D01*
X30077255Y-38788152D02*
X30034398Y-38883390D01*
X30034398Y-38883390D02*
X29991541Y-38931009D01*
X29991541Y-38931009D02*
X29905826Y-38978628D01*
X29905826Y-38978628D02*
X29562969Y-38978628D01*
X20477255Y-41954819D02*
X21077255Y-42954819D01*
X21077255Y-41954819D02*
X20477255Y-42954819D01*
X21891541Y-42954819D02*
X21377255Y-42954819D01*
X21634398Y-42954819D02*
X21634398Y-41954819D01*
X21634398Y-41954819D02*
X21548684Y-42097676D01*
X21548684Y-42097676D02*
X21462969Y-42192914D01*
X21462969Y-42192914D02*
X21377255Y-42240533D01*
X22191541Y-41954819D02*
X22748684Y-41954819D01*
X22748684Y-41954819D02*
X22448684Y-42335771D01*
X22448684Y-42335771D02*
X22577255Y-42335771D01*
X22577255Y-42335771D02*
X22662970Y-42383390D01*
X22662970Y-42383390D02*
X22705827Y-42431009D01*
X22705827Y-42431009D02*
X22748684Y-42526247D01*
X22748684Y-42526247D02*
X22748684Y-42764342D01*
X22748684Y-42764342D02*
X22705827Y-42859580D01*
X22705827Y-42859580D02*
X22662970Y-42907200D01*
X22662970Y-42907200D02*
X22577255Y-42954819D01*
X22577255Y-42954819D02*
X22320112Y-42954819D01*
X22320112Y-42954819D02*
X22234398Y-42907200D01*
X22234398Y-42907200D02*
X22191541Y-42859580D01*
X23134398Y-42859580D02*
X23177255Y-42907200D01*
X23177255Y-42907200D02*
X23134398Y-42954819D01*
X23134398Y-42954819D02*
X23091541Y-42907200D01*
X23091541Y-42907200D02*
X23134398Y-42859580D01*
X23134398Y-42859580D02*
X23134398Y-42954819D01*
X23477255Y-41954819D02*
X24034398Y-41954819D01*
X24034398Y-41954819D02*
X23734398Y-42335771D01*
X23734398Y-42335771D02*
X23862969Y-42335771D01*
X23862969Y-42335771D02*
X23948684Y-42383390D01*
X23948684Y-42383390D02*
X23991541Y-42431009D01*
X23991541Y-42431009D02*
X24034398Y-42526247D01*
X24034398Y-42526247D02*
X24034398Y-42764342D01*
X24034398Y-42764342D02*
X23991541Y-42859580D01*
X23991541Y-42859580D02*
X23948684Y-42907200D01*
X23948684Y-42907200D02*
X23862969Y-42954819D01*
X23862969Y-42954819D02*
X23605826Y-42954819D01*
X23605826Y-42954819D02*
X23520112Y-42907200D01*
X23520112Y-42907200D02*
X23477255Y-42859580D01*
X24420112Y-42573866D02*
X25105827Y-42573866D01*
X25920113Y-42288152D02*
X25920113Y-42954819D01*
X25705827Y-41907200D02*
X25491541Y-42621485D01*
X25491541Y-42621485D02*
X26048684Y-42621485D01*
X27505827Y-42954819D02*
X27077255Y-42954819D01*
X27077255Y-42954819D02*
X27077255Y-41954819D01*
X27762969Y-42050057D02*
X27805826Y-42002438D01*
X27805826Y-42002438D02*
X27891541Y-41954819D01*
X27891541Y-41954819D02*
X28105826Y-41954819D01*
X28105826Y-41954819D02*
X28191541Y-42002438D01*
X28191541Y-42002438D02*
X28234398Y-42050057D01*
X28234398Y-42050057D02*
X28277255Y-42145295D01*
X28277255Y-42145295D02*
X28277255Y-42240533D01*
X28277255Y-42240533D02*
X28234398Y-42383390D01*
X28234398Y-42383390D02*
X27720112Y-42954819D01*
X27720112Y-42954819D02*
X28277255Y-42954819D01*
X29348683Y-42954819D02*
X29348683Y-41954819D01*
X29348683Y-41954819D02*
X29862969Y-42954819D01*
X29862969Y-42954819D02*
X29862969Y-41954819D01*
X30805826Y-42859580D02*
X30762969Y-42907200D01*
X30762969Y-42907200D02*
X30634397Y-42954819D01*
X30634397Y-42954819D02*
X30548683Y-42954819D01*
X30548683Y-42954819D02*
X30420112Y-42907200D01*
X30420112Y-42907200D02*
X30334397Y-42811961D01*
X30334397Y-42811961D02*
X30291540Y-42716723D01*
X30291540Y-42716723D02*
X30248683Y-42526247D01*
X30248683Y-42526247D02*
X30248683Y-42383390D01*
X30248683Y-42383390D02*
X30291540Y-42192914D01*
X30291540Y-42192914D02*
X30334397Y-42097676D01*
X30334397Y-42097676D02*
X30420112Y-42002438D01*
X30420112Y-42002438D02*
X30548683Y-41954819D01*
X30548683Y-41954819D02*
X30634397Y-41954819D01*
X30634397Y-41954819D02*
X30762969Y-42002438D01*
X30762969Y-42002438D02*
X30805826Y-42050057D01*
X20477255Y-45454819D02*
X21077255Y-46454819D01*
X21077255Y-45454819D02*
X20477255Y-46454819D01*
X21891541Y-46454819D02*
X21377255Y-46454819D01*
X21634398Y-46454819D02*
X21634398Y-45454819D01*
X21634398Y-45454819D02*
X21548684Y-45597676D01*
X21548684Y-45597676D02*
X21462969Y-45692914D01*
X21462969Y-45692914D02*
X21377255Y-45740533D01*
X22191541Y-45454819D02*
X22748684Y-45454819D01*
X22748684Y-45454819D02*
X22448684Y-45835771D01*
X22448684Y-45835771D02*
X22577255Y-45835771D01*
X22577255Y-45835771D02*
X22662970Y-45883390D01*
X22662970Y-45883390D02*
X22705827Y-45931009D01*
X22705827Y-45931009D02*
X22748684Y-46026247D01*
X22748684Y-46026247D02*
X22748684Y-46264342D01*
X22748684Y-46264342D02*
X22705827Y-46359580D01*
X22705827Y-46359580D02*
X22662970Y-46407200D01*
X22662970Y-46407200D02*
X22577255Y-46454819D01*
X22577255Y-46454819D02*
X22320112Y-46454819D01*
X22320112Y-46454819D02*
X22234398Y-46407200D01*
X22234398Y-46407200D02*
X22191541Y-46359580D01*
X23134398Y-46359580D02*
X23177255Y-46407200D01*
X23177255Y-46407200D02*
X23134398Y-46454819D01*
X23134398Y-46454819D02*
X23091541Y-46407200D01*
X23091541Y-46407200D02*
X23134398Y-46359580D01*
X23134398Y-46359580D02*
X23134398Y-46454819D01*
X24034398Y-46454819D02*
X23520112Y-46454819D01*
X23777255Y-46454819D02*
X23777255Y-45454819D01*
X23777255Y-45454819D02*
X23691541Y-45597676D01*
X23691541Y-45597676D02*
X23605826Y-45692914D01*
X23605826Y-45692914D02*
X23520112Y-45740533D01*
X24420112Y-46073866D02*
X25105827Y-46073866D01*
X25491541Y-45550057D02*
X25534398Y-45502438D01*
X25534398Y-45502438D02*
X25620113Y-45454819D01*
X25620113Y-45454819D02*
X25834398Y-45454819D01*
X25834398Y-45454819D02*
X25920113Y-45502438D01*
X25920113Y-45502438D02*
X25962970Y-45550057D01*
X25962970Y-45550057D02*
X26005827Y-45645295D01*
X26005827Y-45645295D02*
X26005827Y-45740533D01*
X26005827Y-45740533D02*
X25962970Y-45883390D01*
X25962970Y-45883390D02*
X25448684Y-46454819D01*
X25448684Y-46454819D02*
X26005827Y-46454819D01*
X27505827Y-46454819D02*
X27077255Y-46454819D01*
X27077255Y-46454819D02*
X27077255Y-45454819D01*
X27762969Y-45550057D02*
X27805826Y-45502438D01*
X27805826Y-45502438D02*
X27891541Y-45454819D01*
X27891541Y-45454819D02*
X28105826Y-45454819D01*
X28105826Y-45454819D02*
X28191541Y-45502438D01*
X28191541Y-45502438D02*
X28234398Y-45550057D01*
X28234398Y-45550057D02*
X28277255Y-45645295D01*
X28277255Y-45645295D02*
X28277255Y-45740533D01*
X28277255Y-45740533D02*
X28234398Y-45883390D01*
X28234398Y-45883390D02*
X27720112Y-46454819D01*
X27720112Y-46454819D02*
X28277255Y-46454819D01*
X29348683Y-46454819D02*
X29348683Y-45454819D01*
X29348683Y-45454819D02*
X29862969Y-46454819D01*
X29862969Y-46454819D02*
X29862969Y-45454819D01*
X30805826Y-46359580D02*
X30762969Y-46407200D01*
X30762969Y-46407200D02*
X30634397Y-46454819D01*
X30634397Y-46454819D02*
X30548683Y-46454819D01*
X30548683Y-46454819D02*
X30420112Y-46407200D01*
X30420112Y-46407200D02*
X30334397Y-46311961D01*
X30334397Y-46311961D02*
X30291540Y-46216723D01*
X30291540Y-46216723D02*
X30248683Y-46026247D01*
X30248683Y-46026247D02*
X30248683Y-45883390D01*
X30248683Y-45883390D02*
X30291540Y-45692914D01*
X30291540Y-45692914D02*
X30334397Y-45597676D01*
X30334397Y-45597676D02*
X30420112Y-45502438D01*
X30420112Y-45502438D02*
X30548683Y-45454819D01*
X30548683Y-45454819D02*
X30634397Y-45454819D01*
X30634397Y-45454819D02*
X30762969Y-45502438D01*
X30762969Y-45502438D02*
X30805826Y-45550057D01*
X20477255Y-48954819D02*
X21077255Y-49954819D01*
X21077255Y-48954819D02*
X20477255Y-49954819D01*
X21891541Y-49954819D02*
X21377255Y-49954819D01*
X21634398Y-49954819D02*
X21634398Y-48954819D01*
X21634398Y-48954819D02*
X21548684Y-49097676D01*
X21548684Y-49097676D02*
X21462969Y-49192914D01*
X21462969Y-49192914D02*
X21377255Y-49240533D01*
X22234398Y-49050057D02*
X22277255Y-49002438D01*
X22277255Y-49002438D02*
X22362970Y-48954819D01*
X22362970Y-48954819D02*
X22577255Y-48954819D01*
X22577255Y-48954819D02*
X22662970Y-49002438D01*
X22662970Y-49002438D02*
X22705827Y-49050057D01*
X22705827Y-49050057D02*
X22748684Y-49145295D01*
X22748684Y-49145295D02*
X22748684Y-49240533D01*
X22748684Y-49240533D02*
X22705827Y-49383390D01*
X22705827Y-49383390D02*
X22191541Y-49954819D01*
X22191541Y-49954819D02*
X22748684Y-49954819D01*
X23134398Y-49859580D02*
X23177255Y-49907200D01*
X23177255Y-49907200D02*
X23134398Y-49954819D01*
X23134398Y-49954819D02*
X23091541Y-49907200D01*
X23091541Y-49907200D02*
X23134398Y-49859580D01*
X23134398Y-49859580D02*
X23134398Y-49954819D01*
X23477255Y-48954819D02*
X24034398Y-48954819D01*
X24034398Y-48954819D02*
X23734398Y-49335771D01*
X23734398Y-49335771D02*
X23862969Y-49335771D01*
X23862969Y-49335771D02*
X23948684Y-49383390D01*
X23948684Y-49383390D02*
X23991541Y-49431009D01*
X23991541Y-49431009D02*
X24034398Y-49526247D01*
X24034398Y-49526247D02*
X24034398Y-49764342D01*
X24034398Y-49764342D02*
X23991541Y-49859580D01*
X23991541Y-49859580D02*
X23948684Y-49907200D01*
X23948684Y-49907200D02*
X23862969Y-49954819D01*
X23862969Y-49954819D02*
X23605826Y-49954819D01*
X23605826Y-49954819D02*
X23520112Y-49907200D01*
X23520112Y-49907200D02*
X23477255Y-49859580D01*
X24420112Y-49573866D02*
X25105827Y-49573866D01*
X25920113Y-49288152D02*
X25920113Y-49954819D01*
X25705827Y-48907200D02*
X25491541Y-49621485D01*
X25491541Y-49621485D02*
X26048684Y-49621485D01*
X27505827Y-49954819D02*
X27077255Y-49954819D01*
X27077255Y-49954819D02*
X27077255Y-48954819D01*
X28277255Y-49954819D02*
X27762969Y-49954819D01*
X28020112Y-49954819D02*
X28020112Y-48954819D01*
X28020112Y-48954819D02*
X27934398Y-49097676D01*
X27934398Y-49097676D02*
X27848683Y-49192914D01*
X27848683Y-49192914D02*
X27762969Y-49240533D01*
X29348683Y-49954819D02*
X29348683Y-48954819D01*
X29348683Y-48954819D02*
X29862969Y-49954819D01*
X29862969Y-49954819D02*
X29862969Y-48954819D01*
X30805826Y-49859580D02*
X30762969Y-49907200D01*
X30762969Y-49907200D02*
X30634397Y-49954819D01*
X30634397Y-49954819D02*
X30548683Y-49954819D01*
X30548683Y-49954819D02*
X30420112Y-49907200D01*
X30420112Y-49907200D02*
X30334397Y-49811961D01*
X30334397Y-49811961D02*
X30291540Y-49716723D01*
X30291540Y-49716723D02*
X30248683Y-49526247D01*
X30248683Y-49526247D02*
X30248683Y-49383390D01*
X30248683Y-49383390D02*
X30291540Y-49192914D01*
X30291540Y-49192914D02*
X30334397Y-49097676D01*
X30334397Y-49097676D02*
X30420112Y-49002438D01*
X30420112Y-49002438D02*
X30548683Y-48954819D01*
X30548683Y-48954819D02*
X30634397Y-48954819D01*
X30634397Y-48954819D02*
X30762969Y-49002438D01*
X30762969Y-49002438D02*
X30805826Y-49050057D01*
X20477255Y-52454819D02*
X21077255Y-53454819D01*
X21077255Y-52454819D02*
X20477255Y-53454819D01*
X21891541Y-53454819D02*
X21377255Y-53454819D01*
X21634398Y-53454819D02*
X21634398Y-52454819D01*
X21634398Y-52454819D02*
X21548684Y-52597676D01*
X21548684Y-52597676D02*
X21462969Y-52692914D01*
X21462969Y-52692914D02*
X21377255Y-52740533D01*
X22234398Y-52550057D02*
X22277255Y-52502438D01*
X22277255Y-52502438D02*
X22362970Y-52454819D01*
X22362970Y-52454819D02*
X22577255Y-52454819D01*
X22577255Y-52454819D02*
X22662970Y-52502438D01*
X22662970Y-52502438D02*
X22705827Y-52550057D01*
X22705827Y-52550057D02*
X22748684Y-52645295D01*
X22748684Y-52645295D02*
X22748684Y-52740533D01*
X22748684Y-52740533D02*
X22705827Y-52883390D01*
X22705827Y-52883390D02*
X22191541Y-53454819D01*
X22191541Y-53454819D02*
X22748684Y-53454819D01*
X23134398Y-53359580D02*
X23177255Y-53407200D01*
X23177255Y-53407200D02*
X23134398Y-53454819D01*
X23134398Y-53454819D02*
X23091541Y-53407200D01*
X23091541Y-53407200D02*
X23134398Y-53359580D01*
X23134398Y-53359580D02*
X23134398Y-53454819D01*
X24034398Y-53454819D02*
X23520112Y-53454819D01*
X23777255Y-53454819D02*
X23777255Y-52454819D01*
X23777255Y-52454819D02*
X23691541Y-52597676D01*
X23691541Y-52597676D02*
X23605826Y-52692914D01*
X23605826Y-52692914D02*
X23520112Y-52740533D01*
X24420112Y-53073866D02*
X25105827Y-53073866D01*
X25491541Y-52550057D02*
X25534398Y-52502438D01*
X25534398Y-52502438D02*
X25620113Y-52454819D01*
X25620113Y-52454819D02*
X25834398Y-52454819D01*
X25834398Y-52454819D02*
X25920113Y-52502438D01*
X25920113Y-52502438D02*
X25962970Y-52550057D01*
X25962970Y-52550057D02*
X26005827Y-52645295D01*
X26005827Y-52645295D02*
X26005827Y-52740533D01*
X26005827Y-52740533D02*
X25962970Y-52883390D01*
X25962970Y-52883390D02*
X25448684Y-53454819D01*
X25448684Y-53454819D02*
X26005827Y-53454819D01*
X27505827Y-53454819D02*
X27077255Y-53454819D01*
X27077255Y-53454819D02*
X27077255Y-52454819D01*
X28277255Y-53454819D02*
X27762969Y-53454819D01*
X28020112Y-53454819D02*
X28020112Y-52454819D01*
X28020112Y-52454819D02*
X27934398Y-52597676D01*
X27934398Y-52597676D02*
X27848683Y-52692914D01*
X27848683Y-52692914D02*
X27762969Y-52740533D01*
X29348683Y-53454819D02*
X29348683Y-52454819D01*
X29348683Y-52454819D02*
X29862969Y-53454819D01*
X29862969Y-53454819D02*
X29862969Y-52454819D01*
X30805826Y-53359580D02*
X30762969Y-53407200D01*
X30762969Y-53407200D02*
X30634397Y-53454819D01*
X30634397Y-53454819D02*
X30548683Y-53454819D01*
X30548683Y-53454819D02*
X30420112Y-53407200D01*
X30420112Y-53407200D02*
X30334397Y-53311961D01*
X30334397Y-53311961D02*
X30291540Y-53216723D01*
X30291540Y-53216723D02*
X30248683Y-53026247D01*
X30248683Y-53026247D02*
X30248683Y-52883390D01*
X30248683Y-52883390D02*
X30291540Y-52692914D01*
X30291540Y-52692914D02*
X30334397Y-52597676D01*
X30334397Y-52597676D02*
X30420112Y-52502438D01*
X30420112Y-52502438D02*
X30548683Y-52454819D01*
X30548683Y-52454819D02*
X30634397Y-52454819D01*
X30634397Y-52454819D02*
X30762969Y-52502438D01*
X30762969Y-52502438D02*
X30805826Y-52550057D01*
X20477255Y-55954819D02*
X21077255Y-56954819D01*
X21077255Y-55954819D02*
X20477255Y-56954819D01*
X21891541Y-56954819D02*
X21377255Y-56954819D01*
X21634398Y-56954819D02*
X21634398Y-55954819D01*
X21634398Y-55954819D02*
X21548684Y-56097676D01*
X21548684Y-56097676D02*
X21462969Y-56192914D01*
X21462969Y-56192914D02*
X21377255Y-56240533D01*
X22705827Y-55954819D02*
X22277255Y-55954819D01*
X22277255Y-55954819D02*
X22234398Y-56431009D01*
X22234398Y-56431009D02*
X22277255Y-56383390D01*
X22277255Y-56383390D02*
X22362970Y-56335771D01*
X22362970Y-56335771D02*
X22577255Y-56335771D01*
X22577255Y-56335771D02*
X22662970Y-56383390D01*
X22662970Y-56383390D02*
X22705827Y-56431009D01*
X22705827Y-56431009D02*
X22748684Y-56526247D01*
X22748684Y-56526247D02*
X22748684Y-56764342D01*
X22748684Y-56764342D02*
X22705827Y-56859580D01*
X22705827Y-56859580D02*
X22662970Y-56907200D01*
X22662970Y-56907200D02*
X22577255Y-56954819D01*
X22577255Y-56954819D02*
X22362970Y-56954819D01*
X22362970Y-56954819D02*
X22277255Y-56907200D01*
X22277255Y-56907200D02*
X22234398Y-56859580D01*
X23134398Y-56859580D02*
X23177255Y-56907200D01*
X23177255Y-56907200D02*
X23134398Y-56954819D01*
X23134398Y-56954819D02*
X23091541Y-56907200D01*
X23091541Y-56907200D02*
X23134398Y-56859580D01*
X23134398Y-56859580D02*
X23134398Y-56954819D01*
X24034398Y-56954819D02*
X23520112Y-56954819D01*
X23777255Y-56954819D02*
X23777255Y-55954819D01*
X23777255Y-55954819D02*
X23691541Y-56097676D01*
X23691541Y-56097676D02*
X23605826Y-56192914D01*
X23605826Y-56192914D02*
X23520112Y-56240533D01*
X24420112Y-56573866D02*
X25105827Y-56573866D01*
X25491541Y-56050057D02*
X25534398Y-56002438D01*
X25534398Y-56002438D02*
X25620113Y-55954819D01*
X25620113Y-55954819D02*
X25834398Y-55954819D01*
X25834398Y-55954819D02*
X25920113Y-56002438D01*
X25920113Y-56002438D02*
X25962970Y-56050057D01*
X25962970Y-56050057D02*
X26005827Y-56145295D01*
X26005827Y-56145295D02*
X26005827Y-56240533D01*
X26005827Y-56240533D02*
X25962970Y-56383390D01*
X25962970Y-56383390D02*
X25448684Y-56954819D01*
X25448684Y-56954819D02*
X26005827Y-56954819D01*
X27077255Y-56954819D02*
X27077255Y-55954819D01*
X27591541Y-56954819D02*
X27205827Y-56383390D01*
X27591541Y-55954819D02*
X27077255Y-56526247D01*
X28405827Y-56954819D02*
X27977255Y-56954819D01*
X27977255Y-56954819D02*
X27977255Y-55954819D01*
X28705826Y-55954819D02*
X28705826Y-56764342D01*
X28705826Y-56764342D02*
X28748683Y-56859580D01*
X28748683Y-56859580D02*
X28791541Y-56907200D01*
X28791541Y-56907200D02*
X28877255Y-56954819D01*
X28877255Y-56954819D02*
X29048683Y-56954819D01*
X29048683Y-56954819D02*
X29134398Y-56907200D01*
X29134398Y-56907200D02*
X29177255Y-56859580D01*
X29177255Y-56859580D02*
X29220112Y-56764342D01*
X29220112Y-56764342D02*
X29220112Y-55954819D01*
X30162969Y-56859580D02*
X30120112Y-56907200D01*
X30120112Y-56907200D02*
X29991540Y-56954819D01*
X29991540Y-56954819D02*
X29905826Y-56954819D01*
X29905826Y-56954819D02*
X29777255Y-56907200D01*
X29777255Y-56907200D02*
X29691540Y-56811961D01*
X29691540Y-56811961D02*
X29648683Y-56716723D01*
X29648683Y-56716723D02*
X29605826Y-56526247D01*
X29605826Y-56526247D02*
X29605826Y-56383390D01*
X29605826Y-56383390D02*
X29648683Y-56192914D01*
X29648683Y-56192914D02*
X29691540Y-56097676D01*
X29691540Y-56097676D02*
X29777255Y-56002438D01*
X29777255Y-56002438D02*
X29905826Y-55954819D01*
X29905826Y-55954819D02*
X29991540Y-55954819D01*
X29991540Y-55954819D02*
X30120112Y-56002438D01*
X30120112Y-56002438D02*
X30162969Y-56050057D01*
X30462969Y-55954819D02*
X31062969Y-55954819D01*
X31062969Y-55954819D02*
X30462969Y-56954819D01*
X30462969Y-56954819D02*
X31062969Y-56954819D01*
X5077143Y-13784819D02*
X4562857Y-13784819D01*
X4820000Y-13784819D02*
X4820000Y-12784819D01*
X4820000Y-12784819D02*
X4734286Y-12927676D01*
X4734286Y-12927676D02*
X4648571Y-13022914D01*
X4648571Y-13022914D02*
X4562857Y-13070533D01*
X22099999Y-64131009D02*
X22399999Y-64131009D01*
X22528571Y-64654819D02*
X22099999Y-64654819D01*
X22099999Y-64654819D02*
X22099999Y-63654819D01*
X22099999Y-63654819D02*
X22528571Y-63654819D01*
X23385714Y-63702438D02*
X23300000Y-63654819D01*
X23300000Y-63654819D02*
X23171428Y-63654819D01*
X23171428Y-63654819D02*
X23042857Y-63702438D01*
X23042857Y-63702438D02*
X22957142Y-63797676D01*
X22957142Y-63797676D02*
X22914285Y-63892914D01*
X22914285Y-63892914D02*
X22871428Y-64083390D01*
X22871428Y-64083390D02*
X22871428Y-64226247D01*
X22871428Y-64226247D02*
X22914285Y-64416723D01*
X22914285Y-64416723D02*
X22957142Y-64511961D01*
X22957142Y-64511961D02*
X23042857Y-64607200D01*
X23042857Y-64607200D02*
X23171428Y-64654819D01*
X23171428Y-64654819D02*
X23257142Y-64654819D01*
X23257142Y-64654819D02*
X23385714Y-64607200D01*
X23385714Y-64607200D02*
X23428571Y-64559580D01*
X23428571Y-64559580D02*
X23428571Y-64226247D01*
X23428571Y-64226247D02*
X23257142Y-64226247D01*
X24328571Y-64654819D02*
X24028571Y-64178628D01*
X23814285Y-64654819D02*
X23814285Y-63654819D01*
X23814285Y-63654819D02*
X24157142Y-63654819D01*
X24157142Y-63654819D02*
X24242857Y-63702438D01*
X24242857Y-63702438D02*
X24285714Y-63750057D01*
X24285714Y-63750057D02*
X24328571Y-63845295D01*
X24328571Y-63845295D02*
X24328571Y-63988152D01*
X24328571Y-63988152D02*
X24285714Y-64083390D01*
X24285714Y-64083390D02*
X24242857Y-64131009D01*
X24242857Y-64131009D02*
X24157142Y-64178628D01*
X24157142Y-64178628D02*
X23814285Y-64178628D01*
X25142857Y-64654819D02*
X24714285Y-64654819D01*
X24714285Y-64654819D02*
X24714285Y-63654819D01*
X25828571Y-64654819D02*
X25828571Y-64131009D01*
X25828571Y-64131009D02*
X25785713Y-64035771D01*
X25785713Y-64035771D02*
X25699999Y-63988152D01*
X25699999Y-63988152D02*
X25528571Y-63988152D01*
X25528571Y-63988152D02*
X25442856Y-64035771D01*
X25828571Y-64607200D02*
X25742856Y-64654819D01*
X25742856Y-64654819D02*
X25528571Y-64654819D01*
X25528571Y-64654819D02*
X25442856Y-64607200D01*
X25442856Y-64607200D02*
X25399999Y-64511961D01*
X25399999Y-64511961D02*
X25399999Y-64416723D01*
X25399999Y-64416723D02*
X25442856Y-64321485D01*
X25442856Y-64321485D02*
X25528571Y-64273866D01*
X25528571Y-64273866D02*
X25742856Y-64273866D01*
X25742856Y-64273866D02*
X25828571Y-64226247D01*
X26257142Y-64654819D02*
X26257142Y-63654819D01*
X26257142Y-64035771D02*
X26342857Y-63988152D01*
X26342857Y-63988152D02*
X26514285Y-63988152D01*
X26514285Y-63988152D02*
X26599999Y-64035771D01*
X26599999Y-64035771D02*
X26642857Y-64083390D01*
X26642857Y-64083390D02*
X26685714Y-64178628D01*
X26685714Y-64178628D02*
X26685714Y-64464342D01*
X26685714Y-64464342D02*
X26642857Y-64559580D01*
X26642857Y-64559580D02*
X26599999Y-64607200D01*
X26599999Y-64607200D02*
X26514285Y-64654819D01*
X26514285Y-64654819D02*
X26342857Y-64654819D01*
X26342857Y-64654819D02*
X26257142Y-64607200D01*
X28228571Y-64654819D02*
X27714285Y-64654819D01*
X27971428Y-64654819D02*
X27971428Y-63654819D01*
X27971428Y-63654819D02*
X27885714Y-63797676D01*
X27885714Y-63797676D02*
X27799999Y-63892914D01*
X27799999Y-63892914D02*
X27714285Y-63940533D01*
X28785714Y-63654819D02*
X28871428Y-63654819D01*
X28871428Y-63654819D02*
X28957142Y-63702438D01*
X28957142Y-63702438D02*
X29000000Y-63750057D01*
X29000000Y-63750057D02*
X29042857Y-63845295D01*
X29042857Y-63845295D02*
X29085714Y-64035771D01*
X29085714Y-64035771D02*
X29085714Y-64273866D01*
X29085714Y-64273866D02*
X29042857Y-64464342D01*
X29042857Y-64464342D02*
X29000000Y-64559580D01*
X29000000Y-64559580D02*
X28957142Y-64607200D01*
X28957142Y-64607200D02*
X28871428Y-64654819D01*
X28871428Y-64654819D02*
X28785714Y-64654819D01*
X28785714Y-64654819D02*
X28700000Y-64607200D01*
X28700000Y-64607200D02*
X28657142Y-64559580D01*
X28657142Y-64559580D02*
X28614285Y-64464342D01*
X28614285Y-64464342D02*
X28571428Y-64273866D01*
X28571428Y-64273866D02*
X28571428Y-64035771D01*
X28571428Y-64035771D02*
X28614285Y-63845295D01*
X28614285Y-63845295D02*
X28657142Y-63750057D01*
X28657142Y-63750057D02*
X28700000Y-63702438D01*
X28700000Y-63702438D02*
X28785714Y-63654819D01*
X29471428Y-64559580D02*
X29514285Y-64607200D01*
X29514285Y-64607200D02*
X29471428Y-64654819D01*
X29471428Y-64654819D02*
X29428571Y-64607200D01*
X29428571Y-64607200D02*
X29471428Y-64559580D01*
X29471428Y-64559580D02*
X29471428Y-64654819D01*
X29857142Y-63750057D02*
X29899999Y-63702438D01*
X29899999Y-63702438D02*
X29985714Y-63654819D01*
X29985714Y-63654819D02*
X30199999Y-63654819D01*
X30199999Y-63654819D02*
X30285714Y-63702438D01*
X30285714Y-63702438D02*
X30328571Y-63750057D01*
X30328571Y-63750057D02*
X30371428Y-63845295D01*
X30371428Y-63845295D02*
X30371428Y-63940533D01*
X30371428Y-63940533D02*
X30328571Y-64083390D01*
X30328571Y-64083390D02*
X29814285Y-64654819D01*
X29814285Y-64654819D02*
X30371428Y-64654819D01*
X30928571Y-63654819D02*
X31014285Y-63654819D01*
X31014285Y-63654819D02*
X31099999Y-63702438D01*
X31099999Y-63702438D02*
X31142857Y-63750057D01*
X31142857Y-63750057D02*
X31185714Y-63845295D01*
X31185714Y-63845295D02*
X31228571Y-64035771D01*
X31228571Y-64035771D02*
X31228571Y-64273866D01*
X31228571Y-64273866D02*
X31185714Y-64464342D01*
X31185714Y-64464342D02*
X31142857Y-64559580D01*
X31142857Y-64559580D02*
X31099999Y-64607200D01*
X31099999Y-64607200D02*
X31014285Y-64654819D01*
X31014285Y-64654819D02*
X30928571Y-64654819D01*
X30928571Y-64654819D02*
X30842857Y-64607200D01*
X30842857Y-64607200D02*
X30799999Y-64559580D01*
X30799999Y-64559580D02*
X30757142Y-64464342D01*
X30757142Y-64464342D02*
X30714285Y-64273866D01*
X30714285Y-64273866D02*
X30714285Y-64035771D01*
X30714285Y-64035771D02*
X30757142Y-63845295D01*
X30757142Y-63845295D02*
X30799999Y-63750057D01*
X30799999Y-63750057D02*
X30842857Y-63702438D01*
X30842857Y-63702438D02*
X30928571Y-63654819D01*
X31571428Y-63750057D02*
X31614285Y-63702438D01*
X31614285Y-63702438D02*
X31700000Y-63654819D01*
X31700000Y-63654819D02*
X31914285Y-63654819D01*
X31914285Y-63654819D02*
X32000000Y-63702438D01*
X32000000Y-63702438D02*
X32042857Y-63750057D01*
X32042857Y-63750057D02*
X32085714Y-63845295D01*
X32085714Y-63845295D02*
X32085714Y-63940533D01*
X32085714Y-63940533D02*
X32042857Y-64083390D01*
X32042857Y-64083390D02*
X31528571Y-64654819D01*
X31528571Y-64654819D02*
X32085714Y-64654819D01*
X32857143Y-63654819D02*
X32685714Y-63654819D01*
X32685714Y-63654819D02*
X32600000Y-63702438D01*
X32600000Y-63702438D02*
X32557143Y-63750057D01*
X32557143Y-63750057D02*
X32471428Y-63892914D01*
X32471428Y-63892914D02*
X32428571Y-64083390D01*
X32428571Y-64083390D02*
X32428571Y-64464342D01*
X32428571Y-64464342D02*
X32471428Y-64559580D01*
X32471428Y-64559580D02*
X32514285Y-64607200D01*
X32514285Y-64607200D02*
X32600000Y-64654819D01*
X32600000Y-64654819D02*
X32771428Y-64654819D01*
X32771428Y-64654819D02*
X32857143Y-64607200D01*
X32857143Y-64607200D02*
X32900000Y-64559580D01*
X32900000Y-64559580D02*
X32942857Y-64464342D01*
X32942857Y-64464342D02*
X32942857Y-64226247D01*
X32942857Y-64226247D02*
X32900000Y-64131009D01*
X32900000Y-64131009D02*
X32857143Y-64083390D01*
X32857143Y-64083390D02*
X32771428Y-64035771D01*
X32771428Y-64035771D02*
X32600000Y-64035771D01*
X32600000Y-64035771D02*
X32514285Y-64083390D01*
X32514285Y-64083390D02*
X32471428Y-64131009D01*
X32471428Y-64131009D02*
X32428571Y-64226247D01*
X17320601Y-17079819D02*
X17020601Y-16603628D01*
X16806315Y-17079819D02*
X16806315Y-16079819D01*
X16806315Y-16079819D02*
X17149172Y-16079819D01*
X17149172Y-16079819D02*
X17234887Y-16127438D01*
X17234887Y-16127438D02*
X17277744Y-16175057D01*
X17277744Y-16175057D02*
X17320601Y-16270295D01*
X17320601Y-16270295D02*
X17320601Y-16413152D01*
X17320601Y-16413152D02*
X17277744Y-16508390D01*
X17277744Y-16508390D02*
X17234887Y-16556009D01*
X17234887Y-16556009D02*
X17149172Y-16603628D01*
X17149172Y-16603628D02*
X16806315Y-16603628D01*
X18177744Y-17079819D02*
X17663458Y-17079819D01*
X17920601Y-17079819D02*
X17920601Y-16079819D01*
X17920601Y-16079819D02*
X17834887Y-16222676D01*
X17834887Y-16222676D02*
X17749172Y-16317914D01*
X17749172Y-16317914D02*
X17663458Y-16365533D01*
X19720601Y-17079819D02*
X19206315Y-17079819D01*
X19463458Y-17079819D02*
X19463458Y-16079819D01*
X19463458Y-16079819D02*
X19377744Y-16222676D01*
X19377744Y-16222676D02*
X19292029Y-16317914D01*
X19292029Y-16317914D02*
X19206315Y-16365533D01*
X20277744Y-16079819D02*
X20363458Y-16079819D01*
X20363458Y-16079819D02*
X20449172Y-16127438D01*
X20449172Y-16127438D02*
X20492030Y-16175057D01*
X20492030Y-16175057D02*
X20534887Y-16270295D01*
X20534887Y-16270295D02*
X20577744Y-16460771D01*
X20577744Y-16460771D02*
X20577744Y-16698866D01*
X20577744Y-16698866D02*
X20534887Y-16889342D01*
X20534887Y-16889342D02*
X20492030Y-16984580D01*
X20492030Y-16984580D02*
X20449172Y-17032200D01*
X20449172Y-17032200D02*
X20363458Y-17079819D01*
X20363458Y-17079819D02*
X20277744Y-17079819D01*
X20277744Y-17079819D02*
X20192030Y-17032200D01*
X20192030Y-17032200D02*
X20149172Y-16984580D01*
X20149172Y-16984580D02*
X20106315Y-16889342D01*
X20106315Y-16889342D02*
X20063458Y-16698866D01*
X20063458Y-16698866D02*
X20063458Y-16460771D01*
X20063458Y-16460771D02*
X20106315Y-16270295D01*
X20106315Y-16270295D02*
X20149172Y-16175057D01*
X20149172Y-16175057D02*
X20192030Y-16127438D01*
X20192030Y-16127438D02*
X20277744Y-16079819D01*
X21134887Y-16079819D02*
X21220601Y-16079819D01*
X21220601Y-16079819D02*
X21306315Y-16127438D01*
X21306315Y-16127438D02*
X21349173Y-16175057D01*
X21349173Y-16175057D02*
X21392030Y-16270295D01*
X21392030Y-16270295D02*
X21434887Y-16460771D01*
X21434887Y-16460771D02*
X21434887Y-16698866D01*
X21434887Y-16698866D02*
X21392030Y-16889342D01*
X21392030Y-16889342D02*
X21349173Y-16984580D01*
X21349173Y-16984580D02*
X21306315Y-17032200D01*
X21306315Y-17032200D02*
X21220601Y-17079819D01*
X21220601Y-17079819D02*
X21134887Y-17079819D01*
X21134887Y-17079819D02*
X21049173Y-17032200D01*
X21049173Y-17032200D02*
X21006315Y-16984580D01*
X21006315Y-16984580D02*
X20963458Y-16889342D01*
X20963458Y-16889342D02*
X20920601Y-16698866D01*
X20920601Y-16698866D02*
X20920601Y-16460771D01*
X20920601Y-16460771D02*
X20963458Y-16270295D01*
X20963458Y-16270295D02*
X21006315Y-16175057D01*
X21006315Y-16175057D02*
X21049173Y-16127438D01*
X21049173Y-16127438D02*
X21134887Y-16079819D01*
X22334887Y-17079819D02*
X22034887Y-16603628D01*
X21820601Y-17079819D02*
X21820601Y-16079819D01*
X21820601Y-16079819D02*
X22163458Y-16079819D01*
X22163458Y-16079819D02*
X22249173Y-16127438D01*
X22249173Y-16127438D02*
X22292030Y-16175057D01*
X22292030Y-16175057D02*
X22334887Y-16270295D01*
X22334887Y-16270295D02*
X22334887Y-16413152D01*
X22334887Y-16413152D02*
X22292030Y-16508390D01*
X22292030Y-16508390D02*
X22249173Y-16556009D01*
X22249173Y-16556009D02*
X22163458Y-16603628D01*
X22163458Y-16603628D02*
X21820601Y-16603628D01*
X10849175Y-18779819D02*
X10420603Y-18779819D01*
X10420603Y-18779819D02*
X10420603Y-17779819D01*
X11320603Y-17779819D02*
X11492031Y-17779819D01*
X11492031Y-17779819D02*
X11577746Y-17827438D01*
X11577746Y-17827438D02*
X11663460Y-17922676D01*
X11663460Y-17922676D02*
X11706317Y-18113152D01*
X11706317Y-18113152D02*
X11706317Y-18446485D01*
X11706317Y-18446485D02*
X11663460Y-18636961D01*
X11663460Y-18636961D02*
X11577746Y-18732200D01*
X11577746Y-18732200D02*
X11492031Y-18779819D01*
X11492031Y-18779819D02*
X11320603Y-18779819D01*
X11320603Y-18779819D02*
X11234889Y-18732200D01*
X11234889Y-18732200D02*
X11149174Y-18636961D01*
X11149174Y-18636961D02*
X11106317Y-18446485D01*
X11106317Y-18446485D02*
X11106317Y-18113152D01*
X11106317Y-18113152D02*
X11149174Y-17922676D01*
X11149174Y-17922676D02*
X11234889Y-17827438D01*
X11234889Y-17827438D02*
X11320603Y-17779819D01*
X12563460Y-17827438D02*
X12477746Y-17779819D01*
X12477746Y-17779819D02*
X12349174Y-17779819D01*
X12349174Y-17779819D02*
X12220603Y-17827438D01*
X12220603Y-17827438D02*
X12134888Y-17922676D01*
X12134888Y-17922676D02*
X12092031Y-18017914D01*
X12092031Y-18017914D02*
X12049174Y-18208390D01*
X12049174Y-18208390D02*
X12049174Y-18351247D01*
X12049174Y-18351247D02*
X12092031Y-18541723D01*
X12092031Y-18541723D02*
X12134888Y-18636961D01*
X12134888Y-18636961D02*
X12220603Y-18732200D01*
X12220603Y-18732200D02*
X12349174Y-18779819D01*
X12349174Y-18779819D02*
X12434888Y-18779819D01*
X12434888Y-18779819D02*
X12563460Y-18732200D01*
X12563460Y-18732200D02*
X12606317Y-18684580D01*
X12606317Y-18684580D02*
X12606317Y-18351247D01*
X12606317Y-18351247D02*
X12434888Y-18351247D01*
X13463460Y-17827438D02*
X13377746Y-17779819D01*
X13377746Y-17779819D02*
X13249174Y-17779819D01*
X13249174Y-17779819D02*
X13120603Y-17827438D01*
X13120603Y-17827438D02*
X13034888Y-17922676D01*
X13034888Y-17922676D02*
X12992031Y-18017914D01*
X12992031Y-18017914D02*
X12949174Y-18208390D01*
X12949174Y-18208390D02*
X12949174Y-18351247D01*
X12949174Y-18351247D02*
X12992031Y-18541723D01*
X12992031Y-18541723D02*
X13034888Y-18636961D01*
X13034888Y-18636961D02*
X13120603Y-18732200D01*
X13120603Y-18732200D02*
X13249174Y-18779819D01*
X13249174Y-18779819D02*
X13334888Y-18779819D01*
X13334888Y-18779819D02*
X13463460Y-18732200D01*
X13463460Y-18732200D02*
X13506317Y-18684580D01*
X13506317Y-18684580D02*
X13506317Y-18351247D01*
X13506317Y-18351247D02*
X13334888Y-18351247D01*
X13892031Y-18256009D02*
X14192031Y-18256009D01*
X14320603Y-18779819D02*
X13892031Y-18779819D01*
X13892031Y-18779819D02*
X13892031Y-17779819D01*
X13892031Y-17779819D02*
X14320603Y-17779819D01*
X15220603Y-18779819D02*
X14920603Y-18303628D01*
X14706317Y-18779819D02*
X14706317Y-17779819D01*
X14706317Y-17779819D02*
X15049174Y-17779819D01*
X15049174Y-17779819D02*
X15134889Y-17827438D01*
X15134889Y-17827438D02*
X15177746Y-17875057D01*
X15177746Y-17875057D02*
X15220603Y-17970295D01*
X15220603Y-17970295D02*
X15220603Y-18113152D01*
X15220603Y-18113152D02*
X15177746Y-18208390D01*
X15177746Y-18208390D02*
X15134889Y-18256009D01*
X15134889Y-18256009D02*
X15049174Y-18303628D01*
X15049174Y-18303628D02*
X14706317Y-18303628D01*
X15606317Y-18684580D02*
X15649174Y-18732200D01*
X15649174Y-18732200D02*
X15606317Y-18779819D01*
X15606317Y-18779819D02*
X15563460Y-18732200D01*
X15563460Y-18732200D02*
X15606317Y-18684580D01*
X15606317Y-18684580D02*
X15606317Y-18779819D01*
X15606317Y-18160771D02*
X15649174Y-18208390D01*
X15649174Y-18208390D02*
X15606317Y-18256009D01*
X15606317Y-18256009D02*
X15563460Y-18208390D01*
X15563460Y-18208390D02*
X15606317Y-18160771D01*
X15606317Y-18160771D02*
X15606317Y-18256009D01*
X17149174Y-18779819D02*
X16720602Y-18779819D01*
X16720602Y-18779819D02*
X16720602Y-17779819D01*
X17449173Y-17779819D02*
X17449173Y-18589342D01*
X17449173Y-18589342D02*
X17492030Y-18684580D01*
X17492030Y-18684580D02*
X17534888Y-18732200D01*
X17534888Y-18732200D02*
X17620602Y-18779819D01*
X17620602Y-18779819D02*
X17792030Y-18779819D01*
X17792030Y-18779819D02*
X17877745Y-18732200D01*
X17877745Y-18732200D02*
X17920602Y-18684580D01*
X17920602Y-18684580D02*
X17963459Y-18589342D01*
X17963459Y-18589342D02*
X17963459Y-17779819D01*
X18263459Y-17779819D02*
X18777745Y-17779819D01*
X18520602Y-18779819D02*
X18520602Y-17779819D01*
X19249173Y-17779819D02*
X19420601Y-17779819D01*
X19420601Y-17779819D02*
X19506316Y-17827438D01*
X19506316Y-17827438D02*
X19592030Y-17922676D01*
X19592030Y-17922676D02*
X19634887Y-18113152D01*
X19634887Y-18113152D02*
X19634887Y-18446485D01*
X19634887Y-18446485D02*
X19592030Y-18636961D01*
X19592030Y-18636961D02*
X19506316Y-18732200D01*
X19506316Y-18732200D02*
X19420601Y-18779819D01*
X19420601Y-18779819D02*
X19249173Y-18779819D01*
X19249173Y-18779819D02*
X19163459Y-18732200D01*
X19163459Y-18732200D02*
X19077744Y-18636961D01*
X19077744Y-18636961D02*
X19034887Y-18446485D01*
X19034887Y-18446485D02*
X19034887Y-18113152D01*
X19034887Y-18113152D02*
X19077744Y-17922676D01*
X19077744Y-17922676D02*
X19163459Y-17827438D01*
X19163459Y-17827438D02*
X19249173Y-17779819D01*
X19934887Y-17779819D02*
X20149173Y-18779819D01*
X20149173Y-18779819D02*
X20320601Y-18065533D01*
X20320601Y-18065533D02*
X20492030Y-18779819D01*
X20492030Y-18779819D02*
X20706316Y-17779819D01*
X21006315Y-18494104D02*
X21434887Y-18494104D01*
X20920601Y-18779819D02*
X21220601Y-17779819D01*
X21220601Y-17779819D02*
X21520601Y-18779819D01*
X22334887Y-18684580D02*
X22292030Y-18732200D01*
X22292030Y-18732200D02*
X22163458Y-18779819D01*
X22163458Y-18779819D02*
X22077744Y-18779819D01*
X22077744Y-18779819D02*
X21949173Y-18732200D01*
X21949173Y-18732200D02*
X21863458Y-18636961D01*
X21863458Y-18636961D02*
X21820601Y-18541723D01*
X21820601Y-18541723D02*
X21777744Y-18351247D01*
X21777744Y-18351247D02*
X21777744Y-18208390D01*
X21777744Y-18208390D02*
X21820601Y-18017914D01*
X21820601Y-18017914D02*
X21863458Y-17922676D01*
X21863458Y-17922676D02*
X21949173Y-17827438D01*
X21949173Y-17827438D02*
X22077744Y-17779819D01*
X22077744Y-17779819D02*
X22163458Y-17779819D01*
X22163458Y-17779819D02*
X22292030Y-17827438D01*
X22292030Y-17827438D02*
X22334887Y-17875057D01*
X14620602Y-19479819D02*
X15220602Y-19479819D01*
X15220602Y-19479819D02*
X14620602Y-20479819D01*
X14620602Y-20479819D02*
X15220602Y-20479819D01*
X16249173Y-20479819D02*
X16249173Y-19479819D01*
X16249173Y-19479819D02*
X16592030Y-19479819D01*
X16592030Y-19479819D02*
X16677745Y-19527438D01*
X16677745Y-19527438D02*
X16720602Y-19575057D01*
X16720602Y-19575057D02*
X16763459Y-19670295D01*
X16763459Y-19670295D02*
X16763459Y-19813152D01*
X16763459Y-19813152D02*
X16720602Y-19908390D01*
X16720602Y-19908390D02*
X16677745Y-19956009D01*
X16677745Y-19956009D02*
X16592030Y-20003628D01*
X16592030Y-20003628D02*
X16249173Y-20003628D01*
X17320602Y-19479819D02*
X17406316Y-19479819D01*
X17406316Y-19479819D02*
X17492030Y-19527438D01*
X17492030Y-19527438D02*
X17534888Y-19575057D01*
X17534888Y-19575057D02*
X17577745Y-19670295D01*
X17577745Y-19670295D02*
X17620602Y-19860771D01*
X17620602Y-19860771D02*
X17620602Y-20098866D01*
X17620602Y-20098866D02*
X17577745Y-20289342D01*
X17577745Y-20289342D02*
X17534888Y-20384580D01*
X17534888Y-20384580D02*
X17492030Y-20432200D01*
X17492030Y-20432200D02*
X17406316Y-20479819D01*
X17406316Y-20479819D02*
X17320602Y-20479819D01*
X17320602Y-20479819D02*
X17234888Y-20432200D01*
X17234888Y-20432200D02*
X17192030Y-20384580D01*
X17192030Y-20384580D02*
X17149173Y-20289342D01*
X17149173Y-20289342D02*
X17106316Y-20098866D01*
X17106316Y-20098866D02*
X17106316Y-19860771D01*
X17106316Y-19860771D02*
X17149173Y-19670295D01*
X17149173Y-19670295D02*
X17192030Y-19575057D01*
X17192030Y-19575057D02*
X17234888Y-19527438D01*
X17234888Y-19527438D02*
X17320602Y-19479819D01*
X18392031Y-19813152D02*
X18392031Y-20479819D01*
X18177745Y-19432200D02*
X17963459Y-20146485D01*
X17963459Y-20146485D02*
X18520602Y-20146485D01*
X18863459Y-20384580D02*
X18906316Y-20432200D01*
X18906316Y-20432200D02*
X18863459Y-20479819D01*
X18863459Y-20479819D02*
X18820602Y-20432200D01*
X18820602Y-20432200D02*
X18863459Y-20384580D01*
X18863459Y-20384580D02*
X18863459Y-20479819D01*
X18863459Y-19860771D02*
X18906316Y-19908390D01*
X18906316Y-19908390D02*
X18863459Y-19956009D01*
X18863459Y-19956009D02*
X18820602Y-19908390D01*
X18820602Y-19908390D02*
X18863459Y-19860771D01*
X18863459Y-19860771D02*
X18863459Y-19956009D01*
X19977744Y-20479819D02*
X19977744Y-19479819D01*
X19977744Y-19479819D02*
X20192030Y-19479819D01*
X20192030Y-19479819D02*
X20320601Y-19527438D01*
X20320601Y-19527438D02*
X20406316Y-19622676D01*
X20406316Y-19622676D02*
X20449173Y-19717914D01*
X20449173Y-19717914D02*
X20492030Y-19908390D01*
X20492030Y-19908390D02*
X20492030Y-20051247D01*
X20492030Y-20051247D02*
X20449173Y-20241723D01*
X20449173Y-20241723D02*
X20406316Y-20336961D01*
X20406316Y-20336961D02*
X20320601Y-20432200D01*
X20320601Y-20432200D02*
X20192030Y-20479819D01*
X20192030Y-20479819D02*
X19977744Y-20479819D01*
X20877744Y-20479819D02*
X20877744Y-19479819D01*
X20877744Y-19479819D02*
X21392030Y-20479819D01*
X21392030Y-20479819D02*
X21392030Y-19479819D01*
X21820601Y-20479819D02*
X21820601Y-19479819D01*
X21820601Y-19479819D02*
X22163458Y-19479819D01*
X22163458Y-19479819D02*
X22249173Y-19527438D01*
X22249173Y-19527438D02*
X22292030Y-19575057D01*
X22292030Y-19575057D02*
X22334887Y-19670295D01*
X22334887Y-19670295D02*
X22334887Y-19813152D01*
X22334887Y-19813152D02*
X22292030Y-19908390D01*
X22292030Y-19908390D02*
X22249173Y-19956009D01*
X22249173Y-19956009D02*
X22163458Y-20003628D01*
X22163458Y-20003628D02*
X21820601Y-20003628D01*
X1907200Y-74771428D02*
X1954819Y-74642857D01*
X1954819Y-74642857D02*
X1954819Y-74428571D01*
X1954819Y-74428571D02*
X1907200Y-74342857D01*
X1907200Y-74342857D02*
X1859580Y-74299999D01*
X1859580Y-74299999D02*
X1764342Y-74257142D01*
X1764342Y-74257142D02*
X1669104Y-74257142D01*
X1669104Y-74257142D02*
X1573866Y-74299999D01*
X1573866Y-74299999D02*
X1526247Y-74342857D01*
X1526247Y-74342857D02*
X1478628Y-74428571D01*
X1478628Y-74428571D02*
X1431009Y-74599999D01*
X1431009Y-74599999D02*
X1383390Y-74685714D01*
X1383390Y-74685714D02*
X1335771Y-74728571D01*
X1335771Y-74728571D02*
X1240533Y-74771428D01*
X1240533Y-74771428D02*
X1145295Y-74771428D01*
X1145295Y-74771428D02*
X1050057Y-74728571D01*
X1050057Y-74728571D02*
X1002438Y-74685714D01*
X1002438Y-74685714D02*
X954819Y-74599999D01*
X954819Y-74599999D02*
X954819Y-74385714D01*
X954819Y-74385714D02*
X1002438Y-74257142D01*
X954819Y-73999999D02*
X954819Y-73485714D01*
X1954819Y-73742856D02*
X954819Y-73742856D01*
X1954819Y-72671428D02*
X1478628Y-72971428D01*
X1954819Y-73185714D02*
X954819Y-73185714D01*
X954819Y-73185714D02*
X954819Y-72842857D01*
X954819Y-72842857D02*
X1002438Y-72757142D01*
X1002438Y-72757142D02*
X1050057Y-72714285D01*
X1050057Y-72714285D02*
X1145295Y-72671428D01*
X1145295Y-72671428D02*
X1288152Y-72671428D01*
X1288152Y-72671428D02*
X1383390Y-72714285D01*
X1383390Y-72714285D02*
X1431009Y-72757142D01*
X1431009Y-72757142D02*
X1478628Y-72842857D01*
X1478628Y-72842857D02*
X1478628Y-73185714D01*
X954819Y-72114285D02*
X954819Y-71942857D01*
X954819Y-71942857D02*
X1002438Y-71857142D01*
X1002438Y-71857142D02*
X1097676Y-71771428D01*
X1097676Y-71771428D02*
X1288152Y-71728571D01*
X1288152Y-71728571D02*
X1621485Y-71728571D01*
X1621485Y-71728571D02*
X1811961Y-71771428D01*
X1811961Y-71771428D02*
X1907200Y-71857142D01*
X1907200Y-71857142D02*
X1954819Y-71942857D01*
X1954819Y-71942857D02*
X1954819Y-72114285D01*
X1954819Y-72114285D02*
X1907200Y-72200000D01*
X1907200Y-72200000D02*
X1811961Y-72285714D01*
X1811961Y-72285714D02*
X1621485Y-72328571D01*
X1621485Y-72328571D02*
X1288152Y-72328571D01*
X1288152Y-72328571D02*
X1097676Y-72285714D01*
X1097676Y-72285714D02*
X1002438Y-72200000D01*
X1002438Y-72200000D02*
X954819Y-72114285D01*
X1954819Y-71342857D02*
X954819Y-71342857D01*
X954819Y-71342857D02*
X1954819Y-70828571D01*
X1954819Y-70828571D02*
X954819Y-70828571D01*
X1669104Y-70442857D02*
X1669104Y-70014286D01*
X1954819Y-70528571D02*
X954819Y-70228571D01*
X954819Y-70228571D02*
X1954819Y-69928571D01*
X1954819Y-68942857D02*
X954819Y-68942857D01*
X954819Y-68942857D02*
X954819Y-68600000D01*
X954819Y-68600000D02*
X1002438Y-68514285D01*
X1002438Y-68514285D02*
X1050057Y-68471428D01*
X1050057Y-68471428D02*
X1145295Y-68428571D01*
X1145295Y-68428571D02*
X1288152Y-68428571D01*
X1288152Y-68428571D02*
X1383390Y-68471428D01*
X1383390Y-68471428D02*
X1431009Y-68514285D01*
X1431009Y-68514285D02*
X1478628Y-68600000D01*
X1478628Y-68600000D02*
X1478628Y-68942857D01*
X1669104Y-68085714D02*
X1669104Y-67657143D01*
X1954819Y-68171428D02*
X954819Y-67871428D01*
X954819Y-67871428D02*
X1954819Y-67571428D01*
X1954819Y-67271428D02*
X954819Y-67271428D01*
X954819Y-67271428D02*
X1954819Y-66757142D01*
X1954819Y-66757142D02*
X954819Y-66757142D01*
X1431009Y-66328571D02*
X1431009Y-66028571D01*
X1954819Y-65899999D02*
X1954819Y-66328571D01*
X1954819Y-66328571D02*
X954819Y-66328571D01*
X954819Y-66328571D02*
X954819Y-65899999D01*
X1954819Y-65085713D02*
X1954819Y-65514285D01*
X1954819Y-65514285D02*
X954819Y-65514285D01*
X954819Y-64785714D02*
X1764342Y-64785714D01*
X1764342Y-64785714D02*
X1859580Y-64742857D01*
X1859580Y-64742857D02*
X1907200Y-64700000D01*
X1907200Y-64700000D02*
X1954819Y-64614285D01*
X1954819Y-64614285D02*
X1954819Y-64442857D01*
X1954819Y-64442857D02*
X1907200Y-64357142D01*
X1907200Y-64357142D02*
X1859580Y-64314285D01*
X1859580Y-64314285D02*
X1764342Y-64271428D01*
X1764342Y-64271428D02*
X954819Y-64271428D01*
X21817143Y-62547342D02*
X21817143Y-61347342D01*
X21817143Y-61347342D02*
X22228572Y-61347342D01*
X22228572Y-61347342D02*
X22331429Y-61404485D01*
X22331429Y-61404485D02*
X22382858Y-61461628D01*
X22382858Y-61461628D02*
X22434286Y-61575914D01*
X22434286Y-61575914D02*
X22434286Y-61747342D01*
X22434286Y-61747342D02*
X22382858Y-61861628D01*
X22382858Y-61861628D02*
X22331429Y-61918771D01*
X22331429Y-61918771D02*
X22228572Y-61975914D01*
X22228572Y-61975914D02*
X21817143Y-61975914D01*
X23462858Y-62547342D02*
X22845715Y-62547342D01*
X23154286Y-62547342D02*
X23154286Y-61347342D01*
X23154286Y-61347342D02*
X23051429Y-61518771D01*
X23051429Y-61518771D02*
X22948572Y-61633057D01*
X22948572Y-61633057D02*
X22845715Y-61690200D01*
X24491429Y-62547342D02*
X23874286Y-62547342D01*
X24182857Y-62547342D02*
X24182857Y-61347342D01*
X24182857Y-61347342D02*
X24080000Y-61518771D01*
X24080000Y-61518771D02*
X23977143Y-61633057D01*
X23977143Y-61633057D02*
X23874286Y-61690200D01*
X26394285Y-62547342D02*
X26034285Y-61975914D01*
X25777142Y-62547342D02*
X25777142Y-61347342D01*
X25777142Y-61347342D02*
X26188571Y-61347342D01*
X26188571Y-61347342D02*
X26291428Y-61404485D01*
X26291428Y-61404485D02*
X26342857Y-61461628D01*
X26342857Y-61461628D02*
X26394285Y-61575914D01*
X26394285Y-61575914D02*
X26394285Y-61747342D01*
X26394285Y-61747342D02*
X26342857Y-61861628D01*
X26342857Y-61861628D02*
X26291428Y-61918771D01*
X26291428Y-61918771D02*
X26188571Y-61975914D01*
X26188571Y-61975914D02*
X25777142Y-61975914D01*
X26805714Y-61461628D02*
X26857142Y-61404485D01*
X26857142Y-61404485D02*
X26960000Y-61347342D01*
X26960000Y-61347342D02*
X27217142Y-61347342D01*
X27217142Y-61347342D02*
X27320000Y-61404485D01*
X27320000Y-61404485D02*
X27371428Y-61461628D01*
X27371428Y-61461628D02*
X27422857Y-61575914D01*
X27422857Y-61575914D02*
X27422857Y-61690200D01*
X27422857Y-61690200D02*
X27371428Y-61861628D01*
X27371428Y-61861628D02*
X26754285Y-62547342D01*
X26754285Y-62547342D02*
X27422857Y-62547342D01*
X28708570Y-62547342D02*
X28708570Y-61347342D01*
X28708570Y-61347342D02*
X29119999Y-61347342D01*
X29119999Y-61347342D02*
X29222856Y-61404485D01*
X29222856Y-61404485D02*
X29274285Y-61461628D01*
X29274285Y-61461628D02*
X29325713Y-61575914D01*
X29325713Y-61575914D02*
X29325713Y-61747342D01*
X29325713Y-61747342D02*
X29274285Y-61861628D01*
X29274285Y-61861628D02*
X29222856Y-61918771D01*
X29222856Y-61918771D02*
X29119999Y-61975914D01*
X29119999Y-61975914D02*
X28708570Y-61975914D01*
X29737142Y-62204485D02*
X30251428Y-62204485D01*
X29634285Y-62547342D02*
X29994285Y-61347342D01*
X29994285Y-61347342D02*
X30354285Y-62547342D01*
X30714284Y-62547342D02*
X30714284Y-61347342D01*
X30714284Y-61347342D02*
X31331427Y-62547342D01*
X31331427Y-62547342D02*
X31331427Y-61347342D01*
X31845713Y-61918771D02*
X32205713Y-61918771D01*
X32359999Y-62547342D02*
X31845713Y-62547342D01*
X31845713Y-62547342D02*
X31845713Y-61347342D01*
X31845713Y-61347342D02*
X32359999Y-61347342D01*
X33337142Y-62547342D02*
X32822856Y-62547342D01*
X32822856Y-62547342D02*
X32822856Y-61347342D01*
X9616666Y-69204819D02*
X9616666Y-69919104D01*
X9616666Y-69919104D02*
X9569047Y-70061961D01*
X9569047Y-70061961D02*
X9473809Y-70157200D01*
X9473809Y-70157200D02*
X9330952Y-70204819D01*
X9330952Y-70204819D02*
X9235714Y-70204819D01*
X10235714Y-69633390D02*
X10140476Y-69585771D01*
X10140476Y-69585771D02*
X10092857Y-69538152D01*
X10092857Y-69538152D02*
X10045238Y-69442914D01*
X10045238Y-69442914D02*
X10045238Y-69395295D01*
X10045238Y-69395295D02*
X10092857Y-69300057D01*
X10092857Y-69300057D02*
X10140476Y-69252438D01*
X10140476Y-69252438D02*
X10235714Y-69204819D01*
X10235714Y-69204819D02*
X10426190Y-69204819D01*
X10426190Y-69204819D02*
X10521428Y-69252438D01*
X10521428Y-69252438D02*
X10569047Y-69300057D01*
X10569047Y-69300057D02*
X10616666Y-69395295D01*
X10616666Y-69395295D02*
X10616666Y-69442914D01*
X10616666Y-69442914D02*
X10569047Y-69538152D01*
X10569047Y-69538152D02*
X10521428Y-69585771D01*
X10521428Y-69585771D02*
X10426190Y-69633390D01*
X10426190Y-69633390D02*
X10235714Y-69633390D01*
X10235714Y-69633390D02*
X10140476Y-69681009D01*
X10140476Y-69681009D02*
X10092857Y-69728628D01*
X10092857Y-69728628D02*
X10045238Y-69823866D01*
X10045238Y-69823866D02*
X10045238Y-70014342D01*
X10045238Y-70014342D02*
X10092857Y-70109580D01*
X10092857Y-70109580D02*
X10140476Y-70157200D01*
X10140476Y-70157200D02*
X10235714Y-70204819D01*
X10235714Y-70204819D02*
X10426190Y-70204819D01*
X10426190Y-70204819D02*
X10521428Y-70157200D01*
X10521428Y-70157200D02*
X10569047Y-70109580D01*
X10569047Y-70109580D02*
X10616666Y-70014342D01*
X10616666Y-70014342D02*
X10616666Y-69823866D01*
X10616666Y-69823866D02*
X10569047Y-69728628D01*
X10569047Y-69728628D02*
X10521428Y-69681009D01*
X10521428Y-69681009D02*
X10426190Y-69633390D01*
X9616666Y-84204819D02*
X9616666Y-84919104D01*
X9616666Y-84919104D02*
X9569047Y-85061961D01*
X9569047Y-85061961D02*
X9473809Y-85157200D01*
X9473809Y-85157200D02*
X9330952Y-85204819D01*
X9330952Y-85204819D02*
X9235714Y-85204819D01*
X10521428Y-84204819D02*
X10330952Y-84204819D01*
X10330952Y-84204819D02*
X10235714Y-84252438D01*
X10235714Y-84252438D02*
X10188095Y-84300057D01*
X10188095Y-84300057D02*
X10092857Y-84442914D01*
X10092857Y-84442914D02*
X10045238Y-84633390D01*
X10045238Y-84633390D02*
X10045238Y-85014342D01*
X10045238Y-85014342D02*
X10092857Y-85109580D01*
X10092857Y-85109580D02*
X10140476Y-85157200D01*
X10140476Y-85157200D02*
X10235714Y-85204819D01*
X10235714Y-85204819D02*
X10426190Y-85204819D01*
X10426190Y-85204819D02*
X10521428Y-85157200D01*
X10521428Y-85157200D02*
X10569047Y-85109580D01*
X10569047Y-85109580D02*
X10616666Y-85014342D01*
X10616666Y-85014342D02*
X10616666Y-84776247D01*
X10616666Y-84776247D02*
X10569047Y-84681009D01*
X10569047Y-84681009D02*
X10521428Y-84633390D01*
X10521428Y-84633390D02*
X10426190Y-84585771D01*
X10426190Y-84585771D02*
X10235714Y-84585771D01*
X10235714Y-84585771D02*
X10140476Y-84633390D01*
X10140476Y-84633390D02*
X10092857Y-84681009D01*
X10092857Y-84681009D02*
X10045238Y-84776247D01*
X9309523Y-14904819D02*
X9309523Y-15619104D01*
X9309523Y-15619104D02*
X9261904Y-15761961D01*
X9261904Y-15761961D02*
X9166666Y-15857200D01*
X9166666Y-15857200D02*
X9023809Y-15904819D01*
X9023809Y-15904819D02*
X8928571Y-15904819D01*
X9547619Y-16000057D02*
X10309523Y-16000057D01*
X10547619Y-15904819D02*
X10547619Y-14904819D01*
X10547619Y-14904819D02*
X10928571Y-14904819D01*
X10928571Y-14904819D02*
X11023809Y-14952438D01*
X11023809Y-14952438D02*
X11071428Y-15000057D01*
X11071428Y-15000057D02*
X11119047Y-15095295D01*
X11119047Y-15095295D02*
X11119047Y-15238152D01*
X11119047Y-15238152D02*
X11071428Y-15333390D01*
X11071428Y-15333390D02*
X11023809Y-15381009D01*
X11023809Y-15381009D02*
X10928571Y-15428628D01*
X10928571Y-15428628D02*
X10547619Y-15428628D01*
X12071428Y-15904819D02*
X11500000Y-15904819D01*
X11785714Y-15904819D02*
X11785714Y-14904819D01*
X11785714Y-14904819D02*
X11690476Y-15047676D01*
X11690476Y-15047676D02*
X11595238Y-15142914D01*
X11595238Y-15142914D02*
X11500000Y-15190533D01*
X12452381Y-15000057D02*
X12500000Y-14952438D01*
X12500000Y-14952438D02*
X12595238Y-14904819D01*
X12595238Y-14904819D02*
X12833333Y-14904819D01*
X12833333Y-14904819D02*
X12928571Y-14952438D01*
X12928571Y-14952438D02*
X12976190Y-15000057D01*
X12976190Y-15000057D02*
X13023809Y-15095295D01*
X13023809Y-15095295D02*
X13023809Y-15190533D01*
X13023809Y-15190533D02*
X12976190Y-15333390D01*
X12976190Y-15333390D02*
X12404762Y-15904819D01*
X12404762Y-15904819D02*
X13023809Y-15904819D01*
X10890476Y-41954819D02*
X10890476Y-42669104D01*
X10890476Y-42669104D02*
X10842857Y-42811961D01*
X10842857Y-42811961D02*
X10747619Y-42907200D01*
X10747619Y-42907200D02*
X10604762Y-42954819D01*
X10604762Y-42954819D02*
X10509524Y-42954819D01*
X11890476Y-42954819D02*
X11319048Y-42954819D01*
X11604762Y-42954819D02*
X11604762Y-41954819D01*
X11604762Y-41954819D02*
X11509524Y-42097676D01*
X11509524Y-42097676D02*
X11414286Y-42192914D01*
X11414286Y-42192914D02*
X11319048Y-42240533D01*
X12842857Y-42954819D02*
X12271429Y-42954819D01*
X12557143Y-42954819D02*
X12557143Y-41954819D01*
X12557143Y-41954819D02*
X12461905Y-42097676D01*
X12461905Y-42097676D02*
X12366667Y-42192914D01*
X12366667Y-42192914D02*
X12271429Y-42240533D01*
X25333333Y-20854819D02*
X25000000Y-20378628D01*
X24761905Y-20854819D02*
X24761905Y-19854819D01*
X24761905Y-19854819D02*
X25142857Y-19854819D01*
X25142857Y-19854819D02*
X25238095Y-19902438D01*
X25238095Y-19902438D02*
X25285714Y-19950057D01*
X25285714Y-19950057D02*
X25333333Y-20045295D01*
X25333333Y-20045295D02*
X25333333Y-20188152D01*
X25333333Y-20188152D02*
X25285714Y-20283390D01*
X25285714Y-20283390D02*
X25238095Y-20331009D01*
X25238095Y-20331009D02*
X25142857Y-20378628D01*
X25142857Y-20378628D02*
X24761905Y-20378628D01*
X26285714Y-20854819D02*
X25714286Y-20854819D01*
X26000000Y-20854819D02*
X26000000Y-19854819D01*
X26000000Y-19854819D02*
X25904762Y-19997676D01*
X25904762Y-19997676D02*
X25809524Y-20092914D01*
X25809524Y-20092914D02*
X25714286Y-20140533D01*
%TO.C,J_P12*%
D11*
X6070000Y-15680000D02*
X7070000Y-15680000D01*
X6570000Y-14680000D02*
X6070000Y-15680000D01*
X7070000Y-15680000D02*
X6570000Y-14680000D01*
X34640000Y-9060000D02*
X1360000Y-9060000D01*
%TO.C,R1*%
X26227064Y-16690000D02*
X24772936Y-16690000D01*
X26227064Y-18510000D02*
X24772936Y-18510000D01*
%TD*%
%LPC*%
G36*
X4873513Y-88444208D02*
G01*
X5112293Y-88521793D01*
X5335998Y-88635776D01*
X5539117Y-88783350D01*
X5716650Y-88960883D01*
X5864224Y-89164002D01*
X5978207Y-89387707D01*
X6055792Y-89626487D01*
X6095068Y-89874465D01*
X6095068Y-90125535D01*
X6055792Y-90373513D01*
X5978207Y-90612293D01*
X5864224Y-90835998D01*
X5716650Y-91039117D01*
X5539117Y-91216650D01*
X5335998Y-91364224D01*
X5112293Y-91478207D01*
X4873513Y-91555792D01*
X4625535Y-91595068D01*
X4374465Y-91595068D01*
X4126487Y-91555792D01*
X3887707Y-91478207D01*
X3664002Y-91364224D01*
X3460883Y-91216650D01*
X3283350Y-91039117D01*
X3135776Y-90835998D01*
X3021793Y-90612293D01*
X2944208Y-90373513D01*
X2904932Y-90125535D01*
X2904932Y-89874465D01*
X2944208Y-89626487D01*
X3021793Y-89387707D01*
X3135776Y-89164002D01*
X3283350Y-88960883D01*
X3460883Y-88783350D01*
X3664002Y-88635776D01*
X3887707Y-88521793D01*
X4126487Y-88444208D01*
X4374465Y-88404932D01*
X4625535Y-88404932D01*
X4873513Y-88444208D01*
G37*
G36*
X16150000Y-87650000D02*
G01*
X13850000Y-87650000D01*
X13850000Y-85350000D01*
X16150000Y-85350000D01*
X16150000Y-87650000D01*
G37*
G36*
X15268462Y-81881775D02*
G01*
X15440086Y-81937539D01*
X15600873Y-82019464D01*
X15746865Y-82125533D01*
X15874467Y-82253135D01*
X15980536Y-82399127D01*
X16062461Y-82559914D01*
X16118225Y-82731538D01*
X16146455Y-82909772D01*
X16146455Y-83090228D01*
X16118225Y-83268462D01*
X16062461Y-83440086D01*
X15980536Y-83600873D01*
X15874467Y-83746865D01*
X15746865Y-83874467D01*
X15600873Y-83980536D01*
X15440086Y-84062461D01*
X15268462Y-84118225D01*
X15090228Y-84146455D01*
X14909772Y-84146455D01*
X14731538Y-84118225D01*
X14559914Y-84062461D01*
X14399127Y-83980536D01*
X14253135Y-83874467D01*
X14125533Y-83746865D01*
X14019464Y-83600873D01*
X13937539Y-83440086D01*
X13881775Y-83268462D01*
X13853545Y-83090228D01*
X13853545Y-82909772D01*
X13881775Y-82731538D01*
X13937539Y-82559914D01*
X14019464Y-82399127D01*
X14125533Y-82253135D01*
X14253135Y-82125533D01*
X14399127Y-82019464D01*
X14559914Y-81937539D01*
X14731538Y-81881775D01*
X14909772Y-81853545D01*
X15090228Y-81853545D01*
X15268462Y-81881775D01*
G37*
G36*
X4873513Y-77944208D02*
G01*
X5112293Y-78021793D01*
X5335998Y-78135776D01*
X5539117Y-78283350D01*
X5716650Y-78460883D01*
X5864224Y-78664002D01*
X5978207Y-78887707D01*
X6055792Y-79126487D01*
X6095068Y-79374465D01*
X6095068Y-79625535D01*
X6055792Y-79873513D01*
X5978207Y-80112293D01*
X5864224Y-80335998D01*
X5716650Y-80539117D01*
X5539117Y-80716650D01*
X5335998Y-80864224D01*
X5112293Y-80978207D01*
X4873513Y-81055792D01*
X4625535Y-81095068D01*
X4374465Y-81095068D01*
X4126487Y-81055792D01*
X3887707Y-80978207D01*
X3664002Y-80864224D01*
X3460883Y-80716650D01*
X3283350Y-80539117D01*
X3135776Y-80335998D01*
X3021793Y-80112293D01*
X2944208Y-79873513D01*
X2904932Y-79625535D01*
X2904932Y-79374465D01*
X2944208Y-79126487D01*
X3021793Y-78887707D01*
X3135776Y-78664002D01*
X3283350Y-78460883D01*
X3460883Y-78283350D01*
X3664002Y-78135776D01*
X3887707Y-78021793D01*
X4126487Y-77944208D01*
X4374465Y-77904932D01*
X4625535Y-77904932D01*
X4873513Y-77944208D01*
G37*
G36*
X4873513Y-73444208D02*
G01*
X5112293Y-73521793D01*
X5335998Y-73635776D01*
X5539117Y-73783350D01*
X5716650Y-73960883D01*
X5864224Y-74164002D01*
X5978207Y-74387707D01*
X6055792Y-74626487D01*
X6095068Y-74874465D01*
X6095068Y-75125535D01*
X6055792Y-75373513D01*
X5978207Y-75612293D01*
X5864224Y-75835998D01*
X5716650Y-76039117D01*
X5539117Y-76216650D01*
X5335998Y-76364224D01*
X5112293Y-76478207D01*
X4873513Y-76555792D01*
X4625535Y-76595068D01*
X4374465Y-76595068D01*
X4126487Y-76555792D01*
X3887707Y-76478207D01*
X3664002Y-76364224D01*
X3460883Y-76216650D01*
X3283350Y-76039117D01*
X3135776Y-75835998D01*
X3021793Y-75612293D01*
X2944208Y-75373513D01*
X2904932Y-75125535D01*
X2904932Y-74874465D01*
X2944208Y-74626487D01*
X3021793Y-74387707D01*
X3135776Y-74164002D01*
X3283350Y-73960883D01*
X3460883Y-73783350D01*
X3664002Y-73635776D01*
X3887707Y-73521793D01*
X4126487Y-73444208D01*
X4374465Y-73404932D01*
X4625535Y-73404932D01*
X4873513Y-73444208D01*
G37*
G36*
X16150000Y-72650000D02*
G01*
X13850000Y-72650000D01*
X13850000Y-70350000D01*
X16150000Y-70350000D01*
X16150000Y-72650000D01*
G37*
G36*
X15268462Y-66881775D02*
G01*
X15440086Y-66937539D01*
X15600873Y-67019464D01*
X15746865Y-67125533D01*
X15874467Y-67253135D01*
X15980536Y-67399127D01*
X16062461Y-67559914D01*
X16118225Y-67731538D01*
X16146455Y-67909772D01*
X16146455Y-68090228D01*
X16118225Y-68268462D01*
X16062461Y-68440086D01*
X15980536Y-68600873D01*
X15874467Y-68746865D01*
X15746865Y-68874467D01*
X15600873Y-68980536D01*
X15440086Y-69062461D01*
X15268462Y-69118225D01*
X15090228Y-69146455D01*
X14909772Y-69146455D01*
X14731538Y-69118225D01*
X14559914Y-69062461D01*
X14399127Y-68980536D01*
X14253135Y-68874467D01*
X14125533Y-68746865D01*
X14019464Y-68600873D01*
X13937539Y-68440086D01*
X13881775Y-68268462D01*
X13853545Y-68090228D01*
X13853545Y-67909772D01*
X13881775Y-67731538D01*
X13937539Y-67559914D01*
X14019464Y-67399127D01*
X14125533Y-67253135D01*
X14253135Y-67125533D01*
X14399127Y-67019464D01*
X14559914Y-66937539D01*
X14731538Y-66881775D01*
X14909772Y-66853545D01*
X15090228Y-66853545D01*
X15268462Y-66881775D01*
G37*
G36*
X4873513Y-62944208D02*
G01*
X5112293Y-63021793D01*
X5335998Y-63135776D01*
X5539117Y-63283350D01*
X5716650Y-63460883D01*
X5864224Y-63664002D01*
X5978207Y-63887707D01*
X6055792Y-64126487D01*
X6095068Y-64374465D01*
X6095068Y-64625535D01*
X6055792Y-64873513D01*
X5978207Y-65112293D01*
X5864224Y-65335998D01*
X5716650Y-65539117D01*
X5539117Y-65716650D01*
X5335998Y-65864224D01*
X5112293Y-65978207D01*
X4873513Y-66055792D01*
X4625535Y-66095068D01*
X4374465Y-66095068D01*
X4126487Y-66055792D01*
X3887707Y-65978207D01*
X3664002Y-65864224D01*
X3460883Y-65716650D01*
X3283350Y-65539117D01*
X3135776Y-65335998D01*
X3021793Y-65112293D01*
X2944208Y-64873513D01*
X2904932Y-64625535D01*
X2904932Y-64374465D01*
X2944208Y-64126487D01*
X3021793Y-63887707D01*
X3135776Y-63664002D01*
X3283350Y-63460883D01*
X3460883Y-63283350D01*
X3664002Y-63135776D01*
X3887707Y-63021793D01*
X4126487Y-62944208D01*
X4374465Y-62904932D01*
X4625535Y-62904932D01*
X4873513Y-62944208D01*
G37*
G36*
X4873513Y-58444208D02*
G01*
X5112293Y-58521793D01*
X5335998Y-58635776D01*
X5539117Y-58783350D01*
X5716650Y-58960883D01*
X5864224Y-59164002D01*
X5978207Y-59387707D01*
X6055792Y-59626487D01*
X6095068Y-59874465D01*
X6095068Y-60125535D01*
X6055792Y-60373513D01*
X5978207Y-60612293D01*
X5864224Y-60835998D01*
X5716650Y-61039117D01*
X5539117Y-61216650D01*
X5335998Y-61364224D01*
X5112293Y-61478207D01*
X4873513Y-61555792D01*
X4625535Y-61595068D01*
X4374465Y-61595068D01*
X4126487Y-61555792D01*
X3887707Y-61478207D01*
X3664002Y-61364224D01*
X3460883Y-61216650D01*
X3283350Y-61039117D01*
X3135776Y-60835998D01*
X3021793Y-60612293D01*
X2944208Y-60373513D01*
X2904932Y-60125535D01*
X2904932Y-59874465D01*
X2944208Y-59626487D01*
X3021793Y-59387707D01*
X3135776Y-59164002D01*
X3283350Y-58960883D01*
X3460883Y-58783350D01*
X3664002Y-58635776D01*
X3887707Y-58521793D01*
X4126487Y-58444208D01*
X4374465Y-58404932D01*
X4625535Y-58404932D01*
X4873513Y-58444208D01*
G37*
G36*
X16150000Y-57650000D02*
G01*
X13850000Y-57650000D01*
X13850000Y-55350000D01*
X16150000Y-55350000D01*
X16150000Y-57650000D01*
G37*
G36*
X18768462Y-55381775D02*
G01*
X18940086Y-55437539D01*
X19100873Y-55519464D01*
X19246865Y-55625533D01*
X19374467Y-55753135D01*
X19480536Y-55899127D01*
X19562461Y-56059914D01*
X19618225Y-56231538D01*
X19646455Y-56409772D01*
X19646455Y-56590228D01*
X19618225Y-56768462D01*
X19562461Y-56940086D01*
X19480536Y-57100873D01*
X19374467Y-57246865D01*
X19246865Y-57374467D01*
X19100873Y-57480536D01*
X18940086Y-57562461D01*
X18768462Y-57618225D01*
X18590228Y-57646455D01*
X18409772Y-57646455D01*
X18231538Y-57618225D01*
X18059914Y-57562461D01*
X17899127Y-57480536D01*
X17753135Y-57374467D01*
X17625533Y-57246865D01*
X17519464Y-57100873D01*
X17437539Y-56940086D01*
X17381775Y-56768462D01*
X17353545Y-56590228D01*
X17353545Y-56409772D01*
X17381775Y-56231538D01*
X17437539Y-56059914D01*
X17519464Y-55899127D01*
X17625533Y-55753135D01*
X17753135Y-55625533D01*
X17899127Y-55519464D01*
X18059914Y-55437539D01*
X18231538Y-55381775D01*
X18409772Y-55353545D01*
X18590228Y-55353545D01*
X18768462Y-55381775D01*
G37*
G36*
X15268462Y-51881775D02*
G01*
X15440086Y-51937539D01*
X15600873Y-52019464D01*
X15746865Y-52125533D01*
X15874467Y-52253135D01*
X15980536Y-52399127D01*
X16062461Y-52559914D01*
X16118225Y-52731538D01*
X16146455Y-52909772D01*
X16146455Y-53090228D01*
X16118225Y-53268462D01*
X16062461Y-53440086D01*
X15980536Y-53600873D01*
X15874467Y-53746865D01*
X15746865Y-53874467D01*
X15600873Y-53980536D01*
X15440086Y-54062461D01*
X15268462Y-54118225D01*
X15090228Y-54146455D01*
X14909772Y-54146455D01*
X14731538Y-54118225D01*
X14559914Y-54062461D01*
X14399127Y-53980536D01*
X14253135Y-53874467D01*
X14125533Y-53746865D01*
X14019464Y-53600873D01*
X13937539Y-53440086D01*
X13881775Y-53268462D01*
X13853545Y-53090228D01*
X13853545Y-52909772D01*
X13881775Y-52731538D01*
X13937539Y-52559914D01*
X14019464Y-52399127D01*
X14125533Y-52253135D01*
X14253135Y-52125533D01*
X14399127Y-52019464D01*
X14559914Y-51937539D01*
X14731538Y-51881775D01*
X14909772Y-51853545D01*
X15090228Y-51853545D01*
X15268462Y-51881775D01*
G37*
G36*
X18768462Y-51881775D02*
G01*
X18940086Y-51937539D01*
X19100873Y-52019464D01*
X19246865Y-52125533D01*
X19374467Y-52253135D01*
X19480536Y-52399127D01*
X19562461Y-52559914D01*
X19618225Y-52731538D01*
X19646455Y-52909772D01*
X19646455Y-53090228D01*
X19618225Y-53268462D01*
X19562461Y-53440086D01*
X19480536Y-53600873D01*
X19374467Y-53746865D01*
X19246865Y-53874467D01*
X19100873Y-53980536D01*
X18940086Y-54062461D01*
X18768462Y-54118225D01*
X18590228Y-54146455D01*
X18409772Y-54146455D01*
X18231538Y-54118225D01*
X18059914Y-54062461D01*
X17899127Y-53980536D01*
X17753135Y-53874467D01*
X17625533Y-53746865D01*
X17519464Y-53600873D01*
X17437539Y-53440086D01*
X17381775Y-53268462D01*
X17353545Y-53090228D01*
X17353545Y-52909772D01*
X17381775Y-52731538D01*
X17437539Y-52559914D01*
X17519464Y-52399127D01*
X17625533Y-52253135D01*
X17753135Y-52125533D01*
X17899127Y-52019464D01*
X18059914Y-51937539D01*
X18231538Y-51881775D01*
X18409772Y-51853545D01*
X18590228Y-51853545D01*
X18768462Y-51881775D01*
G37*
G36*
X15268462Y-48381775D02*
G01*
X15440086Y-48437539D01*
X15600873Y-48519464D01*
X15746865Y-48625533D01*
X15874467Y-48753135D01*
X15980536Y-48899127D01*
X16062461Y-49059914D01*
X16118225Y-49231538D01*
X16146455Y-49409772D01*
X16146455Y-49590228D01*
X16118225Y-49768462D01*
X16062461Y-49940086D01*
X15980536Y-50100873D01*
X15874467Y-50246865D01*
X15746865Y-50374467D01*
X15600873Y-50480536D01*
X15440086Y-50562461D01*
X15268462Y-50618225D01*
X15090228Y-50646455D01*
X14909772Y-50646455D01*
X14731538Y-50618225D01*
X14559914Y-50562461D01*
X14399127Y-50480536D01*
X14253135Y-50374467D01*
X14125533Y-50246865D01*
X14019464Y-50100873D01*
X13937539Y-49940086D01*
X13881775Y-49768462D01*
X13853545Y-49590228D01*
X13853545Y-49409772D01*
X13881775Y-49231538D01*
X13937539Y-49059914D01*
X14019464Y-48899127D01*
X14125533Y-48753135D01*
X14253135Y-48625533D01*
X14399127Y-48519464D01*
X14559914Y-48437539D01*
X14731538Y-48381775D01*
X14909772Y-48353545D01*
X15090228Y-48353545D01*
X15268462Y-48381775D01*
G37*
G36*
X18768462Y-48381775D02*
G01*
X18940086Y-48437539D01*
X19100873Y-48519464D01*
X19246865Y-48625533D01*
X19374467Y-48753135D01*
X19480536Y-48899127D01*
X19562461Y-49059914D01*
X19618225Y-49231538D01*
X19646455Y-49409772D01*
X19646455Y-49590228D01*
X19618225Y-49768462D01*
X19562461Y-49940086D01*
X19480536Y-50100873D01*
X19374467Y-50246865D01*
X19246865Y-50374467D01*
X19100873Y-50480536D01*
X18940086Y-50562461D01*
X18768462Y-50618225D01*
X18590228Y-50646455D01*
X18409772Y-50646455D01*
X18231538Y-50618225D01*
X18059914Y-50562461D01*
X17899127Y-50480536D01*
X17753135Y-50374467D01*
X17625533Y-50246865D01*
X17519464Y-50100873D01*
X17437539Y-49940086D01*
X17381775Y-49768462D01*
X17353545Y-49590228D01*
X17353545Y-49409772D01*
X17381775Y-49231538D01*
X17437539Y-49059914D01*
X17519464Y-48899127D01*
X17625533Y-48753135D01*
X17753135Y-48625533D01*
X17899127Y-48519464D01*
X18059914Y-48437539D01*
X18231538Y-48381775D01*
X18409772Y-48353545D01*
X18590228Y-48353545D01*
X18768462Y-48381775D01*
G37*
G36*
X15268462Y-44881775D02*
G01*
X15440086Y-44937539D01*
X15600873Y-45019464D01*
X15746865Y-45125533D01*
X15874467Y-45253135D01*
X15980536Y-45399127D01*
X16062461Y-45559914D01*
X16118225Y-45731538D01*
X16146455Y-45909772D01*
X16146455Y-46090228D01*
X16118225Y-46268462D01*
X16062461Y-46440086D01*
X15980536Y-46600873D01*
X15874467Y-46746865D01*
X15746865Y-46874467D01*
X15600873Y-46980536D01*
X15440086Y-47062461D01*
X15268462Y-47118225D01*
X15090228Y-47146455D01*
X14909772Y-47146455D01*
X14731538Y-47118225D01*
X14559914Y-47062461D01*
X14399127Y-46980536D01*
X14253135Y-46874467D01*
X14125533Y-46746865D01*
X14019464Y-46600873D01*
X13937539Y-46440086D01*
X13881775Y-46268462D01*
X13853545Y-46090228D01*
X13853545Y-45909772D01*
X13881775Y-45731538D01*
X13937539Y-45559914D01*
X14019464Y-45399127D01*
X14125533Y-45253135D01*
X14253135Y-45125533D01*
X14399127Y-45019464D01*
X14559914Y-44937539D01*
X14731538Y-44881775D01*
X14909772Y-44853545D01*
X15090228Y-44853545D01*
X15268462Y-44881775D01*
G37*
G36*
X18768462Y-44881775D02*
G01*
X18940086Y-44937539D01*
X19100873Y-45019464D01*
X19246865Y-45125533D01*
X19374467Y-45253135D01*
X19480536Y-45399127D01*
X19562461Y-45559914D01*
X19618225Y-45731538D01*
X19646455Y-45909772D01*
X19646455Y-46090228D01*
X19618225Y-46268462D01*
X19562461Y-46440086D01*
X19480536Y-46600873D01*
X19374467Y-46746865D01*
X19246865Y-46874467D01*
X19100873Y-46980536D01*
X18940086Y-47062461D01*
X18768462Y-47118225D01*
X18590228Y-47146455D01*
X18409772Y-47146455D01*
X18231538Y-47118225D01*
X18059914Y-47062461D01*
X17899127Y-46980536D01*
X17753135Y-46874467D01*
X17625533Y-46746865D01*
X17519464Y-46600873D01*
X17437539Y-46440086D01*
X17381775Y-46268462D01*
X17353545Y-46090228D01*
X17353545Y-45909772D01*
X17381775Y-45731538D01*
X17437539Y-45559914D01*
X17519464Y-45399127D01*
X17625533Y-45253135D01*
X17753135Y-45125533D01*
X17899127Y-45019464D01*
X18059914Y-44937539D01*
X18231538Y-44881775D01*
X18409772Y-44853545D01*
X18590228Y-44853545D01*
X18768462Y-44881775D01*
G37*
G36*
X15268462Y-41381775D02*
G01*
X15440086Y-41437539D01*
X15600873Y-41519464D01*
X15746865Y-41625533D01*
X15874467Y-41753135D01*
X15980536Y-41899127D01*
X16062461Y-42059914D01*
X16118225Y-42231538D01*
X16146455Y-42409772D01*
X16146455Y-42590228D01*
X16118225Y-42768462D01*
X16062461Y-42940086D01*
X15980536Y-43100873D01*
X15874467Y-43246865D01*
X15746865Y-43374467D01*
X15600873Y-43480536D01*
X15440086Y-43562461D01*
X15268462Y-43618225D01*
X15090228Y-43646455D01*
X14909772Y-43646455D01*
X14731538Y-43618225D01*
X14559914Y-43562461D01*
X14399127Y-43480536D01*
X14253135Y-43374467D01*
X14125533Y-43246865D01*
X14019464Y-43100873D01*
X13937539Y-42940086D01*
X13881775Y-42768462D01*
X13853545Y-42590228D01*
X13853545Y-42409772D01*
X13881775Y-42231538D01*
X13937539Y-42059914D01*
X14019464Y-41899127D01*
X14125533Y-41753135D01*
X14253135Y-41625533D01*
X14399127Y-41519464D01*
X14559914Y-41437539D01*
X14731538Y-41381775D01*
X14909772Y-41353545D01*
X15090228Y-41353545D01*
X15268462Y-41381775D01*
G37*
G36*
X18768462Y-41381775D02*
G01*
X18940086Y-41437539D01*
X19100873Y-41519464D01*
X19246865Y-41625533D01*
X19374467Y-41753135D01*
X19480536Y-41899127D01*
X19562461Y-42059914D01*
X19618225Y-42231538D01*
X19646455Y-42409772D01*
X19646455Y-42590228D01*
X19618225Y-42768462D01*
X19562461Y-42940086D01*
X19480536Y-43100873D01*
X19374467Y-43246865D01*
X19246865Y-43374467D01*
X19100873Y-43480536D01*
X18940086Y-43562461D01*
X18768462Y-43618225D01*
X18590228Y-43646455D01*
X18409772Y-43646455D01*
X18231538Y-43618225D01*
X18059914Y-43562461D01*
X17899127Y-43480536D01*
X17753135Y-43374467D01*
X17625533Y-43246865D01*
X17519464Y-43100873D01*
X17437539Y-42940086D01*
X17381775Y-42768462D01*
X17353545Y-42590228D01*
X17353545Y-42409772D01*
X17381775Y-42231538D01*
X17437539Y-42059914D01*
X17519464Y-41899127D01*
X17625533Y-41753135D01*
X17753135Y-41625533D01*
X17899127Y-41519464D01*
X18059914Y-41437539D01*
X18231538Y-41381775D01*
X18409772Y-41353545D01*
X18590228Y-41353545D01*
X18768462Y-41381775D01*
G37*
G36*
X15268462Y-37881775D02*
G01*
X15440086Y-37937539D01*
X15600873Y-38019464D01*
X15746865Y-38125533D01*
X15874467Y-38253135D01*
X15980536Y-38399127D01*
X16062461Y-38559914D01*
X16118225Y-38731538D01*
X16146455Y-38909772D01*
X16146455Y-39090228D01*
X16118225Y-39268462D01*
X16062461Y-39440086D01*
X15980536Y-39600873D01*
X15874467Y-39746865D01*
X15746865Y-39874467D01*
X15600873Y-39980536D01*
X15440086Y-40062461D01*
X15268462Y-40118225D01*
X15090228Y-40146455D01*
X14909772Y-40146455D01*
X14731538Y-40118225D01*
X14559914Y-40062461D01*
X14399127Y-39980536D01*
X14253135Y-39874467D01*
X14125533Y-39746865D01*
X14019464Y-39600873D01*
X13937539Y-39440086D01*
X13881775Y-39268462D01*
X13853545Y-39090228D01*
X13853545Y-38909772D01*
X13881775Y-38731538D01*
X13937539Y-38559914D01*
X14019464Y-38399127D01*
X14125533Y-38253135D01*
X14253135Y-38125533D01*
X14399127Y-38019464D01*
X14559914Y-37937539D01*
X14731538Y-37881775D01*
X14909772Y-37853545D01*
X15090228Y-37853545D01*
X15268462Y-37881775D01*
G37*
G36*
X18768462Y-37881775D02*
G01*
X18940086Y-37937539D01*
X19100873Y-38019464D01*
X19246865Y-38125533D01*
X19374467Y-38253135D01*
X19480536Y-38399127D01*
X19562461Y-38559914D01*
X19618225Y-38731538D01*
X19646455Y-38909772D01*
X19646455Y-39090228D01*
X19618225Y-39268462D01*
X19562461Y-39440086D01*
X19480536Y-39600873D01*
X19374467Y-39746865D01*
X19246865Y-39874467D01*
X19100873Y-39980536D01*
X18940086Y-40062461D01*
X18768462Y-40118225D01*
X18590228Y-40146455D01*
X18409772Y-40146455D01*
X18231538Y-40118225D01*
X18059914Y-40062461D01*
X17899127Y-39980536D01*
X17753135Y-39874467D01*
X17625533Y-39746865D01*
X17519464Y-39600873D01*
X17437539Y-39440086D01*
X17381775Y-39268462D01*
X17353545Y-39090228D01*
X17353545Y-38909772D01*
X17381775Y-38731538D01*
X17437539Y-38559914D01*
X17519464Y-38399127D01*
X17625533Y-38253135D01*
X17753135Y-38125533D01*
X17899127Y-38019464D01*
X18059914Y-37937539D01*
X18231538Y-37881775D01*
X18409772Y-37853545D01*
X18590228Y-37853545D01*
X18768462Y-37881775D01*
G37*
G36*
X15268462Y-34381775D02*
G01*
X15440086Y-34437539D01*
X15600873Y-34519464D01*
X15746865Y-34625533D01*
X15874467Y-34753135D01*
X15980536Y-34899127D01*
X16062461Y-35059914D01*
X16118225Y-35231538D01*
X16146455Y-35409772D01*
X16146455Y-35590228D01*
X16118225Y-35768462D01*
X16062461Y-35940086D01*
X15980536Y-36100873D01*
X15874467Y-36246865D01*
X15746865Y-36374467D01*
X15600873Y-36480536D01*
X15440086Y-36562461D01*
X15268462Y-36618225D01*
X15090228Y-36646455D01*
X14909772Y-36646455D01*
X14731538Y-36618225D01*
X14559914Y-36562461D01*
X14399127Y-36480536D01*
X14253135Y-36374467D01*
X14125533Y-36246865D01*
X14019464Y-36100873D01*
X13937539Y-35940086D01*
X13881775Y-35768462D01*
X13853545Y-35590228D01*
X13853545Y-35409772D01*
X13881775Y-35231538D01*
X13937539Y-35059914D01*
X14019464Y-34899127D01*
X14125533Y-34753135D01*
X14253135Y-34625533D01*
X14399127Y-34519464D01*
X14559914Y-34437539D01*
X14731538Y-34381775D01*
X14909772Y-34353545D01*
X15090228Y-34353545D01*
X15268462Y-34381775D01*
G37*
G36*
X18768462Y-34381775D02*
G01*
X18940086Y-34437539D01*
X19100873Y-34519464D01*
X19246865Y-34625533D01*
X19374467Y-34753135D01*
X19480536Y-34899127D01*
X19562461Y-35059914D01*
X19618225Y-35231538D01*
X19646455Y-35409772D01*
X19646455Y-35590228D01*
X19618225Y-35768462D01*
X19562461Y-35940086D01*
X19480536Y-36100873D01*
X19374467Y-36246865D01*
X19246865Y-36374467D01*
X19100873Y-36480536D01*
X18940086Y-36562461D01*
X18768462Y-36618225D01*
X18590228Y-36646455D01*
X18409772Y-36646455D01*
X18231538Y-36618225D01*
X18059914Y-36562461D01*
X17899127Y-36480536D01*
X17753135Y-36374467D01*
X17625533Y-36246865D01*
X17519464Y-36100873D01*
X17437539Y-35940086D01*
X17381775Y-35768462D01*
X17353545Y-35590228D01*
X17353545Y-35409772D01*
X17381775Y-35231538D01*
X17437539Y-35059914D01*
X17519464Y-34899127D01*
X17625533Y-34753135D01*
X17753135Y-34625533D01*
X17899127Y-34519464D01*
X18059914Y-34437539D01*
X18231538Y-34381775D01*
X18409772Y-34353545D01*
X18590228Y-34353545D01*
X18768462Y-34381775D01*
G37*
G36*
X15268462Y-30881775D02*
G01*
X15440086Y-30937539D01*
X15600873Y-31019464D01*
X15746865Y-31125533D01*
X15874467Y-31253135D01*
X15980536Y-31399127D01*
X16062461Y-31559914D01*
X16118225Y-31731538D01*
X16146455Y-31909772D01*
X16146455Y-32090228D01*
X16118225Y-32268462D01*
X16062461Y-32440086D01*
X15980536Y-32600873D01*
X15874467Y-32746865D01*
X15746865Y-32874467D01*
X15600873Y-32980536D01*
X15440086Y-33062461D01*
X15268462Y-33118225D01*
X15090228Y-33146455D01*
X14909772Y-33146455D01*
X14731538Y-33118225D01*
X14559914Y-33062461D01*
X14399127Y-32980536D01*
X14253135Y-32874467D01*
X14125533Y-32746865D01*
X14019464Y-32600873D01*
X13937539Y-32440086D01*
X13881775Y-32268462D01*
X13853545Y-32090228D01*
X13853545Y-31909772D01*
X13881775Y-31731538D01*
X13937539Y-31559914D01*
X14019464Y-31399127D01*
X14125533Y-31253135D01*
X14253135Y-31125533D01*
X14399127Y-31019464D01*
X14559914Y-30937539D01*
X14731538Y-30881775D01*
X14909772Y-30853545D01*
X15090228Y-30853545D01*
X15268462Y-30881775D01*
G37*
G36*
X18768462Y-30881775D02*
G01*
X18940086Y-30937539D01*
X19100873Y-31019464D01*
X19246865Y-31125533D01*
X19374467Y-31253135D01*
X19480536Y-31399127D01*
X19562461Y-31559914D01*
X19618225Y-31731538D01*
X19646455Y-31909772D01*
X19646455Y-32090228D01*
X19618225Y-32268462D01*
X19562461Y-32440086D01*
X19480536Y-32600873D01*
X19374467Y-32746865D01*
X19246865Y-32874467D01*
X19100873Y-32980536D01*
X18940086Y-33062461D01*
X18768462Y-33118225D01*
X18590228Y-33146455D01*
X18409772Y-33146455D01*
X18231538Y-33118225D01*
X18059914Y-33062461D01*
X17899127Y-32980536D01*
X17753135Y-32874467D01*
X17625533Y-32746865D01*
X17519464Y-32600873D01*
X17437539Y-32440086D01*
X17381775Y-32268462D01*
X17353545Y-32090228D01*
X17353545Y-31909772D01*
X17381775Y-31731538D01*
X17437539Y-31559914D01*
X17519464Y-31399127D01*
X17625533Y-31253135D01*
X17753135Y-31125533D01*
X17899127Y-31019464D01*
X18059914Y-30937539D01*
X18231538Y-30881775D01*
X18409772Y-30853545D01*
X18590228Y-30853545D01*
X18768462Y-30881775D01*
G37*
G36*
X15268462Y-27381775D02*
G01*
X15440086Y-27437539D01*
X15600873Y-27519464D01*
X15746865Y-27625533D01*
X15874467Y-27753135D01*
X15980536Y-27899127D01*
X16062461Y-28059914D01*
X16118225Y-28231538D01*
X16146455Y-28409772D01*
X16146455Y-28590228D01*
X16118225Y-28768462D01*
X16062461Y-28940086D01*
X15980536Y-29100873D01*
X15874467Y-29246865D01*
X15746865Y-29374467D01*
X15600873Y-29480536D01*
X15440086Y-29562461D01*
X15268462Y-29618225D01*
X15090228Y-29646455D01*
X14909772Y-29646455D01*
X14731538Y-29618225D01*
X14559914Y-29562461D01*
X14399127Y-29480536D01*
X14253135Y-29374467D01*
X14125533Y-29246865D01*
X14019464Y-29100873D01*
X13937539Y-28940086D01*
X13881775Y-28768462D01*
X13853545Y-28590228D01*
X13853545Y-28409772D01*
X13881775Y-28231538D01*
X13937539Y-28059914D01*
X14019464Y-27899127D01*
X14125533Y-27753135D01*
X14253135Y-27625533D01*
X14399127Y-27519464D01*
X14559914Y-27437539D01*
X14731538Y-27381775D01*
X14909772Y-27353545D01*
X15090228Y-27353545D01*
X15268462Y-27381775D01*
G37*
G36*
X18768462Y-27381775D02*
G01*
X18940086Y-27437539D01*
X19100873Y-27519464D01*
X19246865Y-27625533D01*
X19374467Y-27753135D01*
X19480536Y-27899127D01*
X19562461Y-28059914D01*
X19618225Y-28231538D01*
X19646455Y-28409772D01*
X19646455Y-28590228D01*
X19618225Y-28768462D01*
X19562461Y-28940086D01*
X19480536Y-29100873D01*
X19374467Y-29246865D01*
X19246865Y-29374467D01*
X19100873Y-29480536D01*
X18940086Y-29562461D01*
X18768462Y-29618225D01*
X18590228Y-29646455D01*
X18409772Y-29646455D01*
X18231538Y-29618225D01*
X18059914Y-29562461D01*
X17899127Y-29480536D01*
X17753135Y-29374467D01*
X17625533Y-29246865D01*
X17519464Y-29100873D01*
X17437539Y-28940086D01*
X17381775Y-28768462D01*
X17353545Y-28590228D01*
X17353545Y-28409772D01*
X17381775Y-28231538D01*
X17437539Y-28059914D01*
X17519464Y-27899127D01*
X17625533Y-27753135D01*
X17753135Y-27625533D01*
X17899127Y-27519464D01*
X18059914Y-27437539D01*
X18231538Y-27381775D01*
X18409772Y-27353545D01*
X18590228Y-27353545D01*
X18768462Y-27381775D01*
G37*
G36*
X4873513Y-23444208D02*
G01*
X5112293Y-23521793D01*
X5335998Y-23635776D01*
X5539117Y-23783350D01*
X5716650Y-23960883D01*
X5864224Y-24164002D01*
X5978207Y-24387707D01*
X6055792Y-24626487D01*
X6095068Y-24874465D01*
X6095068Y-25125535D01*
X6055792Y-25373513D01*
X5978207Y-25612293D01*
X5864224Y-25835998D01*
X5716650Y-26039117D01*
X5539117Y-26216650D01*
X5335998Y-26364224D01*
X5112293Y-26478207D01*
X4873513Y-26555792D01*
X4625535Y-26595068D01*
X4374465Y-26595068D01*
X4126487Y-26555792D01*
X3887707Y-26478207D01*
X3664002Y-26364224D01*
X3460883Y-26216650D01*
X3283350Y-26039117D01*
X3135776Y-25835998D01*
X3021793Y-25612293D01*
X2944208Y-25373513D01*
X2904932Y-25125535D01*
X2904932Y-24874465D01*
X2944208Y-24626487D01*
X3021793Y-24387707D01*
X3135776Y-24164002D01*
X3283350Y-23960883D01*
X3460883Y-23783350D01*
X3664002Y-23635776D01*
X3887707Y-23521793D01*
X4126487Y-23444208D01*
X4374465Y-23404932D01*
X4625535Y-23404932D01*
X4873513Y-23444208D01*
G37*
G36*
X24354047Y-16725805D02*
G01*
X24405408Y-16731764D01*
X24422954Y-16739511D01*
X24445671Y-16744030D01*
X24469991Y-16760280D01*
X24490793Y-16769465D01*
X24505000Y-16783672D01*
X24526777Y-16798223D01*
X24541327Y-16819999D01*
X24555534Y-16834206D01*
X24564718Y-16855006D01*
X24580970Y-16879329D01*
X24585489Y-16902048D01*
X24593235Y-16919591D01*
X24599192Y-16970940D01*
X24600000Y-16975000D01*
X24600000Y-18225000D01*
X24599192Y-18229059D01*
X24593235Y-18280408D01*
X24585489Y-18297950D01*
X24580970Y-18320671D01*
X24564716Y-18344995D01*
X24555534Y-18365793D01*
X24541329Y-18379997D01*
X24526777Y-18401777D01*
X24504997Y-18416329D01*
X24490793Y-18430534D01*
X24469995Y-18439716D01*
X24445671Y-18455970D01*
X24422950Y-18460489D01*
X24405408Y-18468235D01*
X24354061Y-18474192D01*
X24350000Y-18475000D01*
X23550000Y-18475000D01*
X23545941Y-18474192D01*
X23494591Y-18468235D01*
X23477048Y-18460489D01*
X23454329Y-18455970D01*
X23430006Y-18439718D01*
X23409206Y-18430534D01*
X23394999Y-18416327D01*
X23373223Y-18401777D01*
X23358672Y-18380000D01*
X23344465Y-18365793D01*
X23335280Y-18344991D01*
X23319030Y-18320671D01*
X23314511Y-18297954D01*
X23306764Y-18280408D01*
X23300805Y-18229049D01*
X23300000Y-18225000D01*
X23300000Y-16975000D01*
X23300804Y-16970953D01*
X23306764Y-16919591D01*
X23314511Y-16902043D01*
X23319030Y-16879329D01*
X23335278Y-16855010D01*
X23344465Y-16834206D01*
X23358674Y-16819996D01*
X23373223Y-16798223D01*
X23394996Y-16783674D01*
X23409206Y-16769465D01*
X23430010Y-16760278D01*
X23454329Y-16744030D01*
X23477043Y-16739511D01*
X23494591Y-16731764D01*
X23545952Y-16725805D01*
X23550000Y-16725000D01*
X24350000Y-16725000D01*
X24354047Y-16725805D01*
G37*
G36*
X27454047Y-16725805D02*
G01*
X27505408Y-16731764D01*
X27522954Y-16739511D01*
X27545671Y-16744030D01*
X27569991Y-16760280D01*
X27590793Y-16769465D01*
X27605000Y-16783672D01*
X27626777Y-16798223D01*
X27641327Y-16819999D01*
X27655534Y-16834206D01*
X27664718Y-16855006D01*
X27680970Y-16879329D01*
X27685489Y-16902048D01*
X27693235Y-16919591D01*
X27699192Y-16970940D01*
X27700000Y-16975000D01*
X27700000Y-18225000D01*
X27699192Y-18229059D01*
X27693235Y-18280408D01*
X27685489Y-18297950D01*
X27680970Y-18320671D01*
X27664716Y-18344995D01*
X27655534Y-18365793D01*
X27641329Y-18379997D01*
X27626777Y-18401777D01*
X27604997Y-18416329D01*
X27590793Y-18430534D01*
X27569995Y-18439716D01*
X27545671Y-18455970D01*
X27522950Y-18460489D01*
X27505408Y-18468235D01*
X27454061Y-18474192D01*
X27450000Y-18475000D01*
X26650000Y-18475000D01*
X26645941Y-18474192D01*
X26594591Y-18468235D01*
X26577048Y-18460489D01*
X26554329Y-18455970D01*
X26530006Y-18439718D01*
X26509206Y-18430534D01*
X26494999Y-18416327D01*
X26473223Y-18401777D01*
X26458672Y-18380000D01*
X26444465Y-18365793D01*
X26435280Y-18344991D01*
X26419030Y-18320671D01*
X26414511Y-18297954D01*
X26406764Y-18280408D01*
X26400805Y-18229049D01*
X26400000Y-18225000D01*
X26400000Y-16975000D01*
X26400804Y-16970953D01*
X26406764Y-16919591D01*
X26414511Y-16902043D01*
X26419030Y-16879329D01*
X26435278Y-16855010D01*
X26444465Y-16834206D01*
X26458674Y-16819996D01*
X26473223Y-16798223D01*
X26494996Y-16783674D01*
X26509206Y-16769465D01*
X26530010Y-16760278D01*
X26554329Y-16744030D01*
X26577043Y-16739511D01*
X26594591Y-16731764D01*
X26645952Y-16725805D01*
X26650000Y-16725000D01*
X27450000Y-16725000D01*
X27454047Y-16725805D01*
G37*
G36*
X7174047Y-12480805D02*
G01*
X7225408Y-12486764D01*
X7242954Y-12494511D01*
X7265671Y-12499030D01*
X7289991Y-12515280D01*
X7310793Y-12524465D01*
X7325000Y-12538672D01*
X7346777Y-12553223D01*
X7361327Y-12574999D01*
X7375534Y-12589206D01*
X7384718Y-12610006D01*
X7400970Y-12634329D01*
X7405489Y-12657048D01*
X7413235Y-12674591D01*
X7419192Y-12725940D01*
X7420000Y-12730000D01*
X7420000Y-13930000D01*
X7419192Y-13934059D01*
X7413235Y-13985408D01*
X7405489Y-14002950D01*
X7400970Y-14025671D01*
X7384716Y-14049995D01*
X7375534Y-14070793D01*
X7361329Y-14084997D01*
X7346777Y-14106777D01*
X7324997Y-14121329D01*
X7310793Y-14135534D01*
X7289995Y-14144716D01*
X7265671Y-14160970D01*
X7242950Y-14165489D01*
X7225408Y-14173235D01*
X7174061Y-14179192D01*
X7170000Y-14180000D01*
X5970000Y-14180000D01*
X5965941Y-14179192D01*
X5914591Y-14173235D01*
X5897048Y-14165489D01*
X5874329Y-14160970D01*
X5850006Y-14144718D01*
X5829206Y-14135534D01*
X5814999Y-14121327D01*
X5793223Y-14106777D01*
X5778672Y-14085000D01*
X5764465Y-14070793D01*
X5755280Y-14049991D01*
X5739030Y-14025671D01*
X5734511Y-14002954D01*
X5726764Y-13985408D01*
X5720805Y-13934049D01*
X5720000Y-13930000D01*
X5720000Y-12730000D01*
X5720804Y-12725953D01*
X5726764Y-12674591D01*
X5734511Y-12657043D01*
X5739030Y-12634329D01*
X5755278Y-12610010D01*
X5764465Y-12589206D01*
X5778674Y-12574996D01*
X5793223Y-12553223D01*
X5814996Y-12538674D01*
X5829206Y-12524465D01*
X5850010Y-12515278D01*
X5874329Y-12499030D01*
X5897043Y-12494511D01*
X5914591Y-12486764D01*
X5965952Y-12480805D01*
X5970000Y-12480000D01*
X7170000Y-12480000D01*
X7174047Y-12480805D01*
G37*
G36*
X9356742Y-12516601D02*
G01*
X9510687Y-12580367D01*
X9649234Y-12672941D01*
X9767059Y-12790766D01*
X9859633Y-12929313D01*
X9923399Y-13083258D01*
X9955907Y-13246685D01*
X9955907Y-13413315D01*
X9923399Y-13576742D01*
X9859633Y-13730687D01*
X9767059Y-13869234D01*
X9649234Y-13987059D01*
X9510687Y-14079633D01*
X9356742Y-14143399D01*
X9193315Y-14175907D01*
X9026685Y-14175907D01*
X8863258Y-14143399D01*
X8709313Y-14079633D01*
X8570766Y-13987059D01*
X8452941Y-13869234D01*
X8360367Y-13730687D01*
X8296601Y-13576742D01*
X8264093Y-13413315D01*
X8264093Y-13246685D01*
X8296601Y-13083258D01*
X8360367Y-12929313D01*
X8452941Y-12790766D01*
X8570766Y-12672941D01*
X8709313Y-12580367D01*
X8863258Y-12516601D01*
X9026685Y-12484093D01*
X9193315Y-12484093D01*
X9356742Y-12516601D01*
G37*
G36*
X11896742Y-12516601D02*
G01*
X12050687Y-12580367D01*
X12189234Y-12672941D01*
X12307059Y-12790766D01*
X12399633Y-12929313D01*
X12463399Y-13083258D01*
X12495907Y-13246685D01*
X12495907Y-13413315D01*
X12463399Y-13576742D01*
X12399633Y-13730687D01*
X12307059Y-13869234D01*
X12189234Y-13987059D01*
X12050687Y-14079633D01*
X11896742Y-14143399D01*
X11733315Y-14175907D01*
X11566685Y-14175907D01*
X11403258Y-14143399D01*
X11249313Y-14079633D01*
X11110766Y-13987059D01*
X10992941Y-13869234D01*
X10900367Y-13730687D01*
X10836601Y-13576742D01*
X10804093Y-13413315D01*
X10804093Y-13246685D01*
X10836601Y-13083258D01*
X10900367Y-12929313D01*
X10992941Y-12790766D01*
X11110766Y-12672941D01*
X11249313Y-12580367D01*
X11403258Y-12516601D01*
X11566685Y-12484093D01*
X11733315Y-12484093D01*
X11896742Y-12516601D01*
G37*
G36*
X14436742Y-12516601D02*
G01*
X14590687Y-12580367D01*
X14729234Y-12672941D01*
X14847059Y-12790766D01*
X14939633Y-12929313D01*
X15003399Y-13083258D01*
X15035907Y-13246685D01*
X15035907Y-13413315D01*
X15003399Y-13576742D01*
X14939633Y-13730687D01*
X14847059Y-13869234D01*
X14729234Y-13987059D01*
X14590687Y-14079633D01*
X14436742Y-14143399D01*
X14273315Y-14175907D01*
X14106685Y-14175907D01*
X13943258Y-14143399D01*
X13789313Y-14079633D01*
X13650766Y-13987059D01*
X13532941Y-13869234D01*
X13440367Y-13730687D01*
X13376601Y-13576742D01*
X13344093Y-13413315D01*
X13344093Y-13246685D01*
X13376601Y-13083258D01*
X13440367Y-12929313D01*
X13532941Y-12790766D01*
X13650766Y-12672941D01*
X13789313Y-12580367D01*
X13943258Y-12516601D01*
X14106685Y-12484093D01*
X14273315Y-12484093D01*
X14436742Y-12516601D01*
G37*
G36*
X16976742Y-12516601D02*
G01*
X17130687Y-12580367D01*
X17269234Y-12672941D01*
X17387059Y-12790766D01*
X17479633Y-12929313D01*
X17543399Y-13083258D01*
X17575907Y-13246685D01*
X17575907Y-13413315D01*
X17543399Y-13576742D01*
X17479633Y-13730687D01*
X17387059Y-13869234D01*
X17269234Y-13987059D01*
X17130687Y-14079633D01*
X16976742Y-14143399D01*
X16813315Y-14175907D01*
X16646685Y-14175907D01*
X16483258Y-14143399D01*
X16329313Y-14079633D01*
X16190766Y-13987059D01*
X16072941Y-13869234D01*
X15980367Y-13730687D01*
X15916601Y-13576742D01*
X15884093Y-13413315D01*
X15884093Y-13246685D01*
X15916601Y-13083258D01*
X15980367Y-12929313D01*
X16072941Y-12790766D01*
X16190766Y-12672941D01*
X16329313Y-12580367D01*
X16483258Y-12516601D01*
X16646685Y-12484093D01*
X16813315Y-12484093D01*
X16976742Y-12516601D01*
G37*
G36*
X19516742Y-12516601D02*
G01*
X19670687Y-12580367D01*
X19809234Y-12672941D01*
X19927059Y-12790766D01*
X20019633Y-12929313D01*
X20083399Y-13083258D01*
X20115907Y-13246685D01*
X20115907Y-13413315D01*
X20083399Y-13576742D01*
X20019633Y-13730687D01*
X19927059Y-13869234D01*
X19809234Y-13987059D01*
X19670687Y-14079633D01*
X19516742Y-14143399D01*
X19353315Y-14175907D01*
X19186685Y-14175907D01*
X19023258Y-14143399D01*
X18869313Y-14079633D01*
X18730766Y-13987059D01*
X18612941Y-13869234D01*
X18520367Y-13730687D01*
X18456601Y-13576742D01*
X18424093Y-13413315D01*
X18424093Y-13246685D01*
X18456601Y-13083258D01*
X18520367Y-12929313D01*
X18612941Y-12790766D01*
X18730766Y-12672941D01*
X18869313Y-12580367D01*
X19023258Y-12516601D01*
X19186685Y-12484093D01*
X19353315Y-12484093D01*
X19516742Y-12516601D01*
G37*
G36*
X22056742Y-12516601D02*
G01*
X22210687Y-12580367D01*
X22349234Y-12672941D01*
X22467059Y-12790766D01*
X22559633Y-12929313D01*
X22623399Y-13083258D01*
X22655907Y-13246685D01*
X22655907Y-13413315D01*
X22623399Y-13576742D01*
X22559633Y-13730687D01*
X22467059Y-13869234D01*
X22349234Y-13987059D01*
X22210687Y-14079633D01*
X22056742Y-14143399D01*
X21893315Y-14175907D01*
X21726685Y-14175907D01*
X21563258Y-14143399D01*
X21409313Y-14079633D01*
X21270766Y-13987059D01*
X21152941Y-13869234D01*
X21060367Y-13730687D01*
X20996601Y-13576742D01*
X20964093Y-13413315D01*
X20964093Y-13246685D01*
X20996601Y-13083258D01*
X21060367Y-12929313D01*
X21152941Y-12790766D01*
X21270766Y-12672941D01*
X21409313Y-12580367D01*
X21563258Y-12516601D01*
X21726685Y-12484093D01*
X21893315Y-12484093D01*
X22056742Y-12516601D01*
G37*
G36*
X24596742Y-12516601D02*
G01*
X24750687Y-12580367D01*
X24889234Y-12672941D01*
X25007059Y-12790766D01*
X25099633Y-12929313D01*
X25163399Y-13083258D01*
X25195907Y-13246685D01*
X25195907Y-13413315D01*
X25163399Y-13576742D01*
X25099633Y-13730687D01*
X25007059Y-13869234D01*
X24889234Y-13987059D01*
X24750687Y-14079633D01*
X24596742Y-14143399D01*
X24433315Y-14175907D01*
X24266685Y-14175907D01*
X24103258Y-14143399D01*
X23949313Y-14079633D01*
X23810766Y-13987059D01*
X23692941Y-13869234D01*
X23600367Y-13730687D01*
X23536601Y-13576742D01*
X23504093Y-13413315D01*
X23504093Y-13246685D01*
X23536601Y-13083258D01*
X23600367Y-12929313D01*
X23692941Y-12790766D01*
X23810766Y-12672941D01*
X23949313Y-12580367D01*
X24103258Y-12516601D01*
X24266685Y-12484093D01*
X24433315Y-12484093D01*
X24596742Y-12516601D01*
G37*
G36*
X27136742Y-12516601D02*
G01*
X27290687Y-12580367D01*
X27429234Y-12672941D01*
X27547059Y-12790766D01*
X27639633Y-12929313D01*
X27703399Y-13083258D01*
X27735907Y-13246685D01*
X27735907Y-13413315D01*
X27703399Y-13576742D01*
X27639633Y-13730687D01*
X27547059Y-13869234D01*
X27429234Y-13987059D01*
X27290687Y-14079633D01*
X27136742Y-14143399D01*
X26973315Y-14175907D01*
X26806685Y-14175907D01*
X26643258Y-14143399D01*
X26489313Y-14079633D01*
X26350766Y-13987059D01*
X26232941Y-13869234D01*
X26140367Y-13730687D01*
X26076601Y-13576742D01*
X26044093Y-13413315D01*
X26044093Y-13246685D01*
X26076601Y-13083258D01*
X26140367Y-12929313D01*
X26232941Y-12790766D01*
X26350766Y-12672941D01*
X26489313Y-12580367D01*
X26643258Y-12516601D01*
X26806685Y-12484093D01*
X26973315Y-12484093D01*
X27136742Y-12516601D01*
G37*
G36*
X29676742Y-12516601D02*
G01*
X29830687Y-12580367D01*
X29969234Y-12672941D01*
X30087059Y-12790766D01*
X30179633Y-12929313D01*
X30243399Y-13083258D01*
X30275907Y-13246685D01*
X30275907Y-13413315D01*
X30243399Y-13576742D01*
X30179633Y-13730687D01*
X30087059Y-13869234D01*
X29969234Y-13987059D01*
X29830687Y-14079633D01*
X29676742Y-14143399D01*
X29513315Y-14175907D01*
X29346685Y-14175907D01*
X29183258Y-14143399D01*
X29029313Y-14079633D01*
X28890766Y-13987059D01*
X28772941Y-13869234D01*
X28680367Y-13730687D01*
X28616601Y-13576742D01*
X28584093Y-13413315D01*
X28584093Y-13246685D01*
X28616601Y-13083258D01*
X28680367Y-12929313D01*
X28772941Y-12790766D01*
X28890766Y-12672941D01*
X29029313Y-12580367D01*
X29183258Y-12516601D01*
X29346685Y-12484093D01*
X29513315Y-12484093D01*
X29676742Y-12516601D01*
G37*
G36*
X6816742Y-9976601D02*
G01*
X6970687Y-10040367D01*
X7109234Y-10132941D01*
X7227059Y-10250766D01*
X7319633Y-10389313D01*
X7383399Y-10543258D01*
X7415907Y-10706685D01*
X7415907Y-10873315D01*
X7383399Y-11036742D01*
X7319633Y-11190687D01*
X7227059Y-11329234D01*
X7109234Y-11447059D01*
X6970687Y-11539633D01*
X6816742Y-11603399D01*
X6653315Y-11635907D01*
X6486685Y-11635907D01*
X6323258Y-11603399D01*
X6169313Y-11539633D01*
X6030766Y-11447059D01*
X5912941Y-11329234D01*
X5820367Y-11190687D01*
X5756601Y-11036742D01*
X5724093Y-10873315D01*
X5724093Y-10706685D01*
X5756601Y-10543258D01*
X5820367Y-10389313D01*
X5912941Y-10250766D01*
X6030766Y-10132941D01*
X6169313Y-10040367D01*
X6323258Y-9976601D01*
X6486685Y-9944093D01*
X6653315Y-9944093D01*
X6816742Y-9976601D01*
G37*
G36*
X9356742Y-9976601D02*
G01*
X9510687Y-10040367D01*
X9649234Y-10132941D01*
X9767059Y-10250766D01*
X9859633Y-10389313D01*
X9923399Y-10543258D01*
X9955907Y-10706685D01*
X9955907Y-10873315D01*
X9923399Y-11036742D01*
X9859633Y-11190687D01*
X9767059Y-11329234D01*
X9649234Y-11447059D01*
X9510687Y-11539633D01*
X9356742Y-11603399D01*
X9193315Y-11635907D01*
X9026685Y-11635907D01*
X8863258Y-11603399D01*
X8709313Y-11539633D01*
X8570766Y-11447059D01*
X8452941Y-11329234D01*
X8360367Y-11190687D01*
X8296601Y-11036742D01*
X8264093Y-10873315D01*
X8264093Y-10706685D01*
X8296601Y-10543258D01*
X8360367Y-10389313D01*
X8452941Y-10250766D01*
X8570766Y-10132941D01*
X8709313Y-10040367D01*
X8863258Y-9976601D01*
X9026685Y-9944093D01*
X9193315Y-9944093D01*
X9356742Y-9976601D01*
G37*
G36*
X11896742Y-9976601D02*
G01*
X12050687Y-10040367D01*
X12189234Y-10132941D01*
X12307059Y-10250766D01*
X12399633Y-10389313D01*
X12463399Y-10543258D01*
X12495907Y-10706685D01*
X12495907Y-10873315D01*
X12463399Y-11036742D01*
X12399633Y-11190687D01*
X12307059Y-11329234D01*
X12189234Y-11447059D01*
X12050687Y-11539633D01*
X11896742Y-11603399D01*
X11733315Y-11635907D01*
X11566685Y-11635907D01*
X11403258Y-11603399D01*
X11249313Y-11539633D01*
X11110766Y-11447059D01*
X10992941Y-11329234D01*
X10900367Y-11190687D01*
X10836601Y-11036742D01*
X10804093Y-10873315D01*
X10804093Y-10706685D01*
X10836601Y-10543258D01*
X10900367Y-10389313D01*
X10992941Y-10250766D01*
X11110766Y-10132941D01*
X11249313Y-10040367D01*
X11403258Y-9976601D01*
X11566685Y-9944093D01*
X11733315Y-9944093D01*
X11896742Y-9976601D01*
G37*
G36*
X14436742Y-9976601D02*
G01*
X14590687Y-10040367D01*
X14729234Y-10132941D01*
X14847059Y-10250766D01*
X14939633Y-10389313D01*
X15003399Y-10543258D01*
X15035907Y-10706685D01*
X15035907Y-10873315D01*
X15003399Y-11036742D01*
X14939633Y-11190687D01*
X14847059Y-11329234D01*
X14729234Y-11447059D01*
X14590687Y-11539633D01*
X14436742Y-11603399D01*
X14273315Y-11635907D01*
X14106685Y-11635907D01*
X13943258Y-11603399D01*
X13789313Y-11539633D01*
X13650766Y-11447059D01*
X13532941Y-11329234D01*
X13440367Y-11190687D01*
X13376601Y-11036742D01*
X13344093Y-10873315D01*
X13344093Y-10706685D01*
X13376601Y-10543258D01*
X13440367Y-10389313D01*
X13532941Y-10250766D01*
X13650766Y-10132941D01*
X13789313Y-10040367D01*
X13943258Y-9976601D01*
X14106685Y-9944093D01*
X14273315Y-9944093D01*
X14436742Y-9976601D01*
G37*
G36*
X16976742Y-9976601D02*
G01*
X17130687Y-10040367D01*
X17269234Y-10132941D01*
X17387059Y-10250766D01*
X17479633Y-10389313D01*
X17543399Y-10543258D01*
X17575907Y-10706685D01*
X17575907Y-10873315D01*
X17543399Y-11036742D01*
X17479633Y-11190687D01*
X17387059Y-11329234D01*
X17269234Y-11447059D01*
X17130687Y-11539633D01*
X16976742Y-11603399D01*
X16813315Y-11635907D01*
X16646685Y-11635907D01*
X16483258Y-11603399D01*
X16329313Y-11539633D01*
X16190766Y-11447059D01*
X16072941Y-11329234D01*
X15980367Y-11190687D01*
X15916601Y-11036742D01*
X15884093Y-10873315D01*
X15884093Y-10706685D01*
X15916601Y-10543258D01*
X15980367Y-10389313D01*
X16072941Y-10250766D01*
X16190766Y-10132941D01*
X16329313Y-10040367D01*
X16483258Y-9976601D01*
X16646685Y-9944093D01*
X16813315Y-9944093D01*
X16976742Y-9976601D01*
G37*
G36*
X19516742Y-9976601D02*
G01*
X19670687Y-10040367D01*
X19809234Y-10132941D01*
X19927059Y-10250766D01*
X20019633Y-10389313D01*
X20083399Y-10543258D01*
X20115907Y-10706685D01*
X20115907Y-10873315D01*
X20083399Y-11036742D01*
X20019633Y-11190687D01*
X19927059Y-11329234D01*
X19809234Y-11447059D01*
X19670687Y-11539633D01*
X19516742Y-11603399D01*
X19353315Y-11635907D01*
X19186685Y-11635907D01*
X19023258Y-11603399D01*
X18869313Y-11539633D01*
X18730766Y-11447059D01*
X18612941Y-11329234D01*
X18520367Y-11190687D01*
X18456601Y-11036742D01*
X18424093Y-10873315D01*
X18424093Y-10706685D01*
X18456601Y-10543258D01*
X18520367Y-10389313D01*
X18612941Y-10250766D01*
X18730766Y-10132941D01*
X18869313Y-10040367D01*
X19023258Y-9976601D01*
X19186685Y-9944093D01*
X19353315Y-9944093D01*
X19516742Y-9976601D01*
G37*
G36*
X22056742Y-9976601D02*
G01*
X22210687Y-10040367D01*
X22349234Y-10132941D01*
X22467059Y-10250766D01*
X22559633Y-10389313D01*
X22623399Y-10543258D01*
X22655907Y-10706685D01*
X22655907Y-10873315D01*
X22623399Y-11036742D01*
X22559633Y-11190687D01*
X22467059Y-11329234D01*
X22349234Y-11447059D01*
X22210687Y-11539633D01*
X22056742Y-11603399D01*
X21893315Y-11635907D01*
X21726685Y-11635907D01*
X21563258Y-11603399D01*
X21409313Y-11539633D01*
X21270766Y-11447059D01*
X21152941Y-11329234D01*
X21060367Y-11190687D01*
X20996601Y-11036742D01*
X20964093Y-10873315D01*
X20964093Y-10706685D01*
X20996601Y-10543258D01*
X21060367Y-10389313D01*
X21152941Y-10250766D01*
X21270766Y-10132941D01*
X21409313Y-10040367D01*
X21563258Y-9976601D01*
X21726685Y-9944093D01*
X21893315Y-9944093D01*
X22056742Y-9976601D01*
G37*
G36*
X24596742Y-9976601D02*
G01*
X24750687Y-10040367D01*
X24889234Y-10132941D01*
X25007059Y-10250766D01*
X25099633Y-10389313D01*
X25163399Y-10543258D01*
X25195907Y-10706685D01*
X25195907Y-10873315D01*
X25163399Y-11036742D01*
X25099633Y-11190687D01*
X25007059Y-11329234D01*
X24889234Y-11447059D01*
X24750687Y-11539633D01*
X24596742Y-11603399D01*
X24433315Y-11635907D01*
X24266685Y-11635907D01*
X24103258Y-11603399D01*
X23949313Y-11539633D01*
X23810766Y-11447059D01*
X23692941Y-11329234D01*
X23600367Y-11190687D01*
X23536601Y-11036742D01*
X23504093Y-10873315D01*
X23504093Y-10706685D01*
X23536601Y-10543258D01*
X23600367Y-10389313D01*
X23692941Y-10250766D01*
X23810766Y-10132941D01*
X23949313Y-10040367D01*
X24103258Y-9976601D01*
X24266685Y-9944093D01*
X24433315Y-9944093D01*
X24596742Y-9976601D01*
G37*
G36*
X27136742Y-9976601D02*
G01*
X27290687Y-10040367D01*
X27429234Y-10132941D01*
X27547059Y-10250766D01*
X27639633Y-10389313D01*
X27703399Y-10543258D01*
X27735907Y-10706685D01*
X27735907Y-10873315D01*
X27703399Y-11036742D01*
X27639633Y-11190687D01*
X27547059Y-11329234D01*
X27429234Y-11447059D01*
X27290687Y-11539633D01*
X27136742Y-11603399D01*
X26973315Y-11635907D01*
X26806685Y-11635907D01*
X26643258Y-11603399D01*
X26489313Y-11539633D01*
X26350766Y-11447059D01*
X26232941Y-11329234D01*
X26140367Y-11190687D01*
X26076601Y-11036742D01*
X26044093Y-10873315D01*
X26044093Y-10706685D01*
X26076601Y-10543258D01*
X26140367Y-10389313D01*
X26232941Y-10250766D01*
X26350766Y-10132941D01*
X26489313Y-10040367D01*
X26643258Y-9976601D01*
X26806685Y-9944093D01*
X26973315Y-9944093D01*
X27136742Y-9976601D01*
G37*
G36*
X29676742Y-9976601D02*
G01*
X29830687Y-10040367D01*
X29969234Y-10132941D01*
X30087059Y-10250766D01*
X30179633Y-10389313D01*
X30243399Y-10543258D01*
X30275907Y-10706685D01*
X30275907Y-10873315D01*
X30243399Y-11036742D01*
X30179633Y-11190687D01*
X30087059Y-11329234D01*
X29969234Y-11447059D01*
X29830687Y-11539633D01*
X29676742Y-11603399D01*
X29513315Y-11635907D01*
X29346685Y-11635907D01*
X29183258Y-11603399D01*
X29029313Y-11539633D01*
X28890766Y-11447059D01*
X28772941Y-11329234D01*
X28680367Y-11190687D01*
X28616601Y-11036742D01*
X28584093Y-10873315D01*
X28584093Y-10706685D01*
X28616601Y-10543258D01*
X28680367Y-10389313D01*
X28772941Y-10250766D01*
X28890766Y-10132941D01*
X29029313Y-10040367D01*
X29183258Y-9976601D01*
X29346685Y-9944093D01*
X29513315Y-9944093D01*
X29676742Y-9976601D01*
G37*
%LPD*%
M02*
