M48
; DRILL file KiCad 10.0.6 date 2026-10-04T20:51:45
; FORMAT={-:-/ absolute / metric / decimal}
; #@! TF.CreationDate,2026-10-04T20:51:45+02:00
; #@! TF.GenerationSoftware,Kicad,Pcbnew,10.0.6
; #@! TF.FileFunction,Plated,1,2,PTH
FMAT,2
METRIC
; #@! TA.AperFunction,Plated,PTH,ViaDrill
T1C0.400
; #@! TA.AperFunction,Plated,PTH,ComponentDrill
T2C1.000
; #@! TA.AperFunction,Plated,PTH,ComponentDrill
T3C1.100
%
G90
G05
T1
X2.5Y-15.0
X2.5Y-35.0
X2.5Y-45.0
X2.5Y-55.0
X2.5Y-85.0
X5.0Y-30.0
X5.0Y-40.0
X5.0Y-50.0
X5.0Y-70.0
X7.5Y-35.0
X7.5Y-45.0
X7.5Y-55.0
X7.5Y-85.0
X10.0Y-90.0
X12.5Y-55.0
X12.5Y-75.0
X12.5Y-85.0
X12.5Y-95.0
X15.0Y-60.0
X15.0Y-80.0
X15.0Y-90.0
X17.5Y-75.0
X17.5Y-85.0
X17.5Y-95.0
X19.899Y-44.138
X20.0Y-60.0
X20.0Y-70.0
X20.0Y-80.0
X20.0Y-90.0
X22.395Y-29.839
X22.5Y-45.0
X22.5Y-55.0
X22.5Y-65.0
X22.5Y-75.0
X22.5Y-85.0
X22.5Y-95.0
X25.0Y-60.0
X25.0Y-70.0
X25.0Y-80.0
X25.0Y-90.0
X27.5Y-25.0
X27.5Y-35.0
X27.5Y-45.0
X27.5Y-55.0
X27.5Y-65.0
X27.5Y-75.0
X27.5Y-85.0
X27.5Y-95.0
X30.0Y-30.0
X30.0Y-40.0
X30.0Y-50.0
X30.0Y-60.0
X30.0Y-70.0
X30.0Y-80.0
X30.0Y-90.0
X32.5Y-25.0
X32.5Y-35.0
X32.5Y-45.0
X32.5Y-55.0
X32.5Y-65.0
X32.5Y-75.0
X32.5Y-85.0
T2
X6.57Y-10.79
X6.57Y-13.33
X9.11Y-10.79
X9.11Y-13.33
X11.65Y-10.79
X11.65Y-13.33
X14.19Y-10.79
X14.19Y-13.33
X16.73Y-10.79
X16.73Y-13.33
X19.27Y-10.79
X19.27Y-13.33
X21.81Y-10.79
X21.81Y-13.33
X24.35Y-10.79
X24.35Y-13.33
X26.89Y-10.79
X26.89Y-13.33
X29.43Y-10.79
X29.43Y-13.33
T3
X15.0Y-28.5
X15.0Y-32.0
X15.0Y-35.5
X15.0Y-39.0
X15.0Y-42.5
X15.0Y-46.0
X15.0Y-49.5
X15.0Y-53.0
X15.0Y-56.5
X15.0Y-68.0
X15.0Y-71.5
X15.0Y-83.0
X15.0Y-86.5
X18.5Y-28.5
X18.5Y-32.0
X18.5Y-35.5
X18.5Y-39.0
X18.5Y-42.5
X18.5Y-46.0
X18.5Y-49.5
X18.5Y-53.0
X18.5Y-56.5
M30
