%TF.GenerationSoftware,KiCad,Pcbnew,10.0.6*%
%TF.CreationDate,2026-10-04T20:51:44+02:00*%
%TF.ProjectId,P11,5031312e-6b69-4636-9164-5f7063625858,P11-R2 PCB*%
%TF.SameCoordinates,Original*%
%TF.FileFunction,Soldermask,Top*%
%TF.FilePolarity,Negative*%
%FSLAX46Y46*%
G04 Gerber Fmt 4.6, Leading zero omitted, Abs format (unit mm)*
G04 Created by KiCad (PCBNEW 10.0.6) date 2026-10-04 20:51:44*
%MOMM*%
%LPD*%
G01*
G04 APERTURE LIST*
G04 APERTURE END LIST*
G36*
X4873513Y-88444208D02*
G01*
X5112293Y-88521793D01*
X5335998Y-88635776D01*
X5539117Y-88783350D01*
X5716650Y-88960883D01*
X5864224Y-89164002D01*
X5978207Y-89387707D01*
X6055792Y-89626487D01*
X6095068Y-89874465D01*
X6095068Y-90125535D01*
X6055792Y-90373513D01*
X5978207Y-90612293D01*
X5864224Y-90835998D01*
X5716650Y-91039117D01*
X5539117Y-91216650D01*
X5335998Y-91364224D01*
X5112293Y-91478207D01*
X4873513Y-91555792D01*
X4625535Y-91595068D01*
X4374465Y-91595068D01*
X4126487Y-91555792D01*
X3887707Y-91478207D01*
X3664002Y-91364224D01*
X3460883Y-91216650D01*
X3283350Y-91039117D01*
X3135776Y-90835998D01*
X3021793Y-90612293D01*
X2944208Y-90373513D01*
X2904932Y-90125535D01*
X2904932Y-89874465D01*
X2944208Y-89626487D01*
X3021793Y-89387707D01*
X3135776Y-89164002D01*
X3283350Y-88960883D01*
X3460883Y-88783350D01*
X3664002Y-88635776D01*
X3887707Y-88521793D01*
X4126487Y-88444208D01*
X4374465Y-88404932D01*
X4625535Y-88404932D01*
X4873513Y-88444208D01*
G37*
G36*
X16150000Y-87650000D02*
G01*
X13850000Y-87650000D01*
X13850000Y-85350000D01*
X16150000Y-85350000D01*
X16150000Y-87650000D01*
G37*
G36*
X15268462Y-81881775D02*
G01*
X15440086Y-81937539D01*
X15600873Y-82019464D01*
X15746865Y-82125533D01*
X15874467Y-82253135D01*
X15980536Y-82399127D01*
X16062461Y-82559914D01*
X16118225Y-82731538D01*
X16146455Y-82909772D01*
X16146455Y-83090228D01*
X16118225Y-83268462D01*
X16062461Y-83440086D01*
X15980536Y-83600873D01*
X15874467Y-83746865D01*
X15746865Y-83874467D01*
X15600873Y-83980536D01*
X15440086Y-84062461D01*
X15268462Y-84118225D01*
X15090228Y-84146455D01*
X14909772Y-84146455D01*
X14731538Y-84118225D01*
X14559914Y-84062461D01*
X14399127Y-83980536D01*
X14253135Y-83874467D01*
X14125533Y-83746865D01*
X14019464Y-83600873D01*
X13937539Y-83440086D01*
X13881775Y-83268462D01*
X13853545Y-83090228D01*
X13853545Y-82909772D01*
X13881775Y-82731538D01*
X13937539Y-82559914D01*
X14019464Y-82399127D01*
X14125533Y-82253135D01*
X14253135Y-82125533D01*
X14399127Y-82019464D01*
X14559914Y-81937539D01*
X14731538Y-81881775D01*
X14909772Y-81853545D01*
X15090228Y-81853545D01*
X15268462Y-81881775D01*
G37*
G36*
X4873513Y-77944208D02*
G01*
X5112293Y-78021793D01*
X5335998Y-78135776D01*
X5539117Y-78283350D01*
X5716650Y-78460883D01*
X5864224Y-78664002D01*
X5978207Y-78887707D01*
X6055792Y-79126487D01*
X6095068Y-79374465D01*
X6095068Y-79625535D01*
X6055792Y-79873513D01*
X5978207Y-80112293D01*
X5864224Y-80335998D01*
X5716650Y-80539117D01*
X5539117Y-80716650D01*
X5335998Y-80864224D01*
X5112293Y-80978207D01*
X4873513Y-81055792D01*
X4625535Y-81095068D01*
X4374465Y-81095068D01*
X4126487Y-81055792D01*
X3887707Y-80978207D01*
X3664002Y-80864224D01*
X3460883Y-80716650D01*
X3283350Y-80539117D01*
X3135776Y-80335998D01*
X3021793Y-80112293D01*
X2944208Y-79873513D01*
X2904932Y-79625535D01*
X2904932Y-79374465D01*
X2944208Y-79126487D01*
X3021793Y-78887707D01*
X3135776Y-78664002D01*
X3283350Y-78460883D01*
X3460883Y-78283350D01*
X3664002Y-78135776D01*
X3887707Y-78021793D01*
X4126487Y-77944208D01*
X4374465Y-77904932D01*
X4625535Y-77904932D01*
X4873513Y-77944208D01*
G37*
G36*
X4873513Y-73444208D02*
G01*
X5112293Y-73521793D01*
X5335998Y-73635776D01*
X5539117Y-73783350D01*
X5716650Y-73960883D01*
X5864224Y-74164002D01*
X5978207Y-74387707D01*
X6055792Y-74626487D01*
X6095068Y-74874465D01*
X6095068Y-75125535D01*
X6055792Y-75373513D01*
X5978207Y-75612293D01*
X5864224Y-75835998D01*
X5716650Y-76039117D01*
X5539117Y-76216650D01*
X5335998Y-76364224D01*
X5112293Y-76478207D01*
X4873513Y-76555792D01*
X4625535Y-76595068D01*
X4374465Y-76595068D01*
X4126487Y-76555792D01*
X3887707Y-76478207D01*
X3664002Y-76364224D01*
X3460883Y-76216650D01*
X3283350Y-76039117D01*
X3135776Y-75835998D01*
X3021793Y-75612293D01*
X2944208Y-75373513D01*
X2904932Y-75125535D01*
X2904932Y-74874465D01*
X2944208Y-74626487D01*
X3021793Y-74387707D01*
X3135776Y-74164002D01*
X3283350Y-73960883D01*
X3460883Y-73783350D01*
X3664002Y-73635776D01*
X3887707Y-73521793D01*
X4126487Y-73444208D01*
X4374465Y-73404932D01*
X4625535Y-73404932D01*
X4873513Y-73444208D01*
G37*
G36*
X16150000Y-72650000D02*
G01*
X13850000Y-72650000D01*
X13850000Y-70350000D01*
X16150000Y-70350000D01*
X16150000Y-72650000D01*
G37*
G36*
X15268462Y-66881775D02*
G01*
X15440086Y-66937539D01*
X15600873Y-67019464D01*
X15746865Y-67125533D01*
X15874467Y-67253135D01*
X15980536Y-67399127D01*
X16062461Y-67559914D01*
X16118225Y-67731538D01*
X16146455Y-67909772D01*
X16146455Y-68090228D01*
X16118225Y-68268462D01*
X16062461Y-68440086D01*
X15980536Y-68600873D01*
X15874467Y-68746865D01*
X15746865Y-68874467D01*
X15600873Y-68980536D01*
X15440086Y-69062461D01*
X15268462Y-69118225D01*
X15090228Y-69146455D01*
X14909772Y-69146455D01*
X14731538Y-69118225D01*
X14559914Y-69062461D01*
X14399127Y-68980536D01*
X14253135Y-68874467D01*
X14125533Y-68746865D01*
X14019464Y-68600873D01*
X13937539Y-68440086D01*
X13881775Y-68268462D01*
X13853545Y-68090228D01*
X13853545Y-67909772D01*
X13881775Y-67731538D01*
X13937539Y-67559914D01*
X14019464Y-67399127D01*
X14125533Y-67253135D01*
X14253135Y-67125533D01*
X14399127Y-67019464D01*
X14559914Y-66937539D01*
X14731538Y-66881775D01*
X14909772Y-66853545D01*
X15090228Y-66853545D01*
X15268462Y-66881775D01*
G37*
G36*
X4873513Y-62944208D02*
G01*
X5112293Y-63021793D01*
X5335998Y-63135776D01*
X5539117Y-63283350D01*
X5716650Y-63460883D01*
X5864224Y-63664002D01*
X5978207Y-63887707D01*
X6055792Y-64126487D01*
X6095068Y-64374465D01*
X6095068Y-64625535D01*
X6055792Y-64873513D01*
X5978207Y-65112293D01*
X5864224Y-65335998D01*
X5716650Y-65539117D01*
X5539117Y-65716650D01*
X5335998Y-65864224D01*
X5112293Y-65978207D01*
X4873513Y-66055792D01*
X4625535Y-66095068D01*
X4374465Y-66095068D01*
X4126487Y-66055792D01*
X3887707Y-65978207D01*
X3664002Y-65864224D01*
X3460883Y-65716650D01*
X3283350Y-65539117D01*
X3135776Y-65335998D01*
X3021793Y-65112293D01*
X2944208Y-64873513D01*
X2904932Y-64625535D01*
X2904932Y-64374465D01*
X2944208Y-64126487D01*
X3021793Y-63887707D01*
X3135776Y-63664002D01*
X3283350Y-63460883D01*
X3460883Y-63283350D01*
X3664002Y-63135776D01*
X3887707Y-63021793D01*
X4126487Y-62944208D01*
X4374465Y-62904932D01*
X4625535Y-62904932D01*
X4873513Y-62944208D01*
G37*
G36*
X4873513Y-58444208D02*
G01*
X5112293Y-58521793D01*
X5335998Y-58635776D01*
X5539117Y-58783350D01*
X5716650Y-58960883D01*
X5864224Y-59164002D01*
X5978207Y-59387707D01*
X6055792Y-59626487D01*
X6095068Y-59874465D01*
X6095068Y-60125535D01*
X6055792Y-60373513D01*
X5978207Y-60612293D01*
X5864224Y-60835998D01*
X5716650Y-61039117D01*
X5539117Y-61216650D01*
X5335998Y-61364224D01*
X5112293Y-61478207D01*
X4873513Y-61555792D01*
X4625535Y-61595068D01*
X4374465Y-61595068D01*
X4126487Y-61555792D01*
X3887707Y-61478207D01*
X3664002Y-61364224D01*
X3460883Y-61216650D01*
X3283350Y-61039117D01*
X3135776Y-60835998D01*
X3021793Y-60612293D01*
X2944208Y-60373513D01*
X2904932Y-60125535D01*
X2904932Y-59874465D01*
X2944208Y-59626487D01*
X3021793Y-59387707D01*
X3135776Y-59164002D01*
X3283350Y-58960883D01*
X3460883Y-58783350D01*
X3664002Y-58635776D01*
X3887707Y-58521793D01*
X4126487Y-58444208D01*
X4374465Y-58404932D01*
X4625535Y-58404932D01*
X4873513Y-58444208D01*
G37*
G36*
X16150000Y-57650000D02*
G01*
X13850000Y-57650000D01*
X13850000Y-55350000D01*
X16150000Y-55350000D01*
X16150000Y-57650000D01*
G37*
G36*
X18768462Y-55381775D02*
G01*
X18940086Y-55437539D01*
X19100873Y-55519464D01*
X19246865Y-55625533D01*
X19374467Y-55753135D01*
X19480536Y-55899127D01*
X19562461Y-56059914D01*
X19618225Y-56231538D01*
X19646455Y-56409772D01*
X19646455Y-56590228D01*
X19618225Y-56768462D01*
X19562461Y-56940086D01*
X19480536Y-57100873D01*
X19374467Y-57246865D01*
X19246865Y-57374467D01*
X19100873Y-57480536D01*
X18940086Y-57562461D01*
X18768462Y-57618225D01*
X18590228Y-57646455D01*
X18409772Y-57646455D01*
X18231538Y-57618225D01*
X18059914Y-57562461D01*
X17899127Y-57480536D01*
X17753135Y-57374467D01*
X17625533Y-57246865D01*
X17519464Y-57100873D01*
X17437539Y-56940086D01*
X17381775Y-56768462D01*
X17353545Y-56590228D01*
X17353545Y-56409772D01*
X17381775Y-56231538D01*
X17437539Y-56059914D01*
X17519464Y-55899127D01*
X17625533Y-55753135D01*
X17753135Y-55625533D01*
X17899127Y-55519464D01*
X18059914Y-55437539D01*
X18231538Y-55381775D01*
X18409772Y-55353545D01*
X18590228Y-55353545D01*
X18768462Y-55381775D01*
G37*
G36*
X15268462Y-51881775D02*
G01*
X15440086Y-51937539D01*
X15600873Y-52019464D01*
X15746865Y-52125533D01*
X15874467Y-52253135D01*
X15980536Y-52399127D01*
X16062461Y-52559914D01*
X16118225Y-52731538D01*
X16146455Y-52909772D01*
X16146455Y-53090228D01*
X16118225Y-53268462D01*
X16062461Y-53440086D01*
X15980536Y-53600873D01*
X15874467Y-53746865D01*
X15746865Y-53874467D01*
X15600873Y-53980536D01*
X15440086Y-54062461D01*
X15268462Y-54118225D01*
X15090228Y-54146455D01*
X14909772Y-54146455D01*
X14731538Y-54118225D01*
X14559914Y-54062461D01*
X14399127Y-53980536D01*
X14253135Y-53874467D01*
X14125533Y-53746865D01*
X14019464Y-53600873D01*
X13937539Y-53440086D01*
X13881775Y-53268462D01*
X13853545Y-53090228D01*
X13853545Y-52909772D01*
X13881775Y-52731538D01*
X13937539Y-52559914D01*
X14019464Y-52399127D01*
X14125533Y-52253135D01*
X14253135Y-52125533D01*
X14399127Y-52019464D01*
X14559914Y-51937539D01*
X14731538Y-51881775D01*
X14909772Y-51853545D01*
X15090228Y-51853545D01*
X15268462Y-51881775D01*
G37*
G36*
X18768462Y-51881775D02*
G01*
X18940086Y-51937539D01*
X19100873Y-52019464D01*
X19246865Y-52125533D01*
X19374467Y-52253135D01*
X19480536Y-52399127D01*
X19562461Y-52559914D01*
X19618225Y-52731538D01*
X19646455Y-52909772D01*
X19646455Y-53090228D01*
X19618225Y-53268462D01*
X19562461Y-53440086D01*
X19480536Y-53600873D01*
X19374467Y-53746865D01*
X19246865Y-53874467D01*
X19100873Y-53980536D01*
X18940086Y-54062461D01*
X18768462Y-54118225D01*
X18590228Y-54146455D01*
X18409772Y-54146455D01*
X18231538Y-54118225D01*
X18059914Y-54062461D01*
X17899127Y-53980536D01*
X17753135Y-53874467D01*
X17625533Y-53746865D01*
X17519464Y-53600873D01*
X17437539Y-53440086D01*
X17381775Y-53268462D01*
X17353545Y-53090228D01*
X17353545Y-52909772D01*
X17381775Y-52731538D01*
X17437539Y-52559914D01*
X17519464Y-52399127D01*
X17625533Y-52253135D01*
X17753135Y-52125533D01*
X17899127Y-52019464D01*
X18059914Y-51937539D01*
X18231538Y-51881775D01*
X18409772Y-51853545D01*
X18590228Y-51853545D01*
X18768462Y-51881775D01*
G37*
G36*
X15268462Y-48381775D02*
G01*
X15440086Y-48437539D01*
X15600873Y-48519464D01*
X15746865Y-48625533D01*
X15874467Y-48753135D01*
X15980536Y-48899127D01*
X16062461Y-49059914D01*
X16118225Y-49231538D01*
X16146455Y-49409772D01*
X16146455Y-49590228D01*
X16118225Y-49768462D01*
X16062461Y-49940086D01*
X15980536Y-50100873D01*
X15874467Y-50246865D01*
X15746865Y-50374467D01*
X15600873Y-50480536D01*
X15440086Y-50562461D01*
X15268462Y-50618225D01*
X15090228Y-50646455D01*
X14909772Y-50646455D01*
X14731538Y-50618225D01*
X14559914Y-50562461D01*
X14399127Y-50480536D01*
X14253135Y-50374467D01*
X14125533Y-50246865D01*
X14019464Y-50100873D01*
X13937539Y-49940086D01*
X13881775Y-49768462D01*
X13853545Y-49590228D01*
X13853545Y-49409772D01*
X13881775Y-49231538D01*
X13937539Y-49059914D01*
X14019464Y-48899127D01*
X14125533Y-48753135D01*
X14253135Y-48625533D01*
X14399127Y-48519464D01*
X14559914Y-48437539D01*
X14731538Y-48381775D01*
X14909772Y-48353545D01*
X15090228Y-48353545D01*
X15268462Y-48381775D01*
G37*
G36*
X18768462Y-48381775D02*
G01*
X18940086Y-48437539D01*
X19100873Y-48519464D01*
X19246865Y-48625533D01*
X19374467Y-48753135D01*
X19480536Y-48899127D01*
X19562461Y-49059914D01*
X19618225Y-49231538D01*
X19646455Y-49409772D01*
X19646455Y-49590228D01*
X19618225Y-49768462D01*
X19562461Y-49940086D01*
X19480536Y-50100873D01*
X19374467Y-50246865D01*
X19246865Y-50374467D01*
X19100873Y-50480536D01*
X18940086Y-50562461D01*
X18768462Y-50618225D01*
X18590228Y-50646455D01*
X18409772Y-50646455D01*
X18231538Y-50618225D01*
X18059914Y-50562461D01*
X17899127Y-50480536D01*
X17753135Y-50374467D01*
X17625533Y-50246865D01*
X17519464Y-50100873D01*
X17437539Y-49940086D01*
X17381775Y-49768462D01*
X17353545Y-49590228D01*
X17353545Y-49409772D01*
X17381775Y-49231538D01*
X17437539Y-49059914D01*
X17519464Y-48899127D01*
X17625533Y-48753135D01*
X17753135Y-48625533D01*
X17899127Y-48519464D01*
X18059914Y-48437539D01*
X18231538Y-48381775D01*
X18409772Y-48353545D01*
X18590228Y-48353545D01*
X18768462Y-48381775D01*
G37*
G36*
X15268462Y-44881775D02*
G01*
X15440086Y-44937539D01*
X15600873Y-45019464D01*
X15746865Y-45125533D01*
X15874467Y-45253135D01*
X15980536Y-45399127D01*
X16062461Y-45559914D01*
X16118225Y-45731538D01*
X16146455Y-45909772D01*
X16146455Y-46090228D01*
X16118225Y-46268462D01*
X16062461Y-46440086D01*
X15980536Y-46600873D01*
X15874467Y-46746865D01*
X15746865Y-46874467D01*
X15600873Y-46980536D01*
X15440086Y-47062461D01*
X15268462Y-47118225D01*
X15090228Y-47146455D01*
X14909772Y-47146455D01*
X14731538Y-47118225D01*
X14559914Y-47062461D01*
X14399127Y-46980536D01*
X14253135Y-46874467D01*
X14125533Y-46746865D01*
X14019464Y-46600873D01*
X13937539Y-46440086D01*
X13881775Y-46268462D01*
X13853545Y-46090228D01*
X13853545Y-45909772D01*
X13881775Y-45731538D01*
X13937539Y-45559914D01*
X14019464Y-45399127D01*
X14125533Y-45253135D01*
X14253135Y-45125533D01*
X14399127Y-45019464D01*
X14559914Y-44937539D01*
X14731538Y-44881775D01*
X14909772Y-44853545D01*
X15090228Y-44853545D01*
X15268462Y-44881775D01*
G37*
G36*
X18768462Y-44881775D02*
G01*
X18940086Y-44937539D01*
X19100873Y-45019464D01*
X19246865Y-45125533D01*
X19374467Y-45253135D01*
X19480536Y-45399127D01*
X19562461Y-45559914D01*
X19618225Y-45731538D01*
X19646455Y-45909772D01*
X19646455Y-46090228D01*
X19618225Y-46268462D01*
X19562461Y-46440086D01*
X19480536Y-46600873D01*
X19374467Y-46746865D01*
X19246865Y-46874467D01*
X19100873Y-46980536D01*
X18940086Y-47062461D01*
X18768462Y-47118225D01*
X18590228Y-47146455D01*
X18409772Y-47146455D01*
X18231538Y-47118225D01*
X18059914Y-47062461D01*
X17899127Y-46980536D01*
X17753135Y-46874467D01*
X17625533Y-46746865D01*
X17519464Y-46600873D01*
X17437539Y-46440086D01*
X17381775Y-46268462D01*
X17353545Y-46090228D01*
X17353545Y-45909772D01*
X17381775Y-45731538D01*
X17437539Y-45559914D01*
X17519464Y-45399127D01*
X17625533Y-45253135D01*
X17753135Y-45125533D01*
X17899127Y-45019464D01*
X18059914Y-44937539D01*
X18231538Y-44881775D01*
X18409772Y-44853545D01*
X18590228Y-44853545D01*
X18768462Y-44881775D01*
G37*
G36*
X15268462Y-41381775D02*
G01*
X15440086Y-41437539D01*
X15600873Y-41519464D01*
X15746865Y-41625533D01*
X15874467Y-41753135D01*
X15980536Y-41899127D01*
X16062461Y-42059914D01*
X16118225Y-42231538D01*
X16146455Y-42409772D01*
X16146455Y-42590228D01*
X16118225Y-42768462D01*
X16062461Y-42940086D01*
X15980536Y-43100873D01*
X15874467Y-43246865D01*
X15746865Y-43374467D01*
X15600873Y-43480536D01*
X15440086Y-43562461D01*
X15268462Y-43618225D01*
X15090228Y-43646455D01*
X14909772Y-43646455D01*
X14731538Y-43618225D01*
X14559914Y-43562461D01*
X14399127Y-43480536D01*
X14253135Y-43374467D01*
X14125533Y-43246865D01*
X14019464Y-43100873D01*
X13937539Y-42940086D01*
X13881775Y-42768462D01*
X13853545Y-42590228D01*
X13853545Y-42409772D01*
X13881775Y-42231538D01*
X13937539Y-42059914D01*
X14019464Y-41899127D01*
X14125533Y-41753135D01*
X14253135Y-41625533D01*
X14399127Y-41519464D01*
X14559914Y-41437539D01*
X14731538Y-41381775D01*
X14909772Y-41353545D01*
X15090228Y-41353545D01*
X15268462Y-41381775D01*
G37*
G36*
X18768462Y-41381775D02*
G01*
X18940086Y-41437539D01*
X19100873Y-41519464D01*
X19246865Y-41625533D01*
X19374467Y-41753135D01*
X19480536Y-41899127D01*
X19562461Y-42059914D01*
X19618225Y-42231538D01*
X19646455Y-42409772D01*
X19646455Y-42590228D01*
X19618225Y-42768462D01*
X19562461Y-42940086D01*
X19480536Y-43100873D01*
X19374467Y-43246865D01*
X19246865Y-43374467D01*
X19100873Y-43480536D01*
X18940086Y-43562461D01*
X18768462Y-43618225D01*
X18590228Y-43646455D01*
X18409772Y-43646455D01*
X18231538Y-43618225D01*
X18059914Y-43562461D01*
X17899127Y-43480536D01*
X17753135Y-43374467D01*
X17625533Y-43246865D01*
X17519464Y-43100873D01*
X17437539Y-42940086D01*
X17381775Y-42768462D01*
X17353545Y-42590228D01*
X17353545Y-42409772D01*
X17381775Y-42231538D01*
X17437539Y-42059914D01*
X17519464Y-41899127D01*
X17625533Y-41753135D01*
X17753135Y-41625533D01*
X17899127Y-41519464D01*
X18059914Y-41437539D01*
X18231538Y-41381775D01*
X18409772Y-41353545D01*
X18590228Y-41353545D01*
X18768462Y-41381775D01*
G37*
G36*
X15268462Y-37881775D02*
G01*
X15440086Y-37937539D01*
X15600873Y-38019464D01*
X15746865Y-38125533D01*
X15874467Y-38253135D01*
X15980536Y-38399127D01*
X16062461Y-38559914D01*
X16118225Y-38731538D01*
X16146455Y-38909772D01*
X16146455Y-39090228D01*
X16118225Y-39268462D01*
X16062461Y-39440086D01*
X15980536Y-39600873D01*
X15874467Y-39746865D01*
X15746865Y-39874467D01*
X15600873Y-39980536D01*
X15440086Y-40062461D01*
X15268462Y-40118225D01*
X15090228Y-40146455D01*
X14909772Y-40146455D01*
X14731538Y-40118225D01*
X14559914Y-40062461D01*
X14399127Y-39980536D01*
X14253135Y-39874467D01*
X14125533Y-39746865D01*
X14019464Y-39600873D01*
X13937539Y-39440086D01*
X13881775Y-39268462D01*
X13853545Y-39090228D01*
X13853545Y-38909772D01*
X13881775Y-38731538D01*
X13937539Y-38559914D01*
X14019464Y-38399127D01*
X14125533Y-38253135D01*
X14253135Y-38125533D01*
X14399127Y-38019464D01*
X14559914Y-37937539D01*
X14731538Y-37881775D01*
X14909772Y-37853545D01*
X15090228Y-37853545D01*
X15268462Y-37881775D01*
G37*
G36*
X18768462Y-37881775D02*
G01*
X18940086Y-37937539D01*
X19100873Y-38019464D01*
X19246865Y-38125533D01*
X19374467Y-38253135D01*
X19480536Y-38399127D01*
X19562461Y-38559914D01*
X19618225Y-38731538D01*
X19646455Y-38909772D01*
X19646455Y-39090228D01*
X19618225Y-39268462D01*
X19562461Y-39440086D01*
X19480536Y-39600873D01*
X19374467Y-39746865D01*
X19246865Y-39874467D01*
X19100873Y-39980536D01*
X18940086Y-40062461D01*
X18768462Y-40118225D01*
X18590228Y-40146455D01*
X18409772Y-40146455D01*
X18231538Y-40118225D01*
X18059914Y-40062461D01*
X17899127Y-39980536D01*
X17753135Y-39874467D01*
X17625533Y-39746865D01*
X17519464Y-39600873D01*
X17437539Y-39440086D01*
X17381775Y-39268462D01*
X17353545Y-39090228D01*
X17353545Y-38909772D01*
X17381775Y-38731538D01*
X17437539Y-38559914D01*
X17519464Y-38399127D01*
X17625533Y-38253135D01*
X17753135Y-38125533D01*
X17899127Y-38019464D01*
X18059914Y-37937539D01*
X18231538Y-37881775D01*
X18409772Y-37853545D01*
X18590228Y-37853545D01*
X18768462Y-37881775D01*
G37*
G36*
X15268462Y-34381775D02*
G01*
X15440086Y-34437539D01*
X15600873Y-34519464D01*
X15746865Y-34625533D01*
X15874467Y-34753135D01*
X15980536Y-34899127D01*
X16062461Y-35059914D01*
X16118225Y-35231538D01*
X16146455Y-35409772D01*
X16146455Y-35590228D01*
X16118225Y-35768462D01*
X16062461Y-35940086D01*
X15980536Y-36100873D01*
X15874467Y-36246865D01*
X15746865Y-36374467D01*
X15600873Y-36480536D01*
X15440086Y-36562461D01*
X15268462Y-36618225D01*
X15090228Y-36646455D01*
X14909772Y-36646455D01*
X14731538Y-36618225D01*
X14559914Y-36562461D01*
X14399127Y-36480536D01*
X14253135Y-36374467D01*
X14125533Y-36246865D01*
X14019464Y-36100873D01*
X13937539Y-35940086D01*
X13881775Y-35768462D01*
X13853545Y-35590228D01*
X13853545Y-35409772D01*
X13881775Y-35231538D01*
X13937539Y-35059914D01*
X14019464Y-34899127D01*
X14125533Y-34753135D01*
X14253135Y-34625533D01*
X14399127Y-34519464D01*
X14559914Y-34437539D01*
X14731538Y-34381775D01*
X14909772Y-34353545D01*
X15090228Y-34353545D01*
X15268462Y-34381775D01*
G37*
G36*
X18768462Y-34381775D02*
G01*
X18940086Y-34437539D01*
X19100873Y-34519464D01*
X19246865Y-34625533D01*
X19374467Y-34753135D01*
X19480536Y-34899127D01*
X19562461Y-35059914D01*
X19618225Y-35231538D01*
X19646455Y-35409772D01*
X19646455Y-35590228D01*
X19618225Y-35768462D01*
X19562461Y-35940086D01*
X19480536Y-36100873D01*
X19374467Y-36246865D01*
X19246865Y-36374467D01*
X19100873Y-36480536D01*
X18940086Y-36562461D01*
X18768462Y-36618225D01*
X18590228Y-36646455D01*
X18409772Y-36646455D01*
X18231538Y-36618225D01*
X18059914Y-36562461D01*
X17899127Y-36480536D01*
X17753135Y-36374467D01*
X17625533Y-36246865D01*
X17519464Y-36100873D01*
X17437539Y-35940086D01*
X17381775Y-35768462D01*
X17353545Y-35590228D01*
X17353545Y-35409772D01*
X17381775Y-35231538D01*
X17437539Y-35059914D01*
X17519464Y-34899127D01*
X17625533Y-34753135D01*
X17753135Y-34625533D01*
X17899127Y-34519464D01*
X18059914Y-34437539D01*
X18231538Y-34381775D01*
X18409772Y-34353545D01*
X18590228Y-34353545D01*
X18768462Y-34381775D01*
G37*
G36*
X15268462Y-30881775D02*
G01*
X15440086Y-30937539D01*
X15600873Y-31019464D01*
X15746865Y-31125533D01*
X15874467Y-31253135D01*
X15980536Y-31399127D01*
X16062461Y-31559914D01*
X16118225Y-31731538D01*
X16146455Y-31909772D01*
X16146455Y-32090228D01*
X16118225Y-32268462D01*
X16062461Y-32440086D01*
X15980536Y-32600873D01*
X15874467Y-32746865D01*
X15746865Y-32874467D01*
X15600873Y-32980536D01*
X15440086Y-33062461D01*
X15268462Y-33118225D01*
X15090228Y-33146455D01*
X14909772Y-33146455D01*
X14731538Y-33118225D01*
X14559914Y-33062461D01*
X14399127Y-32980536D01*
X14253135Y-32874467D01*
X14125533Y-32746865D01*
X14019464Y-32600873D01*
X13937539Y-32440086D01*
X13881775Y-32268462D01*
X13853545Y-32090228D01*
X13853545Y-31909772D01*
X13881775Y-31731538D01*
X13937539Y-31559914D01*
X14019464Y-31399127D01*
X14125533Y-31253135D01*
X14253135Y-31125533D01*
X14399127Y-31019464D01*
X14559914Y-30937539D01*
X14731538Y-30881775D01*
X14909772Y-30853545D01*
X15090228Y-30853545D01*
X15268462Y-30881775D01*
G37*
G36*
X18768462Y-30881775D02*
G01*
X18940086Y-30937539D01*
X19100873Y-31019464D01*
X19246865Y-31125533D01*
X19374467Y-31253135D01*
X19480536Y-31399127D01*
X19562461Y-31559914D01*
X19618225Y-31731538D01*
X19646455Y-31909772D01*
X19646455Y-32090228D01*
X19618225Y-32268462D01*
X19562461Y-32440086D01*
X19480536Y-32600873D01*
X19374467Y-32746865D01*
X19246865Y-32874467D01*
X19100873Y-32980536D01*
X18940086Y-33062461D01*
X18768462Y-33118225D01*
X18590228Y-33146455D01*
X18409772Y-33146455D01*
X18231538Y-33118225D01*
X18059914Y-33062461D01*
X17899127Y-32980536D01*
X17753135Y-32874467D01*
X17625533Y-32746865D01*
X17519464Y-32600873D01*
X17437539Y-32440086D01*
X17381775Y-32268462D01*
X17353545Y-32090228D01*
X17353545Y-31909772D01*
X17381775Y-31731538D01*
X17437539Y-31559914D01*
X17519464Y-31399127D01*
X17625533Y-31253135D01*
X17753135Y-31125533D01*
X17899127Y-31019464D01*
X18059914Y-30937539D01*
X18231538Y-30881775D01*
X18409772Y-30853545D01*
X18590228Y-30853545D01*
X18768462Y-30881775D01*
G37*
G36*
X15268462Y-27381775D02*
G01*
X15440086Y-27437539D01*
X15600873Y-27519464D01*
X15746865Y-27625533D01*
X15874467Y-27753135D01*
X15980536Y-27899127D01*
X16062461Y-28059914D01*
X16118225Y-28231538D01*
X16146455Y-28409772D01*
X16146455Y-28590228D01*
X16118225Y-28768462D01*
X16062461Y-28940086D01*
X15980536Y-29100873D01*
X15874467Y-29246865D01*
X15746865Y-29374467D01*
X15600873Y-29480536D01*
X15440086Y-29562461D01*
X15268462Y-29618225D01*
X15090228Y-29646455D01*
X14909772Y-29646455D01*
X14731538Y-29618225D01*
X14559914Y-29562461D01*
X14399127Y-29480536D01*
X14253135Y-29374467D01*
X14125533Y-29246865D01*
X14019464Y-29100873D01*
X13937539Y-28940086D01*
X13881775Y-28768462D01*
X13853545Y-28590228D01*
X13853545Y-28409772D01*
X13881775Y-28231538D01*
X13937539Y-28059914D01*
X14019464Y-27899127D01*
X14125533Y-27753135D01*
X14253135Y-27625533D01*
X14399127Y-27519464D01*
X14559914Y-27437539D01*
X14731538Y-27381775D01*
X14909772Y-27353545D01*
X15090228Y-27353545D01*
X15268462Y-27381775D01*
G37*
G36*
X18768462Y-27381775D02*
G01*
X18940086Y-27437539D01*
X19100873Y-27519464D01*
X19246865Y-27625533D01*
X19374467Y-27753135D01*
X19480536Y-27899127D01*
X19562461Y-28059914D01*
X19618225Y-28231538D01*
X19646455Y-28409772D01*
X19646455Y-28590228D01*
X19618225Y-28768462D01*
X19562461Y-28940086D01*
X19480536Y-29100873D01*
X19374467Y-29246865D01*
X19246865Y-29374467D01*
X19100873Y-29480536D01*
X18940086Y-29562461D01*
X18768462Y-29618225D01*
X18590228Y-29646455D01*
X18409772Y-29646455D01*
X18231538Y-29618225D01*
X18059914Y-29562461D01*
X17899127Y-29480536D01*
X17753135Y-29374467D01*
X17625533Y-29246865D01*
X17519464Y-29100873D01*
X17437539Y-28940086D01*
X17381775Y-28768462D01*
X17353545Y-28590228D01*
X17353545Y-28409772D01*
X17381775Y-28231538D01*
X17437539Y-28059914D01*
X17519464Y-27899127D01*
X17625533Y-27753135D01*
X17753135Y-27625533D01*
X17899127Y-27519464D01*
X18059914Y-27437539D01*
X18231538Y-27381775D01*
X18409772Y-27353545D01*
X18590228Y-27353545D01*
X18768462Y-27381775D01*
G37*
G36*
X4873513Y-23444208D02*
G01*
X5112293Y-23521793D01*
X5335998Y-23635776D01*
X5539117Y-23783350D01*
X5716650Y-23960883D01*
X5864224Y-24164002D01*
X5978207Y-24387707D01*
X6055792Y-24626487D01*
X6095068Y-24874465D01*
X6095068Y-25125535D01*
X6055792Y-25373513D01*
X5978207Y-25612293D01*
X5864224Y-25835998D01*
X5716650Y-26039117D01*
X5539117Y-26216650D01*
X5335998Y-26364224D01*
X5112293Y-26478207D01*
X4873513Y-26555792D01*
X4625535Y-26595068D01*
X4374465Y-26595068D01*
X4126487Y-26555792D01*
X3887707Y-26478207D01*
X3664002Y-26364224D01*
X3460883Y-26216650D01*
X3283350Y-26039117D01*
X3135776Y-25835998D01*
X3021793Y-25612293D01*
X2944208Y-25373513D01*
X2904932Y-25125535D01*
X2904932Y-24874465D01*
X2944208Y-24626487D01*
X3021793Y-24387707D01*
X3135776Y-24164002D01*
X3283350Y-23960883D01*
X3460883Y-23783350D01*
X3664002Y-23635776D01*
X3887707Y-23521793D01*
X4126487Y-23444208D01*
X4374465Y-23404932D01*
X4625535Y-23404932D01*
X4873513Y-23444208D01*
G37*
G36*
X24354047Y-16725805D02*
G01*
X24405408Y-16731764D01*
X24422954Y-16739511D01*
X24445671Y-16744030D01*
X24469991Y-16760280D01*
X24490793Y-16769465D01*
X24505000Y-16783672D01*
X24526777Y-16798223D01*
X24541327Y-16819999D01*
X24555534Y-16834206D01*
X24564718Y-16855006D01*
X24580970Y-16879329D01*
X24585489Y-16902048D01*
X24593235Y-16919591D01*
X24599192Y-16970940D01*
X24600000Y-16975000D01*
X24600000Y-18225000D01*
X24599192Y-18229059D01*
X24593235Y-18280408D01*
X24585489Y-18297950D01*
X24580970Y-18320671D01*
X24564716Y-18344995D01*
X24555534Y-18365793D01*
X24541329Y-18379997D01*
X24526777Y-18401777D01*
X24504997Y-18416329D01*
X24490793Y-18430534D01*
X24469995Y-18439716D01*
X24445671Y-18455970D01*
X24422950Y-18460489D01*
X24405408Y-18468235D01*
X24354061Y-18474192D01*
X24350000Y-18475000D01*
X23550000Y-18475000D01*
X23545941Y-18474192D01*
X23494591Y-18468235D01*
X23477048Y-18460489D01*
X23454329Y-18455970D01*
X23430006Y-18439718D01*
X23409206Y-18430534D01*
X23394999Y-18416327D01*
X23373223Y-18401777D01*
X23358672Y-18380000D01*
X23344465Y-18365793D01*
X23335280Y-18344991D01*
X23319030Y-18320671D01*
X23314511Y-18297954D01*
X23306764Y-18280408D01*
X23300805Y-18229049D01*
X23300000Y-18225000D01*
X23300000Y-16975000D01*
X23300804Y-16970953D01*
X23306764Y-16919591D01*
X23314511Y-16902043D01*
X23319030Y-16879329D01*
X23335278Y-16855010D01*
X23344465Y-16834206D01*
X23358674Y-16819996D01*
X23373223Y-16798223D01*
X23394996Y-16783674D01*
X23409206Y-16769465D01*
X23430010Y-16760278D01*
X23454329Y-16744030D01*
X23477043Y-16739511D01*
X23494591Y-16731764D01*
X23545952Y-16725805D01*
X23550000Y-16725000D01*
X24350000Y-16725000D01*
X24354047Y-16725805D01*
G37*
G36*
X27454047Y-16725805D02*
G01*
X27505408Y-16731764D01*
X27522954Y-16739511D01*
X27545671Y-16744030D01*
X27569991Y-16760280D01*
X27590793Y-16769465D01*
X27605000Y-16783672D01*
X27626777Y-16798223D01*
X27641327Y-16819999D01*
X27655534Y-16834206D01*
X27664718Y-16855006D01*
X27680970Y-16879329D01*
X27685489Y-16902048D01*
X27693235Y-16919591D01*
X27699192Y-16970940D01*
X27700000Y-16975000D01*
X27700000Y-18225000D01*
X27699192Y-18229059D01*
X27693235Y-18280408D01*
X27685489Y-18297950D01*
X27680970Y-18320671D01*
X27664716Y-18344995D01*
X27655534Y-18365793D01*
X27641329Y-18379997D01*
X27626777Y-18401777D01*
X27604997Y-18416329D01*
X27590793Y-18430534D01*
X27569995Y-18439716D01*
X27545671Y-18455970D01*
X27522950Y-18460489D01*
X27505408Y-18468235D01*
X27454061Y-18474192D01*
X27450000Y-18475000D01*
X26650000Y-18475000D01*
X26645941Y-18474192D01*
X26594591Y-18468235D01*
X26577048Y-18460489D01*
X26554329Y-18455970D01*
X26530006Y-18439718D01*
X26509206Y-18430534D01*
X26494999Y-18416327D01*
X26473223Y-18401777D01*
X26458672Y-18380000D01*
X26444465Y-18365793D01*
X26435280Y-18344991D01*
X26419030Y-18320671D01*
X26414511Y-18297954D01*
X26406764Y-18280408D01*
X26400805Y-18229049D01*
X26400000Y-18225000D01*
X26400000Y-16975000D01*
X26400804Y-16970953D01*
X26406764Y-16919591D01*
X26414511Y-16902043D01*
X26419030Y-16879329D01*
X26435278Y-16855010D01*
X26444465Y-16834206D01*
X26458674Y-16819996D01*
X26473223Y-16798223D01*
X26494996Y-16783674D01*
X26509206Y-16769465D01*
X26530010Y-16760278D01*
X26554329Y-16744030D01*
X26577043Y-16739511D01*
X26594591Y-16731764D01*
X26645952Y-16725805D01*
X26650000Y-16725000D01*
X27450000Y-16725000D01*
X27454047Y-16725805D01*
G37*
G36*
X7174047Y-12480805D02*
G01*
X7225408Y-12486764D01*
X7242954Y-12494511D01*
X7265671Y-12499030D01*
X7289991Y-12515280D01*
X7310793Y-12524465D01*
X7325000Y-12538672D01*
X7346777Y-12553223D01*
X7361327Y-12574999D01*
X7375534Y-12589206D01*
X7384718Y-12610006D01*
X7400970Y-12634329D01*
X7405489Y-12657048D01*
X7413235Y-12674591D01*
X7419192Y-12725940D01*
X7420000Y-12730000D01*
X7420000Y-13930000D01*
X7419192Y-13934059D01*
X7413235Y-13985408D01*
X7405489Y-14002950D01*
X7400970Y-14025671D01*
X7384716Y-14049995D01*
X7375534Y-14070793D01*
X7361329Y-14084997D01*
X7346777Y-14106777D01*
X7324997Y-14121329D01*
X7310793Y-14135534D01*
X7289995Y-14144716D01*
X7265671Y-14160970D01*
X7242950Y-14165489D01*
X7225408Y-14173235D01*
X7174061Y-14179192D01*
X7170000Y-14180000D01*
X5970000Y-14180000D01*
X5965941Y-14179192D01*
X5914591Y-14173235D01*
X5897048Y-14165489D01*
X5874329Y-14160970D01*
X5850006Y-14144718D01*
X5829206Y-14135534D01*
X5814999Y-14121327D01*
X5793223Y-14106777D01*
X5778672Y-14085000D01*
X5764465Y-14070793D01*
X5755280Y-14049991D01*
X5739030Y-14025671D01*
X5734511Y-14002954D01*
X5726764Y-13985408D01*
X5720805Y-13934049D01*
X5720000Y-13930000D01*
X5720000Y-12730000D01*
X5720804Y-12725953D01*
X5726764Y-12674591D01*
X5734511Y-12657043D01*
X5739030Y-12634329D01*
X5755278Y-12610010D01*
X5764465Y-12589206D01*
X5778674Y-12574996D01*
X5793223Y-12553223D01*
X5814996Y-12538674D01*
X5829206Y-12524465D01*
X5850010Y-12515278D01*
X5874329Y-12499030D01*
X5897043Y-12494511D01*
X5914591Y-12486764D01*
X5965952Y-12480805D01*
X5970000Y-12480000D01*
X7170000Y-12480000D01*
X7174047Y-12480805D01*
G37*
G36*
X9356742Y-12516601D02*
G01*
X9510687Y-12580367D01*
X9649234Y-12672941D01*
X9767059Y-12790766D01*
X9859633Y-12929313D01*
X9923399Y-13083258D01*
X9955907Y-13246685D01*
X9955907Y-13413315D01*
X9923399Y-13576742D01*
X9859633Y-13730687D01*
X9767059Y-13869234D01*
X9649234Y-13987059D01*
X9510687Y-14079633D01*
X9356742Y-14143399D01*
X9193315Y-14175907D01*
X9026685Y-14175907D01*
X8863258Y-14143399D01*
X8709313Y-14079633D01*
X8570766Y-13987059D01*
X8452941Y-13869234D01*
X8360367Y-13730687D01*
X8296601Y-13576742D01*
X8264093Y-13413315D01*
X8264093Y-13246685D01*
X8296601Y-13083258D01*
X8360367Y-12929313D01*
X8452941Y-12790766D01*
X8570766Y-12672941D01*
X8709313Y-12580367D01*
X8863258Y-12516601D01*
X9026685Y-12484093D01*
X9193315Y-12484093D01*
X9356742Y-12516601D01*
G37*
G36*
X11896742Y-12516601D02*
G01*
X12050687Y-12580367D01*
X12189234Y-12672941D01*
X12307059Y-12790766D01*
X12399633Y-12929313D01*
X12463399Y-13083258D01*
X12495907Y-13246685D01*
X12495907Y-13413315D01*
X12463399Y-13576742D01*
X12399633Y-13730687D01*
X12307059Y-13869234D01*
X12189234Y-13987059D01*
X12050687Y-14079633D01*
X11896742Y-14143399D01*
X11733315Y-14175907D01*
X11566685Y-14175907D01*
X11403258Y-14143399D01*
X11249313Y-14079633D01*
X11110766Y-13987059D01*
X10992941Y-13869234D01*
X10900367Y-13730687D01*
X10836601Y-13576742D01*
X10804093Y-13413315D01*
X10804093Y-13246685D01*
X10836601Y-13083258D01*
X10900367Y-12929313D01*
X10992941Y-12790766D01*
X11110766Y-12672941D01*
X11249313Y-12580367D01*
X11403258Y-12516601D01*
X11566685Y-12484093D01*
X11733315Y-12484093D01*
X11896742Y-12516601D01*
G37*
G36*
X14436742Y-12516601D02*
G01*
X14590687Y-12580367D01*
X14729234Y-12672941D01*
X14847059Y-12790766D01*
X14939633Y-12929313D01*
X15003399Y-13083258D01*
X15035907Y-13246685D01*
X15035907Y-13413315D01*
X15003399Y-13576742D01*
X14939633Y-13730687D01*
X14847059Y-13869234D01*
X14729234Y-13987059D01*
X14590687Y-14079633D01*
X14436742Y-14143399D01*
X14273315Y-14175907D01*
X14106685Y-14175907D01*
X13943258Y-14143399D01*
X13789313Y-14079633D01*
X13650766Y-13987059D01*
X13532941Y-13869234D01*
X13440367Y-13730687D01*
X13376601Y-13576742D01*
X13344093Y-13413315D01*
X13344093Y-13246685D01*
X13376601Y-13083258D01*
X13440367Y-12929313D01*
X13532941Y-12790766D01*
X13650766Y-12672941D01*
X13789313Y-12580367D01*
X13943258Y-12516601D01*
X14106685Y-12484093D01*
X14273315Y-12484093D01*
X14436742Y-12516601D01*
G37*
G36*
X16976742Y-12516601D02*
G01*
X17130687Y-12580367D01*
X17269234Y-12672941D01*
X17387059Y-12790766D01*
X17479633Y-12929313D01*
X17543399Y-13083258D01*
X17575907Y-13246685D01*
X17575907Y-13413315D01*
X17543399Y-13576742D01*
X17479633Y-13730687D01*
X17387059Y-13869234D01*
X17269234Y-13987059D01*
X17130687Y-14079633D01*
X16976742Y-14143399D01*
X16813315Y-14175907D01*
X16646685Y-14175907D01*
X16483258Y-14143399D01*
X16329313Y-14079633D01*
X16190766Y-13987059D01*
X16072941Y-13869234D01*
X15980367Y-13730687D01*
X15916601Y-13576742D01*
X15884093Y-13413315D01*
X15884093Y-13246685D01*
X15916601Y-13083258D01*
X15980367Y-12929313D01*
X16072941Y-12790766D01*
X16190766Y-12672941D01*
X16329313Y-12580367D01*
X16483258Y-12516601D01*
X16646685Y-12484093D01*
X16813315Y-12484093D01*
X16976742Y-12516601D01*
G37*
G36*
X19516742Y-12516601D02*
G01*
X19670687Y-12580367D01*
X19809234Y-12672941D01*
X19927059Y-12790766D01*
X20019633Y-12929313D01*
X20083399Y-13083258D01*
X20115907Y-13246685D01*
X20115907Y-13413315D01*
X20083399Y-13576742D01*
X20019633Y-13730687D01*
X19927059Y-13869234D01*
X19809234Y-13987059D01*
X19670687Y-14079633D01*
X19516742Y-14143399D01*
X19353315Y-14175907D01*
X19186685Y-14175907D01*
X19023258Y-14143399D01*
X18869313Y-14079633D01*
X18730766Y-13987059D01*
X18612941Y-13869234D01*
X18520367Y-13730687D01*
X18456601Y-13576742D01*
X18424093Y-13413315D01*
X18424093Y-13246685D01*
X18456601Y-13083258D01*
X18520367Y-12929313D01*
X18612941Y-12790766D01*
X18730766Y-12672941D01*
X18869313Y-12580367D01*
X19023258Y-12516601D01*
X19186685Y-12484093D01*
X19353315Y-12484093D01*
X19516742Y-12516601D01*
G37*
G36*
X22056742Y-12516601D02*
G01*
X22210687Y-12580367D01*
X22349234Y-12672941D01*
X22467059Y-12790766D01*
X22559633Y-12929313D01*
X22623399Y-13083258D01*
X22655907Y-13246685D01*
X22655907Y-13413315D01*
X22623399Y-13576742D01*
X22559633Y-13730687D01*
X22467059Y-13869234D01*
X22349234Y-13987059D01*
X22210687Y-14079633D01*
X22056742Y-14143399D01*
X21893315Y-14175907D01*
X21726685Y-14175907D01*
X21563258Y-14143399D01*
X21409313Y-14079633D01*
X21270766Y-13987059D01*
X21152941Y-13869234D01*
X21060367Y-13730687D01*
X20996601Y-13576742D01*
X20964093Y-13413315D01*
X20964093Y-13246685D01*
X20996601Y-13083258D01*
X21060367Y-12929313D01*
X21152941Y-12790766D01*
X21270766Y-12672941D01*
X21409313Y-12580367D01*
X21563258Y-12516601D01*
X21726685Y-12484093D01*
X21893315Y-12484093D01*
X22056742Y-12516601D01*
G37*
G36*
X24596742Y-12516601D02*
G01*
X24750687Y-12580367D01*
X24889234Y-12672941D01*
X25007059Y-12790766D01*
X25099633Y-12929313D01*
X25163399Y-13083258D01*
X25195907Y-13246685D01*
X25195907Y-13413315D01*
X25163399Y-13576742D01*
X25099633Y-13730687D01*
X25007059Y-13869234D01*
X24889234Y-13987059D01*
X24750687Y-14079633D01*
X24596742Y-14143399D01*
X24433315Y-14175907D01*
X24266685Y-14175907D01*
X24103258Y-14143399D01*
X23949313Y-14079633D01*
X23810766Y-13987059D01*
X23692941Y-13869234D01*
X23600367Y-13730687D01*
X23536601Y-13576742D01*
X23504093Y-13413315D01*
X23504093Y-13246685D01*
X23536601Y-13083258D01*
X23600367Y-12929313D01*
X23692941Y-12790766D01*
X23810766Y-12672941D01*
X23949313Y-12580367D01*
X24103258Y-12516601D01*
X24266685Y-12484093D01*
X24433315Y-12484093D01*
X24596742Y-12516601D01*
G37*
G36*
X27136742Y-12516601D02*
G01*
X27290687Y-12580367D01*
X27429234Y-12672941D01*
X27547059Y-12790766D01*
X27639633Y-12929313D01*
X27703399Y-13083258D01*
X27735907Y-13246685D01*
X27735907Y-13413315D01*
X27703399Y-13576742D01*
X27639633Y-13730687D01*
X27547059Y-13869234D01*
X27429234Y-13987059D01*
X27290687Y-14079633D01*
X27136742Y-14143399D01*
X26973315Y-14175907D01*
X26806685Y-14175907D01*
X26643258Y-14143399D01*
X26489313Y-14079633D01*
X26350766Y-13987059D01*
X26232941Y-13869234D01*
X26140367Y-13730687D01*
X26076601Y-13576742D01*
X26044093Y-13413315D01*
X26044093Y-13246685D01*
X26076601Y-13083258D01*
X26140367Y-12929313D01*
X26232941Y-12790766D01*
X26350766Y-12672941D01*
X26489313Y-12580367D01*
X26643258Y-12516601D01*
X26806685Y-12484093D01*
X26973315Y-12484093D01*
X27136742Y-12516601D01*
G37*
G36*
X29676742Y-12516601D02*
G01*
X29830687Y-12580367D01*
X29969234Y-12672941D01*
X30087059Y-12790766D01*
X30179633Y-12929313D01*
X30243399Y-13083258D01*
X30275907Y-13246685D01*
X30275907Y-13413315D01*
X30243399Y-13576742D01*
X30179633Y-13730687D01*
X30087059Y-13869234D01*
X29969234Y-13987059D01*
X29830687Y-14079633D01*
X29676742Y-14143399D01*
X29513315Y-14175907D01*
X29346685Y-14175907D01*
X29183258Y-14143399D01*
X29029313Y-14079633D01*
X28890766Y-13987059D01*
X28772941Y-13869234D01*
X28680367Y-13730687D01*
X28616601Y-13576742D01*
X28584093Y-13413315D01*
X28584093Y-13246685D01*
X28616601Y-13083258D01*
X28680367Y-12929313D01*
X28772941Y-12790766D01*
X28890766Y-12672941D01*
X29029313Y-12580367D01*
X29183258Y-12516601D01*
X29346685Y-12484093D01*
X29513315Y-12484093D01*
X29676742Y-12516601D01*
G37*
G36*
X6816742Y-9976601D02*
G01*
X6970687Y-10040367D01*
X7109234Y-10132941D01*
X7227059Y-10250766D01*
X7319633Y-10389313D01*
X7383399Y-10543258D01*
X7415907Y-10706685D01*
X7415907Y-10873315D01*
X7383399Y-11036742D01*
X7319633Y-11190687D01*
X7227059Y-11329234D01*
X7109234Y-11447059D01*
X6970687Y-11539633D01*
X6816742Y-11603399D01*
X6653315Y-11635907D01*
X6486685Y-11635907D01*
X6323258Y-11603399D01*
X6169313Y-11539633D01*
X6030766Y-11447059D01*
X5912941Y-11329234D01*
X5820367Y-11190687D01*
X5756601Y-11036742D01*
X5724093Y-10873315D01*
X5724093Y-10706685D01*
X5756601Y-10543258D01*
X5820367Y-10389313D01*
X5912941Y-10250766D01*
X6030766Y-10132941D01*
X6169313Y-10040367D01*
X6323258Y-9976601D01*
X6486685Y-9944093D01*
X6653315Y-9944093D01*
X6816742Y-9976601D01*
G37*
G36*
X9356742Y-9976601D02*
G01*
X9510687Y-10040367D01*
X9649234Y-10132941D01*
X9767059Y-10250766D01*
X9859633Y-10389313D01*
X9923399Y-10543258D01*
X9955907Y-10706685D01*
X9955907Y-10873315D01*
X9923399Y-11036742D01*
X9859633Y-11190687D01*
X9767059Y-11329234D01*
X9649234Y-11447059D01*
X9510687Y-11539633D01*
X9356742Y-11603399D01*
X9193315Y-11635907D01*
X9026685Y-11635907D01*
X8863258Y-11603399D01*
X8709313Y-11539633D01*
X8570766Y-11447059D01*
X8452941Y-11329234D01*
X8360367Y-11190687D01*
X8296601Y-11036742D01*
X8264093Y-10873315D01*
X8264093Y-10706685D01*
X8296601Y-10543258D01*
X8360367Y-10389313D01*
X8452941Y-10250766D01*
X8570766Y-10132941D01*
X8709313Y-10040367D01*
X8863258Y-9976601D01*
X9026685Y-9944093D01*
X9193315Y-9944093D01*
X9356742Y-9976601D01*
G37*
G36*
X11896742Y-9976601D02*
G01*
X12050687Y-10040367D01*
X12189234Y-10132941D01*
X12307059Y-10250766D01*
X12399633Y-10389313D01*
X12463399Y-10543258D01*
X12495907Y-10706685D01*
X12495907Y-10873315D01*
X12463399Y-11036742D01*
X12399633Y-11190687D01*
X12307059Y-11329234D01*
X12189234Y-11447059D01*
X12050687Y-11539633D01*
X11896742Y-11603399D01*
X11733315Y-11635907D01*
X11566685Y-11635907D01*
X11403258Y-11603399D01*
X11249313Y-11539633D01*
X11110766Y-11447059D01*
X10992941Y-11329234D01*
X10900367Y-11190687D01*
X10836601Y-11036742D01*
X10804093Y-10873315D01*
X10804093Y-10706685D01*
X10836601Y-10543258D01*
X10900367Y-10389313D01*
X10992941Y-10250766D01*
X11110766Y-10132941D01*
X11249313Y-10040367D01*
X11403258Y-9976601D01*
X11566685Y-9944093D01*
X11733315Y-9944093D01*
X11896742Y-9976601D01*
G37*
G36*
X14436742Y-9976601D02*
G01*
X14590687Y-10040367D01*
X14729234Y-10132941D01*
X14847059Y-10250766D01*
X14939633Y-10389313D01*
X15003399Y-10543258D01*
X15035907Y-10706685D01*
X15035907Y-10873315D01*
X15003399Y-11036742D01*
X14939633Y-11190687D01*
X14847059Y-11329234D01*
X14729234Y-11447059D01*
X14590687Y-11539633D01*
X14436742Y-11603399D01*
X14273315Y-11635907D01*
X14106685Y-11635907D01*
X13943258Y-11603399D01*
X13789313Y-11539633D01*
X13650766Y-11447059D01*
X13532941Y-11329234D01*
X13440367Y-11190687D01*
X13376601Y-11036742D01*
X13344093Y-10873315D01*
X13344093Y-10706685D01*
X13376601Y-10543258D01*
X13440367Y-10389313D01*
X13532941Y-10250766D01*
X13650766Y-10132941D01*
X13789313Y-10040367D01*
X13943258Y-9976601D01*
X14106685Y-9944093D01*
X14273315Y-9944093D01*
X14436742Y-9976601D01*
G37*
G36*
X16976742Y-9976601D02*
G01*
X17130687Y-10040367D01*
X17269234Y-10132941D01*
X17387059Y-10250766D01*
X17479633Y-10389313D01*
X17543399Y-10543258D01*
X17575907Y-10706685D01*
X17575907Y-10873315D01*
X17543399Y-11036742D01*
X17479633Y-11190687D01*
X17387059Y-11329234D01*
X17269234Y-11447059D01*
X17130687Y-11539633D01*
X16976742Y-11603399D01*
X16813315Y-11635907D01*
X16646685Y-11635907D01*
X16483258Y-11603399D01*
X16329313Y-11539633D01*
X16190766Y-11447059D01*
X16072941Y-11329234D01*
X15980367Y-11190687D01*
X15916601Y-11036742D01*
X15884093Y-10873315D01*
X15884093Y-10706685D01*
X15916601Y-10543258D01*
X15980367Y-10389313D01*
X16072941Y-10250766D01*
X16190766Y-10132941D01*
X16329313Y-10040367D01*
X16483258Y-9976601D01*
X16646685Y-9944093D01*
X16813315Y-9944093D01*
X16976742Y-9976601D01*
G37*
G36*
X19516742Y-9976601D02*
G01*
X19670687Y-10040367D01*
X19809234Y-10132941D01*
X19927059Y-10250766D01*
X20019633Y-10389313D01*
X20083399Y-10543258D01*
X20115907Y-10706685D01*
X20115907Y-10873315D01*
X20083399Y-11036742D01*
X20019633Y-11190687D01*
X19927059Y-11329234D01*
X19809234Y-11447059D01*
X19670687Y-11539633D01*
X19516742Y-11603399D01*
X19353315Y-11635907D01*
X19186685Y-11635907D01*
X19023258Y-11603399D01*
X18869313Y-11539633D01*
X18730766Y-11447059D01*
X18612941Y-11329234D01*
X18520367Y-11190687D01*
X18456601Y-11036742D01*
X18424093Y-10873315D01*
X18424093Y-10706685D01*
X18456601Y-10543258D01*
X18520367Y-10389313D01*
X18612941Y-10250766D01*
X18730766Y-10132941D01*
X18869313Y-10040367D01*
X19023258Y-9976601D01*
X19186685Y-9944093D01*
X19353315Y-9944093D01*
X19516742Y-9976601D01*
G37*
G36*
X22056742Y-9976601D02*
G01*
X22210687Y-10040367D01*
X22349234Y-10132941D01*
X22467059Y-10250766D01*
X22559633Y-10389313D01*
X22623399Y-10543258D01*
X22655907Y-10706685D01*
X22655907Y-10873315D01*
X22623399Y-11036742D01*
X22559633Y-11190687D01*
X22467059Y-11329234D01*
X22349234Y-11447059D01*
X22210687Y-11539633D01*
X22056742Y-11603399D01*
X21893315Y-11635907D01*
X21726685Y-11635907D01*
X21563258Y-11603399D01*
X21409313Y-11539633D01*
X21270766Y-11447059D01*
X21152941Y-11329234D01*
X21060367Y-11190687D01*
X20996601Y-11036742D01*
X20964093Y-10873315D01*
X20964093Y-10706685D01*
X20996601Y-10543258D01*
X21060367Y-10389313D01*
X21152941Y-10250766D01*
X21270766Y-10132941D01*
X21409313Y-10040367D01*
X21563258Y-9976601D01*
X21726685Y-9944093D01*
X21893315Y-9944093D01*
X22056742Y-9976601D01*
G37*
G36*
X24596742Y-9976601D02*
G01*
X24750687Y-10040367D01*
X24889234Y-10132941D01*
X25007059Y-10250766D01*
X25099633Y-10389313D01*
X25163399Y-10543258D01*
X25195907Y-10706685D01*
X25195907Y-10873315D01*
X25163399Y-11036742D01*
X25099633Y-11190687D01*
X25007059Y-11329234D01*
X24889234Y-11447059D01*
X24750687Y-11539633D01*
X24596742Y-11603399D01*
X24433315Y-11635907D01*
X24266685Y-11635907D01*
X24103258Y-11603399D01*
X23949313Y-11539633D01*
X23810766Y-11447059D01*
X23692941Y-11329234D01*
X23600367Y-11190687D01*
X23536601Y-11036742D01*
X23504093Y-10873315D01*
X23504093Y-10706685D01*
X23536601Y-10543258D01*
X23600367Y-10389313D01*
X23692941Y-10250766D01*
X23810766Y-10132941D01*
X23949313Y-10040367D01*
X24103258Y-9976601D01*
X24266685Y-9944093D01*
X24433315Y-9944093D01*
X24596742Y-9976601D01*
G37*
G36*
X27136742Y-9976601D02*
G01*
X27290687Y-10040367D01*
X27429234Y-10132941D01*
X27547059Y-10250766D01*
X27639633Y-10389313D01*
X27703399Y-10543258D01*
X27735907Y-10706685D01*
X27735907Y-10873315D01*
X27703399Y-11036742D01*
X27639633Y-11190687D01*
X27547059Y-11329234D01*
X27429234Y-11447059D01*
X27290687Y-11539633D01*
X27136742Y-11603399D01*
X26973315Y-11635907D01*
X26806685Y-11635907D01*
X26643258Y-11603399D01*
X26489313Y-11539633D01*
X26350766Y-11447059D01*
X26232941Y-11329234D01*
X26140367Y-11190687D01*
X26076601Y-11036742D01*
X26044093Y-10873315D01*
X26044093Y-10706685D01*
X26076601Y-10543258D01*
X26140367Y-10389313D01*
X26232941Y-10250766D01*
X26350766Y-10132941D01*
X26489313Y-10040367D01*
X26643258Y-9976601D01*
X26806685Y-9944093D01*
X26973315Y-9944093D01*
X27136742Y-9976601D01*
G37*
G36*
X29676742Y-9976601D02*
G01*
X29830687Y-10040367D01*
X29969234Y-10132941D01*
X30087059Y-10250766D01*
X30179633Y-10389313D01*
X30243399Y-10543258D01*
X30275907Y-10706685D01*
X30275907Y-10873315D01*
X30243399Y-11036742D01*
X30179633Y-11190687D01*
X30087059Y-11329234D01*
X29969234Y-11447059D01*
X29830687Y-11539633D01*
X29676742Y-11603399D01*
X29513315Y-11635907D01*
X29346685Y-11635907D01*
X29183258Y-11603399D01*
X29029313Y-11539633D01*
X28890766Y-11447059D01*
X28772941Y-11329234D01*
X28680367Y-11190687D01*
X28616601Y-11036742D01*
X28584093Y-10873315D01*
X28584093Y-10706685D01*
X28616601Y-10543258D01*
X28680367Y-10389313D01*
X28772941Y-10250766D01*
X28890766Y-10132941D01*
X29029313Y-10040367D01*
X29183258Y-9976601D01*
X29346685Y-9944093D01*
X29513315Y-9944093D01*
X29676742Y-9976601D01*
G37*
M02*
