M48
; DRILL file KiCad 10.0.6 date 2026-10-05T17:56:17
; FORMAT={-:-/ absolute / metric / decimal}
; #@! TF.CreationDate,2026-10-05T17:56:17+02:00
; #@! TF.GenerationSoftware,Kicad,Pcbnew,10.0.6
; #@! TF.FileFunction,Plated,1,2,PTH
FMAT,2
METRIC
; #@! TA.AperFunction,Plated,PTH,ViaDrill
T1C0.400
; #@! TA.AperFunction,Plated,PTH,ComponentDrill
T2C0.750
; #@! TA.AperFunction,Plated,PTH,ComponentDrill
T3C0.800
; #@! TA.AperFunction,Plated,PTH,ComponentDrill
T4C0.900
; #@! TA.AperFunction,Plated,PTH,ComponentDrill
T5C1.000
%
G90
G05
T1
X5.0Y-30.0
X5.0Y-70.0
X6.284Y-80.88
X9.81Y-32.8
X11.025Y-27.968
X11.103Y-37.803
X11.537Y-30.9
X15.0Y-70.0
X15.0Y-90.0
X15.792Y-42.751
X16.314Y-46.88
X16.715Y-63.75
X17.38Y-8.0
X18.637Y-28.198
X19.122Y-14.954
X19.724Y-23.628
X21.124Y-14.646
X21.239Y-27.58
X21.608Y-51.7
X23.447Y-29.86
X23.608Y-14.965
X24.082Y-79.553
X24.375Y-98.512
X24.466Y-51.465
X25.0Y-90.0
X25.38Y-53.512
X26.81Y-32.8
X27.498Y-64.024
X27.625Y-71.782
X28.09Y-27.644
X28.464Y-40.202
X28.96Y-65.049
X30.234Y-71.84
X32.456Y-35.189
X32.791Y-83.784
X32.85Y-23.61
X34.105Y-32.599
X34.803Y-15.565
X35.319Y-37.591
X36.33Y-72.512
X36.57Y-92.328
X36.907Y-26.284
X38.16Y-8.0
X39.35Y-8.15
X40.0Y-60.0
X42.157Y-10.775
X42.538Y-31.1
X43.81Y-32.8
X45.0Y-90.0
X45.378Y-67.11
X46.505Y-71.593
X49.627Y-69.974
X50.0Y-20.0
X55.0Y-90.0
X55.525Y-41.028
X55.692Y-24.482
X59.15Y-26.928
X60.609Y-31.65
X61.718Y-51.7
X63.0Y-22.69
X63.81Y-32.8
X64.473Y-51.34
X65.0Y-90.0
X65.537Y-30.8
X66.096Y-41.831
X67.363Y-51.857
X67.417Y-94.669
X67.866Y-9.276
X68.327Y-97.061
X68.34Y-8.0
X68.875Y-94.539
X69.156Y-35.296
X69.405Y-15.18
X70.0Y-60.0
X70.0Y-80.0
X71.641Y-19.381
X71.888Y-94.287
X71.926Y-29.591
X73.714Y-19.094
X74.469Y-22.696
X74.962Y-49.0
X75.418Y-15.529
X75.902Y-18.988
X77.414Y-89.138
X77.415Y-32.014
X79.35Y-15.69
X79.658Y-49.027
X80.0Y-19.69
X80.0Y-27.31
X80.0Y-60.0
X80.0Y-80.0
X80.537Y-30.8
X81.736Y-15.234
X81.81Y-32.8
X82.225Y-55.636
X83.643Y-81.867
X85.0Y-90.0
X86.733Y-25.547
X86.86Y-32.715
X86.975Y-23.316
X87.573Y-52.526
X88.867Y-32.044
X90.0Y-80.0
X90.582Y-53.308
X90.775Y-14.909
X91.125Y-76.284
X91.298Y-46.533
X91.785Y-30.929
X92.72Y-58.142
X93.1Y-16.6
X94.2Y-8.0
X95.0Y-90.0
X98.705Y-39.831
X99.81Y-32.8
X100.0Y-80.0
X100.76Y-42.549
X101.273Y-63.812
X101.537Y-31.3
X104.115Y-70.097
X105.0Y-10.0
X105.0Y-90.0
X107.637Y-49.305
X110.0Y-20.0
X110.0Y-40.0
X110.0Y-60.0
X113.05Y-30.35
X114.004Y-43.252
X115.0Y-10.0
X115.0Y-50.0
X115.0Y-90.0
X117.825Y-58.712
X117.825Y-65.049
X118.729Y-31.044
X119.3Y-16.6
X120.0Y-80.0
X120.7Y-16.6
X121.38Y-23.365
X121.84Y-8.0
X122.336Y-21.713
X123.65Y-47.095
X123.79Y-27.764
X125.0Y-70.0
X125.0Y-90.0
X125.81Y-32.8
X125.982Y-22.596
X127.66Y-83.965
X127.686Y-21.637
X128.325Y-15.164
X129.83Y-28.05
X130.0Y-60.0
X130.106Y-18.237
X130.871Y-2.327
X130.96Y-7.102
X131.1Y-23.9
X131.91Y-34.475
X132.23Y-22.5
X132.365Y-28.349
X133.5Y-16.4
X134.924Y-27.975
X135.0Y-50.0
X135.0Y-70.0
X137.45Y-29.45
X138.363Y-16.794
X139.842Y-32.34
X139.85Y-22.5
X139.936Y-15.303
X140.0Y-40.0
X140.0Y-60.0
X140.0Y-80.0
X141.143Y-14.501
X142.496Y-21.847
X143.096Y-26.061
X143.442Y-38.317
X143.85Y-20.101
X143.88Y-17.331
X144.19Y-28.5
X144.525Y-54.356
X145.0Y-50.0
X145.0Y-70.0
X145.0Y-90.0
X145.25Y-14.9
X145.254Y-38.619
X145.434Y-18.868
X146.73Y-24.267
X146.769Y-23.035
X146.922Y-20.749
X147.085Y-32.775
X147.25Y-9.15
X147.7Y-8.0
X148.975Y-41.97
X148.975Y-58.712
X149.089Y-21.534
X150.0Y-80.0
X150.152Y-35.233
X150.557Y-18.426
X151.663Y-38.242
X151.81Y-28.5
X152.969Y-24.612
X153.888Y-36.979
X154.31Y-26.55
X155.0Y-50.0
X155.0Y-70.0
X156.44Y-24.969
X157.625Y-36.979
T2
X73.5Y-30.83
X73.5Y-35.83
T3
X6.0Y-34.0
X6.0Y-36.54
X6.0Y-39.08
X6.0Y-41.62
X6.0Y-44.16
X6.0Y-46.7
X6.0Y-49.24
X10.0Y-60.0
X12.54Y-60.0
X13.62Y-34.0
X13.62Y-36.54
X13.62Y-39.08
X13.62Y-41.62
X13.62Y-44.16
X13.62Y-46.7
X13.62Y-49.24
X15.08Y-60.0
X23.0Y-34.0
X23.0Y-36.54
X23.0Y-39.08
X23.0Y-41.62
X23.0Y-44.16
X23.0Y-46.7
X23.0Y-49.24
X30.62Y-34.0
X30.62Y-36.54
X30.62Y-39.08
X30.62Y-41.62
X30.62Y-44.16
X30.62Y-46.7
X30.62Y-49.24
X40.0Y-34.0
X40.0Y-36.54
X40.0Y-39.08
X40.0Y-41.62
X40.0Y-44.16
X40.0Y-46.7
X40.0Y-49.24
X47.62Y-34.0
X47.62Y-36.54
X47.62Y-39.08
X47.62Y-41.62
X47.62Y-44.16
X47.62Y-46.7
X47.62Y-49.24
X60.0Y-34.0
X60.0Y-36.54
X60.0Y-39.08
X60.0Y-41.62
X60.0Y-44.16
X60.0Y-46.7
X60.0Y-49.24
X64.0Y-24.5
X66.0Y-24.5
X67.62Y-34.0
X67.62Y-36.54
X67.62Y-39.08
X67.62Y-41.62
X67.62Y-44.16
X67.62Y-46.7
X67.62Y-49.24
X78.0Y-34.0
X78.0Y-36.54
X78.0Y-39.08
X78.0Y-41.62
X78.0Y-44.16
X78.0Y-46.7
X78.0Y-49.24
X85.62Y-34.0
X85.62Y-36.54
X85.62Y-39.08
X85.62Y-41.62
X85.62Y-44.16
X85.62Y-46.7
X85.62Y-49.24
X88.87Y-36.62
X88.87Y-41.62
X90.6Y-56.0
X90.6Y-61.5
X90.6Y-67.0
X93.14Y-56.0
X93.14Y-61.5
X93.14Y-67.0
X95.68Y-56.0
X95.68Y-61.5
X95.68Y-67.0
X96.0Y-34.0
X96.0Y-36.54
X96.0Y-39.08
X96.0Y-41.62
X96.0Y-44.16
X96.0Y-46.7
X96.0Y-49.24
X103.62Y-34.0
X103.62Y-36.54
X103.62Y-39.08
X103.62Y-41.62
X103.62Y-44.16
X103.62Y-46.7
X103.62Y-49.24
X122.0Y-34.0
X122.0Y-36.54
X122.0Y-39.08
X122.0Y-41.62
X122.0Y-44.16
X122.0Y-46.7
X122.0Y-49.24
X122.0Y-51.78
X129.62Y-34.0
X129.62Y-36.54
X129.62Y-39.08
X129.62Y-41.62
X129.62Y-44.16
X129.62Y-46.7
X129.62Y-49.24
X129.62Y-51.78
T4
X135.22Y-36.54
X135.22Y-41.54
X150.0Y-62.0
X152.54Y-62.0
T5
X11.26Y-95.96
X13.8Y-95.96
X16.34Y-95.96
X17.61Y-10.79
X17.61Y-13.33
X18.88Y-95.96
X20.15Y-10.79
X20.15Y-13.33
X21.42Y-95.96
X22.69Y-10.79
X22.69Y-13.33
X23.96Y-95.96
X25.23Y-10.79
X25.23Y-13.33
X26.5Y-95.96
X27.77Y-10.79
X27.77Y-13.33
X29.04Y-95.96
X30.31Y-10.79
X30.31Y-13.33
X31.58Y-95.96
X32.85Y-10.79
X32.85Y-13.33
X34.12Y-95.96
X35.39Y-10.79
X35.39Y-13.33
X36.66Y-95.96
X39.2Y-95.96
X41.74Y-95.96
X68.57Y-10.79
X68.57Y-13.33
X71.11Y-10.79
X71.11Y-13.33
X72.38Y-95.96
X73.65Y-10.79
X73.65Y-13.33
X74.92Y-95.96
X76.19Y-10.79
X76.19Y-13.33
X77.46Y-95.96
X78.73Y-10.79
X78.73Y-13.33
X80.0Y-95.96
X81.27Y-10.79
X81.27Y-13.33
X82.54Y-95.96
X83.81Y-10.79
X83.81Y-13.33
X85.08Y-95.96
X86.35Y-10.79
X86.35Y-13.33
X87.62Y-95.96
X88.89Y-10.79
X88.89Y-13.33
X91.43Y-10.79
X91.43Y-13.33
X122.07Y-10.79
X122.07Y-13.33
X124.61Y-10.79
X124.61Y-13.33
X125.88Y-95.96
X127.15Y-10.79
X127.15Y-13.33
X128.42Y-95.96
X129.69Y-10.79
X129.69Y-13.33
X130.96Y-95.96
X132.23Y-10.79
X132.23Y-13.33
X133.5Y-95.96
X134.77Y-10.79
X134.77Y-13.33
X136.04Y-95.96
X137.31Y-10.79
X137.31Y-13.33
X138.58Y-95.96
X139.85Y-10.79
X139.85Y-13.33
X141.12Y-95.96
X142.39Y-10.79
X142.39Y-13.33
X144.93Y-10.79
X144.93Y-13.33
M30
