M48
; DRILL file KiCad 10.0.6 date 2026-09-28T20:44:59
; FORMAT={-:-/ absolute / metric / decimal}
; #@! TF.CreationDate,2026-09-28T20:44:59+02:00
; #@! TF.GenerationSoftware,Kicad,Pcbnew,10.0.6
; #@! TF.FileFunction,Plated,1,2,PTH
FMAT,2
METRIC
; #@! TA.AperFunction,Plated,PTH,ViaDrill
T1C0.500
; #@! TA.AperFunction,Plated,PTH,ComponentDrill
T2C0.800
; #@! TA.AperFunction,Plated,PTH,ComponentDrill
T3C0.900
; #@! TA.AperFunction,Plated,PTH,ComponentDrill
T4C1.000
; #@! TA.AperFunction,Plated,PTH,ComponentDrill
T5C1.100
; #@! TA.AperFunction,Plated,PTH,ComponentDrill
T6C1.300
; #@! TA.AperFunction,Plated,PTH,ComponentDrill
T7C1.400
; #@! TA.AperFunction,Plated,PTH,ComponentDrill
T8C1.500
; #@! TA.AperFunction,Plated,PTH,ComponentDrill
T9C2.000
; #@! TA.AperFunction,Plated,PTH,ComponentDrill
T10C3.200
%
G90
G05
T1
X91.365Y-48.69
T2
X17.6Y-46.5
X17.6Y-56.66
X25.5Y-52.0
X27.5Y-52.0
X62.5Y-58.0
X62.5Y-60.0
X62.5Y-64.0
X62.5Y-66.0
X62.5Y-74.0
X62.5Y-76.0
X62.5Y-80.0
X62.5Y-82.0
X68.5Y-58.5
X68.5Y-68.66
X69.0Y-49.92
X69.0Y-52.46
X69.0Y-55.0
X81.0Y-29.0
X81.0Y-39.16
X84.0Y-94.0
X88.5Y-72.0
X88.5Y-82.16
X92.0Y-72.0
X92.0Y-82.16
X94.16Y-94.0
X95.5Y-72.0
X95.5Y-82.16
X97.0Y-45.3
X97.0Y-95.0
X99.5Y-50.0
X99.5Y-52.54
X99.5Y-55.08
X99.5Y-57.62
X99.5Y-60.16
X99.5Y-62.7
X99.5Y-65.24
X99.54Y-45.3
X100.0Y-76.0
X100.0Y-78.54
X100.0Y-81.08
X100.0Y-83.62
X100.5Y-90.0
X102.08Y-45.3
X103.04Y-90.0
X104.5Y-44.3
X105.58Y-90.0
X107.12Y-50.0
X107.12Y-52.54
X107.12Y-55.08
X107.12Y-57.62
X107.12Y-60.16
X107.12Y-62.7
X107.12Y-65.24
X107.16Y-95.0
X107.62Y-76.0
X107.62Y-78.54
X107.62Y-81.08
X107.62Y-83.62
X114.5Y-55.0
X114.5Y-65.16
X114.66Y-44.3
X116.0Y-72.0
X116.0Y-82.16
X118.0Y-55.0
X118.0Y-65.16
X119.5Y-72.0
X119.5Y-82.16
X120.0Y-29.0
X120.0Y-39.16
X121.5Y-55.0
X121.5Y-65.16
X123.0Y-72.0
X123.0Y-82.16
X125.0Y-55.0
X125.0Y-65.16
X126.5Y-72.0
X126.5Y-82.16
T3
X65.0Y-46.0
X70.0Y-46.0
X88.5Y-45.5
X92.0Y-88.5
X93.5Y-45.5
X94.5Y-49.0
X94.5Y-54.0
X97.0Y-88.5
X111.0Y-49.0
X111.0Y-54.0
X111.5Y-75.0
X111.5Y-80.0
X111.5Y-83.0
X111.5Y-88.0
X128.0Y-67.0
X130.54Y-67.0
T4
X19.5Y-43.0
X21.5Y-51.5
X46.5Y-3.5
X54.0Y-90.0
X58.0Y-90.0
X62.0Y-90.0
X75.0Y-50.0
X75.0Y-52.54
X75.0Y-55.08
X75.0Y-57.62
X75.0Y-60.16
X75.0Y-62.7
X75.0Y-65.24
X90.24Y-50.0
X90.24Y-52.54
X90.24Y-55.08
X90.24Y-57.62
X90.24Y-60.16
X90.24Y-62.7
X90.24Y-65.24
X118.0Y-93.0
X122.0Y-93.0
X126.0Y-93.0
X130.0Y-93.0
T5
X40.5Y-5.02
X40.5Y-22.8
X55.0Y-58.0
X55.0Y-60.54
X55.0Y-63.08
X55.0Y-74.0
X55.0Y-76.54
X55.0Y-79.08
X142.0Y-60.0
X142.0Y-62.54
X142.0Y-65.08
X142.0Y-67.62
X142.0Y-70.16
X142.0Y-72.7
T6
X26.0Y-17.0
X31.08Y-17.0
T7
X10.6Y-45.0
X10.6Y-52.62
X10.6Y-60.24
X13.5Y-104.0
X13.5Y-109.5
X17.7Y-104.0
X17.7Y-109.5
X21.9Y-104.0
X21.9Y-109.5
X24.0Y-25.0
X24.0Y-46.0
X26.1Y-104.0
X26.1Y-109.5
X26.54Y-25.0
X26.54Y-46.0
X29.08Y-25.0
X29.08Y-46.0
X30.3Y-104.0
X30.3Y-109.5
X34.5Y-104.0
X34.5Y-109.5
X38.7Y-104.0
X38.7Y-109.5
X48.0Y-104.0
X48.0Y-109.5
X52.2Y-104.0
X52.2Y-109.5
X61.0Y-104.0
X61.0Y-109.5
X65.2Y-104.0
X65.2Y-109.5
X74.0Y-104.0
X74.0Y-109.5
X78.2Y-104.0
X78.2Y-109.5
X87.0Y-104.0
X87.0Y-109.5
X91.2Y-104.0
X91.2Y-109.5
X100.0Y-104.0
X100.0Y-109.5
X104.2Y-104.0
X104.2Y-109.5
X113.0Y-104.0
X113.0Y-109.5
X117.2Y-104.0
X117.2Y-109.5
X126.0Y-104.0
X126.0Y-109.5
X130.2Y-104.0
X130.2Y-109.5
X139.0Y-104.0
X139.0Y-109.5
X143.2Y-104.0
X143.2Y-109.5
T8
X8.0Y-69.0
X8.0Y-91.6
X22.0Y-60.0
X22.0Y-76.0
X37.5Y-28.0
X37.5Y-50.6
X44.6Y-60.0
X44.6Y-76.0
T9
X61.5Y-17.5
X61.5Y-27.5
X100.5Y-17.5
X100.5Y-27.5
X139.5Y-17.5
X139.5Y-27.5
T10
X17.0Y-26.38
X17.0Y-34.0
M30
