M48
; DRILL file KiCad 10.0.6 date 2026-09-27T13:41:55
; FORMAT={-:-/ absolute / metric / decimal}
; #@! TF.CreationDate,2026-09-27T13:41:55+02:00
; #@! TF.GenerationSoftware,Kicad,Pcbnew,10.0.6
; #@! TF.FileFunction,Plated,1,2,PTH
FMAT,2
METRIC
; #@! TA.AperFunction,Plated,PTH,ViaDrill
T1C0.600
; #@! TA.AperFunction,Plated,PTH,ComponentDrill
T2C0.800
; #@! TA.AperFunction,Plated,PTH,ComponentDrill
T3C0.900
; #@! TA.AperFunction,Plated,PTH,ComponentDrill
T4C1.000
; #@! TA.AperFunction,Plated,PTH,ComponentDrill
T5C1.100
; #@! TA.AperFunction,Plated,PTH,ComponentDrill
T6C1.300
; #@! TA.AperFunction,Plated,PTH,ComponentDrill
T7C1.400
; #@! TA.AperFunction,Plated,PTH,ComponentDrill
T8C1.600
; #@! TA.AperFunction,Plated,PTH,ComponentDrill
T9C2.400
; #@! TA.AperFunction,Plated,PTH,ComponentDrill
T10C2.800
; #@! TA.AperFunction,Plated,PTH,ComponentDrill
T11C3.200
%
G90
G05
T1
X55.0Y-34.0
X70.0Y-34.0
X94.0Y-34.0
T2
X6.0Y-46.84
X6.0Y-57.0
X27.0Y-72.2
X29.54Y-72.2
X32.08Y-72.2
X33.3Y-59.3
X34.0Y-84.0
X34.0Y-86.54
X34.0Y-89.08
X34.0Y-91.62
X34.5Y-99.0
X35.8Y-59.3
X37.04Y-99.0
X39.58Y-99.0
X41.62Y-84.0
X41.62Y-86.54
X41.62Y-89.08
X41.62Y-91.62
X43.02Y-53.0
X44.5Y-46.6
X45.56Y-53.0
X46.5Y-46.6
X48.1Y-53.0
X50.0Y-73.5
X52.54Y-73.5
X55.08Y-73.5
X62.5Y-39.8
X64.5Y-39.8
X68.5Y-108.0
X70.5Y-99.3
X70.5Y-102.8
X71.04Y-108.0
X73.58Y-108.0
X75.2Y-60.3
X77.74Y-60.3
X80.2Y-40.0
X80.2Y-50.16
X80.28Y-60.3
X80.66Y-99.3
X80.66Y-102.8
X92.82Y-72.3
X95.36Y-72.3
X97.9Y-72.3
X102.92Y-26.5
X105.0Y-93.8
X107.54Y-93.8
X110.08Y-93.8
X113.08Y-26.5
X115.5Y-93.7
X118.04Y-93.7
X120.58Y-93.7
X125.92Y-67.5
X128.46Y-67.5
X131.0Y-67.5
X136.0Y-58.0
X139.5Y-58.0
T3
X25.0Y-85.9
X30.0Y-85.9
X41.62Y-75.0
X41.62Y-80.0
X45.5Y-91.6
X47.0Y-70.5
X47.0Y-75.5
X50.3Y-46.6
X50.5Y-91.6
X55.3Y-46.6
X68.5Y-40.2
X73.5Y-40.2
X105.5Y-32.1
X110.5Y-32.1
X116.0Y-44.0
X121.0Y-44.0
X136.0Y-77.8
X138.54Y-77.8
X155.0Y-50.0
X155.0Y-55.0
T4
X6.5Y-66.0
X6.5Y-72.2
X8.0Y-90.8
X8.06Y-97.0
X12.0Y-46.0
X12.0Y-51.08
X14.26Y-78.3
X21.74Y-66.0
X21.74Y-72.2
X23.24Y-90.8
X23.3Y-97.0
X28.76Y-111.3
X29.0Y-90.5
X29.0Y-105.74
X29.5Y-78.3
X34.5Y-104.5
X36.5Y-72.2
X40.76Y-59.3
X44.0Y-111.3
X45.5Y-97.0
X46.0Y-102.0
X46.76Y-80.0
X46.76Y-86.0
X50.0Y-66.5
X56.0Y-59.3
X59.3Y-46.6
X60.0Y-116.0
X60.5Y-73.5
X60.74Y-97.0
X60.8Y-53.0
X62.0Y-80.0
X62.0Y-86.0
X63.04Y-73.5
X65.24Y-66.5
X68.0Y-80.0
X68.0Y-95.24
X68.5Y-73.5
X68.5Y-114.0
X73.7Y-72.3
X74.6Y-66.3
X77.4Y-108.0
X80.06Y-84.3
X80.1Y-78.3
X80.8Y-54.4
X83.74Y-114.0
X88.94Y-72.3
X89.84Y-66.3
X90.0Y-114.0
X92.64Y-108.0
X95.3Y-84.3
X95.34Y-78.3
X96.04Y-54.4
X100.76Y-87.3
X101.4Y-24.5
X107.36Y-98.9
X107.5Y-104.9
X110.6Y-40.8
X110.6Y-56.04
X111.0Y-62.0
X113.2Y-73.3
X113.2Y-79.3
X114.6Y-24.5
X116.0Y-87.3
X121.46Y-87.0
X122.6Y-98.9
X122.74Y-104.9
X124.56Y-93.0
X126.24Y-62.0
X128.44Y-73.3
X128.44Y-79.3
X128.5Y-39.0
X133.5Y-39.0
X134.32Y-97.6
X136.7Y-87.0
X139.4Y-97.6
X139.76Y-65.5
X139.76Y-71.7
X139.8Y-93.0
X144.2Y-87.5
X144.2Y-92.58
X144.2Y-97.66
X146.22Y-57.6
X151.3Y-57.6
X155.0Y-65.5
X155.0Y-71.7
T5
X39.72Y-40.5
X57.5Y-40.5
X84.4Y-60.3
X87.04Y-48.5
X102.18Y-60.3
X104.82Y-48.5
X131.8Y-101.0
X134.34Y-101.0
X136.88Y-101.0
X139.42Y-101.0
X141.96Y-101.0
X144.5Y-101.0
T6
X24.48Y-46.6
X39.72Y-46.6
T7
X52.46Y-22.3
X55.0Y-22.3
X57.54Y-22.3
X84.5Y-44.0
X87.04Y-44.0
X89.58Y-44.0
X105.46Y-22.3
X108.0Y-22.3
X110.54Y-22.3
X148.0Y-21.84
X148.0Y-26.92
X148.0Y-32.0
T8
X12.0Y-37.0
X32.32Y-37.0
X130.0Y-48.0
X150.32Y-48.0
T9
X126.0Y-36.0
X136.0Y-36.0
T10
X42.3Y-18.0
X67.7Y-18.0
X95.3Y-18.0
X120.7Y-18.0
T11
X15.0Y-25.0
X22.62Y-25.0
M30
