M48
; DRILL file KiCad 10.0.6 date 2026-09-28T21:28:33
; FORMAT={-:-/ absolute / metric / decimal}
; #@! TF.CreationDate,2026-09-28T21:28:33+02:00
; #@! TF.GenerationSoftware,Kicad,Pcbnew,10.0.6
; #@! TF.FileFunction,Plated,1,2,PTH
FMAT,2
METRIC
; #@! TA.AperFunction,Plated,PTH,ViaDrill
T1C0.400
; #@! TA.AperFunction,Plated,PTH,ComponentDrill
T2C0.750
; #@! TA.AperFunction,Plated,PTH,ComponentDrill
T3C0.800
; #@! TA.AperFunction,Plated,PTH,ComponentDrill
T4C0.900
; #@! TA.AperFunction,Plated,PTH,ComponentDrill
T5C1.000
; #@! TA.AperFunction,Plated,PTH,ComponentDrill
T6C1.100
; #@! TA.AperFunction,Plated,PTH,ComponentDrill
T7C1.200
; #@! TA.AperFunction,Plated,PTH,ComponentDrill
T8C1.400
%
G90
G05
T1
X5.0Y-10.0
X5.0Y-30.0
X5.0Y-50.0
X5.0Y-70.0
X5.0Y-90.0
X5.0Y-110.0
X10.0Y-20.0
X10.0Y-40.0
X10.0Y-60.0
X10.0Y-80.0
X15.0Y-70.0
X19.77Y-77.181
X20.931Y-69.07
X24.571Y-81.665
X25.0Y-30.0
X25.0Y-70.0
X30.0Y-40.0
X32.102Y-89.807
X35.0Y-10.0
X35.0Y-30.0
X38.072Y-62.793
X38.65Y-90.381
X40.0Y-20.0
X45.0Y-10.0
X45.0Y-30.0
X45.0Y-50.0
X45.0Y-70.0
X46.04Y-44.329
X50.0Y-20.0
X55.0Y-10.0
X56.458Y-52.046
X56.684Y-64.454
X58.798Y-94.361
X59.557Y-20.614
X61.006Y-84.284
X61.733Y-51.25
X64.598Y-50.377
X66.749Y-66.642
X69.451Y-78.815
X69.971Y-74.416
X71.302Y-33.513
X71.534Y-39.16
X72.878Y-68.121
X74.919Y-56.37
X76.974Y-79.039
X83.369Y-19.958
X83.502Y-37.071
X85.0Y-110.0
X86.931Y-40.215
X87.506Y-85.76
X87.816Y-17.346
X88.96Y-76.329
X89.4Y-54.5
X90.0Y-20.0
X90.0Y-60.0
X90.196Y-42.279
X91.573Y-37.089
X91.7Y-56.8
X95.0Y-110.0
X95.631Y-68.377
X98.142Y-57.175
X99.789Y-95.538
X100.0Y-20.0
X103.964Y-67.754
X105.0Y-90.0
X105.0Y-110.0
X106.741Y-32.856
X110.0Y-20.0
X112.625Y-88.863
X115.0Y-110.0
X115.388Y-81.492
X118.695Y-78.25
X118.784Y-105.673
X123.336Y-79.95
X123.369Y-93.659
X123.903Y-59.773
X125.0Y-110.0
X126.169Y-103.364
X130.0Y-20.0
X130.0Y-40.0
X130.0Y-60.0
X135.0Y-10.0
X135.0Y-30.0
X140.0Y-20.0
X140.0Y-40.0
X140.0Y-60.0
X140.0Y-80.0
X142.52Y-56.121
X145.0Y-10.0
X145.0Y-30.0
X145.0Y-50.0
X145.0Y-70.0
X145.0Y-90.0
X145.0Y-110.0
X150.0Y-20.0
X150.0Y-60.0
X155.0Y-10.0
X155.0Y-30.0
X155.0Y-50.0
X155.0Y-90.0
X155.0Y-110.0
T2
X127.0Y-55.54
X127.0Y-60.54
X128.0Y-80.0
X133.0Y-80.0
T3
X10.0Y-44.84
X10.0Y-55.0
X12.0Y-32.0
X12.0Y-63.0
X12.0Y-68.0
X12.3Y-99.0
X13.0Y-42.0
X14.54Y-32.0
X15.0Y-42.0
X15.0Y-79.0
X15.0Y-81.54
X15.0Y-84.08
X15.0Y-86.62
X15.0Y-89.16
X15.0Y-91.7
X15.0Y-94.24
X17.08Y-32.0
X20.0Y-49.0
X22.16Y-63.0
X22.16Y-68.0
X22.46Y-99.0
X22.62Y-79.0
X22.62Y-81.54
X22.62Y-84.08
X22.62Y-86.62
X22.62Y-89.16
X22.62Y-91.7
X22.62Y-94.24
X24.0Y-44.0
X26.4Y-90.34
X26.4Y-100.5
X30.16Y-49.0
X30.6Y-90.34
X30.6Y-100.5
X31.0Y-53.0
X31.0Y-57.0
X31.0Y-61.0
X31.0Y-65.0
X31.0Y-69.0
X34.16Y-44.0
X34.8Y-90.34
X34.8Y-100.5
X40.0Y-79.0
X40.0Y-81.54
X40.0Y-84.08
X40.0Y-86.62
X40.0Y-89.16
X40.0Y-91.7
X40.0Y-94.24
X41.16Y-53.0
X41.16Y-57.0
X41.16Y-61.0
X41.16Y-65.0
X41.16Y-69.0
X44.0Y-99.0
X45.9Y-103.3
X45.9Y-113.46
X47.62Y-79.0
X47.62Y-81.54
X47.62Y-84.08
X47.62Y-86.62
X47.62Y-89.16
X47.62Y-91.7
X47.62Y-94.24
X54.0Y-53.0
X54.0Y-57.0
X54.0Y-61.0
X54.0Y-65.0
X54.0Y-69.0
X54.16Y-99.0
X59.0Y-99.0
X62.0Y-20.0
X62.0Y-22.54
X64.16Y-53.0
X64.16Y-57.0
X64.16Y-61.0
X64.16Y-65.0
X64.16Y-69.0
X64.54Y-20.0
X64.54Y-22.54
X65.0Y-79.0
X65.0Y-81.54
X65.0Y-84.08
X65.0Y-86.62
X65.0Y-89.16
X65.0Y-91.7
X65.0Y-94.24
X67.08Y-20.0
X67.08Y-22.54
X69.16Y-99.0
X69.62Y-20.0
X69.62Y-22.54
X72.16Y-20.0
X72.16Y-22.54
X72.62Y-79.0
X72.62Y-81.54
X72.62Y-84.08
X72.62Y-86.62
X72.62Y-89.16
X72.62Y-91.7
X72.62Y-94.24
X73.0Y-99.0
X74.7Y-20.0
X74.7Y-22.54
X76.0Y-113.0
X77.0Y-53.0
X77.0Y-57.0
X77.0Y-61.0
X77.0Y-65.0
X77.0Y-69.0
X77.0Y-106.0
X77.24Y-20.0
X77.24Y-22.54
X79.54Y-106.0
X79.78Y-20.0
X79.78Y-22.54
X82.08Y-106.0
X83.16Y-99.0
X86.0Y-99.0
X86.16Y-113.0
X87.16Y-53.0
X87.16Y-57.0
X87.16Y-61.0
X87.16Y-65.0
X87.16Y-69.0
X89.0Y-113.0
X90.0Y-79.0
X90.0Y-81.54
X90.0Y-84.08
X90.0Y-86.62
X90.0Y-89.16
X90.0Y-91.7
X90.0Y-94.24
X90.0Y-106.0
X92.54Y-106.0
X95.08Y-106.0
X96.16Y-99.0
X97.62Y-79.0
X97.62Y-81.54
X97.62Y-84.08
X97.62Y-86.62
X97.62Y-89.16
X97.62Y-91.7
X97.62Y-94.24
X99.0Y-99.0
X99.16Y-113.0
X100.0Y-53.0
X100.0Y-57.0
X100.0Y-61.0
X100.0Y-65.0
X100.0Y-69.0
X102.0Y-113.0
X103.0Y-106.0
X105.54Y-106.0
X108.08Y-106.0
X109.16Y-99.0
X110.16Y-53.0
X110.16Y-57.0
X110.16Y-61.0
X110.16Y-65.0
X110.16Y-69.0
X112.16Y-113.0
X112.84Y-99.5
X114.0Y-53.0
X114.0Y-55.54
X114.0Y-58.08
X114.0Y-60.62
X114.0Y-63.16
X114.0Y-65.7
X114.0Y-68.24
X114.0Y-70.78
X114.0Y-78.0
X114.0Y-80.54
X114.0Y-83.08
X114.0Y-85.62
X114.0Y-88.16
X114.0Y-90.7
X114.0Y-93.24
X121.62Y-53.0
X121.62Y-55.54
X121.62Y-58.08
X121.62Y-60.62
X121.62Y-63.16
X121.62Y-65.7
X121.62Y-68.24
X121.62Y-70.78
X121.62Y-78.0
X121.62Y-80.54
X121.62Y-83.08
X121.62Y-85.62
X121.62Y-88.16
X121.62Y-90.7
X121.62Y-93.24
X123.0Y-99.5
X126.0Y-50.0
X130.0Y-65.0
X130.0Y-69.0
X130.0Y-96.0
X130.0Y-98.54
X130.0Y-101.08
X130.0Y-103.62
X130.0Y-106.16
X130.0Y-108.7
X130.0Y-111.24
X136.16Y-50.0
X137.62Y-96.0
X137.62Y-98.54
X137.62Y-101.08
X137.62Y-103.62
X137.62Y-106.16
X137.62Y-108.7
X137.62Y-111.24
X140.16Y-65.0
X140.16Y-69.0
T4
X7.0Y-26.0
X12.0Y-26.0
X14.0Y-57.0
X16.54Y-57.0
X24.0Y-73.5
X29.0Y-73.5
X49.0Y-73.5
X54.0Y-73.5
X61.0Y-29.0
X66.0Y-29.0
X74.0Y-73.5
X79.0Y-73.5
X89.0Y-29.0
X94.0Y-29.0
X99.0Y-73.5
X104.0Y-73.5
X118.0Y-29.0
X123.0Y-29.0
X123.0Y-46.0
X124.6Y-85.62
X128.0Y-46.0
X128.0Y-75.0
X129.6Y-85.62
X133.0Y-75.0
X134.0Y-91.0
X139.0Y-91.0
T5
X15.0Y-26.0
X20.0Y-26.0
X26.0Y-26.0
X26.0Y-40.0
X42.0Y-32.0
X42.0Y-34.54
X42.0Y-37.08
X42.0Y-39.62
X42.0Y-42.16
X42.0Y-44.7
X42.0Y-47.24
X55.0Y-95.0
X57.24Y-32.0
X57.24Y-34.54
X57.24Y-37.08
X57.24Y-39.62
X57.24Y-42.16
X57.24Y-44.7
X57.24Y-47.24
X70.0Y-32.0
X70.0Y-34.54
X70.0Y-37.08
X70.0Y-39.62
X70.0Y-42.16
X70.0Y-44.7
X70.0Y-47.24
X82.0Y-95.0
X85.24Y-32.0
X85.24Y-34.54
X85.24Y-37.08
X85.24Y-39.62
X85.24Y-42.16
X85.24Y-44.7
X85.24Y-47.24
X85.5Y-106.0
X86.0Y-92.0
X91.0Y-23.0
X98.0Y-23.0
X99.0Y-32.0
X99.0Y-34.54
X99.0Y-37.08
X99.0Y-39.62
X99.0Y-42.16
X99.0Y-44.7
X99.0Y-47.24
X114.24Y-32.0
X114.24Y-34.54
X114.24Y-37.08
X114.24Y-39.62
X114.24Y-42.16
X114.24Y-44.7
X114.24Y-47.24
X124.0Y-41.0
X126.5Y-96.2
X127.0Y-91.5
X131.0Y-43.0
X142.0Y-112.0
T6
X18.0Y-20.0
X21.5Y-20.0
X25.0Y-20.0
X28.5Y-20.0
T7
X113.84Y-11.0
X113.84Y-13.54
X116.38Y-11.0
X116.38Y-13.54
X118.92Y-11.0
X118.92Y-13.54
X121.46Y-11.0
X121.46Y-13.54
X124.0Y-11.0
X124.0Y-13.54
X149.0Y-36.0
X149.0Y-38.54
X149.0Y-41.08
X149.0Y-73.0
X149.0Y-75.54
X149.0Y-78.08
X149.0Y-98.0
X149.0Y-100.54
X149.0Y-103.08
X151.54Y-36.0
X151.54Y-38.54
X151.54Y-41.08
X151.54Y-73.0
X151.54Y-75.54
X151.54Y-78.08
X151.54Y-98.0
X151.54Y-100.54
X151.54Y-103.08
T8
X18.0Y-105.0
X18.0Y-110.5
X22.2Y-105.0
X22.2Y-110.5
X26.4Y-105.0
X26.4Y-110.5
X30.6Y-105.0
X30.6Y-110.5
X34.8Y-105.0
X34.8Y-110.5
X57.0Y-105.0
X57.0Y-110.5
X61.2Y-105.0
X61.2Y-110.5
X65.4Y-105.0
X65.4Y-110.5
M30
