M48
; DRILL file KiCad 10.0.6 date 2026-09-27T08:30:44
; FORMAT={-:-/ absolute / metric / decimal}
; #@! TF.CreationDate,2026-09-27T08:30:44+02:00
; #@! TF.GenerationSoftware,Kicad,Pcbnew,10.0.6
; #@! TF.FileFunction,Plated,1,2,PTH
FMAT,2
METRIC
; #@! TA.AperFunction,Plated,PTH,ViaDrill
T1C0.500
; #@! TA.AperFunction,Plated,PTH,ComponentDrill
T2C0.800
; #@! TA.AperFunction,Plated,PTH,ComponentDrill
T3C0.900
; #@! TA.AperFunction,Plated,PTH,ComponentDrill
T4C1.000
; #@! TA.AperFunction,Plated,PTH,ComponentDrill
T5C1.100
; #@! TA.AperFunction,Plated,PTH,ComponentDrill
T6C1.300
; #@! TA.AperFunction,Plated,PTH,ComponentDrill
T7C1.400
%
G90
G05
T1
X52.5Y-51.54
T2
X10.5Y-43.92
X10.5Y-54.08
X14.0Y-46.46
X14.0Y-49.0
X14.0Y-51.54
X17.5Y-43.92
X17.5Y-54.08
X21.5Y-43.92
X21.5Y-54.08
X25.0Y-46.46
X25.0Y-49.0
X25.0Y-51.54
X28.5Y-43.92
X28.5Y-54.08
X29.0Y-26.0
X31.0Y-26.0
X32.0Y-31.0
X32.5Y-43.92
X32.5Y-54.08
X36.0Y-46.46
X36.0Y-49.0
X36.0Y-51.54
X39.5Y-43.92
X39.5Y-54.08
X42.16Y-31.0
X43.5Y-43.92
X43.5Y-54.08
X47.0Y-26.0
X47.0Y-46.46
X47.0Y-49.0
X47.0Y-51.54
X49.0Y-26.0
X50.5Y-43.92
X50.5Y-54.08
X53.0Y-20.0
X54.5Y-43.92
X54.5Y-54.08
X58.0Y-46.46
X58.0Y-49.0
X58.0Y-51.54
X61.5Y-43.92
X61.5Y-54.08
X63.16Y-20.0
X65.5Y-43.92
X65.5Y-54.08
X67.0Y-13.5
X69.0Y-46.46
X69.0Y-49.0
X69.0Y-51.54
X72.5Y-43.92
X72.5Y-54.08
X74.0Y-24.0
X76.5Y-43.92
X76.5Y-54.08
X77.16Y-13.5
X80.0Y-46.46
X80.0Y-49.0
X80.0Y-51.54
X83.5Y-43.92
X83.5Y-54.08
X84.16Y-24.0
X86.0Y-13.0
X86.0Y-15.54
X86.0Y-18.08
X86.0Y-20.62
X87.5Y-43.92
X87.5Y-54.08
X91.0Y-46.46
X91.0Y-49.0
X91.0Y-51.54
X93.62Y-13.0
X93.62Y-15.54
X93.62Y-18.08
X93.62Y-20.62
X94.5Y-43.92
X94.5Y-54.08
X96.84Y-15.2
X96.84Y-18.8
X98.5Y-43.92
X98.5Y-54.08
X102.0Y-46.46
X102.0Y-49.0
X102.0Y-51.54
X105.5Y-43.92
X105.5Y-54.08
X107.0Y-15.2
X107.0Y-18.8
T3
X12.73Y-40.0
X15.27Y-40.0
X23.73Y-40.0
X26.27Y-40.0
X33.0Y-13.5
X34.73Y-40.0
X37.27Y-40.0
X38.0Y-13.5
X45.0Y-13.5
X45.73Y-40.0
X48.27Y-40.0
X50.0Y-13.5
X56.73Y-40.0
X59.27Y-40.0
X66.5Y-20.0
X67.73Y-40.0
X69.04Y-20.0
X70.27Y-40.0
X78.73Y-40.0
X81.27Y-40.0
X89.73Y-40.0
X92.27Y-40.0
X93.5Y-25.0
X96.5Y-11.0
X98.5Y-25.0
X100.73Y-40.0
X101.5Y-11.0
X103.27Y-40.0
X104.0Y-22.3
X104.0Y-27.3
T4
X12.73Y-59.0
X15.27Y-59.0
X22.0Y-26.0
X23.73Y-59.0
X26.27Y-59.0
X34.73Y-59.0
X37.27Y-59.0
X45.73Y-59.0
X48.27Y-59.0
X56.73Y-59.0
X57.0Y-26.0
X59.27Y-59.0
X61.0Y-26.0
X67.73Y-59.0
X70.27Y-59.0
X78.73Y-59.0
X81.27Y-59.0
X89.73Y-59.0
X92.27Y-59.0
X100.73Y-59.0
X103.27Y-59.0
T5
X15.84Y-20.0
X26.0Y-20.0
T6
X7.0Y-14.92
X7.0Y-20.0
T7
X37.0Y-20.0
X39.54Y-20.0
X42.08Y-20.0
M30
