%TF.GenerationSoftware,KiCad,Pcbnew,10.0.6*%
%TF.CreationDate,2026-09-27T08:36:19+02:00*%
%TF.ProjectId,P00,5030302e-6b69-4636-9164-5f7063625858,PCB-R2 / SCH-P00-R2*%
%TF.SameCoordinates,Original*%
%TF.FileFunction,Soldermask,Top*%
%TF.FilePolarity,Negative*%
%FSLAX46Y46*%
G04 Gerber Fmt 4.6, Leading zero omitted, Abs format (unit mm)*
G04 Created by KiCad (PCBNEW 10.0.6) date 2026-09-27 08:36:19*
%MOMM*%
%LPD*%
G01*
G04 APERTURE LIST*
G04 APERTURE END LIST*
G36*
X16120000Y-59850000D02*
G01*
X14420000Y-59850000D01*
X14420000Y-58150000D01*
X16120000Y-58150000D01*
X16120000Y-59850000D01*
G37*
G36*
X27120000Y-59850000D02*
G01*
X25420000Y-59850000D01*
X25420000Y-58150000D01*
X27120000Y-58150000D01*
X27120000Y-59850000D01*
G37*
G36*
X38120000Y-59850000D02*
G01*
X36420000Y-59850000D01*
X36420000Y-58150000D01*
X38120000Y-58150000D01*
X38120000Y-59850000D01*
G37*
G36*
X49120000Y-59850000D02*
G01*
X47420000Y-59850000D01*
X47420000Y-58150000D01*
X49120000Y-58150000D01*
X49120000Y-59850000D01*
G37*
G36*
X60120000Y-59850000D02*
G01*
X58420000Y-59850000D01*
X58420000Y-58150000D01*
X60120000Y-58150000D01*
X60120000Y-59850000D01*
G37*
G36*
X71120000Y-59850000D02*
G01*
X69420000Y-59850000D01*
X69420000Y-58150000D01*
X71120000Y-58150000D01*
X71120000Y-59850000D01*
G37*
G36*
X82120000Y-59850000D02*
G01*
X80420000Y-59850000D01*
X80420000Y-58150000D01*
X82120000Y-58150000D01*
X82120000Y-59850000D01*
G37*
G36*
X93120000Y-59850000D02*
G01*
X91420000Y-59850000D01*
X91420000Y-58150000D01*
X93120000Y-58150000D01*
X93120000Y-59850000D01*
G37*
G36*
X104120000Y-59850000D02*
G01*
X102420000Y-59850000D01*
X102420000Y-58150000D01*
X104120000Y-58150000D01*
X104120000Y-59850000D01*
G37*
G36*
X12976742Y-58186601D02*
G01*
X13130687Y-58250367D01*
X13269234Y-58342941D01*
X13387059Y-58460766D01*
X13479633Y-58599313D01*
X13543399Y-58753258D01*
X13575907Y-58916685D01*
X13575907Y-59083315D01*
X13543399Y-59246742D01*
X13479633Y-59400687D01*
X13387059Y-59539234D01*
X13269234Y-59657059D01*
X13130687Y-59749633D01*
X12976742Y-59813399D01*
X12813315Y-59845907D01*
X12646685Y-59845907D01*
X12483258Y-59813399D01*
X12329313Y-59749633D01*
X12190766Y-59657059D01*
X12072941Y-59539234D01*
X11980367Y-59400687D01*
X11916601Y-59246742D01*
X11884093Y-59083315D01*
X11884093Y-58916685D01*
X11916601Y-58753258D01*
X11980367Y-58599313D01*
X12072941Y-58460766D01*
X12190766Y-58342941D01*
X12329313Y-58250367D01*
X12483258Y-58186601D01*
X12646685Y-58154093D01*
X12813315Y-58154093D01*
X12976742Y-58186601D01*
G37*
G36*
X23976742Y-58186601D02*
G01*
X24130687Y-58250367D01*
X24269234Y-58342941D01*
X24387059Y-58460766D01*
X24479633Y-58599313D01*
X24543399Y-58753258D01*
X24575907Y-58916685D01*
X24575907Y-59083315D01*
X24543399Y-59246742D01*
X24479633Y-59400687D01*
X24387059Y-59539234D01*
X24269234Y-59657059D01*
X24130687Y-59749633D01*
X23976742Y-59813399D01*
X23813315Y-59845907D01*
X23646685Y-59845907D01*
X23483258Y-59813399D01*
X23329313Y-59749633D01*
X23190766Y-59657059D01*
X23072941Y-59539234D01*
X22980367Y-59400687D01*
X22916601Y-59246742D01*
X22884093Y-59083315D01*
X22884093Y-58916685D01*
X22916601Y-58753258D01*
X22980367Y-58599313D01*
X23072941Y-58460766D01*
X23190766Y-58342941D01*
X23329313Y-58250367D01*
X23483258Y-58186601D01*
X23646685Y-58154093D01*
X23813315Y-58154093D01*
X23976742Y-58186601D01*
G37*
G36*
X34976742Y-58186601D02*
G01*
X35130687Y-58250367D01*
X35269234Y-58342941D01*
X35387059Y-58460766D01*
X35479633Y-58599313D01*
X35543399Y-58753258D01*
X35575907Y-58916685D01*
X35575907Y-59083315D01*
X35543399Y-59246742D01*
X35479633Y-59400687D01*
X35387059Y-59539234D01*
X35269234Y-59657059D01*
X35130687Y-59749633D01*
X34976742Y-59813399D01*
X34813315Y-59845907D01*
X34646685Y-59845907D01*
X34483258Y-59813399D01*
X34329313Y-59749633D01*
X34190766Y-59657059D01*
X34072941Y-59539234D01*
X33980367Y-59400687D01*
X33916601Y-59246742D01*
X33884093Y-59083315D01*
X33884093Y-58916685D01*
X33916601Y-58753258D01*
X33980367Y-58599313D01*
X34072941Y-58460766D01*
X34190766Y-58342941D01*
X34329313Y-58250367D01*
X34483258Y-58186601D01*
X34646685Y-58154093D01*
X34813315Y-58154093D01*
X34976742Y-58186601D01*
G37*
G36*
X45976742Y-58186601D02*
G01*
X46130687Y-58250367D01*
X46269234Y-58342941D01*
X46387059Y-58460766D01*
X46479633Y-58599313D01*
X46543399Y-58753258D01*
X46575907Y-58916685D01*
X46575907Y-59083315D01*
X46543399Y-59246742D01*
X46479633Y-59400687D01*
X46387059Y-59539234D01*
X46269234Y-59657059D01*
X46130687Y-59749633D01*
X45976742Y-59813399D01*
X45813315Y-59845907D01*
X45646685Y-59845907D01*
X45483258Y-59813399D01*
X45329313Y-59749633D01*
X45190766Y-59657059D01*
X45072941Y-59539234D01*
X44980367Y-59400687D01*
X44916601Y-59246742D01*
X44884093Y-59083315D01*
X44884093Y-58916685D01*
X44916601Y-58753258D01*
X44980367Y-58599313D01*
X45072941Y-58460766D01*
X45190766Y-58342941D01*
X45329313Y-58250367D01*
X45483258Y-58186601D01*
X45646685Y-58154093D01*
X45813315Y-58154093D01*
X45976742Y-58186601D01*
G37*
G36*
X56976742Y-58186601D02*
G01*
X57130687Y-58250367D01*
X57269234Y-58342941D01*
X57387059Y-58460766D01*
X57479633Y-58599313D01*
X57543399Y-58753258D01*
X57575907Y-58916685D01*
X57575907Y-59083315D01*
X57543399Y-59246742D01*
X57479633Y-59400687D01*
X57387059Y-59539234D01*
X57269234Y-59657059D01*
X57130687Y-59749633D01*
X56976742Y-59813399D01*
X56813315Y-59845907D01*
X56646685Y-59845907D01*
X56483258Y-59813399D01*
X56329313Y-59749633D01*
X56190766Y-59657059D01*
X56072941Y-59539234D01*
X55980367Y-59400687D01*
X55916601Y-59246742D01*
X55884093Y-59083315D01*
X55884093Y-58916685D01*
X55916601Y-58753258D01*
X55980367Y-58599313D01*
X56072941Y-58460766D01*
X56190766Y-58342941D01*
X56329313Y-58250367D01*
X56483258Y-58186601D01*
X56646685Y-58154093D01*
X56813315Y-58154093D01*
X56976742Y-58186601D01*
G37*
G36*
X67976742Y-58186601D02*
G01*
X68130687Y-58250367D01*
X68269234Y-58342941D01*
X68387059Y-58460766D01*
X68479633Y-58599313D01*
X68543399Y-58753258D01*
X68575907Y-58916685D01*
X68575907Y-59083315D01*
X68543399Y-59246742D01*
X68479633Y-59400687D01*
X68387059Y-59539234D01*
X68269234Y-59657059D01*
X68130687Y-59749633D01*
X67976742Y-59813399D01*
X67813315Y-59845907D01*
X67646685Y-59845907D01*
X67483258Y-59813399D01*
X67329313Y-59749633D01*
X67190766Y-59657059D01*
X67072941Y-59539234D01*
X66980367Y-59400687D01*
X66916601Y-59246742D01*
X66884093Y-59083315D01*
X66884093Y-58916685D01*
X66916601Y-58753258D01*
X66980367Y-58599313D01*
X67072941Y-58460766D01*
X67190766Y-58342941D01*
X67329313Y-58250367D01*
X67483258Y-58186601D01*
X67646685Y-58154093D01*
X67813315Y-58154093D01*
X67976742Y-58186601D01*
G37*
G36*
X78976742Y-58186601D02*
G01*
X79130687Y-58250367D01*
X79269234Y-58342941D01*
X79387059Y-58460766D01*
X79479633Y-58599313D01*
X79543399Y-58753258D01*
X79575907Y-58916685D01*
X79575907Y-59083315D01*
X79543399Y-59246742D01*
X79479633Y-59400687D01*
X79387059Y-59539234D01*
X79269234Y-59657059D01*
X79130687Y-59749633D01*
X78976742Y-59813399D01*
X78813315Y-59845907D01*
X78646685Y-59845907D01*
X78483258Y-59813399D01*
X78329313Y-59749633D01*
X78190766Y-59657059D01*
X78072941Y-59539234D01*
X77980367Y-59400687D01*
X77916601Y-59246742D01*
X77884093Y-59083315D01*
X77884093Y-58916685D01*
X77916601Y-58753258D01*
X77980367Y-58599313D01*
X78072941Y-58460766D01*
X78190766Y-58342941D01*
X78329313Y-58250367D01*
X78483258Y-58186601D01*
X78646685Y-58154093D01*
X78813315Y-58154093D01*
X78976742Y-58186601D01*
G37*
G36*
X89976742Y-58186601D02*
G01*
X90130687Y-58250367D01*
X90269234Y-58342941D01*
X90387059Y-58460766D01*
X90479633Y-58599313D01*
X90543399Y-58753258D01*
X90575907Y-58916685D01*
X90575907Y-59083315D01*
X90543399Y-59246742D01*
X90479633Y-59400687D01*
X90387059Y-59539234D01*
X90269234Y-59657059D01*
X90130687Y-59749633D01*
X89976742Y-59813399D01*
X89813315Y-59845907D01*
X89646685Y-59845907D01*
X89483258Y-59813399D01*
X89329313Y-59749633D01*
X89190766Y-59657059D01*
X89072941Y-59539234D01*
X88980367Y-59400687D01*
X88916601Y-59246742D01*
X88884093Y-59083315D01*
X88884093Y-58916685D01*
X88916601Y-58753258D01*
X88980367Y-58599313D01*
X89072941Y-58460766D01*
X89190766Y-58342941D01*
X89329313Y-58250367D01*
X89483258Y-58186601D01*
X89646685Y-58154093D01*
X89813315Y-58154093D01*
X89976742Y-58186601D01*
G37*
G36*
X100976742Y-58186601D02*
G01*
X101130687Y-58250367D01*
X101269234Y-58342941D01*
X101387059Y-58460766D01*
X101479633Y-58599313D01*
X101543399Y-58753258D01*
X101575907Y-58916685D01*
X101575907Y-59083315D01*
X101543399Y-59246742D01*
X101479633Y-59400687D01*
X101387059Y-59539234D01*
X101269234Y-59657059D01*
X101130687Y-59749633D01*
X100976742Y-59813399D01*
X100813315Y-59845907D01*
X100646685Y-59845907D01*
X100483258Y-59813399D01*
X100329313Y-59749633D01*
X100190766Y-59657059D01*
X100072941Y-59539234D01*
X99980367Y-59400687D01*
X99916601Y-59246742D01*
X99884093Y-59083315D01*
X99884093Y-58916685D01*
X99916601Y-58753258D01*
X99980367Y-58599313D01*
X100072941Y-58460766D01*
X100190766Y-58342941D01*
X100329313Y-58250367D01*
X100483258Y-58186601D01*
X100646685Y-58154093D01*
X100813315Y-58154093D01*
X100976742Y-58186601D01*
G37*
G36*
X10732228Y-53314448D02*
G01*
X10877117Y-53374463D01*
X11007515Y-53461592D01*
X11118408Y-53572485D01*
X11205537Y-53702883D01*
X11265552Y-53847772D01*
X11296148Y-54001586D01*
X11296148Y-54158414D01*
X11265552Y-54312228D01*
X11205537Y-54457117D01*
X11118408Y-54587515D01*
X11007515Y-54698408D01*
X10877117Y-54785537D01*
X10732228Y-54845552D01*
X10578414Y-54876148D01*
X10421586Y-54876148D01*
X10267772Y-54845552D01*
X10122883Y-54785537D01*
X9992485Y-54698408D01*
X9881592Y-54587515D01*
X9794463Y-54457117D01*
X9734448Y-54312228D01*
X9703852Y-54158414D01*
X9703852Y-54001586D01*
X9734448Y-53847772D01*
X9794463Y-53702883D01*
X9881592Y-53572485D01*
X9992485Y-53461592D01*
X10122883Y-53374463D01*
X10267772Y-53314448D01*
X10421586Y-53283852D01*
X10578414Y-53283852D01*
X10732228Y-53314448D01*
G37*
G36*
X17732228Y-53314448D02*
G01*
X17877117Y-53374463D01*
X18007515Y-53461592D01*
X18118408Y-53572485D01*
X18205537Y-53702883D01*
X18265552Y-53847772D01*
X18296148Y-54001586D01*
X18296148Y-54158414D01*
X18265552Y-54312228D01*
X18205537Y-54457117D01*
X18118408Y-54587515D01*
X18007515Y-54698408D01*
X17877117Y-54785537D01*
X17732228Y-54845552D01*
X17578414Y-54876148D01*
X17421586Y-54876148D01*
X17267772Y-54845552D01*
X17122883Y-54785537D01*
X16992485Y-54698408D01*
X16881592Y-54587515D01*
X16794463Y-54457117D01*
X16734448Y-54312228D01*
X16703852Y-54158414D01*
X16703852Y-54001586D01*
X16734448Y-53847772D01*
X16794463Y-53702883D01*
X16881592Y-53572485D01*
X16992485Y-53461592D01*
X17122883Y-53374463D01*
X17267772Y-53314448D01*
X17421586Y-53283852D01*
X17578414Y-53283852D01*
X17732228Y-53314448D01*
G37*
G36*
X21732228Y-53314448D02*
G01*
X21877117Y-53374463D01*
X22007515Y-53461592D01*
X22118408Y-53572485D01*
X22205537Y-53702883D01*
X22265552Y-53847772D01*
X22296148Y-54001586D01*
X22296148Y-54158414D01*
X22265552Y-54312228D01*
X22205537Y-54457117D01*
X22118408Y-54587515D01*
X22007515Y-54698408D01*
X21877117Y-54785537D01*
X21732228Y-54845552D01*
X21578414Y-54876148D01*
X21421586Y-54876148D01*
X21267772Y-54845552D01*
X21122883Y-54785537D01*
X20992485Y-54698408D01*
X20881592Y-54587515D01*
X20794463Y-54457117D01*
X20734448Y-54312228D01*
X20703852Y-54158414D01*
X20703852Y-54001586D01*
X20734448Y-53847772D01*
X20794463Y-53702883D01*
X20881592Y-53572485D01*
X20992485Y-53461592D01*
X21122883Y-53374463D01*
X21267772Y-53314448D01*
X21421586Y-53283852D01*
X21578414Y-53283852D01*
X21732228Y-53314448D01*
G37*
G36*
X28732228Y-53314448D02*
G01*
X28877117Y-53374463D01*
X29007515Y-53461592D01*
X29118408Y-53572485D01*
X29205537Y-53702883D01*
X29265552Y-53847772D01*
X29296148Y-54001586D01*
X29296148Y-54158414D01*
X29265552Y-54312228D01*
X29205537Y-54457117D01*
X29118408Y-54587515D01*
X29007515Y-54698408D01*
X28877117Y-54785537D01*
X28732228Y-54845552D01*
X28578414Y-54876148D01*
X28421586Y-54876148D01*
X28267772Y-54845552D01*
X28122883Y-54785537D01*
X27992485Y-54698408D01*
X27881592Y-54587515D01*
X27794463Y-54457117D01*
X27734448Y-54312228D01*
X27703852Y-54158414D01*
X27703852Y-54001586D01*
X27734448Y-53847772D01*
X27794463Y-53702883D01*
X27881592Y-53572485D01*
X27992485Y-53461592D01*
X28122883Y-53374463D01*
X28267772Y-53314448D01*
X28421586Y-53283852D01*
X28578414Y-53283852D01*
X28732228Y-53314448D01*
G37*
G36*
X32732228Y-53314448D02*
G01*
X32877117Y-53374463D01*
X33007515Y-53461592D01*
X33118408Y-53572485D01*
X33205537Y-53702883D01*
X33265552Y-53847772D01*
X33296148Y-54001586D01*
X33296148Y-54158414D01*
X33265552Y-54312228D01*
X33205537Y-54457117D01*
X33118408Y-54587515D01*
X33007515Y-54698408D01*
X32877117Y-54785537D01*
X32732228Y-54845552D01*
X32578414Y-54876148D01*
X32421586Y-54876148D01*
X32267772Y-54845552D01*
X32122883Y-54785537D01*
X31992485Y-54698408D01*
X31881592Y-54587515D01*
X31794463Y-54457117D01*
X31734448Y-54312228D01*
X31703852Y-54158414D01*
X31703852Y-54001586D01*
X31734448Y-53847772D01*
X31794463Y-53702883D01*
X31881592Y-53572485D01*
X31992485Y-53461592D01*
X32122883Y-53374463D01*
X32267772Y-53314448D01*
X32421586Y-53283852D01*
X32578414Y-53283852D01*
X32732228Y-53314448D01*
G37*
G36*
X39732228Y-53314448D02*
G01*
X39877117Y-53374463D01*
X40007515Y-53461592D01*
X40118408Y-53572485D01*
X40205537Y-53702883D01*
X40265552Y-53847772D01*
X40296148Y-54001586D01*
X40296148Y-54158414D01*
X40265552Y-54312228D01*
X40205537Y-54457117D01*
X40118408Y-54587515D01*
X40007515Y-54698408D01*
X39877117Y-54785537D01*
X39732228Y-54845552D01*
X39578414Y-54876148D01*
X39421586Y-54876148D01*
X39267772Y-54845552D01*
X39122883Y-54785537D01*
X38992485Y-54698408D01*
X38881592Y-54587515D01*
X38794463Y-54457117D01*
X38734448Y-54312228D01*
X38703852Y-54158414D01*
X38703852Y-54001586D01*
X38734448Y-53847772D01*
X38794463Y-53702883D01*
X38881592Y-53572485D01*
X38992485Y-53461592D01*
X39122883Y-53374463D01*
X39267772Y-53314448D01*
X39421586Y-53283852D01*
X39578414Y-53283852D01*
X39732228Y-53314448D01*
G37*
G36*
X43732228Y-53314448D02*
G01*
X43877117Y-53374463D01*
X44007515Y-53461592D01*
X44118408Y-53572485D01*
X44205537Y-53702883D01*
X44265552Y-53847772D01*
X44296148Y-54001586D01*
X44296148Y-54158414D01*
X44265552Y-54312228D01*
X44205537Y-54457117D01*
X44118408Y-54587515D01*
X44007515Y-54698408D01*
X43877117Y-54785537D01*
X43732228Y-54845552D01*
X43578414Y-54876148D01*
X43421586Y-54876148D01*
X43267772Y-54845552D01*
X43122883Y-54785537D01*
X42992485Y-54698408D01*
X42881592Y-54587515D01*
X42794463Y-54457117D01*
X42734448Y-54312228D01*
X42703852Y-54158414D01*
X42703852Y-54001586D01*
X42734448Y-53847772D01*
X42794463Y-53702883D01*
X42881592Y-53572485D01*
X42992485Y-53461592D01*
X43122883Y-53374463D01*
X43267772Y-53314448D01*
X43421586Y-53283852D01*
X43578414Y-53283852D01*
X43732228Y-53314448D01*
G37*
G36*
X50732228Y-53314448D02*
G01*
X50877117Y-53374463D01*
X51007515Y-53461592D01*
X51118408Y-53572485D01*
X51205537Y-53702883D01*
X51265552Y-53847772D01*
X51296148Y-54001586D01*
X51296148Y-54158414D01*
X51265552Y-54312228D01*
X51205537Y-54457117D01*
X51118408Y-54587515D01*
X51007515Y-54698408D01*
X50877117Y-54785537D01*
X50732228Y-54845552D01*
X50578414Y-54876148D01*
X50421586Y-54876148D01*
X50267772Y-54845552D01*
X50122883Y-54785537D01*
X49992485Y-54698408D01*
X49881592Y-54587515D01*
X49794463Y-54457117D01*
X49734448Y-54312228D01*
X49703852Y-54158414D01*
X49703852Y-54001586D01*
X49734448Y-53847772D01*
X49794463Y-53702883D01*
X49881592Y-53572485D01*
X49992485Y-53461592D01*
X50122883Y-53374463D01*
X50267772Y-53314448D01*
X50421586Y-53283852D01*
X50578414Y-53283852D01*
X50732228Y-53314448D01*
G37*
G36*
X54732228Y-53314448D02*
G01*
X54877117Y-53374463D01*
X55007515Y-53461592D01*
X55118408Y-53572485D01*
X55205537Y-53702883D01*
X55265552Y-53847772D01*
X55296148Y-54001586D01*
X55296148Y-54158414D01*
X55265552Y-54312228D01*
X55205537Y-54457117D01*
X55118408Y-54587515D01*
X55007515Y-54698408D01*
X54877117Y-54785537D01*
X54732228Y-54845552D01*
X54578414Y-54876148D01*
X54421586Y-54876148D01*
X54267772Y-54845552D01*
X54122883Y-54785537D01*
X53992485Y-54698408D01*
X53881592Y-54587515D01*
X53794463Y-54457117D01*
X53734448Y-54312228D01*
X53703852Y-54158414D01*
X53703852Y-54001586D01*
X53734448Y-53847772D01*
X53794463Y-53702883D01*
X53881592Y-53572485D01*
X53992485Y-53461592D01*
X54122883Y-53374463D01*
X54267772Y-53314448D01*
X54421586Y-53283852D01*
X54578414Y-53283852D01*
X54732228Y-53314448D01*
G37*
G36*
X61732228Y-53314448D02*
G01*
X61877117Y-53374463D01*
X62007515Y-53461592D01*
X62118408Y-53572485D01*
X62205537Y-53702883D01*
X62265552Y-53847772D01*
X62296148Y-54001586D01*
X62296148Y-54158414D01*
X62265552Y-54312228D01*
X62205537Y-54457117D01*
X62118408Y-54587515D01*
X62007515Y-54698408D01*
X61877117Y-54785537D01*
X61732228Y-54845552D01*
X61578414Y-54876148D01*
X61421586Y-54876148D01*
X61267772Y-54845552D01*
X61122883Y-54785537D01*
X60992485Y-54698408D01*
X60881592Y-54587515D01*
X60794463Y-54457117D01*
X60734448Y-54312228D01*
X60703852Y-54158414D01*
X60703852Y-54001586D01*
X60734448Y-53847772D01*
X60794463Y-53702883D01*
X60881592Y-53572485D01*
X60992485Y-53461592D01*
X61122883Y-53374463D01*
X61267772Y-53314448D01*
X61421586Y-53283852D01*
X61578414Y-53283852D01*
X61732228Y-53314448D01*
G37*
G36*
X65732228Y-53314448D02*
G01*
X65877117Y-53374463D01*
X66007515Y-53461592D01*
X66118408Y-53572485D01*
X66205537Y-53702883D01*
X66265552Y-53847772D01*
X66296148Y-54001586D01*
X66296148Y-54158414D01*
X66265552Y-54312228D01*
X66205537Y-54457117D01*
X66118408Y-54587515D01*
X66007515Y-54698408D01*
X65877117Y-54785537D01*
X65732228Y-54845552D01*
X65578414Y-54876148D01*
X65421586Y-54876148D01*
X65267772Y-54845552D01*
X65122883Y-54785537D01*
X64992485Y-54698408D01*
X64881592Y-54587515D01*
X64794463Y-54457117D01*
X64734448Y-54312228D01*
X64703852Y-54158414D01*
X64703852Y-54001586D01*
X64734448Y-53847772D01*
X64794463Y-53702883D01*
X64881592Y-53572485D01*
X64992485Y-53461592D01*
X65122883Y-53374463D01*
X65267772Y-53314448D01*
X65421586Y-53283852D01*
X65578414Y-53283852D01*
X65732228Y-53314448D01*
G37*
G36*
X72732228Y-53314448D02*
G01*
X72877117Y-53374463D01*
X73007515Y-53461592D01*
X73118408Y-53572485D01*
X73205537Y-53702883D01*
X73265552Y-53847772D01*
X73296148Y-54001586D01*
X73296148Y-54158414D01*
X73265552Y-54312228D01*
X73205537Y-54457117D01*
X73118408Y-54587515D01*
X73007515Y-54698408D01*
X72877117Y-54785537D01*
X72732228Y-54845552D01*
X72578414Y-54876148D01*
X72421586Y-54876148D01*
X72267772Y-54845552D01*
X72122883Y-54785537D01*
X71992485Y-54698408D01*
X71881592Y-54587515D01*
X71794463Y-54457117D01*
X71734448Y-54312228D01*
X71703852Y-54158414D01*
X71703852Y-54001586D01*
X71734448Y-53847772D01*
X71794463Y-53702883D01*
X71881592Y-53572485D01*
X71992485Y-53461592D01*
X72122883Y-53374463D01*
X72267772Y-53314448D01*
X72421586Y-53283852D01*
X72578414Y-53283852D01*
X72732228Y-53314448D01*
G37*
G36*
X76732228Y-53314448D02*
G01*
X76877117Y-53374463D01*
X77007515Y-53461592D01*
X77118408Y-53572485D01*
X77205537Y-53702883D01*
X77265552Y-53847772D01*
X77296148Y-54001586D01*
X77296148Y-54158414D01*
X77265552Y-54312228D01*
X77205537Y-54457117D01*
X77118408Y-54587515D01*
X77007515Y-54698408D01*
X76877117Y-54785537D01*
X76732228Y-54845552D01*
X76578414Y-54876148D01*
X76421586Y-54876148D01*
X76267772Y-54845552D01*
X76122883Y-54785537D01*
X75992485Y-54698408D01*
X75881592Y-54587515D01*
X75794463Y-54457117D01*
X75734448Y-54312228D01*
X75703852Y-54158414D01*
X75703852Y-54001586D01*
X75734448Y-53847772D01*
X75794463Y-53702883D01*
X75881592Y-53572485D01*
X75992485Y-53461592D01*
X76122883Y-53374463D01*
X76267772Y-53314448D01*
X76421586Y-53283852D01*
X76578414Y-53283852D01*
X76732228Y-53314448D01*
G37*
G36*
X83732228Y-53314448D02*
G01*
X83877117Y-53374463D01*
X84007515Y-53461592D01*
X84118408Y-53572485D01*
X84205537Y-53702883D01*
X84265552Y-53847772D01*
X84296148Y-54001586D01*
X84296148Y-54158414D01*
X84265552Y-54312228D01*
X84205537Y-54457117D01*
X84118408Y-54587515D01*
X84007515Y-54698408D01*
X83877117Y-54785537D01*
X83732228Y-54845552D01*
X83578414Y-54876148D01*
X83421586Y-54876148D01*
X83267772Y-54845552D01*
X83122883Y-54785537D01*
X82992485Y-54698408D01*
X82881592Y-54587515D01*
X82794463Y-54457117D01*
X82734448Y-54312228D01*
X82703852Y-54158414D01*
X82703852Y-54001586D01*
X82734448Y-53847772D01*
X82794463Y-53702883D01*
X82881592Y-53572485D01*
X82992485Y-53461592D01*
X83122883Y-53374463D01*
X83267772Y-53314448D01*
X83421586Y-53283852D01*
X83578414Y-53283852D01*
X83732228Y-53314448D01*
G37*
G36*
X87732228Y-53314448D02*
G01*
X87877117Y-53374463D01*
X88007515Y-53461592D01*
X88118408Y-53572485D01*
X88205537Y-53702883D01*
X88265552Y-53847772D01*
X88296148Y-54001586D01*
X88296148Y-54158414D01*
X88265552Y-54312228D01*
X88205537Y-54457117D01*
X88118408Y-54587515D01*
X88007515Y-54698408D01*
X87877117Y-54785537D01*
X87732228Y-54845552D01*
X87578414Y-54876148D01*
X87421586Y-54876148D01*
X87267772Y-54845552D01*
X87122883Y-54785537D01*
X86992485Y-54698408D01*
X86881592Y-54587515D01*
X86794463Y-54457117D01*
X86734448Y-54312228D01*
X86703852Y-54158414D01*
X86703852Y-54001586D01*
X86734448Y-53847772D01*
X86794463Y-53702883D01*
X86881592Y-53572485D01*
X86992485Y-53461592D01*
X87122883Y-53374463D01*
X87267772Y-53314448D01*
X87421586Y-53283852D01*
X87578414Y-53283852D01*
X87732228Y-53314448D01*
G37*
G36*
X94732228Y-53314448D02*
G01*
X94877117Y-53374463D01*
X95007515Y-53461592D01*
X95118408Y-53572485D01*
X95205537Y-53702883D01*
X95265552Y-53847772D01*
X95296148Y-54001586D01*
X95296148Y-54158414D01*
X95265552Y-54312228D01*
X95205537Y-54457117D01*
X95118408Y-54587515D01*
X95007515Y-54698408D01*
X94877117Y-54785537D01*
X94732228Y-54845552D01*
X94578414Y-54876148D01*
X94421586Y-54876148D01*
X94267772Y-54845552D01*
X94122883Y-54785537D01*
X93992485Y-54698408D01*
X93881592Y-54587515D01*
X93794463Y-54457117D01*
X93734448Y-54312228D01*
X93703852Y-54158414D01*
X93703852Y-54001586D01*
X93734448Y-53847772D01*
X93794463Y-53702883D01*
X93881592Y-53572485D01*
X93992485Y-53461592D01*
X94122883Y-53374463D01*
X94267772Y-53314448D01*
X94421586Y-53283852D01*
X94578414Y-53283852D01*
X94732228Y-53314448D01*
G37*
G36*
X98732228Y-53314448D02*
G01*
X98877117Y-53374463D01*
X99007515Y-53461592D01*
X99118408Y-53572485D01*
X99205537Y-53702883D01*
X99265552Y-53847772D01*
X99296148Y-54001586D01*
X99296148Y-54158414D01*
X99265552Y-54312228D01*
X99205537Y-54457117D01*
X99118408Y-54587515D01*
X99007515Y-54698408D01*
X98877117Y-54785537D01*
X98732228Y-54845552D01*
X98578414Y-54876148D01*
X98421586Y-54876148D01*
X98267772Y-54845552D01*
X98122883Y-54785537D01*
X97992485Y-54698408D01*
X97881592Y-54587515D01*
X97794463Y-54457117D01*
X97734448Y-54312228D01*
X97703852Y-54158414D01*
X97703852Y-54001586D01*
X97734448Y-53847772D01*
X97794463Y-53702883D01*
X97881592Y-53572485D01*
X97992485Y-53461592D01*
X98122883Y-53374463D01*
X98267772Y-53314448D01*
X98421586Y-53283852D01*
X98578414Y-53283852D01*
X98732228Y-53314448D01*
G37*
G36*
X105732228Y-53314448D02*
G01*
X105877117Y-53374463D01*
X106007515Y-53461592D01*
X106118408Y-53572485D01*
X106205537Y-53702883D01*
X106265552Y-53847772D01*
X106296148Y-54001586D01*
X106296148Y-54158414D01*
X106265552Y-54312228D01*
X106205537Y-54457117D01*
X106118408Y-54587515D01*
X106007515Y-54698408D01*
X105877117Y-54785537D01*
X105732228Y-54845552D01*
X105578414Y-54876148D01*
X105421586Y-54876148D01*
X105267772Y-54845552D01*
X105122883Y-54785537D01*
X104992485Y-54698408D01*
X104881592Y-54587515D01*
X104794463Y-54457117D01*
X104734448Y-54312228D01*
X104703852Y-54158414D01*
X104703852Y-54001586D01*
X104734448Y-53847772D01*
X104794463Y-53702883D01*
X104881592Y-53572485D01*
X104992485Y-53461592D01*
X105122883Y-53374463D01*
X105267772Y-53314448D01*
X105421586Y-53283852D01*
X105578414Y-53283852D01*
X105732228Y-53314448D01*
G37*
G36*
X14232228Y-50774448D02*
G01*
X14377117Y-50834463D01*
X14507515Y-50921592D01*
X14618408Y-51032485D01*
X14705537Y-51162883D01*
X14765552Y-51307772D01*
X14796148Y-51461586D01*
X14796148Y-51618414D01*
X14765552Y-51772228D01*
X14705537Y-51917117D01*
X14618408Y-52047515D01*
X14507515Y-52158408D01*
X14377117Y-52245537D01*
X14232228Y-52305552D01*
X14078414Y-52336148D01*
X13921586Y-52336148D01*
X13767772Y-52305552D01*
X13622883Y-52245537D01*
X13492485Y-52158408D01*
X13381592Y-52047515D01*
X13294463Y-51917117D01*
X13234448Y-51772228D01*
X13203852Y-51618414D01*
X13203852Y-51461586D01*
X13234448Y-51307772D01*
X13294463Y-51162883D01*
X13381592Y-51032485D01*
X13492485Y-50921592D01*
X13622883Y-50834463D01*
X13767772Y-50774448D01*
X13921586Y-50743852D01*
X14078414Y-50743852D01*
X14232228Y-50774448D01*
G37*
G36*
X25232228Y-50774448D02*
G01*
X25377117Y-50834463D01*
X25507515Y-50921592D01*
X25618408Y-51032485D01*
X25705537Y-51162883D01*
X25765552Y-51307772D01*
X25796148Y-51461586D01*
X25796148Y-51618414D01*
X25765552Y-51772228D01*
X25705537Y-51917117D01*
X25618408Y-52047515D01*
X25507515Y-52158408D01*
X25377117Y-52245537D01*
X25232228Y-52305552D01*
X25078414Y-52336148D01*
X24921586Y-52336148D01*
X24767772Y-52305552D01*
X24622883Y-52245537D01*
X24492485Y-52158408D01*
X24381592Y-52047515D01*
X24294463Y-51917117D01*
X24234448Y-51772228D01*
X24203852Y-51618414D01*
X24203852Y-51461586D01*
X24234448Y-51307772D01*
X24294463Y-51162883D01*
X24381592Y-51032485D01*
X24492485Y-50921592D01*
X24622883Y-50834463D01*
X24767772Y-50774448D01*
X24921586Y-50743852D01*
X25078414Y-50743852D01*
X25232228Y-50774448D01*
G37*
G36*
X36232228Y-50774448D02*
G01*
X36377117Y-50834463D01*
X36507515Y-50921592D01*
X36618408Y-51032485D01*
X36705537Y-51162883D01*
X36765552Y-51307772D01*
X36796148Y-51461586D01*
X36796148Y-51618414D01*
X36765552Y-51772228D01*
X36705537Y-51917117D01*
X36618408Y-52047515D01*
X36507515Y-52158408D01*
X36377117Y-52245537D01*
X36232228Y-52305552D01*
X36078414Y-52336148D01*
X35921586Y-52336148D01*
X35767772Y-52305552D01*
X35622883Y-52245537D01*
X35492485Y-52158408D01*
X35381592Y-52047515D01*
X35294463Y-51917117D01*
X35234448Y-51772228D01*
X35203852Y-51618414D01*
X35203852Y-51461586D01*
X35234448Y-51307772D01*
X35294463Y-51162883D01*
X35381592Y-51032485D01*
X35492485Y-50921592D01*
X35622883Y-50834463D01*
X35767772Y-50774448D01*
X35921586Y-50743852D01*
X36078414Y-50743852D01*
X36232228Y-50774448D01*
G37*
G36*
X47232228Y-50774448D02*
G01*
X47377117Y-50834463D01*
X47507515Y-50921592D01*
X47618408Y-51032485D01*
X47705537Y-51162883D01*
X47765552Y-51307772D01*
X47796148Y-51461586D01*
X47796148Y-51618414D01*
X47765552Y-51772228D01*
X47705537Y-51917117D01*
X47618408Y-52047515D01*
X47507515Y-52158408D01*
X47377117Y-52245537D01*
X47232228Y-52305552D01*
X47078414Y-52336148D01*
X46921586Y-52336148D01*
X46767772Y-52305552D01*
X46622883Y-52245537D01*
X46492485Y-52158408D01*
X46381592Y-52047515D01*
X46294463Y-51917117D01*
X46234448Y-51772228D01*
X46203852Y-51618414D01*
X46203852Y-51461586D01*
X46234448Y-51307772D01*
X46294463Y-51162883D01*
X46381592Y-51032485D01*
X46492485Y-50921592D01*
X46622883Y-50834463D01*
X46767772Y-50774448D01*
X46921586Y-50743852D01*
X47078414Y-50743852D01*
X47232228Y-50774448D01*
G37*
G36*
X58232228Y-50774448D02*
G01*
X58377117Y-50834463D01*
X58507515Y-50921592D01*
X58618408Y-51032485D01*
X58705537Y-51162883D01*
X58765552Y-51307772D01*
X58796148Y-51461586D01*
X58796148Y-51618414D01*
X58765552Y-51772228D01*
X58705537Y-51917117D01*
X58618408Y-52047515D01*
X58507515Y-52158408D01*
X58377117Y-52245537D01*
X58232228Y-52305552D01*
X58078414Y-52336148D01*
X57921586Y-52336148D01*
X57767772Y-52305552D01*
X57622883Y-52245537D01*
X57492485Y-52158408D01*
X57381592Y-52047515D01*
X57294463Y-51917117D01*
X57234448Y-51772228D01*
X57203852Y-51618414D01*
X57203852Y-51461586D01*
X57234448Y-51307772D01*
X57294463Y-51162883D01*
X57381592Y-51032485D01*
X57492485Y-50921592D01*
X57622883Y-50834463D01*
X57767772Y-50774448D01*
X57921586Y-50743852D01*
X58078414Y-50743852D01*
X58232228Y-50774448D01*
G37*
G36*
X69232228Y-50774448D02*
G01*
X69377117Y-50834463D01*
X69507515Y-50921592D01*
X69618408Y-51032485D01*
X69705537Y-51162883D01*
X69765552Y-51307772D01*
X69796148Y-51461586D01*
X69796148Y-51618414D01*
X69765552Y-51772228D01*
X69705537Y-51917117D01*
X69618408Y-52047515D01*
X69507515Y-52158408D01*
X69377117Y-52245537D01*
X69232228Y-52305552D01*
X69078414Y-52336148D01*
X68921586Y-52336148D01*
X68767772Y-52305552D01*
X68622883Y-52245537D01*
X68492485Y-52158408D01*
X68381592Y-52047515D01*
X68294463Y-51917117D01*
X68234448Y-51772228D01*
X68203852Y-51618414D01*
X68203852Y-51461586D01*
X68234448Y-51307772D01*
X68294463Y-51162883D01*
X68381592Y-51032485D01*
X68492485Y-50921592D01*
X68622883Y-50834463D01*
X68767772Y-50774448D01*
X68921586Y-50743852D01*
X69078414Y-50743852D01*
X69232228Y-50774448D01*
G37*
G36*
X80232228Y-50774448D02*
G01*
X80377117Y-50834463D01*
X80507515Y-50921592D01*
X80618408Y-51032485D01*
X80705537Y-51162883D01*
X80765552Y-51307772D01*
X80796148Y-51461586D01*
X80796148Y-51618414D01*
X80765552Y-51772228D01*
X80705537Y-51917117D01*
X80618408Y-52047515D01*
X80507515Y-52158408D01*
X80377117Y-52245537D01*
X80232228Y-52305552D01*
X80078414Y-52336148D01*
X79921586Y-52336148D01*
X79767772Y-52305552D01*
X79622883Y-52245537D01*
X79492485Y-52158408D01*
X79381592Y-52047515D01*
X79294463Y-51917117D01*
X79234448Y-51772228D01*
X79203852Y-51618414D01*
X79203852Y-51461586D01*
X79234448Y-51307772D01*
X79294463Y-51162883D01*
X79381592Y-51032485D01*
X79492485Y-50921592D01*
X79622883Y-50834463D01*
X79767772Y-50774448D01*
X79921586Y-50743852D01*
X80078414Y-50743852D01*
X80232228Y-50774448D01*
G37*
G36*
X91232228Y-50774448D02*
G01*
X91377117Y-50834463D01*
X91507515Y-50921592D01*
X91618408Y-51032485D01*
X91705537Y-51162883D01*
X91765552Y-51307772D01*
X91796148Y-51461586D01*
X91796148Y-51618414D01*
X91765552Y-51772228D01*
X91705537Y-51917117D01*
X91618408Y-52047515D01*
X91507515Y-52158408D01*
X91377117Y-52245537D01*
X91232228Y-52305552D01*
X91078414Y-52336148D01*
X90921586Y-52336148D01*
X90767772Y-52305552D01*
X90622883Y-52245537D01*
X90492485Y-52158408D01*
X90381592Y-52047515D01*
X90294463Y-51917117D01*
X90234448Y-51772228D01*
X90203852Y-51618414D01*
X90203852Y-51461586D01*
X90234448Y-51307772D01*
X90294463Y-51162883D01*
X90381592Y-51032485D01*
X90492485Y-50921592D01*
X90622883Y-50834463D01*
X90767772Y-50774448D01*
X90921586Y-50743852D01*
X91078414Y-50743852D01*
X91232228Y-50774448D01*
G37*
G36*
X102232228Y-50774448D02*
G01*
X102377117Y-50834463D01*
X102507515Y-50921592D01*
X102618408Y-51032485D01*
X102705537Y-51162883D01*
X102765552Y-51307772D01*
X102796148Y-51461586D01*
X102796148Y-51618414D01*
X102765552Y-51772228D01*
X102705537Y-51917117D01*
X102618408Y-52047515D01*
X102507515Y-52158408D01*
X102377117Y-52245537D01*
X102232228Y-52305552D01*
X102078414Y-52336148D01*
X101921586Y-52336148D01*
X101767772Y-52305552D01*
X101622883Y-52245537D01*
X101492485Y-52158408D01*
X101381592Y-52047515D01*
X101294463Y-51917117D01*
X101234448Y-51772228D01*
X101203852Y-51618414D01*
X101203852Y-51461586D01*
X101234448Y-51307772D01*
X101294463Y-51162883D01*
X101381592Y-51032485D01*
X101492485Y-50921592D01*
X101622883Y-50834463D01*
X101767772Y-50774448D01*
X101921586Y-50743852D01*
X102078414Y-50743852D01*
X102232228Y-50774448D01*
G37*
G36*
X14750000Y-49750000D02*
G01*
X13250000Y-49750000D01*
X13250000Y-48250000D01*
X14750000Y-48250000D01*
X14750000Y-49750000D01*
G37*
G36*
X25750000Y-49750000D02*
G01*
X24250000Y-49750000D01*
X24250000Y-48250000D01*
X25750000Y-48250000D01*
X25750000Y-49750000D01*
G37*
G36*
X36750000Y-49750000D02*
G01*
X35250000Y-49750000D01*
X35250000Y-48250000D01*
X36750000Y-48250000D01*
X36750000Y-49750000D01*
G37*
G36*
X47750000Y-49750000D02*
G01*
X46250000Y-49750000D01*
X46250000Y-48250000D01*
X47750000Y-48250000D01*
X47750000Y-49750000D01*
G37*
G36*
X58750000Y-49750000D02*
G01*
X57250000Y-49750000D01*
X57250000Y-48250000D01*
X58750000Y-48250000D01*
X58750000Y-49750000D01*
G37*
G36*
X69750000Y-49750000D02*
G01*
X68250000Y-49750000D01*
X68250000Y-48250000D01*
X69750000Y-48250000D01*
X69750000Y-49750000D01*
G37*
G36*
X80750000Y-49750000D02*
G01*
X79250000Y-49750000D01*
X79250000Y-48250000D01*
X80750000Y-48250000D01*
X80750000Y-49750000D01*
G37*
G36*
X91750000Y-49750000D02*
G01*
X90250000Y-49750000D01*
X90250000Y-48250000D01*
X91750000Y-48250000D01*
X91750000Y-49750000D01*
G37*
G36*
X102750000Y-49750000D02*
G01*
X101250000Y-49750000D01*
X101250000Y-48250000D01*
X102750000Y-48250000D01*
X102750000Y-49750000D01*
G37*
G36*
X14232228Y-45694448D02*
G01*
X14377117Y-45754463D01*
X14507515Y-45841592D01*
X14618408Y-45952485D01*
X14705537Y-46082883D01*
X14765552Y-46227772D01*
X14796148Y-46381586D01*
X14796148Y-46538414D01*
X14765552Y-46692228D01*
X14705537Y-46837117D01*
X14618408Y-46967515D01*
X14507515Y-47078408D01*
X14377117Y-47165537D01*
X14232228Y-47225552D01*
X14078414Y-47256148D01*
X13921586Y-47256148D01*
X13767772Y-47225552D01*
X13622883Y-47165537D01*
X13492485Y-47078408D01*
X13381592Y-46967515D01*
X13294463Y-46837117D01*
X13234448Y-46692228D01*
X13203852Y-46538414D01*
X13203852Y-46381586D01*
X13234448Y-46227772D01*
X13294463Y-46082883D01*
X13381592Y-45952485D01*
X13492485Y-45841592D01*
X13622883Y-45754463D01*
X13767772Y-45694448D01*
X13921586Y-45663852D01*
X14078414Y-45663852D01*
X14232228Y-45694448D01*
G37*
G36*
X25232228Y-45694448D02*
G01*
X25377117Y-45754463D01*
X25507515Y-45841592D01*
X25618408Y-45952485D01*
X25705537Y-46082883D01*
X25765552Y-46227772D01*
X25796148Y-46381586D01*
X25796148Y-46538414D01*
X25765552Y-46692228D01*
X25705537Y-46837117D01*
X25618408Y-46967515D01*
X25507515Y-47078408D01*
X25377117Y-47165537D01*
X25232228Y-47225552D01*
X25078414Y-47256148D01*
X24921586Y-47256148D01*
X24767772Y-47225552D01*
X24622883Y-47165537D01*
X24492485Y-47078408D01*
X24381592Y-46967515D01*
X24294463Y-46837117D01*
X24234448Y-46692228D01*
X24203852Y-46538414D01*
X24203852Y-46381586D01*
X24234448Y-46227772D01*
X24294463Y-46082883D01*
X24381592Y-45952485D01*
X24492485Y-45841592D01*
X24622883Y-45754463D01*
X24767772Y-45694448D01*
X24921586Y-45663852D01*
X25078414Y-45663852D01*
X25232228Y-45694448D01*
G37*
G36*
X36232228Y-45694448D02*
G01*
X36377117Y-45754463D01*
X36507515Y-45841592D01*
X36618408Y-45952485D01*
X36705537Y-46082883D01*
X36765552Y-46227772D01*
X36796148Y-46381586D01*
X36796148Y-46538414D01*
X36765552Y-46692228D01*
X36705537Y-46837117D01*
X36618408Y-46967515D01*
X36507515Y-47078408D01*
X36377117Y-47165537D01*
X36232228Y-47225552D01*
X36078414Y-47256148D01*
X35921586Y-47256148D01*
X35767772Y-47225552D01*
X35622883Y-47165537D01*
X35492485Y-47078408D01*
X35381592Y-46967515D01*
X35294463Y-46837117D01*
X35234448Y-46692228D01*
X35203852Y-46538414D01*
X35203852Y-46381586D01*
X35234448Y-46227772D01*
X35294463Y-46082883D01*
X35381592Y-45952485D01*
X35492485Y-45841592D01*
X35622883Y-45754463D01*
X35767772Y-45694448D01*
X35921586Y-45663852D01*
X36078414Y-45663852D01*
X36232228Y-45694448D01*
G37*
G36*
X47232228Y-45694448D02*
G01*
X47377117Y-45754463D01*
X47507515Y-45841592D01*
X47618408Y-45952485D01*
X47705537Y-46082883D01*
X47765552Y-46227772D01*
X47796148Y-46381586D01*
X47796148Y-46538414D01*
X47765552Y-46692228D01*
X47705537Y-46837117D01*
X47618408Y-46967515D01*
X47507515Y-47078408D01*
X47377117Y-47165537D01*
X47232228Y-47225552D01*
X47078414Y-47256148D01*
X46921586Y-47256148D01*
X46767772Y-47225552D01*
X46622883Y-47165537D01*
X46492485Y-47078408D01*
X46381592Y-46967515D01*
X46294463Y-46837117D01*
X46234448Y-46692228D01*
X46203852Y-46538414D01*
X46203852Y-46381586D01*
X46234448Y-46227772D01*
X46294463Y-46082883D01*
X46381592Y-45952485D01*
X46492485Y-45841592D01*
X46622883Y-45754463D01*
X46767772Y-45694448D01*
X46921586Y-45663852D01*
X47078414Y-45663852D01*
X47232228Y-45694448D01*
G37*
G36*
X58232228Y-45694448D02*
G01*
X58377117Y-45754463D01*
X58507515Y-45841592D01*
X58618408Y-45952485D01*
X58705537Y-46082883D01*
X58765552Y-46227772D01*
X58796148Y-46381586D01*
X58796148Y-46538414D01*
X58765552Y-46692228D01*
X58705537Y-46837117D01*
X58618408Y-46967515D01*
X58507515Y-47078408D01*
X58377117Y-47165537D01*
X58232228Y-47225552D01*
X58078414Y-47256148D01*
X57921586Y-47256148D01*
X57767772Y-47225552D01*
X57622883Y-47165537D01*
X57492485Y-47078408D01*
X57381592Y-46967515D01*
X57294463Y-46837117D01*
X57234448Y-46692228D01*
X57203852Y-46538414D01*
X57203852Y-46381586D01*
X57234448Y-46227772D01*
X57294463Y-46082883D01*
X57381592Y-45952485D01*
X57492485Y-45841592D01*
X57622883Y-45754463D01*
X57767772Y-45694448D01*
X57921586Y-45663852D01*
X58078414Y-45663852D01*
X58232228Y-45694448D01*
G37*
G36*
X69232228Y-45694448D02*
G01*
X69377117Y-45754463D01*
X69507515Y-45841592D01*
X69618408Y-45952485D01*
X69705537Y-46082883D01*
X69765552Y-46227772D01*
X69796148Y-46381586D01*
X69796148Y-46538414D01*
X69765552Y-46692228D01*
X69705537Y-46837117D01*
X69618408Y-46967515D01*
X69507515Y-47078408D01*
X69377117Y-47165537D01*
X69232228Y-47225552D01*
X69078414Y-47256148D01*
X68921586Y-47256148D01*
X68767772Y-47225552D01*
X68622883Y-47165537D01*
X68492485Y-47078408D01*
X68381592Y-46967515D01*
X68294463Y-46837117D01*
X68234448Y-46692228D01*
X68203852Y-46538414D01*
X68203852Y-46381586D01*
X68234448Y-46227772D01*
X68294463Y-46082883D01*
X68381592Y-45952485D01*
X68492485Y-45841592D01*
X68622883Y-45754463D01*
X68767772Y-45694448D01*
X68921586Y-45663852D01*
X69078414Y-45663852D01*
X69232228Y-45694448D01*
G37*
G36*
X80232228Y-45694448D02*
G01*
X80377117Y-45754463D01*
X80507515Y-45841592D01*
X80618408Y-45952485D01*
X80705537Y-46082883D01*
X80765552Y-46227772D01*
X80796148Y-46381586D01*
X80796148Y-46538414D01*
X80765552Y-46692228D01*
X80705537Y-46837117D01*
X80618408Y-46967515D01*
X80507515Y-47078408D01*
X80377117Y-47165537D01*
X80232228Y-47225552D01*
X80078414Y-47256148D01*
X79921586Y-47256148D01*
X79767772Y-47225552D01*
X79622883Y-47165537D01*
X79492485Y-47078408D01*
X79381592Y-46967515D01*
X79294463Y-46837117D01*
X79234448Y-46692228D01*
X79203852Y-46538414D01*
X79203852Y-46381586D01*
X79234448Y-46227772D01*
X79294463Y-46082883D01*
X79381592Y-45952485D01*
X79492485Y-45841592D01*
X79622883Y-45754463D01*
X79767772Y-45694448D01*
X79921586Y-45663852D01*
X80078414Y-45663852D01*
X80232228Y-45694448D01*
G37*
G36*
X91232228Y-45694448D02*
G01*
X91377117Y-45754463D01*
X91507515Y-45841592D01*
X91618408Y-45952485D01*
X91705537Y-46082883D01*
X91765552Y-46227772D01*
X91796148Y-46381586D01*
X91796148Y-46538414D01*
X91765552Y-46692228D01*
X91705537Y-46837117D01*
X91618408Y-46967515D01*
X91507515Y-47078408D01*
X91377117Y-47165537D01*
X91232228Y-47225552D01*
X91078414Y-47256148D01*
X90921586Y-47256148D01*
X90767772Y-47225552D01*
X90622883Y-47165537D01*
X90492485Y-47078408D01*
X90381592Y-46967515D01*
X90294463Y-46837117D01*
X90234448Y-46692228D01*
X90203852Y-46538414D01*
X90203852Y-46381586D01*
X90234448Y-46227772D01*
X90294463Y-46082883D01*
X90381592Y-45952485D01*
X90492485Y-45841592D01*
X90622883Y-45754463D01*
X90767772Y-45694448D01*
X90921586Y-45663852D01*
X91078414Y-45663852D01*
X91232228Y-45694448D01*
G37*
G36*
X102232228Y-45694448D02*
G01*
X102377117Y-45754463D01*
X102507515Y-45841592D01*
X102618408Y-45952485D01*
X102705537Y-46082883D01*
X102765552Y-46227772D01*
X102796148Y-46381586D01*
X102796148Y-46538414D01*
X102765552Y-46692228D01*
X102705537Y-46837117D01*
X102618408Y-46967515D01*
X102507515Y-47078408D01*
X102377117Y-47165537D01*
X102232228Y-47225552D01*
X102078414Y-47256148D01*
X101921586Y-47256148D01*
X101767772Y-47225552D01*
X101622883Y-47165537D01*
X101492485Y-47078408D01*
X101381592Y-46967515D01*
X101294463Y-46837117D01*
X101234448Y-46692228D01*
X101203852Y-46538414D01*
X101203852Y-46381586D01*
X101234448Y-46227772D01*
X101294463Y-46082883D01*
X101381592Y-45952485D01*
X101492485Y-45841592D01*
X101622883Y-45754463D01*
X101767772Y-45694448D01*
X101921586Y-45663852D01*
X102078414Y-45663852D01*
X102232228Y-45694448D01*
G37*
G36*
X10732228Y-43154448D02*
G01*
X10877117Y-43214463D01*
X11007515Y-43301592D01*
X11118408Y-43412485D01*
X11205537Y-43542883D01*
X11265552Y-43687772D01*
X11296148Y-43841586D01*
X11296148Y-43998414D01*
X11265552Y-44152228D01*
X11205537Y-44297117D01*
X11118408Y-44427515D01*
X11007515Y-44538408D01*
X10877117Y-44625537D01*
X10732228Y-44685552D01*
X10578414Y-44716148D01*
X10421586Y-44716148D01*
X10267772Y-44685552D01*
X10122883Y-44625537D01*
X9992485Y-44538408D01*
X9881592Y-44427515D01*
X9794463Y-44297117D01*
X9734448Y-44152228D01*
X9703852Y-43998414D01*
X9703852Y-43841586D01*
X9734448Y-43687772D01*
X9794463Y-43542883D01*
X9881592Y-43412485D01*
X9992485Y-43301592D01*
X10122883Y-43214463D01*
X10267772Y-43154448D01*
X10421586Y-43123852D01*
X10578414Y-43123852D01*
X10732228Y-43154448D01*
G37*
G36*
X17732228Y-43154448D02*
G01*
X17877117Y-43214463D01*
X18007515Y-43301592D01*
X18118408Y-43412485D01*
X18205537Y-43542883D01*
X18265552Y-43687772D01*
X18296148Y-43841586D01*
X18296148Y-43998414D01*
X18265552Y-44152228D01*
X18205537Y-44297117D01*
X18118408Y-44427515D01*
X18007515Y-44538408D01*
X17877117Y-44625537D01*
X17732228Y-44685552D01*
X17578414Y-44716148D01*
X17421586Y-44716148D01*
X17267772Y-44685552D01*
X17122883Y-44625537D01*
X16992485Y-44538408D01*
X16881592Y-44427515D01*
X16794463Y-44297117D01*
X16734448Y-44152228D01*
X16703852Y-43998414D01*
X16703852Y-43841586D01*
X16734448Y-43687772D01*
X16794463Y-43542883D01*
X16881592Y-43412485D01*
X16992485Y-43301592D01*
X17122883Y-43214463D01*
X17267772Y-43154448D01*
X17421586Y-43123852D01*
X17578414Y-43123852D01*
X17732228Y-43154448D01*
G37*
G36*
X21732228Y-43154448D02*
G01*
X21877117Y-43214463D01*
X22007515Y-43301592D01*
X22118408Y-43412485D01*
X22205537Y-43542883D01*
X22265552Y-43687772D01*
X22296148Y-43841586D01*
X22296148Y-43998414D01*
X22265552Y-44152228D01*
X22205537Y-44297117D01*
X22118408Y-44427515D01*
X22007515Y-44538408D01*
X21877117Y-44625537D01*
X21732228Y-44685552D01*
X21578414Y-44716148D01*
X21421586Y-44716148D01*
X21267772Y-44685552D01*
X21122883Y-44625537D01*
X20992485Y-44538408D01*
X20881592Y-44427515D01*
X20794463Y-44297117D01*
X20734448Y-44152228D01*
X20703852Y-43998414D01*
X20703852Y-43841586D01*
X20734448Y-43687772D01*
X20794463Y-43542883D01*
X20881592Y-43412485D01*
X20992485Y-43301592D01*
X21122883Y-43214463D01*
X21267772Y-43154448D01*
X21421586Y-43123852D01*
X21578414Y-43123852D01*
X21732228Y-43154448D01*
G37*
G36*
X28732228Y-43154448D02*
G01*
X28877117Y-43214463D01*
X29007515Y-43301592D01*
X29118408Y-43412485D01*
X29205537Y-43542883D01*
X29265552Y-43687772D01*
X29296148Y-43841586D01*
X29296148Y-43998414D01*
X29265552Y-44152228D01*
X29205537Y-44297117D01*
X29118408Y-44427515D01*
X29007515Y-44538408D01*
X28877117Y-44625537D01*
X28732228Y-44685552D01*
X28578414Y-44716148D01*
X28421586Y-44716148D01*
X28267772Y-44685552D01*
X28122883Y-44625537D01*
X27992485Y-44538408D01*
X27881592Y-44427515D01*
X27794463Y-44297117D01*
X27734448Y-44152228D01*
X27703852Y-43998414D01*
X27703852Y-43841586D01*
X27734448Y-43687772D01*
X27794463Y-43542883D01*
X27881592Y-43412485D01*
X27992485Y-43301592D01*
X28122883Y-43214463D01*
X28267772Y-43154448D01*
X28421586Y-43123852D01*
X28578414Y-43123852D01*
X28732228Y-43154448D01*
G37*
G36*
X32732228Y-43154448D02*
G01*
X32877117Y-43214463D01*
X33007515Y-43301592D01*
X33118408Y-43412485D01*
X33205537Y-43542883D01*
X33265552Y-43687772D01*
X33296148Y-43841586D01*
X33296148Y-43998414D01*
X33265552Y-44152228D01*
X33205537Y-44297117D01*
X33118408Y-44427515D01*
X33007515Y-44538408D01*
X32877117Y-44625537D01*
X32732228Y-44685552D01*
X32578414Y-44716148D01*
X32421586Y-44716148D01*
X32267772Y-44685552D01*
X32122883Y-44625537D01*
X31992485Y-44538408D01*
X31881592Y-44427515D01*
X31794463Y-44297117D01*
X31734448Y-44152228D01*
X31703852Y-43998414D01*
X31703852Y-43841586D01*
X31734448Y-43687772D01*
X31794463Y-43542883D01*
X31881592Y-43412485D01*
X31992485Y-43301592D01*
X32122883Y-43214463D01*
X32267772Y-43154448D01*
X32421586Y-43123852D01*
X32578414Y-43123852D01*
X32732228Y-43154448D01*
G37*
G36*
X39732228Y-43154448D02*
G01*
X39877117Y-43214463D01*
X40007515Y-43301592D01*
X40118408Y-43412485D01*
X40205537Y-43542883D01*
X40265552Y-43687772D01*
X40296148Y-43841586D01*
X40296148Y-43998414D01*
X40265552Y-44152228D01*
X40205537Y-44297117D01*
X40118408Y-44427515D01*
X40007515Y-44538408D01*
X39877117Y-44625537D01*
X39732228Y-44685552D01*
X39578414Y-44716148D01*
X39421586Y-44716148D01*
X39267772Y-44685552D01*
X39122883Y-44625537D01*
X38992485Y-44538408D01*
X38881592Y-44427515D01*
X38794463Y-44297117D01*
X38734448Y-44152228D01*
X38703852Y-43998414D01*
X38703852Y-43841586D01*
X38734448Y-43687772D01*
X38794463Y-43542883D01*
X38881592Y-43412485D01*
X38992485Y-43301592D01*
X39122883Y-43214463D01*
X39267772Y-43154448D01*
X39421586Y-43123852D01*
X39578414Y-43123852D01*
X39732228Y-43154448D01*
G37*
G36*
X43732228Y-43154448D02*
G01*
X43877117Y-43214463D01*
X44007515Y-43301592D01*
X44118408Y-43412485D01*
X44205537Y-43542883D01*
X44265552Y-43687772D01*
X44296148Y-43841586D01*
X44296148Y-43998414D01*
X44265552Y-44152228D01*
X44205537Y-44297117D01*
X44118408Y-44427515D01*
X44007515Y-44538408D01*
X43877117Y-44625537D01*
X43732228Y-44685552D01*
X43578414Y-44716148D01*
X43421586Y-44716148D01*
X43267772Y-44685552D01*
X43122883Y-44625537D01*
X42992485Y-44538408D01*
X42881592Y-44427515D01*
X42794463Y-44297117D01*
X42734448Y-44152228D01*
X42703852Y-43998414D01*
X42703852Y-43841586D01*
X42734448Y-43687772D01*
X42794463Y-43542883D01*
X42881592Y-43412485D01*
X42992485Y-43301592D01*
X43122883Y-43214463D01*
X43267772Y-43154448D01*
X43421586Y-43123852D01*
X43578414Y-43123852D01*
X43732228Y-43154448D01*
G37*
G36*
X50732228Y-43154448D02*
G01*
X50877117Y-43214463D01*
X51007515Y-43301592D01*
X51118408Y-43412485D01*
X51205537Y-43542883D01*
X51265552Y-43687772D01*
X51296148Y-43841586D01*
X51296148Y-43998414D01*
X51265552Y-44152228D01*
X51205537Y-44297117D01*
X51118408Y-44427515D01*
X51007515Y-44538408D01*
X50877117Y-44625537D01*
X50732228Y-44685552D01*
X50578414Y-44716148D01*
X50421586Y-44716148D01*
X50267772Y-44685552D01*
X50122883Y-44625537D01*
X49992485Y-44538408D01*
X49881592Y-44427515D01*
X49794463Y-44297117D01*
X49734448Y-44152228D01*
X49703852Y-43998414D01*
X49703852Y-43841586D01*
X49734448Y-43687772D01*
X49794463Y-43542883D01*
X49881592Y-43412485D01*
X49992485Y-43301592D01*
X50122883Y-43214463D01*
X50267772Y-43154448D01*
X50421586Y-43123852D01*
X50578414Y-43123852D01*
X50732228Y-43154448D01*
G37*
G36*
X54732228Y-43154448D02*
G01*
X54877117Y-43214463D01*
X55007515Y-43301592D01*
X55118408Y-43412485D01*
X55205537Y-43542883D01*
X55265552Y-43687772D01*
X55296148Y-43841586D01*
X55296148Y-43998414D01*
X55265552Y-44152228D01*
X55205537Y-44297117D01*
X55118408Y-44427515D01*
X55007515Y-44538408D01*
X54877117Y-44625537D01*
X54732228Y-44685552D01*
X54578414Y-44716148D01*
X54421586Y-44716148D01*
X54267772Y-44685552D01*
X54122883Y-44625537D01*
X53992485Y-44538408D01*
X53881592Y-44427515D01*
X53794463Y-44297117D01*
X53734448Y-44152228D01*
X53703852Y-43998414D01*
X53703852Y-43841586D01*
X53734448Y-43687772D01*
X53794463Y-43542883D01*
X53881592Y-43412485D01*
X53992485Y-43301592D01*
X54122883Y-43214463D01*
X54267772Y-43154448D01*
X54421586Y-43123852D01*
X54578414Y-43123852D01*
X54732228Y-43154448D01*
G37*
G36*
X61732228Y-43154448D02*
G01*
X61877117Y-43214463D01*
X62007515Y-43301592D01*
X62118408Y-43412485D01*
X62205537Y-43542883D01*
X62265552Y-43687772D01*
X62296148Y-43841586D01*
X62296148Y-43998414D01*
X62265552Y-44152228D01*
X62205537Y-44297117D01*
X62118408Y-44427515D01*
X62007515Y-44538408D01*
X61877117Y-44625537D01*
X61732228Y-44685552D01*
X61578414Y-44716148D01*
X61421586Y-44716148D01*
X61267772Y-44685552D01*
X61122883Y-44625537D01*
X60992485Y-44538408D01*
X60881592Y-44427515D01*
X60794463Y-44297117D01*
X60734448Y-44152228D01*
X60703852Y-43998414D01*
X60703852Y-43841586D01*
X60734448Y-43687772D01*
X60794463Y-43542883D01*
X60881592Y-43412485D01*
X60992485Y-43301592D01*
X61122883Y-43214463D01*
X61267772Y-43154448D01*
X61421586Y-43123852D01*
X61578414Y-43123852D01*
X61732228Y-43154448D01*
G37*
G36*
X65732228Y-43154448D02*
G01*
X65877117Y-43214463D01*
X66007515Y-43301592D01*
X66118408Y-43412485D01*
X66205537Y-43542883D01*
X66265552Y-43687772D01*
X66296148Y-43841586D01*
X66296148Y-43998414D01*
X66265552Y-44152228D01*
X66205537Y-44297117D01*
X66118408Y-44427515D01*
X66007515Y-44538408D01*
X65877117Y-44625537D01*
X65732228Y-44685552D01*
X65578414Y-44716148D01*
X65421586Y-44716148D01*
X65267772Y-44685552D01*
X65122883Y-44625537D01*
X64992485Y-44538408D01*
X64881592Y-44427515D01*
X64794463Y-44297117D01*
X64734448Y-44152228D01*
X64703852Y-43998414D01*
X64703852Y-43841586D01*
X64734448Y-43687772D01*
X64794463Y-43542883D01*
X64881592Y-43412485D01*
X64992485Y-43301592D01*
X65122883Y-43214463D01*
X65267772Y-43154448D01*
X65421586Y-43123852D01*
X65578414Y-43123852D01*
X65732228Y-43154448D01*
G37*
G36*
X72732228Y-43154448D02*
G01*
X72877117Y-43214463D01*
X73007515Y-43301592D01*
X73118408Y-43412485D01*
X73205537Y-43542883D01*
X73265552Y-43687772D01*
X73296148Y-43841586D01*
X73296148Y-43998414D01*
X73265552Y-44152228D01*
X73205537Y-44297117D01*
X73118408Y-44427515D01*
X73007515Y-44538408D01*
X72877117Y-44625537D01*
X72732228Y-44685552D01*
X72578414Y-44716148D01*
X72421586Y-44716148D01*
X72267772Y-44685552D01*
X72122883Y-44625537D01*
X71992485Y-44538408D01*
X71881592Y-44427515D01*
X71794463Y-44297117D01*
X71734448Y-44152228D01*
X71703852Y-43998414D01*
X71703852Y-43841586D01*
X71734448Y-43687772D01*
X71794463Y-43542883D01*
X71881592Y-43412485D01*
X71992485Y-43301592D01*
X72122883Y-43214463D01*
X72267772Y-43154448D01*
X72421586Y-43123852D01*
X72578414Y-43123852D01*
X72732228Y-43154448D01*
G37*
G36*
X76732228Y-43154448D02*
G01*
X76877117Y-43214463D01*
X77007515Y-43301592D01*
X77118408Y-43412485D01*
X77205537Y-43542883D01*
X77265552Y-43687772D01*
X77296148Y-43841586D01*
X77296148Y-43998414D01*
X77265552Y-44152228D01*
X77205537Y-44297117D01*
X77118408Y-44427515D01*
X77007515Y-44538408D01*
X76877117Y-44625537D01*
X76732228Y-44685552D01*
X76578414Y-44716148D01*
X76421586Y-44716148D01*
X76267772Y-44685552D01*
X76122883Y-44625537D01*
X75992485Y-44538408D01*
X75881592Y-44427515D01*
X75794463Y-44297117D01*
X75734448Y-44152228D01*
X75703852Y-43998414D01*
X75703852Y-43841586D01*
X75734448Y-43687772D01*
X75794463Y-43542883D01*
X75881592Y-43412485D01*
X75992485Y-43301592D01*
X76122883Y-43214463D01*
X76267772Y-43154448D01*
X76421586Y-43123852D01*
X76578414Y-43123852D01*
X76732228Y-43154448D01*
G37*
G36*
X83732228Y-43154448D02*
G01*
X83877117Y-43214463D01*
X84007515Y-43301592D01*
X84118408Y-43412485D01*
X84205537Y-43542883D01*
X84265552Y-43687772D01*
X84296148Y-43841586D01*
X84296148Y-43998414D01*
X84265552Y-44152228D01*
X84205537Y-44297117D01*
X84118408Y-44427515D01*
X84007515Y-44538408D01*
X83877117Y-44625537D01*
X83732228Y-44685552D01*
X83578414Y-44716148D01*
X83421586Y-44716148D01*
X83267772Y-44685552D01*
X83122883Y-44625537D01*
X82992485Y-44538408D01*
X82881592Y-44427515D01*
X82794463Y-44297117D01*
X82734448Y-44152228D01*
X82703852Y-43998414D01*
X82703852Y-43841586D01*
X82734448Y-43687772D01*
X82794463Y-43542883D01*
X82881592Y-43412485D01*
X82992485Y-43301592D01*
X83122883Y-43214463D01*
X83267772Y-43154448D01*
X83421586Y-43123852D01*
X83578414Y-43123852D01*
X83732228Y-43154448D01*
G37*
G36*
X87732228Y-43154448D02*
G01*
X87877117Y-43214463D01*
X88007515Y-43301592D01*
X88118408Y-43412485D01*
X88205537Y-43542883D01*
X88265552Y-43687772D01*
X88296148Y-43841586D01*
X88296148Y-43998414D01*
X88265552Y-44152228D01*
X88205537Y-44297117D01*
X88118408Y-44427515D01*
X88007515Y-44538408D01*
X87877117Y-44625537D01*
X87732228Y-44685552D01*
X87578414Y-44716148D01*
X87421586Y-44716148D01*
X87267772Y-44685552D01*
X87122883Y-44625537D01*
X86992485Y-44538408D01*
X86881592Y-44427515D01*
X86794463Y-44297117D01*
X86734448Y-44152228D01*
X86703852Y-43998414D01*
X86703852Y-43841586D01*
X86734448Y-43687772D01*
X86794463Y-43542883D01*
X86881592Y-43412485D01*
X86992485Y-43301592D01*
X87122883Y-43214463D01*
X87267772Y-43154448D01*
X87421586Y-43123852D01*
X87578414Y-43123852D01*
X87732228Y-43154448D01*
G37*
G36*
X94732228Y-43154448D02*
G01*
X94877117Y-43214463D01*
X95007515Y-43301592D01*
X95118408Y-43412485D01*
X95205537Y-43542883D01*
X95265552Y-43687772D01*
X95296148Y-43841586D01*
X95296148Y-43998414D01*
X95265552Y-44152228D01*
X95205537Y-44297117D01*
X95118408Y-44427515D01*
X95007515Y-44538408D01*
X94877117Y-44625537D01*
X94732228Y-44685552D01*
X94578414Y-44716148D01*
X94421586Y-44716148D01*
X94267772Y-44685552D01*
X94122883Y-44625537D01*
X93992485Y-44538408D01*
X93881592Y-44427515D01*
X93794463Y-44297117D01*
X93734448Y-44152228D01*
X93703852Y-43998414D01*
X93703852Y-43841586D01*
X93734448Y-43687772D01*
X93794463Y-43542883D01*
X93881592Y-43412485D01*
X93992485Y-43301592D01*
X94122883Y-43214463D01*
X94267772Y-43154448D01*
X94421586Y-43123852D01*
X94578414Y-43123852D01*
X94732228Y-43154448D01*
G37*
G36*
X98732228Y-43154448D02*
G01*
X98877117Y-43214463D01*
X99007515Y-43301592D01*
X99118408Y-43412485D01*
X99205537Y-43542883D01*
X99265552Y-43687772D01*
X99296148Y-43841586D01*
X99296148Y-43998414D01*
X99265552Y-44152228D01*
X99205537Y-44297117D01*
X99118408Y-44427515D01*
X99007515Y-44538408D01*
X98877117Y-44625537D01*
X98732228Y-44685552D01*
X98578414Y-44716148D01*
X98421586Y-44716148D01*
X98267772Y-44685552D01*
X98122883Y-44625537D01*
X97992485Y-44538408D01*
X97881592Y-44427515D01*
X97794463Y-44297117D01*
X97734448Y-44152228D01*
X97703852Y-43998414D01*
X97703852Y-43841586D01*
X97734448Y-43687772D01*
X97794463Y-43542883D01*
X97881592Y-43412485D01*
X97992485Y-43301592D01*
X98122883Y-43214463D01*
X98267772Y-43154448D01*
X98421586Y-43123852D01*
X98578414Y-43123852D01*
X98732228Y-43154448D01*
G37*
G36*
X105732228Y-43154448D02*
G01*
X105877117Y-43214463D01*
X106007515Y-43301592D01*
X106118408Y-43412485D01*
X106205537Y-43542883D01*
X106265552Y-43687772D01*
X106296148Y-43841586D01*
X106296148Y-43998414D01*
X106265552Y-44152228D01*
X106205537Y-44297117D01*
X106118408Y-44427515D01*
X106007515Y-44538408D01*
X105877117Y-44625537D01*
X105732228Y-44685552D01*
X105578414Y-44716148D01*
X105421586Y-44716148D01*
X105267772Y-44685552D01*
X105122883Y-44625537D01*
X104992485Y-44538408D01*
X104881592Y-44427515D01*
X104794463Y-44297117D01*
X104734448Y-44152228D01*
X104703852Y-43998414D01*
X104703852Y-43841586D01*
X104734448Y-43687772D01*
X104794463Y-43542883D01*
X104881592Y-43412485D01*
X104992485Y-43301592D01*
X105122883Y-43214463D01*
X105267772Y-43154448D01*
X105421586Y-43123852D01*
X105578414Y-43123852D01*
X105732228Y-43154448D01*
G37*
G36*
X16170000Y-40900000D02*
G01*
X14370000Y-40900000D01*
X14370000Y-39100000D01*
X16170000Y-39100000D01*
X16170000Y-40900000D01*
G37*
G36*
X27170000Y-40900000D02*
G01*
X25370000Y-40900000D01*
X25370000Y-39100000D01*
X27170000Y-39100000D01*
X27170000Y-40900000D01*
G37*
G36*
X38170000Y-40900000D02*
G01*
X36370000Y-40900000D01*
X36370000Y-39100000D01*
X38170000Y-39100000D01*
X38170000Y-40900000D01*
G37*
G36*
X49170000Y-40900000D02*
G01*
X47370000Y-40900000D01*
X47370000Y-39100000D01*
X49170000Y-39100000D01*
X49170000Y-40900000D01*
G37*
G36*
X60170000Y-40900000D02*
G01*
X58370000Y-40900000D01*
X58370000Y-39100000D01*
X60170000Y-39100000D01*
X60170000Y-40900000D01*
G37*
G36*
X71170000Y-40900000D02*
G01*
X69370000Y-40900000D01*
X69370000Y-39100000D01*
X71170000Y-39100000D01*
X71170000Y-40900000D01*
G37*
G36*
X82170000Y-40900000D02*
G01*
X80370000Y-40900000D01*
X80370000Y-39100000D01*
X82170000Y-39100000D01*
X82170000Y-40900000D01*
G37*
G36*
X93170000Y-40900000D02*
G01*
X91370000Y-40900000D01*
X91370000Y-39100000D01*
X93170000Y-39100000D01*
X93170000Y-40900000D01*
G37*
G36*
X104170000Y-40900000D02*
G01*
X102370000Y-40900000D01*
X102370000Y-39100000D01*
X104170000Y-39100000D01*
X104170000Y-40900000D01*
G37*
G36*
X12991256Y-39138754D02*
G01*
X13154257Y-39206271D01*
X13300954Y-39304291D01*
X13425709Y-39429046D01*
X13523729Y-39575743D01*
X13591246Y-39738744D01*
X13625666Y-39911785D01*
X13625666Y-40088215D01*
X13591246Y-40261256D01*
X13523729Y-40424257D01*
X13425709Y-40570954D01*
X13300954Y-40695709D01*
X13154257Y-40793729D01*
X12991256Y-40861246D01*
X12818215Y-40895666D01*
X12641785Y-40895666D01*
X12468744Y-40861246D01*
X12305743Y-40793729D01*
X12159046Y-40695709D01*
X12034291Y-40570954D01*
X11936271Y-40424257D01*
X11868754Y-40261256D01*
X11834334Y-40088215D01*
X11834334Y-39911785D01*
X11868754Y-39738744D01*
X11936271Y-39575743D01*
X12034291Y-39429046D01*
X12159046Y-39304291D01*
X12305743Y-39206271D01*
X12468744Y-39138754D01*
X12641785Y-39104334D01*
X12818215Y-39104334D01*
X12991256Y-39138754D01*
G37*
G36*
X23991256Y-39138754D02*
G01*
X24154257Y-39206271D01*
X24300954Y-39304291D01*
X24425709Y-39429046D01*
X24523729Y-39575743D01*
X24591246Y-39738744D01*
X24625666Y-39911785D01*
X24625666Y-40088215D01*
X24591246Y-40261256D01*
X24523729Y-40424257D01*
X24425709Y-40570954D01*
X24300954Y-40695709D01*
X24154257Y-40793729D01*
X23991256Y-40861246D01*
X23818215Y-40895666D01*
X23641785Y-40895666D01*
X23468744Y-40861246D01*
X23305743Y-40793729D01*
X23159046Y-40695709D01*
X23034291Y-40570954D01*
X22936271Y-40424257D01*
X22868754Y-40261256D01*
X22834334Y-40088215D01*
X22834334Y-39911785D01*
X22868754Y-39738744D01*
X22936271Y-39575743D01*
X23034291Y-39429046D01*
X23159046Y-39304291D01*
X23305743Y-39206271D01*
X23468744Y-39138754D01*
X23641785Y-39104334D01*
X23818215Y-39104334D01*
X23991256Y-39138754D01*
G37*
G36*
X34991256Y-39138754D02*
G01*
X35154257Y-39206271D01*
X35300954Y-39304291D01*
X35425709Y-39429046D01*
X35523729Y-39575743D01*
X35591246Y-39738744D01*
X35625666Y-39911785D01*
X35625666Y-40088215D01*
X35591246Y-40261256D01*
X35523729Y-40424257D01*
X35425709Y-40570954D01*
X35300954Y-40695709D01*
X35154257Y-40793729D01*
X34991256Y-40861246D01*
X34818215Y-40895666D01*
X34641785Y-40895666D01*
X34468744Y-40861246D01*
X34305743Y-40793729D01*
X34159046Y-40695709D01*
X34034291Y-40570954D01*
X33936271Y-40424257D01*
X33868754Y-40261256D01*
X33834334Y-40088215D01*
X33834334Y-39911785D01*
X33868754Y-39738744D01*
X33936271Y-39575743D01*
X34034291Y-39429046D01*
X34159046Y-39304291D01*
X34305743Y-39206271D01*
X34468744Y-39138754D01*
X34641785Y-39104334D01*
X34818215Y-39104334D01*
X34991256Y-39138754D01*
G37*
G36*
X45991256Y-39138754D02*
G01*
X46154257Y-39206271D01*
X46300954Y-39304291D01*
X46425709Y-39429046D01*
X46523729Y-39575743D01*
X46591246Y-39738744D01*
X46625666Y-39911785D01*
X46625666Y-40088215D01*
X46591246Y-40261256D01*
X46523729Y-40424257D01*
X46425709Y-40570954D01*
X46300954Y-40695709D01*
X46154257Y-40793729D01*
X45991256Y-40861246D01*
X45818215Y-40895666D01*
X45641785Y-40895666D01*
X45468744Y-40861246D01*
X45305743Y-40793729D01*
X45159046Y-40695709D01*
X45034291Y-40570954D01*
X44936271Y-40424257D01*
X44868754Y-40261256D01*
X44834334Y-40088215D01*
X44834334Y-39911785D01*
X44868754Y-39738744D01*
X44936271Y-39575743D01*
X45034291Y-39429046D01*
X45159046Y-39304291D01*
X45305743Y-39206271D01*
X45468744Y-39138754D01*
X45641785Y-39104334D01*
X45818215Y-39104334D01*
X45991256Y-39138754D01*
G37*
G36*
X56991256Y-39138754D02*
G01*
X57154257Y-39206271D01*
X57300954Y-39304291D01*
X57425709Y-39429046D01*
X57523729Y-39575743D01*
X57591246Y-39738744D01*
X57625666Y-39911785D01*
X57625666Y-40088215D01*
X57591246Y-40261256D01*
X57523729Y-40424257D01*
X57425709Y-40570954D01*
X57300954Y-40695709D01*
X57154257Y-40793729D01*
X56991256Y-40861246D01*
X56818215Y-40895666D01*
X56641785Y-40895666D01*
X56468744Y-40861246D01*
X56305743Y-40793729D01*
X56159046Y-40695709D01*
X56034291Y-40570954D01*
X55936271Y-40424257D01*
X55868754Y-40261256D01*
X55834334Y-40088215D01*
X55834334Y-39911785D01*
X55868754Y-39738744D01*
X55936271Y-39575743D01*
X56034291Y-39429046D01*
X56159046Y-39304291D01*
X56305743Y-39206271D01*
X56468744Y-39138754D01*
X56641785Y-39104334D01*
X56818215Y-39104334D01*
X56991256Y-39138754D01*
G37*
G36*
X67991256Y-39138754D02*
G01*
X68154257Y-39206271D01*
X68300954Y-39304291D01*
X68425709Y-39429046D01*
X68523729Y-39575743D01*
X68591246Y-39738744D01*
X68625666Y-39911785D01*
X68625666Y-40088215D01*
X68591246Y-40261256D01*
X68523729Y-40424257D01*
X68425709Y-40570954D01*
X68300954Y-40695709D01*
X68154257Y-40793729D01*
X67991256Y-40861246D01*
X67818215Y-40895666D01*
X67641785Y-40895666D01*
X67468744Y-40861246D01*
X67305743Y-40793729D01*
X67159046Y-40695709D01*
X67034291Y-40570954D01*
X66936271Y-40424257D01*
X66868754Y-40261256D01*
X66834334Y-40088215D01*
X66834334Y-39911785D01*
X66868754Y-39738744D01*
X66936271Y-39575743D01*
X67034291Y-39429046D01*
X67159046Y-39304291D01*
X67305743Y-39206271D01*
X67468744Y-39138754D01*
X67641785Y-39104334D01*
X67818215Y-39104334D01*
X67991256Y-39138754D01*
G37*
G36*
X78991256Y-39138754D02*
G01*
X79154257Y-39206271D01*
X79300954Y-39304291D01*
X79425709Y-39429046D01*
X79523729Y-39575743D01*
X79591246Y-39738744D01*
X79625666Y-39911785D01*
X79625666Y-40088215D01*
X79591246Y-40261256D01*
X79523729Y-40424257D01*
X79425709Y-40570954D01*
X79300954Y-40695709D01*
X79154257Y-40793729D01*
X78991256Y-40861246D01*
X78818215Y-40895666D01*
X78641785Y-40895666D01*
X78468744Y-40861246D01*
X78305743Y-40793729D01*
X78159046Y-40695709D01*
X78034291Y-40570954D01*
X77936271Y-40424257D01*
X77868754Y-40261256D01*
X77834334Y-40088215D01*
X77834334Y-39911785D01*
X77868754Y-39738744D01*
X77936271Y-39575743D01*
X78034291Y-39429046D01*
X78159046Y-39304291D01*
X78305743Y-39206271D01*
X78468744Y-39138754D01*
X78641785Y-39104334D01*
X78818215Y-39104334D01*
X78991256Y-39138754D01*
G37*
G36*
X89991256Y-39138754D02*
G01*
X90154257Y-39206271D01*
X90300954Y-39304291D01*
X90425709Y-39429046D01*
X90523729Y-39575743D01*
X90591246Y-39738744D01*
X90625666Y-39911785D01*
X90625666Y-40088215D01*
X90591246Y-40261256D01*
X90523729Y-40424257D01*
X90425709Y-40570954D01*
X90300954Y-40695709D01*
X90154257Y-40793729D01*
X89991256Y-40861246D01*
X89818215Y-40895666D01*
X89641785Y-40895666D01*
X89468744Y-40861246D01*
X89305743Y-40793729D01*
X89159046Y-40695709D01*
X89034291Y-40570954D01*
X88936271Y-40424257D01*
X88868754Y-40261256D01*
X88834334Y-40088215D01*
X88834334Y-39911785D01*
X88868754Y-39738744D01*
X88936271Y-39575743D01*
X89034291Y-39429046D01*
X89159046Y-39304291D01*
X89305743Y-39206271D01*
X89468744Y-39138754D01*
X89641785Y-39104334D01*
X89818215Y-39104334D01*
X89991256Y-39138754D01*
G37*
G36*
X100991256Y-39138754D02*
G01*
X101154257Y-39206271D01*
X101300954Y-39304291D01*
X101425709Y-39429046D01*
X101523729Y-39575743D01*
X101591246Y-39738744D01*
X101625666Y-39911785D01*
X101625666Y-40088215D01*
X101591246Y-40261256D01*
X101523729Y-40424257D01*
X101425709Y-40570954D01*
X101300954Y-40695709D01*
X101154257Y-40793729D01*
X100991256Y-40861246D01*
X100818215Y-40895666D01*
X100641785Y-40895666D01*
X100468744Y-40861246D01*
X100305743Y-40793729D01*
X100159046Y-40695709D01*
X100034291Y-40570954D01*
X99936271Y-40424257D01*
X99868754Y-40261256D01*
X99834334Y-40088215D01*
X99834334Y-39911785D01*
X99868754Y-39738744D01*
X99936271Y-39575743D01*
X100034291Y-39429046D01*
X100159046Y-39304291D01*
X100305743Y-39206271D01*
X100468744Y-39138754D01*
X100641785Y-39104334D01*
X100818215Y-39104334D01*
X100991256Y-39138754D01*
G37*
G36*
X32232228Y-30234448D02*
G01*
X32377117Y-30294463D01*
X32507515Y-30381592D01*
X32618408Y-30492485D01*
X32705537Y-30622883D01*
X32765552Y-30767772D01*
X32796148Y-30921586D01*
X32796148Y-31078414D01*
X32765552Y-31232228D01*
X32705537Y-31377117D01*
X32618408Y-31507515D01*
X32507515Y-31618408D01*
X32377117Y-31705537D01*
X32232228Y-31765552D01*
X32078414Y-31796148D01*
X31921586Y-31796148D01*
X31767772Y-31765552D01*
X31622883Y-31705537D01*
X31492485Y-31618408D01*
X31381592Y-31507515D01*
X31294463Y-31377117D01*
X31234448Y-31232228D01*
X31203852Y-31078414D01*
X31203852Y-30921586D01*
X31234448Y-30767772D01*
X31294463Y-30622883D01*
X31381592Y-30492485D01*
X31492485Y-30381592D01*
X31622883Y-30294463D01*
X31767772Y-30234448D01*
X31921586Y-30203852D01*
X32078414Y-30203852D01*
X32232228Y-30234448D01*
G37*
G36*
X42392228Y-30234448D02*
G01*
X42537117Y-30294463D01*
X42667515Y-30381592D01*
X42778408Y-30492485D01*
X42865537Y-30622883D01*
X42925552Y-30767772D01*
X42956148Y-30921586D01*
X42956148Y-31078414D01*
X42925552Y-31232228D01*
X42865537Y-31377117D01*
X42778408Y-31507515D01*
X42667515Y-31618408D01*
X42537117Y-31705537D01*
X42392228Y-31765552D01*
X42238414Y-31796148D01*
X42081586Y-31796148D01*
X41927772Y-31765552D01*
X41782883Y-31705537D01*
X41652485Y-31618408D01*
X41541592Y-31507515D01*
X41454463Y-31377117D01*
X41394448Y-31232228D01*
X41363852Y-31078414D01*
X41363852Y-30921586D01*
X41394448Y-30767772D01*
X41454463Y-30622883D01*
X41541592Y-30492485D01*
X41652485Y-30381592D01*
X41782883Y-30294463D01*
X41927772Y-30234448D01*
X42081586Y-30203852D01*
X42238414Y-30203852D01*
X42392228Y-30234448D01*
G37*
G36*
X104261256Y-26438754D02*
G01*
X104424257Y-26506271D01*
X104570954Y-26604291D01*
X104695709Y-26729046D01*
X104793729Y-26875743D01*
X104861246Y-27038744D01*
X104895666Y-27211785D01*
X104895666Y-27388215D01*
X104861246Y-27561256D01*
X104793729Y-27724257D01*
X104695709Y-27870954D01*
X104570954Y-27995709D01*
X104424257Y-28093729D01*
X104261256Y-28161246D01*
X104088215Y-28195666D01*
X103911785Y-28195666D01*
X103738744Y-28161246D01*
X103575743Y-28093729D01*
X103429046Y-27995709D01*
X103304291Y-27870954D01*
X103206271Y-27724257D01*
X103138754Y-27561256D01*
X103104334Y-27388215D01*
X103104334Y-27211785D01*
X103138754Y-27038744D01*
X103206271Y-26875743D01*
X103304291Y-26729046D01*
X103429046Y-26604291D01*
X103575743Y-26506271D01*
X103738744Y-26438754D01*
X103911785Y-26404334D01*
X104088215Y-26404334D01*
X104261256Y-26438754D01*
G37*
G36*
X23000000Y-27000000D02*
G01*
X21000000Y-27000000D01*
X21000000Y-25000000D01*
X23000000Y-25000000D01*
X23000000Y-27000000D01*
G37*
G36*
X58000000Y-27000000D02*
G01*
X56000000Y-27000000D01*
X56000000Y-25000000D01*
X58000000Y-25000000D01*
X58000000Y-27000000D01*
G37*
G36*
X62000000Y-27000000D02*
G01*
X60000000Y-27000000D01*
X60000000Y-25000000D01*
X62000000Y-25000000D01*
X62000000Y-27000000D01*
G37*
G36*
X29554047Y-25200805D02*
G01*
X29605408Y-25206764D01*
X29622954Y-25214511D01*
X29645671Y-25219030D01*
X29669991Y-25235280D01*
X29690793Y-25244465D01*
X29705000Y-25258672D01*
X29726777Y-25273223D01*
X29741327Y-25294999D01*
X29755534Y-25309206D01*
X29764718Y-25330006D01*
X29780970Y-25354329D01*
X29785489Y-25377048D01*
X29793235Y-25394591D01*
X29799192Y-25445940D01*
X29800000Y-25450000D01*
X29800000Y-26550000D01*
X29799192Y-26554059D01*
X29793235Y-26605408D01*
X29785489Y-26622950D01*
X29780970Y-26645671D01*
X29764716Y-26669995D01*
X29755534Y-26690793D01*
X29741329Y-26704997D01*
X29726777Y-26726777D01*
X29704997Y-26741329D01*
X29690793Y-26755534D01*
X29669995Y-26764716D01*
X29645671Y-26780970D01*
X29622950Y-26785489D01*
X29605408Y-26793235D01*
X29554061Y-26799192D01*
X29550000Y-26800000D01*
X28450000Y-26800000D01*
X28445941Y-26799192D01*
X28394591Y-26793235D01*
X28377048Y-26785489D01*
X28354329Y-26780970D01*
X28330006Y-26764718D01*
X28309206Y-26755534D01*
X28294999Y-26741327D01*
X28273223Y-26726777D01*
X28258672Y-26705000D01*
X28244465Y-26690793D01*
X28235280Y-26669991D01*
X28219030Y-26645671D01*
X28214511Y-26622954D01*
X28206764Y-26605408D01*
X28200805Y-26554049D01*
X28200000Y-26550000D01*
X28200000Y-25450000D01*
X28200804Y-25445953D01*
X28206764Y-25394591D01*
X28214511Y-25377043D01*
X28219030Y-25354329D01*
X28235278Y-25330010D01*
X28244465Y-25309206D01*
X28258674Y-25294996D01*
X28273223Y-25273223D01*
X28294996Y-25258674D01*
X28309206Y-25244465D01*
X28330010Y-25235278D01*
X28354329Y-25219030D01*
X28377043Y-25214511D01*
X28394591Y-25206764D01*
X28445952Y-25200805D01*
X28450000Y-25200000D01*
X29550000Y-25200000D01*
X29554047Y-25200805D01*
G37*
G36*
X47554047Y-25200805D02*
G01*
X47605408Y-25206764D01*
X47622954Y-25214511D01*
X47645671Y-25219030D01*
X47669991Y-25235280D01*
X47690793Y-25244465D01*
X47705000Y-25258672D01*
X47726777Y-25273223D01*
X47741327Y-25294999D01*
X47755534Y-25309206D01*
X47764718Y-25330006D01*
X47780970Y-25354329D01*
X47785489Y-25377048D01*
X47793235Y-25394591D01*
X47799192Y-25445940D01*
X47800000Y-25450000D01*
X47800000Y-26550000D01*
X47799192Y-26554059D01*
X47793235Y-26605408D01*
X47785489Y-26622950D01*
X47780970Y-26645671D01*
X47764716Y-26669995D01*
X47755534Y-26690793D01*
X47741329Y-26704997D01*
X47726777Y-26726777D01*
X47704997Y-26741329D01*
X47690793Y-26755534D01*
X47669995Y-26764716D01*
X47645671Y-26780970D01*
X47622950Y-26785489D01*
X47605408Y-26793235D01*
X47554061Y-26799192D01*
X47550000Y-26800000D01*
X46450000Y-26800000D01*
X46445941Y-26799192D01*
X46394591Y-26793235D01*
X46377048Y-26785489D01*
X46354329Y-26780970D01*
X46330006Y-26764718D01*
X46309206Y-26755534D01*
X46294999Y-26741327D01*
X46273223Y-26726777D01*
X46258672Y-26705000D01*
X46244465Y-26690793D01*
X46235280Y-26669991D01*
X46219030Y-26645671D01*
X46214511Y-26622954D01*
X46206764Y-26605408D01*
X46200805Y-26554049D01*
X46200000Y-26550000D01*
X46200000Y-25450000D01*
X46200804Y-25445953D01*
X46206764Y-25394591D01*
X46214511Y-25377043D01*
X46219030Y-25354329D01*
X46235278Y-25330010D01*
X46244465Y-25309206D01*
X46258674Y-25294996D01*
X46273223Y-25273223D01*
X46294996Y-25258674D01*
X46309206Y-25244465D01*
X46330010Y-25235278D01*
X46354329Y-25219030D01*
X46377043Y-25214511D01*
X46394591Y-25206764D01*
X46445952Y-25200805D01*
X46450000Y-25200000D01*
X47550000Y-25200000D01*
X47554047Y-25200805D01*
G37*
G36*
X31232228Y-25234448D02*
G01*
X31377117Y-25294463D01*
X31507515Y-25381592D01*
X31618408Y-25492485D01*
X31705537Y-25622883D01*
X31765552Y-25767772D01*
X31796148Y-25921586D01*
X31796148Y-26078414D01*
X31765552Y-26232228D01*
X31705537Y-26377117D01*
X31618408Y-26507515D01*
X31507515Y-26618408D01*
X31377117Y-26705537D01*
X31232228Y-26765552D01*
X31078414Y-26796148D01*
X30921586Y-26796148D01*
X30767772Y-26765552D01*
X30622883Y-26705537D01*
X30492485Y-26618408D01*
X30381592Y-26507515D01*
X30294463Y-26377117D01*
X30234448Y-26232228D01*
X30203852Y-26078414D01*
X30203852Y-25921586D01*
X30234448Y-25767772D01*
X30294463Y-25622883D01*
X30381592Y-25492485D01*
X30492485Y-25381592D01*
X30622883Y-25294463D01*
X30767772Y-25234448D01*
X30921586Y-25203852D01*
X31078414Y-25203852D01*
X31232228Y-25234448D01*
G37*
G36*
X49232228Y-25234448D02*
G01*
X49377117Y-25294463D01*
X49507515Y-25381592D01*
X49618408Y-25492485D01*
X49705537Y-25622883D01*
X49765552Y-25767772D01*
X49796148Y-25921586D01*
X49796148Y-26078414D01*
X49765552Y-26232228D01*
X49705537Y-26377117D01*
X49618408Y-26507515D01*
X49507515Y-26618408D01*
X49377117Y-26705537D01*
X49232228Y-26765552D01*
X49078414Y-26796148D01*
X48921586Y-26796148D01*
X48767772Y-26765552D01*
X48622883Y-26705537D01*
X48492485Y-26618408D01*
X48381592Y-26507515D01*
X48294463Y-26377117D01*
X48234448Y-26232228D01*
X48203852Y-26078414D01*
X48203852Y-25921586D01*
X48234448Y-25767772D01*
X48294463Y-25622883D01*
X48381592Y-25492485D01*
X48492485Y-25381592D01*
X48622883Y-25294463D01*
X48767772Y-25234448D01*
X48921586Y-25203852D01*
X49078414Y-25203852D01*
X49232228Y-25234448D01*
G37*
G36*
X93761256Y-24138754D02*
G01*
X93924257Y-24206271D01*
X94070954Y-24304291D01*
X94195709Y-24429046D01*
X94293729Y-24575743D01*
X94361246Y-24738744D01*
X94395666Y-24911785D01*
X94395666Y-25088215D01*
X94361246Y-25261256D01*
X94293729Y-25424257D01*
X94195709Y-25570954D01*
X94070954Y-25695709D01*
X93924257Y-25793729D01*
X93761256Y-25861246D01*
X93588215Y-25895666D01*
X93411785Y-25895666D01*
X93238744Y-25861246D01*
X93075743Y-25793729D01*
X92929046Y-25695709D01*
X92804291Y-25570954D01*
X92706271Y-25424257D01*
X92638754Y-25261256D01*
X92604334Y-25088215D01*
X92604334Y-24911785D01*
X92638754Y-24738744D01*
X92706271Y-24575743D01*
X92804291Y-24429046D01*
X92929046Y-24304291D01*
X93075743Y-24206271D01*
X93238744Y-24138754D01*
X93411785Y-24104334D01*
X93588215Y-24104334D01*
X93761256Y-24138754D01*
G37*
G36*
X98761256Y-24138754D02*
G01*
X98924257Y-24206271D01*
X99070954Y-24304291D01*
X99195709Y-24429046D01*
X99293729Y-24575743D01*
X99361246Y-24738744D01*
X99395666Y-24911785D01*
X99395666Y-25088215D01*
X99361246Y-25261256D01*
X99293729Y-25424257D01*
X99195709Y-25570954D01*
X99070954Y-25695709D01*
X98924257Y-25793729D01*
X98761256Y-25861246D01*
X98588215Y-25895666D01*
X98411785Y-25895666D01*
X98238744Y-25861246D01*
X98075743Y-25793729D01*
X97929046Y-25695709D01*
X97804291Y-25570954D01*
X97706271Y-25424257D01*
X97638754Y-25261256D01*
X97604334Y-25088215D01*
X97604334Y-24911785D01*
X97638754Y-24738744D01*
X97706271Y-24575743D01*
X97804291Y-24429046D01*
X97929046Y-24304291D01*
X98075743Y-24206271D01*
X98238744Y-24138754D01*
X98411785Y-24104334D01*
X98588215Y-24104334D01*
X98761256Y-24138754D01*
G37*
G36*
X74232228Y-23234448D02*
G01*
X74377117Y-23294463D01*
X74507515Y-23381592D01*
X74618408Y-23492485D01*
X74705537Y-23622883D01*
X74765552Y-23767772D01*
X74796148Y-23921586D01*
X74796148Y-24078414D01*
X74765552Y-24232228D01*
X74705537Y-24377117D01*
X74618408Y-24507515D01*
X74507515Y-24618408D01*
X74377117Y-24705537D01*
X74232228Y-24765552D01*
X74078414Y-24796148D01*
X73921586Y-24796148D01*
X73767772Y-24765552D01*
X73622883Y-24705537D01*
X73492485Y-24618408D01*
X73381592Y-24507515D01*
X73294463Y-24377117D01*
X73234448Y-24232228D01*
X73203852Y-24078414D01*
X73203852Y-23921586D01*
X73234448Y-23767772D01*
X73294463Y-23622883D01*
X73381592Y-23492485D01*
X73492485Y-23381592D01*
X73622883Y-23294463D01*
X73767772Y-23234448D01*
X73921586Y-23203852D01*
X74078414Y-23203852D01*
X74232228Y-23234448D01*
G37*
G36*
X84392228Y-23234448D02*
G01*
X84537117Y-23294463D01*
X84667515Y-23381592D01*
X84778408Y-23492485D01*
X84865537Y-23622883D01*
X84925552Y-23767772D01*
X84956148Y-23921586D01*
X84956148Y-24078414D01*
X84925552Y-24232228D01*
X84865537Y-24377117D01*
X84778408Y-24507515D01*
X84667515Y-24618408D01*
X84537117Y-24705537D01*
X84392228Y-24765552D01*
X84238414Y-24796148D01*
X84081586Y-24796148D01*
X83927772Y-24765552D01*
X83782883Y-24705537D01*
X83652485Y-24618408D01*
X83541592Y-24507515D01*
X83454463Y-24377117D01*
X83394448Y-24232228D01*
X83363852Y-24078414D01*
X83363852Y-23921586D01*
X83394448Y-23767772D01*
X83454463Y-23622883D01*
X83541592Y-23492485D01*
X83652485Y-23381592D01*
X83782883Y-23294463D01*
X83927772Y-23234448D01*
X84081586Y-23203852D01*
X84238414Y-23203852D01*
X84392228Y-23234448D01*
G37*
G36*
X104261256Y-21438754D02*
G01*
X104424257Y-21506271D01*
X104570954Y-21604291D01*
X104695709Y-21729046D01*
X104793729Y-21875743D01*
X104861246Y-22038744D01*
X104895666Y-22211785D01*
X104895666Y-22388215D01*
X104861246Y-22561256D01*
X104793729Y-22724257D01*
X104695709Y-22870954D01*
X104570954Y-22995709D01*
X104424257Y-23093729D01*
X104261256Y-23161246D01*
X104088215Y-23195666D01*
X103911785Y-23195666D01*
X103738744Y-23161246D01*
X103575743Y-23093729D01*
X103429046Y-22995709D01*
X103304291Y-22870954D01*
X103206271Y-22724257D01*
X103138754Y-22561256D01*
X103104334Y-22388215D01*
X103104334Y-22211785D01*
X103138754Y-22038744D01*
X103206271Y-21875743D01*
X103304291Y-21729046D01*
X103429046Y-21604291D01*
X103575743Y-21506271D01*
X103738744Y-21438754D01*
X103911785Y-21404334D01*
X104088215Y-21404334D01*
X104261256Y-21438754D01*
G37*
G36*
X38050000Y-21500000D02*
G01*
X35950000Y-21500000D01*
X35950000Y-18500000D01*
X38050000Y-18500000D01*
X38050000Y-21500000D01*
G37*
G36*
X39632885Y-18505056D02*
G01*
X39642918Y-18505056D01*
X39682117Y-18512853D01*
X39785078Y-18529160D01*
X39818200Y-18539922D01*
X39844799Y-18545213D01*
X39882335Y-18560760D01*
X39941762Y-18580070D01*
X39997433Y-18608435D01*
X40034967Y-18623983D01*
X40057517Y-18639050D01*
X40088539Y-18654857D01*
X40172866Y-18716124D01*
X40206113Y-18738339D01*
X40213208Y-18745434D01*
X40221817Y-18751689D01*
X40338310Y-18868182D01*
X40344564Y-18876790D01*
X40351661Y-18883887D01*
X40373878Y-18917138D01*
X40435142Y-19001460D01*
X40450947Y-19032479D01*
X40466017Y-19055033D01*
X40481566Y-19092572D01*
X40509929Y-19148237D01*
X40529235Y-19207657D01*
X40544787Y-19245201D01*
X40550078Y-19271805D01*
X40560839Y-19304921D01*
X40577142Y-19407862D01*
X40584944Y-19447082D01*
X40585658Y-19461633D01*
X40586763Y-19468605D01*
X40589809Y-19546120D01*
X40590000Y-19550000D01*
X40590000Y-20450000D01*
X40589809Y-20453883D01*
X40586763Y-20531394D01*
X40585658Y-20538365D01*
X40584944Y-20552918D01*
X40577142Y-20592140D01*
X40560839Y-20695078D01*
X40550079Y-20728192D01*
X40544787Y-20754799D01*
X40529234Y-20792346D01*
X40509929Y-20851762D01*
X40481568Y-20907422D01*
X40466017Y-20944967D01*
X40450945Y-20967523D01*
X40435142Y-20998539D01*
X40373887Y-21082849D01*
X40351661Y-21116113D01*
X40344561Y-21123212D01*
X40338310Y-21131817D01*
X40221817Y-21248310D01*
X40213212Y-21254561D01*
X40206113Y-21261661D01*
X40172849Y-21283887D01*
X40088539Y-21345142D01*
X40057523Y-21360945D01*
X40034967Y-21376017D01*
X39997422Y-21391568D01*
X39941762Y-21419929D01*
X39882346Y-21439234D01*
X39844799Y-21454787D01*
X39818192Y-21460079D01*
X39785078Y-21470839D01*
X39682126Y-21487144D01*
X39642918Y-21494944D01*
X39632884Y-21494944D01*
X39622372Y-21496609D01*
X39457628Y-21496609D01*
X39447115Y-21494944D01*
X39437082Y-21494944D01*
X39397874Y-21487145D01*
X39294921Y-21470839D01*
X39261805Y-21460078D01*
X39235201Y-21454787D01*
X39197657Y-21439235D01*
X39138237Y-21419929D01*
X39082572Y-21391566D01*
X39045033Y-21376017D01*
X39022479Y-21360947D01*
X38991460Y-21345142D01*
X38907138Y-21283878D01*
X38873887Y-21261661D01*
X38866790Y-21254564D01*
X38858182Y-21248310D01*
X38741689Y-21131817D01*
X38735434Y-21123208D01*
X38728339Y-21116113D01*
X38706124Y-21082866D01*
X38644857Y-20998539D01*
X38629050Y-20967517D01*
X38613983Y-20944967D01*
X38598435Y-20907433D01*
X38570070Y-20851762D01*
X38550760Y-20792335D01*
X38535213Y-20754799D01*
X38529922Y-20728200D01*
X38519160Y-20695078D01*
X38502853Y-20592116D01*
X38495056Y-20552918D01*
X38494341Y-20538374D01*
X38493236Y-20531394D01*
X38490190Y-20453877D01*
X38490000Y-20450000D01*
X38490000Y-19550000D01*
X38490190Y-19546126D01*
X38493236Y-19468605D01*
X38494341Y-19461624D01*
X38495056Y-19447082D01*
X38502852Y-19407887D01*
X38519160Y-19304921D01*
X38529922Y-19271797D01*
X38535213Y-19245201D01*
X38550759Y-19207668D01*
X38570070Y-19148237D01*
X38598438Y-19092561D01*
X38613983Y-19055033D01*
X38629048Y-19032486D01*
X38644857Y-19001460D01*
X38706132Y-18917121D01*
X38728339Y-18883887D01*
X38735432Y-18876793D01*
X38741689Y-18868182D01*
X38858182Y-18751689D01*
X38866793Y-18745432D01*
X38873887Y-18738339D01*
X38907121Y-18716132D01*
X38991460Y-18654857D01*
X39022486Y-18639048D01*
X39045033Y-18623983D01*
X39082561Y-18608438D01*
X39138237Y-18580070D01*
X39197668Y-18560759D01*
X39235201Y-18545213D01*
X39261797Y-18539922D01*
X39294921Y-18529160D01*
X39397883Y-18512853D01*
X39437082Y-18505056D01*
X39447115Y-18505056D01*
X39457628Y-18503391D01*
X39622372Y-18503391D01*
X39632885Y-18505056D01*
G37*
G36*
X42172885Y-18505056D02*
G01*
X42182918Y-18505056D01*
X42222117Y-18512853D01*
X42325078Y-18529160D01*
X42358200Y-18539922D01*
X42384799Y-18545213D01*
X42422335Y-18560760D01*
X42481762Y-18580070D01*
X42537433Y-18608435D01*
X42574967Y-18623983D01*
X42597517Y-18639050D01*
X42628539Y-18654857D01*
X42712866Y-18716124D01*
X42746113Y-18738339D01*
X42753208Y-18745434D01*
X42761817Y-18751689D01*
X42878310Y-18868182D01*
X42884564Y-18876790D01*
X42891661Y-18883887D01*
X42913878Y-18917138D01*
X42975142Y-19001460D01*
X42990947Y-19032479D01*
X43006017Y-19055033D01*
X43021566Y-19092572D01*
X43049929Y-19148237D01*
X43069235Y-19207657D01*
X43084787Y-19245201D01*
X43090078Y-19271805D01*
X43100839Y-19304921D01*
X43117142Y-19407862D01*
X43124944Y-19447082D01*
X43125658Y-19461633D01*
X43126763Y-19468605D01*
X43129809Y-19546120D01*
X43130000Y-19550000D01*
X43130000Y-20450000D01*
X43129809Y-20453883D01*
X43126763Y-20531394D01*
X43125658Y-20538365D01*
X43124944Y-20552918D01*
X43117142Y-20592140D01*
X43100839Y-20695078D01*
X43090079Y-20728192D01*
X43084787Y-20754799D01*
X43069234Y-20792346D01*
X43049929Y-20851762D01*
X43021568Y-20907422D01*
X43006017Y-20944967D01*
X42990945Y-20967523D01*
X42975142Y-20998539D01*
X42913887Y-21082849D01*
X42891661Y-21116113D01*
X42884561Y-21123212D01*
X42878310Y-21131817D01*
X42761817Y-21248310D01*
X42753212Y-21254561D01*
X42746113Y-21261661D01*
X42712849Y-21283887D01*
X42628539Y-21345142D01*
X42597523Y-21360945D01*
X42574967Y-21376017D01*
X42537422Y-21391568D01*
X42481762Y-21419929D01*
X42422346Y-21439234D01*
X42384799Y-21454787D01*
X42358192Y-21460079D01*
X42325078Y-21470839D01*
X42222126Y-21487144D01*
X42182918Y-21494944D01*
X42172884Y-21494944D01*
X42162372Y-21496609D01*
X41997628Y-21496609D01*
X41987115Y-21494944D01*
X41977082Y-21494944D01*
X41937874Y-21487145D01*
X41834921Y-21470839D01*
X41801805Y-21460078D01*
X41775201Y-21454787D01*
X41737657Y-21439235D01*
X41678237Y-21419929D01*
X41622572Y-21391566D01*
X41585033Y-21376017D01*
X41562479Y-21360947D01*
X41531460Y-21345142D01*
X41447138Y-21283878D01*
X41413887Y-21261661D01*
X41406790Y-21254564D01*
X41398182Y-21248310D01*
X41281689Y-21131817D01*
X41275434Y-21123208D01*
X41268339Y-21116113D01*
X41246124Y-21082866D01*
X41184857Y-20998539D01*
X41169050Y-20967517D01*
X41153983Y-20944967D01*
X41138435Y-20907433D01*
X41110070Y-20851762D01*
X41090760Y-20792335D01*
X41075213Y-20754799D01*
X41069922Y-20728200D01*
X41059160Y-20695078D01*
X41042853Y-20592116D01*
X41035056Y-20552918D01*
X41034341Y-20538374D01*
X41033236Y-20531394D01*
X41030190Y-20453877D01*
X41030000Y-20450000D01*
X41030000Y-19550000D01*
X41030190Y-19546126D01*
X41033236Y-19468605D01*
X41034341Y-19461624D01*
X41035056Y-19447082D01*
X41042852Y-19407887D01*
X41059160Y-19304921D01*
X41069922Y-19271797D01*
X41075213Y-19245201D01*
X41090759Y-19207668D01*
X41110070Y-19148237D01*
X41138438Y-19092561D01*
X41153983Y-19055033D01*
X41169048Y-19032486D01*
X41184857Y-19001460D01*
X41246132Y-18917121D01*
X41268339Y-18883887D01*
X41275432Y-18876793D01*
X41281689Y-18868182D01*
X41398182Y-18751689D01*
X41406793Y-18745432D01*
X41413887Y-18738339D01*
X41447121Y-18716132D01*
X41531460Y-18654857D01*
X41562486Y-18639048D01*
X41585033Y-18623983D01*
X41622561Y-18608438D01*
X41678237Y-18580070D01*
X41737668Y-18560759D01*
X41775201Y-18545213D01*
X41801797Y-18539922D01*
X41834921Y-18529160D01*
X41937883Y-18512853D01*
X41977082Y-18505056D01*
X41987115Y-18505056D01*
X41997628Y-18503391D01*
X42162372Y-18503391D01*
X42172885Y-18505056D01*
G37*
G36*
X86232228Y-19854448D02*
G01*
X86377117Y-19914463D01*
X86507515Y-20001592D01*
X86618408Y-20112485D01*
X86705537Y-20242883D01*
X86765552Y-20387772D01*
X86796148Y-20541586D01*
X86796148Y-20698414D01*
X86765552Y-20852228D01*
X86705537Y-20997117D01*
X86618408Y-21127515D01*
X86507515Y-21238408D01*
X86377117Y-21325537D01*
X86232228Y-21385552D01*
X86078414Y-21416148D01*
X85921586Y-21416148D01*
X85767772Y-21385552D01*
X85622883Y-21325537D01*
X85492485Y-21238408D01*
X85381592Y-21127515D01*
X85294463Y-20997117D01*
X85234448Y-20852228D01*
X85203852Y-20698414D01*
X85203852Y-20541586D01*
X85234448Y-20387772D01*
X85294463Y-20242883D01*
X85381592Y-20112485D01*
X85492485Y-20001592D01*
X85622883Y-19914463D01*
X85767772Y-19854448D01*
X85921586Y-19823852D01*
X86078414Y-19823852D01*
X86232228Y-19854448D01*
G37*
G36*
X93852228Y-19854448D02*
G01*
X93997117Y-19914463D01*
X94127515Y-20001592D01*
X94238408Y-20112485D01*
X94325537Y-20242883D01*
X94385552Y-20387772D01*
X94416148Y-20541586D01*
X94416148Y-20698414D01*
X94385552Y-20852228D01*
X94325537Y-20997117D01*
X94238408Y-21127515D01*
X94127515Y-21238408D01*
X93997117Y-21325537D01*
X93852228Y-21385552D01*
X93698414Y-21416148D01*
X93541586Y-21416148D01*
X93387772Y-21385552D01*
X93242883Y-21325537D01*
X93112485Y-21238408D01*
X93001592Y-21127515D01*
X92914463Y-20997117D01*
X92854448Y-20852228D01*
X92823852Y-20698414D01*
X92823852Y-20541586D01*
X92854448Y-20387772D01*
X92914463Y-20242883D01*
X93001592Y-20112485D01*
X93112485Y-20001592D01*
X93242883Y-19914463D01*
X93387772Y-19854448D01*
X93541586Y-19823852D01*
X93698414Y-19823852D01*
X93852228Y-19854448D01*
G37*
G36*
X8054047Y-18700805D02*
G01*
X8105408Y-18706764D01*
X8122954Y-18714511D01*
X8145671Y-18719030D01*
X8169991Y-18735280D01*
X8190793Y-18744465D01*
X8205000Y-18758672D01*
X8226777Y-18773223D01*
X8241327Y-18794999D01*
X8255534Y-18809206D01*
X8264718Y-18830006D01*
X8280970Y-18854329D01*
X8285489Y-18877048D01*
X8293235Y-18894591D01*
X8299192Y-18945940D01*
X8300000Y-18950000D01*
X8300000Y-21050000D01*
X8299192Y-21054059D01*
X8293235Y-21105408D01*
X8285489Y-21122950D01*
X8280970Y-21145671D01*
X8264716Y-21169995D01*
X8255534Y-21190793D01*
X8241329Y-21204997D01*
X8226777Y-21226777D01*
X8204997Y-21241329D01*
X8190793Y-21255534D01*
X8169995Y-21264716D01*
X8145671Y-21280970D01*
X8122950Y-21285489D01*
X8105408Y-21293235D01*
X8054061Y-21299192D01*
X8050000Y-21300000D01*
X5950000Y-21300000D01*
X5945941Y-21299192D01*
X5894591Y-21293235D01*
X5877048Y-21285489D01*
X5854329Y-21280970D01*
X5830006Y-21264718D01*
X5809206Y-21255534D01*
X5794999Y-21241327D01*
X5773223Y-21226777D01*
X5758672Y-21205000D01*
X5744465Y-21190793D01*
X5735280Y-21169991D01*
X5719030Y-21145671D01*
X5714511Y-21122954D01*
X5706764Y-21105408D01*
X5700805Y-21054049D01*
X5700000Y-21050000D01*
X5700000Y-18950000D01*
X5700804Y-18945953D01*
X5706764Y-18894591D01*
X5714511Y-18877043D01*
X5719030Y-18854329D01*
X5735278Y-18830010D01*
X5744465Y-18809206D01*
X5758674Y-18794996D01*
X5773223Y-18773223D01*
X5794996Y-18758674D01*
X5809206Y-18744465D01*
X5830010Y-18735278D01*
X5854329Y-18719030D01*
X5877043Y-18714511D01*
X5894591Y-18706764D01*
X5945952Y-18700805D01*
X5950000Y-18700000D01*
X8050000Y-18700000D01*
X8054047Y-18700805D01*
G37*
G36*
X26854048Y-18900805D02*
G01*
X26905410Y-18906764D01*
X26922958Y-18914512D01*
X26945671Y-18919030D01*
X26969983Y-18935275D01*
X26990793Y-18944463D01*
X27005006Y-18958676D01*
X27026777Y-18973223D01*
X27041323Y-18994993D01*
X27055536Y-19009206D01*
X27064723Y-19030013D01*
X27080970Y-19054329D01*
X27085487Y-19077042D01*
X27093235Y-19094589D01*
X27099196Y-19145965D01*
X27099999Y-19150000D01*
X27099999Y-19152881D01*
X27100000Y-19152890D01*
X27100000Y-20001592D01*
X27100000Y-20850001D01*
X27099194Y-20854050D01*
X27093235Y-20905410D01*
X27085488Y-20922954D01*
X27080970Y-20945671D01*
X27064722Y-20969987D01*
X27055536Y-20990793D01*
X27041325Y-21005003D01*
X27026777Y-21026777D01*
X27005003Y-21041325D01*
X26990793Y-21055536D01*
X26969987Y-21064722D01*
X26945671Y-21080970D01*
X26922955Y-21085488D01*
X26905410Y-21093235D01*
X26854036Y-21099196D01*
X26850000Y-21099999D01*
X26847117Y-21099999D01*
X26847109Y-21100000D01*
X25152891Y-21100000D01*
X25152890Y-21099999D01*
X25149999Y-21100000D01*
X25145950Y-21099194D01*
X25094589Y-21093235D01*
X25077043Y-21085488D01*
X25054329Y-21080970D01*
X25030013Y-21064723D01*
X25009206Y-21055536D01*
X24994993Y-21041323D01*
X24973223Y-21026777D01*
X24958676Y-21005006D01*
X24944463Y-20990793D01*
X24935275Y-20969983D01*
X24919030Y-20945671D01*
X24914512Y-20922959D01*
X24906764Y-20905410D01*
X24900803Y-20854034D01*
X24900001Y-20850000D01*
X24900000Y-20847117D01*
X24900000Y-20847109D01*
X24900000Y-19152890D01*
X24900000Y-19152889D01*
X24900000Y-19149999D01*
X24900804Y-19145952D01*
X24906764Y-19094589D01*
X24914512Y-19077039D01*
X24919030Y-19054329D01*
X24935273Y-19030018D01*
X24944463Y-19009206D01*
X24958678Y-18994990D01*
X24973223Y-18973223D01*
X24994990Y-18958678D01*
X25009206Y-18944463D01*
X25030018Y-18935273D01*
X25054329Y-18919030D01*
X25077038Y-18914513D01*
X25094589Y-18906764D01*
X25145965Y-18900803D01*
X25150000Y-18900001D01*
X25152882Y-18900000D01*
X25152891Y-18900000D01*
X26847109Y-18900000D01*
X26850001Y-18900000D01*
X26854048Y-18900805D01*
G37*
G36*
X16096790Y-18930393D02*
G01*
X16260952Y-18983733D01*
X16414748Y-19062096D01*
X16554393Y-19163553D01*
X16676447Y-19285607D01*
X16777904Y-19425252D01*
X16856267Y-19579048D01*
X16909607Y-19743210D01*
X16936609Y-19913695D01*
X16936609Y-20086305D01*
X16909607Y-20256790D01*
X16856267Y-20420952D01*
X16777904Y-20574748D01*
X16676447Y-20714393D01*
X16554393Y-20836447D01*
X16414748Y-20937904D01*
X16260952Y-21016267D01*
X16096790Y-21069607D01*
X15926305Y-21096609D01*
X15753695Y-21096609D01*
X15583210Y-21069607D01*
X15419048Y-21016267D01*
X15265252Y-20937904D01*
X15125607Y-20836447D01*
X15003553Y-20714393D01*
X14902096Y-20574748D01*
X14823733Y-20420952D01*
X14770393Y-20256790D01*
X14743391Y-20086305D01*
X14743391Y-19913695D01*
X14770393Y-19743210D01*
X14823733Y-19579048D01*
X14902096Y-19425252D01*
X15003553Y-19285607D01*
X15125607Y-19163553D01*
X15265252Y-19062096D01*
X15419048Y-18983733D01*
X15583210Y-18930393D01*
X15753695Y-18903391D01*
X15926305Y-18903391D01*
X16096790Y-18930393D01*
G37*
G36*
X69940000Y-20900000D02*
G01*
X68140000Y-20900000D01*
X68140000Y-19100000D01*
X69940000Y-19100000D01*
X69940000Y-20900000D01*
G37*
G36*
X66761256Y-19138754D02*
G01*
X66924257Y-19206271D01*
X67070954Y-19304291D01*
X67195709Y-19429046D01*
X67293729Y-19575743D01*
X67361246Y-19738744D01*
X67395666Y-19911785D01*
X67395666Y-20088215D01*
X67361246Y-20261256D01*
X67293729Y-20424257D01*
X67195709Y-20570954D01*
X67070954Y-20695709D01*
X66924257Y-20793729D01*
X66761256Y-20861246D01*
X66588215Y-20895666D01*
X66411785Y-20895666D01*
X66238744Y-20861246D01*
X66075743Y-20793729D01*
X65929046Y-20695709D01*
X65804291Y-20570954D01*
X65706271Y-20424257D01*
X65638754Y-20261256D01*
X65604334Y-20088215D01*
X65604334Y-19911785D01*
X65638754Y-19738744D01*
X65706271Y-19575743D01*
X65804291Y-19429046D01*
X65929046Y-19304291D01*
X66075743Y-19206271D01*
X66238744Y-19138754D01*
X66411785Y-19104334D01*
X66588215Y-19104334D01*
X66761256Y-19138754D01*
G37*
G36*
X53232228Y-19234448D02*
G01*
X53377117Y-19294463D01*
X53507515Y-19381592D01*
X53618408Y-19492485D01*
X53705537Y-19622883D01*
X53765552Y-19767772D01*
X53796148Y-19921586D01*
X53796148Y-20078414D01*
X53765552Y-20232228D01*
X53705537Y-20377117D01*
X53618408Y-20507515D01*
X53507515Y-20618408D01*
X53377117Y-20705537D01*
X53232228Y-20765552D01*
X53078414Y-20796148D01*
X52921586Y-20796148D01*
X52767772Y-20765552D01*
X52622883Y-20705537D01*
X52492485Y-20618408D01*
X52381592Y-20507515D01*
X52294463Y-20377117D01*
X52234448Y-20232228D01*
X52203852Y-20078414D01*
X52203852Y-19921586D01*
X52234448Y-19767772D01*
X52294463Y-19622883D01*
X52381592Y-19492485D01*
X52492485Y-19381592D01*
X52622883Y-19294463D01*
X52767772Y-19234448D01*
X52921586Y-19203852D01*
X53078414Y-19203852D01*
X53232228Y-19234448D01*
G37*
G36*
X63392228Y-19234448D02*
G01*
X63537117Y-19294463D01*
X63667515Y-19381592D01*
X63778408Y-19492485D01*
X63865537Y-19622883D01*
X63925552Y-19767772D01*
X63956148Y-19921586D01*
X63956148Y-20078414D01*
X63925552Y-20232228D01*
X63865537Y-20377117D01*
X63778408Y-20507515D01*
X63667515Y-20618408D01*
X63537117Y-20705537D01*
X63392228Y-20765552D01*
X63238414Y-20796148D01*
X63081586Y-20796148D01*
X62927772Y-20765552D01*
X62782883Y-20705537D01*
X62652485Y-20618408D01*
X62541592Y-20507515D01*
X62454463Y-20377117D01*
X62394448Y-20232228D01*
X62363852Y-20078414D01*
X62363852Y-19921586D01*
X62394448Y-19767772D01*
X62454463Y-19622883D01*
X62541592Y-19492485D01*
X62652485Y-19381592D01*
X62782883Y-19294463D01*
X62927772Y-19234448D01*
X63081586Y-19203852D01*
X63238414Y-19203852D01*
X63392228Y-19234448D01*
G37*
G36*
X97072228Y-18034448D02*
G01*
X97217117Y-18094463D01*
X97347515Y-18181592D01*
X97458408Y-18292485D01*
X97545537Y-18422883D01*
X97605552Y-18567772D01*
X97636148Y-18721586D01*
X97636148Y-18878414D01*
X97605552Y-19032228D01*
X97545537Y-19177117D01*
X97458408Y-19307515D01*
X97347515Y-19418408D01*
X97217117Y-19505537D01*
X97072228Y-19565552D01*
X96918414Y-19596148D01*
X96761586Y-19596148D01*
X96607772Y-19565552D01*
X96462883Y-19505537D01*
X96332485Y-19418408D01*
X96221592Y-19307515D01*
X96134463Y-19177117D01*
X96074448Y-19032228D01*
X96043852Y-18878414D01*
X96043852Y-18721586D01*
X96074448Y-18567772D01*
X96134463Y-18422883D01*
X96221592Y-18292485D01*
X96332485Y-18181592D01*
X96462883Y-18094463D01*
X96607772Y-18034448D01*
X96761586Y-18003852D01*
X96918414Y-18003852D01*
X97072228Y-18034448D01*
G37*
G36*
X107232228Y-18034448D02*
G01*
X107377117Y-18094463D01*
X107507515Y-18181592D01*
X107618408Y-18292485D01*
X107705537Y-18422883D01*
X107765552Y-18567772D01*
X107796148Y-18721586D01*
X107796148Y-18878414D01*
X107765552Y-19032228D01*
X107705537Y-19177117D01*
X107618408Y-19307515D01*
X107507515Y-19418408D01*
X107377117Y-19505537D01*
X107232228Y-19565552D01*
X107078414Y-19596148D01*
X106921586Y-19596148D01*
X106767772Y-19565552D01*
X106622883Y-19505537D01*
X106492485Y-19418408D01*
X106381592Y-19307515D01*
X106294463Y-19177117D01*
X106234448Y-19032228D01*
X106203852Y-18878414D01*
X106203852Y-18721586D01*
X106234448Y-18567772D01*
X106294463Y-18422883D01*
X106381592Y-18292485D01*
X106492485Y-18181592D01*
X106622883Y-18094463D01*
X106767772Y-18034448D01*
X106921586Y-18003852D01*
X107078414Y-18003852D01*
X107232228Y-18034448D01*
G37*
G36*
X86232228Y-17314448D02*
G01*
X86377117Y-17374463D01*
X86507515Y-17461592D01*
X86618408Y-17572485D01*
X86705537Y-17702883D01*
X86765552Y-17847772D01*
X86796148Y-18001586D01*
X86796148Y-18158414D01*
X86765552Y-18312228D01*
X86705537Y-18457117D01*
X86618408Y-18587515D01*
X86507515Y-18698408D01*
X86377117Y-18785537D01*
X86232228Y-18845552D01*
X86078414Y-18876148D01*
X85921586Y-18876148D01*
X85767772Y-18845552D01*
X85622883Y-18785537D01*
X85492485Y-18698408D01*
X85381592Y-18587515D01*
X85294463Y-18457117D01*
X85234448Y-18312228D01*
X85203852Y-18158414D01*
X85203852Y-18001586D01*
X85234448Y-17847772D01*
X85294463Y-17702883D01*
X85381592Y-17572485D01*
X85492485Y-17461592D01*
X85622883Y-17374463D01*
X85767772Y-17314448D01*
X85921586Y-17283852D01*
X86078414Y-17283852D01*
X86232228Y-17314448D01*
G37*
G36*
X93852228Y-17314448D02*
G01*
X93997117Y-17374463D01*
X94127515Y-17461592D01*
X94238408Y-17572485D01*
X94325537Y-17702883D01*
X94385552Y-17847772D01*
X94416148Y-18001586D01*
X94416148Y-18158414D01*
X94385552Y-18312228D01*
X94325537Y-18457117D01*
X94238408Y-18587515D01*
X94127515Y-18698408D01*
X93997117Y-18785537D01*
X93852228Y-18845552D01*
X93698414Y-18876148D01*
X93541586Y-18876148D01*
X93387772Y-18845552D01*
X93242883Y-18785537D01*
X93112485Y-18698408D01*
X93001592Y-18587515D01*
X92914463Y-18457117D01*
X92854448Y-18312228D01*
X92823852Y-18158414D01*
X92823852Y-18001586D01*
X92854448Y-17847772D01*
X92914463Y-17702883D01*
X93001592Y-17572485D01*
X93112485Y-17461592D01*
X93242883Y-17374463D01*
X93387772Y-17314448D01*
X93541586Y-17283852D01*
X93698414Y-17283852D01*
X93852228Y-17314448D01*
G37*
G36*
X86232228Y-14774448D02*
G01*
X86377117Y-14834463D01*
X86507515Y-14921592D01*
X86618408Y-15032485D01*
X86705537Y-15162883D01*
X86765552Y-15307772D01*
X86796148Y-15461586D01*
X86796148Y-15618414D01*
X86765552Y-15772228D01*
X86705537Y-15917117D01*
X86618408Y-16047515D01*
X86507515Y-16158408D01*
X86377117Y-16245537D01*
X86232228Y-16305552D01*
X86078414Y-16336148D01*
X85921586Y-16336148D01*
X85767772Y-16305552D01*
X85622883Y-16245537D01*
X85492485Y-16158408D01*
X85381592Y-16047515D01*
X85294463Y-15917117D01*
X85234448Y-15772228D01*
X85203852Y-15618414D01*
X85203852Y-15461586D01*
X85234448Y-15307772D01*
X85294463Y-15162883D01*
X85381592Y-15032485D01*
X85492485Y-14921592D01*
X85622883Y-14834463D01*
X85767772Y-14774448D01*
X85921586Y-14743852D01*
X86078414Y-14743852D01*
X86232228Y-14774448D01*
G37*
G36*
X93852228Y-14774448D02*
G01*
X93997117Y-14834463D01*
X94127515Y-14921592D01*
X94238408Y-15032485D01*
X94325537Y-15162883D01*
X94385552Y-15307772D01*
X94416148Y-15461586D01*
X94416148Y-15618414D01*
X94385552Y-15772228D01*
X94325537Y-15917117D01*
X94238408Y-16047515D01*
X94127515Y-16158408D01*
X93997117Y-16245537D01*
X93852228Y-16305552D01*
X93698414Y-16336148D01*
X93541586Y-16336148D01*
X93387772Y-16305552D01*
X93242883Y-16245537D01*
X93112485Y-16158408D01*
X93001592Y-16047515D01*
X92914463Y-15917117D01*
X92854448Y-15772228D01*
X92823852Y-15618414D01*
X92823852Y-15461586D01*
X92854448Y-15307772D01*
X92914463Y-15162883D01*
X93001592Y-15032485D01*
X93112485Y-14921592D01*
X93242883Y-14834463D01*
X93387772Y-14774448D01*
X93541586Y-14743852D01*
X93698414Y-14743852D01*
X93852228Y-14774448D01*
G37*
G36*
X7303479Y-13655919D02*
G01*
X7497488Y-13718957D01*
X7679248Y-13811568D01*
X7844282Y-13931472D01*
X7988528Y-14075718D01*
X8108432Y-14240752D01*
X8201043Y-14422512D01*
X8264081Y-14616521D01*
X8295993Y-14818003D01*
X8295993Y-15021997D01*
X8264081Y-15223479D01*
X8201043Y-15417488D01*
X8108432Y-15599248D01*
X7988528Y-15764282D01*
X7844282Y-15908528D01*
X7679248Y-16028432D01*
X7497488Y-16121043D01*
X7303479Y-16184081D01*
X7101997Y-16215993D01*
X6898003Y-16215993D01*
X6696521Y-16184081D01*
X6502512Y-16121043D01*
X6320752Y-16028432D01*
X6155718Y-15908528D01*
X6011472Y-15764282D01*
X5891568Y-15599248D01*
X5798957Y-15417488D01*
X5735919Y-15223479D01*
X5704007Y-15021997D01*
X5704007Y-14818003D01*
X5735919Y-14616521D01*
X5798957Y-14422512D01*
X5891568Y-14240752D01*
X6011472Y-14075718D01*
X6155718Y-13931472D01*
X6320752Y-13811568D01*
X6502512Y-13718957D01*
X6696521Y-13655919D01*
X6898003Y-13624007D01*
X7101997Y-13624007D01*
X7303479Y-13655919D01*
G37*
G36*
X97072228Y-14434448D02*
G01*
X97217117Y-14494463D01*
X97347515Y-14581592D01*
X97458408Y-14692485D01*
X97545537Y-14822883D01*
X97605552Y-14967772D01*
X97636148Y-15121586D01*
X97636148Y-15278414D01*
X97605552Y-15432228D01*
X97545537Y-15577117D01*
X97458408Y-15707515D01*
X97347515Y-15818408D01*
X97217117Y-15905537D01*
X97072228Y-15965552D01*
X96918414Y-15996148D01*
X96761586Y-15996148D01*
X96607772Y-15965552D01*
X96462883Y-15905537D01*
X96332485Y-15818408D01*
X96221592Y-15707515D01*
X96134463Y-15577117D01*
X96074448Y-15432228D01*
X96043852Y-15278414D01*
X96043852Y-15121586D01*
X96074448Y-14967772D01*
X96134463Y-14822883D01*
X96221592Y-14692485D01*
X96332485Y-14581592D01*
X96462883Y-14494463D01*
X96607772Y-14434448D01*
X96761586Y-14403852D01*
X96918414Y-14403852D01*
X97072228Y-14434448D01*
G37*
G36*
X107232228Y-14434448D02*
G01*
X107377117Y-14494463D01*
X107507515Y-14581592D01*
X107618408Y-14692485D01*
X107705537Y-14822883D01*
X107765552Y-14967772D01*
X107796148Y-15121586D01*
X107796148Y-15278414D01*
X107765552Y-15432228D01*
X107705537Y-15577117D01*
X107618408Y-15707515D01*
X107507515Y-15818408D01*
X107377117Y-15905537D01*
X107232228Y-15965552D01*
X107078414Y-15996148D01*
X106921586Y-15996148D01*
X106767772Y-15965552D01*
X106622883Y-15905537D01*
X106492485Y-15818408D01*
X106381592Y-15707515D01*
X106294463Y-15577117D01*
X106234448Y-15432228D01*
X106203852Y-15278414D01*
X106203852Y-15121586D01*
X106234448Y-14967772D01*
X106294463Y-14822883D01*
X106381592Y-14692485D01*
X106492485Y-14581592D01*
X106622883Y-14494463D01*
X106767772Y-14434448D01*
X106921586Y-14403852D01*
X107078414Y-14403852D01*
X107232228Y-14434448D01*
G37*
G36*
X33261256Y-12638754D02*
G01*
X33424257Y-12706271D01*
X33570954Y-12804291D01*
X33695709Y-12929046D01*
X33793729Y-13075743D01*
X33861246Y-13238744D01*
X33895666Y-13411785D01*
X33895666Y-13588215D01*
X33861246Y-13761256D01*
X33793729Y-13924257D01*
X33695709Y-14070954D01*
X33570954Y-14195709D01*
X33424257Y-14293729D01*
X33261256Y-14361246D01*
X33088215Y-14395666D01*
X32911785Y-14395666D01*
X32738744Y-14361246D01*
X32575743Y-14293729D01*
X32429046Y-14195709D01*
X32304291Y-14070954D01*
X32206271Y-13924257D01*
X32138754Y-13761256D01*
X32104334Y-13588215D01*
X32104334Y-13411785D01*
X32138754Y-13238744D01*
X32206271Y-13075743D01*
X32304291Y-12929046D01*
X32429046Y-12804291D01*
X32575743Y-12706271D01*
X32738744Y-12638754D01*
X32911785Y-12604334D01*
X33088215Y-12604334D01*
X33261256Y-12638754D01*
G37*
G36*
X38261256Y-12638754D02*
G01*
X38424257Y-12706271D01*
X38570954Y-12804291D01*
X38695709Y-12929046D01*
X38793729Y-13075743D01*
X38861246Y-13238744D01*
X38895666Y-13411785D01*
X38895666Y-13588215D01*
X38861246Y-13761256D01*
X38793729Y-13924257D01*
X38695709Y-14070954D01*
X38570954Y-14195709D01*
X38424257Y-14293729D01*
X38261256Y-14361246D01*
X38088215Y-14395666D01*
X37911785Y-14395666D01*
X37738744Y-14361246D01*
X37575743Y-14293729D01*
X37429046Y-14195709D01*
X37304291Y-14070954D01*
X37206271Y-13924257D01*
X37138754Y-13761256D01*
X37104334Y-13588215D01*
X37104334Y-13411785D01*
X37138754Y-13238744D01*
X37206271Y-13075743D01*
X37304291Y-12929046D01*
X37429046Y-12804291D01*
X37575743Y-12706271D01*
X37738744Y-12638754D01*
X37911785Y-12604334D01*
X38088215Y-12604334D01*
X38261256Y-12638754D01*
G37*
G36*
X45261256Y-12638754D02*
G01*
X45424257Y-12706271D01*
X45570954Y-12804291D01*
X45695709Y-12929046D01*
X45793729Y-13075743D01*
X45861246Y-13238744D01*
X45895666Y-13411785D01*
X45895666Y-13588215D01*
X45861246Y-13761256D01*
X45793729Y-13924257D01*
X45695709Y-14070954D01*
X45570954Y-14195709D01*
X45424257Y-14293729D01*
X45261256Y-14361246D01*
X45088215Y-14395666D01*
X44911785Y-14395666D01*
X44738744Y-14361246D01*
X44575743Y-14293729D01*
X44429046Y-14195709D01*
X44304291Y-14070954D01*
X44206271Y-13924257D01*
X44138754Y-13761256D01*
X44104334Y-13588215D01*
X44104334Y-13411785D01*
X44138754Y-13238744D01*
X44206271Y-13075743D01*
X44304291Y-12929046D01*
X44429046Y-12804291D01*
X44575743Y-12706271D01*
X44738744Y-12638754D01*
X44911785Y-12604334D01*
X45088215Y-12604334D01*
X45261256Y-12638754D01*
G37*
G36*
X50261256Y-12638754D02*
G01*
X50424257Y-12706271D01*
X50570954Y-12804291D01*
X50695709Y-12929046D01*
X50793729Y-13075743D01*
X50861246Y-13238744D01*
X50895666Y-13411785D01*
X50895666Y-13588215D01*
X50861246Y-13761256D01*
X50793729Y-13924257D01*
X50695709Y-14070954D01*
X50570954Y-14195709D01*
X50424257Y-14293729D01*
X50261256Y-14361246D01*
X50088215Y-14395666D01*
X49911785Y-14395666D01*
X49738744Y-14361246D01*
X49575743Y-14293729D01*
X49429046Y-14195709D01*
X49304291Y-14070954D01*
X49206271Y-13924257D01*
X49138754Y-13761256D01*
X49104334Y-13588215D01*
X49104334Y-13411785D01*
X49138754Y-13238744D01*
X49206271Y-13075743D01*
X49304291Y-12929046D01*
X49429046Y-12804291D01*
X49575743Y-12706271D01*
X49738744Y-12638754D01*
X49911785Y-12604334D01*
X50088215Y-12604334D01*
X50261256Y-12638754D01*
G37*
G36*
X67232228Y-12734448D02*
G01*
X67377117Y-12794463D01*
X67507515Y-12881592D01*
X67618408Y-12992485D01*
X67705537Y-13122883D01*
X67765552Y-13267772D01*
X67796148Y-13421586D01*
X67796148Y-13578414D01*
X67765552Y-13732228D01*
X67705537Y-13877117D01*
X67618408Y-14007515D01*
X67507515Y-14118408D01*
X67377117Y-14205537D01*
X67232228Y-14265552D01*
X67078414Y-14296148D01*
X66921586Y-14296148D01*
X66767772Y-14265552D01*
X66622883Y-14205537D01*
X66492485Y-14118408D01*
X66381592Y-14007515D01*
X66294463Y-13877117D01*
X66234448Y-13732228D01*
X66203852Y-13578414D01*
X66203852Y-13421586D01*
X66234448Y-13267772D01*
X66294463Y-13122883D01*
X66381592Y-12992485D01*
X66492485Y-12881592D01*
X66622883Y-12794463D01*
X66767772Y-12734448D01*
X66921586Y-12703852D01*
X67078414Y-12703852D01*
X67232228Y-12734448D01*
G37*
G36*
X77392228Y-12734448D02*
G01*
X77537117Y-12794463D01*
X77667515Y-12881592D01*
X77778408Y-12992485D01*
X77865537Y-13122883D01*
X77925552Y-13267772D01*
X77956148Y-13421586D01*
X77956148Y-13578414D01*
X77925552Y-13732228D01*
X77865537Y-13877117D01*
X77778408Y-14007515D01*
X77667515Y-14118408D01*
X77537117Y-14205537D01*
X77392228Y-14265552D01*
X77238414Y-14296148D01*
X77081586Y-14296148D01*
X76927772Y-14265552D01*
X76782883Y-14205537D01*
X76652485Y-14118408D01*
X76541592Y-14007515D01*
X76454463Y-13877117D01*
X76394448Y-13732228D01*
X76363852Y-13578414D01*
X76363852Y-13421586D01*
X76394448Y-13267772D01*
X76454463Y-13122883D01*
X76541592Y-12992485D01*
X76652485Y-12881592D01*
X76782883Y-12794463D01*
X76927772Y-12734448D01*
X77081586Y-12703852D01*
X77238414Y-12703852D01*
X77392228Y-12734448D01*
G37*
G36*
X86554047Y-12200805D02*
G01*
X86605408Y-12206764D01*
X86622954Y-12214511D01*
X86645671Y-12219030D01*
X86669991Y-12235280D01*
X86690793Y-12244465D01*
X86705000Y-12258672D01*
X86726777Y-12273223D01*
X86741327Y-12294999D01*
X86755534Y-12309206D01*
X86764718Y-12330006D01*
X86780970Y-12354329D01*
X86785489Y-12377048D01*
X86793235Y-12394591D01*
X86799192Y-12445940D01*
X86800000Y-12450000D01*
X86800000Y-13550000D01*
X86799192Y-13554059D01*
X86793235Y-13605408D01*
X86785489Y-13622950D01*
X86780970Y-13645671D01*
X86764716Y-13669995D01*
X86755534Y-13690793D01*
X86741329Y-13704997D01*
X86726777Y-13726777D01*
X86704997Y-13741329D01*
X86690793Y-13755534D01*
X86669995Y-13764716D01*
X86645671Y-13780970D01*
X86622950Y-13785489D01*
X86605408Y-13793235D01*
X86554061Y-13799192D01*
X86550000Y-13800000D01*
X85450000Y-13800000D01*
X85445941Y-13799192D01*
X85394591Y-13793235D01*
X85377048Y-13785489D01*
X85354329Y-13780970D01*
X85330006Y-13764718D01*
X85309206Y-13755534D01*
X85294999Y-13741327D01*
X85273223Y-13726777D01*
X85258672Y-13705000D01*
X85244465Y-13690793D01*
X85235280Y-13669991D01*
X85219030Y-13645671D01*
X85214511Y-13622954D01*
X85206764Y-13605408D01*
X85200805Y-13554049D01*
X85200000Y-13550000D01*
X85200000Y-12450000D01*
X85200804Y-12445953D01*
X85206764Y-12394591D01*
X85214511Y-12377043D01*
X85219030Y-12354329D01*
X85235278Y-12330010D01*
X85244465Y-12309206D01*
X85258674Y-12294996D01*
X85273223Y-12273223D01*
X85294996Y-12258674D01*
X85309206Y-12244465D01*
X85330010Y-12235278D01*
X85354329Y-12219030D01*
X85377043Y-12214511D01*
X85394591Y-12206764D01*
X85445952Y-12200805D01*
X85450000Y-12200000D01*
X86550000Y-12200000D01*
X86554047Y-12200805D01*
G37*
G36*
X93852228Y-12234448D02*
G01*
X93997117Y-12294463D01*
X94127515Y-12381592D01*
X94238408Y-12492485D01*
X94325537Y-12622883D01*
X94385552Y-12767772D01*
X94416148Y-12921586D01*
X94416148Y-13078414D01*
X94385552Y-13232228D01*
X94325537Y-13377117D01*
X94238408Y-13507515D01*
X94127515Y-13618408D01*
X93997117Y-13705537D01*
X93852228Y-13765552D01*
X93698414Y-13796148D01*
X93541586Y-13796148D01*
X93387772Y-13765552D01*
X93242883Y-13705537D01*
X93112485Y-13618408D01*
X93001592Y-13507515D01*
X92914463Y-13377117D01*
X92854448Y-13232228D01*
X92823852Y-13078414D01*
X92823852Y-12921586D01*
X92854448Y-12767772D01*
X92914463Y-12622883D01*
X93001592Y-12492485D01*
X93112485Y-12381592D01*
X93242883Y-12294463D01*
X93387772Y-12234448D01*
X93541586Y-12203852D01*
X93698414Y-12203852D01*
X93852228Y-12234448D01*
G37*
G36*
X96761256Y-10138754D02*
G01*
X96924257Y-10206271D01*
X97070954Y-10304291D01*
X97195709Y-10429046D01*
X97293729Y-10575743D01*
X97361246Y-10738744D01*
X97395666Y-10911785D01*
X97395666Y-11088215D01*
X97361246Y-11261256D01*
X97293729Y-11424257D01*
X97195709Y-11570954D01*
X97070954Y-11695709D01*
X96924257Y-11793729D01*
X96761256Y-11861246D01*
X96588215Y-11895666D01*
X96411785Y-11895666D01*
X96238744Y-11861246D01*
X96075743Y-11793729D01*
X95929046Y-11695709D01*
X95804291Y-11570954D01*
X95706271Y-11424257D01*
X95638754Y-11261256D01*
X95604334Y-11088215D01*
X95604334Y-10911785D01*
X95638754Y-10738744D01*
X95706271Y-10575743D01*
X95804291Y-10429046D01*
X95929046Y-10304291D01*
X96075743Y-10206271D01*
X96238744Y-10138754D01*
X96411785Y-10104334D01*
X96588215Y-10104334D01*
X96761256Y-10138754D01*
G37*
G36*
X101761256Y-10138754D02*
G01*
X101924257Y-10206271D01*
X102070954Y-10304291D01*
X102195709Y-10429046D01*
X102293729Y-10575743D01*
X102361246Y-10738744D01*
X102395666Y-10911785D01*
X102395666Y-11088215D01*
X102361246Y-11261256D01*
X102293729Y-11424257D01*
X102195709Y-11570954D01*
X102070954Y-11695709D01*
X101924257Y-11793729D01*
X101761256Y-11861246D01*
X101588215Y-11895666D01*
X101411785Y-11895666D01*
X101238744Y-11861246D01*
X101075743Y-11793729D01*
X100929046Y-11695709D01*
X100804291Y-11570954D01*
X100706271Y-11424257D01*
X100638754Y-11261256D01*
X100604334Y-11088215D01*
X100604334Y-10911785D01*
X100638754Y-10738744D01*
X100706271Y-10575743D01*
X100804291Y-10429046D01*
X100929046Y-10304291D01*
X101075743Y-10206271D01*
X101238744Y-10138754D01*
X101411785Y-10104334D01*
X101588215Y-10104334D01*
X101761256Y-10138754D01*
G37*
M02*
