%TF.GenerationSoftware,KiCad,Pcbnew,10.0.6*%
%TF.CreationDate,2026-09-27T08:36:19+02:00*%
%TF.ProjectId,P00,5030302e-6b69-4636-9164-5f7063625858,PCB-R2 / SCH-P00-R2*%
%TF.SameCoordinates,Original*%
%TF.FileFunction,Legend,Top*%
%TF.FilePolarity,Positive*%
%FSLAX46Y46*%
G04 Gerber Fmt 4.6, Leading zero omitted, Abs format (unit mm)*
G04 Created by KiCad (PCBNEW 10.0.6) date 2026-09-27 08:36:19*
%MOMM*%
%LPD*%
G01*
G04 APERTURE LIST*
%ADD10C,0.120000*%
%ADD11C,0.150000*%
%ADD12C,0.400000*%
G04 APERTURE END LIST*
D10*
X21123810Y-28763855D02*
X21390477Y-29563855D01*
X21390477Y-29563855D02*
X21657143Y-28763855D01*
X21923810Y-29563855D02*
X21923810Y-28763855D01*
X22304762Y-29563855D02*
X22304762Y-28763855D01*
X22304762Y-28763855D02*
X22761905Y-29563855D01*
X22761905Y-29563855D02*
X22761905Y-28763855D01*
X56009523Y-28763855D02*
X56504761Y-28763855D01*
X56504761Y-28763855D02*
X56238095Y-29068617D01*
X56238095Y-29068617D02*
X56352380Y-29068617D01*
X56352380Y-29068617D02*
X56428571Y-29106712D01*
X56428571Y-29106712D02*
X56466666Y-29144807D01*
X56466666Y-29144807D02*
X56504761Y-29220998D01*
X56504761Y-29220998D02*
X56504761Y-29411474D01*
X56504761Y-29411474D02*
X56466666Y-29487664D01*
X56466666Y-29487664D02*
X56428571Y-29525760D01*
X56428571Y-29525760D02*
X56352380Y-29563855D01*
X56352380Y-29563855D02*
X56123809Y-29563855D01*
X56123809Y-29563855D02*
X56047618Y-29525760D01*
X56047618Y-29525760D02*
X56009523Y-29487664D01*
X56733333Y-28763855D02*
X57000000Y-29563855D01*
X57000000Y-29563855D02*
X57266666Y-28763855D01*
X57457142Y-28763855D02*
X57952380Y-28763855D01*
X57952380Y-28763855D02*
X57685714Y-29068617D01*
X57685714Y-29068617D02*
X57799999Y-29068617D01*
X57799999Y-29068617D02*
X57876190Y-29106712D01*
X57876190Y-29106712D02*
X57914285Y-29144807D01*
X57914285Y-29144807D02*
X57952380Y-29220998D01*
X57952380Y-29220998D02*
X57952380Y-29411474D01*
X57952380Y-29411474D02*
X57914285Y-29487664D01*
X57914285Y-29487664D02*
X57876190Y-29525760D01*
X57876190Y-29525760D02*
X57799999Y-29563855D01*
X57799999Y-29563855D02*
X57571428Y-29563855D01*
X57571428Y-29563855D02*
X57495237Y-29525760D01*
X57495237Y-29525760D02*
X57457142Y-29487664D01*
X60390476Y-28801950D02*
X60314286Y-28763855D01*
X60314286Y-28763855D02*
X60200000Y-28763855D01*
X60200000Y-28763855D02*
X60085714Y-28801950D01*
X60085714Y-28801950D02*
X60009524Y-28878140D01*
X60009524Y-28878140D02*
X59971429Y-28954331D01*
X59971429Y-28954331D02*
X59933333Y-29106712D01*
X59933333Y-29106712D02*
X59933333Y-29220998D01*
X59933333Y-29220998D02*
X59971429Y-29373379D01*
X59971429Y-29373379D02*
X60009524Y-29449569D01*
X60009524Y-29449569D02*
X60085714Y-29525760D01*
X60085714Y-29525760D02*
X60200000Y-29563855D01*
X60200000Y-29563855D02*
X60276191Y-29563855D01*
X60276191Y-29563855D02*
X60390476Y-29525760D01*
X60390476Y-29525760D02*
X60428572Y-29487664D01*
X60428572Y-29487664D02*
X60428572Y-29220998D01*
X60428572Y-29220998D02*
X60276191Y-29220998D01*
X60771429Y-29563855D02*
X60771429Y-28763855D01*
X60771429Y-28763855D02*
X61228572Y-29563855D01*
X61228572Y-29563855D02*
X61228572Y-28763855D01*
X61609524Y-29563855D02*
X61609524Y-28763855D01*
X61609524Y-28763855D02*
X61800000Y-28763855D01*
X61800000Y-28763855D02*
X61914286Y-28801950D01*
X61914286Y-28801950D02*
X61990476Y-28878140D01*
X61990476Y-28878140D02*
X62028571Y-28954331D01*
X62028571Y-28954331D02*
X62066667Y-29106712D01*
X62066667Y-29106712D02*
X62066667Y-29220998D01*
X62066667Y-29220998D02*
X62028571Y-29373379D01*
X62028571Y-29373379D02*
X61990476Y-29449569D01*
X61990476Y-29449569D02*
X61914286Y-29525760D01*
X61914286Y-29525760D02*
X61800000Y-29563855D01*
X61800000Y-29563855D02*
X61609524Y-29563855D01*
X68009523Y-23463855D02*
X68504761Y-23463855D01*
X68504761Y-23463855D02*
X68238095Y-23768617D01*
X68238095Y-23768617D02*
X68352380Y-23768617D01*
X68352380Y-23768617D02*
X68428571Y-23806712D01*
X68428571Y-23806712D02*
X68466666Y-23844807D01*
X68466666Y-23844807D02*
X68504761Y-23920998D01*
X68504761Y-23920998D02*
X68504761Y-24111474D01*
X68504761Y-24111474D02*
X68466666Y-24187664D01*
X68466666Y-24187664D02*
X68428571Y-24225760D01*
X68428571Y-24225760D02*
X68352380Y-24263855D01*
X68352380Y-24263855D02*
X68123809Y-24263855D01*
X68123809Y-24263855D02*
X68047618Y-24225760D01*
X68047618Y-24225760D02*
X68009523Y-24187664D01*
X68733333Y-23463855D02*
X69000000Y-24263855D01*
X69000000Y-24263855D02*
X69266666Y-23463855D01*
X69457142Y-23463855D02*
X69952380Y-23463855D01*
X69952380Y-23463855D02*
X69685714Y-23768617D01*
X69685714Y-23768617D02*
X69799999Y-23768617D01*
X69799999Y-23768617D02*
X69876190Y-23806712D01*
X69876190Y-23806712D02*
X69914285Y-23844807D01*
X69914285Y-23844807D02*
X69952380Y-23920998D01*
X69952380Y-23920998D02*
X69952380Y-24111474D01*
X69952380Y-24111474D02*
X69914285Y-24187664D01*
X69914285Y-24187664D02*
X69876190Y-24225760D01*
X69876190Y-24225760D02*
X69799999Y-24263855D01*
X69799999Y-24263855D02*
X69571428Y-24263855D01*
X69571428Y-24263855D02*
X69495237Y-24225760D01*
X69495237Y-24225760D02*
X69457142Y-24187664D01*
X66795239Y-30963855D02*
X66795239Y-30163855D01*
X66795239Y-30544807D02*
X67252382Y-30544807D01*
X67252382Y-30963855D02*
X67252382Y-30163855D01*
X67900000Y-30544807D02*
X68014286Y-30582902D01*
X68014286Y-30582902D02*
X68052381Y-30620998D01*
X68052381Y-30620998D02*
X68090477Y-30697188D01*
X68090477Y-30697188D02*
X68090477Y-30811474D01*
X68090477Y-30811474D02*
X68052381Y-30887664D01*
X68052381Y-30887664D02*
X68014286Y-30925760D01*
X68014286Y-30925760D02*
X67938096Y-30963855D01*
X67938096Y-30963855D02*
X67633334Y-30963855D01*
X67633334Y-30963855D02*
X67633334Y-30163855D01*
X67633334Y-30163855D02*
X67900000Y-30163855D01*
X67900000Y-30163855D02*
X67976191Y-30201950D01*
X67976191Y-30201950D02*
X68014286Y-30240045D01*
X68014286Y-30240045D02*
X68052381Y-30316236D01*
X68052381Y-30316236D02*
X68052381Y-30392426D01*
X68052381Y-30392426D02*
X68014286Y-30468617D01*
X68014286Y-30468617D02*
X67976191Y-30506712D01*
X67976191Y-30506712D02*
X67900000Y-30544807D01*
X67900000Y-30544807D02*
X67633334Y-30544807D01*
X68433334Y-30887664D02*
X68471429Y-30925760D01*
X68471429Y-30925760D02*
X68433334Y-30963855D01*
X68433334Y-30963855D02*
X68395238Y-30925760D01*
X68395238Y-30925760D02*
X68433334Y-30887664D01*
X68433334Y-30887664D02*
X68433334Y-30963855D01*
X68433334Y-30468617D02*
X68471429Y-30506712D01*
X68471429Y-30506712D02*
X68433334Y-30544807D01*
X68433334Y-30544807D02*
X68395238Y-30506712D01*
X68395238Y-30506712D02*
X68433334Y-30468617D01*
X68433334Y-30468617D02*
X68433334Y-30544807D01*
X69385714Y-30925760D02*
X69500000Y-30963855D01*
X69500000Y-30963855D02*
X69690476Y-30963855D01*
X69690476Y-30963855D02*
X69766667Y-30925760D01*
X69766667Y-30925760D02*
X69804762Y-30887664D01*
X69804762Y-30887664D02*
X69842857Y-30811474D01*
X69842857Y-30811474D02*
X69842857Y-30735283D01*
X69842857Y-30735283D02*
X69804762Y-30659093D01*
X69804762Y-30659093D02*
X69766667Y-30620998D01*
X69766667Y-30620998D02*
X69690476Y-30582902D01*
X69690476Y-30582902D02*
X69538095Y-30544807D01*
X69538095Y-30544807D02*
X69461905Y-30506712D01*
X69461905Y-30506712D02*
X69423810Y-30468617D01*
X69423810Y-30468617D02*
X69385714Y-30392426D01*
X69385714Y-30392426D02*
X69385714Y-30316236D01*
X69385714Y-30316236D02*
X69423810Y-30240045D01*
X69423810Y-30240045D02*
X69461905Y-30201950D01*
X69461905Y-30201950D02*
X69538095Y-30163855D01*
X69538095Y-30163855D02*
X69728572Y-30163855D01*
X69728572Y-30163855D02*
X69842857Y-30201950D01*
X70185715Y-30163855D02*
X70185715Y-30811474D01*
X70185715Y-30811474D02*
X70223810Y-30887664D01*
X70223810Y-30887664D02*
X70261905Y-30925760D01*
X70261905Y-30925760D02*
X70338096Y-30963855D01*
X70338096Y-30963855D02*
X70490477Y-30963855D01*
X70490477Y-30963855D02*
X70566667Y-30925760D01*
X70566667Y-30925760D02*
X70604762Y-30887664D01*
X70604762Y-30887664D02*
X70642858Y-30811474D01*
X70642858Y-30811474D02*
X70642858Y-30163855D01*
X70947619Y-30163855D02*
X71138095Y-30963855D01*
X71138095Y-30963855D02*
X71290476Y-30392426D01*
X71290476Y-30392426D02*
X71442857Y-30963855D01*
X71442857Y-30963855D02*
X71633334Y-30163855D01*
X71900000Y-30735283D02*
X72280953Y-30735283D01*
X71823810Y-30963855D02*
X72090477Y-30163855D01*
X72090477Y-30163855D02*
X72357143Y-30963855D01*
X72623810Y-30963855D02*
X72623810Y-30163855D01*
X73080953Y-30963855D02*
X72738095Y-30506712D01*
X73080953Y-30163855D02*
X72623810Y-30620998D01*
X73957143Y-30163855D02*
X74147619Y-30963855D01*
X74147619Y-30963855D02*
X74300000Y-30392426D01*
X74300000Y-30392426D02*
X74452381Y-30963855D01*
X74452381Y-30963855D02*
X74642858Y-30163855D01*
X75976191Y-30201950D02*
X75900001Y-30163855D01*
X75900001Y-30163855D02*
X75785715Y-30163855D01*
X75785715Y-30163855D02*
X75671429Y-30201950D01*
X75671429Y-30201950D02*
X75595239Y-30278140D01*
X75595239Y-30278140D02*
X75557144Y-30354331D01*
X75557144Y-30354331D02*
X75519048Y-30506712D01*
X75519048Y-30506712D02*
X75519048Y-30620998D01*
X75519048Y-30620998D02*
X75557144Y-30773379D01*
X75557144Y-30773379D02*
X75595239Y-30849569D01*
X75595239Y-30849569D02*
X75671429Y-30925760D01*
X75671429Y-30925760D02*
X75785715Y-30963855D01*
X75785715Y-30963855D02*
X75861906Y-30963855D01*
X75861906Y-30963855D02*
X75976191Y-30925760D01*
X75976191Y-30925760D02*
X76014287Y-30887664D01*
X76014287Y-30887664D02*
X76014287Y-30620998D01*
X76014287Y-30620998D02*
X75861906Y-30620998D01*
X76509525Y-30163855D02*
X76661906Y-30163855D01*
X76661906Y-30163855D02*
X76738096Y-30201950D01*
X76738096Y-30201950D02*
X76814287Y-30278140D01*
X76814287Y-30278140D02*
X76852382Y-30430521D01*
X76852382Y-30430521D02*
X76852382Y-30697188D01*
X76852382Y-30697188D02*
X76814287Y-30849569D01*
X76814287Y-30849569D02*
X76738096Y-30925760D01*
X76738096Y-30925760D02*
X76661906Y-30963855D01*
X76661906Y-30963855D02*
X76509525Y-30963855D01*
X76509525Y-30963855D02*
X76433334Y-30925760D01*
X76433334Y-30925760D02*
X76357144Y-30849569D01*
X76357144Y-30849569D02*
X76319048Y-30697188D01*
X76319048Y-30697188D02*
X76319048Y-30430521D01*
X76319048Y-30430521D02*
X76357144Y-30278140D01*
X76357144Y-30278140D02*
X76433334Y-30201950D01*
X76433334Y-30201950D02*
X76509525Y-30163855D01*
X77652382Y-30963855D02*
X77385715Y-30582902D01*
X77195239Y-30963855D02*
X77195239Y-30163855D01*
X77195239Y-30163855D02*
X77500001Y-30163855D01*
X77500001Y-30163855D02*
X77576191Y-30201950D01*
X77576191Y-30201950D02*
X77614286Y-30240045D01*
X77614286Y-30240045D02*
X77652382Y-30316236D01*
X77652382Y-30316236D02*
X77652382Y-30430521D01*
X77652382Y-30430521D02*
X77614286Y-30506712D01*
X77614286Y-30506712D02*
X77576191Y-30544807D01*
X77576191Y-30544807D02*
X77500001Y-30582902D01*
X77500001Y-30582902D02*
X77195239Y-30582902D01*
X77995239Y-30544807D02*
X78261905Y-30544807D01*
X78376191Y-30963855D02*
X77995239Y-30963855D01*
X77995239Y-30963855D02*
X77995239Y-30163855D01*
X77995239Y-30163855D02*
X78376191Y-30163855D01*
X79328573Y-30544807D02*
X79938097Y-30544807D01*
X79938097Y-30773379D02*
X79328573Y-30773379D01*
X81385716Y-30963855D02*
X81119049Y-30582902D01*
X80928573Y-30963855D02*
X80928573Y-30163855D01*
X80928573Y-30163855D02*
X81233335Y-30163855D01*
X81233335Y-30163855D02*
X81309525Y-30201950D01*
X81309525Y-30201950D02*
X81347620Y-30240045D01*
X81347620Y-30240045D02*
X81385716Y-30316236D01*
X81385716Y-30316236D02*
X81385716Y-30430521D01*
X81385716Y-30430521D02*
X81347620Y-30506712D01*
X81347620Y-30506712D02*
X81309525Y-30544807D01*
X81309525Y-30544807D02*
X81233335Y-30582902D01*
X81233335Y-30582902D02*
X80928573Y-30582902D01*
X81728573Y-30163855D02*
X81728573Y-30811474D01*
X81728573Y-30811474D02*
X81766668Y-30887664D01*
X81766668Y-30887664D02*
X81804763Y-30925760D01*
X81804763Y-30925760D02*
X81880954Y-30963855D01*
X81880954Y-30963855D02*
X82033335Y-30963855D01*
X82033335Y-30963855D02*
X82109525Y-30925760D01*
X82109525Y-30925760D02*
X82147620Y-30887664D01*
X82147620Y-30887664D02*
X82185716Y-30811474D01*
X82185716Y-30811474D02*
X82185716Y-30163855D01*
X82566668Y-30963855D02*
X82566668Y-30163855D01*
X82566668Y-30163855D02*
X83023811Y-30963855D01*
X83023811Y-30963855D02*
X83023811Y-30163855D01*
X83442858Y-30925760D02*
X83442858Y-30963855D01*
X83442858Y-30963855D02*
X83404763Y-31040045D01*
X83404763Y-31040045D02*
X83366667Y-31078140D01*
X84319048Y-30163855D02*
X84509524Y-30963855D01*
X84509524Y-30963855D02*
X84661905Y-30392426D01*
X84661905Y-30392426D02*
X84814286Y-30963855D01*
X84814286Y-30963855D02*
X85004763Y-30163855D01*
X85919049Y-30963855D02*
X85919049Y-30163855D01*
X85919049Y-30163855D02*
X86109525Y-30163855D01*
X86109525Y-30163855D02*
X86223811Y-30201950D01*
X86223811Y-30201950D02*
X86300001Y-30278140D01*
X86300001Y-30278140D02*
X86338096Y-30354331D01*
X86338096Y-30354331D02*
X86376192Y-30506712D01*
X86376192Y-30506712D02*
X86376192Y-30620998D01*
X86376192Y-30620998D02*
X86338096Y-30773379D01*
X86338096Y-30773379D02*
X86300001Y-30849569D01*
X86300001Y-30849569D02*
X86223811Y-30925760D01*
X86223811Y-30925760D02*
X86109525Y-30963855D01*
X86109525Y-30963855D02*
X85919049Y-30963855D01*
X86871430Y-30163855D02*
X87023811Y-30163855D01*
X87023811Y-30163855D02*
X87100001Y-30201950D01*
X87100001Y-30201950D02*
X87176192Y-30278140D01*
X87176192Y-30278140D02*
X87214287Y-30430521D01*
X87214287Y-30430521D02*
X87214287Y-30697188D01*
X87214287Y-30697188D02*
X87176192Y-30849569D01*
X87176192Y-30849569D02*
X87100001Y-30925760D01*
X87100001Y-30925760D02*
X87023811Y-30963855D01*
X87023811Y-30963855D02*
X86871430Y-30963855D01*
X86871430Y-30963855D02*
X86795239Y-30925760D01*
X86795239Y-30925760D02*
X86719049Y-30849569D01*
X86719049Y-30849569D02*
X86680953Y-30697188D01*
X86680953Y-30697188D02*
X86680953Y-30430521D01*
X86680953Y-30430521D02*
X86719049Y-30278140D01*
X86719049Y-30278140D02*
X86795239Y-30201950D01*
X86795239Y-30201950D02*
X86871430Y-30163855D01*
X87938096Y-30963855D02*
X87557144Y-30963855D01*
X87557144Y-30963855D02*
X87557144Y-30163855D01*
X88814287Y-30544807D02*
X89423811Y-30544807D01*
X89423811Y-30773379D02*
X88814287Y-30773379D01*
X90376191Y-30925760D02*
X90490477Y-30963855D01*
X90490477Y-30963855D02*
X90680953Y-30963855D01*
X90680953Y-30963855D02*
X90757144Y-30925760D01*
X90757144Y-30925760D02*
X90795239Y-30887664D01*
X90795239Y-30887664D02*
X90833334Y-30811474D01*
X90833334Y-30811474D02*
X90833334Y-30735283D01*
X90833334Y-30735283D02*
X90795239Y-30659093D01*
X90795239Y-30659093D02*
X90757144Y-30620998D01*
X90757144Y-30620998D02*
X90680953Y-30582902D01*
X90680953Y-30582902D02*
X90528572Y-30544807D01*
X90528572Y-30544807D02*
X90452382Y-30506712D01*
X90452382Y-30506712D02*
X90414287Y-30468617D01*
X90414287Y-30468617D02*
X90376191Y-30392426D01*
X90376191Y-30392426D02*
X90376191Y-30316236D01*
X90376191Y-30316236D02*
X90414287Y-30240045D01*
X90414287Y-30240045D02*
X90452382Y-30201950D01*
X90452382Y-30201950D02*
X90528572Y-30163855D01*
X90528572Y-30163855D02*
X90719049Y-30163855D01*
X90719049Y-30163855D02*
X90833334Y-30201950D01*
X91061906Y-30163855D02*
X91519049Y-30163855D01*
X91290477Y-30963855D02*
X91290477Y-30163855D01*
X91938097Y-30163855D02*
X92090478Y-30163855D01*
X92090478Y-30163855D02*
X92166668Y-30201950D01*
X92166668Y-30201950D02*
X92242859Y-30278140D01*
X92242859Y-30278140D02*
X92280954Y-30430521D01*
X92280954Y-30430521D02*
X92280954Y-30697188D01*
X92280954Y-30697188D02*
X92242859Y-30849569D01*
X92242859Y-30849569D02*
X92166668Y-30925760D01*
X92166668Y-30925760D02*
X92090478Y-30963855D01*
X92090478Y-30963855D02*
X91938097Y-30963855D01*
X91938097Y-30963855D02*
X91861906Y-30925760D01*
X91861906Y-30925760D02*
X91785716Y-30849569D01*
X91785716Y-30849569D02*
X91747620Y-30697188D01*
X91747620Y-30697188D02*
X91747620Y-30430521D01*
X91747620Y-30430521D02*
X91785716Y-30278140D01*
X91785716Y-30278140D02*
X91861906Y-30201950D01*
X91861906Y-30201950D02*
X91938097Y-30163855D01*
X92623811Y-30963855D02*
X92623811Y-30163855D01*
X92623811Y-30163855D02*
X92928573Y-30163855D01*
X92928573Y-30163855D02*
X93004763Y-30201950D01*
X93004763Y-30201950D02*
X93042858Y-30240045D01*
X93042858Y-30240045D02*
X93080954Y-30316236D01*
X93080954Y-30316236D02*
X93080954Y-30430521D01*
X93080954Y-30430521D02*
X93042858Y-30506712D01*
X93042858Y-30506712D02*
X93004763Y-30544807D01*
X93004763Y-30544807D02*
X92928573Y-30582902D01*
X92928573Y-30582902D02*
X92623811Y-30582902D01*
X94261906Y-31268617D02*
X94223811Y-31230521D01*
X94223811Y-31230521D02*
X94147620Y-31116236D01*
X94147620Y-31116236D02*
X94109525Y-31040045D01*
X94109525Y-31040045D02*
X94071430Y-30925760D01*
X94071430Y-30925760D02*
X94033335Y-30735283D01*
X94033335Y-30735283D02*
X94033335Y-30582902D01*
X94033335Y-30582902D02*
X94071430Y-30392426D01*
X94071430Y-30392426D02*
X94109525Y-30278140D01*
X94109525Y-30278140D02*
X94147620Y-30201950D01*
X94147620Y-30201950D02*
X94223811Y-30087664D01*
X94223811Y-30087664D02*
X94261906Y-30049569D01*
X94490477Y-30430521D02*
X94642858Y-30963855D01*
X94642858Y-30963855D02*
X94795239Y-30582902D01*
X94795239Y-30582902D02*
X94947620Y-30963855D01*
X94947620Y-30963855D02*
X95100001Y-30430521D01*
X95328572Y-30430521D02*
X95519048Y-30963855D01*
X95709525Y-30430521D02*
X95519048Y-30963855D01*
X95519048Y-30963855D02*
X95442858Y-31154331D01*
X95442858Y-31154331D02*
X95404763Y-31192426D01*
X95404763Y-31192426D02*
X95328572Y-31230521D01*
X96014287Y-30430521D02*
X96014287Y-31116236D01*
X96014287Y-31116236D02*
X95976191Y-31192426D01*
X95976191Y-31192426D02*
X95900001Y-31230521D01*
X95900001Y-31230521D02*
X95861906Y-31230521D01*
X96014287Y-30163855D02*
X95976191Y-30201950D01*
X95976191Y-30201950D02*
X96014287Y-30240045D01*
X96014287Y-30240045D02*
X96052382Y-30201950D01*
X96052382Y-30201950D02*
X96014287Y-30163855D01*
X96014287Y-30163855D02*
X96014287Y-30240045D01*
X96357143Y-30925760D02*
X96433334Y-30963855D01*
X96433334Y-30963855D02*
X96585715Y-30963855D01*
X96585715Y-30963855D02*
X96661905Y-30925760D01*
X96661905Y-30925760D02*
X96700001Y-30849569D01*
X96700001Y-30849569D02*
X96700001Y-30811474D01*
X96700001Y-30811474D02*
X96661905Y-30735283D01*
X96661905Y-30735283D02*
X96585715Y-30697188D01*
X96585715Y-30697188D02*
X96471429Y-30697188D01*
X96471429Y-30697188D02*
X96395239Y-30659093D01*
X96395239Y-30659093D02*
X96357143Y-30582902D01*
X96357143Y-30582902D02*
X96357143Y-30544807D01*
X96357143Y-30544807D02*
X96395239Y-30468617D01*
X96395239Y-30468617D02*
X96471429Y-30430521D01*
X96471429Y-30430521D02*
X96585715Y-30430521D01*
X96585715Y-30430521D02*
X96661905Y-30468617D01*
X97385715Y-30925760D02*
X97309524Y-30963855D01*
X97309524Y-30963855D02*
X97157143Y-30963855D01*
X97157143Y-30963855D02*
X97080953Y-30925760D01*
X97080953Y-30925760D02*
X97042858Y-30887664D01*
X97042858Y-30887664D02*
X97004762Y-30811474D01*
X97004762Y-30811474D02*
X97004762Y-30582902D01*
X97004762Y-30582902D02*
X97042858Y-30506712D01*
X97042858Y-30506712D02*
X97080953Y-30468617D01*
X97080953Y-30468617D02*
X97157143Y-30430521D01*
X97157143Y-30430521D02*
X97309524Y-30430521D01*
X97309524Y-30430521D02*
X97385715Y-30468617D01*
X97728572Y-30963855D02*
X97728572Y-30430521D01*
X97728572Y-30163855D02*
X97690476Y-30201950D01*
X97690476Y-30201950D02*
X97728572Y-30240045D01*
X97728572Y-30240045D02*
X97766667Y-30201950D01*
X97766667Y-30201950D02*
X97728572Y-30163855D01*
X97728572Y-30163855D02*
X97728572Y-30240045D01*
X98414286Y-30925760D02*
X98338095Y-30963855D01*
X98338095Y-30963855D02*
X98185714Y-30963855D01*
X98185714Y-30963855D02*
X98109524Y-30925760D01*
X98109524Y-30925760D02*
X98071428Y-30849569D01*
X98071428Y-30849569D02*
X98071428Y-30544807D01*
X98071428Y-30544807D02*
X98109524Y-30468617D01*
X98109524Y-30468617D02*
X98185714Y-30430521D01*
X98185714Y-30430521D02*
X98338095Y-30430521D01*
X98338095Y-30430521D02*
X98414286Y-30468617D01*
X98414286Y-30468617D02*
X98452381Y-30544807D01*
X98452381Y-30544807D02*
X98452381Y-30620998D01*
X98452381Y-30620998D02*
X98071428Y-30697188D01*
X99785714Y-30963855D02*
X99404762Y-30963855D01*
X99404762Y-30963855D02*
X99404762Y-30163855D01*
X99976190Y-31268617D02*
X100014285Y-31230521D01*
X100014285Y-31230521D02*
X100090476Y-31116236D01*
X100090476Y-31116236D02*
X100128571Y-31040045D01*
X100128571Y-31040045D02*
X100166666Y-30925760D01*
X100166666Y-30925760D02*
X100204762Y-30735283D01*
X100204762Y-30735283D02*
X100204762Y-30582902D01*
X100204762Y-30582902D02*
X100166666Y-30392426D01*
X100166666Y-30392426D02*
X100128571Y-30278140D01*
X100128571Y-30278140D02*
X100090476Y-30201950D01*
X100090476Y-30201950D02*
X100014285Y-30087664D01*
X100014285Y-30087664D02*
X99976190Y-30049569D01*
X13064286Y-10752974D02*
X12978572Y-10710117D01*
X12978572Y-10710117D02*
X12850000Y-10710117D01*
X12850000Y-10710117D02*
X12721429Y-10752974D01*
X12721429Y-10752974D02*
X12635714Y-10838688D01*
X12635714Y-10838688D02*
X12592857Y-10924402D01*
X12592857Y-10924402D02*
X12550000Y-11095831D01*
X12550000Y-11095831D02*
X12550000Y-11224402D01*
X12550000Y-11224402D02*
X12592857Y-11395831D01*
X12592857Y-11395831D02*
X12635714Y-11481545D01*
X12635714Y-11481545D02*
X12721429Y-11567260D01*
X12721429Y-11567260D02*
X12850000Y-11610117D01*
X12850000Y-11610117D02*
X12935714Y-11610117D01*
X12935714Y-11610117D02*
X13064286Y-11567260D01*
X13064286Y-11567260D02*
X13107143Y-11524402D01*
X13107143Y-11524402D02*
X13107143Y-11224402D01*
X13107143Y-11224402D02*
X12935714Y-11224402D01*
X13492857Y-11610117D02*
X13492857Y-10710117D01*
X13492857Y-10710117D02*
X14007143Y-11610117D01*
X14007143Y-11610117D02*
X14007143Y-10710117D01*
X14435714Y-11610117D02*
X14435714Y-10710117D01*
X14435714Y-10710117D02*
X14650000Y-10710117D01*
X14650000Y-10710117D02*
X14778571Y-10752974D01*
X14778571Y-10752974D02*
X14864286Y-10838688D01*
X14864286Y-10838688D02*
X14907143Y-10924402D01*
X14907143Y-10924402D02*
X14950000Y-11095831D01*
X14950000Y-11095831D02*
X14950000Y-11224402D01*
X14950000Y-11224402D02*
X14907143Y-11395831D01*
X14907143Y-11395831D02*
X14864286Y-11481545D01*
X14864286Y-11481545D02*
X14778571Y-11567260D01*
X14778571Y-11567260D02*
X14650000Y-11610117D01*
X14650000Y-11610117D02*
X14435714Y-11610117D01*
X11964285Y-25467260D02*
X12650000Y-25467260D01*
X12307142Y-25810117D02*
X12307142Y-25124402D01*
X12950000Y-24910117D02*
X13250000Y-25810117D01*
X13250000Y-25810117D02*
X13550000Y-24910117D01*
X13850000Y-25810117D02*
X13850000Y-24910117D01*
X14278571Y-25810117D02*
X14278571Y-24910117D01*
X14278571Y-24910117D02*
X14792857Y-25810117D01*
X14792857Y-25810117D02*
X14792857Y-24910117D01*
X16292857Y-24910117D02*
X16121428Y-24910117D01*
X16121428Y-24910117D02*
X16035714Y-24952974D01*
X16035714Y-24952974D02*
X15992857Y-24995831D01*
X15992857Y-24995831D02*
X15907142Y-25124402D01*
X15907142Y-25124402D02*
X15864285Y-25295831D01*
X15864285Y-25295831D02*
X15864285Y-25638688D01*
X15864285Y-25638688D02*
X15907142Y-25724402D01*
X15907142Y-25724402D02*
X15949999Y-25767260D01*
X15949999Y-25767260D02*
X16035714Y-25810117D01*
X16035714Y-25810117D02*
X16207142Y-25810117D01*
X16207142Y-25810117D02*
X16292857Y-25767260D01*
X16292857Y-25767260D02*
X16335714Y-25724402D01*
X16335714Y-25724402D02*
X16378571Y-25638688D01*
X16378571Y-25638688D02*
X16378571Y-25424402D01*
X16378571Y-25424402D02*
X16335714Y-25338688D01*
X16335714Y-25338688D02*
X16292857Y-25295831D01*
X16292857Y-25295831D02*
X16207142Y-25252974D01*
X16207142Y-25252974D02*
X16035714Y-25252974D01*
X16035714Y-25252974D02*
X15949999Y-25295831D01*
X15949999Y-25295831D02*
X15907142Y-25338688D01*
X15907142Y-25338688D02*
X15864285Y-25424402D01*
X16764285Y-25467260D02*
X17450000Y-25467260D01*
X18350000Y-25810117D02*
X17835714Y-25810117D01*
X18092857Y-25810117D02*
X18092857Y-24910117D01*
X18092857Y-24910117D02*
X18007143Y-25038688D01*
X18007143Y-25038688D02*
X17921428Y-25124402D01*
X17921428Y-25124402D02*
X17835714Y-25167260D01*
X19164286Y-24910117D02*
X18735714Y-24910117D01*
X18735714Y-24910117D02*
X18692857Y-25338688D01*
X18692857Y-25338688D02*
X18735714Y-25295831D01*
X18735714Y-25295831D02*
X18821429Y-25252974D01*
X18821429Y-25252974D02*
X19035714Y-25252974D01*
X19035714Y-25252974D02*
X19121429Y-25295831D01*
X19121429Y-25295831D02*
X19164286Y-25338688D01*
X19164286Y-25338688D02*
X19207143Y-25424402D01*
X19207143Y-25424402D02*
X19207143Y-25638688D01*
X19207143Y-25638688D02*
X19164286Y-25724402D01*
X19164286Y-25724402D02*
X19121429Y-25767260D01*
X19121429Y-25767260D02*
X19035714Y-25810117D01*
X19035714Y-25810117D02*
X18821429Y-25810117D01*
X18821429Y-25810117D02*
X18735714Y-25767260D01*
X18735714Y-25767260D02*
X18692857Y-25724402D01*
X19464286Y-24910117D02*
X19764286Y-25810117D01*
X19764286Y-25810117D02*
X20064286Y-24910117D01*
X35857146Y-33967260D02*
X35985718Y-34010117D01*
X35985718Y-34010117D02*
X36200003Y-34010117D01*
X36200003Y-34010117D02*
X36285718Y-33967260D01*
X36285718Y-33967260D02*
X36328575Y-33924402D01*
X36328575Y-33924402D02*
X36371432Y-33838688D01*
X36371432Y-33838688D02*
X36371432Y-33752974D01*
X36371432Y-33752974D02*
X36328575Y-33667260D01*
X36328575Y-33667260D02*
X36285718Y-33624402D01*
X36285718Y-33624402D02*
X36200003Y-33581545D01*
X36200003Y-33581545D02*
X36028575Y-33538688D01*
X36028575Y-33538688D02*
X35942860Y-33495831D01*
X35942860Y-33495831D02*
X35900003Y-33452974D01*
X35900003Y-33452974D02*
X35857146Y-33367260D01*
X35857146Y-33367260D02*
X35857146Y-33281545D01*
X35857146Y-33281545D02*
X35900003Y-33195831D01*
X35900003Y-33195831D02*
X35942860Y-33152974D01*
X35942860Y-33152974D02*
X36028575Y-33110117D01*
X36028575Y-33110117D02*
X36242860Y-33110117D01*
X36242860Y-33110117D02*
X36371432Y-33152974D01*
X36757146Y-33110117D02*
X36757146Y-33838688D01*
X36757146Y-33838688D02*
X36800003Y-33924402D01*
X36800003Y-33924402D02*
X36842861Y-33967260D01*
X36842861Y-33967260D02*
X36928575Y-34010117D01*
X36928575Y-34010117D02*
X37100003Y-34010117D01*
X37100003Y-34010117D02*
X37185718Y-33967260D01*
X37185718Y-33967260D02*
X37228575Y-33924402D01*
X37228575Y-33924402D02*
X37271432Y-33838688D01*
X37271432Y-33838688D02*
X37271432Y-33110117D01*
X37614289Y-33110117D02*
X37828575Y-34010117D01*
X37828575Y-34010117D02*
X38000003Y-33367260D01*
X38000003Y-33367260D02*
X38171432Y-34010117D01*
X38171432Y-34010117D02*
X38385718Y-33110117D01*
X38685717Y-33752974D02*
X39114289Y-33752974D01*
X38600003Y-34010117D02*
X38900003Y-33110117D01*
X38900003Y-33110117D02*
X39200003Y-34010117D01*
X39500003Y-34010117D02*
X39500003Y-33110117D01*
X40014289Y-34010117D02*
X39628575Y-33495831D01*
X40014289Y-33110117D02*
X39500003Y-33624402D01*
X41000003Y-33110117D02*
X41214289Y-34010117D01*
X41214289Y-34010117D02*
X41385717Y-33367260D01*
X41385717Y-33367260D02*
X41557146Y-34010117D01*
X41557146Y-34010117D02*
X41771432Y-33110117D01*
X43271431Y-33152974D02*
X43185717Y-33110117D01*
X43185717Y-33110117D02*
X43057145Y-33110117D01*
X43057145Y-33110117D02*
X42928574Y-33152974D01*
X42928574Y-33152974D02*
X42842859Y-33238688D01*
X42842859Y-33238688D02*
X42800002Y-33324402D01*
X42800002Y-33324402D02*
X42757145Y-33495831D01*
X42757145Y-33495831D02*
X42757145Y-33624402D01*
X42757145Y-33624402D02*
X42800002Y-33795831D01*
X42800002Y-33795831D02*
X42842859Y-33881545D01*
X42842859Y-33881545D02*
X42928574Y-33967260D01*
X42928574Y-33967260D02*
X43057145Y-34010117D01*
X43057145Y-34010117D02*
X43142859Y-34010117D01*
X43142859Y-34010117D02*
X43271431Y-33967260D01*
X43271431Y-33967260D02*
X43314288Y-33924402D01*
X43314288Y-33924402D02*
X43314288Y-33624402D01*
X43314288Y-33624402D02*
X43142859Y-33624402D01*
X43871431Y-33110117D02*
X44042859Y-33110117D01*
X44042859Y-33110117D02*
X44128574Y-33152974D01*
X44128574Y-33152974D02*
X44214288Y-33238688D01*
X44214288Y-33238688D02*
X44257145Y-33410117D01*
X44257145Y-33410117D02*
X44257145Y-33710117D01*
X44257145Y-33710117D02*
X44214288Y-33881545D01*
X44214288Y-33881545D02*
X44128574Y-33967260D01*
X44128574Y-33967260D02*
X44042859Y-34010117D01*
X44042859Y-34010117D02*
X43871431Y-34010117D01*
X43871431Y-34010117D02*
X43785717Y-33967260D01*
X43785717Y-33967260D02*
X43700002Y-33881545D01*
X43700002Y-33881545D02*
X43657145Y-33710117D01*
X43657145Y-33710117D02*
X43657145Y-33410117D01*
X43657145Y-33410117D02*
X43700002Y-33238688D01*
X43700002Y-33238688D02*
X43785717Y-33152974D01*
X43785717Y-33152974D02*
X43871431Y-33110117D01*
X45157145Y-34010117D02*
X44857145Y-33581545D01*
X44642859Y-34010117D02*
X44642859Y-33110117D01*
X44642859Y-33110117D02*
X44985716Y-33110117D01*
X44985716Y-33110117D02*
X45071431Y-33152974D01*
X45071431Y-33152974D02*
X45114288Y-33195831D01*
X45114288Y-33195831D02*
X45157145Y-33281545D01*
X45157145Y-33281545D02*
X45157145Y-33410117D01*
X45157145Y-33410117D02*
X45114288Y-33495831D01*
X45114288Y-33495831D02*
X45071431Y-33538688D01*
X45071431Y-33538688D02*
X44985716Y-33581545D01*
X44985716Y-33581545D02*
X44642859Y-33581545D01*
X45542859Y-33538688D02*
X45842859Y-33538688D01*
X45971431Y-34010117D02*
X45542859Y-34010117D01*
X45542859Y-34010117D02*
X45542859Y-33110117D01*
X45542859Y-33110117D02*
X45971431Y-33110117D01*
X47042859Y-33538688D02*
X47728574Y-33538688D01*
X47728574Y-33795831D02*
X47042859Y-33795831D01*
X48842859Y-34010117D02*
X48842859Y-33110117D01*
X48842859Y-33538688D02*
X49357145Y-33538688D01*
X49357145Y-34010117D02*
X49357145Y-33110117D01*
X50728573Y-34352974D02*
X50685716Y-34310117D01*
X50685716Y-34310117D02*
X50600002Y-34181545D01*
X50600002Y-34181545D02*
X50557145Y-34095831D01*
X50557145Y-34095831D02*
X50514287Y-33967260D01*
X50514287Y-33967260D02*
X50471430Y-33752974D01*
X50471430Y-33752974D02*
X50471430Y-33581545D01*
X50471430Y-33581545D02*
X50514287Y-33367260D01*
X50514287Y-33367260D02*
X50557145Y-33238688D01*
X50557145Y-33238688D02*
X50600002Y-33152974D01*
X50600002Y-33152974D02*
X50685716Y-33024402D01*
X50685716Y-33024402D02*
X50728573Y-32981545D01*
X50985716Y-33110117D02*
X51542859Y-33110117D01*
X51542859Y-33110117D02*
X51242859Y-33452974D01*
X51242859Y-33452974D02*
X51371430Y-33452974D01*
X51371430Y-33452974D02*
X51457145Y-33495831D01*
X51457145Y-33495831D02*
X51500002Y-33538688D01*
X51500002Y-33538688D02*
X51542859Y-33624402D01*
X51542859Y-33624402D02*
X51542859Y-33838688D01*
X51542859Y-33838688D02*
X51500002Y-33924402D01*
X51500002Y-33924402D02*
X51457145Y-33967260D01*
X51457145Y-33967260D02*
X51371430Y-34010117D01*
X51371430Y-34010117D02*
X51114287Y-34010117D01*
X51114287Y-34010117D02*
X51028573Y-33967260D01*
X51028573Y-33967260D02*
X50985716Y-33924402D01*
X51800002Y-33110117D02*
X52100002Y-34010117D01*
X52100002Y-34010117D02*
X52400002Y-33110117D01*
X52614288Y-33110117D02*
X53171431Y-33110117D01*
X53171431Y-33110117D02*
X52871431Y-33452974D01*
X52871431Y-33452974D02*
X53000002Y-33452974D01*
X53000002Y-33452974D02*
X53085717Y-33495831D01*
X53085717Y-33495831D02*
X53128574Y-33538688D01*
X53128574Y-33538688D02*
X53171431Y-33624402D01*
X53171431Y-33624402D02*
X53171431Y-33838688D01*
X53171431Y-33838688D02*
X53128574Y-33924402D01*
X53128574Y-33924402D02*
X53085717Y-33967260D01*
X53085717Y-33967260D02*
X53000002Y-34010117D01*
X53000002Y-34010117D02*
X52742859Y-34010117D01*
X52742859Y-34010117D02*
X52657145Y-33967260D01*
X52657145Y-33967260D02*
X52614288Y-33924402D01*
X53471431Y-34352974D02*
X53514288Y-34310117D01*
X53514288Y-34310117D02*
X53600002Y-34181545D01*
X53600002Y-34181545D02*
X53642860Y-34095831D01*
X53642860Y-34095831D02*
X53685717Y-33967260D01*
X53685717Y-33967260D02*
X53728574Y-33752974D01*
X53728574Y-33752974D02*
X53728574Y-33581545D01*
X53728574Y-33581545D02*
X53685717Y-33367260D01*
X53685717Y-33367260D02*
X53642860Y-33238688D01*
X53642860Y-33238688D02*
X53600002Y-33152974D01*
X53600002Y-33152974D02*
X53514288Y-33024402D01*
X53514288Y-33024402D02*
X53471431Y-32981545D01*
X54200002Y-33967260D02*
X54200002Y-34010117D01*
X54200002Y-34010117D02*
X54157145Y-34095831D01*
X54157145Y-34095831D02*
X54114288Y-34138688D01*
X55185716Y-33110117D02*
X55400002Y-34010117D01*
X55400002Y-34010117D02*
X55571430Y-33367260D01*
X55571430Y-33367260D02*
X55742859Y-34010117D01*
X55742859Y-34010117D02*
X55957145Y-33110117D01*
X56985715Y-34010117D02*
X56985715Y-33110117D01*
X56985715Y-33110117D02*
X57200001Y-33110117D01*
X57200001Y-33110117D02*
X57328572Y-33152974D01*
X57328572Y-33152974D02*
X57414287Y-33238688D01*
X57414287Y-33238688D02*
X57457144Y-33324402D01*
X57457144Y-33324402D02*
X57500001Y-33495831D01*
X57500001Y-33495831D02*
X57500001Y-33624402D01*
X57500001Y-33624402D02*
X57457144Y-33795831D01*
X57457144Y-33795831D02*
X57414287Y-33881545D01*
X57414287Y-33881545D02*
X57328572Y-33967260D01*
X57328572Y-33967260D02*
X57200001Y-34010117D01*
X57200001Y-34010117D02*
X56985715Y-34010117D01*
X58057144Y-33110117D02*
X58228572Y-33110117D01*
X58228572Y-33110117D02*
X58314287Y-33152974D01*
X58314287Y-33152974D02*
X58400001Y-33238688D01*
X58400001Y-33238688D02*
X58442858Y-33410117D01*
X58442858Y-33410117D02*
X58442858Y-33710117D01*
X58442858Y-33710117D02*
X58400001Y-33881545D01*
X58400001Y-33881545D02*
X58314287Y-33967260D01*
X58314287Y-33967260D02*
X58228572Y-34010117D01*
X58228572Y-34010117D02*
X58057144Y-34010117D01*
X58057144Y-34010117D02*
X57971430Y-33967260D01*
X57971430Y-33967260D02*
X57885715Y-33881545D01*
X57885715Y-33881545D02*
X57842858Y-33710117D01*
X57842858Y-33710117D02*
X57842858Y-33410117D01*
X57842858Y-33410117D02*
X57885715Y-33238688D01*
X57885715Y-33238688D02*
X57971430Y-33152974D01*
X57971430Y-33152974D02*
X58057144Y-33110117D01*
X59257144Y-34010117D02*
X58828572Y-34010117D01*
X58828572Y-34010117D02*
X58828572Y-33110117D01*
X60242857Y-33538688D02*
X60928572Y-33538688D01*
X60928572Y-33795831D02*
X60242857Y-33795831D01*
X62471429Y-34010117D02*
X62042857Y-34010117D01*
X62042857Y-34010117D02*
X62042857Y-33110117D01*
X63714285Y-34352974D02*
X63671428Y-34310117D01*
X63671428Y-34310117D02*
X63585714Y-34181545D01*
X63585714Y-34181545D02*
X63542857Y-34095831D01*
X63542857Y-34095831D02*
X63499999Y-33967260D01*
X63499999Y-33967260D02*
X63457142Y-33752974D01*
X63457142Y-33752974D02*
X63457142Y-33581545D01*
X63457142Y-33581545D02*
X63499999Y-33367260D01*
X63499999Y-33367260D02*
X63542857Y-33238688D01*
X63542857Y-33238688D02*
X63585714Y-33152974D01*
X63585714Y-33152974D02*
X63671428Y-33024402D01*
X63671428Y-33024402D02*
X63714285Y-32981545D01*
X64528571Y-33152974D02*
X64442857Y-33110117D01*
X64442857Y-33110117D02*
X64314285Y-33110117D01*
X64314285Y-33110117D02*
X64185714Y-33152974D01*
X64185714Y-33152974D02*
X64099999Y-33238688D01*
X64099999Y-33238688D02*
X64057142Y-33324402D01*
X64057142Y-33324402D02*
X64014285Y-33495831D01*
X64014285Y-33495831D02*
X64014285Y-33624402D01*
X64014285Y-33624402D02*
X64057142Y-33795831D01*
X64057142Y-33795831D02*
X64099999Y-33881545D01*
X64099999Y-33881545D02*
X64185714Y-33967260D01*
X64185714Y-33967260D02*
X64314285Y-34010117D01*
X64314285Y-34010117D02*
X64399999Y-34010117D01*
X64399999Y-34010117D02*
X64528571Y-33967260D01*
X64528571Y-33967260D02*
X64571428Y-33924402D01*
X64571428Y-33924402D02*
X64571428Y-33624402D01*
X64571428Y-33624402D02*
X64399999Y-33624402D01*
X64957142Y-34010117D02*
X64957142Y-33110117D01*
X64957142Y-33110117D02*
X65471428Y-34010117D01*
X65471428Y-34010117D02*
X65471428Y-33110117D01*
X65899999Y-34010117D02*
X65899999Y-33110117D01*
X65899999Y-33110117D02*
X66114285Y-33110117D01*
X66114285Y-33110117D02*
X66242856Y-33152974D01*
X66242856Y-33152974D02*
X66328571Y-33238688D01*
X66328571Y-33238688D02*
X66371428Y-33324402D01*
X66371428Y-33324402D02*
X66414285Y-33495831D01*
X66414285Y-33495831D02*
X66414285Y-33624402D01*
X66414285Y-33624402D02*
X66371428Y-33795831D01*
X66371428Y-33795831D02*
X66328571Y-33881545D01*
X66328571Y-33881545D02*
X66242856Y-33967260D01*
X66242856Y-33967260D02*
X66114285Y-34010117D01*
X66114285Y-34010117D02*
X65899999Y-34010117D01*
X66714285Y-34352974D02*
X66757142Y-34310117D01*
X66757142Y-34310117D02*
X66842856Y-34181545D01*
X66842856Y-34181545D02*
X66885714Y-34095831D01*
X66885714Y-34095831D02*
X66928571Y-33967260D01*
X66928571Y-33967260D02*
X66971428Y-33752974D01*
X66971428Y-33752974D02*
X66971428Y-33581545D01*
X66971428Y-33581545D02*
X66928571Y-33367260D01*
X66928571Y-33367260D02*
X66885714Y-33238688D01*
X66885714Y-33238688D02*
X66842856Y-33152974D01*
X66842856Y-33152974D02*
X66757142Y-33024402D01*
X66757142Y-33024402D02*
X66714285Y-32981545D01*
X67442856Y-33967260D02*
X67442856Y-34010117D01*
X67442856Y-34010117D02*
X67399999Y-34095831D01*
X67399999Y-34095831D02*
X67357142Y-34138688D01*
X67399999Y-33452974D02*
X67442856Y-33495831D01*
X67442856Y-33495831D02*
X67399999Y-33538688D01*
X67399999Y-33538688D02*
X67357142Y-33495831D01*
X67357142Y-33495831D02*
X67399999Y-33452974D01*
X67399999Y-33452974D02*
X67399999Y-33538688D01*
X68942856Y-34010117D02*
X68514284Y-34010117D01*
X68514284Y-34010117D02*
X68514284Y-33110117D01*
X69242855Y-33538688D02*
X69542855Y-33538688D01*
X69671427Y-34010117D02*
X69242855Y-34010117D01*
X69242855Y-34010117D02*
X69242855Y-33110117D01*
X69242855Y-33110117D02*
X69671427Y-33110117D01*
X70057141Y-34010117D02*
X70057141Y-33110117D01*
X70057141Y-33110117D02*
X70271427Y-33110117D01*
X70271427Y-33110117D02*
X70399998Y-33152974D01*
X70399998Y-33152974D02*
X70485713Y-33238688D01*
X70485713Y-33238688D02*
X70528570Y-33324402D01*
X70528570Y-33324402D02*
X70571427Y-33495831D01*
X70571427Y-33495831D02*
X70571427Y-33624402D01*
X70571427Y-33624402D02*
X70528570Y-33795831D01*
X70528570Y-33795831D02*
X70485713Y-33881545D01*
X70485713Y-33881545D02*
X70399998Y-33967260D01*
X70399998Y-33967260D02*
X70271427Y-34010117D01*
X70271427Y-34010117D02*
X70057141Y-34010117D01*
X71599998Y-33967260D02*
X71728570Y-34010117D01*
X71728570Y-34010117D02*
X71942855Y-34010117D01*
X71942855Y-34010117D02*
X72028570Y-33967260D01*
X72028570Y-33967260D02*
X72071427Y-33924402D01*
X72071427Y-33924402D02*
X72114284Y-33838688D01*
X72114284Y-33838688D02*
X72114284Y-33752974D01*
X72114284Y-33752974D02*
X72071427Y-33667260D01*
X72071427Y-33667260D02*
X72028570Y-33624402D01*
X72028570Y-33624402D02*
X71942855Y-33581545D01*
X71942855Y-33581545D02*
X71771427Y-33538688D01*
X71771427Y-33538688D02*
X71685712Y-33495831D01*
X71685712Y-33495831D02*
X71642855Y-33452974D01*
X71642855Y-33452974D02*
X71599998Y-33367260D01*
X71599998Y-33367260D02*
X71599998Y-33281545D01*
X71599998Y-33281545D02*
X71642855Y-33195831D01*
X71642855Y-33195831D02*
X71685712Y-33152974D01*
X71685712Y-33152974D02*
X71771427Y-33110117D01*
X71771427Y-33110117D02*
X71985712Y-33110117D01*
X71985712Y-33110117D02*
X72114284Y-33152974D01*
X72414284Y-33110117D02*
X72628570Y-34010117D01*
X72628570Y-34010117D02*
X72799998Y-33367260D01*
X72799998Y-33367260D02*
X72971427Y-34010117D01*
X72971427Y-34010117D02*
X73185713Y-33110117D01*
X73528569Y-34010117D02*
X73528569Y-33110117D01*
X73957140Y-33538688D02*
X74257140Y-33538688D01*
X74385712Y-34010117D02*
X73957140Y-34010117D01*
X73957140Y-34010117D02*
X73957140Y-33110117D01*
X73957140Y-33110117D02*
X74385712Y-33110117D01*
X75285712Y-33924402D02*
X75242855Y-33967260D01*
X75242855Y-33967260D02*
X75114283Y-34010117D01*
X75114283Y-34010117D02*
X75028569Y-34010117D01*
X75028569Y-34010117D02*
X74899998Y-33967260D01*
X74899998Y-33967260D02*
X74814283Y-33881545D01*
X74814283Y-33881545D02*
X74771426Y-33795831D01*
X74771426Y-33795831D02*
X74728569Y-33624402D01*
X74728569Y-33624402D02*
X74728569Y-33495831D01*
X74728569Y-33495831D02*
X74771426Y-33324402D01*
X74771426Y-33324402D02*
X74814283Y-33238688D01*
X74814283Y-33238688D02*
X74899998Y-33152974D01*
X74899998Y-33152974D02*
X75028569Y-33110117D01*
X75028569Y-33110117D02*
X75114283Y-33110117D01*
X75114283Y-33110117D02*
X75242855Y-33152974D01*
X75242855Y-33152974D02*
X75285712Y-33195831D01*
X75671426Y-34010117D02*
X75671426Y-33110117D01*
X76785711Y-33538688D02*
X77471426Y-33538688D01*
X77471426Y-33795831D02*
X76785711Y-33795831D01*
X78585711Y-34010117D02*
X78585711Y-33110117D01*
X78585711Y-33538688D02*
X79099997Y-33538688D01*
X79099997Y-34010117D02*
X79099997Y-33110117D01*
X39092858Y-62910117D02*
X39092858Y-63552974D01*
X39092858Y-63552974D02*
X39050001Y-63681545D01*
X39050001Y-63681545D02*
X38964287Y-63767260D01*
X38964287Y-63767260D02*
X38835715Y-63810117D01*
X38835715Y-63810117D02*
X38750001Y-63810117D01*
X39992858Y-63810117D02*
X39478572Y-63810117D01*
X39735715Y-63810117D02*
X39735715Y-62910117D01*
X39735715Y-62910117D02*
X39650001Y-63038688D01*
X39650001Y-63038688D02*
X39564286Y-63124402D01*
X39564286Y-63124402D02*
X39478572Y-63167260D01*
X40378572Y-63467260D02*
X41064287Y-63467260D01*
X41750001Y-62910117D02*
X41750001Y-63552974D01*
X41750001Y-63552974D02*
X41707144Y-63681545D01*
X41707144Y-63681545D02*
X41621430Y-63767260D01*
X41621430Y-63767260D02*
X41492858Y-63810117D01*
X41492858Y-63810117D02*
X41407144Y-63810117D01*
X42221429Y-63810117D02*
X42392858Y-63810117D01*
X42392858Y-63810117D02*
X42478572Y-63767260D01*
X42478572Y-63767260D02*
X42521429Y-63724402D01*
X42521429Y-63724402D02*
X42607144Y-63595831D01*
X42607144Y-63595831D02*
X42650001Y-63424402D01*
X42650001Y-63424402D02*
X42650001Y-63081545D01*
X42650001Y-63081545D02*
X42607144Y-62995831D01*
X42607144Y-62995831D02*
X42564287Y-62952974D01*
X42564287Y-62952974D02*
X42478572Y-62910117D01*
X42478572Y-62910117D02*
X42307144Y-62910117D01*
X42307144Y-62910117D02*
X42221429Y-62952974D01*
X42221429Y-62952974D02*
X42178572Y-62995831D01*
X42178572Y-62995831D02*
X42135715Y-63081545D01*
X42135715Y-63081545D02*
X42135715Y-63295831D01*
X42135715Y-63295831D02*
X42178572Y-63381545D01*
X42178572Y-63381545D02*
X42221429Y-63424402D01*
X42221429Y-63424402D02*
X42307144Y-63467260D01*
X42307144Y-63467260D02*
X42478572Y-63467260D01*
X42478572Y-63467260D02*
X42564287Y-63424402D01*
X42564287Y-63424402D02*
X42607144Y-63381545D01*
X42607144Y-63381545D02*
X42650001Y-63295831D01*
X43035715Y-63724402D02*
X43078572Y-63767260D01*
X43078572Y-63767260D02*
X43035715Y-63810117D01*
X43035715Y-63810117D02*
X42992858Y-63767260D01*
X42992858Y-63767260D02*
X43035715Y-63724402D01*
X43035715Y-63724402D02*
X43035715Y-63810117D01*
X43035715Y-63252974D02*
X43078572Y-63295831D01*
X43078572Y-63295831D02*
X43035715Y-63338688D01*
X43035715Y-63338688D02*
X42992858Y-63295831D01*
X42992858Y-63295831D02*
X43035715Y-63252974D01*
X43035715Y-63252974D02*
X43035715Y-63338688D01*
X44578572Y-63810117D02*
X44150000Y-63810117D01*
X44150000Y-63810117D02*
X44150000Y-62910117D01*
X44878571Y-63338688D02*
X45178571Y-63338688D01*
X45307143Y-63810117D02*
X44878571Y-63810117D01*
X44878571Y-63810117D02*
X44878571Y-62910117D01*
X44878571Y-62910117D02*
X45307143Y-62910117D01*
X45607143Y-62910117D02*
X45821429Y-63810117D01*
X45821429Y-63810117D02*
X45992857Y-63167260D01*
X45992857Y-63167260D02*
X46164286Y-63810117D01*
X46164286Y-63810117D02*
X46378572Y-62910117D01*
X46892857Y-63381545D02*
X46892857Y-63810117D01*
X46592857Y-62910117D02*
X46892857Y-63381545D01*
X46892857Y-63381545D02*
X47192857Y-62910117D01*
X48178571Y-63810117D02*
X48178571Y-62910117D01*
X48178571Y-62910117D02*
X48521428Y-62910117D01*
X48521428Y-62910117D02*
X48607143Y-62952974D01*
X48607143Y-62952974D02*
X48650000Y-62995831D01*
X48650000Y-62995831D02*
X48692857Y-63081545D01*
X48692857Y-63081545D02*
X48692857Y-63210117D01*
X48692857Y-63210117D02*
X48650000Y-63295831D01*
X48650000Y-63295831D02*
X48607143Y-63338688D01*
X48607143Y-63338688D02*
X48521428Y-63381545D01*
X48521428Y-63381545D02*
X48178571Y-63381545D01*
X49078571Y-63810117D02*
X49078571Y-62910117D01*
X49507142Y-63810117D02*
X49507142Y-62910117D01*
X49507142Y-62910117D02*
X50021428Y-63810117D01*
X50021428Y-63810117D02*
X50021428Y-62910117D01*
X51135713Y-63338688D02*
X51821428Y-63338688D01*
X51821428Y-63595831D02*
X51135713Y-63595831D01*
X53407142Y-62952974D02*
X53321428Y-62910117D01*
X53321428Y-62910117D02*
X53192856Y-62910117D01*
X53192856Y-62910117D02*
X53064285Y-62952974D01*
X53064285Y-62952974D02*
X52978570Y-63038688D01*
X52978570Y-63038688D02*
X52935713Y-63124402D01*
X52935713Y-63124402D02*
X52892856Y-63295831D01*
X52892856Y-63295831D02*
X52892856Y-63424402D01*
X52892856Y-63424402D02*
X52935713Y-63595831D01*
X52935713Y-63595831D02*
X52978570Y-63681545D01*
X52978570Y-63681545D02*
X53064285Y-63767260D01*
X53064285Y-63767260D02*
X53192856Y-63810117D01*
X53192856Y-63810117D02*
X53278570Y-63810117D01*
X53278570Y-63810117D02*
X53407142Y-63767260D01*
X53407142Y-63767260D02*
X53449999Y-63724402D01*
X53449999Y-63724402D02*
X53449999Y-63424402D01*
X53449999Y-63424402D02*
X53278570Y-63424402D01*
X53835713Y-63810117D02*
X53835713Y-62910117D01*
X53835713Y-62910117D02*
X54349999Y-63810117D01*
X54349999Y-63810117D02*
X54349999Y-62910117D01*
X54778570Y-63810117D02*
X54778570Y-62910117D01*
X54778570Y-62910117D02*
X54992856Y-62910117D01*
X54992856Y-62910117D02*
X55121427Y-62952974D01*
X55121427Y-62952974D02*
X55207142Y-63038688D01*
X55207142Y-63038688D02*
X55249999Y-63124402D01*
X55249999Y-63124402D02*
X55292856Y-63295831D01*
X55292856Y-63295831D02*
X55292856Y-63424402D01*
X55292856Y-63424402D02*
X55249999Y-63595831D01*
X55249999Y-63595831D02*
X55207142Y-63681545D01*
X55207142Y-63681545D02*
X55121427Y-63767260D01*
X55121427Y-63767260D02*
X54992856Y-63810117D01*
X54992856Y-63810117D02*
X54778570Y-63810117D01*
X55721427Y-63767260D02*
X55721427Y-63810117D01*
X55721427Y-63810117D02*
X55678570Y-63895831D01*
X55678570Y-63895831D02*
X55635713Y-63938688D01*
X56792855Y-63810117D02*
X56792855Y-62910117D01*
X56792855Y-62910117D02*
X57135712Y-62910117D01*
X57135712Y-62910117D02*
X57221427Y-62952974D01*
X57221427Y-62952974D02*
X57264284Y-62995831D01*
X57264284Y-62995831D02*
X57307141Y-63081545D01*
X57307141Y-63081545D02*
X57307141Y-63210117D01*
X57307141Y-63210117D02*
X57264284Y-63295831D01*
X57264284Y-63295831D02*
X57221427Y-63338688D01*
X57221427Y-63338688D02*
X57135712Y-63381545D01*
X57135712Y-63381545D02*
X56792855Y-63381545D01*
X58207141Y-63810117D02*
X57907141Y-63381545D01*
X57692855Y-63810117D02*
X57692855Y-62910117D01*
X57692855Y-62910117D02*
X58035712Y-62910117D01*
X58035712Y-62910117D02*
X58121427Y-62952974D01*
X58121427Y-62952974D02*
X58164284Y-62995831D01*
X58164284Y-62995831D02*
X58207141Y-63081545D01*
X58207141Y-63081545D02*
X58207141Y-63210117D01*
X58207141Y-63210117D02*
X58164284Y-63295831D01*
X58164284Y-63295831D02*
X58121427Y-63338688D01*
X58121427Y-63338688D02*
X58035712Y-63381545D01*
X58035712Y-63381545D02*
X57692855Y-63381545D01*
X58549998Y-63552974D02*
X58978570Y-63552974D01*
X58464284Y-63810117D02*
X58764284Y-62910117D01*
X58764284Y-62910117D02*
X59064284Y-63810117D01*
X59278570Y-62910117D02*
X59492856Y-63810117D01*
X59492856Y-63810117D02*
X59664284Y-63167260D01*
X59664284Y-63167260D02*
X59835713Y-63810117D01*
X59835713Y-63810117D02*
X60049999Y-62910117D01*
X60564284Y-63381545D02*
X60564284Y-63810117D01*
X60264284Y-62910117D02*
X60564284Y-63381545D01*
X60564284Y-63381545D02*
X60864284Y-62910117D01*
X61849998Y-63338688D02*
X62535713Y-63338688D01*
X62535713Y-63595831D02*
X61849998Y-63595831D01*
X63607141Y-63767260D02*
X63735713Y-63810117D01*
X63735713Y-63810117D02*
X63949998Y-63810117D01*
X63949998Y-63810117D02*
X64035713Y-63767260D01*
X64035713Y-63767260D02*
X64078570Y-63724402D01*
X64078570Y-63724402D02*
X64121427Y-63638688D01*
X64121427Y-63638688D02*
X64121427Y-63552974D01*
X64121427Y-63552974D02*
X64078570Y-63467260D01*
X64078570Y-63467260D02*
X64035713Y-63424402D01*
X64035713Y-63424402D02*
X63949998Y-63381545D01*
X63949998Y-63381545D02*
X63778570Y-63338688D01*
X63778570Y-63338688D02*
X63692855Y-63295831D01*
X63692855Y-63295831D02*
X63649998Y-63252974D01*
X63649998Y-63252974D02*
X63607141Y-63167260D01*
X63607141Y-63167260D02*
X63607141Y-63081545D01*
X63607141Y-63081545D02*
X63649998Y-62995831D01*
X63649998Y-62995831D02*
X63692855Y-62952974D01*
X63692855Y-62952974D02*
X63778570Y-62910117D01*
X63778570Y-62910117D02*
X63992855Y-62910117D01*
X63992855Y-62910117D02*
X64121427Y-62952974D01*
X64678570Y-63381545D02*
X64678570Y-63810117D01*
X64378570Y-62910117D02*
X64678570Y-63381545D01*
X64678570Y-63381545D02*
X64978570Y-62910117D01*
X65749999Y-62952974D02*
X65664285Y-62910117D01*
X65664285Y-62910117D02*
X65535713Y-62910117D01*
X65535713Y-62910117D02*
X65407142Y-62952974D01*
X65407142Y-62952974D02*
X65321427Y-63038688D01*
X65321427Y-63038688D02*
X65278570Y-63124402D01*
X65278570Y-63124402D02*
X65235713Y-63295831D01*
X65235713Y-63295831D02*
X65235713Y-63424402D01*
X65235713Y-63424402D02*
X65278570Y-63595831D01*
X65278570Y-63595831D02*
X65321427Y-63681545D01*
X65321427Y-63681545D02*
X65407142Y-63767260D01*
X65407142Y-63767260D02*
X65535713Y-63810117D01*
X65535713Y-63810117D02*
X65621427Y-63810117D01*
X65621427Y-63810117D02*
X65749999Y-63767260D01*
X65749999Y-63767260D02*
X65792856Y-63724402D01*
X65792856Y-63724402D02*
X65792856Y-63424402D01*
X65792856Y-63424402D02*
X65621427Y-63424402D01*
X66178570Y-63810117D02*
X66178570Y-62910117D01*
X66178570Y-62910117D02*
X66692856Y-63810117D01*
X66692856Y-63810117D02*
X66692856Y-62910117D01*
X67078570Y-63552974D02*
X67507142Y-63552974D01*
X66992856Y-63810117D02*
X67292856Y-62910117D01*
X67292856Y-62910117D02*
X67592856Y-63810117D01*
X68321428Y-63810117D02*
X67892856Y-63810117D01*
X67892856Y-63810117D02*
X67892856Y-62910117D01*
X69307141Y-63810117D02*
X69307141Y-62910117D01*
X69307141Y-62910117D02*
X69649998Y-62910117D01*
X69649998Y-62910117D02*
X69735713Y-62952974D01*
X69735713Y-62952974D02*
X69778570Y-62995831D01*
X69778570Y-62995831D02*
X69821427Y-63081545D01*
X69821427Y-63081545D02*
X69821427Y-63210117D01*
X69821427Y-63210117D02*
X69778570Y-63295831D01*
X69778570Y-63295831D02*
X69735713Y-63338688D01*
X69735713Y-63338688D02*
X69649998Y-63381545D01*
X69649998Y-63381545D02*
X69307141Y-63381545D01*
X70721427Y-63810117D02*
X70421427Y-63381545D01*
X70207141Y-63810117D02*
X70207141Y-62910117D01*
X70207141Y-62910117D02*
X70549998Y-62910117D01*
X70549998Y-62910117D02*
X70635713Y-62952974D01*
X70635713Y-62952974D02*
X70678570Y-62995831D01*
X70678570Y-62995831D02*
X70721427Y-63081545D01*
X70721427Y-63081545D02*
X70721427Y-63210117D01*
X70721427Y-63210117D02*
X70678570Y-63295831D01*
X70678570Y-63295831D02*
X70635713Y-63338688D01*
X70635713Y-63338688D02*
X70549998Y-63381545D01*
X70549998Y-63381545D02*
X70207141Y-63381545D01*
X71021427Y-62910117D02*
X71621427Y-62910117D01*
X71621427Y-62910117D02*
X71021427Y-63810117D01*
X71021427Y-63810117D02*
X71621427Y-63810117D01*
X71964284Y-63338688D02*
X72264284Y-63338688D01*
X72392856Y-63810117D02*
X71964284Y-63810117D01*
X71964284Y-63810117D02*
X71964284Y-62910117D01*
X71964284Y-62910117D02*
X72392856Y-62910117D01*
X72692856Y-62910117D02*
X73292856Y-62910117D01*
X73292856Y-62910117D02*
X72692856Y-63810117D01*
X72692856Y-63810117D02*
X73292856Y-63810117D01*
X74792856Y-63810117D02*
X74278570Y-63810117D01*
X74535713Y-63810117D02*
X74535713Y-62910117D01*
X74535713Y-62910117D02*
X74449999Y-63038688D01*
X74449999Y-63038688D02*
X74364284Y-63124402D01*
X74364284Y-63124402D02*
X74278570Y-63167260D01*
X75864284Y-63810117D02*
X75864284Y-62910117D01*
X75949999Y-63467260D02*
X76207141Y-63810117D01*
X76207141Y-63210117D02*
X75864284Y-63552974D01*
X33607143Y-66338688D02*
X33907143Y-66338688D01*
X34035715Y-66810117D02*
X33607143Y-66810117D01*
X33607143Y-66810117D02*
X33607143Y-65910117D01*
X33607143Y-65910117D02*
X34035715Y-65910117D01*
X34892858Y-65952974D02*
X34807144Y-65910117D01*
X34807144Y-65910117D02*
X34678572Y-65910117D01*
X34678572Y-65910117D02*
X34550001Y-65952974D01*
X34550001Y-65952974D02*
X34464286Y-66038688D01*
X34464286Y-66038688D02*
X34421429Y-66124402D01*
X34421429Y-66124402D02*
X34378572Y-66295831D01*
X34378572Y-66295831D02*
X34378572Y-66424402D01*
X34378572Y-66424402D02*
X34421429Y-66595831D01*
X34421429Y-66595831D02*
X34464286Y-66681545D01*
X34464286Y-66681545D02*
X34550001Y-66767260D01*
X34550001Y-66767260D02*
X34678572Y-66810117D01*
X34678572Y-66810117D02*
X34764286Y-66810117D01*
X34764286Y-66810117D02*
X34892858Y-66767260D01*
X34892858Y-66767260D02*
X34935715Y-66724402D01*
X34935715Y-66724402D02*
X34935715Y-66424402D01*
X34935715Y-66424402D02*
X34764286Y-66424402D01*
X35835715Y-66810117D02*
X35535715Y-66381545D01*
X35321429Y-66810117D02*
X35321429Y-65910117D01*
X35321429Y-65910117D02*
X35664286Y-65910117D01*
X35664286Y-65910117D02*
X35750001Y-65952974D01*
X35750001Y-65952974D02*
X35792858Y-65995831D01*
X35792858Y-65995831D02*
X35835715Y-66081545D01*
X35835715Y-66081545D02*
X35835715Y-66210117D01*
X35835715Y-66210117D02*
X35792858Y-66295831D01*
X35792858Y-66295831D02*
X35750001Y-66338688D01*
X35750001Y-66338688D02*
X35664286Y-66381545D01*
X35664286Y-66381545D02*
X35321429Y-66381545D01*
X36650001Y-66810117D02*
X36221429Y-66810117D01*
X36221429Y-66810117D02*
X36221429Y-65910117D01*
X37335715Y-66810117D02*
X37335715Y-66338688D01*
X37335715Y-66338688D02*
X37292857Y-66252974D01*
X37292857Y-66252974D02*
X37207143Y-66210117D01*
X37207143Y-66210117D02*
X37035715Y-66210117D01*
X37035715Y-66210117D02*
X36950000Y-66252974D01*
X37335715Y-66767260D02*
X37250000Y-66810117D01*
X37250000Y-66810117D02*
X37035715Y-66810117D01*
X37035715Y-66810117D02*
X36950000Y-66767260D01*
X36950000Y-66767260D02*
X36907143Y-66681545D01*
X36907143Y-66681545D02*
X36907143Y-66595831D01*
X36907143Y-66595831D02*
X36950000Y-66510117D01*
X36950000Y-66510117D02*
X37035715Y-66467260D01*
X37035715Y-66467260D02*
X37250000Y-66467260D01*
X37250000Y-66467260D02*
X37335715Y-66424402D01*
X37764286Y-66810117D02*
X37764286Y-65910117D01*
X37764286Y-66252974D02*
X37850001Y-66210117D01*
X37850001Y-66210117D02*
X38021429Y-66210117D01*
X38021429Y-66210117D02*
X38107143Y-66252974D01*
X38107143Y-66252974D02*
X38150001Y-66295831D01*
X38150001Y-66295831D02*
X38192858Y-66381545D01*
X38192858Y-66381545D02*
X38192858Y-66638688D01*
X38192858Y-66638688D02*
X38150001Y-66724402D01*
X38150001Y-66724402D02*
X38107143Y-66767260D01*
X38107143Y-66767260D02*
X38021429Y-66810117D01*
X38021429Y-66810117D02*
X37850001Y-66810117D01*
X37850001Y-66810117D02*
X37764286Y-66767260D01*
X39264286Y-66810117D02*
X39264286Y-65910117D01*
X39264286Y-65910117D02*
X39607143Y-65910117D01*
X39607143Y-65910117D02*
X39692858Y-65952974D01*
X39692858Y-65952974D02*
X39735715Y-65995831D01*
X39735715Y-65995831D02*
X39778572Y-66081545D01*
X39778572Y-66081545D02*
X39778572Y-66210117D01*
X39778572Y-66210117D02*
X39735715Y-66295831D01*
X39735715Y-66295831D02*
X39692858Y-66338688D01*
X39692858Y-66338688D02*
X39607143Y-66381545D01*
X39607143Y-66381545D02*
X39264286Y-66381545D01*
X40335715Y-65910117D02*
X40421429Y-65910117D01*
X40421429Y-65910117D02*
X40507143Y-65952974D01*
X40507143Y-65952974D02*
X40550001Y-65995831D01*
X40550001Y-65995831D02*
X40592858Y-66081545D01*
X40592858Y-66081545D02*
X40635715Y-66252974D01*
X40635715Y-66252974D02*
X40635715Y-66467260D01*
X40635715Y-66467260D02*
X40592858Y-66638688D01*
X40592858Y-66638688D02*
X40550001Y-66724402D01*
X40550001Y-66724402D02*
X40507143Y-66767260D01*
X40507143Y-66767260D02*
X40421429Y-66810117D01*
X40421429Y-66810117D02*
X40335715Y-66810117D01*
X40335715Y-66810117D02*
X40250001Y-66767260D01*
X40250001Y-66767260D02*
X40207143Y-66724402D01*
X40207143Y-66724402D02*
X40164286Y-66638688D01*
X40164286Y-66638688D02*
X40121429Y-66467260D01*
X40121429Y-66467260D02*
X40121429Y-66252974D01*
X40121429Y-66252974D02*
X40164286Y-66081545D01*
X40164286Y-66081545D02*
X40207143Y-65995831D01*
X40207143Y-65995831D02*
X40250001Y-65952974D01*
X40250001Y-65952974D02*
X40335715Y-65910117D01*
X41192858Y-65910117D02*
X41278572Y-65910117D01*
X41278572Y-65910117D02*
X41364286Y-65952974D01*
X41364286Y-65952974D02*
X41407144Y-65995831D01*
X41407144Y-65995831D02*
X41450001Y-66081545D01*
X41450001Y-66081545D02*
X41492858Y-66252974D01*
X41492858Y-66252974D02*
X41492858Y-66467260D01*
X41492858Y-66467260D02*
X41450001Y-66638688D01*
X41450001Y-66638688D02*
X41407144Y-66724402D01*
X41407144Y-66724402D02*
X41364286Y-66767260D01*
X41364286Y-66767260D02*
X41278572Y-66810117D01*
X41278572Y-66810117D02*
X41192858Y-66810117D01*
X41192858Y-66810117D02*
X41107144Y-66767260D01*
X41107144Y-66767260D02*
X41064286Y-66724402D01*
X41064286Y-66724402D02*
X41021429Y-66638688D01*
X41021429Y-66638688D02*
X40978572Y-66467260D01*
X40978572Y-66467260D02*
X40978572Y-66252974D01*
X40978572Y-66252974D02*
X41021429Y-66081545D01*
X41021429Y-66081545D02*
X41064286Y-65995831D01*
X41064286Y-65995831D02*
X41107144Y-65952974D01*
X41107144Y-65952974D02*
X41192858Y-65910117D01*
X42864286Y-66338688D02*
X42564286Y-66338688D01*
X42564286Y-66810117D02*
X42564286Y-65910117D01*
X42564286Y-65910117D02*
X42992858Y-65910117D01*
X43335715Y-66810117D02*
X43335715Y-65910117D01*
X43678572Y-65910117D02*
X44278572Y-66810117D01*
X44278572Y-65910117D02*
X43678572Y-66810117D01*
X44492858Y-65910117D02*
X45007144Y-65910117D01*
X44750001Y-66810117D02*
X44750001Y-65910117D01*
X45307143Y-65910117D02*
X45307143Y-66638688D01*
X45307143Y-66638688D02*
X45350000Y-66724402D01*
X45350000Y-66724402D02*
X45392858Y-66767260D01*
X45392858Y-66767260D02*
X45478572Y-66810117D01*
X45478572Y-66810117D02*
X45650000Y-66810117D01*
X45650000Y-66810117D02*
X45735715Y-66767260D01*
X45735715Y-66767260D02*
X45778572Y-66724402D01*
X45778572Y-66724402D02*
X45821429Y-66638688D01*
X45821429Y-66638688D02*
X45821429Y-65910117D01*
X46764286Y-66810117D02*
X46464286Y-66381545D01*
X46250000Y-66810117D02*
X46250000Y-65910117D01*
X46250000Y-65910117D02*
X46592857Y-65910117D01*
X46592857Y-65910117D02*
X46678572Y-65952974D01*
X46678572Y-65952974D02*
X46721429Y-65995831D01*
X46721429Y-65995831D02*
X46764286Y-66081545D01*
X46764286Y-66081545D02*
X46764286Y-66210117D01*
X46764286Y-66210117D02*
X46721429Y-66295831D01*
X46721429Y-66295831D02*
X46678572Y-66338688D01*
X46678572Y-66338688D02*
X46592857Y-66381545D01*
X46592857Y-66381545D02*
X46250000Y-66381545D01*
X47150000Y-66338688D02*
X47450000Y-66338688D01*
X47578572Y-66810117D02*
X47150000Y-66810117D01*
X47150000Y-66810117D02*
X47150000Y-65910117D01*
X47150000Y-65910117D02*
X47578572Y-65910117D01*
X49292857Y-65867260D02*
X48521429Y-67024402D01*
X50278571Y-66810117D02*
X50278571Y-65910117D01*
X50278571Y-65910117D02*
X50621428Y-65910117D01*
X50621428Y-65910117D02*
X50707143Y-65952974D01*
X50707143Y-65952974D02*
X50750000Y-65995831D01*
X50750000Y-65995831D02*
X50792857Y-66081545D01*
X50792857Y-66081545D02*
X50792857Y-66210117D01*
X50792857Y-66210117D02*
X50750000Y-66295831D01*
X50750000Y-66295831D02*
X50707143Y-66338688D01*
X50707143Y-66338688D02*
X50621428Y-66381545D01*
X50621428Y-66381545D02*
X50278571Y-66381545D01*
X51692857Y-66724402D02*
X51650000Y-66767260D01*
X51650000Y-66767260D02*
X51521428Y-66810117D01*
X51521428Y-66810117D02*
X51435714Y-66810117D01*
X51435714Y-66810117D02*
X51307143Y-66767260D01*
X51307143Y-66767260D02*
X51221428Y-66681545D01*
X51221428Y-66681545D02*
X51178571Y-66595831D01*
X51178571Y-66595831D02*
X51135714Y-66424402D01*
X51135714Y-66424402D02*
X51135714Y-66295831D01*
X51135714Y-66295831D02*
X51178571Y-66124402D01*
X51178571Y-66124402D02*
X51221428Y-66038688D01*
X51221428Y-66038688D02*
X51307143Y-65952974D01*
X51307143Y-65952974D02*
X51435714Y-65910117D01*
X51435714Y-65910117D02*
X51521428Y-65910117D01*
X51521428Y-65910117D02*
X51650000Y-65952974D01*
X51650000Y-65952974D02*
X51692857Y-65995831D01*
X52378571Y-66338688D02*
X52507143Y-66381545D01*
X52507143Y-66381545D02*
X52550000Y-66424402D01*
X52550000Y-66424402D02*
X52592857Y-66510117D01*
X52592857Y-66510117D02*
X52592857Y-66638688D01*
X52592857Y-66638688D02*
X52550000Y-66724402D01*
X52550000Y-66724402D02*
X52507143Y-66767260D01*
X52507143Y-66767260D02*
X52421428Y-66810117D01*
X52421428Y-66810117D02*
X52078571Y-66810117D01*
X52078571Y-66810117D02*
X52078571Y-65910117D01*
X52078571Y-65910117D02*
X52378571Y-65910117D01*
X52378571Y-65910117D02*
X52464286Y-65952974D01*
X52464286Y-65952974D02*
X52507143Y-65995831D01*
X52507143Y-65995831D02*
X52550000Y-66081545D01*
X52550000Y-66081545D02*
X52550000Y-66167260D01*
X52550000Y-66167260D02*
X52507143Y-66252974D01*
X52507143Y-66252974D02*
X52464286Y-66295831D01*
X52464286Y-66295831D02*
X52378571Y-66338688D01*
X52378571Y-66338688D02*
X52078571Y-66338688D01*
X54178571Y-66810117D02*
X53878571Y-66381545D01*
X53664285Y-66810117D02*
X53664285Y-65910117D01*
X53664285Y-65910117D02*
X54007142Y-65910117D01*
X54007142Y-65910117D02*
X54092857Y-65952974D01*
X54092857Y-65952974D02*
X54135714Y-65995831D01*
X54135714Y-65995831D02*
X54178571Y-66081545D01*
X54178571Y-66081545D02*
X54178571Y-66210117D01*
X54178571Y-66210117D02*
X54135714Y-66295831D01*
X54135714Y-66295831D02*
X54092857Y-66338688D01*
X54092857Y-66338688D02*
X54007142Y-66381545D01*
X54007142Y-66381545D02*
X53664285Y-66381545D01*
X54521428Y-65995831D02*
X54564285Y-65952974D01*
X54564285Y-65952974D02*
X54650000Y-65910117D01*
X54650000Y-65910117D02*
X54864285Y-65910117D01*
X54864285Y-65910117D02*
X54950000Y-65952974D01*
X54950000Y-65952974D02*
X54992857Y-65995831D01*
X54992857Y-65995831D02*
X55035714Y-66081545D01*
X55035714Y-66081545D02*
X55035714Y-66167260D01*
X55035714Y-66167260D02*
X54992857Y-66295831D01*
X54992857Y-66295831D02*
X54478571Y-66810117D01*
X54478571Y-66810117D02*
X55035714Y-66810117D01*
X56749999Y-65867260D02*
X55978571Y-67024402D01*
X57692856Y-65995831D02*
X57735713Y-65952974D01*
X57735713Y-65952974D02*
X57821428Y-65910117D01*
X57821428Y-65910117D02*
X58035713Y-65910117D01*
X58035713Y-65910117D02*
X58121428Y-65952974D01*
X58121428Y-65952974D02*
X58164285Y-65995831D01*
X58164285Y-65995831D02*
X58207142Y-66081545D01*
X58207142Y-66081545D02*
X58207142Y-66167260D01*
X58207142Y-66167260D02*
X58164285Y-66295831D01*
X58164285Y-66295831D02*
X57649999Y-66810117D01*
X57649999Y-66810117D02*
X58207142Y-66810117D01*
X58764285Y-65910117D02*
X58849999Y-65910117D01*
X58849999Y-65910117D02*
X58935713Y-65952974D01*
X58935713Y-65952974D02*
X58978571Y-65995831D01*
X58978571Y-65995831D02*
X59021428Y-66081545D01*
X59021428Y-66081545D02*
X59064285Y-66252974D01*
X59064285Y-66252974D02*
X59064285Y-66467260D01*
X59064285Y-66467260D02*
X59021428Y-66638688D01*
X59021428Y-66638688D02*
X58978571Y-66724402D01*
X58978571Y-66724402D02*
X58935713Y-66767260D01*
X58935713Y-66767260D02*
X58849999Y-66810117D01*
X58849999Y-66810117D02*
X58764285Y-66810117D01*
X58764285Y-66810117D02*
X58678571Y-66767260D01*
X58678571Y-66767260D02*
X58635713Y-66724402D01*
X58635713Y-66724402D02*
X58592856Y-66638688D01*
X58592856Y-66638688D02*
X58549999Y-66467260D01*
X58549999Y-66467260D02*
X58549999Y-66252974D01*
X58549999Y-66252974D02*
X58592856Y-66081545D01*
X58592856Y-66081545D02*
X58635713Y-65995831D01*
X58635713Y-65995831D02*
X58678571Y-65952974D01*
X58678571Y-65952974D02*
X58764285Y-65910117D01*
X59407142Y-65995831D02*
X59449999Y-65952974D01*
X59449999Y-65952974D02*
X59535714Y-65910117D01*
X59535714Y-65910117D02*
X59749999Y-65910117D01*
X59749999Y-65910117D02*
X59835714Y-65952974D01*
X59835714Y-65952974D02*
X59878571Y-65995831D01*
X59878571Y-65995831D02*
X59921428Y-66081545D01*
X59921428Y-66081545D02*
X59921428Y-66167260D01*
X59921428Y-66167260D02*
X59878571Y-66295831D01*
X59878571Y-66295831D02*
X59364285Y-66810117D01*
X59364285Y-66810117D02*
X59921428Y-66810117D01*
X60692857Y-65910117D02*
X60521428Y-65910117D01*
X60521428Y-65910117D02*
X60435714Y-65952974D01*
X60435714Y-65952974D02*
X60392857Y-65995831D01*
X60392857Y-65995831D02*
X60307142Y-66124402D01*
X60307142Y-66124402D02*
X60264285Y-66295831D01*
X60264285Y-66295831D02*
X60264285Y-66638688D01*
X60264285Y-66638688D02*
X60307142Y-66724402D01*
X60307142Y-66724402D02*
X60349999Y-66767260D01*
X60349999Y-66767260D02*
X60435714Y-66810117D01*
X60435714Y-66810117D02*
X60607142Y-66810117D01*
X60607142Y-66810117D02*
X60692857Y-66767260D01*
X60692857Y-66767260D02*
X60735714Y-66724402D01*
X60735714Y-66724402D02*
X60778571Y-66638688D01*
X60778571Y-66638688D02*
X60778571Y-66424402D01*
X60778571Y-66424402D02*
X60735714Y-66338688D01*
X60735714Y-66338688D02*
X60692857Y-66295831D01*
X60692857Y-66295831D02*
X60607142Y-66252974D01*
X60607142Y-66252974D02*
X60435714Y-66252974D01*
X60435714Y-66252974D02*
X60349999Y-66295831D01*
X60349999Y-66295831D02*
X60307142Y-66338688D01*
X60307142Y-66338688D02*
X60264285Y-66424402D01*
X61164285Y-66467260D02*
X61850000Y-66467260D01*
X62450000Y-65910117D02*
X62535714Y-65910117D01*
X62535714Y-65910117D02*
X62621428Y-65952974D01*
X62621428Y-65952974D02*
X62664286Y-65995831D01*
X62664286Y-65995831D02*
X62707143Y-66081545D01*
X62707143Y-66081545D02*
X62750000Y-66252974D01*
X62750000Y-66252974D02*
X62750000Y-66467260D01*
X62750000Y-66467260D02*
X62707143Y-66638688D01*
X62707143Y-66638688D02*
X62664286Y-66724402D01*
X62664286Y-66724402D02*
X62621428Y-66767260D01*
X62621428Y-66767260D02*
X62535714Y-66810117D01*
X62535714Y-66810117D02*
X62450000Y-66810117D01*
X62450000Y-66810117D02*
X62364286Y-66767260D01*
X62364286Y-66767260D02*
X62321428Y-66724402D01*
X62321428Y-66724402D02*
X62278571Y-66638688D01*
X62278571Y-66638688D02*
X62235714Y-66467260D01*
X62235714Y-66467260D02*
X62235714Y-66252974D01*
X62235714Y-66252974D02*
X62278571Y-66081545D01*
X62278571Y-66081545D02*
X62321428Y-65995831D01*
X62321428Y-65995831D02*
X62364286Y-65952974D01*
X62364286Y-65952974D02*
X62450000Y-65910117D01*
X63178571Y-66810117D02*
X63350000Y-66810117D01*
X63350000Y-66810117D02*
X63435714Y-66767260D01*
X63435714Y-66767260D02*
X63478571Y-66724402D01*
X63478571Y-66724402D02*
X63564286Y-66595831D01*
X63564286Y-66595831D02*
X63607143Y-66424402D01*
X63607143Y-66424402D02*
X63607143Y-66081545D01*
X63607143Y-66081545D02*
X63564286Y-65995831D01*
X63564286Y-65995831D02*
X63521429Y-65952974D01*
X63521429Y-65952974D02*
X63435714Y-65910117D01*
X63435714Y-65910117D02*
X63264286Y-65910117D01*
X63264286Y-65910117D02*
X63178571Y-65952974D01*
X63178571Y-65952974D02*
X63135714Y-65995831D01*
X63135714Y-65995831D02*
X63092857Y-66081545D01*
X63092857Y-66081545D02*
X63092857Y-66295831D01*
X63092857Y-66295831D02*
X63135714Y-66381545D01*
X63135714Y-66381545D02*
X63178571Y-66424402D01*
X63178571Y-66424402D02*
X63264286Y-66467260D01*
X63264286Y-66467260D02*
X63435714Y-66467260D01*
X63435714Y-66467260D02*
X63521429Y-66424402D01*
X63521429Y-66424402D02*
X63564286Y-66381545D01*
X63564286Y-66381545D02*
X63607143Y-66295831D01*
X64678571Y-66467260D02*
X65364286Y-66467260D01*
X66478571Y-66210117D02*
X66478571Y-67110117D01*
X66478571Y-66252974D02*
X66564286Y-66210117D01*
X66564286Y-66210117D02*
X66735714Y-66210117D01*
X66735714Y-66210117D02*
X66821428Y-66252974D01*
X66821428Y-66252974D02*
X66864286Y-66295831D01*
X66864286Y-66295831D02*
X66907143Y-66381545D01*
X66907143Y-66381545D02*
X66907143Y-66638688D01*
X66907143Y-66638688D02*
X66864286Y-66724402D01*
X66864286Y-66724402D02*
X66821428Y-66767260D01*
X66821428Y-66767260D02*
X66735714Y-66810117D01*
X66735714Y-66810117D02*
X66564286Y-66810117D01*
X66564286Y-66810117D02*
X66478571Y-66767260D01*
X67292857Y-66810117D02*
X67292857Y-66210117D01*
X67292857Y-66381545D02*
X67335714Y-66295831D01*
X67335714Y-66295831D02*
X67378572Y-66252974D01*
X67378572Y-66252974D02*
X67464286Y-66210117D01*
X67464286Y-66210117D02*
X67550000Y-66210117D01*
X67764286Y-66210117D02*
X68235715Y-66210117D01*
X68235715Y-66210117D02*
X67764286Y-66810117D01*
X67764286Y-66810117D02*
X68235715Y-66810117D01*
X68492857Y-66210117D02*
X68707143Y-66810117D01*
X68921428Y-66210117D02*
X68707143Y-66810117D01*
X68707143Y-66810117D02*
X68621428Y-67024402D01*
X68621428Y-67024402D02*
X68578571Y-67067260D01*
X68578571Y-67067260D02*
X68492857Y-67110117D01*
X69264285Y-66810117D02*
X69264285Y-66210117D01*
X69264285Y-66381545D02*
X69307142Y-66295831D01*
X69307142Y-66295831D02*
X69350000Y-66252974D01*
X69350000Y-66252974D02*
X69435714Y-66210117D01*
X69435714Y-66210117D02*
X69521428Y-66210117D01*
X69735714Y-66210117D02*
X70207143Y-66210117D01*
X70207143Y-66210117D02*
X69735714Y-66810117D01*
X69735714Y-66810117D02*
X70207143Y-66810117D01*
X70935714Y-66810117D02*
X70935714Y-66338688D01*
X70935714Y-66338688D02*
X70892856Y-66252974D01*
X70892856Y-66252974D02*
X70807142Y-66210117D01*
X70807142Y-66210117D02*
X70635714Y-66210117D01*
X70635714Y-66210117D02*
X70549999Y-66252974D01*
X70935714Y-66767260D02*
X70849999Y-66810117D01*
X70849999Y-66810117D02*
X70635714Y-66810117D01*
X70635714Y-66810117D02*
X70549999Y-66767260D01*
X70549999Y-66767260D02*
X70507142Y-66681545D01*
X70507142Y-66681545D02*
X70507142Y-66595831D01*
X70507142Y-66595831D02*
X70549999Y-66510117D01*
X70549999Y-66510117D02*
X70635714Y-66467260D01*
X70635714Y-66467260D02*
X70849999Y-66467260D01*
X70849999Y-66467260D02*
X70935714Y-66424402D01*
X71750000Y-66810117D02*
X71750000Y-65910117D01*
X71750000Y-66767260D02*
X71664285Y-66810117D01*
X71664285Y-66810117D02*
X71492857Y-66810117D01*
X71492857Y-66810117D02*
X71407142Y-66767260D01*
X71407142Y-66767260D02*
X71364285Y-66724402D01*
X71364285Y-66724402D02*
X71321428Y-66638688D01*
X71321428Y-66638688D02*
X71321428Y-66381545D01*
X71321428Y-66381545D02*
X71364285Y-66295831D01*
X71364285Y-66295831D02*
X71407142Y-66252974D01*
X71407142Y-66252974D02*
X71492857Y-66210117D01*
X71492857Y-66210117D02*
X71664285Y-66210117D01*
X71664285Y-66210117D02*
X71750000Y-66252974D01*
X72821428Y-66767260D02*
X72907142Y-66810117D01*
X72907142Y-66810117D02*
X73078571Y-66810117D01*
X73078571Y-66810117D02*
X73164285Y-66767260D01*
X73164285Y-66767260D02*
X73207142Y-66681545D01*
X73207142Y-66681545D02*
X73207142Y-66638688D01*
X73207142Y-66638688D02*
X73164285Y-66552974D01*
X73164285Y-66552974D02*
X73078571Y-66510117D01*
X73078571Y-66510117D02*
X72950000Y-66510117D01*
X72950000Y-66510117D02*
X72864285Y-66467260D01*
X72864285Y-66467260D02*
X72821428Y-66381545D01*
X72821428Y-66381545D02*
X72821428Y-66338688D01*
X72821428Y-66338688D02*
X72864285Y-66252974D01*
X72864285Y-66252974D02*
X72950000Y-66210117D01*
X72950000Y-66210117D02*
X73078571Y-66210117D01*
X73078571Y-66210117D02*
X73164285Y-66252974D01*
X73464285Y-66210117D02*
X73807142Y-66210117D01*
X73592856Y-65910117D02*
X73592856Y-66681545D01*
X73592856Y-66681545D02*
X73635713Y-66767260D01*
X73635713Y-66767260D02*
X73721428Y-66810117D01*
X73721428Y-66810117D02*
X73807142Y-66810117D01*
X74492857Y-66810117D02*
X74492857Y-66338688D01*
X74492857Y-66338688D02*
X74449999Y-66252974D01*
X74449999Y-66252974D02*
X74364285Y-66210117D01*
X74364285Y-66210117D02*
X74192857Y-66210117D01*
X74192857Y-66210117D02*
X74107142Y-66252974D01*
X74492857Y-66767260D02*
X74407142Y-66810117D01*
X74407142Y-66810117D02*
X74192857Y-66810117D01*
X74192857Y-66810117D02*
X74107142Y-66767260D01*
X74107142Y-66767260D02*
X74064285Y-66681545D01*
X74064285Y-66681545D02*
X74064285Y-66595831D01*
X74064285Y-66595831D02*
X74107142Y-66510117D01*
X74107142Y-66510117D02*
X74192857Y-66467260D01*
X74192857Y-66467260D02*
X74407142Y-66467260D01*
X74407142Y-66467260D02*
X74492857Y-66424402D01*
X74921428Y-66210117D02*
X74921428Y-66810117D01*
X74921428Y-66295831D02*
X74964285Y-66252974D01*
X74964285Y-66252974D02*
X75050000Y-66210117D01*
X75050000Y-66210117D02*
X75178571Y-66210117D01*
X75178571Y-66210117D02*
X75264285Y-66252974D01*
X75264285Y-66252974D02*
X75307143Y-66338688D01*
X75307143Y-66338688D02*
X75307143Y-66810117D01*
X75864286Y-66810117D02*
X75778571Y-66767260D01*
X75778571Y-66767260D02*
X75735714Y-66724402D01*
X75735714Y-66724402D02*
X75692857Y-66638688D01*
X75692857Y-66638688D02*
X75692857Y-66381545D01*
X75692857Y-66381545D02*
X75735714Y-66295831D01*
X75735714Y-66295831D02*
X75778571Y-66252974D01*
X75778571Y-66252974D02*
X75864286Y-66210117D01*
X75864286Y-66210117D02*
X75992857Y-66210117D01*
X75992857Y-66210117D02*
X76078571Y-66252974D01*
X76078571Y-66252974D02*
X76121429Y-66295831D01*
X76121429Y-66295831D02*
X76164286Y-66381545D01*
X76164286Y-66381545D02*
X76164286Y-66638688D01*
X76164286Y-66638688D02*
X76121429Y-66724402D01*
X76121429Y-66724402D02*
X76078571Y-66767260D01*
X76078571Y-66767260D02*
X75992857Y-66810117D01*
X75992857Y-66810117D02*
X75864286Y-66810117D01*
X76464286Y-66210117D02*
X76635715Y-66810117D01*
X76635715Y-66810117D02*
X76807143Y-66381545D01*
X76807143Y-66381545D02*
X76978572Y-66810117D01*
X76978572Y-66810117D02*
X77150000Y-66210117D01*
X77492857Y-66810117D02*
X77492857Y-66210117D01*
X77492857Y-65910117D02*
X77450000Y-65952974D01*
X77450000Y-65952974D02*
X77492857Y-65995831D01*
X77492857Y-65995831D02*
X77535714Y-65952974D01*
X77535714Y-65952974D02*
X77492857Y-65910117D01*
X77492857Y-65910117D02*
X77492857Y-65995831D01*
X77878571Y-66767260D02*
X77964285Y-66810117D01*
X77964285Y-66810117D02*
X78135714Y-66810117D01*
X78135714Y-66810117D02*
X78221428Y-66767260D01*
X78221428Y-66767260D02*
X78264285Y-66681545D01*
X78264285Y-66681545D02*
X78264285Y-66638688D01*
X78264285Y-66638688D02*
X78221428Y-66552974D01*
X78221428Y-66552974D02*
X78135714Y-66510117D01*
X78135714Y-66510117D02*
X78007143Y-66510117D01*
X78007143Y-66510117D02*
X77921428Y-66467260D01*
X77921428Y-66467260D02*
X77878571Y-66381545D01*
X77878571Y-66381545D02*
X77878571Y-66338688D01*
X77878571Y-66338688D02*
X77921428Y-66252974D01*
X77921428Y-66252974D02*
X78007143Y-66210117D01*
X78007143Y-66210117D02*
X78135714Y-66210117D01*
X78135714Y-66210117D02*
X78221428Y-66252974D01*
X78649999Y-66810117D02*
X78649999Y-65910117D01*
X78735714Y-66467260D02*
X78992856Y-66810117D01*
X78992856Y-66210117D02*
X78649999Y-66552974D01*
X79507142Y-66810117D02*
X79421427Y-66767260D01*
X79421427Y-66767260D02*
X79378570Y-66724402D01*
X79378570Y-66724402D02*
X79335713Y-66638688D01*
X79335713Y-66638688D02*
X79335713Y-66381545D01*
X79335713Y-66381545D02*
X79378570Y-66295831D01*
X79378570Y-66295831D02*
X79421427Y-66252974D01*
X79421427Y-66252974D02*
X79507142Y-66210117D01*
X79507142Y-66210117D02*
X79635713Y-66210117D01*
X79635713Y-66210117D02*
X79721427Y-66252974D01*
X79721427Y-66252974D02*
X79764285Y-66295831D01*
X79764285Y-66295831D02*
X79807142Y-66381545D01*
X79807142Y-66381545D02*
X79807142Y-66638688D01*
X79807142Y-66638688D02*
X79764285Y-66724402D01*
X79764285Y-66724402D02*
X79721427Y-66767260D01*
X79721427Y-66767260D02*
X79635713Y-66810117D01*
X79635713Y-66810117D02*
X79507142Y-66810117D01*
X80107142Y-66210117D02*
X80278571Y-66810117D01*
X80278571Y-66810117D02*
X80449999Y-66381545D01*
X80449999Y-66381545D02*
X80621428Y-66810117D01*
X80621428Y-66810117D02*
X80792856Y-66210117D01*
X81049999Y-66210117D02*
X81264285Y-66810117D01*
X81478570Y-66210117D02*
X81264285Y-66810117D01*
X81264285Y-66810117D02*
X81178570Y-67024402D01*
X81178570Y-67024402D02*
X81135713Y-67067260D01*
X81135713Y-67067260D02*
X81049999Y-67110117D01*
X96892857Y-40410117D02*
X96892857Y-39510117D01*
X96892857Y-39938688D02*
X97407143Y-39938688D01*
X97407143Y-40410117D02*
X97407143Y-39510117D01*
X98135714Y-39938688D02*
X98264286Y-39981545D01*
X98264286Y-39981545D02*
X98307143Y-40024402D01*
X98307143Y-40024402D02*
X98350000Y-40110117D01*
X98350000Y-40110117D02*
X98350000Y-40238688D01*
X98350000Y-40238688D02*
X98307143Y-40324402D01*
X98307143Y-40324402D02*
X98264286Y-40367260D01*
X98264286Y-40367260D02*
X98178571Y-40410117D01*
X98178571Y-40410117D02*
X97835714Y-40410117D01*
X97835714Y-40410117D02*
X97835714Y-39510117D01*
X97835714Y-39510117D02*
X98135714Y-39510117D01*
X98135714Y-39510117D02*
X98221429Y-39552974D01*
X98221429Y-39552974D02*
X98264286Y-39595831D01*
X98264286Y-39595831D02*
X98307143Y-39681545D01*
X98307143Y-39681545D02*
X98307143Y-39767260D01*
X98307143Y-39767260D02*
X98264286Y-39852974D01*
X98264286Y-39852974D02*
X98221429Y-39895831D01*
X98221429Y-39895831D02*
X98135714Y-39938688D01*
X98135714Y-39938688D02*
X97835714Y-39938688D01*
D11*
X10185714Y-40454819D02*
X9614286Y-40454819D01*
X9900000Y-40454819D02*
X9900000Y-39454819D01*
X9900000Y-39454819D02*
X9804762Y-39597676D01*
X9804762Y-39597676D02*
X9709524Y-39692914D01*
X9709524Y-39692914D02*
X9614286Y-39740533D01*
X20614286Y-39550057D02*
X20661905Y-39502438D01*
X20661905Y-39502438D02*
X20757143Y-39454819D01*
X20757143Y-39454819D02*
X20995238Y-39454819D01*
X20995238Y-39454819D02*
X21090476Y-39502438D01*
X21090476Y-39502438D02*
X21138095Y-39550057D01*
X21138095Y-39550057D02*
X21185714Y-39645295D01*
X21185714Y-39645295D02*
X21185714Y-39740533D01*
X21185714Y-39740533D02*
X21138095Y-39883390D01*
X21138095Y-39883390D02*
X20566667Y-40454819D01*
X20566667Y-40454819D02*
X21185714Y-40454819D01*
X31566667Y-39454819D02*
X32185714Y-39454819D01*
X32185714Y-39454819D02*
X31852381Y-39835771D01*
X31852381Y-39835771D02*
X31995238Y-39835771D01*
X31995238Y-39835771D02*
X32090476Y-39883390D01*
X32090476Y-39883390D02*
X32138095Y-39931009D01*
X32138095Y-39931009D02*
X32185714Y-40026247D01*
X32185714Y-40026247D02*
X32185714Y-40264342D01*
X32185714Y-40264342D02*
X32138095Y-40359580D01*
X32138095Y-40359580D02*
X32090476Y-40407200D01*
X32090476Y-40407200D02*
X31995238Y-40454819D01*
X31995238Y-40454819D02*
X31709524Y-40454819D01*
X31709524Y-40454819D02*
X31614286Y-40407200D01*
X31614286Y-40407200D02*
X31566667Y-40359580D01*
X43090476Y-39788152D02*
X43090476Y-40454819D01*
X42852381Y-39407200D02*
X42614286Y-40121485D01*
X42614286Y-40121485D02*
X43233333Y-40121485D01*
X54138095Y-39454819D02*
X53661905Y-39454819D01*
X53661905Y-39454819D02*
X53614286Y-39931009D01*
X53614286Y-39931009D02*
X53661905Y-39883390D01*
X53661905Y-39883390D02*
X53757143Y-39835771D01*
X53757143Y-39835771D02*
X53995238Y-39835771D01*
X53995238Y-39835771D02*
X54090476Y-39883390D01*
X54090476Y-39883390D02*
X54138095Y-39931009D01*
X54138095Y-39931009D02*
X54185714Y-40026247D01*
X54185714Y-40026247D02*
X54185714Y-40264342D01*
X54185714Y-40264342D02*
X54138095Y-40359580D01*
X54138095Y-40359580D02*
X54090476Y-40407200D01*
X54090476Y-40407200D02*
X53995238Y-40454819D01*
X53995238Y-40454819D02*
X53757143Y-40454819D01*
X53757143Y-40454819D02*
X53661905Y-40407200D01*
X53661905Y-40407200D02*
X53614286Y-40359580D01*
X65090476Y-39454819D02*
X64900000Y-39454819D01*
X64900000Y-39454819D02*
X64804762Y-39502438D01*
X64804762Y-39502438D02*
X64757143Y-39550057D01*
X64757143Y-39550057D02*
X64661905Y-39692914D01*
X64661905Y-39692914D02*
X64614286Y-39883390D01*
X64614286Y-39883390D02*
X64614286Y-40264342D01*
X64614286Y-40264342D02*
X64661905Y-40359580D01*
X64661905Y-40359580D02*
X64709524Y-40407200D01*
X64709524Y-40407200D02*
X64804762Y-40454819D01*
X64804762Y-40454819D02*
X64995238Y-40454819D01*
X64995238Y-40454819D02*
X65090476Y-40407200D01*
X65090476Y-40407200D02*
X65138095Y-40359580D01*
X65138095Y-40359580D02*
X65185714Y-40264342D01*
X65185714Y-40264342D02*
X65185714Y-40026247D01*
X65185714Y-40026247D02*
X65138095Y-39931009D01*
X65138095Y-39931009D02*
X65090476Y-39883390D01*
X65090476Y-39883390D02*
X64995238Y-39835771D01*
X64995238Y-39835771D02*
X64804762Y-39835771D01*
X64804762Y-39835771D02*
X64709524Y-39883390D01*
X64709524Y-39883390D02*
X64661905Y-39931009D01*
X64661905Y-39931009D02*
X64614286Y-40026247D01*
X75566667Y-39454819D02*
X76233333Y-39454819D01*
X76233333Y-39454819D02*
X75804762Y-40454819D01*
X86804762Y-39883390D02*
X86709524Y-39835771D01*
X86709524Y-39835771D02*
X86661905Y-39788152D01*
X86661905Y-39788152D02*
X86614286Y-39692914D01*
X86614286Y-39692914D02*
X86614286Y-39645295D01*
X86614286Y-39645295D02*
X86661905Y-39550057D01*
X86661905Y-39550057D02*
X86709524Y-39502438D01*
X86709524Y-39502438D02*
X86804762Y-39454819D01*
X86804762Y-39454819D02*
X86995238Y-39454819D01*
X86995238Y-39454819D02*
X87090476Y-39502438D01*
X87090476Y-39502438D02*
X87138095Y-39550057D01*
X87138095Y-39550057D02*
X87185714Y-39645295D01*
X87185714Y-39645295D02*
X87185714Y-39692914D01*
X87185714Y-39692914D02*
X87138095Y-39788152D01*
X87138095Y-39788152D02*
X87090476Y-39835771D01*
X87090476Y-39835771D02*
X86995238Y-39883390D01*
X86995238Y-39883390D02*
X86804762Y-39883390D01*
X86804762Y-39883390D02*
X86709524Y-39931009D01*
X86709524Y-39931009D02*
X86661905Y-39978628D01*
X86661905Y-39978628D02*
X86614286Y-40073866D01*
X86614286Y-40073866D02*
X86614286Y-40264342D01*
X86614286Y-40264342D02*
X86661905Y-40359580D01*
X86661905Y-40359580D02*
X86709524Y-40407200D01*
X86709524Y-40407200D02*
X86804762Y-40454819D01*
X86804762Y-40454819D02*
X86995238Y-40454819D01*
X86995238Y-40454819D02*
X87090476Y-40407200D01*
X87090476Y-40407200D02*
X87138095Y-40359580D01*
X87138095Y-40359580D02*
X87185714Y-40264342D01*
X87185714Y-40264342D02*
X87185714Y-40073866D01*
X87185714Y-40073866D02*
X87138095Y-39978628D01*
X87138095Y-39978628D02*
X87090476Y-39931009D01*
X87090476Y-39931009D02*
X86995238Y-39883390D01*
X101753333Y-15654819D02*
X101420000Y-15178628D01*
X101181905Y-15654819D02*
X101181905Y-14654819D01*
X101181905Y-14654819D02*
X101562857Y-14654819D01*
X101562857Y-14654819D02*
X101658095Y-14702438D01*
X101658095Y-14702438D02*
X101705714Y-14750057D01*
X101705714Y-14750057D02*
X101753333Y-14845295D01*
X101753333Y-14845295D02*
X101753333Y-14988152D01*
X101753333Y-14988152D02*
X101705714Y-15083390D01*
X101705714Y-15083390D02*
X101658095Y-15131009D01*
X101658095Y-15131009D02*
X101562857Y-15178628D01*
X101562857Y-15178628D02*
X101181905Y-15178628D01*
X102705714Y-15654819D02*
X102134286Y-15654819D01*
X102420000Y-15654819D02*
X102420000Y-14654819D01*
X102420000Y-14654819D02*
X102324762Y-14797676D01*
X102324762Y-14797676D02*
X102229524Y-14892914D01*
X102229524Y-14892914D02*
X102134286Y-14940533D01*
X57032380Y-20454819D02*
X56699047Y-19978628D01*
X56460952Y-20454819D02*
X56460952Y-19454819D01*
X56460952Y-19454819D02*
X56841904Y-19454819D01*
X56841904Y-19454819D02*
X56937142Y-19502438D01*
X56937142Y-19502438D02*
X56984761Y-19550057D01*
X56984761Y-19550057D02*
X57032380Y-19645295D01*
X57032380Y-19645295D02*
X57032380Y-19788152D01*
X57032380Y-19788152D02*
X56984761Y-19883390D01*
X56984761Y-19883390D02*
X56937142Y-19931009D01*
X56937142Y-19931009D02*
X56841904Y-19978628D01*
X56841904Y-19978628D02*
X56460952Y-19978628D01*
X57937142Y-20454819D02*
X57460952Y-20454819D01*
X57460952Y-20454819D02*
X57460952Y-19454819D01*
X58794285Y-20454819D02*
X58222857Y-20454819D01*
X58508571Y-20454819D02*
X58508571Y-19454819D01*
X58508571Y-19454819D02*
X58413333Y-19597676D01*
X58413333Y-19597676D02*
X58318095Y-19692914D01*
X58318095Y-19692914D02*
X58222857Y-19740533D01*
X59413333Y-19454819D02*
X59508571Y-19454819D01*
X59508571Y-19454819D02*
X59603809Y-19502438D01*
X59603809Y-19502438D02*
X59651428Y-19550057D01*
X59651428Y-19550057D02*
X59699047Y-19645295D01*
X59699047Y-19645295D02*
X59746666Y-19835771D01*
X59746666Y-19835771D02*
X59746666Y-20073866D01*
X59746666Y-20073866D02*
X59699047Y-20264342D01*
X59699047Y-20264342D02*
X59651428Y-20359580D01*
X59651428Y-20359580D02*
X59603809Y-20407200D01*
X59603809Y-20407200D02*
X59508571Y-20454819D01*
X59508571Y-20454819D02*
X59413333Y-20454819D01*
X59413333Y-20454819D02*
X59318095Y-20407200D01*
X59318095Y-20407200D02*
X59270476Y-20359580D01*
X59270476Y-20359580D02*
X59222857Y-20264342D01*
X59222857Y-20264342D02*
X59175238Y-20073866D01*
X59175238Y-20073866D02*
X59175238Y-19835771D01*
X59175238Y-19835771D02*
X59222857Y-19645295D01*
X59222857Y-19645295D02*
X59270476Y-19550057D01*
X59270476Y-19550057D02*
X59318095Y-19502438D01*
X59318095Y-19502438D02*
X59413333Y-19454819D01*
X78913333Y-24454819D02*
X78580000Y-23978628D01*
X78341905Y-24454819D02*
X78341905Y-23454819D01*
X78341905Y-23454819D02*
X78722857Y-23454819D01*
X78722857Y-23454819D02*
X78818095Y-23502438D01*
X78818095Y-23502438D02*
X78865714Y-23550057D01*
X78865714Y-23550057D02*
X78913333Y-23645295D01*
X78913333Y-23645295D02*
X78913333Y-23788152D01*
X78913333Y-23788152D02*
X78865714Y-23883390D01*
X78865714Y-23883390D02*
X78818095Y-23931009D01*
X78818095Y-23931009D02*
X78722857Y-23978628D01*
X78722857Y-23978628D02*
X78341905Y-23978628D01*
X79770476Y-23788152D02*
X79770476Y-24454819D01*
X79532381Y-23407200D02*
X79294286Y-24121485D01*
X79294286Y-24121485D02*
X79913333Y-24121485D01*
X50954819Y-49642857D02*
X50478628Y-49976190D01*
X50954819Y-50214285D02*
X49954819Y-50214285D01*
X49954819Y-50214285D02*
X49954819Y-49833333D01*
X49954819Y-49833333D02*
X50002438Y-49738095D01*
X50002438Y-49738095D02*
X50050057Y-49690476D01*
X50050057Y-49690476D02*
X50145295Y-49642857D01*
X50145295Y-49642857D02*
X50288152Y-49642857D01*
X50288152Y-49642857D02*
X50383390Y-49690476D01*
X50383390Y-49690476D02*
X50431009Y-49738095D01*
X50431009Y-49738095D02*
X50478628Y-49833333D01*
X50478628Y-49833333D02*
X50478628Y-50214285D01*
X50907200Y-49261904D02*
X50954819Y-49119047D01*
X50954819Y-49119047D02*
X50954819Y-48880952D01*
X50954819Y-48880952D02*
X50907200Y-48785714D01*
X50907200Y-48785714D02*
X50859580Y-48738095D01*
X50859580Y-48738095D02*
X50764342Y-48690476D01*
X50764342Y-48690476D02*
X50669104Y-48690476D01*
X50669104Y-48690476D02*
X50573866Y-48738095D01*
X50573866Y-48738095D02*
X50526247Y-48785714D01*
X50526247Y-48785714D02*
X50478628Y-48880952D01*
X50478628Y-48880952D02*
X50431009Y-49071428D01*
X50431009Y-49071428D02*
X50383390Y-49166666D01*
X50383390Y-49166666D02*
X50335771Y-49214285D01*
X50335771Y-49214285D02*
X50240533Y-49261904D01*
X50240533Y-49261904D02*
X50145295Y-49261904D01*
X50145295Y-49261904D02*
X50050057Y-49214285D01*
X50050057Y-49214285D02*
X50002438Y-49166666D01*
X50002438Y-49166666D02*
X49954819Y-49071428D01*
X49954819Y-49071428D02*
X49954819Y-48833333D01*
X49954819Y-48833333D02*
X50002438Y-48690476D01*
X50288152Y-47833333D02*
X50954819Y-47833333D01*
X49907200Y-48071428D02*
X50621485Y-48309523D01*
X50621485Y-48309523D02*
X50621485Y-47690476D01*
X47333333Y-11214580D02*
X47285714Y-11262200D01*
X47285714Y-11262200D02*
X47142857Y-11309819D01*
X47142857Y-11309819D02*
X47047619Y-11309819D01*
X47047619Y-11309819D02*
X46904762Y-11262200D01*
X46904762Y-11262200D02*
X46809524Y-11166961D01*
X46809524Y-11166961D02*
X46761905Y-11071723D01*
X46761905Y-11071723D02*
X46714286Y-10881247D01*
X46714286Y-10881247D02*
X46714286Y-10738390D01*
X46714286Y-10738390D02*
X46761905Y-10547914D01*
X46761905Y-10547914D02*
X46809524Y-10452676D01*
X46809524Y-10452676D02*
X46904762Y-10357438D01*
X46904762Y-10357438D02*
X47047619Y-10309819D01*
X47047619Y-10309819D02*
X47142857Y-10309819D01*
X47142857Y-10309819D02*
X47285714Y-10357438D01*
X47285714Y-10357438D02*
X47333333Y-10405057D01*
X47666667Y-10309819D02*
X48333333Y-10309819D01*
X48333333Y-10309819D02*
X47904762Y-11309819D01*
X17954819Y-49642857D02*
X17478628Y-49976190D01*
X17954819Y-50214285D02*
X16954819Y-50214285D01*
X16954819Y-50214285D02*
X16954819Y-49833333D01*
X16954819Y-49833333D02*
X17002438Y-49738095D01*
X17002438Y-49738095D02*
X17050057Y-49690476D01*
X17050057Y-49690476D02*
X17145295Y-49642857D01*
X17145295Y-49642857D02*
X17288152Y-49642857D01*
X17288152Y-49642857D02*
X17383390Y-49690476D01*
X17383390Y-49690476D02*
X17431009Y-49738095D01*
X17431009Y-49738095D02*
X17478628Y-49833333D01*
X17478628Y-49833333D02*
X17478628Y-50214285D01*
X17907200Y-49261904D02*
X17954819Y-49119047D01*
X17954819Y-49119047D02*
X17954819Y-48880952D01*
X17954819Y-48880952D02*
X17907200Y-48785714D01*
X17907200Y-48785714D02*
X17859580Y-48738095D01*
X17859580Y-48738095D02*
X17764342Y-48690476D01*
X17764342Y-48690476D02*
X17669104Y-48690476D01*
X17669104Y-48690476D02*
X17573866Y-48738095D01*
X17573866Y-48738095D02*
X17526247Y-48785714D01*
X17526247Y-48785714D02*
X17478628Y-48880952D01*
X17478628Y-48880952D02*
X17431009Y-49071428D01*
X17431009Y-49071428D02*
X17383390Y-49166666D01*
X17383390Y-49166666D02*
X17335771Y-49214285D01*
X17335771Y-49214285D02*
X17240533Y-49261904D01*
X17240533Y-49261904D02*
X17145295Y-49261904D01*
X17145295Y-49261904D02*
X17050057Y-49214285D01*
X17050057Y-49214285D02*
X17002438Y-49166666D01*
X17002438Y-49166666D02*
X16954819Y-49071428D01*
X16954819Y-49071428D02*
X16954819Y-48833333D01*
X16954819Y-48833333D02*
X17002438Y-48690476D01*
X17954819Y-47738095D02*
X17954819Y-48309523D01*
X17954819Y-48023809D02*
X16954819Y-48023809D01*
X16954819Y-48023809D02*
X17097676Y-48119047D01*
X17097676Y-48119047D02*
X17192914Y-48214285D01*
X17192914Y-48214285D02*
X17240533Y-48309523D01*
X61954819Y-49642857D02*
X61478628Y-49976190D01*
X61954819Y-50214285D02*
X60954819Y-50214285D01*
X60954819Y-50214285D02*
X60954819Y-49833333D01*
X60954819Y-49833333D02*
X61002438Y-49738095D01*
X61002438Y-49738095D02*
X61050057Y-49690476D01*
X61050057Y-49690476D02*
X61145295Y-49642857D01*
X61145295Y-49642857D02*
X61288152Y-49642857D01*
X61288152Y-49642857D02*
X61383390Y-49690476D01*
X61383390Y-49690476D02*
X61431009Y-49738095D01*
X61431009Y-49738095D02*
X61478628Y-49833333D01*
X61478628Y-49833333D02*
X61478628Y-50214285D01*
X61907200Y-49261904D02*
X61954819Y-49119047D01*
X61954819Y-49119047D02*
X61954819Y-48880952D01*
X61954819Y-48880952D02*
X61907200Y-48785714D01*
X61907200Y-48785714D02*
X61859580Y-48738095D01*
X61859580Y-48738095D02*
X61764342Y-48690476D01*
X61764342Y-48690476D02*
X61669104Y-48690476D01*
X61669104Y-48690476D02*
X61573866Y-48738095D01*
X61573866Y-48738095D02*
X61526247Y-48785714D01*
X61526247Y-48785714D02*
X61478628Y-48880952D01*
X61478628Y-48880952D02*
X61431009Y-49071428D01*
X61431009Y-49071428D02*
X61383390Y-49166666D01*
X61383390Y-49166666D02*
X61335771Y-49214285D01*
X61335771Y-49214285D02*
X61240533Y-49261904D01*
X61240533Y-49261904D02*
X61145295Y-49261904D01*
X61145295Y-49261904D02*
X61050057Y-49214285D01*
X61050057Y-49214285D02*
X61002438Y-49166666D01*
X61002438Y-49166666D02*
X60954819Y-49071428D01*
X60954819Y-49071428D02*
X60954819Y-48833333D01*
X60954819Y-48833333D02*
X61002438Y-48690476D01*
X60954819Y-47785714D02*
X60954819Y-48261904D01*
X60954819Y-48261904D02*
X61431009Y-48309523D01*
X61431009Y-48309523D02*
X61383390Y-48261904D01*
X61383390Y-48261904D02*
X61335771Y-48166666D01*
X61335771Y-48166666D02*
X61335771Y-47928571D01*
X61335771Y-47928571D02*
X61383390Y-47833333D01*
X61383390Y-47833333D02*
X61431009Y-47785714D01*
X61431009Y-47785714D02*
X61526247Y-47738095D01*
X61526247Y-47738095D02*
X61764342Y-47738095D01*
X61764342Y-47738095D02*
X61859580Y-47785714D01*
X61859580Y-47785714D02*
X61907200Y-47833333D01*
X61907200Y-47833333D02*
X61954819Y-47928571D01*
X61954819Y-47928571D02*
X61954819Y-48166666D01*
X61954819Y-48166666D02*
X61907200Y-48261904D01*
X61907200Y-48261904D02*
X61859580Y-48309523D01*
X63424760Y-16899819D02*
X62948570Y-16899819D01*
X62948570Y-16899819D02*
X62948570Y-15899819D01*
X63758094Y-16376009D02*
X64091427Y-16376009D01*
X64234284Y-16899819D02*
X63758094Y-16899819D01*
X63758094Y-16899819D02*
X63758094Y-15899819D01*
X63758094Y-15899819D02*
X64234284Y-15899819D01*
X64662856Y-16899819D02*
X64662856Y-15899819D01*
X64662856Y-15899819D02*
X64900951Y-15899819D01*
X64900951Y-15899819D02*
X65043808Y-15947438D01*
X65043808Y-15947438D02*
X65139046Y-16042676D01*
X65139046Y-16042676D02*
X65186665Y-16137914D01*
X65186665Y-16137914D02*
X65234284Y-16328390D01*
X65234284Y-16328390D02*
X65234284Y-16471247D01*
X65234284Y-16471247D02*
X65186665Y-16661723D01*
X65186665Y-16661723D02*
X65139046Y-16756961D01*
X65139046Y-16756961D02*
X65043808Y-16852200D01*
X65043808Y-16852200D02*
X64900951Y-16899819D01*
X64900951Y-16899819D02*
X64662856Y-16899819D01*
X66186665Y-16899819D02*
X65615237Y-16899819D01*
X65900951Y-16899819D02*
X65900951Y-15899819D01*
X65900951Y-15899819D02*
X65805713Y-16042676D01*
X65805713Y-16042676D02*
X65710475Y-16137914D01*
X65710475Y-16137914D02*
X65615237Y-16185533D01*
X66805713Y-15899819D02*
X66900951Y-15899819D01*
X66900951Y-15899819D02*
X66996189Y-15947438D01*
X66996189Y-15947438D02*
X67043808Y-15995057D01*
X67043808Y-15995057D02*
X67091427Y-16090295D01*
X67091427Y-16090295D02*
X67139046Y-16280771D01*
X67139046Y-16280771D02*
X67139046Y-16518866D01*
X67139046Y-16518866D02*
X67091427Y-16709342D01*
X67091427Y-16709342D02*
X67043808Y-16804580D01*
X67043808Y-16804580D02*
X66996189Y-16852200D01*
X66996189Y-16852200D02*
X66900951Y-16899819D01*
X66900951Y-16899819D02*
X66805713Y-16899819D01*
X66805713Y-16899819D02*
X66710475Y-16852200D01*
X66710475Y-16852200D02*
X66662856Y-16804580D01*
X66662856Y-16804580D02*
X66615237Y-16709342D01*
X66615237Y-16709342D02*
X66567618Y-16518866D01*
X66567618Y-16518866D02*
X66567618Y-16280771D01*
X66567618Y-16280771D02*
X66615237Y-16090295D01*
X66615237Y-16090295D02*
X66662856Y-15995057D01*
X66662856Y-15995057D02*
X66710475Y-15947438D01*
X66710475Y-15947438D02*
X66805713Y-15899819D01*
X71913333Y-13954819D02*
X71580000Y-13478628D01*
X71341905Y-13954819D02*
X71341905Y-12954819D01*
X71341905Y-12954819D02*
X71722857Y-12954819D01*
X71722857Y-12954819D02*
X71818095Y-13002438D01*
X71818095Y-13002438D02*
X71865714Y-13050057D01*
X71865714Y-13050057D02*
X71913333Y-13145295D01*
X71913333Y-13145295D02*
X71913333Y-13288152D01*
X71913333Y-13288152D02*
X71865714Y-13383390D01*
X71865714Y-13383390D02*
X71818095Y-13431009D01*
X71818095Y-13431009D02*
X71722857Y-13478628D01*
X71722857Y-13478628D02*
X71341905Y-13478628D01*
X72818095Y-12954819D02*
X72341905Y-12954819D01*
X72341905Y-12954819D02*
X72294286Y-13431009D01*
X72294286Y-13431009D02*
X72341905Y-13383390D01*
X72341905Y-13383390D02*
X72437143Y-13335771D01*
X72437143Y-13335771D02*
X72675238Y-13335771D01*
X72675238Y-13335771D02*
X72770476Y-13383390D01*
X72770476Y-13383390D02*
X72818095Y-13431009D01*
X72818095Y-13431009D02*
X72865714Y-13526247D01*
X72865714Y-13526247D02*
X72865714Y-13764342D01*
X72865714Y-13764342D02*
X72818095Y-13859580D01*
X72818095Y-13859580D02*
X72770476Y-13907200D01*
X72770476Y-13907200D02*
X72675238Y-13954819D01*
X72675238Y-13954819D02*
X72437143Y-13954819D01*
X72437143Y-13954819D02*
X72341905Y-13907200D01*
X72341905Y-13907200D02*
X72294286Y-13859580D01*
X76954819Y-49571428D02*
X76478628Y-49904761D01*
X76954819Y-50142856D02*
X75954819Y-50142856D01*
X75954819Y-50142856D02*
X75954819Y-49761904D01*
X75954819Y-49761904D02*
X76002438Y-49666666D01*
X76002438Y-49666666D02*
X76050057Y-49619047D01*
X76050057Y-49619047D02*
X76145295Y-49571428D01*
X76145295Y-49571428D02*
X76288152Y-49571428D01*
X76288152Y-49571428D02*
X76383390Y-49619047D01*
X76383390Y-49619047D02*
X76431009Y-49666666D01*
X76431009Y-49666666D02*
X76478628Y-49761904D01*
X76478628Y-49761904D02*
X76478628Y-50142856D01*
X76954819Y-48666666D02*
X76954819Y-49142856D01*
X76954819Y-49142856D02*
X75954819Y-49142856D01*
X75954819Y-48428570D02*
X75954819Y-47761904D01*
X75954819Y-47761904D02*
X76954819Y-48190475D01*
X94954819Y-49642857D02*
X94478628Y-49976190D01*
X94954819Y-50214285D02*
X93954819Y-50214285D01*
X93954819Y-50214285D02*
X93954819Y-49833333D01*
X93954819Y-49833333D02*
X94002438Y-49738095D01*
X94002438Y-49738095D02*
X94050057Y-49690476D01*
X94050057Y-49690476D02*
X94145295Y-49642857D01*
X94145295Y-49642857D02*
X94288152Y-49642857D01*
X94288152Y-49642857D02*
X94383390Y-49690476D01*
X94383390Y-49690476D02*
X94431009Y-49738095D01*
X94431009Y-49738095D02*
X94478628Y-49833333D01*
X94478628Y-49833333D02*
X94478628Y-50214285D01*
X94907200Y-49261904D02*
X94954819Y-49119047D01*
X94954819Y-49119047D02*
X94954819Y-48880952D01*
X94954819Y-48880952D02*
X94907200Y-48785714D01*
X94907200Y-48785714D02*
X94859580Y-48738095D01*
X94859580Y-48738095D02*
X94764342Y-48690476D01*
X94764342Y-48690476D02*
X94669104Y-48690476D01*
X94669104Y-48690476D02*
X94573866Y-48738095D01*
X94573866Y-48738095D02*
X94526247Y-48785714D01*
X94526247Y-48785714D02*
X94478628Y-48880952D01*
X94478628Y-48880952D02*
X94431009Y-49071428D01*
X94431009Y-49071428D02*
X94383390Y-49166666D01*
X94383390Y-49166666D02*
X94335771Y-49214285D01*
X94335771Y-49214285D02*
X94240533Y-49261904D01*
X94240533Y-49261904D02*
X94145295Y-49261904D01*
X94145295Y-49261904D02*
X94050057Y-49214285D01*
X94050057Y-49214285D02*
X94002438Y-49166666D01*
X94002438Y-49166666D02*
X93954819Y-49071428D01*
X93954819Y-49071428D02*
X93954819Y-48833333D01*
X93954819Y-48833333D02*
X94002438Y-48690476D01*
X94383390Y-48119047D02*
X94335771Y-48214285D01*
X94335771Y-48214285D02*
X94288152Y-48261904D01*
X94288152Y-48261904D02*
X94192914Y-48309523D01*
X94192914Y-48309523D02*
X94145295Y-48309523D01*
X94145295Y-48309523D02*
X94050057Y-48261904D01*
X94050057Y-48261904D02*
X94002438Y-48214285D01*
X94002438Y-48214285D02*
X93954819Y-48119047D01*
X93954819Y-48119047D02*
X93954819Y-47928571D01*
X93954819Y-47928571D02*
X94002438Y-47833333D01*
X94002438Y-47833333D02*
X94050057Y-47785714D01*
X94050057Y-47785714D02*
X94145295Y-47738095D01*
X94145295Y-47738095D02*
X94192914Y-47738095D01*
X94192914Y-47738095D02*
X94288152Y-47785714D01*
X94288152Y-47785714D02*
X94335771Y-47833333D01*
X94335771Y-47833333D02*
X94383390Y-47928571D01*
X94383390Y-47928571D02*
X94383390Y-48119047D01*
X94383390Y-48119047D02*
X94431009Y-48214285D01*
X94431009Y-48214285D02*
X94478628Y-48261904D01*
X94478628Y-48261904D02*
X94573866Y-48309523D01*
X94573866Y-48309523D02*
X94764342Y-48309523D01*
X94764342Y-48309523D02*
X94859580Y-48261904D01*
X94859580Y-48261904D02*
X94907200Y-48214285D01*
X94907200Y-48214285D02*
X94954819Y-48119047D01*
X94954819Y-48119047D02*
X94954819Y-47928571D01*
X94954819Y-47928571D02*
X94907200Y-47833333D01*
X94907200Y-47833333D02*
X94859580Y-47785714D01*
X94859580Y-47785714D02*
X94764342Y-47738095D01*
X94764342Y-47738095D02*
X94573866Y-47738095D01*
X94573866Y-47738095D02*
X94478628Y-47785714D01*
X94478628Y-47785714D02*
X94431009Y-47833333D01*
X94431009Y-47833333D02*
X94383390Y-47928571D01*
X28954819Y-49642857D02*
X28478628Y-49976190D01*
X28954819Y-50214285D02*
X27954819Y-50214285D01*
X27954819Y-50214285D02*
X27954819Y-49833333D01*
X27954819Y-49833333D02*
X28002438Y-49738095D01*
X28002438Y-49738095D02*
X28050057Y-49690476D01*
X28050057Y-49690476D02*
X28145295Y-49642857D01*
X28145295Y-49642857D02*
X28288152Y-49642857D01*
X28288152Y-49642857D02*
X28383390Y-49690476D01*
X28383390Y-49690476D02*
X28431009Y-49738095D01*
X28431009Y-49738095D02*
X28478628Y-49833333D01*
X28478628Y-49833333D02*
X28478628Y-50214285D01*
X28907200Y-49261904D02*
X28954819Y-49119047D01*
X28954819Y-49119047D02*
X28954819Y-48880952D01*
X28954819Y-48880952D02*
X28907200Y-48785714D01*
X28907200Y-48785714D02*
X28859580Y-48738095D01*
X28859580Y-48738095D02*
X28764342Y-48690476D01*
X28764342Y-48690476D02*
X28669104Y-48690476D01*
X28669104Y-48690476D02*
X28573866Y-48738095D01*
X28573866Y-48738095D02*
X28526247Y-48785714D01*
X28526247Y-48785714D02*
X28478628Y-48880952D01*
X28478628Y-48880952D02*
X28431009Y-49071428D01*
X28431009Y-49071428D02*
X28383390Y-49166666D01*
X28383390Y-49166666D02*
X28335771Y-49214285D01*
X28335771Y-49214285D02*
X28240533Y-49261904D01*
X28240533Y-49261904D02*
X28145295Y-49261904D01*
X28145295Y-49261904D02*
X28050057Y-49214285D01*
X28050057Y-49214285D02*
X28002438Y-49166666D01*
X28002438Y-49166666D02*
X27954819Y-49071428D01*
X27954819Y-49071428D02*
X27954819Y-48833333D01*
X27954819Y-48833333D02*
X28002438Y-48690476D01*
X28050057Y-48309523D02*
X28002438Y-48261904D01*
X28002438Y-48261904D02*
X27954819Y-48166666D01*
X27954819Y-48166666D02*
X27954819Y-47928571D01*
X27954819Y-47928571D02*
X28002438Y-47833333D01*
X28002438Y-47833333D02*
X28050057Y-47785714D01*
X28050057Y-47785714D02*
X28145295Y-47738095D01*
X28145295Y-47738095D02*
X28240533Y-47738095D01*
X28240533Y-47738095D02*
X28383390Y-47785714D01*
X28383390Y-47785714D02*
X28954819Y-48357142D01*
X28954819Y-48357142D02*
X28954819Y-47738095D01*
X54954819Y-49571428D02*
X54478628Y-49904761D01*
X54954819Y-50142856D02*
X53954819Y-50142856D01*
X53954819Y-50142856D02*
X53954819Y-49761904D01*
X53954819Y-49761904D02*
X54002438Y-49666666D01*
X54002438Y-49666666D02*
X54050057Y-49619047D01*
X54050057Y-49619047D02*
X54145295Y-49571428D01*
X54145295Y-49571428D02*
X54288152Y-49571428D01*
X54288152Y-49571428D02*
X54383390Y-49619047D01*
X54383390Y-49619047D02*
X54431009Y-49666666D01*
X54431009Y-49666666D02*
X54478628Y-49761904D01*
X54478628Y-49761904D02*
X54478628Y-50142856D01*
X54954819Y-48666666D02*
X54954819Y-49142856D01*
X54954819Y-49142856D02*
X53954819Y-49142856D01*
X53954819Y-47857142D02*
X53954819Y-48333332D01*
X53954819Y-48333332D02*
X54431009Y-48380951D01*
X54431009Y-48380951D02*
X54383390Y-48333332D01*
X54383390Y-48333332D02*
X54335771Y-48238094D01*
X54335771Y-48238094D02*
X54335771Y-47999999D01*
X54335771Y-47999999D02*
X54383390Y-47904761D01*
X54383390Y-47904761D02*
X54431009Y-47857142D01*
X54431009Y-47857142D02*
X54526247Y-47809523D01*
X54526247Y-47809523D02*
X54764342Y-47809523D01*
X54764342Y-47809523D02*
X54859580Y-47857142D01*
X54859580Y-47857142D02*
X54907200Y-47904761D01*
X54907200Y-47904761D02*
X54954819Y-47999999D01*
X54954819Y-47999999D02*
X54954819Y-48238094D01*
X54954819Y-48238094D02*
X54907200Y-48333332D01*
X54907200Y-48333332D02*
X54859580Y-48380951D01*
X5885476Y-10229819D02*
X5885476Y-10944104D01*
X5885476Y-10944104D02*
X5837857Y-11086961D01*
X5837857Y-11086961D02*
X5742619Y-11182200D01*
X5742619Y-11182200D02*
X5599762Y-11229819D01*
X5599762Y-11229819D02*
X5504524Y-11229819D01*
X6885476Y-11229819D02*
X6314048Y-11229819D01*
X6599762Y-11229819D02*
X6599762Y-10229819D01*
X6599762Y-10229819D02*
X6504524Y-10372676D01*
X6504524Y-10372676D02*
X6409286Y-10467914D01*
X6409286Y-10467914D02*
X6314048Y-10515533D01*
X7504524Y-10229819D02*
X7599762Y-10229819D01*
X7599762Y-10229819D02*
X7695000Y-10277438D01*
X7695000Y-10277438D02*
X7742619Y-10325057D01*
X7742619Y-10325057D02*
X7790238Y-10420295D01*
X7790238Y-10420295D02*
X7837857Y-10610771D01*
X7837857Y-10610771D02*
X7837857Y-10848866D01*
X7837857Y-10848866D02*
X7790238Y-11039342D01*
X7790238Y-11039342D02*
X7742619Y-11134580D01*
X7742619Y-11134580D02*
X7695000Y-11182200D01*
X7695000Y-11182200D02*
X7599762Y-11229819D01*
X7599762Y-11229819D02*
X7504524Y-11229819D01*
X7504524Y-11229819D02*
X7409286Y-11182200D01*
X7409286Y-11182200D02*
X7361667Y-11134580D01*
X7361667Y-11134580D02*
X7314048Y-11039342D01*
X7314048Y-11039342D02*
X7266429Y-10848866D01*
X7266429Y-10848866D02*
X7266429Y-10610771D01*
X7266429Y-10610771D02*
X7314048Y-10420295D01*
X7314048Y-10420295D02*
X7361667Y-10325057D01*
X7361667Y-10325057D02*
X7409286Y-10277438D01*
X7409286Y-10277438D02*
X7504524Y-10229819D01*
X40278095Y-14459819D02*
X40278095Y-15269342D01*
X40278095Y-15269342D02*
X40325714Y-15364580D01*
X40325714Y-15364580D02*
X40373333Y-15412200D01*
X40373333Y-15412200D02*
X40468571Y-15459819D01*
X40468571Y-15459819D02*
X40659047Y-15459819D01*
X40659047Y-15459819D02*
X40754285Y-15412200D01*
X40754285Y-15412200D02*
X40801904Y-15364580D01*
X40801904Y-15364580D02*
X40849523Y-15269342D01*
X40849523Y-15269342D02*
X40849523Y-14459819D01*
X41278095Y-14555057D02*
X41325714Y-14507438D01*
X41325714Y-14507438D02*
X41420952Y-14459819D01*
X41420952Y-14459819D02*
X41659047Y-14459819D01*
X41659047Y-14459819D02*
X41754285Y-14507438D01*
X41754285Y-14507438D02*
X41801904Y-14555057D01*
X41801904Y-14555057D02*
X41849523Y-14650295D01*
X41849523Y-14650295D02*
X41849523Y-14745533D01*
X41849523Y-14745533D02*
X41801904Y-14888390D01*
X41801904Y-14888390D02*
X41230476Y-15459819D01*
X41230476Y-15459819D02*
X41849523Y-15459819D01*
X32954819Y-49571428D02*
X32478628Y-49904761D01*
X32954819Y-50142856D02*
X31954819Y-50142856D01*
X31954819Y-50142856D02*
X31954819Y-49761904D01*
X31954819Y-49761904D02*
X32002438Y-49666666D01*
X32002438Y-49666666D02*
X32050057Y-49619047D01*
X32050057Y-49619047D02*
X32145295Y-49571428D01*
X32145295Y-49571428D02*
X32288152Y-49571428D01*
X32288152Y-49571428D02*
X32383390Y-49619047D01*
X32383390Y-49619047D02*
X32431009Y-49666666D01*
X32431009Y-49666666D02*
X32478628Y-49761904D01*
X32478628Y-49761904D02*
X32478628Y-50142856D01*
X32954819Y-48666666D02*
X32954819Y-49142856D01*
X32954819Y-49142856D02*
X31954819Y-49142856D01*
X31954819Y-48428570D02*
X31954819Y-47809523D01*
X31954819Y-47809523D02*
X32335771Y-48142856D01*
X32335771Y-48142856D02*
X32335771Y-47999999D01*
X32335771Y-47999999D02*
X32383390Y-47904761D01*
X32383390Y-47904761D02*
X32431009Y-47857142D01*
X32431009Y-47857142D02*
X32526247Y-47809523D01*
X32526247Y-47809523D02*
X32764342Y-47809523D01*
X32764342Y-47809523D02*
X32859580Y-47857142D01*
X32859580Y-47857142D02*
X32907200Y-47904761D01*
X32907200Y-47904761D02*
X32954819Y-47999999D01*
X32954819Y-47999999D02*
X32954819Y-48285713D01*
X32954819Y-48285713D02*
X32907200Y-48380951D01*
X32907200Y-48380951D02*
X32859580Y-48428570D01*
X72954819Y-49642857D02*
X72478628Y-49976190D01*
X72954819Y-50214285D02*
X71954819Y-50214285D01*
X71954819Y-50214285D02*
X71954819Y-49833333D01*
X71954819Y-49833333D02*
X72002438Y-49738095D01*
X72002438Y-49738095D02*
X72050057Y-49690476D01*
X72050057Y-49690476D02*
X72145295Y-49642857D01*
X72145295Y-49642857D02*
X72288152Y-49642857D01*
X72288152Y-49642857D02*
X72383390Y-49690476D01*
X72383390Y-49690476D02*
X72431009Y-49738095D01*
X72431009Y-49738095D02*
X72478628Y-49833333D01*
X72478628Y-49833333D02*
X72478628Y-50214285D01*
X72907200Y-49261904D02*
X72954819Y-49119047D01*
X72954819Y-49119047D02*
X72954819Y-48880952D01*
X72954819Y-48880952D02*
X72907200Y-48785714D01*
X72907200Y-48785714D02*
X72859580Y-48738095D01*
X72859580Y-48738095D02*
X72764342Y-48690476D01*
X72764342Y-48690476D02*
X72669104Y-48690476D01*
X72669104Y-48690476D02*
X72573866Y-48738095D01*
X72573866Y-48738095D02*
X72526247Y-48785714D01*
X72526247Y-48785714D02*
X72478628Y-48880952D01*
X72478628Y-48880952D02*
X72431009Y-49071428D01*
X72431009Y-49071428D02*
X72383390Y-49166666D01*
X72383390Y-49166666D02*
X72335771Y-49214285D01*
X72335771Y-49214285D02*
X72240533Y-49261904D01*
X72240533Y-49261904D02*
X72145295Y-49261904D01*
X72145295Y-49261904D02*
X72050057Y-49214285D01*
X72050057Y-49214285D02*
X72002438Y-49166666D01*
X72002438Y-49166666D02*
X71954819Y-49071428D01*
X71954819Y-49071428D02*
X71954819Y-48833333D01*
X71954819Y-48833333D02*
X72002438Y-48690476D01*
X71954819Y-47833333D02*
X71954819Y-48023809D01*
X71954819Y-48023809D02*
X72002438Y-48119047D01*
X72002438Y-48119047D02*
X72050057Y-48166666D01*
X72050057Y-48166666D02*
X72192914Y-48261904D01*
X72192914Y-48261904D02*
X72383390Y-48309523D01*
X72383390Y-48309523D02*
X72764342Y-48309523D01*
X72764342Y-48309523D02*
X72859580Y-48261904D01*
X72859580Y-48261904D02*
X72907200Y-48214285D01*
X72907200Y-48214285D02*
X72954819Y-48119047D01*
X72954819Y-48119047D02*
X72954819Y-47928571D01*
X72954819Y-47928571D02*
X72907200Y-47833333D01*
X72907200Y-47833333D02*
X72859580Y-47785714D01*
X72859580Y-47785714D02*
X72764342Y-47738095D01*
X72764342Y-47738095D02*
X72526247Y-47738095D01*
X72526247Y-47738095D02*
X72431009Y-47785714D01*
X72431009Y-47785714D02*
X72383390Y-47833333D01*
X72383390Y-47833333D02*
X72335771Y-47928571D01*
X72335771Y-47928571D02*
X72335771Y-48119047D01*
X72335771Y-48119047D02*
X72383390Y-48214285D01*
X72383390Y-48214285D02*
X72431009Y-48261904D01*
X72431009Y-48261904D02*
X72526247Y-48309523D01*
X21954819Y-49571428D02*
X21478628Y-49904761D01*
X21954819Y-50142856D02*
X20954819Y-50142856D01*
X20954819Y-50142856D02*
X20954819Y-49761904D01*
X20954819Y-49761904D02*
X21002438Y-49666666D01*
X21002438Y-49666666D02*
X21050057Y-49619047D01*
X21050057Y-49619047D02*
X21145295Y-49571428D01*
X21145295Y-49571428D02*
X21288152Y-49571428D01*
X21288152Y-49571428D02*
X21383390Y-49619047D01*
X21383390Y-49619047D02*
X21431009Y-49666666D01*
X21431009Y-49666666D02*
X21478628Y-49761904D01*
X21478628Y-49761904D02*
X21478628Y-50142856D01*
X21954819Y-48666666D02*
X21954819Y-49142856D01*
X21954819Y-49142856D02*
X20954819Y-49142856D01*
X21050057Y-48380951D02*
X21002438Y-48333332D01*
X21002438Y-48333332D02*
X20954819Y-48238094D01*
X20954819Y-48238094D02*
X20954819Y-47999999D01*
X20954819Y-47999999D02*
X21002438Y-47904761D01*
X21002438Y-47904761D02*
X21050057Y-47857142D01*
X21050057Y-47857142D02*
X21145295Y-47809523D01*
X21145295Y-47809523D02*
X21240533Y-47809523D01*
X21240533Y-47809523D02*
X21383390Y-47857142D01*
X21383390Y-47857142D02*
X21954819Y-48428570D01*
X21954819Y-48428570D02*
X21954819Y-47809523D01*
X83954819Y-49642857D02*
X83478628Y-49976190D01*
X83954819Y-50214285D02*
X82954819Y-50214285D01*
X82954819Y-50214285D02*
X82954819Y-49833333D01*
X82954819Y-49833333D02*
X83002438Y-49738095D01*
X83002438Y-49738095D02*
X83050057Y-49690476D01*
X83050057Y-49690476D02*
X83145295Y-49642857D01*
X83145295Y-49642857D02*
X83288152Y-49642857D01*
X83288152Y-49642857D02*
X83383390Y-49690476D01*
X83383390Y-49690476D02*
X83431009Y-49738095D01*
X83431009Y-49738095D02*
X83478628Y-49833333D01*
X83478628Y-49833333D02*
X83478628Y-50214285D01*
X83907200Y-49261904D02*
X83954819Y-49119047D01*
X83954819Y-49119047D02*
X83954819Y-48880952D01*
X83954819Y-48880952D02*
X83907200Y-48785714D01*
X83907200Y-48785714D02*
X83859580Y-48738095D01*
X83859580Y-48738095D02*
X83764342Y-48690476D01*
X83764342Y-48690476D02*
X83669104Y-48690476D01*
X83669104Y-48690476D02*
X83573866Y-48738095D01*
X83573866Y-48738095D02*
X83526247Y-48785714D01*
X83526247Y-48785714D02*
X83478628Y-48880952D01*
X83478628Y-48880952D02*
X83431009Y-49071428D01*
X83431009Y-49071428D02*
X83383390Y-49166666D01*
X83383390Y-49166666D02*
X83335771Y-49214285D01*
X83335771Y-49214285D02*
X83240533Y-49261904D01*
X83240533Y-49261904D02*
X83145295Y-49261904D01*
X83145295Y-49261904D02*
X83050057Y-49214285D01*
X83050057Y-49214285D02*
X83002438Y-49166666D01*
X83002438Y-49166666D02*
X82954819Y-49071428D01*
X82954819Y-49071428D02*
X82954819Y-48833333D01*
X82954819Y-48833333D02*
X83002438Y-48690476D01*
X82954819Y-48357142D02*
X82954819Y-47690476D01*
X82954819Y-47690476D02*
X83954819Y-48119047D01*
X47834333Y-22267580D02*
X47786714Y-22315200D01*
X47786714Y-22315200D02*
X47643857Y-22362819D01*
X47643857Y-22362819D02*
X47548619Y-22362819D01*
X47548619Y-22362819D02*
X47405762Y-22315200D01*
X47405762Y-22315200D02*
X47310524Y-22219961D01*
X47310524Y-22219961D02*
X47262905Y-22124723D01*
X47262905Y-22124723D02*
X47215286Y-21934247D01*
X47215286Y-21934247D02*
X47215286Y-21791390D01*
X47215286Y-21791390D02*
X47262905Y-21600914D01*
X47262905Y-21600914D02*
X47310524Y-21505676D01*
X47310524Y-21505676D02*
X47405762Y-21410438D01*
X47405762Y-21410438D02*
X47548619Y-21362819D01*
X47548619Y-21362819D02*
X47643857Y-21362819D01*
X47643857Y-21362819D02*
X47786714Y-21410438D01*
X47786714Y-21410438D02*
X47834333Y-21458057D01*
X48691476Y-21362819D02*
X48501000Y-21362819D01*
X48501000Y-21362819D02*
X48405762Y-21410438D01*
X48405762Y-21410438D02*
X48358143Y-21458057D01*
X48358143Y-21458057D02*
X48262905Y-21600914D01*
X48262905Y-21600914D02*
X48215286Y-21791390D01*
X48215286Y-21791390D02*
X48215286Y-22172342D01*
X48215286Y-22172342D02*
X48262905Y-22267580D01*
X48262905Y-22267580D02*
X48310524Y-22315200D01*
X48310524Y-22315200D02*
X48405762Y-22362819D01*
X48405762Y-22362819D02*
X48596238Y-22362819D01*
X48596238Y-22362819D02*
X48691476Y-22315200D01*
X48691476Y-22315200D02*
X48739095Y-22267580D01*
X48739095Y-22267580D02*
X48786714Y-22172342D01*
X48786714Y-22172342D02*
X48786714Y-21934247D01*
X48786714Y-21934247D02*
X48739095Y-21839009D01*
X48739095Y-21839009D02*
X48691476Y-21791390D01*
X48691476Y-21791390D02*
X48596238Y-21743771D01*
X48596238Y-21743771D02*
X48405762Y-21743771D01*
X48405762Y-21743771D02*
X48310524Y-21791390D01*
X48310524Y-21791390D02*
X48262905Y-21839009D01*
X48262905Y-21839009D02*
X48215286Y-21934247D01*
X39954819Y-49642857D02*
X39478628Y-49976190D01*
X39954819Y-50214285D02*
X38954819Y-50214285D01*
X38954819Y-50214285D02*
X38954819Y-49833333D01*
X38954819Y-49833333D02*
X39002438Y-49738095D01*
X39002438Y-49738095D02*
X39050057Y-49690476D01*
X39050057Y-49690476D02*
X39145295Y-49642857D01*
X39145295Y-49642857D02*
X39288152Y-49642857D01*
X39288152Y-49642857D02*
X39383390Y-49690476D01*
X39383390Y-49690476D02*
X39431009Y-49738095D01*
X39431009Y-49738095D02*
X39478628Y-49833333D01*
X39478628Y-49833333D02*
X39478628Y-50214285D01*
X39907200Y-49261904D02*
X39954819Y-49119047D01*
X39954819Y-49119047D02*
X39954819Y-48880952D01*
X39954819Y-48880952D02*
X39907200Y-48785714D01*
X39907200Y-48785714D02*
X39859580Y-48738095D01*
X39859580Y-48738095D02*
X39764342Y-48690476D01*
X39764342Y-48690476D02*
X39669104Y-48690476D01*
X39669104Y-48690476D02*
X39573866Y-48738095D01*
X39573866Y-48738095D02*
X39526247Y-48785714D01*
X39526247Y-48785714D02*
X39478628Y-48880952D01*
X39478628Y-48880952D02*
X39431009Y-49071428D01*
X39431009Y-49071428D02*
X39383390Y-49166666D01*
X39383390Y-49166666D02*
X39335771Y-49214285D01*
X39335771Y-49214285D02*
X39240533Y-49261904D01*
X39240533Y-49261904D02*
X39145295Y-49261904D01*
X39145295Y-49261904D02*
X39050057Y-49214285D01*
X39050057Y-49214285D02*
X39002438Y-49166666D01*
X39002438Y-49166666D02*
X38954819Y-49071428D01*
X38954819Y-49071428D02*
X38954819Y-48833333D01*
X38954819Y-48833333D02*
X39002438Y-48690476D01*
X38954819Y-48357142D02*
X38954819Y-47738095D01*
X38954819Y-47738095D02*
X39335771Y-48071428D01*
X39335771Y-48071428D02*
X39335771Y-47928571D01*
X39335771Y-47928571D02*
X39383390Y-47833333D01*
X39383390Y-47833333D02*
X39431009Y-47785714D01*
X39431009Y-47785714D02*
X39526247Y-47738095D01*
X39526247Y-47738095D02*
X39764342Y-47738095D01*
X39764342Y-47738095D02*
X39859580Y-47785714D01*
X39859580Y-47785714D02*
X39907200Y-47833333D01*
X39907200Y-47833333D02*
X39954819Y-47928571D01*
X39954819Y-47928571D02*
X39954819Y-48214285D01*
X39954819Y-48214285D02*
X39907200Y-48309523D01*
X39907200Y-48309523D02*
X39859580Y-48357142D01*
X87954819Y-49571428D02*
X87478628Y-49904761D01*
X87954819Y-50142856D02*
X86954819Y-50142856D01*
X86954819Y-50142856D02*
X86954819Y-49761904D01*
X86954819Y-49761904D02*
X87002438Y-49666666D01*
X87002438Y-49666666D02*
X87050057Y-49619047D01*
X87050057Y-49619047D02*
X87145295Y-49571428D01*
X87145295Y-49571428D02*
X87288152Y-49571428D01*
X87288152Y-49571428D02*
X87383390Y-49619047D01*
X87383390Y-49619047D02*
X87431009Y-49666666D01*
X87431009Y-49666666D02*
X87478628Y-49761904D01*
X87478628Y-49761904D02*
X87478628Y-50142856D01*
X87954819Y-48666666D02*
X87954819Y-49142856D01*
X87954819Y-49142856D02*
X86954819Y-49142856D01*
X87383390Y-48190475D02*
X87335771Y-48285713D01*
X87335771Y-48285713D02*
X87288152Y-48333332D01*
X87288152Y-48333332D02*
X87192914Y-48380951D01*
X87192914Y-48380951D02*
X87145295Y-48380951D01*
X87145295Y-48380951D02*
X87050057Y-48333332D01*
X87050057Y-48333332D02*
X87002438Y-48285713D01*
X87002438Y-48285713D02*
X86954819Y-48190475D01*
X86954819Y-48190475D02*
X86954819Y-47999999D01*
X86954819Y-47999999D02*
X87002438Y-47904761D01*
X87002438Y-47904761D02*
X87050057Y-47857142D01*
X87050057Y-47857142D02*
X87145295Y-47809523D01*
X87145295Y-47809523D02*
X87192914Y-47809523D01*
X87192914Y-47809523D02*
X87288152Y-47857142D01*
X87288152Y-47857142D02*
X87335771Y-47904761D01*
X87335771Y-47904761D02*
X87383390Y-47999999D01*
X87383390Y-47999999D02*
X87383390Y-48190475D01*
X87383390Y-48190475D02*
X87431009Y-48285713D01*
X87431009Y-48285713D02*
X87478628Y-48333332D01*
X87478628Y-48333332D02*
X87573866Y-48380951D01*
X87573866Y-48380951D02*
X87764342Y-48380951D01*
X87764342Y-48380951D02*
X87859580Y-48333332D01*
X87859580Y-48333332D02*
X87907200Y-48285713D01*
X87907200Y-48285713D02*
X87954819Y-48190475D01*
X87954819Y-48190475D02*
X87954819Y-47999999D01*
X87954819Y-47999999D02*
X87907200Y-47904761D01*
X87907200Y-47904761D02*
X87859580Y-47857142D01*
X87859580Y-47857142D02*
X87764342Y-47809523D01*
X87764342Y-47809523D02*
X87573866Y-47809523D01*
X87573866Y-47809523D02*
X87478628Y-47857142D01*
X87478628Y-47857142D02*
X87431009Y-47904761D01*
X87431009Y-47904761D02*
X87383390Y-47999999D01*
X95833333Y-22714580D02*
X95785714Y-22762200D01*
X95785714Y-22762200D02*
X95642857Y-22809819D01*
X95642857Y-22809819D02*
X95547619Y-22809819D01*
X95547619Y-22809819D02*
X95404762Y-22762200D01*
X95404762Y-22762200D02*
X95309524Y-22666961D01*
X95309524Y-22666961D02*
X95261905Y-22571723D01*
X95261905Y-22571723D02*
X95214286Y-22381247D01*
X95214286Y-22381247D02*
X95214286Y-22238390D01*
X95214286Y-22238390D02*
X95261905Y-22047914D01*
X95261905Y-22047914D02*
X95309524Y-21952676D01*
X95309524Y-21952676D02*
X95404762Y-21857438D01*
X95404762Y-21857438D02*
X95547619Y-21809819D01*
X95547619Y-21809819D02*
X95642857Y-21809819D01*
X95642857Y-21809819D02*
X95785714Y-21857438D01*
X95785714Y-21857438D02*
X95833333Y-21905057D01*
X96214286Y-21905057D02*
X96261905Y-21857438D01*
X96261905Y-21857438D02*
X96357143Y-21809819D01*
X96357143Y-21809819D02*
X96595238Y-21809819D01*
X96595238Y-21809819D02*
X96690476Y-21857438D01*
X96690476Y-21857438D02*
X96738095Y-21905057D01*
X96738095Y-21905057D02*
X96785714Y-22000295D01*
X96785714Y-22000295D02*
X96785714Y-22095533D01*
X96785714Y-22095533D02*
X96738095Y-22238390D01*
X96738095Y-22238390D02*
X96166667Y-22809819D01*
X96166667Y-22809819D02*
X96785714Y-22809819D01*
X101083333Y-21964580D02*
X101035714Y-22012200D01*
X101035714Y-22012200D02*
X100892857Y-22059819D01*
X100892857Y-22059819D02*
X100797619Y-22059819D01*
X100797619Y-22059819D02*
X100654762Y-22012200D01*
X100654762Y-22012200D02*
X100559524Y-21916961D01*
X100559524Y-21916961D02*
X100511905Y-21821723D01*
X100511905Y-21821723D02*
X100464286Y-21631247D01*
X100464286Y-21631247D02*
X100464286Y-21488390D01*
X100464286Y-21488390D02*
X100511905Y-21297914D01*
X100511905Y-21297914D02*
X100559524Y-21202676D01*
X100559524Y-21202676D02*
X100654762Y-21107438D01*
X100654762Y-21107438D02*
X100797619Y-21059819D01*
X100797619Y-21059819D02*
X100892857Y-21059819D01*
X100892857Y-21059819D02*
X101035714Y-21107438D01*
X101035714Y-21107438D02*
X101083333Y-21155057D01*
X102035714Y-22059819D02*
X101464286Y-22059819D01*
X101750000Y-22059819D02*
X101750000Y-21059819D01*
X101750000Y-21059819D02*
X101654762Y-21202676D01*
X101654762Y-21202676D02*
X101559524Y-21297914D01*
X101559524Y-21297914D02*
X101464286Y-21345533D01*
X29834333Y-22267580D02*
X29786714Y-22315200D01*
X29786714Y-22315200D02*
X29643857Y-22362819D01*
X29643857Y-22362819D02*
X29548619Y-22362819D01*
X29548619Y-22362819D02*
X29405762Y-22315200D01*
X29405762Y-22315200D02*
X29310524Y-22219961D01*
X29310524Y-22219961D02*
X29262905Y-22124723D01*
X29262905Y-22124723D02*
X29215286Y-21934247D01*
X29215286Y-21934247D02*
X29215286Y-21791390D01*
X29215286Y-21791390D02*
X29262905Y-21600914D01*
X29262905Y-21600914D02*
X29310524Y-21505676D01*
X29310524Y-21505676D02*
X29405762Y-21410438D01*
X29405762Y-21410438D02*
X29548619Y-21362819D01*
X29548619Y-21362819D02*
X29643857Y-21362819D01*
X29643857Y-21362819D02*
X29786714Y-21410438D01*
X29786714Y-21410438D02*
X29834333Y-21458057D01*
X30691476Y-21696152D02*
X30691476Y-22362819D01*
X30453381Y-21315200D02*
X30215286Y-22029485D01*
X30215286Y-22029485D02*
X30834333Y-22029485D01*
X35333333Y-11214580D02*
X35285714Y-11262200D01*
X35285714Y-11262200D02*
X35142857Y-11309819D01*
X35142857Y-11309819D02*
X35047619Y-11309819D01*
X35047619Y-11309819D02*
X34904762Y-11262200D01*
X34904762Y-11262200D02*
X34809524Y-11166961D01*
X34809524Y-11166961D02*
X34761905Y-11071723D01*
X34761905Y-11071723D02*
X34714286Y-10881247D01*
X34714286Y-10881247D02*
X34714286Y-10738390D01*
X34714286Y-10738390D02*
X34761905Y-10547914D01*
X34761905Y-10547914D02*
X34809524Y-10452676D01*
X34809524Y-10452676D02*
X34904762Y-10357438D01*
X34904762Y-10357438D02*
X35047619Y-10309819D01*
X35047619Y-10309819D02*
X35142857Y-10309819D01*
X35142857Y-10309819D02*
X35285714Y-10357438D01*
X35285714Y-10357438D02*
X35333333Y-10405057D01*
X36238095Y-10309819D02*
X35761905Y-10309819D01*
X35761905Y-10309819D02*
X35714286Y-10786009D01*
X35714286Y-10786009D02*
X35761905Y-10738390D01*
X35761905Y-10738390D02*
X35857143Y-10690771D01*
X35857143Y-10690771D02*
X36095238Y-10690771D01*
X36095238Y-10690771D02*
X36190476Y-10738390D01*
X36190476Y-10738390D02*
X36238095Y-10786009D01*
X36238095Y-10786009D02*
X36285714Y-10881247D01*
X36285714Y-10881247D02*
X36285714Y-11119342D01*
X36285714Y-11119342D02*
X36238095Y-11214580D01*
X36238095Y-11214580D02*
X36190476Y-11262200D01*
X36190476Y-11262200D02*
X36095238Y-11309819D01*
X36095238Y-11309819D02*
X35857143Y-11309819D01*
X35857143Y-11309819D02*
X35761905Y-11262200D01*
X35761905Y-11262200D02*
X35714286Y-11214580D01*
X101753333Y-19254819D02*
X101420000Y-18778628D01*
X101181905Y-19254819D02*
X101181905Y-18254819D01*
X101181905Y-18254819D02*
X101562857Y-18254819D01*
X101562857Y-18254819D02*
X101658095Y-18302438D01*
X101658095Y-18302438D02*
X101705714Y-18350057D01*
X101705714Y-18350057D02*
X101753333Y-18445295D01*
X101753333Y-18445295D02*
X101753333Y-18588152D01*
X101753333Y-18588152D02*
X101705714Y-18683390D01*
X101705714Y-18683390D02*
X101658095Y-18731009D01*
X101658095Y-18731009D02*
X101562857Y-18778628D01*
X101562857Y-18778628D02*
X101181905Y-18778628D01*
X102134286Y-18350057D02*
X102181905Y-18302438D01*
X102181905Y-18302438D02*
X102277143Y-18254819D01*
X102277143Y-18254819D02*
X102515238Y-18254819D01*
X102515238Y-18254819D02*
X102610476Y-18302438D01*
X102610476Y-18302438D02*
X102658095Y-18350057D01*
X102658095Y-18350057D02*
X102705714Y-18445295D01*
X102705714Y-18445295D02*
X102705714Y-18540533D01*
X102705714Y-18540533D02*
X102658095Y-18683390D01*
X102658095Y-18683390D02*
X102086667Y-19254819D01*
X102086667Y-19254819D02*
X102705714Y-19254819D01*
X43954819Y-49571428D02*
X43478628Y-49904761D01*
X43954819Y-50142856D02*
X42954819Y-50142856D01*
X42954819Y-50142856D02*
X42954819Y-49761904D01*
X42954819Y-49761904D02*
X43002438Y-49666666D01*
X43002438Y-49666666D02*
X43050057Y-49619047D01*
X43050057Y-49619047D02*
X43145295Y-49571428D01*
X43145295Y-49571428D02*
X43288152Y-49571428D01*
X43288152Y-49571428D02*
X43383390Y-49619047D01*
X43383390Y-49619047D02*
X43431009Y-49666666D01*
X43431009Y-49666666D02*
X43478628Y-49761904D01*
X43478628Y-49761904D02*
X43478628Y-50142856D01*
X43954819Y-48666666D02*
X43954819Y-49142856D01*
X43954819Y-49142856D02*
X42954819Y-49142856D01*
X43288152Y-47904761D02*
X43954819Y-47904761D01*
X42907200Y-48142856D02*
X43621485Y-48380951D01*
X43621485Y-48380951D02*
X43621485Y-47761904D01*
X36913333Y-31454819D02*
X36580000Y-30978628D01*
X36341905Y-31454819D02*
X36341905Y-30454819D01*
X36341905Y-30454819D02*
X36722857Y-30454819D01*
X36722857Y-30454819D02*
X36818095Y-30502438D01*
X36818095Y-30502438D02*
X36865714Y-30550057D01*
X36865714Y-30550057D02*
X36913333Y-30645295D01*
X36913333Y-30645295D02*
X36913333Y-30788152D01*
X36913333Y-30788152D02*
X36865714Y-30883390D01*
X36865714Y-30883390D02*
X36818095Y-30931009D01*
X36818095Y-30931009D02*
X36722857Y-30978628D01*
X36722857Y-30978628D02*
X36341905Y-30978628D01*
X37770476Y-30454819D02*
X37580000Y-30454819D01*
X37580000Y-30454819D02*
X37484762Y-30502438D01*
X37484762Y-30502438D02*
X37437143Y-30550057D01*
X37437143Y-30550057D02*
X37341905Y-30692914D01*
X37341905Y-30692914D02*
X37294286Y-30883390D01*
X37294286Y-30883390D02*
X37294286Y-31264342D01*
X37294286Y-31264342D02*
X37341905Y-31359580D01*
X37341905Y-31359580D02*
X37389524Y-31407200D01*
X37389524Y-31407200D02*
X37484762Y-31454819D01*
X37484762Y-31454819D02*
X37675238Y-31454819D01*
X37675238Y-31454819D02*
X37770476Y-31407200D01*
X37770476Y-31407200D02*
X37818095Y-31359580D01*
X37818095Y-31359580D02*
X37865714Y-31264342D01*
X37865714Y-31264342D02*
X37865714Y-31026247D01*
X37865714Y-31026247D02*
X37818095Y-30931009D01*
X37818095Y-30931009D02*
X37770476Y-30883390D01*
X37770476Y-30883390D02*
X37675238Y-30835771D01*
X37675238Y-30835771D02*
X37484762Y-30835771D01*
X37484762Y-30835771D02*
X37389524Y-30883390D01*
X37389524Y-30883390D02*
X37341905Y-30931009D01*
X37341905Y-30931009D02*
X37294286Y-31026247D01*
X98954819Y-49571428D02*
X98478628Y-49904761D01*
X98954819Y-50142856D02*
X97954819Y-50142856D01*
X97954819Y-50142856D02*
X97954819Y-49761904D01*
X97954819Y-49761904D02*
X98002438Y-49666666D01*
X98002438Y-49666666D02*
X98050057Y-49619047D01*
X98050057Y-49619047D02*
X98145295Y-49571428D01*
X98145295Y-49571428D02*
X98288152Y-49571428D01*
X98288152Y-49571428D02*
X98383390Y-49619047D01*
X98383390Y-49619047D02*
X98431009Y-49666666D01*
X98431009Y-49666666D02*
X98478628Y-49761904D01*
X98478628Y-49761904D02*
X98478628Y-50142856D01*
X98954819Y-48666666D02*
X98954819Y-49142856D01*
X98954819Y-49142856D02*
X97954819Y-49142856D01*
X98954819Y-48285713D02*
X98954819Y-48095237D01*
X98954819Y-48095237D02*
X98907200Y-47999999D01*
X98907200Y-47999999D02*
X98859580Y-47952380D01*
X98859580Y-47952380D02*
X98716723Y-47857142D01*
X98716723Y-47857142D02*
X98526247Y-47809523D01*
X98526247Y-47809523D02*
X98145295Y-47809523D01*
X98145295Y-47809523D02*
X98050057Y-47857142D01*
X98050057Y-47857142D02*
X98002438Y-47904761D01*
X98002438Y-47904761D02*
X97954819Y-47999999D01*
X97954819Y-47999999D02*
X97954819Y-48190475D01*
X97954819Y-48190475D02*
X98002438Y-48285713D01*
X98002438Y-48285713D02*
X98050057Y-48333332D01*
X98050057Y-48333332D02*
X98145295Y-48380951D01*
X98145295Y-48380951D02*
X98383390Y-48380951D01*
X98383390Y-48380951D02*
X98478628Y-48333332D01*
X98478628Y-48333332D02*
X98526247Y-48285713D01*
X98526247Y-48285713D02*
X98573866Y-48190475D01*
X98573866Y-48190475D02*
X98573866Y-47999999D01*
X98573866Y-47999999D02*
X98526247Y-47904761D01*
X98526247Y-47904761D02*
X98478628Y-47857142D01*
X98478628Y-47857142D02*
X98383390Y-47809523D01*
X20181905Y-17509819D02*
X20181905Y-16509819D01*
X20181905Y-16509819D02*
X20420000Y-16509819D01*
X20420000Y-16509819D02*
X20562857Y-16557438D01*
X20562857Y-16557438D02*
X20658095Y-16652676D01*
X20658095Y-16652676D02*
X20705714Y-16747914D01*
X20705714Y-16747914D02*
X20753333Y-16938390D01*
X20753333Y-16938390D02*
X20753333Y-17081247D01*
X20753333Y-17081247D02*
X20705714Y-17271723D01*
X20705714Y-17271723D02*
X20658095Y-17366961D01*
X20658095Y-17366961D02*
X20562857Y-17462200D01*
X20562857Y-17462200D02*
X20420000Y-17509819D01*
X20420000Y-17509819D02*
X20181905Y-17509819D01*
X21705714Y-17509819D02*
X21134286Y-17509819D01*
X21420000Y-17509819D02*
X21420000Y-16509819D01*
X21420000Y-16509819D02*
X21324762Y-16652676D01*
X21324762Y-16652676D02*
X21229524Y-16747914D01*
X21229524Y-16747914D02*
X21134286Y-16795533D01*
X25738095Y-22554819D02*
X25738095Y-21554819D01*
X26309523Y-22554819D02*
X25880952Y-21983390D01*
X26309523Y-21554819D02*
X25738095Y-22126247D01*
X10954819Y-49571428D02*
X10478628Y-49904761D01*
X10954819Y-50142856D02*
X9954819Y-50142856D01*
X9954819Y-50142856D02*
X9954819Y-49761904D01*
X9954819Y-49761904D02*
X10002438Y-49666666D01*
X10002438Y-49666666D02*
X10050057Y-49619047D01*
X10050057Y-49619047D02*
X10145295Y-49571428D01*
X10145295Y-49571428D02*
X10288152Y-49571428D01*
X10288152Y-49571428D02*
X10383390Y-49619047D01*
X10383390Y-49619047D02*
X10431009Y-49666666D01*
X10431009Y-49666666D02*
X10478628Y-49761904D01*
X10478628Y-49761904D02*
X10478628Y-50142856D01*
X10954819Y-48666666D02*
X10954819Y-49142856D01*
X10954819Y-49142856D02*
X9954819Y-49142856D01*
X10954819Y-47809523D02*
X10954819Y-48380951D01*
X10954819Y-48095237D02*
X9954819Y-48095237D01*
X9954819Y-48095237D02*
X10097676Y-48190475D01*
X10097676Y-48190475D02*
X10192914Y-48285713D01*
X10192914Y-48285713D02*
X10240533Y-48380951D01*
X89043095Y-16264819D02*
X89043095Y-17074342D01*
X89043095Y-17074342D02*
X89090714Y-17169580D01*
X89090714Y-17169580D02*
X89138333Y-17217200D01*
X89138333Y-17217200D02*
X89233571Y-17264819D01*
X89233571Y-17264819D02*
X89424047Y-17264819D01*
X89424047Y-17264819D02*
X89519285Y-17217200D01*
X89519285Y-17217200D02*
X89566904Y-17169580D01*
X89566904Y-17169580D02*
X89614523Y-17074342D01*
X89614523Y-17074342D02*
X89614523Y-16264819D01*
X90614523Y-17264819D02*
X90043095Y-17264819D01*
X90328809Y-17264819D02*
X90328809Y-16264819D01*
X90328809Y-16264819D02*
X90233571Y-16407676D01*
X90233571Y-16407676D02*
X90138333Y-16502914D01*
X90138333Y-16502914D02*
X90043095Y-16550533D01*
X105954819Y-49166666D02*
X105478628Y-49499999D01*
X105954819Y-49738094D02*
X104954819Y-49738094D01*
X104954819Y-49738094D02*
X104954819Y-49357142D01*
X104954819Y-49357142D02*
X105002438Y-49261904D01*
X105002438Y-49261904D02*
X105050057Y-49214285D01*
X105050057Y-49214285D02*
X105145295Y-49166666D01*
X105145295Y-49166666D02*
X105288152Y-49166666D01*
X105288152Y-49166666D02*
X105383390Y-49214285D01*
X105383390Y-49214285D02*
X105431009Y-49261904D01*
X105431009Y-49261904D02*
X105478628Y-49357142D01*
X105478628Y-49357142D02*
X105478628Y-49738094D01*
X104954819Y-48833332D02*
X104954819Y-48214285D01*
X104954819Y-48214285D02*
X105335771Y-48547618D01*
X105335771Y-48547618D02*
X105335771Y-48404761D01*
X105335771Y-48404761D02*
X105383390Y-48309523D01*
X105383390Y-48309523D02*
X105431009Y-48261904D01*
X105431009Y-48261904D02*
X105526247Y-48214285D01*
X105526247Y-48214285D02*
X105764342Y-48214285D01*
X105764342Y-48214285D02*
X105859580Y-48261904D01*
X105859580Y-48261904D02*
X105907200Y-48309523D01*
X105907200Y-48309523D02*
X105954819Y-48404761D01*
X105954819Y-48404761D02*
X105954819Y-48690475D01*
X105954819Y-48690475D02*
X105907200Y-48785713D01*
X105907200Y-48785713D02*
X105859580Y-48833332D01*
X98833333Y-8714580D02*
X98785714Y-8762200D01*
X98785714Y-8762200D02*
X98642857Y-8809819D01*
X98642857Y-8809819D02*
X98547619Y-8809819D01*
X98547619Y-8809819D02*
X98404762Y-8762200D01*
X98404762Y-8762200D02*
X98309524Y-8666961D01*
X98309524Y-8666961D02*
X98261905Y-8571723D01*
X98261905Y-8571723D02*
X98214286Y-8381247D01*
X98214286Y-8381247D02*
X98214286Y-8238390D01*
X98214286Y-8238390D02*
X98261905Y-8047914D01*
X98261905Y-8047914D02*
X98309524Y-7952676D01*
X98309524Y-7952676D02*
X98404762Y-7857438D01*
X98404762Y-7857438D02*
X98547619Y-7809819D01*
X98547619Y-7809819D02*
X98642857Y-7809819D01*
X98642857Y-7809819D02*
X98785714Y-7857438D01*
X98785714Y-7857438D02*
X98833333Y-7905057D01*
X99166667Y-7809819D02*
X99785714Y-7809819D01*
X99785714Y-7809819D02*
X99452381Y-8190771D01*
X99452381Y-8190771D02*
X99595238Y-8190771D01*
X99595238Y-8190771D02*
X99690476Y-8238390D01*
X99690476Y-8238390D02*
X99738095Y-8286009D01*
X99738095Y-8286009D02*
X99785714Y-8381247D01*
X99785714Y-8381247D02*
X99785714Y-8619342D01*
X99785714Y-8619342D02*
X99738095Y-8714580D01*
X99738095Y-8714580D02*
X99690476Y-8762200D01*
X99690476Y-8762200D02*
X99595238Y-8809819D01*
X99595238Y-8809819D02*
X99309524Y-8809819D01*
X99309524Y-8809819D02*
X99214286Y-8762200D01*
X99214286Y-8762200D02*
X99166667Y-8714580D01*
X65954819Y-49571428D02*
X65478628Y-49904761D01*
X65954819Y-50142856D02*
X64954819Y-50142856D01*
X64954819Y-50142856D02*
X64954819Y-49761904D01*
X64954819Y-49761904D02*
X65002438Y-49666666D01*
X65002438Y-49666666D02*
X65050057Y-49619047D01*
X65050057Y-49619047D02*
X65145295Y-49571428D01*
X65145295Y-49571428D02*
X65288152Y-49571428D01*
X65288152Y-49571428D02*
X65383390Y-49619047D01*
X65383390Y-49619047D02*
X65431009Y-49666666D01*
X65431009Y-49666666D02*
X65478628Y-49761904D01*
X65478628Y-49761904D02*
X65478628Y-50142856D01*
X65954819Y-48666666D02*
X65954819Y-49142856D01*
X65954819Y-49142856D02*
X64954819Y-49142856D01*
X64954819Y-47904761D02*
X64954819Y-48095237D01*
X64954819Y-48095237D02*
X65002438Y-48190475D01*
X65002438Y-48190475D02*
X65050057Y-48238094D01*
X65050057Y-48238094D02*
X65192914Y-48333332D01*
X65192914Y-48333332D02*
X65383390Y-48380951D01*
X65383390Y-48380951D02*
X65764342Y-48380951D01*
X65764342Y-48380951D02*
X65859580Y-48333332D01*
X65859580Y-48333332D02*
X65907200Y-48285713D01*
X65907200Y-48285713D02*
X65954819Y-48190475D01*
X65954819Y-48190475D02*
X65954819Y-47999999D01*
X65954819Y-47999999D02*
X65907200Y-47904761D01*
X65907200Y-47904761D02*
X65859580Y-47857142D01*
X65859580Y-47857142D02*
X65764342Y-47809523D01*
X65764342Y-47809523D02*
X65526247Y-47809523D01*
X65526247Y-47809523D02*
X65431009Y-47857142D01*
X65431009Y-47857142D02*
X65383390Y-47904761D01*
X65383390Y-47904761D02*
X65335771Y-47999999D01*
X65335771Y-47999999D02*
X65335771Y-48190475D01*
X65335771Y-48190475D02*
X65383390Y-48285713D01*
X65383390Y-48285713D02*
X65431009Y-48333332D01*
X65431009Y-48333332D02*
X65526247Y-48380951D01*
%TO.C,LED5*%
D10*
X59560000Y-38920000D02*
X59560000Y-38764000D01*
X59560000Y-41236000D02*
X59560000Y-41080000D01*
X56328563Y-38920000D02*
G75*
G02*
X59560000Y-38764484I1671437J-1080000D01*
G01*
X56959039Y-38920000D02*
G75*
G02*
X59040961Y-38920000I1040961J-1080000D01*
G01*
X59040961Y-41080000D02*
G75*
G02*
X56959039Y-41080000I-1040961J1080000D01*
G01*
X59560000Y-41235516D02*
G75*
G02*
X56328563Y-41080000I-1560000J1235516D01*
G01*
%TO.C,LED2*%
X26560000Y-38920000D02*
X26560000Y-38764000D01*
X26560000Y-41236000D02*
X26560000Y-41080000D01*
X23328563Y-38920000D02*
G75*
G02*
X26560000Y-38764484I1671437J-1080000D01*
G01*
X23959039Y-38920000D02*
G75*
G02*
X26040961Y-38920000I1040961J-1080000D01*
G01*
X26040961Y-41080000D02*
G75*
G02*
X23959039Y-41080000I-1040961J1080000D01*
G01*
X26560000Y-41235516D02*
G75*
G02*
X23328563Y-41080000I-1560000J1235516D01*
G01*
%TO.C,R1*%
X97880000Y-15200000D02*
X98650000Y-15200000D01*
X105960000Y-15200000D02*
X105190000Y-15200000D01*
X98650000Y-13830000D02*
X105190000Y-13830000D01*
X105190000Y-16570000D01*
X98650000Y-16570000D01*
X98650000Y-13830000D01*
%TO.C,SW2*%
X23640000Y-43890000D02*
X26360000Y-43890000D01*
X26360000Y-54110000D01*
X23640000Y-54110000D01*
X23640000Y-43890000D01*
%TO.C,SW9*%
X100640000Y-43890000D02*
X103360000Y-43890000D01*
X103360000Y-54110000D01*
X100640000Y-54110000D01*
X100640000Y-43890000D01*
%TO.C,RL10*%
X54040000Y-20000000D02*
X54810000Y-20000000D01*
X62120000Y-20000000D02*
X61350000Y-20000000D01*
X54810000Y-18630000D02*
X61350000Y-18630000D01*
X61350000Y-21370000D01*
X54810000Y-21370000D01*
X54810000Y-18630000D01*
%TO.C,R4*%
X75040000Y-24000000D02*
X75810000Y-24000000D01*
X83120000Y-24000000D02*
X82350000Y-24000000D01*
X75810000Y-22630000D02*
X82350000Y-22630000D01*
X82350000Y-25370000D01*
X75810000Y-25370000D01*
X75810000Y-22630000D01*
%TO.C,J5*%
X55350000Y-57620000D02*
X55350000Y-60380000D01*
X58000000Y-57620000D02*
X55350000Y-57620000D01*
X58000000Y-57620000D02*
X58000000Y-60380000D01*
X58000000Y-60380000D02*
X55350000Y-60380000D01*
X59270000Y-57620000D02*
X60650000Y-57620000D01*
X60650000Y-57620000D02*
X60650000Y-59000000D01*
%TO.C,RS4*%
X50500000Y-44960000D02*
X50500000Y-45730000D01*
X50500000Y-53040000D02*
X50500000Y-52270000D01*
X49130000Y-45730000D02*
X51870000Y-45730000D01*
X51870000Y-52270000D01*
X49130000Y-52270000D01*
X49130000Y-45730000D01*
%TO.C,SW7*%
X78640000Y-43890000D02*
X81360000Y-43890000D01*
X81360000Y-54110000D01*
X78640000Y-54110000D01*
X78640000Y-43890000D01*
%TO.C,J1*%
X11350000Y-57620000D02*
X11350000Y-60380000D01*
X14000000Y-57620000D02*
X11350000Y-57620000D01*
X14000000Y-57620000D02*
X14000000Y-60380000D01*
X14000000Y-60380000D02*
X11350000Y-60380000D01*
X15270000Y-57620000D02*
X16650000Y-57620000D01*
X16650000Y-57620000D02*
X16650000Y-59000000D01*
%TO.C,RS1*%
X17500000Y-44960000D02*
X17500000Y-45730000D01*
X17500000Y-53040000D02*
X17500000Y-52270000D01*
X16130000Y-45730000D02*
X18870000Y-45730000D01*
X18870000Y-52270000D01*
X16130000Y-52270000D01*
X16130000Y-45730000D01*
%TO.C,RS5*%
X61500000Y-44960000D02*
X61500000Y-45730000D01*
X61500000Y-53040000D02*
X61500000Y-52270000D01*
X60130000Y-45730000D02*
X62870000Y-45730000D01*
X62870000Y-52270000D01*
X60130000Y-52270000D01*
X60130000Y-45730000D01*
%TO.C,LED10*%
X69330000Y-18920000D02*
X69330000Y-18764000D01*
X69330000Y-21236000D02*
X69330000Y-21080000D01*
X66098563Y-18920000D02*
G75*
G02*
X69330000Y-18764484I1671437J-1080000D01*
G01*
X66729039Y-18920000D02*
G75*
G02*
X68810961Y-18920000I1040961J-1080000D01*
G01*
X68810961Y-21080000D02*
G75*
G02*
X66729039Y-21080000I-1040961J1080000D01*
G01*
X69330000Y-21235516D02*
G75*
G02*
X66098563Y-21080000I-1560000J1235516D01*
G01*
%TO.C,R5*%
X68040000Y-13500000D02*
X68810000Y-13500000D01*
X76120000Y-13500000D02*
X75350000Y-13500000D01*
X68810000Y-12130000D02*
X75350000Y-12130000D01*
X75350000Y-14870000D01*
X68810000Y-14870000D01*
X68810000Y-12130000D01*
%TO.C,RL7*%
X76500000Y-44960000D02*
X76500000Y-45730000D01*
X76500000Y-53040000D02*
X76500000Y-52270000D01*
X75130000Y-45730000D02*
X77870000Y-45730000D01*
X77870000Y-52270000D01*
X75130000Y-52270000D01*
X75130000Y-45730000D01*
%TO.C,RS8*%
X94500000Y-44960000D02*
X94500000Y-45730000D01*
X94500000Y-53040000D02*
X94500000Y-52270000D01*
X93130000Y-45730000D02*
X95870000Y-45730000D01*
X95870000Y-52270000D01*
X93130000Y-52270000D01*
X93130000Y-45730000D01*
%TO.C,RS2*%
X28500000Y-44960000D02*
X28500000Y-45730000D01*
X28500000Y-53040000D02*
X28500000Y-52270000D01*
X27130000Y-45730000D02*
X29870000Y-45730000D01*
X29870000Y-52270000D01*
X27130000Y-52270000D01*
X27130000Y-45730000D01*
%TO.C,RL5*%
X54500000Y-44960000D02*
X54500000Y-45730000D01*
X54500000Y-53040000D02*
X54500000Y-52270000D01*
X53130000Y-45730000D02*
X55870000Y-45730000D01*
X55870000Y-52270000D01*
X53130000Y-52270000D01*
X53130000Y-45730000D01*
%TO.C,J10*%
X1680000Y-12260000D02*
X11720000Y-12260000D01*
X1680000Y-22660000D02*
X1680000Y-12260000D01*
X4700000Y-22660000D02*
X4700000Y-12260000D01*
X9600000Y-22660000D02*
X9600000Y-12260000D01*
X11100000Y-22660000D02*
X11100000Y-12260000D01*
X11720000Y-12260000D02*
X11720000Y-19700000D01*
X11720000Y-20300000D02*
X11720000Y-22660000D01*
X11720000Y-22660000D02*
X1680000Y-22660000D01*
X11720000Y-20000000D02*
X12330000Y-19560000D01*
X12330000Y-20440000D01*
X11720000Y-20000000D01*
G36*
X12330000Y-20440000D02*
G01*
X11720000Y-20000000D01*
X12330000Y-19560000D01*
X12330000Y-20440000D01*
G37*
%TO.C,LED6*%
X70560000Y-38920000D02*
X70560000Y-38764000D01*
X70560000Y-41236000D02*
X70560000Y-41080000D01*
X67328563Y-38920000D02*
G75*
G02*
X70560000Y-38764484I1671437J-1080000D01*
G01*
X67959039Y-38920000D02*
G75*
G02*
X70040961Y-38920000I1040961J-1080000D01*
G01*
X70040961Y-41080000D02*
G75*
G02*
X67959039Y-41080000I-1040961J1080000D01*
G01*
X70560000Y-41235516D02*
G75*
G02*
X67328563Y-41080000I-1560000J1235516D01*
G01*
%TO.C,LED7*%
X81560000Y-38920000D02*
X81560000Y-38764000D01*
X81560000Y-41236000D02*
X81560000Y-41080000D01*
X78328563Y-38920000D02*
G75*
G02*
X81560000Y-38764484I1671437J-1080000D01*
G01*
X78959039Y-38920000D02*
G75*
G02*
X81040961Y-38920000I1040961J-1080000D01*
G01*
X81040961Y-41080000D02*
G75*
G02*
X78959039Y-41080000I-1040961J1080000D01*
G01*
X81560000Y-41235516D02*
G75*
G02*
X78328563Y-41080000I-1560000J1235516D01*
G01*
%TO.C,U2*%
D11*
X34340000Y-16650000D02*
X34340000Y-21450000D01*
D12*
X34340000Y-16650000D02*
X44740000Y-16650000D01*
D11*
X34340000Y-21450000D02*
X35650000Y-21450000D01*
X43430000Y-21450000D02*
X44740000Y-21450000D01*
X44740000Y-16650000D02*
X44740000Y-21450000D01*
%TO.C,RL3*%
D10*
X32500000Y-44960000D02*
X32500000Y-45730000D01*
X32500000Y-53040000D02*
X32500000Y-52270000D01*
X31130000Y-45730000D02*
X33870000Y-45730000D01*
X33870000Y-52270000D01*
X31130000Y-52270000D01*
X31130000Y-45730000D01*
%TO.C,SW1*%
X12640000Y-43890000D02*
X15360000Y-43890000D01*
X15360000Y-54110000D01*
X12640000Y-54110000D01*
X12640000Y-43890000D01*
%TO.C,RS6*%
X72500000Y-44960000D02*
X72500000Y-45730000D01*
X72500000Y-53040000D02*
X72500000Y-52270000D01*
X71130000Y-45730000D02*
X73870000Y-45730000D01*
X73870000Y-52270000D01*
X71130000Y-52270000D01*
X71130000Y-45730000D01*
%TO.C,RL2*%
X21500000Y-44960000D02*
X21500000Y-45730000D01*
X21500000Y-53040000D02*
X21500000Y-52270000D01*
X20130000Y-45730000D02*
X22870000Y-45730000D01*
X22870000Y-52270000D01*
X20130000Y-52270000D01*
X20130000Y-45730000D01*
%TO.C,RS7*%
X83500000Y-44960000D02*
X83500000Y-45730000D01*
X83500000Y-53040000D02*
X83500000Y-52270000D01*
X82130000Y-45730000D02*
X84870000Y-45730000D01*
X84870000Y-52270000D01*
X82130000Y-52270000D01*
X82130000Y-45730000D01*
%TO.C,C6*%
X45195225Y-24525000D02*
X45695225Y-24525000D01*
X45445225Y-24275000D02*
X45445225Y-24775000D01*
X48000000Y-23420000D02*
X48000000Y-24960000D01*
X48000000Y-27040000D02*
X48000000Y-28580000D01*
X48040000Y-23420000D02*
X48040000Y-24960000D01*
X48040000Y-27040000D02*
X48040000Y-28580000D01*
X48080000Y-23421000D02*
X48080000Y-24960000D01*
X48080000Y-27040000D02*
X48080000Y-28579000D01*
X48120000Y-23423000D02*
X48120000Y-24960000D01*
X48120000Y-27040000D02*
X48120000Y-28577000D01*
X48160000Y-23425000D02*
X48160000Y-24960000D01*
X48160000Y-27040000D02*
X48160000Y-28575000D01*
X48200000Y-23428000D02*
X48200000Y-24960000D01*
X48200000Y-27040000D02*
X48200000Y-28572000D01*
X48240000Y-23431000D02*
X48240000Y-24960000D01*
X48240000Y-27040000D02*
X48240000Y-28569000D01*
X48280000Y-23435000D02*
X48280000Y-24960000D01*
X48280000Y-27040000D02*
X48280000Y-28565000D01*
X48320000Y-23440000D02*
X48320000Y-24960000D01*
X48320000Y-27040000D02*
X48320000Y-28560000D01*
X48360000Y-23445000D02*
X48360000Y-24960000D01*
X48360000Y-27040000D02*
X48360000Y-28555000D01*
X48400000Y-23451000D02*
X48400000Y-24960000D01*
X48400000Y-27040000D02*
X48400000Y-28549000D01*
X48440000Y-23457000D02*
X48440000Y-24960000D01*
X48440000Y-27040000D02*
X48440000Y-28543000D01*
X48480000Y-23464000D02*
X48480000Y-24960000D01*
X48480000Y-27040000D02*
X48480000Y-28536000D01*
X48520000Y-23472000D02*
X48520000Y-24960000D01*
X48520000Y-27040000D02*
X48520000Y-28528000D01*
X48560000Y-23481000D02*
X48560000Y-24960000D01*
X48560000Y-27040000D02*
X48560000Y-28519000D01*
X48600000Y-23490000D02*
X48600000Y-24960000D01*
X48600000Y-27040000D02*
X48600000Y-28510000D01*
X48640000Y-23499000D02*
X48640000Y-24960000D01*
X48640000Y-27040000D02*
X48640000Y-28501000D01*
X48680000Y-23510000D02*
X48680000Y-24960000D01*
X48680000Y-27040000D02*
X48680000Y-28490000D01*
X48720000Y-23521000D02*
X48720000Y-24960000D01*
X48720000Y-27040000D02*
X48720000Y-28479000D01*
X48760000Y-23533000D02*
X48760000Y-24960000D01*
X48760000Y-27040000D02*
X48760000Y-28467000D01*
X48800000Y-23545000D02*
X48800000Y-24960000D01*
X48800000Y-27040000D02*
X48800000Y-28455000D01*
X48840000Y-23558000D02*
X48840000Y-24960000D01*
X48840000Y-27040000D02*
X48840000Y-28442000D01*
X48880000Y-23572000D02*
X48880000Y-24960000D01*
X48880000Y-27040000D02*
X48880000Y-28428000D01*
X48920000Y-23587000D02*
X48920000Y-24960000D01*
X48920000Y-27040000D02*
X48920000Y-28413000D01*
X48960000Y-23602000D02*
X48960000Y-24960000D01*
X48960000Y-27040000D02*
X48960000Y-28398000D01*
X49000000Y-23618000D02*
X49000000Y-24960000D01*
X49000000Y-27040000D02*
X49000000Y-28382000D01*
X49040000Y-23635000D02*
X49040000Y-24960000D01*
X49040000Y-27040000D02*
X49040000Y-28365000D01*
X49080000Y-23653000D02*
X49080000Y-24960000D01*
X49080000Y-27040000D02*
X49080000Y-28347000D01*
X49120000Y-23671000D02*
X49120000Y-24960000D01*
X49120000Y-27040000D02*
X49120000Y-28329000D01*
X49160000Y-23691000D02*
X49160000Y-24960000D01*
X49160000Y-27040000D02*
X49160000Y-28309000D01*
X49200000Y-23711000D02*
X49200000Y-24960000D01*
X49200000Y-27040000D02*
X49200000Y-28289000D01*
X49240000Y-23732000D02*
X49240000Y-24960000D01*
X49240000Y-27040000D02*
X49240000Y-28268000D01*
X49280000Y-23754000D02*
X49280000Y-24960000D01*
X49280000Y-27040000D02*
X49280000Y-28246000D01*
X49320000Y-23777000D02*
X49320000Y-24960000D01*
X49320000Y-27040000D02*
X49320000Y-28223000D01*
X49360000Y-23801000D02*
X49360000Y-24960000D01*
X49360000Y-27040000D02*
X49360000Y-28199000D01*
X49400000Y-23825000D02*
X49400000Y-24960000D01*
X49400000Y-27040000D02*
X49400000Y-28175000D01*
X49440000Y-23851000D02*
X49440000Y-24960000D01*
X49440000Y-27040000D02*
X49440000Y-28149000D01*
X49480000Y-23878000D02*
X49480000Y-24960000D01*
X49480000Y-27040000D02*
X49480000Y-28122000D01*
X49520000Y-23906000D02*
X49520000Y-24960000D01*
X49520000Y-27040000D02*
X49520000Y-28094000D01*
X49560000Y-23935000D02*
X49560000Y-24960000D01*
X49560000Y-27040000D02*
X49560000Y-28065000D01*
X49600000Y-23965000D02*
X49600000Y-24960000D01*
X49600000Y-27040000D02*
X49600000Y-28035000D01*
X49640000Y-23997000D02*
X49640000Y-24960000D01*
X49640000Y-27040000D02*
X49640000Y-28003000D01*
X49680000Y-24030000D02*
X49680000Y-24960000D01*
X49680000Y-27040000D02*
X49680000Y-27970000D01*
X49720000Y-24064000D02*
X49720000Y-24960000D01*
X49720000Y-27040000D02*
X49720000Y-27936000D01*
X49760000Y-24099000D02*
X49760000Y-24960000D01*
X49760000Y-27040000D02*
X49760000Y-27901000D01*
X49800000Y-24136000D02*
X49800000Y-24960000D01*
X49800000Y-27040000D02*
X49800000Y-27864000D01*
X49840000Y-24175000D02*
X49840000Y-24960000D01*
X49840000Y-27040000D02*
X49840000Y-27825000D01*
X49880000Y-24215000D02*
X49880000Y-24960000D01*
X49880000Y-27040000D02*
X49880000Y-27785000D01*
X49920000Y-24257000D02*
X49920000Y-24960000D01*
X49920000Y-27040000D02*
X49920000Y-27743000D01*
X49960000Y-24301000D02*
X49960000Y-24960000D01*
X49960000Y-27040000D02*
X49960000Y-27699000D01*
X50000000Y-24348000D02*
X50000000Y-24960000D01*
X50000000Y-27040000D02*
X50000000Y-27652000D01*
X50040000Y-24396000D02*
X50040000Y-27604000D01*
X50080000Y-24447000D02*
X50080000Y-27553000D01*
X50120000Y-24501000D02*
X50120000Y-27499000D01*
X50160000Y-24557000D02*
X50160000Y-27443000D01*
X50200000Y-24617000D02*
X50200000Y-27383000D01*
X50240000Y-24681000D02*
X50240000Y-27319000D01*
X50280000Y-24749000D02*
X50280000Y-27251000D01*
X50320000Y-24823000D02*
X50320000Y-27177000D01*
X50360000Y-24902000D02*
X50360000Y-27098000D01*
X50400000Y-24989000D02*
X50400000Y-27011000D01*
X50440000Y-25086000D02*
X50440000Y-26914000D01*
X50480000Y-25195000D02*
X50480000Y-26805000D01*
X50520000Y-25323000D02*
X50520000Y-26677000D01*
X50560000Y-25483000D02*
X50560000Y-26517000D01*
X50600000Y-25717000D02*
X50600000Y-26283000D01*
X50620000Y-26000000D02*
G75*
G02*
X45380000Y-26000000I-2620000J0D01*
G01*
X45380000Y-26000000D02*
G75*
G02*
X50620000Y-26000000I2620000J0D01*
G01*
%TO.C,RS3*%
X39500000Y-44960000D02*
X39500000Y-45730000D01*
X39500000Y-53040000D02*
X39500000Y-52270000D01*
X38130000Y-45730000D02*
X40870000Y-45730000D01*
X40870000Y-52270000D01*
X38130000Y-52270000D01*
X38130000Y-45730000D01*
%TO.C,RL8*%
X87500000Y-44960000D02*
X87500000Y-45730000D01*
X87500000Y-53040000D02*
X87500000Y-52270000D01*
X86130000Y-45730000D02*
X88870000Y-45730000D01*
X88870000Y-52270000D01*
X86130000Y-52270000D01*
X86130000Y-45730000D01*
%TO.C,SW8*%
X89640000Y-43890000D02*
X92360000Y-43890000D01*
X92360000Y-54110000D01*
X89640000Y-54110000D01*
X89640000Y-43890000D01*
%TO.C,SW6*%
X67640000Y-43890000D02*
X70360000Y-43890000D01*
X70360000Y-54110000D01*
X67640000Y-54110000D01*
X67640000Y-43890000D01*
%TO.C,J2*%
X22350000Y-57620000D02*
X22350000Y-60380000D01*
X25000000Y-57620000D02*
X22350000Y-57620000D01*
X25000000Y-57620000D02*
X25000000Y-60380000D01*
X25000000Y-60380000D02*
X22350000Y-60380000D01*
X26270000Y-57620000D02*
X27650000Y-57620000D01*
X27650000Y-57620000D02*
X27650000Y-59000000D01*
%TO.C,LED9*%
X103560000Y-38920000D02*
X103560000Y-38764000D01*
X103560000Y-41236000D02*
X103560000Y-41080000D01*
X100328563Y-38920000D02*
G75*
G02*
X103560000Y-38764484I1671437J-1080000D01*
G01*
X100959039Y-38920000D02*
G75*
G02*
X103040961Y-38920000I1040961J-1080000D01*
G01*
X103040961Y-41080000D02*
G75*
G02*
X100959039Y-41080000I-1040961J1080000D01*
G01*
X103560000Y-41235516D02*
G75*
G02*
X100328563Y-41080000I-1560000J1235516D01*
G01*
%TO.C,LED4*%
X48560000Y-38920000D02*
X48560000Y-38764000D01*
X48560000Y-41236000D02*
X48560000Y-41080000D01*
X45328563Y-38920000D02*
G75*
G02*
X48560000Y-38764484I1671437J-1080000D01*
G01*
X45959039Y-38920000D02*
G75*
G02*
X48040961Y-38920000I1040961J-1080000D01*
G01*
X48040961Y-41080000D02*
G75*
G02*
X45959039Y-41080000I-1040961J1080000D01*
G01*
X48560000Y-41235516D02*
G75*
G02*
X45328563Y-41080000I-1560000J1235516D01*
G01*
%TO.C,C4*%
X27195225Y-24525000D02*
X27695225Y-24525000D01*
X27445225Y-24275000D02*
X27445225Y-24775000D01*
X30000000Y-23420000D02*
X30000000Y-24960000D01*
X30000000Y-27040000D02*
X30000000Y-28580000D01*
X30040000Y-23420000D02*
X30040000Y-24960000D01*
X30040000Y-27040000D02*
X30040000Y-28580000D01*
X30080000Y-23421000D02*
X30080000Y-24960000D01*
X30080000Y-27040000D02*
X30080000Y-28579000D01*
X30120000Y-23423000D02*
X30120000Y-24960000D01*
X30120000Y-27040000D02*
X30120000Y-28577000D01*
X30160000Y-23425000D02*
X30160000Y-24960000D01*
X30160000Y-27040000D02*
X30160000Y-28575000D01*
X30200000Y-23428000D02*
X30200000Y-24960000D01*
X30200000Y-27040000D02*
X30200000Y-28572000D01*
X30240000Y-23431000D02*
X30240000Y-24960000D01*
X30240000Y-27040000D02*
X30240000Y-28569000D01*
X30280000Y-23435000D02*
X30280000Y-24960000D01*
X30280000Y-27040000D02*
X30280000Y-28565000D01*
X30320000Y-23440000D02*
X30320000Y-24960000D01*
X30320000Y-27040000D02*
X30320000Y-28560000D01*
X30360000Y-23445000D02*
X30360000Y-24960000D01*
X30360000Y-27040000D02*
X30360000Y-28555000D01*
X30400000Y-23451000D02*
X30400000Y-24960000D01*
X30400000Y-27040000D02*
X30400000Y-28549000D01*
X30440000Y-23457000D02*
X30440000Y-24960000D01*
X30440000Y-27040000D02*
X30440000Y-28543000D01*
X30480000Y-23464000D02*
X30480000Y-24960000D01*
X30480000Y-27040000D02*
X30480000Y-28536000D01*
X30520000Y-23472000D02*
X30520000Y-24960000D01*
X30520000Y-27040000D02*
X30520000Y-28528000D01*
X30560000Y-23481000D02*
X30560000Y-24960000D01*
X30560000Y-27040000D02*
X30560000Y-28519000D01*
X30600000Y-23490000D02*
X30600000Y-24960000D01*
X30600000Y-27040000D02*
X30600000Y-28510000D01*
X30640000Y-23499000D02*
X30640000Y-24960000D01*
X30640000Y-27040000D02*
X30640000Y-28501000D01*
X30680000Y-23510000D02*
X30680000Y-24960000D01*
X30680000Y-27040000D02*
X30680000Y-28490000D01*
X30720000Y-23521000D02*
X30720000Y-24960000D01*
X30720000Y-27040000D02*
X30720000Y-28479000D01*
X30760000Y-23533000D02*
X30760000Y-24960000D01*
X30760000Y-27040000D02*
X30760000Y-28467000D01*
X30800000Y-23545000D02*
X30800000Y-24960000D01*
X30800000Y-27040000D02*
X30800000Y-28455000D01*
X30840000Y-23558000D02*
X30840000Y-24960000D01*
X30840000Y-27040000D02*
X30840000Y-28442000D01*
X30880000Y-23572000D02*
X30880000Y-24960000D01*
X30880000Y-27040000D02*
X30880000Y-28428000D01*
X30920000Y-23587000D02*
X30920000Y-24960000D01*
X30920000Y-27040000D02*
X30920000Y-28413000D01*
X30960000Y-23602000D02*
X30960000Y-24960000D01*
X30960000Y-27040000D02*
X30960000Y-28398000D01*
X31000000Y-23618000D02*
X31000000Y-24960000D01*
X31000000Y-27040000D02*
X31000000Y-28382000D01*
X31040000Y-23635000D02*
X31040000Y-24960000D01*
X31040000Y-27040000D02*
X31040000Y-28365000D01*
X31080000Y-23653000D02*
X31080000Y-24960000D01*
X31080000Y-27040000D02*
X31080000Y-28347000D01*
X31120000Y-23671000D02*
X31120000Y-24960000D01*
X31120000Y-27040000D02*
X31120000Y-28329000D01*
X31160000Y-23691000D02*
X31160000Y-24960000D01*
X31160000Y-27040000D02*
X31160000Y-28309000D01*
X31200000Y-23711000D02*
X31200000Y-24960000D01*
X31200000Y-27040000D02*
X31200000Y-28289000D01*
X31240000Y-23732000D02*
X31240000Y-24960000D01*
X31240000Y-27040000D02*
X31240000Y-28268000D01*
X31280000Y-23754000D02*
X31280000Y-24960000D01*
X31280000Y-27040000D02*
X31280000Y-28246000D01*
X31320000Y-23777000D02*
X31320000Y-24960000D01*
X31320000Y-27040000D02*
X31320000Y-28223000D01*
X31360000Y-23801000D02*
X31360000Y-24960000D01*
X31360000Y-27040000D02*
X31360000Y-28199000D01*
X31400000Y-23825000D02*
X31400000Y-24960000D01*
X31400000Y-27040000D02*
X31400000Y-28175000D01*
X31440000Y-23851000D02*
X31440000Y-24960000D01*
X31440000Y-27040000D02*
X31440000Y-28149000D01*
X31480000Y-23878000D02*
X31480000Y-24960000D01*
X31480000Y-27040000D02*
X31480000Y-28122000D01*
X31520000Y-23906000D02*
X31520000Y-24960000D01*
X31520000Y-27040000D02*
X31520000Y-28094000D01*
X31560000Y-23935000D02*
X31560000Y-24960000D01*
X31560000Y-27040000D02*
X31560000Y-28065000D01*
X31600000Y-23965000D02*
X31600000Y-24960000D01*
X31600000Y-27040000D02*
X31600000Y-28035000D01*
X31640000Y-23997000D02*
X31640000Y-24960000D01*
X31640000Y-27040000D02*
X31640000Y-28003000D01*
X31680000Y-24030000D02*
X31680000Y-24960000D01*
X31680000Y-27040000D02*
X31680000Y-27970000D01*
X31720000Y-24064000D02*
X31720000Y-24960000D01*
X31720000Y-27040000D02*
X31720000Y-27936000D01*
X31760000Y-24099000D02*
X31760000Y-24960000D01*
X31760000Y-27040000D02*
X31760000Y-27901000D01*
X31800000Y-24136000D02*
X31800000Y-24960000D01*
X31800000Y-27040000D02*
X31800000Y-27864000D01*
X31840000Y-24175000D02*
X31840000Y-24960000D01*
X31840000Y-27040000D02*
X31840000Y-27825000D01*
X31880000Y-24215000D02*
X31880000Y-24960000D01*
X31880000Y-27040000D02*
X31880000Y-27785000D01*
X31920000Y-24257000D02*
X31920000Y-24960000D01*
X31920000Y-27040000D02*
X31920000Y-27743000D01*
X31960000Y-24301000D02*
X31960000Y-24960000D01*
X31960000Y-27040000D02*
X31960000Y-27699000D01*
X32000000Y-24348000D02*
X32000000Y-24960000D01*
X32000000Y-27040000D02*
X32000000Y-27652000D01*
X32040000Y-24396000D02*
X32040000Y-27604000D01*
X32080000Y-24447000D02*
X32080000Y-27553000D01*
X32120000Y-24501000D02*
X32120000Y-27499000D01*
X32160000Y-24557000D02*
X32160000Y-27443000D01*
X32200000Y-24617000D02*
X32200000Y-27383000D01*
X32240000Y-24681000D02*
X32240000Y-27319000D01*
X32280000Y-24749000D02*
X32280000Y-27251000D01*
X32320000Y-24823000D02*
X32320000Y-27177000D01*
X32360000Y-24902000D02*
X32360000Y-27098000D01*
X32400000Y-24989000D02*
X32400000Y-27011000D01*
X32440000Y-25086000D02*
X32440000Y-26914000D01*
X32480000Y-25195000D02*
X32480000Y-26805000D01*
X32520000Y-25323000D02*
X32520000Y-26677000D01*
X32560000Y-25483000D02*
X32560000Y-26517000D01*
X32600000Y-25717000D02*
X32600000Y-26283000D01*
X32620000Y-26000000D02*
G75*
G02*
X27380000Y-26000000I-2620000J0D01*
G01*
X27380000Y-26000000D02*
G75*
G02*
X32620000Y-26000000I2620000J0D01*
G01*
%TO.C,LED8*%
X92560000Y-38920000D02*
X92560000Y-38764000D01*
X92560000Y-41236000D02*
X92560000Y-41080000D01*
X89328563Y-38920000D02*
G75*
G02*
X92560000Y-38764484I1671437J-1080000D01*
G01*
X89959039Y-38920000D02*
G75*
G02*
X92040961Y-38920000I1040961J-1080000D01*
G01*
X92040961Y-41080000D02*
G75*
G02*
X89959039Y-41080000I-1040961J1080000D01*
G01*
X92560000Y-41235516D02*
G75*
G02*
X89328563Y-41080000I-1560000J1235516D01*
G01*
%TO.C,R2*%
X97880000Y-18800000D02*
X98650000Y-18800000D01*
X105960000Y-18800000D02*
X105190000Y-18800000D01*
X98650000Y-17430000D02*
X105190000Y-17430000D01*
X105190000Y-20170000D01*
X98650000Y-20170000D01*
X98650000Y-17430000D01*
%TO.C,SW5*%
X56640000Y-43890000D02*
X59360000Y-43890000D01*
X59360000Y-54110000D01*
X56640000Y-54110000D01*
X56640000Y-43890000D01*
%TO.C,J8*%
X88350000Y-57620000D02*
X88350000Y-60380000D01*
X91000000Y-57620000D02*
X88350000Y-57620000D01*
X91000000Y-57620000D02*
X91000000Y-60380000D01*
X91000000Y-60380000D02*
X88350000Y-60380000D01*
X92270000Y-57620000D02*
X93650000Y-57620000D01*
X93650000Y-57620000D02*
X93650000Y-59000000D01*
%TO.C,RL4*%
X43500000Y-44960000D02*
X43500000Y-45730000D01*
X43500000Y-53040000D02*
X43500000Y-52270000D01*
X42130000Y-45730000D02*
X44870000Y-45730000D01*
X44870000Y-52270000D01*
X42130000Y-52270000D01*
X42130000Y-45730000D01*
%TO.C,R6*%
X33040000Y-31000000D02*
X33810000Y-31000000D01*
X41120000Y-31000000D02*
X40350000Y-31000000D01*
X33810000Y-29630000D02*
X40350000Y-29630000D01*
X40350000Y-32370000D01*
X33810000Y-32370000D01*
X33810000Y-29630000D01*
%TO.C,RL9*%
X98500000Y-44960000D02*
X98500000Y-45730000D01*
X98500000Y-53040000D02*
X98500000Y-52270000D01*
X97130000Y-45730000D02*
X99870000Y-45730000D01*
X99870000Y-52270000D01*
X97130000Y-52270000D01*
X97130000Y-45730000D01*
%TO.C,SW4*%
X45640000Y-43890000D02*
X48360000Y-43890000D01*
X48360000Y-54110000D01*
X45640000Y-54110000D01*
X45640000Y-43890000D01*
%TO.C,LED1*%
X15560000Y-38920000D02*
X15560000Y-38764000D01*
X15560000Y-41236000D02*
X15560000Y-41080000D01*
X12328563Y-38920000D02*
G75*
G02*
X15560000Y-38764484I1671437J-1080000D01*
G01*
X12959039Y-38920000D02*
G75*
G02*
X15040961Y-38920000I1040961J-1080000D01*
G01*
X15040961Y-41080000D02*
G75*
G02*
X12959039Y-41080000I-1040961J1080000D01*
G01*
X15560000Y-41235516D02*
G75*
G02*
X12328563Y-41080000I-1560000J1235516D01*
G01*
%TO.C,SW3*%
X34640000Y-43890000D02*
X37360000Y-43890000D01*
X37360000Y-54110000D01*
X34640000Y-54110000D01*
X34640000Y-43890000D01*
%TO.C,J3*%
X33350000Y-57620000D02*
X33350000Y-60380000D01*
X36000000Y-57620000D02*
X33350000Y-57620000D01*
X36000000Y-57620000D02*
X36000000Y-60380000D01*
X36000000Y-60380000D02*
X33350000Y-60380000D01*
X37270000Y-57620000D02*
X38650000Y-57620000D01*
X38650000Y-57620000D02*
X38650000Y-59000000D01*
%TO.C,J4*%
X44350000Y-57620000D02*
X44350000Y-60380000D01*
X47000000Y-57620000D02*
X44350000Y-57620000D01*
X47000000Y-57620000D02*
X47000000Y-60380000D01*
X47000000Y-60380000D02*
X44350000Y-60380000D01*
X48270000Y-57620000D02*
X49650000Y-57620000D01*
X49650000Y-57620000D02*
X49650000Y-59000000D01*
%TO.C,J9*%
X99350000Y-57620000D02*
X99350000Y-60380000D01*
X102000000Y-57620000D02*
X99350000Y-57620000D01*
X102000000Y-57620000D02*
X102000000Y-60380000D01*
X102000000Y-60380000D02*
X99350000Y-60380000D01*
X103270000Y-57620000D02*
X104650000Y-57620000D01*
X104650000Y-57620000D02*
X104650000Y-59000000D01*
%TO.C,D1*%
X17180000Y-20000000D02*
X18200000Y-20000000D01*
X22620000Y-21470000D02*
X22620000Y-18530000D01*
X22740000Y-21470000D02*
X22740000Y-18530000D01*
X22860000Y-21470000D02*
X22860000Y-18530000D01*
X24660000Y-20000000D02*
X23640000Y-20000000D01*
X18200000Y-18530000D02*
X23640000Y-18530000D01*
X23640000Y-21470000D01*
X18200000Y-21470000D01*
X18200000Y-18530000D01*
%TO.C,RL1*%
X10500000Y-44960000D02*
X10500000Y-45730000D01*
X10500000Y-53040000D02*
X10500000Y-52270000D01*
X9130000Y-45730000D02*
X11870000Y-45730000D01*
X11870000Y-52270000D01*
X9130000Y-52270000D01*
X9130000Y-45730000D01*
%TO.C,U1*%
X87160000Y-11670000D02*
X87160000Y-21950000D01*
X87160000Y-21950000D02*
X92460000Y-21950000D01*
X88810000Y-11670000D02*
X87160000Y-11670000D01*
X92460000Y-11670000D02*
X90810000Y-11670000D01*
X92460000Y-21950000D02*
X92460000Y-11670000D01*
X90810000Y-11670000D02*
G75*
G02*
X88810000Y-11670000I-1000000J0D01*
G01*
%TO.C,R3*%
X105500000Y-44960000D02*
X105500000Y-45730000D01*
X105500000Y-53040000D02*
X105500000Y-52270000D01*
X104130000Y-45730000D02*
X106870000Y-45730000D01*
X106870000Y-52270000D01*
X104130000Y-52270000D01*
X104130000Y-45730000D01*
%TO.C,LED3*%
X37560000Y-38920000D02*
X37560000Y-38764000D01*
X37560000Y-41236000D02*
X37560000Y-41080000D01*
X34328563Y-38920000D02*
G75*
G02*
X37560000Y-38764484I1671437J-1080000D01*
G01*
X34959039Y-38920000D02*
G75*
G02*
X37040961Y-38920000I1040961J-1080000D01*
G01*
X37040961Y-41080000D02*
G75*
G02*
X34959039Y-41080000I-1040961J1080000D01*
G01*
X37560000Y-41235516D02*
G75*
G02*
X34328563Y-41080000I-1560000J1235516D01*
G01*
%TO.C,J6*%
X66350000Y-57620000D02*
X66350000Y-60380000D01*
X69000000Y-57620000D02*
X66350000Y-57620000D01*
X69000000Y-57620000D02*
X69000000Y-60380000D01*
X69000000Y-60380000D02*
X66350000Y-60380000D01*
X70270000Y-57620000D02*
X71650000Y-57620000D01*
X71650000Y-57620000D02*
X71650000Y-59000000D01*
%TO.C,J7*%
X77350000Y-57620000D02*
X77350000Y-60380000D01*
X80000000Y-57620000D02*
X77350000Y-57620000D01*
X80000000Y-57620000D02*
X80000000Y-60380000D01*
X80000000Y-60380000D02*
X77350000Y-60380000D01*
X81270000Y-57620000D02*
X82650000Y-57620000D01*
X82650000Y-57620000D02*
X82650000Y-59000000D01*
%TO.C,RL6*%
X65500000Y-44960000D02*
X65500000Y-45730000D01*
X65500000Y-53040000D02*
X65500000Y-52270000D01*
X64130000Y-45730000D02*
X66870000Y-45730000D01*
X66870000Y-52270000D01*
X64130000Y-52270000D01*
X64130000Y-45730000D01*
%TD*%
M02*
