%TF.GenerationSoftware,KiCad,Pcbnew,10.0.6*%
%TF.CreationDate,2026-10-08T13:04:36+02:00*%
%TF.ProjectId,M1,4d312e6b-6963-4616-945f-706362585858,M1-R1 PCB*%
%TF.SameCoordinates,Original*%
%TF.FileFunction,Legend,Bot*%
%TF.FilePolarity,Positive*%
%FSLAX46Y46*%
G04 Gerber Fmt 4.6, Leading zero omitted, Abs format (unit mm)*
G04 Created by KiCad (PCBNEW 10.0.6) date 2026-10-08 13:04:36*
%MOMM*%
%LPD*%
G01*
G04 APERTURE LIST*
%ADD10C,0.150000*%
%ADD11C,0.120000*%
G04 APERTURE END LIST*
D10*
X93066666Y-41246580D02*
X93114285Y-41294200D01*
X93114285Y-41294200D02*
X93257142Y-41341819D01*
X93257142Y-41341819D02*
X93352380Y-41341819D01*
X93352380Y-41341819D02*
X93495237Y-41294200D01*
X93495237Y-41294200D02*
X93590475Y-41198961D01*
X93590475Y-41198961D02*
X93638094Y-41103723D01*
X93638094Y-41103723D02*
X93685713Y-40913247D01*
X93685713Y-40913247D02*
X93685713Y-40770390D01*
X93685713Y-40770390D02*
X93638094Y-40579914D01*
X93638094Y-40579914D02*
X93590475Y-40484676D01*
X93590475Y-40484676D02*
X93495237Y-40389438D01*
X93495237Y-40389438D02*
X93352380Y-40341819D01*
X93352380Y-40341819D02*
X93257142Y-40341819D01*
X93257142Y-40341819D02*
X93114285Y-40389438D01*
X93114285Y-40389438D02*
X93066666Y-40437057D01*
X92590475Y-41341819D02*
X92399999Y-41341819D01*
X92399999Y-41341819D02*
X92304761Y-41294200D01*
X92304761Y-41294200D02*
X92257142Y-41246580D01*
X92257142Y-41246580D02*
X92161904Y-41103723D01*
X92161904Y-41103723D02*
X92114285Y-40913247D01*
X92114285Y-40913247D02*
X92114285Y-40532295D01*
X92114285Y-40532295D02*
X92161904Y-40437057D01*
X92161904Y-40437057D02*
X92209523Y-40389438D01*
X92209523Y-40389438D02*
X92304761Y-40341819D01*
X92304761Y-40341819D02*
X92495237Y-40341819D01*
X92495237Y-40341819D02*
X92590475Y-40389438D01*
X92590475Y-40389438D02*
X92638094Y-40437057D01*
X92638094Y-40437057D02*
X92685713Y-40532295D01*
X92685713Y-40532295D02*
X92685713Y-40770390D01*
X92685713Y-40770390D02*
X92638094Y-40865628D01*
X92638094Y-40865628D02*
X92590475Y-40913247D01*
X92590475Y-40913247D02*
X92495237Y-40960866D01*
X92495237Y-40960866D02*
X92304761Y-40960866D01*
X92304761Y-40960866D02*
X92209523Y-40913247D01*
X92209523Y-40913247D02*
X92161904Y-40865628D01*
X92161904Y-40865628D02*
X92114285Y-40770390D01*
X100766666Y-34596580D02*
X100814285Y-34644200D01*
X100814285Y-34644200D02*
X100957142Y-34691819D01*
X100957142Y-34691819D02*
X101052380Y-34691819D01*
X101052380Y-34691819D02*
X101195237Y-34644200D01*
X101195237Y-34644200D02*
X101290475Y-34548961D01*
X101290475Y-34548961D02*
X101338094Y-34453723D01*
X101338094Y-34453723D02*
X101385713Y-34263247D01*
X101385713Y-34263247D02*
X101385713Y-34120390D01*
X101385713Y-34120390D02*
X101338094Y-33929914D01*
X101338094Y-33929914D02*
X101290475Y-33834676D01*
X101290475Y-33834676D02*
X101195237Y-33739438D01*
X101195237Y-33739438D02*
X101052380Y-33691819D01*
X101052380Y-33691819D02*
X100957142Y-33691819D01*
X100957142Y-33691819D02*
X100814285Y-33739438D01*
X100814285Y-33739438D02*
X100766666Y-33787057D01*
X100195237Y-34120390D02*
X100290475Y-34072771D01*
X100290475Y-34072771D02*
X100338094Y-34025152D01*
X100338094Y-34025152D02*
X100385713Y-33929914D01*
X100385713Y-33929914D02*
X100385713Y-33882295D01*
X100385713Y-33882295D02*
X100338094Y-33787057D01*
X100338094Y-33787057D02*
X100290475Y-33739438D01*
X100290475Y-33739438D02*
X100195237Y-33691819D01*
X100195237Y-33691819D02*
X100004761Y-33691819D01*
X100004761Y-33691819D02*
X99909523Y-33739438D01*
X99909523Y-33739438D02*
X99861904Y-33787057D01*
X99861904Y-33787057D02*
X99814285Y-33882295D01*
X99814285Y-33882295D02*
X99814285Y-33929914D01*
X99814285Y-33929914D02*
X99861904Y-34025152D01*
X99861904Y-34025152D02*
X99909523Y-34072771D01*
X99909523Y-34072771D02*
X100004761Y-34120390D01*
X100004761Y-34120390D02*
X100195237Y-34120390D01*
X100195237Y-34120390D02*
X100290475Y-34168009D01*
X100290475Y-34168009D02*
X100338094Y-34215628D01*
X100338094Y-34215628D02*
X100385713Y-34310866D01*
X100385713Y-34310866D02*
X100385713Y-34501342D01*
X100385713Y-34501342D02*
X100338094Y-34596580D01*
X100338094Y-34596580D02*
X100290475Y-34644200D01*
X100290475Y-34644200D02*
X100195237Y-34691819D01*
X100195237Y-34691819D02*
X100004761Y-34691819D01*
X100004761Y-34691819D02*
X99909523Y-34644200D01*
X99909523Y-34644200D02*
X99861904Y-34596580D01*
X99861904Y-34596580D02*
X99814285Y-34501342D01*
X99814285Y-34501342D02*
X99814285Y-34310866D01*
X99814285Y-34310866D02*
X99861904Y-34215628D01*
X99861904Y-34215628D02*
X99909523Y-34168009D01*
X99909523Y-34168009D02*
X100004761Y-34120390D01*
X99542857Y-46246580D02*
X99590476Y-46294200D01*
X99590476Y-46294200D02*
X99733333Y-46341819D01*
X99733333Y-46341819D02*
X99828571Y-46341819D01*
X99828571Y-46341819D02*
X99971428Y-46294200D01*
X99971428Y-46294200D02*
X100066666Y-46198961D01*
X100066666Y-46198961D02*
X100114285Y-46103723D01*
X100114285Y-46103723D02*
X100161904Y-45913247D01*
X100161904Y-45913247D02*
X100161904Y-45770390D01*
X100161904Y-45770390D02*
X100114285Y-45579914D01*
X100114285Y-45579914D02*
X100066666Y-45484676D01*
X100066666Y-45484676D02*
X99971428Y-45389438D01*
X99971428Y-45389438D02*
X99828571Y-45341819D01*
X99828571Y-45341819D02*
X99733333Y-45341819D01*
X99733333Y-45341819D02*
X99590476Y-45389438D01*
X99590476Y-45389438D02*
X99542857Y-45437057D01*
X98590476Y-46341819D02*
X99161904Y-46341819D01*
X98876190Y-46341819D02*
X98876190Y-45341819D01*
X98876190Y-45341819D02*
X98971428Y-45484676D01*
X98971428Y-45484676D02*
X99066666Y-45579914D01*
X99066666Y-45579914D02*
X99161904Y-45627533D01*
X97971428Y-45341819D02*
X97876190Y-45341819D01*
X97876190Y-45341819D02*
X97780952Y-45389438D01*
X97780952Y-45389438D02*
X97733333Y-45437057D01*
X97733333Y-45437057D02*
X97685714Y-45532295D01*
X97685714Y-45532295D02*
X97638095Y-45722771D01*
X97638095Y-45722771D02*
X97638095Y-45960866D01*
X97638095Y-45960866D02*
X97685714Y-46151342D01*
X97685714Y-46151342D02*
X97733333Y-46246580D01*
X97733333Y-46246580D02*
X97780952Y-46294200D01*
X97780952Y-46294200D02*
X97876190Y-46341819D01*
X97876190Y-46341819D02*
X97971428Y-46341819D01*
X97971428Y-46341819D02*
X98066666Y-46294200D01*
X98066666Y-46294200D02*
X98114285Y-46246580D01*
X98114285Y-46246580D02*
X98161904Y-46151342D01*
X98161904Y-46151342D02*
X98209523Y-45960866D01*
X98209523Y-45960866D02*
X98209523Y-45722771D01*
X98209523Y-45722771D02*
X98161904Y-45532295D01*
X98161904Y-45532295D02*
X98114285Y-45437057D01*
X98114285Y-45437057D02*
X98066666Y-45389438D01*
X98066666Y-45389438D02*
X97971428Y-45341819D01*
X95892857Y-34596580D02*
X95940476Y-34644200D01*
X95940476Y-34644200D02*
X96083333Y-34691819D01*
X96083333Y-34691819D02*
X96178571Y-34691819D01*
X96178571Y-34691819D02*
X96321428Y-34644200D01*
X96321428Y-34644200D02*
X96416666Y-34548961D01*
X96416666Y-34548961D02*
X96464285Y-34453723D01*
X96464285Y-34453723D02*
X96511904Y-34263247D01*
X96511904Y-34263247D02*
X96511904Y-34120390D01*
X96511904Y-34120390D02*
X96464285Y-33929914D01*
X96464285Y-33929914D02*
X96416666Y-33834676D01*
X96416666Y-33834676D02*
X96321428Y-33739438D01*
X96321428Y-33739438D02*
X96178571Y-33691819D01*
X96178571Y-33691819D02*
X96083333Y-33691819D01*
X96083333Y-33691819D02*
X95940476Y-33739438D01*
X95940476Y-33739438D02*
X95892857Y-33787057D01*
X94940476Y-34691819D02*
X95511904Y-34691819D01*
X95226190Y-34691819D02*
X95226190Y-33691819D01*
X95226190Y-33691819D02*
X95321428Y-33834676D01*
X95321428Y-33834676D02*
X95416666Y-33929914D01*
X95416666Y-33929914D02*
X95511904Y-33977533D01*
X94607142Y-33691819D02*
X93988095Y-33691819D01*
X93988095Y-33691819D02*
X94321428Y-34072771D01*
X94321428Y-34072771D02*
X94178571Y-34072771D01*
X94178571Y-34072771D02*
X94083333Y-34120390D01*
X94083333Y-34120390D02*
X94035714Y-34168009D01*
X94035714Y-34168009D02*
X93988095Y-34263247D01*
X93988095Y-34263247D02*
X93988095Y-34501342D01*
X93988095Y-34501342D02*
X94035714Y-34596580D01*
X94035714Y-34596580D02*
X94083333Y-34644200D01*
X94083333Y-34644200D02*
X94178571Y-34691819D01*
X94178571Y-34691819D02*
X94464285Y-34691819D01*
X94464285Y-34691819D02*
X94559523Y-34644200D01*
X94559523Y-34644200D02*
X94607142Y-34596580D01*
%TO.C,C9*%
D11*
X91990000Y-36850748D02*
X91990000Y-38273252D01*
X93810000Y-36850748D02*
X93810000Y-38273252D01*
%TO.C,C8*%
X96690000Y-36850748D02*
X96690000Y-38273252D01*
X98510000Y-36850748D02*
X98510000Y-38273252D01*
%TO.C,C10*%
X97990000Y-41850748D02*
X97990000Y-43273252D01*
X99810000Y-41850748D02*
X99810000Y-43273252D01*
%TO.C,C13*%
X94340000Y-36850748D02*
X94340000Y-38273252D01*
X96160000Y-36850748D02*
X96160000Y-38273252D01*
%TD*%
%LPC*%
G36*
X14173513Y-75444208D02*
G01*
X14412293Y-75521793D01*
X14635998Y-75635776D01*
X14839117Y-75783350D01*
X15016650Y-75960883D01*
X15164224Y-76164002D01*
X15278207Y-76387707D01*
X15355792Y-76626487D01*
X15395068Y-76874465D01*
X15395068Y-77125535D01*
X15355792Y-77373513D01*
X15278207Y-77612293D01*
X15164224Y-77835998D01*
X15016650Y-78039117D01*
X14839117Y-78216650D01*
X14635998Y-78364224D01*
X14412293Y-78478207D01*
X14173513Y-78555792D01*
X13925535Y-78595068D01*
X13674465Y-78595068D01*
X13426487Y-78555792D01*
X13187707Y-78478207D01*
X12964002Y-78364224D01*
X12760883Y-78216650D01*
X12583350Y-78039117D01*
X12435776Y-77835998D01*
X12321793Y-77612293D01*
X12244208Y-77373513D01*
X12204932Y-77125535D01*
X12204932Y-76874465D01*
X12244208Y-76626487D01*
X12321793Y-76387707D01*
X12435776Y-76164002D01*
X12583350Y-75960883D01*
X12760883Y-75783350D01*
X12964002Y-75635776D01*
X13187707Y-75521793D01*
X13426487Y-75444208D01*
X13674465Y-75404932D01*
X13925535Y-75404932D01*
X14173513Y-75444208D01*
G37*
G36*
X33873513Y-75444208D02*
G01*
X34112293Y-75521793D01*
X34335998Y-75635776D01*
X34539117Y-75783350D01*
X34716650Y-75960883D01*
X34864224Y-76164002D01*
X34978207Y-76387707D01*
X35055792Y-76626487D01*
X35095068Y-76874465D01*
X35095068Y-77125535D01*
X35055792Y-77373513D01*
X34978207Y-77612293D01*
X34864224Y-77835998D01*
X34716650Y-78039117D01*
X34539117Y-78216650D01*
X34335998Y-78364224D01*
X34112293Y-78478207D01*
X33873513Y-78555792D01*
X33625535Y-78595068D01*
X33374465Y-78595068D01*
X33126487Y-78555792D01*
X32887707Y-78478207D01*
X32664002Y-78364224D01*
X32460883Y-78216650D01*
X32283350Y-78039117D01*
X32135776Y-77835998D01*
X32021793Y-77612293D01*
X31944208Y-77373513D01*
X31904932Y-77125535D01*
X31904932Y-76874465D01*
X31944208Y-76626487D01*
X32021793Y-76387707D01*
X32135776Y-76164002D01*
X32283350Y-75960883D01*
X32460883Y-75783350D01*
X32664002Y-75635776D01*
X32887707Y-75521793D01*
X33126487Y-75444208D01*
X33374465Y-75404932D01*
X33625535Y-75404932D01*
X33873513Y-75444208D01*
G37*
G36*
X117746742Y-75776601D02*
G01*
X117900687Y-75840367D01*
X118039234Y-75932941D01*
X118157059Y-76050766D01*
X118249633Y-76189313D01*
X118313399Y-76343258D01*
X118345907Y-76506685D01*
X118345907Y-76673315D01*
X118313399Y-76836742D01*
X118249633Y-76990687D01*
X118157059Y-77129234D01*
X118039234Y-77247059D01*
X117900687Y-77339633D01*
X117746742Y-77403399D01*
X117583315Y-77435907D01*
X117416685Y-77435907D01*
X117253258Y-77403399D01*
X117099313Y-77339633D01*
X116960766Y-77247059D01*
X116842941Y-77129234D01*
X116750367Y-76990687D01*
X116686601Y-76836742D01*
X116654093Y-76673315D01*
X116654093Y-76506685D01*
X116686601Y-76343258D01*
X116750367Y-76189313D01*
X116842941Y-76050766D01*
X116960766Y-75932941D01*
X117099313Y-75840367D01*
X117253258Y-75776601D01*
X117416685Y-75744093D01*
X117583315Y-75744093D01*
X117746742Y-75776601D01*
G37*
G36*
X140606742Y-75776601D02*
G01*
X140760687Y-75840367D01*
X140899234Y-75932941D01*
X141017059Y-76050766D01*
X141109633Y-76189313D01*
X141173399Y-76343258D01*
X141205907Y-76506685D01*
X141205907Y-76673315D01*
X141173399Y-76836742D01*
X141109633Y-76990687D01*
X141017059Y-77129234D01*
X140899234Y-77247059D01*
X140760687Y-77339633D01*
X140606742Y-77403399D01*
X140443315Y-77435907D01*
X140276685Y-77435907D01*
X140113258Y-77403399D01*
X139959313Y-77339633D01*
X139820766Y-77247059D01*
X139702941Y-77129234D01*
X139610367Y-76990687D01*
X139546601Y-76836742D01*
X139514093Y-76673315D01*
X139514093Y-76506685D01*
X139546601Y-76343258D01*
X139610367Y-76189313D01*
X139702941Y-76050766D01*
X139820766Y-75932941D01*
X139959313Y-75840367D01*
X140113258Y-75776601D01*
X140276685Y-75744093D01*
X140443315Y-75744093D01*
X140606742Y-75776601D01*
G37*
G36*
X92395151Y-72867301D02*
G01*
X92596623Y-72932763D01*
X92785373Y-73028936D01*
X92956755Y-73153452D01*
X93106548Y-73303245D01*
X93231064Y-73474627D01*
X93327237Y-73663377D01*
X93392699Y-73864849D01*
X93425838Y-74074080D01*
X93425838Y-74285920D01*
X93392699Y-74495151D01*
X93327237Y-74696623D01*
X93231064Y-74885373D01*
X93106548Y-75056755D01*
X92956755Y-75206548D01*
X92785373Y-75331064D01*
X92596623Y-75427237D01*
X92395151Y-75492699D01*
X92185920Y-75525838D01*
X91974080Y-75525838D01*
X91764849Y-75492699D01*
X91563377Y-75427237D01*
X91374627Y-75331064D01*
X91203245Y-75206548D01*
X91053452Y-75056755D01*
X90928936Y-74885373D01*
X90832763Y-74696623D01*
X90767301Y-74495151D01*
X90734162Y-74285920D01*
X90734162Y-74074080D01*
X90767301Y-73864849D01*
X90832763Y-73663377D01*
X90928936Y-73474627D01*
X91053452Y-73303245D01*
X91203245Y-73153452D01*
X91374627Y-73028936D01*
X91563377Y-72932763D01*
X91764849Y-72867301D01*
X91974080Y-72834162D01*
X92185920Y-72834162D01*
X92395151Y-72867301D01*
G37*
G36*
X112715151Y-72867301D02*
G01*
X112916623Y-72932763D01*
X113105373Y-73028936D01*
X113276755Y-73153452D01*
X113426548Y-73303245D01*
X113551064Y-73474627D01*
X113647237Y-73663377D01*
X113712699Y-73864849D01*
X113745838Y-74074080D01*
X113745838Y-74285920D01*
X113712699Y-74495151D01*
X113647237Y-74696623D01*
X113551064Y-74885373D01*
X113426548Y-75056755D01*
X113276755Y-75206548D01*
X113105373Y-75331064D01*
X112916623Y-75427237D01*
X112715151Y-75492699D01*
X112505920Y-75525838D01*
X112294080Y-75525838D01*
X112084849Y-75492699D01*
X111883377Y-75427237D01*
X111694627Y-75331064D01*
X111523245Y-75206548D01*
X111373452Y-75056755D01*
X111248936Y-74885373D01*
X111152763Y-74696623D01*
X111087301Y-74495151D01*
X111054162Y-74285920D01*
X111054162Y-74074080D01*
X111087301Y-73864849D01*
X111152763Y-73663377D01*
X111248936Y-73474627D01*
X111373452Y-73303245D01*
X111523245Y-73153452D01*
X111694627Y-73028936D01*
X111883377Y-72932763D01*
X112084849Y-72867301D01*
X112294080Y-72834162D01*
X112505920Y-72834162D01*
X112715151Y-72867301D01*
G37*
G36*
X117746742Y-73236601D02*
G01*
X117900687Y-73300367D01*
X118039234Y-73392941D01*
X118157059Y-73510766D01*
X118249633Y-73649313D01*
X118313399Y-73803258D01*
X118345907Y-73966685D01*
X118345907Y-74133315D01*
X118313399Y-74296742D01*
X118249633Y-74450687D01*
X118157059Y-74589234D01*
X118039234Y-74707059D01*
X117900687Y-74799633D01*
X117746742Y-74863399D01*
X117583315Y-74895907D01*
X117416685Y-74895907D01*
X117253258Y-74863399D01*
X117099313Y-74799633D01*
X116960766Y-74707059D01*
X116842941Y-74589234D01*
X116750367Y-74450687D01*
X116686601Y-74296742D01*
X116654093Y-74133315D01*
X116654093Y-73966685D01*
X116686601Y-73803258D01*
X116750367Y-73649313D01*
X116842941Y-73510766D01*
X116960766Y-73392941D01*
X117099313Y-73300367D01*
X117253258Y-73236601D01*
X117416685Y-73204093D01*
X117583315Y-73204093D01*
X117746742Y-73236601D01*
G37*
G36*
X140606742Y-73236601D02*
G01*
X140760687Y-73300367D01*
X140899234Y-73392941D01*
X141017059Y-73510766D01*
X141109633Y-73649313D01*
X141173399Y-73803258D01*
X141205907Y-73966685D01*
X141205907Y-74133315D01*
X141173399Y-74296742D01*
X141109633Y-74450687D01*
X141017059Y-74589234D01*
X140899234Y-74707059D01*
X140760687Y-74799633D01*
X140606742Y-74863399D01*
X140443315Y-74895907D01*
X140276685Y-74895907D01*
X140113258Y-74863399D01*
X139959313Y-74799633D01*
X139820766Y-74707059D01*
X139702941Y-74589234D01*
X139610367Y-74450687D01*
X139546601Y-74296742D01*
X139514093Y-74133315D01*
X139514093Y-73966685D01*
X139546601Y-73803258D01*
X139610367Y-73649313D01*
X139702941Y-73510766D01*
X139820766Y-73392941D01*
X139959313Y-73300367D01*
X140113258Y-73236601D01*
X140276685Y-73204093D01*
X140443315Y-73204093D01*
X140606742Y-73236601D01*
G37*
G36*
X117746742Y-70696601D02*
G01*
X117900687Y-70760367D01*
X118039234Y-70852941D01*
X118157059Y-70970766D01*
X118249633Y-71109313D01*
X118313399Y-71263258D01*
X118345907Y-71426685D01*
X118345907Y-71593315D01*
X118313399Y-71756742D01*
X118249633Y-71910687D01*
X118157059Y-72049234D01*
X118039234Y-72167059D01*
X117900687Y-72259633D01*
X117746742Y-72323399D01*
X117583315Y-72355907D01*
X117416685Y-72355907D01*
X117253258Y-72323399D01*
X117099313Y-72259633D01*
X116960766Y-72167059D01*
X116842941Y-72049234D01*
X116750367Y-71910687D01*
X116686601Y-71756742D01*
X116654093Y-71593315D01*
X116654093Y-71426685D01*
X116686601Y-71263258D01*
X116750367Y-71109313D01*
X116842941Y-70970766D01*
X116960766Y-70852941D01*
X117099313Y-70760367D01*
X117253258Y-70696601D01*
X117416685Y-70664093D01*
X117583315Y-70664093D01*
X117746742Y-70696601D01*
G37*
G36*
X140606742Y-70696601D02*
G01*
X140760687Y-70760367D01*
X140899234Y-70852941D01*
X141017059Y-70970766D01*
X141109633Y-71109313D01*
X141173399Y-71263258D01*
X141205907Y-71426685D01*
X141205907Y-71593315D01*
X141173399Y-71756742D01*
X141109633Y-71910687D01*
X141017059Y-72049234D01*
X140899234Y-72167059D01*
X140760687Y-72259633D01*
X140606742Y-72323399D01*
X140443315Y-72355907D01*
X140276685Y-72355907D01*
X140113258Y-72323399D01*
X139959313Y-72259633D01*
X139820766Y-72167059D01*
X139702941Y-72049234D01*
X139610367Y-71910687D01*
X139546601Y-71756742D01*
X139514093Y-71593315D01*
X139514093Y-71426685D01*
X139546601Y-71263258D01*
X139610367Y-71109313D01*
X139702941Y-70970766D01*
X139820766Y-70852941D01*
X139959313Y-70760367D01*
X140113258Y-70696601D01*
X140276685Y-70664093D01*
X140443315Y-70664093D01*
X140606742Y-70696601D01*
G37*
G36*
X117746742Y-68156601D02*
G01*
X117900687Y-68220367D01*
X118039234Y-68312941D01*
X118157059Y-68430766D01*
X118249633Y-68569313D01*
X118313399Y-68723258D01*
X118345907Y-68886685D01*
X118345907Y-69053315D01*
X118313399Y-69216742D01*
X118249633Y-69370687D01*
X118157059Y-69509234D01*
X118039234Y-69627059D01*
X117900687Y-69719633D01*
X117746742Y-69783399D01*
X117583315Y-69815907D01*
X117416685Y-69815907D01*
X117253258Y-69783399D01*
X117099313Y-69719633D01*
X116960766Y-69627059D01*
X116842941Y-69509234D01*
X116750367Y-69370687D01*
X116686601Y-69216742D01*
X116654093Y-69053315D01*
X116654093Y-68886685D01*
X116686601Y-68723258D01*
X116750367Y-68569313D01*
X116842941Y-68430766D01*
X116960766Y-68312941D01*
X117099313Y-68220367D01*
X117253258Y-68156601D01*
X117416685Y-68124093D01*
X117583315Y-68124093D01*
X117746742Y-68156601D01*
G37*
G36*
X140606742Y-68156601D02*
G01*
X140760687Y-68220367D01*
X140899234Y-68312941D01*
X141017059Y-68430766D01*
X141109633Y-68569313D01*
X141173399Y-68723258D01*
X141205907Y-68886685D01*
X141205907Y-69053315D01*
X141173399Y-69216742D01*
X141109633Y-69370687D01*
X141017059Y-69509234D01*
X140899234Y-69627059D01*
X140760687Y-69719633D01*
X140606742Y-69783399D01*
X140443315Y-69815907D01*
X140276685Y-69815907D01*
X140113258Y-69783399D01*
X139959313Y-69719633D01*
X139820766Y-69627059D01*
X139702941Y-69509234D01*
X139610367Y-69370687D01*
X139546601Y-69216742D01*
X139514093Y-69053315D01*
X139514093Y-68886685D01*
X139546601Y-68723258D01*
X139610367Y-68569313D01*
X139702941Y-68430766D01*
X139820766Y-68312941D01*
X139959313Y-68220367D01*
X140113258Y-68156601D01*
X140276685Y-68124093D01*
X140443315Y-68124093D01*
X140606742Y-68156601D01*
G37*
G36*
X117746742Y-65616601D02*
G01*
X117900687Y-65680367D01*
X118039234Y-65772941D01*
X118157059Y-65890766D01*
X118249633Y-66029313D01*
X118313399Y-66183258D01*
X118345907Y-66346685D01*
X118345907Y-66513315D01*
X118313399Y-66676742D01*
X118249633Y-66830687D01*
X118157059Y-66969234D01*
X118039234Y-67087059D01*
X117900687Y-67179633D01*
X117746742Y-67243399D01*
X117583315Y-67275907D01*
X117416685Y-67275907D01*
X117253258Y-67243399D01*
X117099313Y-67179633D01*
X116960766Y-67087059D01*
X116842941Y-66969234D01*
X116750367Y-66830687D01*
X116686601Y-66676742D01*
X116654093Y-66513315D01*
X116654093Y-66346685D01*
X116686601Y-66183258D01*
X116750367Y-66029313D01*
X116842941Y-65890766D01*
X116960766Y-65772941D01*
X117099313Y-65680367D01*
X117253258Y-65616601D01*
X117416685Y-65584093D01*
X117583315Y-65584093D01*
X117746742Y-65616601D01*
G37*
G36*
X140606742Y-65616601D02*
G01*
X140760687Y-65680367D01*
X140899234Y-65772941D01*
X141017059Y-65890766D01*
X141109633Y-66029313D01*
X141173399Y-66183258D01*
X141205907Y-66346685D01*
X141205907Y-66513315D01*
X141173399Y-66676742D01*
X141109633Y-66830687D01*
X141017059Y-66969234D01*
X140899234Y-67087059D01*
X140760687Y-67179633D01*
X140606742Y-67243399D01*
X140443315Y-67275907D01*
X140276685Y-67275907D01*
X140113258Y-67243399D01*
X139959313Y-67179633D01*
X139820766Y-67087059D01*
X139702941Y-66969234D01*
X139610367Y-66830687D01*
X139546601Y-66676742D01*
X139514093Y-66513315D01*
X139514093Y-66346685D01*
X139546601Y-66183258D01*
X139610367Y-66029313D01*
X139702941Y-65890766D01*
X139820766Y-65772941D01*
X139959313Y-65680367D01*
X140113258Y-65616601D01*
X140276685Y-65584093D01*
X140443315Y-65584093D01*
X140606742Y-65616601D01*
G37*
G36*
X30900000Y-65900000D02*
G01*
X29100000Y-65900000D01*
X29100000Y-64100000D01*
X30900000Y-64100000D01*
X30900000Y-65900000D01*
G37*
G36*
X17561256Y-64138754D02*
G01*
X17724257Y-64206271D01*
X17870954Y-64304291D01*
X17995709Y-64429046D01*
X18093729Y-64575743D01*
X18161246Y-64738744D01*
X18195666Y-64911785D01*
X18195666Y-65088215D01*
X18161246Y-65261256D01*
X18093729Y-65424257D01*
X17995709Y-65570954D01*
X17870954Y-65695709D01*
X17724257Y-65793729D01*
X17561256Y-65861246D01*
X17388215Y-65895666D01*
X17211785Y-65895666D01*
X17038744Y-65861246D01*
X16875743Y-65793729D01*
X16729046Y-65695709D01*
X16604291Y-65570954D01*
X16506271Y-65424257D01*
X16438754Y-65261256D01*
X16404334Y-65088215D01*
X16404334Y-64911785D01*
X16438754Y-64738744D01*
X16506271Y-64575743D01*
X16604291Y-64429046D01*
X16729046Y-64304291D01*
X16875743Y-64206271D01*
X17038744Y-64138754D01*
X17211785Y-64104334D01*
X17388215Y-64104334D01*
X17561256Y-64138754D01*
G37*
G36*
X20101256Y-64138754D02*
G01*
X20264257Y-64206271D01*
X20410954Y-64304291D01*
X20535709Y-64429046D01*
X20633729Y-64575743D01*
X20701246Y-64738744D01*
X20735666Y-64911785D01*
X20735666Y-65088215D01*
X20701246Y-65261256D01*
X20633729Y-65424257D01*
X20535709Y-65570954D01*
X20410954Y-65695709D01*
X20264257Y-65793729D01*
X20101256Y-65861246D01*
X19928215Y-65895666D01*
X19751785Y-65895666D01*
X19578744Y-65861246D01*
X19415743Y-65793729D01*
X19269046Y-65695709D01*
X19144291Y-65570954D01*
X19046271Y-65424257D01*
X18978754Y-65261256D01*
X18944334Y-65088215D01*
X18944334Y-64911785D01*
X18978754Y-64738744D01*
X19046271Y-64575743D01*
X19144291Y-64429046D01*
X19269046Y-64304291D01*
X19415743Y-64206271D01*
X19578744Y-64138754D01*
X19751785Y-64104334D01*
X19928215Y-64104334D01*
X20101256Y-64138754D01*
G37*
G36*
X22641256Y-64138754D02*
G01*
X22804257Y-64206271D01*
X22950954Y-64304291D01*
X23075709Y-64429046D01*
X23173729Y-64575743D01*
X23241246Y-64738744D01*
X23275666Y-64911785D01*
X23275666Y-65088215D01*
X23241246Y-65261256D01*
X23173729Y-65424257D01*
X23075709Y-65570954D01*
X22950954Y-65695709D01*
X22804257Y-65793729D01*
X22641256Y-65861246D01*
X22468215Y-65895666D01*
X22291785Y-65895666D01*
X22118744Y-65861246D01*
X21955743Y-65793729D01*
X21809046Y-65695709D01*
X21684291Y-65570954D01*
X21586271Y-65424257D01*
X21518754Y-65261256D01*
X21484334Y-65088215D01*
X21484334Y-64911785D01*
X21518754Y-64738744D01*
X21586271Y-64575743D01*
X21684291Y-64429046D01*
X21809046Y-64304291D01*
X21955743Y-64206271D01*
X22118744Y-64138754D01*
X22291785Y-64104334D01*
X22468215Y-64104334D01*
X22641256Y-64138754D01*
G37*
G36*
X25181256Y-64138754D02*
G01*
X25344257Y-64206271D01*
X25490954Y-64304291D01*
X25615709Y-64429046D01*
X25713729Y-64575743D01*
X25781246Y-64738744D01*
X25815666Y-64911785D01*
X25815666Y-65088215D01*
X25781246Y-65261256D01*
X25713729Y-65424257D01*
X25615709Y-65570954D01*
X25490954Y-65695709D01*
X25344257Y-65793729D01*
X25181256Y-65861246D01*
X25008215Y-65895666D01*
X24831785Y-65895666D01*
X24658744Y-65861246D01*
X24495743Y-65793729D01*
X24349046Y-65695709D01*
X24224291Y-65570954D01*
X24126271Y-65424257D01*
X24058754Y-65261256D01*
X24024334Y-65088215D01*
X24024334Y-64911785D01*
X24058754Y-64738744D01*
X24126271Y-64575743D01*
X24224291Y-64429046D01*
X24349046Y-64304291D01*
X24495743Y-64206271D01*
X24658744Y-64138754D01*
X24831785Y-64104334D01*
X25008215Y-64104334D01*
X25181256Y-64138754D01*
G37*
G36*
X27721256Y-64138754D02*
G01*
X27884257Y-64206271D01*
X28030954Y-64304291D01*
X28155709Y-64429046D01*
X28253729Y-64575743D01*
X28321246Y-64738744D01*
X28355666Y-64911785D01*
X28355666Y-65088215D01*
X28321246Y-65261256D01*
X28253729Y-65424257D01*
X28155709Y-65570954D01*
X28030954Y-65695709D01*
X27884257Y-65793729D01*
X27721256Y-65861246D01*
X27548215Y-65895666D01*
X27371785Y-65895666D01*
X27198744Y-65861246D01*
X27035743Y-65793729D01*
X26889046Y-65695709D01*
X26764291Y-65570954D01*
X26666271Y-65424257D01*
X26598754Y-65261256D01*
X26564334Y-65088215D01*
X26564334Y-64911785D01*
X26598754Y-64738744D01*
X26666271Y-64575743D01*
X26764291Y-64429046D01*
X26889046Y-64304291D01*
X27035743Y-64206271D01*
X27198744Y-64138754D01*
X27371785Y-64104334D01*
X27548215Y-64104334D01*
X27721256Y-64138754D01*
G37*
G36*
X117746742Y-63076601D02*
G01*
X117900687Y-63140367D01*
X118039234Y-63232941D01*
X118157059Y-63350766D01*
X118249633Y-63489313D01*
X118313399Y-63643258D01*
X118345907Y-63806685D01*
X118345907Y-63973315D01*
X118313399Y-64136742D01*
X118249633Y-64290687D01*
X118157059Y-64429234D01*
X118039234Y-64547059D01*
X117900687Y-64639633D01*
X117746742Y-64703399D01*
X117583315Y-64735907D01*
X117416685Y-64735907D01*
X117253258Y-64703399D01*
X117099313Y-64639633D01*
X116960766Y-64547059D01*
X116842941Y-64429234D01*
X116750367Y-64290687D01*
X116686601Y-64136742D01*
X116654093Y-63973315D01*
X116654093Y-63806685D01*
X116686601Y-63643258D01*
X116750367Y-63489313D01*
X116842941Y-63350766D01*
X116960766Y-63232941D01*
X117099313Y-63140367D01*
X117253258Y-63076601D01*
X117416685Y-63044093D01*
X117583315Y-63044093D01*
X117746742Y-63076601D01*
G37*
G36*
X140606742Y-63076601D02*
G01*
X140760687Y-63140367D01*
X140899234Y-63232941D01*
X141017059Y-63350766D01*
X141109633Y-63489313D01*
X141173399Y-63643258D01*
X141205907Y-63806685D01*
X141205907Y-63973315D01*
X141173399Y-64136742D01*
X141109633Y-64290687D01*
X141017059Y-64429234D01*
X140899234Y-64547059D01*
X140760687Y-64639633D01*
X140606742Y-64703399D01*
X140443315Y-64735907D01*
X140276685Y-64735907D01*
X140113258Y-64703399D01*
X139959313Y-64639633D01*
X139820766Y-64547059D01*
X139702941Y-64429234D01*
X139610367Y-64290687D01*
X139546601Y-64136742D01*
X139514093Y-63973315D01*
X139514093Y-63806685D01*
X139546601Y-63643258D01*
X139610367Y-63489313D01*
X139702941Y-63350766D01*
X139820766Y-63232941D01*
X139959313Y-63140367D01*
X140113258Y-63076601D01*
X140276685Y-63044093D01*
X140443315Y-63044093D01*
X140606742Y-63076601D01*
G37*
G36*
X117746742Y-60536601D02*
G01*
X117900687Y-60600367D01*
X118039234Y-60692941D01*
X118157059Y-60810766D01*
X118249633Y-60949313D01*
X118313399Y-61103258D01*
X118345907Y-61266685D01*
X118345907Y-61433315D01*
X118313399Y-61596742D01*
X118249633Y-61750687D01*
X118157059Y-61889234D01*
X118039234Y-62007059D01*
X117900687Y-62099633D01*
X117746742Y-62163399D01*
X117583315Y-62195907D01*
X117416685Y-62195907D01*
X117253258Y-62163399D01*
X117099313Y-62099633D01*
X116960766Y-62007059D01*
X116842941Y-61889234D01*
X116750367Y-61750687D01*
X116686601Y-61596742D01*
X116654093Y-61433315D01*
X116654093Y-61266685D01*
X116686601Y-61103258D01*
X116750367Y-60949313D01*
X116842941Y-60810766D01*
X116960766Y-60692941D01*
X117099313Y-60600367D01*
X117253258Y-60536601D01*
X117416685Y-60504093D01*
X117583315Y-60504093D01*
X117746742Y-60536601D01*
G37*
G36*
X140606742Y-60536601D02*
G01*
X140760687Y-60600367D01*
X140899234Y-60692941D01*
X141017059Y-60810766D01*
X141109633Y-60949313D01*
X141173399Y-61103258D01*
X141205907Y-61266685D01*
X141205907Y-61433315D01*
X141173399Y-61596742D01*
X141109633Y-61750687D01*
X141017059Y-61889234D01*
X140899234Y-62007059D01*
X140760687Y-62099633D01*
X140606742Y-62163399D01*
X140443315Y-62195907D01*
X140276685Y-62195907D01*
X140113258Y-62163399D01*
X139959313Y-62099633D01*
X139820766Y-62007059D01*
X139702941Y-61889234D01*
X139610367Y-61750687D01*
X139546601Y-61596742D01*
X139514093Y-61433315D01*
X139514093Y-61266685D01*
X139546601Y-61103258D01*
X139610367Y-60949313D01*
X139702941Y-60810766D01*
X139820766Y-60692941D01*
X139959313Y-60600367D01*
X140113258Y-60536601D01*
X140276685Y-60504093D01*
X140443315Y-60504093D01*
X140606742Y-60536601D01*
G37*
G36*
X60350000Y-60500000D02*
G01*
X58650000Y-60500000D01*
X58650000Y-58500000D01*
X60350000Y-58500000D01*
X60350000Y-60500000D01*
G37*
G36*
X86850000Y-60500000D02*
G01*
X85150000Y-60500000D01*
X85150000Y-58500000D01*
X86850000Y-58500000D01*
X86850000Y-60500000D01*
G37*
G36*
X39426742Y-58536601D02*
G01*
X39580687Y-58600367D01*
X39719234Y-58692941D01*
X39837059Y-58810766D01*
X39929633Y-58949313D01*
X39993399Y-59103258D01*
X40025907Y-59266685D01*
X40030000Y-59350000D01*
X40030000Y-59650000D01*
X40025907Y-59733315D01*
X39993399Y-59896742D01*
X39929633Y-60050687D01*
X39837059Y-60189234D01*
X39719234Y-60307059D01*
X39580687Y-60399633D01*
X39426742Y-60463399D01*
X39263315Y-60495907D01*
X39096685Y-60495907D01*
X38933258Y-60463399D01*
X38779313Y-60399633D01*
X38640766Y-60307059D01*
X38522941Y-60189234D01*
X38430367Y-60050687D01*
X38366601Y-59896742D01*
X38334093Y-59733315D01*
X38330000Y-59650000D01*
X38330000Y-59350000D01*
X38334093Y-59266685D01*
X38366601Y-59103258D01*
X38430367Y-58949313D01*
X38522941Y-58810766D01*
X38640766Y-58692941D01*
X38779313Y-58600367D01*
X38933258Y-58536601D01*
X39096685Y-58504093D01*
X39263315Y-58504093D01*
X39426742Y-58536601D01*
G37*
G36*
X41966742Y-58536601D02*
G01*
X42120687Y-58600367D01*
X42259234Y-58692941D01*
X42377059Y-58810766D01*
X42469633Y-58949313D01*
X42533399Y-59103258D01*
X42565907Y-59266685D01*
X42570000Y-59350000D01*
X42570000Y-59650000D01*
X42565907Y-59733315D01*
X42533399Y-59896742D01*
X42469633Y-60050687D01*
X42377059Y-60189234D01*
X42259234Y-60307059D01*
X42120687Y-60399633D01*
X41966742Y-60463399D01*
X41803315Y-60495907D01*
X41636685Y-60495907D01*
X41473258Y-60463399D01*
X41319313Y-60399633D01*
X41180766Y-60307059D01*
X41062941Y-60189234D01*
X40970367Y-60050687D01*
X40906601Y-59896742D01*
X40874093Y-59733315D01*
X40870000Y-59650000D01*
X40870000Y-59350000D01*
X40874093Y-59266685D01*
X40906601Y-59103258D01*
X40970367Y-58949313D01*
X41062941Y-58810766D01*
X41180766Y-58692941D01*
X41319313Y-58600367D01*
X41473258Y-58536601D01*
X41636685Y-58504093D01*
X41803315Y-58504093D01*
X41966742Y-58536601D01*
G37*
G36*
X44506742Y-58536601D02*
G01*
X44660687Y-58600367D01*
X44799234Y-58692941D01*
X44917059Y-58810766D01*
X45009633Y-58949313D01*
X45073399Y-59103258D01*
X45105907Y-59266685D01*
X45110000Y-59350000D01*
X45110000Y-59650000D01*
X45105907Y-59733315D01*
X45073399Y-59896742D01*
X45009633Y-60050687D01*
X44917059Y-60189234D01*
X44799234Y-60307059D01*
X44660687Y-60399633D01*
X44506742Y-60463399D01*
X44343315Y-60495907D01*
X44176685Y-60495907D01*
X44013258Y-60463399D01*
X43859313Y-60399633D01*
X43720766Y-60307059D01*
X43602941Y-60189234D01*
X43510367Y-60050687D01*
X43446601Y-59896742D01*
X43414093Y-59733315D01*
X43410000Y-59650000D01*
X43410000Y-59350000D01*
X43414093Y-59266685D01*
X43446601Y-59103258D01*
X43510367Y-58949313D01*
X43602941Y-58810766D01*
X43720766Y-58692941D01*
X43859313Y-58600367D01*
X44013258Y-58536601D01*
X44176685Y-58504093D01*
X44343315Y-58504093D01*
X44506742Y-58536601D01*
G37*
G36*
X47046742Y-58536601D02*
G01*
X47200687Y-58600367D01*
X47339234Y-58692941D01*
X47457059Y-58810766D01*
X47549633Y-58949313D01*
X47613399Y-59103258D01*
X47645907Y-59266685D01*
X47650000Y-59350000D01*
X47650000Y-59650000D01*
X47645907Y-59733315D01*
X47613399Y-59896742D01*
X47549633Y-60050687D01*
X47457059Y-60189234D01*
X47339234Y-60307059D01*
X47200687Y-60399633D01*
X47046742Y-60463399D01*
X46883315Y-60495907D01*
X46716685Y-60495907D01*
X46553258Y-60463399D01*
X46399313Y-60399633D01*
X46260766Y-60307059D01*
X46142941Y-60189234D01*
X46050367Y-60050687D01*
X45986601Y-59896742D01*
X45954093Y-59733315D01*
X45950000Y-59650000D01*
X45950000Y-59350000D01*
X45954093Y-59266685D01*
X45986601Y-59103258D01*
X46050367Y-58949313D01*
X46142941Y-58810766D01*
X46260766Y-58692941D01*
X46399313Y-58600367D01*
X46553258Y-58536601D01*
X46716685Y-58504093D01*
X46883315Y-58504093D01*
X47046742Y-58536601D01*
G37*
G36*
X49586742Y-58536601D02*
G01*
X49740687Y-58600367D01*
X49879234Y-58692941D01*
X49997059Y-58810766D01*
X50089633Y-58949313D01*
X50153399Y-59103258D01*
X50185907Y-59266685D01*
X50190000Y-59350000D01*
X50190000Y-59650000D01*
X50185907Y-59733315D01*
X50153399Y-59896742D01*
X50089633Y-60050687D01*
X49997059Y-60189234D01*
X49879234Y-60307059D01*
X49740687Y-60399633D01*
X49586742Y-60463399D01*
X49423315Y-60495907D01*
X49256685Y-60495907D01*
X49093258Y-60463399D01*
X48939313Y-60399633D01*
X48800766Y-60307059D01*
X48682941Y-60189234D01*
X48590367Y-60050687D01*
X48526601Y-59896742D01*
X48494093Y-59733315D01*
X48490000Y-59650000D01*
X48490000Y-59350000D01*
X48494093Y-59266685D01*
X48526601Y-59103258D01*
X48590367Y-58949313D01*
X48682941Y-58810766D01*
X48800766Y-58692941D01*
X48939313Y-58600367D01*
X49093258Y-58536601D01*
X49256685Y-58504093D01*
X49423315Y-58504093D01*
X49586742Y-58536601D01*
G37*
G36*
X52126742Y-58536601D02*
G01*
X52280687Y-58600367D01*
X52419234Y-58692941D01*
X52537059Y-58810766D01*
X52629633Y-58949313D01*
X52693399Y-59103258D01*
X52725907Y-59266685D01*
X52730000Y-59350000D01*
X52730000Y-59650000D01*
X52725907Y-59733315D01*
X52693399Y-59896742D01*
X52629633Y-60050687D01*
X52537059Y-60189234D01*
X52419234Y-60307059D01*
X52280687Y-60399633D01*
X52126742Y-60463399D01*
X51963315Y-60495907D01*
X51796685Y-60495907D01*
X51633258Y-60463399D01*
X51479313Y-60399633D01*
X51340766Y-60307059D01*
X51222941Y-60189234D01*
X51130367Y-60050687D01*
X51066601Y-59896742D01*
X51034093Y-59733315D01*
X51030000Y-59650000D01*
X51030000Y-59350000D01*
X51034093Y-59266685D01*
X51066601Y-59103258D01*
X51130367Y-58949313D01*
X51222941Y-58810766D01*
X51340766Y-58692941D01*
X51479313Y-58600367D01*
X51633258Y-58536601D01*
X51796685Y-58504093D01*
X51963315Y-58504093D01*
X52126742Y-58536601D01*
G37*
G36*
X54666742Y-58536601D02*
G01*
X54820687Y-58600367D01*
X54959234Y-58692941D01*
X55077059Y-58810766D01*
X55169633Y-58949313D01*
X55233399Y-59103258D01*
X55265907Y-59266685D01*
X55270000Y-59350000D01*
X55270000Y-59650000D01*
X55265907Y-59733315D01*
X55233399Y-59896742D01*
X55169633Y-60050687D01*
X55077059Y-60189234D01*
X54959234Y-60307059D01*
X54820687Y-60399633D01*
X54666742Y-60463399D01*
X54503315Y-60495907D01*
X54336685Y-60495907D01*
X54173258Y-60463399D01*
X54019313Y-60399633D01*
X53880766Y-60307059D01*
X53762941Y-60189234D01*
X53670367Y-60050687D01*
X53606601Y-59896742D01*
X53574093Y-59733315D01*
X53570000Y-59650000D01*
X53570000Y-59350000D01*
X53574093Y-59266685D01*
X53606601Y-59103258D01*
X53670367Y-58949313D01*
X53762941Y-58810766D01*
X53880766Y-58692941D01*
X54019313Y-58600367D01*
X54173258Y-58536601D01*
X54336685Y-58504093D01*
X54503315Y-58504093D01*
X54666742Y-58536601D01*
G37*
G36*
X57206742Y-58536601D02*
G01*
X57360687Y-58600367D01*
X57499234Y-58692941D01*
X57617059Y-58810766D01*
X57709633Y-58949313D01*
X57773399Y-59103258D01*
X57805907Y-59266685D01*
X57810000Y-59350000D01*
X57810000Y-59650000D01*
X57805907Y-59733315D01*
X57773399Y-59896742D01*
X57709633Y-60050687D01*
X57617059Y-60189234D01*
X57499234Y-60307059D01*
X57360687Y-60399633D01*
X57206742Y-60463399D01*
X57043315Y-60495907D01*
X56876685Y-60495907D01*
X56713258Y-60463399D01*
X56559313Y-60399633D01*
X56420766Y-60307059D01*
X56302941Y-60189234D01*
X56210367Y-60050687D01*
X56146601Y-59896742D01*
X56114093Y-59733315D01*
X56110000Y-59650000D01*
X56110000Y-59350000D01*
X56114093Y-59266685D01*
X56146601Y-59103258D01*
X56210367Y-58949313D01*
X56302941Y-58810766D01*
X56420766Y-58692941D01*
X56559313Y-58600367D01*
X56713258Y-58536601D01*
X56876685Y-58504093D01*
X57043315Y-58504093D01*
X57206742Y-58536601D01*
G37*
G36*
X65926742Y-58536601D02*
G01*
X66080687Y-58600367D01*
X66219234Y-58692941D01*
X66337059Y-58810766D01*
X66429633Y-58949313D01*
X66493399Y-59103258D01*
X66525907Y-59266685D01*
X66530000Y-59350000D01*
X66530000Y-59650000D01*
X66525907Y-59733315D01*
X66493399Y-59896742D01*
X66429633Y-60050687D01*
X66337059Y-60189234D01*
X66219234Y-60307059D01*
X66080687Y-60399633D01*
X65926742Y-60463399D01*
X65763315Y-60495907D01*
X65596685Y-60495907D01*
X65433258Y-60463399D01*
X65279313Y-60399633D01*
X65140766Y-60307059D01*
X65022941Y-60189234D01*
X64930367Y-60050687D01*
X64866601Y-59896742D01*
X64834093Y-59733315D01*
X64830000Y-59650000D01*
X64830000Y-59350000D01*
X64834093Y-59266685D01*
X64866601Y-59103258D01*
X64930367Y-58949313D01*
X65022941Y-58810766D01*
X65140766Y-58692941D01*
X65279313Y-58600367D01*
X65433258Y-58536601D01*
X65596685Y-58504093D01*
X65763315Y-58504093D01*
X65926742Y-58536601D01*
G37*
G36*
X68466742Y-58536601D02*
G01*
X68620687Y-58600367D01*
X68759234Y-58692941D01*
X68877059Y-58810766D01*
X68969633Y-58949313D01*
X69033399Y-59103258D01*
X69065907Y-59266685D01*
X69070000Y-59350000D01*
X69070000Y-59650000D01*
X69065907Y-59733315D01*
X69033399Y-59896742D01*
X68969633Y-60050687D01*
X68877059Y-60189234D01*
X68759234Y-60307059D01*
X68620687Y-60399633D01*
X68466742Y-60463399D01*
X68303315Y-60495907D01*
X68136685Y-60495907D01*
X67973258Y-60463399D01*
X67819313Y-60399633D01*
X67680766Y-60307059D01*
X67562941Y-60189234D01*
X67470367Y-60050687D01*
X67406601Y-59896742D01*
X67374093Y-59733315D01*
X67370000Y-59650000D01*
X67370000Y-59350000D01*
X67374093Y-59266685D01*
X67406601Y-59103258D01*
X67470367Y-58949313D01*
X67562941Y-58810766D01*
X67680766Y-58692941D01*
X67819313Y-58600367D01*
X67973258Y-58536601D01*
X68136685Y-58504093D01*
X68303315Y-58504093D01*
X68466742Y-58536601D01*
G37*
G36*
X71006742Y-58536601D02*
G01*
X71160687Y-58600367D01*
X71299234Y-58692941D01*
X71417059Y-58810766D01*
X71509633Y-58949313D01*
X71573399Y-59103258D01*
X71605907Y-59266685D01*
X71610000Y-59350000D01*
X71610000Y-59650000D01*
X71605907Y-59733315D01*
X71573399Y-59896742D01*
X71509633Y-60050687D01*
X71417059Y-60189234D01*
X71299234Y-60307059D01*
X71160687Y-60399633D01*
X71006742Y-60463399D01*
X70843315Y-60495907D01*
X70676685Y-60495907D01*
X70513258Y-60463399D01*
X70359313Y-60399633D01*
X70220766Y-60307059D01*
X70102941Y-60189234D01*
X70010367Y-60050687D01*
X69946601Y-59896742D01*
X69914093Y-59733315D01*
X69910000Y-59650000D01*
X69910000Y-59350000D01*
X69914093Y-59266685D01*
X69946601Y-59103258D01*
X70010367Y-58949313D01*
X70102941Y-58810766D01*
X70220766Y-58692941D01*
X70359313Y-58600367D01*
X70513258Y-58536601D01*
X70676685Y-58504093D01*
X70843315Y-58504093D01*
X71006742Y-58536601D01*
G37*
G36*
X73546742Y-58536601D02*
G01*
X73700687Y-58600367D01*
X73839234Y-58692941D01*
X73957059Y-58810766D01*
X74049633Y-58949313D01*
X74113399Y-59103258D01*
X74145907Y-59266685D01*
X74150000Y-59350000D01*
X74150000Y-59650000D01*
X74145907Y-59733315D01*
X74113399Y-59896742D01*
X74049633Y-60050687D01*
X73957059Y-60189234D01*
X73839234Y-60307059D01*
X73700687Y-60399633D01*
X73546742Y-60463399D01*
X73383315Y-60495907D01*
X73216685Y-60495907D01*
X73053258Y-60463399D01*
X72899313Y-60399633D01*
X72760766Y-60307059D01*
X72642941Y-60189234D01*
X72550367Y-60050687D01*
X72486601Y-59896742D01*
X72454093Y-59733315D01*
X72450000Y-59650000D01*
X72450000Y-59350000D01*
X72454093Y-59266685D01*
X72486601Y-59103258D01*
X72550367Y-58949313D01*
X72642941Y-58810766D01*
X72760766Y-58692941D01*
X72899313Y-58600367D01*
X73053258Y-58536601D01*
X73216685Y-58504093D01*
X73383315Y-58504093D01*
X73546742Y-58536601D01*
G37*
G36*
X76086742Y-58536601D02*
G01*
X76240687Y-58600367D01*
X76379234Y-58692941D01*
X76497059Y-58810766D01*
X76589633Y-58949313D01*
X76653399Y-59103258D01*
X76685907Y-59266685D01*
X76690000Y-59350000D01*
X76690000Y-59650000D01*
X76685907Y-59733315D01*
X76653399Y-59896742D01*
X76589633Y-60050687D01*
X76497059Y-60189234D01*
X76379234Y-60307059D01*
X76240687Y-60399633D01*
X76086742Y-60463399D01*
X75923315Y-60495907D01*
X75756685Y-60495907D01*
X75593258Y-60463399D01*
X75439313Y-60399633D01*
X75300766Y-60307059D01*
X75182941Y-60189234D01*
X75090367Y-60050687D01*
X75026601Y-59896742D01*
X74994093Y-59733315D01*
X74990000Y-59650000D01*
X74990000Y-59350000D01*
X74994093Y-59266685D01*
X75026601Y-59103258D01*
X75090367Y-58949313D01*
X75182941Y-58810766D01*
X75300766Y-58692941D01*
X75439313Y-58600367D01*
X75593258Y-58536601D01*
X75756685Y-58504093D01*
X75923315Y-58504093D01*
X76086742Y-58536601D01*
G37*
G36*
X78626742Y-58536601D02*
G01*
X78780687Y-58600367D01*
X78919234Y-58692941D01*
X79037059Y-58810766D01*
X79129633Y-58949313D01*
X79193399Y-59103258D01*
X79225907Y-59266685D01*
X79230000Y-59350000D01*
X79230000Y-59650000D01*
X79225907Y-59733315D01*
X79193399Y-59896742D01*
X79129633Y-60050687D01*
X79037059Y-60189234D01*
X78919234Y-60307059D01*
X78780687Y-60399633D01*
X78626742Y-60463399D01*
X78463315Y-60495907D01*
X78296685Y-60495907D01*
X78133258Y-60463399D01*
X77979313Y-60399633D01*
X77840766Y-60307059D01*
X77722941Y-60189234D01*
X77630367Y-60050687D01*
X77566601Y-59896742D01*
X77534093Y-59733315D01*
X77530000Y-59650000D01*
X77530000Y-59350000D01*
X77534093Y-59266685D01*
X77566601Y-59103258D01*
X77630367Y-58949313D01*
X77722941Y-58810766D01*
X77840766Y-58692941D01*
X77979313Y-58600367D01*
X78133258Y-58536601D01*
X78296685Y-58504093D01*
X78463315Y-58504093D01*
X78626742Y-58536601D01*
G37*
G36*
X81166742Y-58536601D02*
G01*
X81320687Y-58600367D01*
X81459234Y-58692941D01*
X81577059Y-58810766D01*
X81669633Y-58949313D01*
X81733399Y-59103258D01*
X81765907Y-59266685D01*
X81770000Y-59350000D01*
X81770000Y-59650000D01*
X81765907Y-59733315D01*
X81733399Y-59896742D01*
X81669633Y-60050687D01*
X81577059Y-60189234D01*
X81459234Y-60307059D01*
X81320687Y-60399633D01*
X81166742Y-60463399D01*
X81003315Y-60495907D01*
X80836685Y-60495907D01*
X80673258Y-60463399D01*
X80519313Y-60399633D01*
X80380766Y-60307059D01*
X80262941Y-60189234D01*
X80170367Y-60050687D01*
X80106601Y-59896742D01*
X80074093Y-59733315D01*
X80070000Y-59650000D01*
X80070000Y-59350000D01*
X80074093Y-59266685D01*
X80106601Y-59103258D01*
X80170367Y-58949313D01*
X80262941Y-58810766D01*
X80380766Y-58692941D01*
X80519313Y-58600367D01*
X80673258Y-58536601D01*
X80836685Y-58504093D01*
X81003315Y-58504093D01*
X81166742Y-58536601D01*
G37*
G36*
X83706742Y-58536601D02*
G01*
X83860687Y-58600367D01*
X83999234Y-58692941D01*
X84117059Y-58810766D01*
X84209633Y-58949313D01*
X84273399Y-59103258D01*
X84305907Y-59266685D01*
X84310000Y-59350000D01*
X84310000Y-59650000D01*
X84305907Y-59733315D01*
X84273399Y-59896742D01*
X84209633Y-60050687D01*
X84117059Y-60189234D01*
X83999234Y-60307059D01*
X83860687Y-60399633D01*
X83706742Y-60463399D01*
X83543315Y-60495907D01*
X83376685Y-60495907D01*
X83213258Y-60463399D01*
X83059313Y-60399633D01*
X82920766Y-60307059D01*
X82802941Y-60189234D01*
X82710367Y-60050687D01*
X82646601Y-59896742D01*
X82614093Y-59733315D01*
X82610000Y-59650000D01*
X82610000Y-59350000D01*
X82614093Y-59266685D01*
X82646601Y-59103258D01*
X82710367Y-58949313D01*
X82802941Y-58810766D01*
X82920766Y-58692941D01*
X83059313Y-58600367D01*
X83213258Y-58536601D01*
X83376685Y-58504093D01*
X83543315Y-58504093D01*
X83706742Y-58536601D01*
G37*
G36*
X117746742Y-57996601D02*
G01*
X117900687Y-58060367D01*
X118039234Y-58152941D01*
X118157059Y-58270766D01*
X118249633Y-58409313D01*
X118313399Y-58563258D01*
X118345907Y-58726685D01*
X118345907Y-58893315D01*
X118313399Y-59056742D01*
X118249633Y-59210687D01*
X118157059Y-59349234D01*
X118039234Y-59467059D01*
X117900687Y-59559633D01*
X117746742Y-59623399D01*
X117583315Y-59655907D01*
X117416685Y-59655907D01*
X117253258Y-59623399D01*
X117099313Y-59559633D01*
X116960766Y-59467059D01*
X116842941Y-59349234D01*
X116750367Y-59210687D01*
X116686601Y-59056742D01*
X116654093Y-58893315D01*
X116654093Y-58726685D01*
X116686601Y-58563258D01*
X116750367Y-58409313D01*
X116842941Y-58270766D01*
X116960766Y-58152941D01*
X117099313Y-58060367D01*
X117253258Y-57996601D01*
X117416685Y-57964093D01*
X117583315Y-57964093D01*
X117746742Y-57996601D01*
G37*
G36*
X140606742Y-57996601D02*
G01*
X140760687Y-58060367D01*
X140899234Y-58152941D01*
X141017059Y-58270766D01*
X141109633Y-58409313D01*
X141173399Y-58563258D01*
X141205907Y-58726685D01*
X141205907Y-58893315D01*
X141173399Y-59056742D01*
X141109633Y-59210687D01*
X141017059Y-59349234D01*
X140899234Y-59467059D01*
X140760687Y-59559633D01*
X140606742Y-59623399D01*
X140443315Y-59655907D01*
X140276685Y-59655907D01*
X140113258Y-59623399D01*
X139959313Y-59559633D01*
X139820766Y-59467059D01*
X139702941Y-59349234D01*
X139610367Y-59210687D01*
X139546601Y-59056742D01*
X139514093Y-58893315D01*
X139514093Y-58726685D01*
X139546601Y-58563258D01*
X139610367Y-58409313D01*
X139702941Y-58270766D01*
X139820766Y-58152941D01*
X139959313Y-58060367D01*
X140113258Y-57996601D01*
X140276685Y-57964093D01*
X140443315Y-57964093D01*
X140606742Y-57996601D01*
G37*
G36*
X113250000Y-57250000D02*
G01*
X111550000Y-57250000D01*
X111550000Y-55550000D01*
X113250000Y-55550000D01*
X113250000Y-57250000D01*
G37*
G36*
X92326742Y-55586601D02*
G01*
X92480687Y-55650367D01*
X92619234Y-55742941D01*
X92737059Y-55860766D01*
X92829633Y-55999313D01*
X92893399Y-56153258D01*
X92925907Y-56316685D01*
X92925907Y-56483315D01*
X92893399Y-56646742D01*
X92829633Y-56800687D01*
X92737059Y-56939234D01*
X92619234Y-57057059D01*
X92480687Y-57149633D01*
X92326742Y-57213399D01*
X92163315Y-57245907D01*
X91996685Y-57245907D01*
X91833258Y-57213399D01*
X91679313Y-57149633D01*
X91540766Y-57057059D01*
X91422941Y-56939234D01*
X91330367Y-56800687D01*
X91266601Y-56646742D01*
X91234093Y-56483315D01*
X91234093Y-56316685D01*
X91266601Y-56153258D01*
X91330367Y-55999313D01*
X91422941Y-55860766D01*
X91540766Y-55742941D01*
X91679313Y-55650367D01*
X91833258Y-55586601D01*
X91996685Y-55554093D01*
X92163315Y-55554093D01*
X92326742Y-55586601D01*
G37*
G36*
X94866742Y-55586601D02*
G01*
X95020687Y-55650367D01*
X95159234Y-55742941D01*
X95277059Y-55860766D01*
X95369633Y-55999313D01*
X95433399Y-56153258D01*
X95465907Y-56316685D01*
X95465907Y-56483315D01*
X95433399Y-56646742D01*
X95369633Y-56800687D01*
X95277059Y-56939234D01*
X95159234Y-57057059D01*
X95020687Y-57149633D01*
X94866742Y-57213399D01*
X94703315Y-57245907D01*
X94536685Y-57245907D01*
X94373258Y-57213399D01*
X94219313Y-57149633D01*
X94080766Y-57057059D01*
X93962941Y-56939234D01*
X93870367Y-56800687D01*
X93806601Y-56646742D01*
X93774093Y-56483315D01*
X93774093Y-56316685D01*
X93806601Y-56153258D01*
X93870367Y-55999313D01*
X93962941Y-55860766D01*
X94080766Y-55742941D01*
X94219313Y-55650367D01*
X94373258Y-55586601D01*
X94536685Y-55554093D01*
X94703315Y-55554093D01*
X94866742Y-55586601D01*
G37*
G36*
X97406742Y-55586601D02*
G01*
X97560687Y-55650367D01*
X97699234Y-55742941D01*
X97817059Y-55860766D01*
X97909633Y-55999313D01*
X97973399Y-56153258D01*
X98005907Y-56316685D01*
X98005907Y-56483315D01*
X97973399Y-56646742D01*
X97909633Y-56800687D01*
X97817059Y-56939234D01*
X97699234Y-57057059D01*
X97560687Y-57149633D01*
X97406742Y-57213399D01*
X97243315Y-57245907D01*
X97076685Y-57245907D01*
X96913258Y-57213399D01*
X96759313Y-57149633D01*
X96620766Y-57057059D01*
X96502941Y-56939234D01*
X96410367Y-56800687D01*
X96346601Y-56646742D01*
X96314093Y-56483315D01*
X96314093Y-56316685D01*
X96346601Y-56153258D01*
X96410367Y-55999313D01*
X96502941Y-55860766D01*
X96620766Y-55742941D01*
X96759313Y-55650367D01*
X96913258Y-55586601D01*
X97076685Y-55554093D01*
X97243315Y-55554093D01*
X97406742Y-55586601D01*
G37*
G36*
X99946742Y-55586601D02*
G01*
X100100687Y-55650367D01*
X100239234Y-55742941D01*
X100357059Y-55860766D01*
X100449633Y-55999313D01*
X100513399Y-56153258D01*
X100545907Y-56316685D01*
X100545907Y-56483315D01*
X100513399Y-56646742D01*
X100449633Y-56800687D01*
X100357059Y-56939234D01*
X100239234Y-57057059D01*
X100100687Y-57149633D01*
X99946742Y-57213399D01*
X99783315Y-57245907D01*
X99616685Y-57245907D01*
X99453258Y-57213399D01*
X99299313Y-57149633D01*
X99160766Y-57057059D01*
X99042941Y-56939234D01*
X98950367Y-56800687D01*
X98886601Y-56646742D01*
X98854093Y-56483315D01*
X98854093Y-56316685D01*
X98886601Y-56153258D01*
X98950367Y-55999313D01*
X99042941Y-55860766D01*
X99160766Y-55742941D01*
X99299313Y-55650367D01*
X99453258Y-55586601D01*
X99616685Y-55554093D01*
X99783315Y-55554093D01*
X99946742Y-55586601D01*
G37*
G36*
X102486742Y-55586601D02*
G01*
X102640687Y-55650367D01*
X102779234Y-55742941D01*
X102897059Y-55860766D01*
X102989633Y-55999313D01*
X103053399Y-56153258D01*
X103085907Y-56316685D01*
X103085907Y-56483315D01*
X103053399Y-56646742D01*
X102989633Y-56800687D01*
X102897059Y-56939234D01*
X102779234Y-57057059D01*
X102640687Y-57149633D01*
X102486742Y-57213399D01*
X102323315Y-57245907D01*
X102156685Y-57245907D01*
X101993258Y-57213399D01*
X101839313Y-57149633D01*
X101700766Y-57057059D01*
X101582941Y-56939234D01*
X101490367Y-56800687D01*
X101426601Y-56646742D01*
X101394093Y-56483315D01*
X101394093Y-56316685D01*
X101426601Y-56153258D01*
X101490367Y-55999313D01*
X101582941Y-55860766D01*
X101700766Y-55742941D01*
X101839313Y-55650367D01*
X101993258Y-55586601D01*
X102156685Y-55554093D01*
X102323315Y-55554093D01*
X102486742Y-55586601D01*
G37*
G36*
X105026742Y-55586601D02*
G01*
X105180687Y-55650367D01*
X105319234Y-55742941D01*
X105437059Y-55860766D01*
X105529633Y-55999313D01*
X105593399Y-56153258D01*
X105625907Y-56316685D01*
X105625907Y-56483315D01*
X105593399Y-56646742D01*
X105529633Y-56800687D01*
X105437059Y-56939234D01*
X105319234Y-57057059D01*
X105180687Y-57149633D01*
X105026742Y-57213399D01*
X104863315Y-57245907D01*
X104696685Y-57245907D01*
X104533258Y-57213399D01*
X104379313Y-57149633D01*
X104240766Y-57057059D01*
X104122941Y-56939234D01*
X104030367Y-56800687D01*
X103966601Y-56646742D01*
X103934093Y-56483315D01*
X103934093Y-56316685D01*
X103966601Y-56153258D01*
X104030367Y-55999313D01*
X104122941Y-55860766D01*
X104240766Y-55742941D01*
X104379313Y-55650367D01*
X104533258Y-55586601D01*
X104696685Y-55554093D01*
X104863315Y-55554093D01*
X105026742Y-55586601D01*
G37*
G36*
X107566742Y-55586601D02*
G01*
X107720687Y-55650367D01*
X107859234Y-55742941D01*
X107977059Y-55860766D01*
X108069633Y-55999313D01*
X108133399Y-56153258D01*
X108165907Y-56316685D01*
X108165907Y-56483315D01*
X108133399Y-56646742D01*
X108069633Y-56800687D01*
X107977059Y-56939234D01*
X107859234Y-57057059D01*
X107720687Y-57149633D01*
X107566742Y-57213399D01*
X107403315Y-57245907D01*
X107236685Y-57245907D01*
X107073258Y-57213399D01*
X106919313Y-57149633D01*
X106780766Y-57057059D01*
X106662941Y-56939234D01*
X106570367Y-56800687D01*
X106506601Y-56646742D01*
X106474093Y-56483315D01*
X106474093Y-56316685D01*
X106506601Y-56153258D01*
X106570367Y-55999313D01*
X106662941Y-55860766D01*
X106780766Y-55742941D01*
X106919313Y-55650367D01*
X107073258Y-55586601D01*
X107236685Y-55554093D01*
X107403315Y-55554093D01*
X107566742Y-55586601D01*
G37*
G36*
X110106742Y-55586601D02*
G01*
X110260687Y-55650367D01*
X110399234Y-55742941D01*
X110517059Y-55860766D01*
X110609633Y-55999313D01*
X110673399Y-56153258D01*
X110705907Y-56316685D01*
X110705907Y-56483315D01*
X110673399Y-56646742D01*
X110609633Y-56800687D01*
X110517059Y-56939234D01*
X110399234Y-57057059D01*
X110260687Y-57149633D01*
X110106742Y-57213399D01*
X109943315Y-57245907D01*
X109776685Y-57245907D01*
X109613258Y-57213399D01*
X109459313Y-57149633D01*
X109320766Y-57057059D01*
X109202941Y-56939234D01*
X109110367Y-56800687D01*
X109046601Y-56646742D01*
X109014093Y-56483315D01*
X109014093Y-56316685D01*
X109046601Y-56153258D01*
X109110367Y-55999313D01*
X109202941Y-55860766D01*
X109320766Y-55742941D01*
X109459313Y-55650367D01*
X109613258Y-55586601D01*
X109776685Y-55554093D01*
X109943315Y-55554093D01*
X110106742Y-55586601D01*
G37*
G36*
X117746742Y-55456601D02*
G01*
X117900687Y-55520367D01*
X118039234Y-55612941D01*
X118157059Y-55730766D01*
X118249633Y-55869313D01*
X118313399Y-56023258D01*
X118345907Y-56186685D01*
X118345907Y-56353315D01*
X118313399Y-56516742D01*
X118249633Y-56670687D01*
X118157059Y-56809234D01*
X118039234Y-56927059D01*
X117900687Y-57019633D01*
X117746742Y-57083399D01*
X117583315Y-57115907D01*
X117416685Y-57115907D01*
X117253258Y-57083399D01*
X117099313Y-57019633D01*
X116960766Y-56927059D01*
X116842941Y-56809234D01*
X116750367Y-56670687D01*
X116686601Y-56516742D01*
X116654093Y-56353315D01*
X116654093Y-56186685D01*
X116686601Y-56023258D01*
X116750367Y-55869313D01*
X116842941Y-55730766D01*
X116960766Y-55612941D01*
X117099313Y-55520367D01*
X117253258Y-55456601D01*
X117416685Y-55424093D01*
X117583315Y-55424093D01*
X117746742Y-55456601D01*
G37*
G36*
X140606742Y-55456601D02*
G01*
X140760687Y-55520367D01*
X140899234Y-55612941D01*
X141017059Y-55730766D01*
X141109633Y-55869313D01*
X141173399Y-56023258D01*
X141205907Y-56186685D01*
X141205907Y-56353315D01*
X141173399Y-56516742D01*
X141109633Y-56670687D01*
X141017059Y-56809234D01*
X140899234Y-56927059D01*
X140760687Y-57019633D01*
X140606742Y-57083399D01*
X140443315Y-57115907D01*
X140276685Y-57115907D01*
X140113258Y-57083399D01*
X139959313Y-57019633D01*
X139820766Y-56927059D01*
X139702941Y-56809234D01*
X139610367Y-56670687D01*
X139546601Y-56516742D01*
X139514093Y-56353315D01*
X139514093Y-56186685D01*
X139546601Y-56023258D01*
X139610367Y-55869313D01*
X139702941Y-55730766D01*
X139820766Y-55612941D01*
X139959313Y-55520367D01*
X140113258Y-55456601D01*
X140276685Y-55424093D01*
X140443315Y-55424093D01*
X140606742Y-55456601D01*
G37*
G36*
X117746742Y-52916601D02*
G01*
X117900687Y-52980367D01*
X118039234Y-53072941D01*
X118157059Y-53190766D01*
X118249633Y-53329313D01*
X118313399Y-53483258D01*
X118345907Y-53646685D01*
X118345907Y-53813315D01*
X118313399Y-53976742D01*
X118249633Y-54130687D01*
X118157059Y-54269234D01*
X118039234Y-54387059D01*
X117900687Y-54479633D01*
X117746742Y-54543399D01*
X117583315Y-54575907D01*
X117416685Y-54575907D01*
X117253258Y-54543399D01*
X117099313Y-54479633D01*
X116960766Y-54387059D01*
X116842941Y-54269234D01*
X116750367Y-54130687D01*
X116686601Y-53976742D01*
X116654093Y-53813315D01*
X116654093Y-53646685D01*
X116686601Y-53483258D01*
X116750367Y-53329313D01*
X116842941Y-53190766D01*
X116960766Y-53072941D01*
X117099313Y-52980367D01*
X117253258Y-52916601D01*
X117416685Y-52884093D01*
X117583315Y-52884093D01*
X117746742Y-52916601D01*
G37*
G36*
X140606742Y-52916601D02*
G01*
X140760687Y-52980367D01*
X140899234Y-53072941D01*
X141017059Y-53190766D01*
X141109633Y-53329313D01*
X141173399Y-53483258D01*
X141205907Y-53646685D01*
X141205907Y-53813315D01*
X141173399Y-53976742D01*
X141109633Y-54130687D01*
X141017059Y-54269234D01*
X140899234Y-54387059D01*
X140760687Y-54479633D01*
X140606742Y-54543399D01*
X140443315Y-54575907D01*
X140276685Y-54575907D01*
X140113258Y-54543399D01*
X139959313Y-54479633D01*
X139820766Y-54387059D01*
X139702941Y-54269234D01*
X139610367Y-54130687D01*
X139546601Y-53976742D01*
X139514093Y-53813315D01*
X139514093Y-53646685D01*
X139546601Y-53483258D01*
X139610367Y-53329313D01*
X139702941Y-53190766D01*
X139820766Y-53072941D01*
X139959313Y-52980367D01*
X140113258Y-52916601D01*
X140276685Y-52884093D01*
X140443315Y-52884093D01*
X140606742Y-52916601D01*
G37*
G36*
X38900000Y-53900000D02*
G01*
X37100000Y-53900000D01*
X37100000Y-52100000D01*
X38900000Y-52100000D01*
X38900000Y-53900000D01*
G37*
G36*
X40801256Y-52138754D02*
G01*
X40964257Y-52206271D01*
X41110954Y-52304291D01*
X41235709Y-52429046D01*
X41333729Y-52575743D01*
X41401246Y-52738744D01*
X41435666Y-52911785D01*
X41435666Y-53088215D01*
X41401246Y-53261256D01*
X41333729Y-53424257D01*
X41235709Y-53570954D01*
X41110954Y-53695709D01*
X40964257Y-53793729D01*
X40801256Y-53861246D01*
X40628215Y-53895666D01*
X40451785Y-53895666D01*
X40278744Y-53861246D01*
X40115743Y-53793729D01*
X39969046Y-53695709D01*
X39844291Y-53570954D01*
X39746271Y-53424257D01*
X39678754Y-53261256D01*
X39644334Y-53088215D01*
X39644334Y-52911785D01*
X39678754Y-52738744D01*
X39746271Y-52575743D01*
X39844291Y-52429046D01*
X39969046Y-52304291D01*
X40115743Y-52206271D01*
X40278744Y-52138754D01*
X40451785Y-52104334D01*
X40628215Y-52104334D01*
X40801256Y-52138754D01*
G37*
G36*
X117746742Y-50376601D02*
G01*
X117900687Y-50440367D01*
X118039234Y-50532941D01*
X118157059Y-50650766D01*
X118249633Y-50789313D01*
X118313399Y-50943258D01*
X118345907Y-51106685D01*
X118345907Y-51273315D01*
X118313399Y-51436742D01*
X118249633Y-51590687D01*
X118157059Y-51729234D01*
X118039234Y-51847059D01*
X117900687Y-51939633D01*
X117746742Y-52003399D01*
X117583315Y-52035907D01*
X117416685Y-52035907D01*
X117253258Y-52003399D01*
X117099313Y-51939633D01*
X116960766Y-51847059D01*
X116842941Y-51729234D01*
X116750367Y-51590687D01*
X116686601Y-51436742D01*
X116654093Y-51273315D01*
X116654093Y-51106685D01*
X116686601Y-50943258D01*
X116750367Y-50789313D01*
X116842941Y-50650766D01*
X116960766Y-50532941D01*
X117099313Y-50440367D01*
X117253258Y-50376601D01*
X117416685Y-50344093D01*
X117583315Y-50344093D01*
X117746742Y-50376601D01*
G37*
G36*
X140606742Y-50376601D02*
G01*
X140760687Y-50440367D01*
X140899234Y-50532941D01*
X141017059Y-50650766D01*
X141109633Y-50789313D01*
X141173399Y-50943258D01*
X141205907Y-51106685D01*
X141205907Y-51273315D01*
X141173399Y-51436742D01*
X141109633Y-51590687D01*
X141017059Y-51729234D01*
X140899234Y-51847059D01*
X140760687Y-51939633D01*
X140606742Y-52003399D01*
X140443315Y-52035907D01*
X140276685Y-52035907D01*
X140113258Y-52003399D01*
X139959313Y-51939633D01*
X139820766Y-51847059D01*
X139702941Y-51729234D01*
X139610367Y-51590687D01*
X139546601Y-51436742D01*
X139514093Y-51273315D01*
X139514093Y-51106685D01*
X139546601Y-50943258D01*
X139610367Y-50789313D01*
X139702941Y-50650766D01*
X139820766Y-50532941D01*
X139959313Y-50440367D01*
X140113258Y-50376601D01*
X140276685Y-50344093D01*
X140443315Y-50344093D01*
X140606742Y-50376601D01*
G37*
G36*
X117746742Y-47836601D02*
G01*
X117900687Y-47900367D01*
X118039234Y-47992941D01*
X118157059Y-48110766D01*
X118249633Y-48249313D01*
X118313399Y-48403258D01*
X118345907Y-48566685D01*
X118345907Y-48733315D01*
X118313399Y-48896742D01*
X118249633Y-49050687D01*
X118157059Y-49189234D01*
X118039234Y-49307059D01*
X117900687Y-49399633D01*
X117746742Y-49463399D01*
X117583315Y-49495907D01*
X117416685Y-49495907D01*
X117253258Y-49463399D01*
X117099313Y-49399633D01*
X116960766Y-49307059D01*
X116842941Y-49189234D01*
X116750367Y-49050687D01*
X116686601Y-48896742D01*
X116654093Y-48733315D01*
X116654093Y-48566685D01*
X116686601Y-48403258D01*
X116750367Y-48249313D01*
X116842941Y-48110766D01*
X116960766Y-47992941D01*
X117099313Y-47900367D01*
X117253258Y-47836601D01*
X117416685Y-47804093D01*
X117583315Y-47804093D01*
X117746742Y-47836601D01*
G37*
G36*
X140606742Y-47836601D02*
G01*
X140760687Y-47900367D01*
X140899234Y-47992941D01*
X141017059Y-48110766D01*
X141109633Y-48249313D01*
X141173399Y-48403258D01*
X141205907Y-48566685D01*
X141205907Y-48733315D01*
X141173399Y-48896742D01*
X141109633Y-49050687D01*
X141017059Y-49189234D01*
X140899234Y-49307059D01*
X140760687Y-49399633D01*
X140606742Y-49463399D01*
X140443315Y-49495907D01*
X140276685Y-49495907D01*
X140113258Y-49463399D01*
X139959313Y-49399633D01*
X139820766Y-49307059D01*
X139702941Y-49189234D01*
X139610367Y-49050687D01*
X139546601Y-48896742D01*
X139514093Y-48733315D01*
X139514093Y-48566685D01*
X139546601Y-48403258D01*
X139610367Y-48249313D01*
X139702941Y-48110766D01*
X139820766Y-47992941D01*
X139959313Y-47900367D01*
X140113258Y-47836601D01*
X140276685Y-47804093D01*
X140443315Y-47804093D01*
X140606742Y-47836601D01*
G37*
G36*
X117746742Y-45296601D02*
G01*
X117900687Y-45360367D01*
X118039234Y-45452941D01*
X118157059Y-45570766D01*
X118249633Y-45709313D01*
X118313399Y-45863258D01*
X118345907Y-46026685D01*
X118345907Y-46193315D01*
X118313399Y-46356742D01*
X118249633Y-46510687D01*
X118157059Y-46649234D01*
X118039234Y-46767059D01*
X117900687Y-46859633D01*
X117746742Y-46923399D01*
X117583315Y-46955907D01*
X117416685Y-46955907D01*
X117253258Y-46923399D01*
X117099313Y-46859633D01*
X116960766Y-46767059D01*
X116842941Y-46649234D01*
X116750367Y-46510687D01*
X116686601Y-46356742D01*
X116654093Y-46193315D01*
X116654093Y-46026685D01*
X116686601Y-45863258D01*
X116750367Y-45709313D01*
X116842941Y-45570766D01*
X116960766Y-45452941D01*
X117099313Y-45360367D01*
X117253258Y-45296601D01*
X117416685Y-45264093D01*
X117583315Y-45264093D01*
X117746742Y-45296601D01*
G37*
G36*
X140606742Y-45296601D02*
G01*
X140760687Y-45360367D01*
X140899234Y-45452941D01*
X141017059Y-45570766D01*
X141109633Y-45709313D01*
X141173399Y-45863258D01*
X141205907Y-46026685D01*
X141205907Y-46193315D01*
X141173399Y-46356742D01*
X141109633Y-46510687D01*
X141017059Y-46649234D01*
X140899234Y-46767059D01*
X140760687Y-46859633D01*
X140606742Y-46923399D01*
X140443315Y-46955907D01*
X140276685Y-46955907D01*
X140113258Y-46923399D01*
X139959313Y-46859633D01*
X139820766Y-46767059D01*
X139702941Y-46649234D01*
X139610367Y-46510687D01*
X139546601Y-46356742D01*
X139514093Y-46193315D01*
X139514093Y-46026685D01*
X139546601Y-45863258D01*
X139610367Y-45709313D01*
X139702941Y-45570766D01*
X139820766Y-45452941D01*
X139959313Y-45360367D01*
X140113258Y-45296601D01*
X140276685Y-45264093D01*
X140443315Y-45264093D01*
X140606742Y-45296601D01*
G37*
G36*
X99554047Y-43462805D02*
G01*
X99605408Y-43468764D01*
X99622954Y-43476511D01*
X99645671Y-43481030D01*
X99669991Y-43497280D01*
X99690793Y-43506465D01*
X99705000Y-43520672D01*
X99726777Y-43535223D01*
X99741327Y-43556999D01*
X99755534Y-43571206D01*
X99764718Y-43592006D01*
X99780970Y-43616329D01*
X99785489Y-43639048D01*
X99793235Y-43656591D01*
X99799192Y-43707940D01*
X99800000Y-43712000D01*
X99800000Y-44537000D01*
X99799192Y-44541059D01*
X99793235Y-44592408D01*
X99785489Y-44609950D01*
X99780970Y-44632671D01*
X99764716Y-44656995D01*
X99755534Y-44677793D01*
X99741329Y-44691997D01*
X99726777Y-44713777D01*
X99704997Y-44728329D01*
X99690793Y-44742534D01*
X99669995Y-44751716D01*
X99645671Y-44767970D01*
X99622950Y-44772489D01*
X99605408Y-44780235D01*
X99554061Y-44786192D01*
X99550000Y-44787000D01*
X98250000Y-44787000D01*
X98245941Y-44786192D01*
X98194591Y-44780235D01*
X98177048Y-44772489D01*
X98154329Y-44767970D01*
X98130006Y-44751718D01*
X98109206Y-44742534D01*
X98094999Y-44728327D01*
X98073223Y-44713777D01*
X98058672Y-44692000D01*
X98044465Y-44677793D01*
X98035280Y-44656991D01*
X98019030Y-44632671D01*
X98014511Y-44609954D01*
X98006764Y-44592408D01*
X98000805Y-44541049D01*
X98000000Y-44537000D01*
X98000000Y-43712000D01*
X98000804Y-43707953D01*
X98006764Y-43656591D01*
X98014511Y-43639043D01*
X98019030Y-43616329D01*
X98035278Y-43592010D01*
X98044465Y-43571206D01*
X98058674Y-43556996D01*
X98073223Y-43535223D01*
X98094996Y-43520674D01*
X98109206Y-43506465D01*
X98130010Y-43497278D01*
X98154329Y-43481030D01*
X98177043Y-43476511D01*
X98194591Y-43468764D01*
X98245952Y-43462805D01*
X98250000Y-43462000D01*
X99550000Y-43462000D01*
X99554047Y-43462805D01*
G37*
G36*
X117746742Y-42756601D02*
G01*
X117900687Y-42820367D01*
X118039234Y-42912941D01*
X118157059Y-43030766D01*
X118249633Y-43169313D01*
X118313399Y-43323258D01*
X118345907Y-43486685D01*
X118345907Y-43653315D01*
X118313399Y-43816742D01*
X118249633Y-43970687D01*
X118157059Y-44109234D01*
X118039234Y-44227059D01*
X117900687Y-44319633D01*
X117746742Y-44383399D01*
X117583315Y-44415907D01*
X117416685Y-44415907D01*
X117253258Y-44383399D01*
X117099313Y-44319633D01*
X116960766Y-44227059D01*
X116842941Y-44109234D01*
X116750367Y-43970687D01*
X116686601Y-43816742D01*
X116654093Y-43653315D01*
X116654093Y-43486685D01*
X116686601Y-43323258D01*
X116750367Y-43169313D01*
X116842941Y-43030766D01*
X116960766Y-42912941D01*
X117099313Y-42820367D01*
X117253258Y-42756601D01*
X117416685Y-42724093D01*
X117583315Y-42724093D01*
X117746742Y-42756601D01*
G37*
G36*
X140606742Y-42756601D02*
G01*
X140760687Y-42820367D01*
X140899234Y-42912941D01*
X141017059Y-43030766D01*
X141109633Y-43169313D01*
X141173399Y-43323258D01*
X141205907Y-43486685D01*
X141205907Y-43653315D01*
X141173399Y-43816742D01*
X141109633Y-43970687D01*
X141017059Y-44109234D01*
X140899234Y-44227059D01*
X140760687Y-44319633D01*
X140606742Y-44383399D01*
X140443315Y-44415907D01*
X140276685Y-44415907D01*
X140113258Y-44383399D01*
X139959313Y-44319633D01*
X139820766Y-44227059D01*
X139702941Y-44109234D01*
X139610367Y-43970687D01*
X139546601Y-43816742D01*
X139514093Y-43653315D01*
X139514093Y-43486685D01*
X139546601Y-43323258D01*
X139610367Y-43169313D01*
X139702941Y-43030766D01*
X139820766Y-42912941D01*
X139959313Y-42820367D01*
X140113258Y-42756601D01*
X140276685Y-42724093D01*
X140443315Y-42724093D01*
X140606742Y-42756601D01*
G37*
G36*
X117746742Y-40216601D02*
G01*
X117900687Y-40280367D01*
X118039234Y-40372941D01*
X118157059Y-40490766D01*
X118249633Y-40629313D01*
X118313399Y-40783258D01*
X118345907Y-40946685D01*
X118345907Y-41113315D01*
X118313399Y-41276742D01*
X118249633Y-41430687D01*
X118157059Y-41569234D01*
X118039234Y-41687059D01*
X117900687Y-41779633D01*
X117746742Y-41843399D01*
X117583315Y-41875907D01*
X117416685Y-41875907D01*
X117253258Y-41843399D01*
X117099313Y-41779633D01*
X116960766Y-41687059D01*
X116842941Y-41569234D01*
X116750367Y-41430687D01*
X116686601Y-41276742D01*
X116654093Y-41113315D01*
X116654093Y-40946685D01*
X116686601Y-40783258D01*
X116750367Y-40629313D01*
X116842941Y-40490766D01*
X116960766Y-40372941D01*
X117099313Y-40280367D01*
X117253258Y-40216601D01*
X117416685Y-40184093D01*
X117583315Y-40184093D01*
X117746742Y-40216601D01*
G37*
G36*
X140606742Y-40216601D02*
G01*
X140760687Y-40280367D01*
X140899234Y-40372941D01*
X141017059Y-40490766D01*
X141109633Y-40629313D01*
X141173399Y-40783258D01*
X141205907Y-40946685D01*
X141205907Y-41113315D01*
X141173399Y-41276742D01*
X141109633Y-41430687D01*
X141017059Y-41569234D01*
X140899234Y-41687059D01*
X140760687Y-41779633D01*
X140606742Y-41843399D01*
X140443315Y-41875907D01*
X140276685Y-41875907D01*
X140113258Y-41843399D01*
X139959313Y-41779633D01*
X139820766Y-41687059D01*
X139702941Y-41569234D01*
X139610367Y-41430687D01*
X139546601Y-41276742D01*
X139514093Y-41113315D01*
X139514093Y-40946685D01*
X139546601Y-40783258D01*
X139610367Y-40629313D01*
X139702941Y-40490766D01*
X139820766Y-40372941D01*
X139959313Y-40280367D01*
X140113258Y-40216601D01*
X140276685Y-40184093D01*
X140443315Y-40184093D01*
X140606742Y-40216601D01*
G37*
G36*
X99554047Y-40337805D02*
G01*
X99605408Y-40343764D01*
X99622954Y-40351511D01*
X99645671Y-40356030D01*
X99669991Y-40372280D01*
X99690793Y-40381465D01*
X99705000Y-40395672D01*
X99726777Y-40410223D01*
X99741327Y-40431999D01*
X99755534Y-40446206D01*
X99764718Y-40467006D01*
X99780970Y-40491329D01*
X99785489Y-40514048D01*
X99793235Y-40531591D01*
X99799192Y-40582940D01*
X99800000Y-40587000D01*
X99800000Y-41412000D01*
X99799192Y-41416059D01*
X99793235Y-41467408D01*
X99785489Y-41484950D01*
X99780970Y-41507671D01*
X99764716Y-41531995D01*
X99755534Y-41552793D01*
X99741329Y-41566997D01*
X99726777Y-41588777D01*
X99704997Y-41603329D01*
X99690793Y-41617534D01*
X99669995Y-41626716D01*
X99645671Y-41642970D01*
X99622950Y-41647489D01*
X99605408Y-41655235D01*
X99554061Y-41661192D01*
X99550000Y-41662000D01*
X98250000Y-41662000D01*
X98245941Y-41661192D01*
X98194591Y-41655235D01*
X98177048Y-41647489D01*
X98154329Y-41642970D01*
X98130006Y-41626718D01*
X98109206Y-41617534D01*
X98094999Y-41603327D01*
X98073223Y-41588777D01*
X98058672Y-41567000D01*
X98044465Y-41552793D01*
X98035280Y-41531991D01*
X98019030Y-41507671D01*
X98014511Y-41484954D01*
X98006764Y-41467408D01*
X98000805Y-41416049D01*
X98000000Y-41412000D01*
X98000000Y-40587000D01*
X98000804Y-40582953D01*
X98006764Y-40531591D01*
X98014511Y-40514043D01*
X98019030Y-40491329D01*
X98035278Y-40467010D01*
X98044465Y-40446206D01*
X98058674Y-40431996D01*
X98073223Y-40410223D01*
X98094996Y-40395674D01*
X98109206Y-40381465D01*
X98130010Y-40372278D01*
X98154329Y-40356030D01*
X98177043Y-40351511D01*
X98194591Y-40343764D01*
X98245952Y-40337805D01*
X98250000Y-40337000D01*
X99550000Y-40337000D01*
X99554047Y-40337805D01*
G37*
G36*
X13246742Y-38266601D02*
G01*
X13400687Y-38330367D01*
X13539234Y-38422941D01*
X13657059Y-38540766D01*
X13749633Y-38679313D01*
X13813399Y-38833258D01*
X13845907Y-38996685D01*
X13845907Y-39163315D01*
X13813399Y-39326742D01*
X13749633Y-39480687D01*
X13657059Y-39619234D01*
X13539234Y-39737059D01*
X13400687Y-39829633D01*
X13246742Y-39893399D01*
X13083315Y-39925907D01*
X12916685Y-39925907D01*
X12753258Y-39893399D01*
X12599313Y-39829633D01*
X12460766Y-39737059D01*
X12342941Y-39619234D01*
X12250367Y-39480687D01*
X12186601Y-39326742D01*
X12154093Y-39163315D01*
X12154093Y-38996685D01*
X12186601Y-38833258D01*
X12250367Y-38679313D01*
X12342941Y-38540766D01*
X12460766Y-38422941D01*
X12599313Y-38330367D01*
X12753258Y-38266601D01*
X12916685Y-38234093D01*
X13083315Y-38234093D01*
X13246742Y-38266601D01*
G37*
G36*
X27246742Y-38266601D02*
G01*
X27400687Y-38330367D01*
X27539234Y-38422941D01*
X27657059Y-38540766D01*
X27749633Y-38679313D01*
X27813399Y-38833258D01*
X27845907Y-38996685D01*
X27845907Y-39163315D01*
X27813399Y-39326742D01*
X27749633Y-39480687D01*
X27657059Y-39619234D01*
X27539234Y-39737059D01*
X27400687Y-39829633D01*
X27246742Y-39893399D01*
X27083315Y-39925907D01*
X26916685Y-39925907D01*
X26753258Y-39893399D01*
X26599313Y-39829633D01*
X26460766Y-39737059D01*
X26342941Y-39619234D01*
X26250367Y-39480687D01*
X26186601Y-39326742D01*
X26154093Y-39163315D01*
X26154093Y-38996685D01*
X26186601Y-38833258D01*
X26250367Y-38679313D01*
X26342941Y-38540766D01*
X26460766Y-38422941D01*
X26599313Y-38330367D01*
X26753258Y-38266601D01*
X26916685Y-38234093D01*
X27083315Y-38234093D01*
X27246742Y-38266601D01*
G37*
G36*
X93554047Y-38462805D02*
G01*
X93605408Y-38468764D01*
X93622954Y-38476511D01*
X93645671Y-38481030D01*
X93669991Y-38497280D01*
X93690793Y-38506465D01*
X93705000Y-38520672D01*
X93726777Y-38535223D01*
X93741327Y-38556999D01*
X93755534Y-38571206D01*
X93764718Y-38592006D01*
X93780970Y-38616329D01*
X93785489Y-38639048D01*
X93793235Y-38656591D01*
X93799192Y-38707940D01*
X93800000Y-38712000D01*
X93800000Y-39537000D01*
X93799192Y-39541059D01*
X93793235Y-39592408D01*
X93785489Y-39609950D01*
X93780970Y-39632671D01*
X93764716Y-39656995D01*
X93755534Y-39677793D01*
X93741329Y-39691997D01*
X93726777Y-39713777D01*
X93704997Y-39728329D01*
X93690793Y-39742534D01*
X93669995Y-39751716D01*
X93645671Y-39767970D01*
X93622950Y-39772489D01*
X93605408Y-39780235D01*
X93554061Y-39786192D01*
X93550000Y-39787000D01*
X92250000Y-39787000D01*
X92245941Y-39786192D01*
X92194591Y-39780235D01*
X92177048Y-39772489D01*
X92154329Y-39767970D01*
X92130006Y-39751718D01*
X92109206Y-39742534D01*
X92094999Y-39728327D01*
X92073223Y-39713777D01*
X92058672Y-39692000D01*
X92044465Y-39677793D01*
X92035280Y-39656991D01*
X92019030Y-39632671D01*
X92014511Y-39609954D01*
X92006764Y-39592408D01*
X92000805Y-39541049D01*
X92000000Y-39537000D01*
X92000000Y-38712000D01*
X92000804Y-38707953D01*
X92006764Y-38656591D01*
X92014511Y-38639043D01*
X92019030Y-38616329D01*
X92035278Y-38592010D01*
X92044465Y-38571206D01*
X92058674Y-38556996D01*
X92073223Y-38535223D01*
X92094996Y-38520674D01*
X92109206Y-38506465D01*
X92130010Y-38497278D01*
X92154329Y-38481030D01*
X92177043Y-38476511D01*
X92194591Y-38468764D01*
X92245952Y-38462805D01*
X92250000Y-38462000D01*
X93550000Y-38462000D01*
X93554047Y-38462805D01*
G37*
G36*
X95904047Y-38462805D02*
G01*
X95955408Y-38468764D01*
X95972954Y-38476511D01*
X95995671Y-38481030D01*
X96019991Y-38497280D01*
X96040793Y-38506465D01*
X96055000Y-38520672D01*
X96076777Y-38535223D01*
X96091327Y-38556999D01*
X96105534Y-38571206D01*
X96114718Y-38592006D01*
X96130970Y-38616329D01*
X96135489Y-38639048D01*
X96143235Y-38656591D01*
X96149192Y-38707940D01*
X96150000Y-38712000D01*
X96150000Y-39537000D01*
X96149192Y-39541059D01*
X96143235Y-39592408D01*
X96135489Y-39609950D01*
X96130970Y-39632671D01*
X96114716Y-39656995D01*
X96105534Y-39677793D01*
X96091329Y-39691997D01*
X96076777Y-39713777D01*
X96054997Y-39728329D01*
X96040793Y-39742534D01*
X96019995Y-39751716D01*
X95995671Y-39767970D01*
X95972950Y-39772489D01*
X95955408Y-39780235D01*
X95904061Y-39786192D01*
X95900000Y-39787000D01*
X94600000Y-39787000D01*
X94595941Y-39786192D01*
X94544591Y-39780235D01*
X94527048Y-39772489D01*
X94504329Y-39767970D01*
X94480006Y-39751718D01*
X94459206Y-39742534D01*
X94444999Y-39728327D01*
X94423223Y-39713777D01*
X94408672Y-39692000D01*
X94394465Y-39677793D01*
X94385280Y-39656991D01*
X94369030Y-39632671D01*
X94364511Y-39609954D01*
X94356764Y-39592408D01*
X94350805Y-39541049D01*
X94350000Y-39537000D01*
X94350000Y-38712000D01*
X94350804Y-38707953D01*
X94356764Y-38656591D01*
X94364511Y-38639043D01*
X94369030Y-38616329D01*
X94385278Y-38592010D01*
X94394465Y-38571206D01*
X94408674Y-38556996D01*
X94423223Y-38535223D01*
X94444996Y-38520674D01*
X94459206Y-38506465D01*
X94480010Y-38497278D01*
X94504329Y-38481030D01*
X94527043Y-38476511D01*
X94544591Y-38468764D01*
X94595952Y-38462805D01*
X94600000Y-38462000D01*
X95900000Y-38462000D01*
X95904047Y-38462805D01*
G37*
G36*
X98254047Y-38462805D02*
G01*
X98305408Y-38468764D01*
X98322954Y-38476511D01*
X98345671Y-38481030D01*
X98369991Y-38497280D01*
X98390793Y-38506465D01*
X98405000Y-38520672D01*
X98426777Y-38535223D01*
X98441327Y-38556999D01*
X98455534Y-38571206D01*
X98464718Y-38592006D01*
X98480970Y-38616329D01*
X98485489Y-38639048D01*
X98493235Y-38656591D01*
X98499192Y-38707940D01*
X98500000Y-38712000D01*
X98500000Y-39537000D01*
X98499192Y-39541059D01*
X98493235Y-39592408D01*
X98485489Y-39609950D01*
X98480970Y-39632671D01*
X98464716Y-39656995D01*
X98455534Y-39677793D01*
X98441329Y-39691997D01*
X98426777Y-39713777D01*
X98404997Y-39728329D01*
X98390793Y-39742534D01*
X98369995Y-39751716D01*
X98345671Y-39767970D01*
X98322950Y-39772489D01*
X98305408Y-39780235D01*
X98254061Y-39786192D01*
X98250000Y-39787000D01*
X96950000Y-39787000D01*
X96945941Y-39786192D01*
X96894591Y-39780235D01*
X96877048Y-39772489D01*
X96854329Y-39767970D01*
X96830006Y-39751718D01*
X96809206Y-39742534D01*
X96794999Y-39728327D01*
X96773223Y-39713777D01*
X96758672Y-39692000D01*
X96744465Y-39677793D01*
X96735280Y-39656991D01*
X96719030Y-39632671D01*
X96714511Y-39609954D01*
X96706764Y-39592408D01*
X96700805Y-39541049D01*
X96700000Y-39537000D01*
X96700000Y-38712000D01*
X96700804Y-38707953D01*
X96706764Y-38656591D01*
X96714511Y-38639043D01*
X96719030Y-38616329D01*
X96735278Y-38592010D01*
X96744465Y-38571206D01*
X96758674Y-38556996D01*
X96773223Y-38535223D01*
X96794996Y-38520674D01*
X96809206Y-38506465D01*
X96830010Y-38497278D01*
X96854329Y-38481030D01*
X96877043Y-38476511D01*
X96894591Y-38468764D01*
X96945952Y-38462805D01*
X96950000Y-38462000D01*
X98250000Y-38462000D01*
X98254047Y-38462805D01*
G37*
G36*
X117746742Y-37676601D02*
G01*
X117900687Y-37740367D01*
X118039234Y-37832941D01*
X118157059Y-37950766D01*
X118249633Y-38089313D01*
X118313399Y-38243258D01*
X118345907Y-38406685D01*
X118345907Y-38573315D01*
X118313399Y-38736742D01*
X118249633Y-38890687D01*
X118157059Y-39029234D01*
X118039234Y-39147059D01*
X117900687Y-39239633D01*
X117746742Y-39303399D01*
X117583315Y-39335907D01*
X117416685Y-39335907D01*
X117253258Y-39303399D01*
X117099313Y-39239633D01*
X116960766Y-39147059D01*
X116842941Y-39029234D01*
X116750367Y-38890687D01*
X116686601Y-38736742D01*
X116654093Y-38573315D01*
X116654093Y-38406685D01*
X116686601Y-38243258D01*
X116750367Y-38089313D01*
X116842941Y-37950766D01*
X116960766Y-37832941D01*
X117099313Y-37740367D01*
X117253258Y-37676601D01*
X117416685Y-37644093D01*
X117583315Y-37644093D01*
X117746742Y-37676601D01*
G37*
G36*
X140606742Y-37676601D02*
G01*
X140760687Y-37740367D01*
X140899234Y-37832941D01*
X141017059Y-37950766D01*
X141109633Y-38089313D01*
X141173399Y-38243258D01*
X141205907Y-38406685D01*
X141205907Y-38573315D01*
X141173399Y-38736742D01*
X141109633Y-38890687D01*
X141017059Y-39029234D01*
X140899234Y-39147059D01*
X140760687Y-39239633D01*
X140606742Y-39303399D01*
X140443315Y-39335907D01*
X140276685Y-39335907D01*
X140113258Y-39303399D01*
X139959313Y-39239633D01*
X139820766Y-39147059D01*
X139702941Y-39029234D01*
X139610367Y-38890687D01*
X139546601Y-38736742D01*
X139514093Y-38573315D01*
X139514093Y-38406685D01*
X139546601Y-38243258D01*
X139610367Y-38089313D01*
X139702941Y-37950766D01*
X139820766Y-37832941D01*
X139959313Y-37740367D01*
X140113258Y-37676601D01*
X140276685Y-37644093D01*
X140443315Y-37644093D01*
X140606742Y-37676601D01*
G37*
G36*
X13246742Y-35726601D02*
G01*
X13400687Y-35790367D01*
X13539234Y-35882941D01*
X13657059Y-36000766D01*
X13749633Y-36139313D01*
X13813399Y-36293258D01*
X13845907Y-36456685D01*
X13845907Y-36623315D01*
X13813399Y-36786742D01*
X13749633Y-36940687D01*
X13657059Y-37079234D01*
X13539234Y-37197059D01*
X13400687Y-37289633D01*
X13246742Y-37353399D01*
X13083315Y-37385907D01*
X12916685Y-37385907D01*
X12753258Y-37353399D01*
X12599313Y-37289633D01*
X12460766Y-37197059D01*
X12342941Y-37079234D01*
X12250367Y-36940687D01*
X12186601Y-36786742D01*
X12154093Y-36623315D01*
X12154093Y-36456685D01*
X12186601Y-36293258D01*
X12250367Y-36139313D01*
X12342941Y-36000766D01*
X12460766Y-35882941D01*
X12599313Y-35790367D01*
X12753258Y-35726601D01*
X12916685Y-35694093D01*
X13083315Y-35694093D01*
X13246742Y-35726601D01*
G37*
G36*
X27246742Y-35726601D02*
G01*
X27400687Y-35790367D01*
X27539234Y-35882941D01*
X27657059Y-36000766D01*
X27749633Y-36139313D01*
X27813399Y-36293258D01*
X27845907Y-36456685D01*
X27845907Y-36623315D01*
X27813399Y-36786742D01*
X27749633Y-36940687D01*
X27657059Y-37079234D01*
X27539234Y-37197059D01*
X27400687Y-37289633D01*
X27246742Y-37353399D01*
X27083315Y-37385907D01*
X26916685Y-37385907D01*
X26753258Y-37353399D01*
X26599313Y-37289633D01*
X26460766Y-37197059D01*
X26342941Y-37079234D01*
X26250367Y-36940687D01*
X26186601Y-36786742D01*
X26154093Y-36623315D01*
X26154093Y-36456685D01*
X26186601Y-36293258D01*
X26250367Y-36139313D01*
X26342941Y-36000766D01*
X26460766Y-35882941D01*
X26599313Y-35790367D01*
X26753258Y-35726601D01*
X26916685Y-35694093D01*
X27083315Y-35694093D01*
X27246742Y-35726601D01*
G37*
G36*
X117746742Y-35136601D02*
G01*
X117900687Y-35200367D01*
X118039234Y-35292941D01*
X118157059Y-35410766D01*
X118249633Y-35549313D01*
X118313399Y-35703258D01*
X118345907Y-35866685D01*
X118345907Y-36033315D01*
X118313399Y-36196742D01*
X118249633Y-36350687D01*
X118157059Y-36489234D01*
X118039234Y-36607059D01*
X117900687Y-36699633D01*
X117746742Y-36763399D01*
X117583315Y-36795907D01*
X117416685Y-36795907D01*
X117253258Y-36763399D01*
X117099313Y-36699633D01*
X116960766Y-36607059D01*
X116842941Y-36489234D01*
X116750367Y-36350687D01*
X116686601Y-36196742D01*
X116654093Y-36033315D01*
X116654093Y-35866685D01*
X116686601Y-35703258D01*
X116750367Y-35549313D01*
X116842941Y-35410766D01*
X116960766Y-35292941D01*
X117099313Y-35200367D01*
X117253258Y-35136601D01*
X117416685Y-35104093D01*
X117583315Y-35104093D01*
X117746742Y-35136601D01*
G37*
G36*
X140606742Y-35136601D02*
G01*
X140760687Y-35200367D01*
X140899234Y-35292941D01*
X141017059Y-35410766D01*
X141109633Y-35549313D01*
X141173399Y-35703258D01*
X141205907Y-35866685D01*
X141205907Y-36033315D01*
X141173399Y-36196742D01*
X141109633Y-36350687D01*
X141017059Y-36489234D01*
X140899234Y-36607059D01*
X140760687Y-36699633D01*
X140606742Y-36763399D01*
X140443315Y-36795907D01*
X140276685Y-36795907D01*
X140113258Y-36763399D01*
X139959313Y-36699633D01*
X139820766Y-36607059D01*
X139702941Y-36489234D01*
X139610367Y-36350687D01*
X139546601Y-36196742D01*
X139514093Y-36033315D01*
X139514093Y-35866685D01*
X139546601Y-35703258D01*
X139610367Y-35549313D01*
X139702941Y-35410766D01*
X139820766Y-35292941D01*
X139959313Y-35200367D01*
X140113258Y-35136601D01*
X140276685Y-35104093D01*
X140443315Y-35104093D01*
X140606742Y-35136601D01*
G37*
G36*
X93554047Y-35337805D02*
G01*
X93605408Y-35343764D01*
X93622954Y-35351511D01*
X93645671Y-35356030D01*
X93669991Y-35372280D01*
X93690793Y-35381465D01*
X93705000Y-35395672D01*
X93726777Y-35410223D01*
X93741327Y-35431999D01*
X93755534Y-35446206D01*
X93764718Y-35467006D01*
X93780970Y-35491329D01*
X93785489Y-35514048D01*
X93793235Y-35531591D01*
X93799192Y-35582940D01*
X93800000Y-35587000D01*
X93800000Y-36412000D01*
X93799192Y-36416059D01*
X93793235Y-36467408D01*
X93785489Y-36484950D01*
X93780970Y-36507671D01*
X93764716Y-36531995D01*
X93755534Y-36552793D01*
X93741329Y-36566997D01*
X93726777Y-36588777D01*
X93704997Y-36603329D01*
X93690793Y-36617534D01*
X93669995Y-36626716D01*
X93645671Y-36642970D01*
X93622950Y-36647489D01*
X93605408Y-36655235D01*
X93554061Y-36661192D01*
X93550000Y-36662000D01*
X92250000Y-36662000D01*
X92245941Y-36661192D01*
X92194591Y-36655235D01*
X92177048Y-36647489D01*
X92154329Y-36642970D01*
X92130006Y-36626718D01*
X92109206Y-36617534D01*
X92094999Y-36603327D01*
X92073223Y-36588777D01*
X92058672Y-36567000D01*
X92044465Y-36552793D01*
X92035280Y-36531991D01*
X92019030Y-36507671D01*
X92014511Y-36484954D01*
X92006764Y-36467408D01*
X92000805Y-36416049D01*
X92000000Y-36412000D01*
X92000000Y-35587000D01*
X92000804Y-35582953D01*
X92006764Y-35531591D01*
X92014511Y-35514043D01*
X92019030Y-35491329D01*
X92035278Y-35467010D01*
X92044465Y-35446206D01*
X92058674Y-35431996D01*
X92073223Y-35410223D01*
X92094996Y-35395674D01*
X92109206Y-35381465D01*
X92130010Y-35372278D01*
X92154329Y-35356030D01*
X92177043Y-35351511D01*
X92194591Y-35343764D01*
X92245952Y-35337805D01*
X92250000Y-35337000D01*
X93550000Y-35337000D01*
X93554047Y-35337805D01*
G37*
G36*
X95904047Y-35337805D02*
G01*
X95955408Y-35343764D01*
X95972954Y-35351511D01*
X95995671Y-35356030D01*
X96019991Y-35372280D01*
X96040793Y-35381465D01*
X96055000Y-35395672D01*
X96076777Y-35410223D01*
X96091327Y-35431999D01*
X96105534Y-35446206D01*
X96114718Y-35467006D01*
X96130970Y-35491329D01*
X96135489Y-35514048D01*
X96143235Y-35531591D01*
X96149192Y-35582940D01*
X96150000Y-35587000D01*
X96150000Y-36412000D01*
X96149192Y-36416059D01*
X96143235Y-36467408D01*
X96135489Y-36484950D01*
X96130970Y-36507671D01*
X96114716Y-36531995D01*
X96105534Y-36552793D01*
X96091329Y-36566997D01*
X96076777Y-36588777D01*
X96054997Y-36603329D01*
X96040793Y-36617534D01*
X96019995Y-36626716D01*
X95995671Y-36642970D01*
X95972950Y-36647489D01*
X95955408Y-36655235D01*
X95904061Y-36661192D01*
X95900000Y-36662000D01*
X94600000Y-36662000D01*
X94595941Y-36661192D01*
X94544591Y-36655235D01*
X94527048Y-36647489D01*
X94504329Y-36642970D01*
X94480006Y-36626718D01*
X94459206Y-36617534D01*
X94444999Y-36603327D01*
X94423223Y-36588777D01*
X94408672Y-36567000D01*
X94394465Y-36552793D01*
X94385280Y-36531991D01*
X94369030Y-36507671D01*
X94364511Y-36484954D01*
X94356764Y-36467408D01*
X94350805Y-36416049D01*
X94350000Y-36412000D01*
X94350000Y-35587000D01*
X94350804Y-35582953D01*
X94356764Y-35531591D01*
X94364511Y-35514043D01*
X94369030Y-35491329D01*
X94385278Y-35467010D01*
X94394465Y-35446206D01*
X94408674Y-35431996D01*
X94423223Y-35410223D01*
X94444996Y-35395674D01*
X94459206Y-35381465D01*
X94480010Y-35372278D01*
X94504329Y-35356030D01*
X94527043Y-35351511D01*
X94544591Y-35343764D01*
X94595952Y-35337805D01*
X94600000Y-35337000D01*
X95900000Y-35337000D01*
X95904047Y-35337805D01*
G37*
G36*
X98254047Y-35337805D02*
G01*
X98305408Y-35343764D01*
X98322954Y-35351511D01*
X98345671Y-35356030D01*
X98369991Y-35372280D01*
X98390793Y-35381465D01*
X98405000Y-35395672D01*
X98426777Y-35410223D01*
X98441327Y-35431999D01*
X98455534Y-35446206D01*
X98464718Y-35467006D01*
X98480970Y-35491329D01*
X98485489Y-35514048D01*
X98493235Y-35531591D01*
X98499192Y-35582940D01*
X98500000Y-35587000D01*
X98500000Y-36412000D01*
X98499192Y-36416059D01*
X98493235Y-36467408D01*
X98485489Y-36484950D01*
X98480970Y-36507671D01*
X98464716Y-36531995D01*
X98455534Y-36552793D01*
X98441329Y-36566997D01*
X98426777Y-36588777D01*
X98404997Y-36603329D01*
X98390793Y-36617534D01*
X98369995Y-36626716D01*
X98345671Y-36642970D01*
X98322950Y-36647489D01*
X98305408Y-36655235D01*
X98254061Y-36661192D01*
X98250000Y-36662000D01*
X96950000Y-36662000D01*
X96945941Y-36661192D01*
X96894591Y-36655235D01*
X96877048Y-36647489D01*
X96854329Y-36642970D01*
X96830006Y-36626718D01*
X96809206Y-36617534D01*
X96794999Y-36603327D01*
X96773223Y-36588777D01*
X96758672Y-36567000D01*
X96744465Y-36552793D01*
X96735280Y-36531991D01*
X96719030Y-36507671D01*
X96714511Y-36484954D01*
X96706764Y-36467408D01*
X96700805Y-36416049D01*
X96700000Y-36412000D01*
X96700000Y-35587000D01*
X96700804Y-35582953D01*
X96706764Y-35531591D01*
X96714511Y-35514043D01*
X96719030Y-35491329D01*
X96735278Y-35467010D01*
X96744465Y-35446206D01*
X96758674Y-35431996D01*
X96773223Y-35410223D01*
X96794996Y-35395674D01*
X96809206Y-35381465D01*
X96830010Y-35372278D01*
X96854329Y-35356030D01*
X96877043Y-35351511D01*
X96894591Y-35343764D01*
X96945952Y-35337805D01*
X96950000Y-35337000D01*
X98250000Y-35337000D01*
X98254047Y-35337805D01*
G37*
G36*
X13604047Y-33150805D02*
G01*
X13655408Y-33156764D01*
X13672954Y-33164511D01*
X13695671Y-33169030D01*
X13719991Y-33185280D01*
X13740793Y-33194465D01*
X13755000Y-33208672D01*
X13776777Y-33223223D01*
X13791327Y-33244999D01*
X13805534Y-33259206D01*
X13814718Y-33280006D01*
X13830970Y-33304329D01*
X13835489Y-33327048D01*
X13843235Y-33344591D01*
X13849192Y-33395940D01*
X13850000Y-33400000D01*
X13850000Y-34600000D01*
X13849192Y-34604059D01*
X13843235Y-34655408D01*
X13835489Y-34672950D01*
X13830970Y-34695671D01*
X13814716Y-34719995D01*
X13805534Y-34740793D01*
X13791329Y-34754997D01*
X13776777Y-34776777D01*
X13754997Y-34791329D01*
X13740793Y-34805534D01*
X13719995Y-34814716D01*
X13695671Y-34830970D01*
X13672950Y-34835489D01*
X13655408Y-34843235D01*
X13604061Y-34849192D01*
X13600000Y-34850000D01*
X12400000Y-34850000D01*
X12395941Y-34849192D01*
X12344591Y-34843235D01*
X12327048Y-34835489D01*
X12304329Y-34830970D01*
X12280006Y-34814718D01*
X12259206Y-34805534D01*
X12244999Y-34791327D01*
X12223223Y-34776777D01*
X12208672Y-34755000D01*
X12194465Y-34740793D01*
X12185280Y-34719991D01*
X12169030Y-34695671D01*
X12164511Y-34672954D01*
X12156764Y-34655408D01*
X12150805Y-34604049D01*
X12150000Y-34600000D01*
X12150000Y-33400000D01*
X12150804Y-33395953D01*
X12156764Y-33344591D01*
X12164511Y-33327043D01*
X12169030Y-33304329D01*
X12185278Y-33280010D01*
X12194465Y-33259206D01*
X12208674Y-33244996D01*
X12223223Y-33223223D01*
X12244996Y-33208674D01*
X12259206Y-33194465D01*
X12280010Y-33185278D01*
X12304329Y-33169030D01*
X12327043Y-33164511D01*
X12344591Y-33156764D01*
X12395952Y-33150805D01*
X12400000Y-33150000D01*
X13600000Y-33150000D01*
X13604047Y-33150805D01*
G37*
G36*
X27604047Y-33150805D02*
G01*
X27655408Y-33156764D01*
X27672954Y-33164511D01*
X27695671Y-33169030D01*
X27719991Y-33185280D01*
X27740793Y-33194465D01*
X27755000Y-33208672D01*
X27776777Y-33223223D01*
X27791327Y-33244999D01*
X27805534Y-33259206D01*
X27814718Y-33280006D01*
X27830970Y-33304329D01*
X27835489Y-33327048D01*
X27843235Y-33344591D01*
X27849192Y-33395940D01*
X27850000Y-33400000D01*
X27850000Y-34600000D01*
X27849192Y-34604059D01*
X27843235Y-34655408D01*
X27835489Y-34672950D01*
X27830970Y-34695671D01*
X27814716Y-34719995D01*
X27805534Y-34740793D01*
X27791329Y-34754997D01*
X27776777Y-34776777D01*
X27754997Y-34791329D01*
X27740793Y-34805534D01*
X27719995Y-34814716D01*
X27695671Y-34830970D01*
X27672950Y-34835489D01*
X27655408Y-34843235D01*
X27604061Y-34849192D01*
X27600000Y-34850000D01*
X26400000Y-34850000D01*
X26395941Y-34849192D01*
X26344591Y-34843235D01*
X26327048Y-34835489D01*
X26304329Y-34830970D01*
X26280006Y-34814718D01*
X26259206Y-34805534D01*
X26244999Y-34791327D01*
X26223223Y-34776777D01*
X26208672Y-34755000D01*
X26194465Y-34740793D01*
X26185280Y-34719991D01*
X26169030Y-34695671D01*
X26164511Y-34672954D01*
X26156764Y-34655408D01*
X26150805Y-34604049D01*
X26150000Y-34600000D01*
X26150000Y-33400000D01*
X26150804Y-33395953D01*
X26156764Y-33344591D01*
X26164511Y-33327043D01*
X26169030Y-33304329D01*
X26185278Y-33280010D01*
X26194465Y-33259206D01*
X26208674Y-33244996D01*
X26223223Y-33223223D01*
X26244996Y-33208674D01*
X26259206Y-33194465D01*
X26280010Y-33185278D01*
X26304329Y-33169030D01*
X26327043Y-33164511D01*
X26344591Y-33156764D01*
X26395952Y-33150805D01*
X26400000Y-33150000D01*
X27600000Y-33150000D01*
X27604047Y-33150805D01*
G37*
G36*
X117746742Y-32596601D02*
G01*
X117900687Y-32660367D01*
X118039234Y-32752941D01*
X118157059Y-32870766D01*
X118249633Y-33009313D01*
X118313399Y-33163258D01*
X118345907Y-33326685D01*
X118345907Y-33493315D01*
X118313399Y-33656742D01*
X118249633Y-33810687D01*
X118157059Y-33949234D01*
X118039234Y-34067059D01*
X117900687Y-34159633D01*
X117746742Y-34223399D01*
X117583315Y-34255907D01*
X117416685Y-34255907D01*
X117253258Y-34223399D01*
X117099313Y-34159633D01*
X116960766Y-34067059D01*
X116842941Y-33949234D01*
X116750367Y-33810687D01*
X116686601Y-33656742D01*
X116654093Y-33493315D01*
X116654093Y-33326685D01*
X116686601Y-33163258D01*
X116750367Y-33009313D01*
X116842941Y-32870766D01*
X116960766Y-32752941D01*
X117099313Y-32660367D01*
X117253258Y-32596601D01*
X117416685Y-32564093D01*
X117583315Y-32564093D01*
X117746742Y-32596601D01*
G37*
G36*
X140606742Y-32596601D02*
G01*
X140760687Y-32660367D01*
X140899234Y-32752941D01*
X141017059Y-32870766D01*
X141109633Y-33009313D01*
X141173399Y-33163258D01*
X141205907Y-33326685D01*
X141205907Y-33493315D01*
X141173399Y-33656742D01*
X141109633Y-33810687D01*
X141017059Y-33949234D01*
X140899234Y-34067059D01*
X140760687Y-34159633D01*
X140606742Y-34223399D01*
X140443315Y-34255907D01*
X140276685Y-34255907D01*
X140113258Y-34223399D01*
X139959313Y-34159633D01*
X139820766Y-34067059D01*
X139702941Y-33949234D01*
X139610367Y-33810687D01*
X139546601Y-33656742D01*
X139514093Y-33493315D01*
X139514093Y-33326685D01*
X139546601Y-33163258D01*
X139610367Y-33009313D01*
X139702941Y-32870766D01*
X139820766Y-32752941D01*
X139959313Y-32660367D01*
X140113258Y-32596601D01*
X140276685Y-32564093D01*
X140443315Y-32564093D01*
X140606742Y-32596601D01*
G37*
G36*
X117746742Y-30056601D02*
G01*
X117900687Y-30120367D01*
X118039234Y-30212941D01*
X118157059Y-30330766D01*
X118249633Y-30469313D01*
X118313399Y-30623258D01*
X118345907Y-30786685D01*
X118345907Y-30953315D01*
X118313399Y-31116742D01*
X118249633Y-31270687D01*
X118157059Y-31409234D01*
X118039234Y-31527059D01*
X117900687Y-31619633D01*
X117746742Y-31683399D01*
X117583315Y-31715907D01*
X117416685Y-31715907D01*
X117253258Y-31683399D01*
X117099313Y-31619633D01*
X116960766Y-31527059D01*
X116842941Y-31409234D01*
X116750367Y-31270687D01*
X116686601Y-31116742D01*
X116654093Y-30953315D01*
X116654093Y-30786685D01*
X116686601Y-30623258D01*
X116750367Y-30469313D01*
X116842941Y-30330766D01*
X116960766Y-30212941D01*
X117099313Y-30120367D01*
X117253258Y-30056601D01*
X117416685Y-30024093D01*
X117583315Y-30024093D01*
X117746742Y-30056601D01*
G37*
G36*
X140606742Y-30056601D02*
G01*
X140760687Y-30120367D01*
X140899234Y-30212941D01*
X141017059Y-30330766D01*
X141109633Y-30469313D01*
X141173399Y-30623258D01*
X141205907Y-30786685D01*
X141205907Y-30953315D01*
X141173399Y-31116742D01*
X141109633Y-31270687D01*
X141017059Y-31409234D01*
X140899234Y-31527059D01*
X140760687Y-31619633D01*
X140606742Y-31683399D01*
X140443315Y-31715907D01*
X140276685Y-31715907D01*
X140113258Y-31683399D01*
X139959313Y-31619633D01*
X139820766Y-31527059D01*
X139702941Y-31409234D01*
X139610367Y-31270687D01*
X139546601Y-31116742D01*
X139514093Y-30953315D01*
X139514093Y-30786685D01*
X139546601Y-30623258D01*
X139610367Y-30469313D01*
X139702941Y-30330766D01*
X139820766Y-30212941D01*
X139959313Y-30120367D01*
X140113258Y-30056601D01*
X140276685Y-30024093D01*
X140443315Y-30024093D01*
X140606742Y-30056601D01*
G37*
G36*
X117746742Y-27516601D02*
G01*
X117900687Y-27580367D01*
X118039234Y-27672941D01*
X118157059Y-27790766D01*
X118249633Y-27929313D01*
X118313399Y-28083258D01*
X118345907Y-28246685D01*
X118345907Y-28413315D01*
X118313399Y-28576742D01*
X118249633Y-28730687D01*
X118157059Y-28869234D01*
X118039234Y-28987059D01*
X117900687Y-29079633D01*
X117746742Y-29143399D01*
X117583315Y-29175907D01*
X117416685Y-29175907D01*
X117253258Y-29143399D01*
X117099313Y-29079633D01*
X116960766Y-28987059D01*
X116842941Y-28869234D01*
X116750367Y-28730687D01*
X116686601Y-28576742D01*
X116654093Y-28413315D01*
X116654093Y-28246685D01*
X116686601Y-28083258D01*
X116750367Y-27929313D01*
X116842941Y-27790766D01*
X116960766Y-27672941D01*
X117099313Y-27580367D01*
X117253258Y-27516601D01*
X117416685Y-27484093D01*
X117583315Y-27484093D01*
X117746742Y-27516601D01*
G37*
G36*
X140606742Y-27516601D02*
G01*
X140760687Y-27580367D01*
X140899234Y-27672941D01*
X141017059Y-27790766D01*
X141109633Y-27929313D01*
X141173399Y-28083258D01*
X141205907Y-28246685D01*
X141205907Y-28413315D01*
X141173399Y-28576742D01*
X141109633Y-28730687D01*
X141017059Y-28869234D01*
X140899234Y-28987059D01*
X140760687Y-29079633D01*
X140606742Y-29143399D01*
X140443315Y-29175907D01*
X140276685Y-29175907D01*
X140113258Y-29143399D01*
X139959313Y-29079633D01*
X139820766Y-28987059D01*
X139702941Y-28869234D01*
X139610367Y-28730687D01*
X139546601Y-28576742D01*
X139514093Y-28413315D01*
X139514093Y-28246685D01*
X139546601Y-28083258D01*
X139610367Y-27929313D01*
X139702941Y-27790766D01*
X139820766Y-27672941D01*
X139959313Y-27580367D01*
X140113258Y-27516601D01*
X140276685Y-27484093D01*
X140443315Y-27484093D01*
X140606742Y-27516601D01*
G37*
G36*
X117746742Y-24976601D02*
G01*
X117900687Y-25040367D01*
X118039234Y-25132941D01*
X118157059Y-25250766D01*
X118249633Y-25389313D01*
X118313399Y-25543258D01*
X118345907Y-25706685D01*
X118345907Y-25873315D01*
X118313399Y-26036742D01*
X118249633Y-26190687D01*
X118157059Y-26329234D01*
X118039234Y-26447059D01*
X117900687Y-26539633D01*
X117746742Y-26603399D01*
X117583315Y-26635907D01*
X117416685Y-26635907D01*
X117253258Y-26603399D01*
X117099313Y-26539633D01*
X116960766Y-26447059D01*
X116842941Y-26329234D01*
X116750367Y-26190687D01*
X116686601Y-26036742D01*
X116654093Y-25873315D01*
X116654093Y-25706685D01*
X116686601Y-25543258D01*
X116750367Y-25389313D01*
X116842941Y-25250766D01*
X116960766Y-25132941D01*
X117099313Y-25040367D01*
X117253258Y-24976601D01*
X117416685Y-24944093D01*
X117583315Y-24944093D01*
X117746742Y-24976601D01*
G37*
G36*
X140606742Y-24976601D02*
G01*
X140760687Y-25040367D01*
X140899234Y-25132941D01*
X141017059Y-25250766D01*
X141109633Y-25389313D01*
X141173399Y-25543258D01*
X141205907Y-25706685D01*
X141205907Y-25873315D01*
X141173399Y-26036742D01*
X141109633Y-26190687D01*
X141017059Y-26329234D01*
X140899234Y-26447059D01*
X140760687Y-26539633D01*
X140606742Y-26603399D01*
X140443315Y-26635907D01*
X140276685Y-26635907D01*
X140113258Y-26603399D01*
X139959313Y-26539633D01*
X139820766Y-26447059D01*
X139702941Y-26329234D01*
X139610367Y-26190687D01*
X139546601Y-26036742D01*
X139514093Y-25873315D01*
X139514093Y-25706685D01*
X139546601Y-25543258D01*
X139610367Y-25389313D01*
X139702941Y-25250766D01*
X139820766Y-25132941D01*
X139959313Y-25040367D01*
X140113258Y-24976601D01*
X140276685Y-24944093D01*
X140443315Y-24944093D01*
X140606742Y-24976601D01*
G37*
G36*
X14324489Y-23048406D02*
G01*
X14531930Y-23115807D01*
X14726273Y-23214830D01*
X14902733Y-23343036D01*
X15056964Y-23497267D01*
X15185170Y-23673727D01*
X15284193Y-23868070D01*
X15351594Y-24075511D01*
X15385715Y-24290942D01*
X15385715Y-24509058D01*
X15351594Y-24724489D01*
X15284193Y-24931930D01*
X15185170Y-25126273D01*
X15056964Y-25302733D01*
X14902733Y-25456964D01*
X14726273Y-25585170D01*
X14531930Y-25684193D01*
X14324489Y-25751594D01*
X14109058Y-25785715D01*
X13890942Y-25785715D01*
X13675511Y-25751594D01*
X13468070Y-25684193D01*
X13273727Y-25585170D01*
X13097267Y-25456964D01*
X12943036Y-25302733D01*
X12814830Y-25126273D01*
X12715807Y-24931930D01*
X12648406Y-24724489D01*
X12614285Y-24509058D01*
X12614285Y-24290942D01*
X12648406Y-24075511D01*
X12715807Y-23868070D01*
X12814830Y-23673727D01*
X12943036Y-23497267D01*
X13097267Y-23343036D01*
X13273727Y-23214830D01*
X13468070Y-23115807D01*
X13675511Y-23048406D01*
X13890942Y-23014285D01*
X14109058Y-23014285D01*
X14324489Y-23048406D01*
G37*
G36*
X24244489Y-23048406D02*
G01*
X24451930Y-23115807D01*
X24646273Y-23214830D01*
X24822733Y-23343036D01*
X24976964Y-23497267D01*
X25105170Y-23673727D01*
X25204193Y-23868070D01*
X25271594Y-24075511D01*
X25305715Y-24290942D01*
X25305715Y-24509058D01*
X25271594Y-24724489D01*
X25204193Y-24931930D01*
X25105170Y-25126273D01*
X24976964Y-25302733D01*
X24822733Y-25456964D01*
X24646273Y-25585170D01*
X24451930Y-25684193D01*
X24244489Y-25751594D01*
X24029058Y-25785715D01*
X23810942Y-25785715D01*
X23595511Y-25751594D01*
X23388070Y-25684193D01*
X23193727Y-25585170D01*
X23017267Y-25456964D01*
X22863036Y-25302733D01*
X22734830Y-25126273D01*
X22635807Y-24931930D01*
X22568406Y-24724489D01*
X22534285Y-24509058D01*
X22534285Y-24290942D01*
X22568406Y-24075511D01*
X22635807Y-23868070D01*
X22734830Y-23673727D01*
X22863036Y-23497267D01*
X23017267Y-23343036D01*
X23193727Y-23214830D01*
X23388070Y-23115807D01*
X23595511Y-23048406D01*
X23810942Y-23014285D01*
X24029058Y-23014285D01*
X24244489Y-23048406D01*
G37*
G36*
X118350000Y-24100000D02*
G01*
X116650000Y-24100000D01*
X116650000Y-22400000D01*
X118350000Y-22400000D01*
X118350000Y-24100000D01*
G37*
G36*
X141210000Y-24100000D02*
G01*
X139510000Y-24100000D01*
X139510000Y-22400000D01*
X141210000Y-22400000D01*
X141210000Y-24100000D01*
G37*
G36*
X14324489Y-19648406D02*
G01*
X14531930Y-19715807D01*
X14726273Y-19814830D01*
X14902733Y-19943036D01*
X15056964Y-20097267D01*
X15185170Y-20273727D01*
X15284193Y-20468070D01*
X15351594Y-20675511D01*
X15385715Y-20890942D01*
X15385715Y-21109058D01*
X15351594Y-21324489D01*
X15284193Y-21531930D01*
X15185170Y-21726273D01*
X15056964Y-21902733D01*
X14902733Y-22056964D01*
X14726273Y-22185170D01*
X14531930Y-22284193D01*
X14324489Y-22351594D01*
X14109058Y-22385715D01*
X13890942Y-22385715D01*
X13675511Y-22351594D01*
X13468070Y-22284193D01*
X13273727Y-22185170D01*
X13097267Y-22056964D01*
X12943036Y-21902733D01*
X12814830Y-21726273D01*
X12715807Y-21531930D01*
X12648406Y-21324489D01*
X12614285Y-21109058D01*
X12614285Y-20890942D01*
X12648406Y-20675511D01*
X12715807Y-20468070D01*
X12814830Y-20273727D01*
X12943036Y-20097267D01*
X13097267Y-19943036D01*
X13273727Y-19814830D01*
X13468070Y-19715807D01*
X13675511Y-19648406D01*
X13890942Y-19614285D01*
X14109058Y-19614285D01*
X14324489Y-19648406D01*
G37*
G36*
X24244489Y-19648406D02*
G01*
X24451930Y-19715807D01*
X24646273Y-19814830D01*
X24822733Y-19943036D01*
X24976964Y-20097267D01*
X25105170Y-20273727D01*
X25204193Y-20468070D01*
X25271594Y-20675511D01*
X25305715Y-20890942D01*
X25305715Y-21109058D01*
X25271594Y-21324489D01*
X25204193Y-21531930D01*
X25105170Y-21726273D01*
X24976964Y-21902733D01*
X24822733Y-22056964D01*
X24646273Y-22185170D01*
X24451930Y-22284193D01*
X24244489Y-22351594D01*
X24029058Y-22385715D01*
X23810942Y-22385715D01*
X23595511Y-22351594D01*
X23388070Y-22284193D01*
X23193727Y-22185170D01*
X23017267Y-22056964D01*
X22863036Y-21902733D01*
X22734830Y-21726273D01*
X22635807Y-21531930D01*
X22568406Y-21324489D01*
X22534285Y-21109058D01*
X22534285Y-20890942D01*
X22568406Y-20675511D01*
X22635807Y-20468070D01*
X22734830Y-20273727D01*
X22863036Y-20097267D01*
X23017267Y-19943036D01*
X23193727Y-19814830D01*
X23388070Y-19715807D01*
X23595511Y-19648406D01*
X23810942Y-19614285D01*
X24029058Y-19614285D01*
X24244489Y-19648406D01*
G37*
G36*
X16250000Y-17250000D02*
G01*
X11750000Y-17250000D01*
X11750000Y-12750000D01*
X16250000Y-12750000D01*
X16250000Y-17250000D01*
G37*
G36*
X35250000Y-17250000D02*
G01*
X30750000Y-17250000D01*
X30750000Y-12750000D01*
X35250000Y-12750000D01*
X35250000Y-17250000D01*
G37*
G36*
X47250000Y-17250000D02*
G01*
X42750000Y-17250000D01*
X42750000Y-12750000D01*
X47250000Y-12750000D01*
X47250000Y-17250000D01*
G37*
G36*
X22058953Y-12793233D02*
G01*
X22343239Y-12869407D01*
X22615150Y-12982036D01*
X22870033Y-13129193D01*
X23103528Y-13308360D01*
X23311640Y-13516472D01*
X23490807Y-13749967D01*
X23637964Y-14004850D01*
X23750593Y-14276761D01*
X23826767Y-14561047D01*
X23865183Y-14852843D01*
X23865183Y-15147157D01*
X23826767Y-15438953D01*
X23750593Y-15723239D01*
X23637964Y-15995150D01*
X23490807Y-16250033D01*
X23311640Y-16483528D01*
X23103528Y-16691640D01*
X22870033Y-16870807D01*
X22615150Y-17017964D01*
X22343239Y-17130593D01*
X22058953Y-17206767D01*
X21767157Y-17245183D01*
X21472843Y-17245183D01*
X21181047Y-17206767D01*
X20896761Y-17130593D01*
X20624850Y-17017964D01*
X20369967Y-16870807D01*
X20136472Y-16691640D01*
X19928360Y-16483528D01*
X19749193Y-16250033D01*
X19602036Y-15995150D01*
X19489407Y-15723239D01*
X19413233Y-15438953D01*
X19374817Y-15147157D01*
X19374817Y-14852843D01*
X19413233Y-14561047D01*
X19489407Y-14276761D01*
X19602036Y-14004850D01*
X19749193Y-13749967D01*
X19928360Y-13516472D01*
X20136472Y-13308360D01*
X20369967Y-13129193D01*
X20624850Y-12982036D01*
X20896761Y-12869407D01*
X21181047Y-12793233D01*
X21472843Y-12754817D01*
X21767157Y-12754817D01*
X22058953Y-12793233D01*
G37*
G36*
X53058953Y-12793233D02*
G01*
X53343239Y-12869407D01*
X53615150Y-12982036D01*
X53870033Y-13129193D01*
X54103528Y-13308360D01*
X54311640Y-13516472D01*
X54490807Y-13749967D01*
X54637964Y-14004850D01*
X54750593Y-14276761D01*
X54826767Y-14561047D01*
X54865183Y-14852843D01*
X54865183Y-15147157D01*
X54826767Y-15438953D01*
X54750593Y-15723239D01*
X54637964Y-15995150D01*
X54490807Y-16250033D01*
X54311640Y-16483528D01*
X54103528Y-16691640D01*
X53870033Y-16870807D01*
X53615150Y-17017964D01*
X53343239Y-17130593D01*
X53058953Y-17206767D01*
X52767157Y-17245183D01*
X52472843Y-17245183D01*
X52181047Y-17206767D01*
X51896761Y-17130593D01*
X51624850Y-17017964D01*
X51369967Y-16870807D01*
X51136472Y-16691640D01*
X50928360Y-16483528D01*
X50749193Y-16250033D01*
X50602036Y-15995150D01*
X50489407Y-15723239D01*
X50413233Y-15438953D01*
X50374817Y-15147157D01*
X50374817Y-14852843D01*
X50413233Y-14561047D01*
X50489407Y-14276761D01*
X50602036Y-14004850D01*
X50749193Y-13749967D01*
X50928360Y-13516472D01*
X51136472Y-13308360D01*
X51369967Y-13129193D01*
X51624850Y-12982036D01*
X51896761Y-12869407D01*
X52181047Y-12793233D01*
X52472843Y-12754817D01*
X52767157Y-12754817D01*
X53058953Y-12793233D01*
G37*
G36*
X65200000Y-16200000D02*
G01*
X62800000Y-16200000D01*
X62800000Y-13800000D01*
X65200000Y-13800000D01*
X65200000Y-16200000D01*
G37*
G36*
X69360134Y-13833156D02*
G01*
X69539220Y-13891345D01*
X69706998Y-13976832D01*
X69859338Y-14087513D01*
X69992487Y-14220662D01*
X70103168Y-14373002D01*
X70188655Y-14540780D01*
X70246844Y-14719866D01*
X70276301Y-14905849D01*
X70276301Y-15094151D01*
X70246844Y-15280134D01*
X70188655Y-15459220D01*
X70103168Y-15626998D01*
X69992487Y-15779338D01*
X69859338Y-15912487D01*
X69706998Y-16023168D01*
X69539220Y-16108655D01*
X69360134Y-16166844D01*
X69174151Y-16196301D01*
X68985849Y-16196301D01*
X68799866Y-16166844D01*
X68620780Y-16108655D01*
X68453002Y-16023168D01*
X68300662Y-15912487D01*
X68167513Y-15779338D01*
X68056832Y-15626998D01*
X67971345Y-15459220D01*
X67913156Y-15280134D01*
X67883699Y-15094151D01*
X67883699Y-14905849D01*
X67913156Y-14719866D01*
X67971345Y-14540780D01*
X68056832Y-14373002D01*
X68167513Y-14220662D01*
X68300662Y-14087513D01*
X68453002Y-13976832D01*
X68620780Y-13891345D01*
X68799866Y-13833156D01*
X68985849Y-13803699D01*
X69174151Y-13803699D01*
X69360134Y-13833156D01*
G37*
G36*
X74440134Y-13833156D02*
G01*
X74619220Y-13891345D01*
X74786998Y-13976832D01*
X74939338Y-14087513D01*
X75072487Y-14220662D01*
X75183168Y-14373002D01*
X75268655Y-14540780D01*
X75326844Y-14719866D01*
X75356301Y-14905849D01*
X75356301Y-15094151D01*
X75326844Y-15280134D01*
X75268655Y-15459220D01*
X75183168Y-15626998D01*
X75072487Y-15779338D01*
X74939338Y-15912487D01*
X74786998Y-16023168D01*
X74619220Y-16108655D01*
X74440134Y-16166844D01*
X74254151Y-16196301D01*
X74065849Y-16196301D01*
X73879866Y-16166844D01*
X73700780Y-16108655D01*
X73533002Y-16023168D01*
X73380662Y-15912487D01*
X73247513Y-15779338D01*
X73136832Y-15626998D01*
X73051345Y-15459220D01*
X72993156Y-15280134D01*
X72963699Y-15094151D01*
X72963699Y-14905849D01*
X72993156Y-14719866D01*
X73051345Y-14540780D01*
X73136832Y-14373002D01*
X73247513Y-14220662D01*
X73380662Y-14087513D01*
X73533002Y-13976832D01*
X73700780Y-13891345D01*
X73879866Y-13833156D01*
X74065849Y-13803699D01*
X74254151Y-13803699D01*
X74440134Y-13833156D01*
G37*
G36*
X79520134Y-13833156D02*
G01*
X79699220Y-13891345D01*
X79866998Y-13976832D01*
X80019338Y-14087513D01*
X80152487Y-14220662D01*
X80263168Y-14373002D01*
X80348655Y-14540780D01*
X80406844Y-14719866D01*
X80436301Y-14905849D01*
X80436301Y-15094151D01*
X80406844Y-15280134D01*
X80348655Y-15459220D01*
X80263168Y-15626998D01*
X80152487Y-15779338D01*
X80019338Y-15912487D01*
X79866998Y-16023168D01*
X79699220Y-16108655D01*
X79520134Y-16166844D01*
X79334151Y-16196301D01*
X79145849Y-16196301D01*
X78959866Y-16166844D01*
X78780780Y-16108655D01*
X78613002Y-16023168D01*
X78460662Y-15912487D01*
X78327513Y-15779338D01*
X78216832Y-15626998D01*
X78131345Y-15459220D01*
X78073156Y-15280134D01*
X78043699Y-15094151D01*
X78043699Y-14905849D01*
X78073156Y-14719866D01*
X78131345Y-14540780D01*
X78216832Y-14373002D01*
X78327513Y-14220662D01*
X78460662Y-14087513D01*
X78613002Y-13976832D01*
X78780780Y-13891345D01*
X78959866Y-13833156D01*
X79145849Y-13803699D01*
X79334151Y-13803699D01*
X79520134Y-13833156D01*
G37*
G36*
X84600134Y-13833156D02*
G01*
X84779220Y-13891345D01*
X84946998Y-13976832D01*
X85099338Y-14087513D01*
X85232487Y-14220662D01*
X85343168Y-14373002D01*
X85428655Y-14540780D01*
X85486844Y-14719866D01*
X85516301Y-14905849D01*
X85516301Y-15094151D01*
X85486844Y-15280134D01*
X85428655Y-15459220D01*
X85343168Y-15626998D01*
X85232487Y-15779338D01*
X85099338Y-15912487D01*
X84946998Y-16023168D01*
X84779220Y-16108655D01*
X84600134Y-16166844D01*
X84414151Y-16196301D01*
X84225849Y-16196301D01*
X84039866Y-16166844D01*
X83860780Y-16108655D01*
X83693002Y-16023168D01*
X83540662Y-15912487D01*
X83407513Y-15779338D01*
X83296832Y-15626998D01*
X83211345Y-15459220D01*
X83153156Y-15280134D01*
X83123699Y-15094151D01*
X83123699Y-14905849D01*
X83153156Y-14719866D01*
X83211345Y-14540780D01*
X83296832Y-14373002D01*
X83407513Y-14220662D01*
X83540662Y-14087513D01*
X83693002Y-13976832D01*
X83860780Y-13891345D01*
X84039866Y-13833156D01*
X84225849Y-13803699D01*
X84414151Y-13803699D01*
X84600134Y-13833156D01*
G37*
G36*
X89680134Y-13833156D02*
G01*
X89859220Y-13891345D01*
X90026998Y-13976832D01*
X90179338Y-14087513D01*
X90312487Y-14220662D01*
X90423168Y-14373002D01*
X90508655Y-14540780D01*
X90566844Y-14719866D01*
X90596301Y-14905849D01*
X90596301Y-15094151D01*
X90566844Y-15280134D01*
X90508655Y-15459220D01*
X90423168Y-15626998D01*
X90312487Y-15779338D01*
X90179338Y-15912487D01*
X90026998Y-16023168D01*
X89859220Y-16108655D01*
X89680134Y-16166844D01*
X89494151Y-16196301D01*
X89305849Y-16196301D01*
X89119866Y-16166844D01*
X88940780Y-16108655D01*
X88773002Y-16023168D01*
X88620662Y-15912487D01*
X88487513Y-15779338D01*
X88376832Y-15626998D01*
X88291345Y-15459220D01*
X88233156Y-15280134D01*
X88203699Y-15094151D01*
X88203699Y-14905849D01*
X88233156Y-14719866D01*
X88291345Y-14540780D01*
X88376832Y-14373002D01*
X88487513Y-14220662D01*
X88620662Y-14087513D01*
X88773002Y-13976832D01*
X88940780Y-13891345D01*
X89119866Y-13833156D01*
X89305849Y-13803699D01*
X89494151Y-13803699D01*
X89680134Y-13833156D01*
G37*
G36*
X94760134Y-13833156D02*
G01*
X94939220Y-13891345D01*
X95106998Y-13976832D01*
X95259338Y-14087513D01*
X95392487Y-14220662D01*
X95503168Y-14373002D01*
X95588655Y-14540780D01*
X95646844Y-14719866D01*
X95676301Y-14905849D01*
X95676301Y-15094151D01*
X95646844Y-15280134D01*
X95588655Y-15459220D01*
X95503168Y-15626998D01*
X95392487Y-15779338D01*
X95259338Y-15912487D01*
X95106998Y-16023168D01*
X94939220Y-16108655D01*
X94760134Y-16166844D01*
X94574151Y-16196301D01*
X94385849Y-16196301D01*
X94199866Y-16166844D01*
X94020780Y-16108655D01*
X93853002Y-16023168D01*
X93700662Y-15912487D01*
X93567513Y-15779338D01*
X93456832Y-15626998D01*
X93371345Y-15459220D01*
X93313156Y-15280134D01*
X93283699Y-15094151D01*
X93283699Y-14905849D01*
X93313156Y-14719866D01*
X93371345Y-14540780D01*
X93456832Y-14373002D01*
X93567513Y-14220662D01*
X93700662Y-14087513D01*
X93853002Y-13976832D01*
X94020780Y-13891345D01*
X94199866Y-13833156D01*
X94385849Y-13803699D01*
X94574151Y-13803699D01*
X94760134Y-13833156D01*
G37*
G36*
X99840134Y-13833156D02*
G01*
X100019220Y-13891345D01*
X100186998Y-13976832D01*
X100339338Y-14087513D01*
X100472487Y-14220662D01*
X100583168Y-14373002D01*
X100668655Y-14540780D01*
X100726844Y-14719866D01*
X100756301Y-14905849D01*
X100756301Y-15094151D01*
X100726844Y-15280134D01*
X100668655Y-15459220D01*
X100583168Y-15626998D01*
X100472487Y-15779338D01*
X100339338Y-15912487D01*
X100186998Y-16023168D01*
X100019220Y-16108655D01*
X99840134Y-16166844D01*
X99654151Y-16196301D01*
X99465849Y-16196301D01*
X99279866Y-16166844D01*
X99100780Y-16108655D01*
X98933002Y-16023168D01*
X98780662Y-15912487D01*
X98647513Y-15779338D01*
X98536832Y-15626998D01*
X98451345Y-15459220D01*
X98393156Y-15280134D01*
X98363699Y-15094151D01*
X98363699Y-14905849D01*
X98393156Y-14719866D01*
X98451345Y-14540780D01*
X98536832Y-14373002D01*
X98647513Y-14220662D01*
X98780662Y-14087513D01*
X98933002Y-13976832D01*
X99100780Y-13891345D01*
X99279866Y-13833156D01*
X99465849Y-13803699D01*
X99654151Y-13803699D01*
X99840134Y-13833156D01*
G37*
G36*
X104920134Y-13833156D02*
G01*
X105099220Y-13891345D01*
X105266998Y-13976832D01*
X105419338Y-14087513D01*
X105552487Y-14220662D01*
X105663168Y-14373002D01*
X105748655Y-14540780D01*
X105806844Y-14719866D01*
X105836301Y-14905849D01*
X105836301Y-15094151D01*
X105806844Y-15280134D01*
X105748655Y-15459220D01*
X105663168Y-15626998D01*
X105552487Y-15779338D01*
X105419338Y-15912487D01*
X105266998Y-16023168D01*
X105099220Y-16108655D01*
X104920134Y-16166844D01*
X104734151Y-16196301D01*
X104545849Y-16196301D01*
X104359866Y-16166844D01*
X104180780Y-16108655D01*
X104013002Y-16023168D01*
X103860662Y-15912487D01*
X103727513Y-15779338D01*
X103616832Y-15626998D01*
X103531345Y-15459220D01*
X103473156Y-15280134D01*
X103443699Y-15094151D01*
X103443699Y-14905849D01*
X103473156Y-14719866D01*
X103531345Y-14540780D01*
X103616832Y-14373002D01*
X103727513Y-14220662D01*
X103860662Y-14087513D01*
X104013002Y-13976832D01*
X104180780Y-13891345D01*
X104359866Y-13833156D01*
X104545849Y-13803699D01*
X104734151Y-13803699D01*
X104920134Y-13833156D01*
G37*
G36*
X110000134Y-13833156D02*
G01*
X110179220Y-13891345D01*
X110346998Y-13976832D01*
X110499338Y-14087513D01*
X110632487Y-14220662D01*
X110743168Y-14373002D01*
X110828655Y-14540780D01*
X110886844Y-14719866D01*
X110916301Y-14905849D01*
X110916301Y-15094151D01*
X110886844Y-15280134D01*
X110828655Y-15459220D01*
X110743168Y-15626998D01*
X110632487Y-15779338D01*
X110499338Y-15912487D01*
X110346998Y-16023168D01*
X110179220Y-16108655D01*
X110000134Y-16166844D01*
X109814151Y-16196301D01*
X109625849Y-16196301D01*
X109439866Y-16166844D01*
X109260780Y-16108655D01*
X109093002Y-16023168D01*
X108940662Y-15912487D01*
X108807513Y-15779338D01*
X108696832Y-15626998D01*
X108611345Y-15459220D01*
X108553156Y-15280134D01*
X108523699Y-15094151D01*
X108523699Y-14905849D01*
X108553156Y-14719866D01*
X108611345Y-14540780D01*
X108696832Y-14373002D01*
X108807513Y-14220662D01*
X108940662Y-14087513D01*
X109093002Y-13976832D01*
X109260780Y-13891345D01*
X109439866Y-13833156D01*
X109625849Y-13803699D01*
X109814151Y-13803699D01*
X110000134Y-13833156D01*
G37*
G36*
X10873513Y-1444208D02*
G01*
X11112293Y-1521793D01*
X11335998Y-1635776D01*
X11539117Y-1783350D01*
X11716650Y-1960883D01*
X11864224Y-2164002D01*
X11978207Y-2387707D01*
X12055792Y-2626487D01*
X12095068Y-2874465D01*
X12095068Y-3125535D01*
X12055792Y-3373513D01*
X11978207Y-3612293D01*
X11864224Y-3835998D01*
X11716650Y-4039117D01*
X11539117Y-4216650D01*
X11335998Y-4364224D01*
X11112293Y-4478207D01*
X10873513Y-4555792D01*
X10625535Y-4595068D01*
X10374465Y-4595068D01*
X10126487Y-4555792D01*
X9887707Y-4478207D01*
X9664002Y-4364224D01*
X9460883Y-4216650D01*
X9283350Y-4039117D01*
X9135776Y-3835998D01*
X9021793Y-3612293D01*
X8944208Y-3373513D01*
X8904932Y-3125535D01*
X8904932Y-2874465D01*
X8944208Y-2626487D01*
X9021793Y-2387707D01*
X9135776Y-2164002D01*
X9283350Y-1960883D01*
X9460883Y-1783350D01*
X9664002Y-1635776D01*
X9887707Y-1521793D01*
X10126487Y-1444208D01*
X10374465Y-1404932D01*
X10625535Y-1404932D01*
X10873513Y-1444208D01*
G37*
G36*
X25493513Y-1444208D02*
G01*
X25732293Y-1521793D01*
X25955998Y-1635776D01*
X26159117Y-1783350D01*
X26336650Y-1960883D01*
X26484224Y-2164002D01*
X26598207Y-2387707D01*
X26675792Y-2626487D01*
X26715068Y-2874465D01*
X26715068Y-3125535D01*
X26675792Y-3373513D01*
X26598207Y-3612293D01*
X26484224Y-3835998D01*
X26336650Y-4039117D01*
X26159117Y-4216650D01*
X25955998Y-4364224D01*
X25732293Y-4478207D01*
X25493513Y-4555792D01*
X25245535Y-4595068D01*
X24994465Y-4595068D01*
X24746487Y-4555792D01*
X24507707Y-4478207D01*
X24284002Y-4364224D01*
X24080883Y-4216650D01*
X23903350Y-4039117D01*
X23755776Y-3835998D01*
X23641793Y-3612293D01*
X23564208Y-3373513D01*
X23524932Y-3125535D01*
X23524932Y-2874465D01*
X23564208Y-2626487D01*
X23641793Y-2387707D01*
X23755776Y-2164002D01*
X23903350Y-1960883D01*
X24080883Y-1783350D01*
X24284002Y-1635776D01*
X24507707Y-1521793D01*
X24746487Y-1444208D01*
X24994465Y-1404932D01*
X25245535Y-1404932D01*
X25493513Y-1444208D01*
G37*
G36*
X29873513Y-1444208D02*
G01*
X30112293Y-1521793D01*
X30335998Y-1635776D01*
X30539117Y-1783350D01*
X30716650Y-1960883D01*
X30864224Y-2164002D01*
X30978207Y-2387707D01*
X31055792Y-2626487D01*
X31095068Y-2874465D01*
X31095068Y-3125535D01*
X31055792Y-3373513D01*
X30978207Y-3612293D01*
X30864224Y-3835998D01*
X30716650Y-4039117D01*
X30539117Y-4216650D01*
X30335998Y-4364224D01*
X30112293Y-4478207D01*
X29873513Y-4555792D01*
X29625535Y-4595068D01*
X29374465Y-4595068D01*
X29126487Y-4555792D01*
X28887707Y-4478207D01*
X28664002Y-4364224D01*
X28460883Y-4216650D01*
X28283350Y-4039117D01*
X28135776Y-3835998D01*
X28021793Y-3612293D01*
X27944208Y-3373513D01*
X27904932Y-3125535D01*
X27904932Y-2874465D01*
X27944208Y-2626487D01*
X28021793Y-2387707D01*
X28135776Y-2164002D01*
X28283350Y-1960883D01*
X28460883Y-1783350D01*
X28664002Y-1635776D01*
X28887707Y-1521793D01*
X29126487Y-1444208D01*
X29374465Y-1404932D01*
X29625535Y-1404932D01*
X29873513Y-1444208D01*
G37*
G36*
X36873513Y-1444208D02*
G01*
X37112293Y-1521793D01*
X37335998Y-1635776D01*
X37539117Y-1783350D01*
X37716650Y-1960883D01*
X37864224Y-2164002D01*
X37978207Y-2387707D01*
X38055792Y-2626487D01*
X38095068Y-2874465D01*
X38095068Y-3125535D01*
X38055792Y-3373513D01*
X37978207Y-3612293D01*
X37864224Y-3835998D01*
X37716650Y-4039117D01*
X37539117Y-4216650D01*
X37335998Y-4364224D01*
X37112293Y-4478207D01*
X36873513Y-4555792D01*
X36625535Y-4595068D01*
X36374465Y-4595068D01*
X36126487Y-4555792D01*
X35887707Y-4478207D01*
X35664002Y-4364224D01*
X35460883Y-4216650D01*
X35283350Y-4039117D01*
X35135776Y-3835998D01*
X35021793Y-3612293D01*
X34944208Y-3373513D01*
X34904932Y-3125535D01*
X34904932Y-2874465D01*
X34944208Y-2626487D01*
X35021793Y-2387707D01*
X35135776Y-2164002D01*
X35283350Y-1960883D01*
X35460883Y-1783350D01*
X35664002Y-1635776D01*
X35887707Y-1521793D01*
X36126487Y-1444208D01*
X36374465Y-1404932D01*
X36625535Y-1404932D01*
X36873513Y-1444208D01*
G37*
G36*
X41873513Y-1444208D02*
G01*
X42112293Y-1521793D01*
X42335998Y-1635776D01*
X42539117Y-1783350D01*
X42716650Y-1960883D01*
X42864224Y-2164002D01*
X42978207Y-2387707D01*
X43055792Y-2626487D01*
X43095068Y-2874465D01*
X43095068Y-3125535D01*
X43055792Y-3373513D01*
X42978207Y-3612293D01*
X42864224Y-3835998D01*
X42716650Y-4039117D01*
X42539117Y-4216650D01*
X42335998Y-4364224D01*
X42112293Y-4478207D01*
X41873513Y-4555792D01*
X41625535Y-4595068D01*
X41374465Y-4595068D01*
X41126487Y-4555792D01*
X40887707Y-4478207D01*
X40664002Y-4364224D01*
X40460883Y-4216650D01*
X40283350Y-4039117D01*
X40135776Y-3835998D01*
X40021793Y-3612293D01*
X39944208Y-3373513D01*
X39904932Y-3125535D01*
X39904932Y-2874465D01*
X39944208Y-2626487D01*
X40021793Y-2387707D01*
X40135776Y-2164002D01*
X40283350Y-1960883D01*
X40460883Y-1783350D01*
X40664002Y-1635776D01*
X40887707Y-1521793D01*
X41126487Y-1444208D01*
X41374465Y-1404932D01*
X41625535Y-1404932D01*
X41873513Y-1444208D01*
G37*
G36*
X56493513Y-1444208D02*
G01*
X56732293Y-1521793D01*
X56955998Y-1635776D01*
X57159117Y-1783350D01*
X57336650Y-1960883D01*
X57484224Y-2164002D01*
X57598207Y-2387707D01*
X57675792Y-2626487D01*
X57715068Y-2874465D01*
X57715068Y-3125535D01*
X57675792Y-3373513D01*
X57598207Y-3612293D01*
X57484224Y-3835998D01*
X57336650Y-4039117D01*
X57159117Y-4216650D01*
X56955998Y-4364224D01*
X56732293Y-4478207D01*
X56493513Y-4555792D01*
X56245535Y-4595068D01*
X55994465Y-4595068D01*
X55746487Y-4555792D01*
X55507707Y-4478207D01*
X55284002Y-4364224D01*
X55080883Y-4216650D01*
X54903350Y-4039117D01*
X54755776Y-3835998D01*
X54641793Y-3612293D01*
X54564208Y-3373513D01*
X54524932Y-3125535D01*
X54524932Y-2874465D01*
X54564208Y-2626487D01*
X54641793Y-2387707D01*
X54755776Y-2164002D01*
X54903350Y-1960883D01*
X55080883Y-1783350D01*
X55284002Y-1635776D01*
X55507707Y-1521793D01*
X55746487Y-1444208D01*
X55994465Y-1404932D01*
X56245535Y-1404932D01*
X56493513Y-1444208D01*
G37*
G36*
X60873513Y-1444208D02*
G01*
X61112293Y-1521793D01*
X61335998Y-1635776D01*
X61539117Y-1783350D01*
X61716650Y-1960883D01*
X61864224Y-2164002D01*
X61978207Y-2387707D01*
X62055792Y-2626487D01*
X62095068Y-2874465D01*
X62095068Y-3125535D01*
X62055792Y-3373513D01*
X61978207Y-3612293D01*
X61864224Y-3835998D01*
X61716650Y-4039117D01*
X61539117Y-4216650D01*
X61335998Y-4364224D01*
X61112293Y-4478207D01*
X60873513Y-4555792D01*
X60625535Y-4595068D01*
X60374465Y-4595068D01*
X60126487Y-4555792D01*
X59887707Y-4478207D01*
X59664002Y-4364224D01*
X59460883Y-4216650D01*
X59283350Y-4039117D01*
X59135776Y-3835998D01*
X59021793Y-3612293D01*
X58944208Y-3373513D01*
X58904932Y-3125535D01*
X58904932Y-2874465D01*
X58944208Y-2626487D01*
X59021793Y-2387707D01*
X59135776Y-2164002D01*
X59283350Y-1960883D01*
X59460883Y-1783350D01*
X59664002Y-1635776D01*
X59887707Y-1521793D01*
X60126487Y-1444208D01*
X60374465Y-1404932D01*
X60625535Y-1404932D01*
X60873513Y-1444208D01*
G37*
G36*
X113593513Y-1444208D02*
G01*
X113832293Y-1521793D01*
X114055998Y-1635776D01*
X114259117Y-1783350D01*
X114436650Y-1960883D01*
X114584224Y-2164002D01*
X114698207Y-2387707D01*
X114775792Y-2626487D01*
X114815068Y-2874465D01*
X114815068Y-3125535D01*
X114775792Y-3373513D01*
X114698207Y-3612293D01*
X114584224Y-3835998D01*
X114436650Y-4039117D01*
X114259117Y-4216650D01*
X114055998Y-4364224D01*
X113832293Y-4478207D01*
X113593513Y-4555792D01*
X113345535Y-4595068D01*
X113094465Y-4595068D01*
X112846487Y-4555792D01*
X112607707Y-4478207D01*
X112384002Y-4364224D01*
X112180883Y-4216650D01*
X112003350Y-4039117D01*
X111855776Y-3835998D01*
X111741793Y-3612293D01*
X111664208Y-3373513D01*
X111624932Y-3125535D01*
X111624932Y-2874465D01*
X111664208Y-2626487D01*
X111741793Y-2387707D01*
X111855776Y-2164002D01*
X112003350Y-1960883D01*
X112180883Y-1783350D01*
X112384002Y-1635776D01*
X112607707Y-1521793D01*
X112846487Y-1444208D01*
X113094465Y-1404932D01*
X113345535Y-1404932D01*
X113593513Y-1444208D01*
G37*
%LPD*%
M02*
