#VRML V2.0 utf8
# Clearance model; millimetres converted to KiCad VRML units.
Shape { appearance Appearance { material Material { diffuseColor 0.13 0.14 0.16 } } geometry IndexedFaceSet { solid FALSE coord Coordinate { point [ -3.3464567 4.9212598 0.0000000, -3.7401575 4.9212598 0.0000000, -4.0551181 2.8346457 0.0000000, -4.9212598 2.6574803 0.0000000, -6.1417323 4.8425197 0.0000000, -6.4960630 4.7244094 0.0000000, -6.2007874 3.5629921 0.0000000, -6.3582677 3.4645669 0.0000000, -7.9527559 4.8818898 0.0000000, -8.2283465 4.8425197 0.0000000, -8.1889764 4.5669291 0.0000000, -6.5157480 2.6181102 0.0000000, -6.6141732 2.4606299 0.0000000, -8.0511811 2.9527559 0.0000000, -8.2677165 2.7755906 0.0000000, -8.1889764 2.5984252 0.0000000, -5.3307087 0.3976378 0.0000000, -5.0787402 0.0000000 0.0000000, -5.3307087 -0.3976378 0.0000000, -8.1889764 -2.5984252 0.0000000, -8.2677165 -2.7755906 0.0000000, -8.0511811 -2.9527559 0.0000000, -6.6141732 -2.4606299 0.0000000, -6.5157480 -2.6181102 0.0000000, -8.1889764 -4.5669291 0.0000000, -8.2283465 -4.8425197 0.0000000, -7.9527559 -4.8818898 0.0000000, -6.3582677 -3.4645669 0.0000000, -6.2007874 -3.5629921 0.0000000, -6.4960630 -4.7244094 0.0000000, -6.1417323 -4.8425197 0.0000000, -4.9212598 -2.6574803 0.0000000, -4.0551181 -2.8346457 0.0000000, -3.7401575 -4.9212598 0.0000000, -3.3464567 -4.9212598 0.0000000, -3.3464567 4.9212598 25.0000000, -3.7401575 4.9212598 25.0000000, -4.0551181 2.8346457 25.0000000, -4.9212598 2.6574803 25.0000000, -6.1417323 4.8425197 25.0000000, -6.4960630 4.7244094 25.0000000, -6.2007874 3.5629921 25.0000000, -6.3582677 3.4645669 25.0000000, -7.9527559 4.8818898 25.0000000, -8.2283465 4.8425197 25.0000000, -8.1889764 4.5669291 25.0000000, -6.5157480 2.6181102 25.0000000, -6.6141732 2.4606299 25.0000000, -8.0511811 2.9527559 25.0000000, -8.2677165 2.7755906 25.0000000, -8.1889764 2.5984252 25.0000000, -5.3307087 0.3976378 25.0000000, -5.0787402 0.0000000 25.0000000, -5.3307087 -0.3976378 25.0000000, -8.1889764 -2.5984252 25.0000000, -8.2677165 -2.7755906 25.0000000, -8.0511811 -2.9527559 25.0000000, -6.6141732 -2.4606299 25.0000000, -6.5157480 -2.6181102 25.0000000, -8.1889764 -4.5669291 25.0000000, -8.2283465 -4.8425197 25.0000000, -7.9527559 -4.8818898 25.0000000, -6.3582677 -3.4645669 25.0000000, -6.2007874 -3.5629921 25.0000000, -6.4960630 -4.7244094 25.0000000, -6.1417323 -4.8425197 25.0000000, -4.9212598 -2.6574803 25.0000000, -4.0551181 -2.8346457 25.0000000, -3.7401575 -4.9212598 25.0000000, -3.3464567 -4.9212598 25.0000000 ] } coordIndex [ 34 33 32 31 30 29 28 27 26 25 24 23 22 21 20 19 18 17 16 15 14 13 12 11 10 9 8 7 6 5 4 3 2 1 0 -1, 35 36 37 38 39 40 41 42 43 44 45 46 47 48 49 50 51 52 53 54 55 56 57 58 59 60 61 62 63 64 65 66 67 68 69 -1, 0 1 36 35 -1, 1 2 37 36 -1, 2 3 38 37 -1, 3 4 39 38 -1, 4 5 40 39 -1, 5 6 41 40 -1, 6 7 42 41 -1, 7 8 43 42 -1, 8 9 44 43 -1, 9 10 45 44 -1, 10 11 46 45 -1, 11 12 47 46 -1, 12 13 48 47 -1, 13 14 49 48 -1, 14 15 50 49 -1, 15 16 51 50 -1, 16 17 52 51 -1, 17 18 53 52 -1, 18 19 54 53 -1, 19 20 55 54 -1, 20 21 56 55 -1, 21 22 57 56 -1, 22 23 58 57 -1, 23 24 59 58 -1, 24 25 60 59 -1, 25 26 61 60 -1, 26 27 62 61 -1, 27 28 63 62 -1, 28 29 64 63 -1, 29 30 65 64 -1, 30 31 66 65 -1, 31 32 67 66 -1, 32 33 68 67 -1, 33 34 69 68 -1, 34 0 35 69 -1 ] } }
Shape { appearance Appearance { material Material { diffuseColor 0.13 0.14 0.16 } } geometry IndexedFaceSet { solid FALSE coord Coordinate { point [ 3.3464567 4.9212598 0.0000000, 3.7401575 4.9212598 0.0000000, 4.0551181 2.8346457 0.0000000, 4.9212598 2.6574803 0.0000000, 6.1417323 4.8425197 0.0000000, 6.4960630 4.7244094 0.0000000, 6.2007874 3.5629921 0.0000000, 6.3582677 3.4645669 0.0000000, 7.9527559 4.8818898 0.0000000, 8.2283465 4.8425197 0.0000000, 8.1889764 4.5669291 0.0000000, 6.5157480 2.6181102 0.0000000, 6.6141732 2.4606299 0.0000000, 8.0511811 2.9527559 0.0000000, 8.2677165 2.7755906 0.0000000, 8.1889764 2.5984252 0.0000000, 5.3307087 0.3976378 0.0000000, 5.0787402 0.0000000 0.0000000, 5.3307087 -0.3976378 0.0000000, 8.1889764 -2.5984252 0.0000000, 8.2677165 -2.7755906 0.0000000, 8.0511811 -2.9527559 0.0000000, 6.6141732 -2.4606299 0.0000000, 6.5157480 -2.6181102 0.0000000, 8.1889764 -4.5669291 0.0000000, 8.2283465 -4.8425197 0.0000000, 7.9527559 -4.8818898 0.0000000, 6.3582677 -3.4645669 0.0000000, 6.2007874 -3.5629921 0.0000000, 6.4960630 -4.7244094 0.0000000, 6.1417323 -4.8425197 0.0000000, 4.9212598 -2.6574803 0.0000000, 4.0551181 -2.8346457 0.0000000, 3.7401575 -4.9212598 0.0000000, 3.3464567 -4.9212598 0.0000000, 3.3464567 4.9212598 25.0000000, 3.7401575 4.9212598 25.0000000, 4.0551181 2.8346457 25.0000000, 4.9212598 2.6574803 25.0000000, 6.1417323 4.8425197 25.0000000, 6.4960630 4.7244094 25.0000000, 6.2007874 3.5629921 25.0000000, 6.3582677 3.4645669 25.0000000, 7.9527559 4.8818898 25.0000000, 8.2283465 4.8425197 25.0000000, 8.1889764 4.5669291 25.0000000, 6.5157480 2.6181102 25.0000000, 6.6141732 2.4606299 25.0000000, 8.0511811 2.9527559 25.0000000, 8.2677165 2.7755906 25.0000000, 8.1889764 2.5984252 25.0000000, 5.3307087 0.3976378 25.0000000, 5.0787402 0.0000000 25.0000000, 5.3307087 -0.3976378 25.0000000, 8.1889764 -2.5984252 25.0000000, 8.2677165 -2.7755906 25.0000000, 8.0511811 -2.9527559 25.0000000, 6.6141732 -2.4606299 25.0000000, 6.5157480 -2.6181102 25.0000000, 8.1889764 -4.5669291 25.0000000, 8.2283465 -4.8425197 25.0000000, 7.9527559 -4.8818898 25.0000000, 6.3582677 -3.4645669 25.0000000, 6.2007874 -3.5629921 25.0000000, 6.4960630 -4.7244094 25.0000000, 6.1417323 -4.8425197 25.0000000, 4.9212598 -2.6574803 25.0000000, 4.0551181 -2.8346457 25.0000000, 3.7401575 -4.9212598 25.0000000, 3.3464567 -4.9212598 25.0000000 ] } coordIndex [ 34 33 32 31 30 29 28 27 26 25 24 23 22 21 20 19 18 17 16 15 14 13 12 11 10 9 8 7 6 5 4 3 2 1 0 -1, 35 36 37 38 39 40 41 42 43 44 45 46 47 48 49 50 51 52 53 54 55 56 57 58 59 60 61 62 63 64 65 66 67 68 69 -1, 0 1 36 35 -1, 1 2 37 36 -1, 2 3 38 37 -1, 3 4 39 38 -1, 4 5 40 39 -1, 5 6 41 40 -1, 6 7 42 41 -1, 7 8 43 42 -1, 8 9 44 43 -1, 9 10 45 44 -1, 10 11 46 45 -1, 11 12 47 46 -1, 12 13 48 47 -1, 13 14 49 48 -1, 14 15 50 49 -1, 15 16 51 50 -1, 16 17 52 51 -1, 17 18 53 52 -1, 18 19 54 53 -1, 19 20 55 54 -1, 20 21 56 55 -1, 21 22 57 56 -1, 22 23 58 57 -1, 23 24 59 58 -1, 24 25 60 59 -1, 25 26 61 60 -1, 26 27 62 61 -1, 27 28 63 62 -1, 28 29 64 63 -1, 29 30 65 64 -1, 30 31 66 65 -1, 31 32 67 66 -1, 32 33 68 67 -1, 33 34 69 68 -1, 34 0 35 69 -1 ] } }
Transform { translation 0.0000000 0.0000000 2.3425197 children [ Shape { appearance Appearance { material Material { diffuseColor 0.13 0.14 0.16 } } geometry Box { size 6.6929134 0.7086614 4.6850394 } } ] }
Transform { translation -1.9881890 0.0000000 5.3149606 children [ Shape { appearance Appearance { material Material { diffuseColor 0.13 0.14 0.16 } } geometry Box { size 2.7165354 0.7086614 1.2598425 } } ] }
Transform { translation 1.9881890 0.0000000 5.3149606 children [ Shape { appearance Appearance { material Material { diffuseColor 0.13 0.14 0.16 } } geometry Box { size 2.7165354 0.7086614 1.2598425 } } ] }
Transform { translation 0.0000000 0.0000000 6.2598425 children [ Shape { appearance Appearance { material Material { diffuseColor 0.13 0.14 0.16 } } geometry Box { size 6.6929134 0.7086614 0.6299213 } } ] }
Transform { translation -1.9881890 0.0000000 7.2047244 children [ Shape { appearance Appearance { material Material { diffuseColor 0.13 0.14 0.16 } } geometry Box { size 2.7165354 0.7086614 1.2598425 } } ] }
Transform { translation 1.9881890 0.0000000 7.2047244 children [ Shape { appearance Appearance { material Material { diffuseColor 0.13 0.14 0.16 } } geometry Box { size 2.7165354 0.7086614 1.2598425 } } ] }
Transform { translation 0.0000000 0.0000000 8.6023622 children [ Shape { appearance Appearance { material Material { diffuseColor 0.13 0.14 0.16 } } geometry Box { size 6.6929134 0.7086614 1.5354331 } } ] }
Transform { translation -1.9881890 0.0000000 10.0000000 children [ Shape { appearance Appearance { material Material { diffuseColor 0.13 0.14 0.16 } } geometry Box { size 2.7165354 0.7086614 1.2598425 } } ] }
Transform { translation 1.9881890 0.0000000 10.0000000 children [ Shape { appearance Appearance { material Material { diffuseColor 0.13 0.14 0.16 } } geometry Box { size 2.7165354 0.7086614 1.2598425 } } ] }
Transform { translation 0.0000000 0.0000000 17.8149606 children [ Shape { appearance Appearance { material Material { diffuseColor 0.13 0.14 0.16 } } geometry Box { size 6.6929134 0.7086614 14.3700787 } } ] }
Shape { appearance Appearance { material Material { diffuseColor 0.7 0.7 0.68 } } geometry IndexedFaceSet { solid FALSE coord Coordinate { point [ -4.5472441 0.0000000 -1.7716535, -4.5626714 -0.1171819 -1.7716535, -4.6079019 -0.2263780 -1.7716535, -4.6798532 -0.3201468 -1.7716535, -4.7736220 -0.3920981 -1.7716535, -4.8828181 -0.4373286 -1.7716535, -5.0000000 -0.4527559 -1.7716535, -5.1171819 -0.4373286 -1.7716535, -5.2263780 -0.3920981 -1.7716535, -5.3201468 -0.3201468 -1.7716535, -5.3920981 -0.2263780 -1.7716535, -5.4373286 -0.1171819 -1.7716535, -5.4527559 -0.0000000 -1.7716535, -5.4373286 0.1171819 -1.7716535, -5.3920981 0.2263780 -1.7716535, -5.3201468 0.3201468 -1.7716535, -5.2263780 0.3920981 -1.7716535, -5.1171819 0.4373286 -1.7716535, -5.0000000 0.4527559 -1.7716535, -4.8828181 0.4373286 -1.7716535, -4.7736220 0.3920981 -1.7716535, -4.6798532 0.3201468 -1.7716535, -4.6079019 0.2263780 -1.7716535, -4.5626714 0.1171819 -1.7716535, -4.5472441 0.0000000 0.0000000, -4.5626714 -0.1171819 0.0000000, -4.6079019 -0.2263780 0.0000000, -4.6798532 -0.3201468 0.0000000, -4.7736220 -0.3920981 0.0000000, -4.8828181 -0.4373286 0.0000000, -5.0000000 -0.4527559 0.0000000, -5.1171819 -0.4373286 0.0000000, -5.2263780 -0.3920981 0.0000000, -5.3201468 -0.3201468 0.0000000, -5.3920981 -0.2263780 0.0000000, -5.4373286 -0.1171819 0.0000000, -5.4527559 -0.0000000 0.0000000, -5.4373286 0.1171819 0.0000000, -5.3920981 0.2263780 0.0000000, -5.3201468 0.3201468 0.0000000, -5.2263780 0.3920981 0.0000000, -5.1171819 0.4373286 0.0000000, -5.0000000 0.4527559 0.0000000, -4.8828181 0.4373286 0.0000000, -4.7736220 0.3920981 0.0000000, -4.6798532 0.3201468 0.0000000, -4.6079019 0.2263780 0.0000000, -4.5626714 0.1171819 0.0000000, -5.0000000 0.0000000 -1.7716535, -5.0000000 0.0000000 0.0000000 ] } coordIndex [ 0 1 25 -1, 0 25 24 -1, 48 1 0 -1, 49 24 25 -1, 1 2 26 -1, 1 26 25 -1, 48 2 1 -1, 49 25 26 -1, 2 3 27 -1, 2 27 26 -1, 48 3 2 -1, 49 26 27 -1, 3 4 28 -1, 3 28 27 -1, 48 4 3 -1, 49 27 28 -1, 4 5 29 -1, 4 29 28 -1, 48 5 4 -1, 49 28 29 -1, 5 6 30 -1, 5 30 29 -1, 48 6 5 -1, 49 29 30 -1, 6 7 31 -1, 6 31 30 -1, 48 7 6 -1, 49 30 31 -1, 7 8 32 -1, 7 32 31 -1, 48 8 7 -1, 49 31 32 -1, 8 9 33 -1, 8 33 32 -1, 48 9 8 -1, 49 32 33 -1, 9 10 34 -1, 9 34 33 -1, 48 10 9 -1, 49 33 34 -1, 10 11 35 -1, 10 35 34 -1, 48 11 10 -1, 49 34 35 -1, 11 12 36 -1, 11 36 35 -1, 48 12 11 -1, 49 35 36 -1, 12 13 37 -1, 12 37 36 -1, 48 13 12 -1, 49 36 37 -1, 13 14 38 -1, 13 38 37 -1, 48 14 13 -1, 49 37 38 -1, 14 15 39 -1, 14 39 38 -1, 48 15 14 -1, 49 38 39 -1, 15 16 40 -1, 15 40 39 -1, 48 16 15 -1, 49 39 40 -1, 16 17 41 -1, 16 41 40 -1, 48 17 16 -1, 49 40 41 -1, 17 18 42 -1, 17 42 41 -1, 48 18 17 -1, 49 41 42 -1, 18 19 43 -1, 18 43 42 -1, 48 19 18 -1, 49 42 43 -1, 19 20 44 -1, 19 44 43 -1, 48 20 19 -1, 49 43 44 -1, 20 21 45 -1, 20 45 44 -1, 48 21 20 -1, 49 44 45 -1, 21 22 46 -1, 21 46 45 -1, 48 22 21 -1, 49 45 46 -1, 22 23 47 -1, 22 47 46 -1, 48 23 22 -1, 49 46 47 -1, 23 0 24 -1, 23 24 47 -1, 48 0 23 -1, 49 47 24 -1 ] } }
Shape { appearance Appearance { material Material { diffuseColor 0.7 0.7 0.68 } } geometry IndexedFaceSet { solid FALSE coord Coordinate { point [ 5.4527559 0.0000000 -1.7716535, 5.4373286 -0.1171819 -1.7716535, 5.3920981 -0.2263780 -1.7716535, 5.3201468 -0.3201468 -1.7716535, 5.2263780 -0.3920981 -1.7716535, 5.1171819 -0.4373286 -1.7716535, 5.0000000 -0.4527559 -1.7716535, 4.8828181 -0.4373286 -1.7716535, 4.7736220 -0.3920981 -1.7716535, 4.6798532 -0.3201468 -1.7716535, 4.6079019 -0.2263780 -1.7716535, 4.5626714 -0.1171819 -1.7716535, 4.5472441 -0.0000000 -1.7716535, 4.5626714 0.1171819 -1.7716535, 4.6079019 0.2263780 -1.7716535, 4.6798532 0.3201468 -1.7716535, 4.7736220 0.3920981 -1.7716535, 4.8828181 0.4373286 -1.7716535, 5.0000000 0.4527559 -1.7716535, 5.1171819 0.4373286 -1.7716535, 5.2263780 0.3920981 -1.7716535, 5.3201468 0.3201468 -1.7716535, 5.3920981 0.2263780 -1.7716535, 5.4373286 0.1171819 -1.7716535, 5.4527559 0.0000000 0.0000000, 5.4373286 -0.1171819 0.0000000, 5.3920981 -0.2263780 0.0000000, 5.3201468 -0.3201468 0.0000000, 5.2263780 -0.3920981 0.0000000, 5.1171819 -0.4373286 0.0000000, 5.0000000 -0.4527559 0.0000000, 4.8828181 -0.4373286 0.0000000, 4.7736220 -0.3920981 0.0000000, 4.6798532 -0.3201468 0.0000000, 4.6079019 -0.2263780 0.0000000, 4.5626714 -0.1171819 0.0000000, 4.5472441 -0.0000000 0.0000000, 4.5626714 0.1171819 0.0000000, 4.6079019 0.2263780 0.0000000, 4.6798532 0.3201468 0.0000000, 4.7736220 0.3920981 0.0000000, 4.8828181 0.4373286 0.0000000, 5.0000000 0.4527559 0.0000000, 5.1171819 0.4373286 0.0000000, 5.2263780 0.3920981 0.0000000, 5.3201468 0.3201468 0.0000000, 5.3920981 0.2263780 0.0000000, 5.4373286 0.1171819 0.0000000, 5.0000000 0.0000000 -1.7716535, 5.0000000 0.0000000 0.0000000 ] } coordIndex [ 0 1 25 -1, 0 25 24 -1, 48 1 0 -1, 49 24 25 -1, 1 2 26 -1, 1 26 25 -1, 48 2 1 -1, 49 25 26 -1, 2 3 27 -1, 2 27 26 -1, 48 3 2 -1, 49 26 27 -1, 3 4 28 -1, 3 28 27 -1, 48 4 3 -1, 49 27 28 -1, 4 5 29 -1, 4 29 28 -1, 48 5 4 -1, 49 28 29 -1, 5 6 30 -1, 5 30 29 -1, 48 6 5 -1, 49 29 30 -1, 6 7 31 -1, 6 31 30 -1, 48 7 6 -1, 49 30 31 -1, 7 8 32 -1, 7 32 31 -1, 48 8 7 -1, 49 31 32 -1, 8 9 33 -1, 8 33 32 -1, 48 9 8 -1, 49 32 33 -1, 9 10 34 -1, 9 34 33 -1, 48 10 9 -1, 49 33 34 -1, 10 11 35 -1, 10 35 34 -1, 48 11 10 -1, 49 34 35 -1, 11 12 36 -1, 11 36 35 -1, 48 12 11 -1, 49 35 36 -1, 12 13 37 -1, 12 37 36 -1, 48 13 12 -1, 49 36 37 -1, 13 14 38 -1, 13 38 37 -1, 48 14 13 -1, 49 37 38 -1, 14 15 39 -1, 14 39 38 -1, 48 15 14 -1, 49 38 39 -1, 15 16 40 -1, 15 40 39 -1, 48 16 15 -1, 49 39 40 -1, 16 17 41 -1, 16 41 40 -1, 48 17 16 -1, 49 40 41 -1, 17 18 42 -1, 17 42 41 -1, 48 18 17 -1, 49 41 42 -1, 18 19 43 -1, 18 43 42 -1, 48 19 18 -1, 49 42 43 -1, 19 20 44 -1, 19 44 43 -1, 48 20 19 -1, 49 43 44 -1, 20 21 45 -1, 20 45 44 -1, 48 21 20 -1, 49 44 45 -1, 21 22 46 -1, 21 46 45 -1, 48 22 21 -1, 49 45 46 -1, 22 23 47 -1, 22 47 46 -1, 48 23 22 -1, 49 46 47 -1, 23 0 24 -1, 23 24 47 -1, 48 0 23 -1, 49 47 24 -1 ] } }
