#VRML V2.0 utf8
# Clearance model; millimetres converted to KiCad VRML units.
Transform { translation 0.0000000 -0.5000000 0.5905512 children [ Shape { appearance Appearance { material Material { diffuseColor 0.13 0.14 0.16 } } geometry Box { size 0.9842520 1.9685039 1.1811024 } } ] }
Transform { translation 0.0000000 0.0000000 1.5748031 children [ Shape { appearance Appearance { material Material { diffuseColor 0.7 0.7 0.68 } } geometry Box { size 0.2519685 0.2519685 3.1496063 } } ] }
Transform { translation 0.0000000 -1.0000000 1.5748031 children [ Shape { appearance Appearance { material Material { diffuseColor 0.7 0.7 0.68 } } geometry Box { size 0.2519685 0.2519685 3.1496063 } } ] }
