#VRML V2.0 utf8
# Clearance model; millimetres converted to KiCad VRML units.
Shape { appearance Appearance { material Material { diffuseColor 0.65 0.23 0.16 } } geometry IndexedFaceSet { solid FALSE coord Coordinate { point [ 1.3346457 -0.7677165 1.9488189, 1.3346457 -0.7415572 2.1475186, 1.3346457 -0.6648620 2.3326772, 1.3346457 -0.5428576 2.4916765, 1.3346457 -0.3838583 2.6136809, 1.3346457 -0.1986997 2.6903761, 1.3346457 -0.0000000 2.7165354, 1.3346457 0.1986997 2.6903761, 1.3346457 0.3838583 2.6136809, 1.3346457 0.5428576 2.4916765, 1.3346457 0.6648620 2.3326772, 1.3346457 0.7415572 2.1475186, 1.3346457 0.7677165 1.9488189, 1.3346457 0.7415572 1.7501192, 1.3346457 0.6648620 1.5649606, 1.3346457 0.5428576 1.4059613, 1.3346457 0.3838583 1.2839569, 1.3346457 0.1986997 1.2072617, 1.3346457 0.0000000 1.1811024, 1.3346457 -0.1986997 1.2072617, 1.3346457 -0.3838583 1.2839569, 1.3346457 -0.5428576 1.4059613, 1.3346457 -0.6648620 1.5649606, 1.3346457 -0.7415572 1.7501192, 5.6653543 -0.7677165 1.9488189, 5.6653543 -0.7415572 2.1475186, 5.6653543 -0.6648620 2.3326772, 5.6653543 -0.5428576 2.4916765, 5.6653543 -0.3838583 2.6136809, 5.6653543 -0.1986997 2.6903761, 5.6653543 -0.0000000 2.7165354, 5.6653543 0.1986997 2.6903761, 5.6653543 0.3838583 2.6136809, 5.6653543 0.5428576 2.4916765, 5.6653543 0.6648620 2.3326772, 5.6653543 0.7415572 2.1475186, 5.6653543 0.7677165 1.9488189, 5.6653543 0.7415572 1.7501192, 5.6653543 0.6648620 1.5649606, 5.6653543 0.5428576 1.4059613, 5.6653543 0.3838583 1.2839569, 5.6653543 0.1986997 1.2072617, 5.6653543 0.0000000 1.1811024, 5.6653543 -0.1986997 1.2072617, 5.6653543 -0.3838583 1.2839569, 5.6653543 -0.5428576 1.4059613, 5.6653543 -0.6648620 1.5649606, 5.6653543 -0.7415572 1.7501192, 1.3346457 0.0000000 1.9488189, 5.6653543 0.0000000 1.9488189 ] } coordIndex [ 0 1 25 -1, 0 25 24 -1, 48 1 0 -1, 49 24 25 -1, 1 2 26 -1, 1 26 25 -1, 48 2 1 -1, 49 25 26 -1, 2 3 27 -1, 2 27 26 -1, 48 3 2 -1, 49 26 27 -1, 3 4 28 -1, 3 28 27 -1, 48 4 3 -1, 49 27 28 -1, 4 5 29 -1, 4 29 28 -1, 48 5 4 -1, 49 28 29 -1, 5 6 30 -1, 5 30 29 -1, 48 6 5 -1, 49 29 30 -1, 6 7 31 -1, 6 31 30 -1, 48 7 6 -1, 49 30 31 -1, 7 8 32 -1, 7 32 31 -1, 48 8 7 -1, 49 31 32 -1, 8 9 33 -1, 8 33 32 -1, 48 9 8 -1, 49 32 33 -1, 9 10 34 -1, 9 34 33 -1, 48 10 9 -1, 49 33 34 -1, 10 11 35 -1, 10 35 34 -1, 48 11 10 -1, 49 34 35 -1, 11 12 36 -1, 11 36 35 -1, 48 12 11 -1, 49 35 36 -1, 12 13 37 -1, 12 37 36 -1, 48 13 12 -1, 49 36 37 -1, 13 14 38 -1, 13 38 37 -1, 48 14 13 -1, 49 37 38 -1, 14 15 39 -1, 14 39 38 -1, 48 15 14 -1, 49 38 39 -1, 15 16 40 -1, 15 40 39 -1, 48 16 15 -1, 49 39 40 -1, 16 17 41 -1, 16 41 40 -1, 48 17 16 -1, 49 40 41 -1, 17 18 42 -1, 17 42 41 -1, 48 18 17 -1, 49 41 42 -1, 18 19 43 -1, 18 43 42 -1, 48 19 18 -1, 49 42 43 -1, 19 20 44 -1, 19 44 43 -1, 48 20 19 -1, 49 43 44 -1, 20 21 45 -1, 20 45 44 -1, 48 21 20 -1, 49 44 45 -1, 21 22 46 -1, 21 46 45 -1, 48 22 21 -1, 49 45 46 -1, 22 23 47 -1, 22 47 46 -1, 48 23 22 -1, 49 46 47 -1, 23 0 24 -1, 23 24 47 -1, 48 0 23 -1, 49 47 24 -1 ] } }
Transform { translation 3.5000000 0.0000000 1.9488189 children [ Shape { appearance Appearance { material Material { diffuseColor 0.7 0.7 0.68 } } geometry Box { size 7.0000000 0.2165354 0.2165354 } } ] }
Shape { appearance Appearance { material Material { diffuseColor 0.7 0.7 0.68 } } geometry IndexedFaceSet { solid FALSE coord Coordinate { point [ 0.1102362 0.0000000 -0.6299213, 0.1064800 -0.0285312 -0.6299213, 0.0954674 -0.0551181 -0.6299213, 0.0779488 -0.0779488 -0.6299213, 0.0551181 -0.0954674 -0.6299213, 0.0285312 -0.1064800 -0.6299213, 0.0000000 -0.1102362 -0.6299213, -0.0285312 -0.1064800 -0.6299213, -0.0551181 -0.0954674 -0.6299213, -0.0779488 -0.0779488 -0.6299213, -0.0954674 -0.0551181 -0.6299213, -0.1064800 -0.0285312 -0.6299213, -0.1102362 -0.0000000 -0.6299213, -0.1064800 0.0285312 -0.6299213, -0.0954674 0.0551181 -0.6299213, -0.0779488 0.0779488 -0.6299213, -0.0551181 0.0954674 -0.6299213, -0.0285312 0.1064800 -0.6299213, -0.0000000 0.1102362 -0.6299213, 0.0285312 0.1064800 -0.6299213, 0.0551181 0.0954674 -0.6299213, 0.0779488 0.0779488 -0.6299213, 0.0954674 0.0551181 -0.6299213, 0.1064800 0.0285312 -0.6299213, 0.1102362 0.0000000 1.9488189, 0.1064800 -0.0285312 1.9488189, 0.0954674 -0.0551181 1.9488189, 0.0779488 -0.0779488 1.9488189, 0.0551181 -0.0954674 1.9488189, 0.0285312 -0.1064800 1.9488189, 0.0000000 -0.1102362 1.9488189, -0.0285312 -0.1064800 1.9488189, -0.0551181 -0.0954674 1.9488189, -0.0779488 -0.0779488 1.9488189, -0.0954674 -0.0551181 1.9488189, -0.1064800 -0.0285312 1.9488189, -0.1102362 -0.0000000 1.9488189, -0.1064800 0.0285312 1.9488189, -0.0954674 0.0551181 1.9488189, -0.0779488 0.0779488 1.9488189, -0.0551181 0.0954674 1.9488189, -0.0285312 0.1064800 1.9488189, -0.0000000 0.1102362 1.9488189, 0.0285312 0.1064800 1.9488189, 0.0551181 0.0954674 1.9488189, 0.0779488 0.0779488 1.9488189, 0.0954674 0.0551181 1.9488189, 0.1064800 0.0285312 1.9488189, 0.0000000 0.0000000 -0.6299213, 0.0000000 0.0000000 1.9488189 ] } coordIndex [ 0 1 25 -1, 0 25 24 -1, 48 1 0 -1, 49 24 25 -1, 1 2 26 -1, 1 26 25 -1, 48 2 1 -1, 49 25 26 -1, 2 3 27 -1, 2 27 26 -1, 48 3 2 -1, 49 26 27 -1, 3 4 28 -1, 3 28 27 -1, 48 4 3 -1, 49 27 28 -1, 4 5 29 -1, 4 29 28 -1, 48 5 4 -1, 49 28 29 -1, 5 6 30 -1, 5 30 29 -1, 48 6 5 -1, 49 29 30 -1, 6 7 31 -1, 6 31 30 -1, 48 7 6 -1, 49 30 31 -1, 7 8 32 -1, 7 32 31 -1, 48 8 7 -1, 49 31 32 -1, 8 9 33 -1, 8 33 32 -1, 48 9 8 -1, 49 32 33 -1, 9 10 34 -1, 9 34 33 -1, 48 10 9 -1, 49 33 34 -1, 10 11 35 -1, 10 35 34 -1, 48 11 10 -1, 49 34 35 -1, 11 12 36 -1, 11 36 35 -1, 48 12 11 -1, 49 35 36 -1, 12 13 37 -1, 12 37 36 -1, 48 13 12 -1, 49 36 37 -1, 13 14 38 -1, 13 38 37 -1, 48 14 13 -1, 49 37 38 -1, 14 15 39 -1, 14 39 38 -1, 48 15 14 -1, 49 38 39 -1, 15 16 40 -1, 15 40 39 -1, 48 16 15 -1, 49 39 40 -1, 16 17 41 -1, 16 41 40 -1, 48 17 16 -1, 49 40 41 -1, 17 18 42 -1, 17 42 41 -1, 48 18 17 -1, 49 41 42 -1, 18 19 43 -1, 18 43 42 -1, 48 19 18 -1, 49 42 43 -1, 19 20 44 -1, 19 44 43 -1, 48 20 19 -1, 49 43 44 -1, 20 21 45 -1, 20 45 44 -1, 48 21 20 -1, 49 44 45 -1, 21 22 46 -1, 21 46 45 -1, 48 22 21 -1, 49 45 46 -1, 22 23 47 -1, 22 47 46 -1, 48 23 22 -1, 49 46 47 -1, 23 0 24 -1, 23 24 47 -1, 48 0 23 -1, 49 47 24 -1 ] } }
Shape { appearance Appearance { material Material { diffuseColor 0.7 0.7 0.68 } } geometry IndexedFaceSet { solid FALSE coord Coordinate { point [ 7.1102362 0.0000000 -0.6299213, 7.1064800 -0.0285312 -0.6299213, 7.0954674 -0.0551181 -0.6299213, 7.0779488 -0.0779488 -0.6299213, 7.0551181 -0.0954674 -0.6299213, 7.0285312 -0.1064800 -0.6299213, 7.0000000 -0.1102362 -0.6299213, 6.9714688 -0.1064800 -0.6299213, 6.9448819 -0.0954674 -0.6299213, 6.9220512 -0.0779488 -0.6299213, 6.9045326 -0.0551181 -0.6299213, 6.8935200 -0.0285312 -0.6299213, 6.8897638 -0.0000000 -0.6299213, 6.8935200 0.0285312 -0.6299213, 6.9045326 0.0551181 -0.6299213, 6.9220512 0.0779488 -0.6299213, 6.9448819 0.0954674 -0.6299213, 6.9714688 0.1064800 -0.6299213, 7.0000000 0.1102362 -0.6299213, 7.0285312 0.1064800 -0.6299213, 7.0551181 0.0954674 -0.6299213, 7.0779488 0.0779488 -0.6299213, 7.0954674 0.0551181 -0.6299213, 7.1064800 0.0285312 -0.6299213, 7.1102362 0.0000000 1.9488189, 7.1064800 -0.0285312 1.9488189, 7.0954674 -0.0551181 1.9488189, 7.0779488 -0.0779488 1.9488189, 7.0551181 -0.0954674 1.9488189, 7.0285312 -0.1064800 1.9488189, 7.0000000 -0.1102362 1.9488189, 6.9714688 -0.1064800 1.9488189, 6.9448819 -0.0954674 1.9488189, 6.9220512 -0.0779488 1.9488189, 6.9045326 -0.0551181 1.9488189, 6.8935200 -0.0285312 1.9488189, 6.8897638 -0.0000000 1.9488189, 6.8935200 0.0285312 1.9488189, 6.9045326 0.0551181 1.9488189, 6.9220512 0.0779488 1.9488189, 6.9448819 0.0954674 1.9488189, 6.9714688 0.1064800 1.9488189, 7.0000000 0.1102362 1.9488189, 7.0285312 0.1064800 1.9488189, 7.0551181 0.0954674 1.9488189, 7.0779488 0.0779488 1.9488189, 7.0954674 0.0551181 1.9488189, 7.1064800 0.0285312 1.9488189, 7.0000000 0.0000000 -0.6299213, 7.0000000 0.0000000 1.9488189 ] } coordIndex [ 0 1 25 -1, 0 25 24 -1, 48 1 0 -1, 49 24 25 -1, 1 2 26 -1, 1 26 25 -1, 48 2 1 -1, 49 25 26 -1, 2 3 27 -1, 2 27 26 -1, 48 3 2 -1, 49 26 27 -1, 3 4 28 -1, 3 28 27 -1, 48 4 3 -1, 49 27 28 -1, 4 5 29 -1, 4 29 28 -1, 48 5 4 -1, 49 28 29 -1, 5 6 30 -1, 5 30 29 -1, 48 6 5 -1, 49 29 30 -1, 6 7 31 -1, 6 31 30 -1, 48 7 6 -1, 49 30 31 -1, 7 8 32 -1, 7 32 31 -1, 48 8 7 -1, 49 31 32 -1, 8 9 33 -1, 8 33 32 -1, 48 9 8 -1, 49 32 33 -1, 9 10 34 -1, 9 34 33 -1, 48 10 9 -1, 49 33 34 -1, 10 11 35 -1, 10 35 34 -1, 48 11 10 -1, 49 34 35 -1, 11 12 36 -1, 11 36 35 -1, 48 12 11 -1, 49 35 36 -1, 12 13 37 -1, 12 37 36 -1, 48 13 12 -1, 49 36 37 -1, 13 14 38 -1, 13 38 37 -1, 48 14 13 -1, 49 37 38 -1, 14 15 39 -1, 14 39 38 -1, 48 15 14 -1, 49 38 39 -1, 15 16 40 -1, 15 40 39 -1, 48 16 15 -1, 49 39 40 -1, 16 17 41 -1, 16 41 40 -1, 48 17 16 -1, 49 40 41 -1, 17 18 42 -1, 17 42 41 -1, 48 18 17 -1, 49 41 42 -1, 18 19 43 -1, 18 43 42 -1, 48 19 18 -1, 49 42 43 -1, 19 20 44 -1, 19 44 43 -1, 48 20 19 -1, 49 43 44 -1, 20 21 45 -1, 20 45 44 -1, 48 21 20 -1, 49 44 45 -1, 21 22 46 -1, 21 46 45 -1, 48 22 21 -1, 49 45 46 -1, 22 23 47 -1, 22 47 46 -1, 48 23 22 -1, 49 46 47 -1, 23 0 24 -1, 23 24 47 -1, 48 0 23 -1, 49 47 24 -1 ] } }
