M48
; DRILL file KiCad 10.0.6 date 2026-10-04T14:02:25
; FORMAT={-:-/ absolute / metric / decimal}
; #@! TF.CreationDate,2026-10-04T14:02:25+02:00
; #@! TF.GenerationSoftware,Kicad,Pcbnew,10.0.6
; #@! TF.FileFunction,Plated,1,2,PTH
FMAT,2
METRIC
; #@! TA.AperFunction,Plated,PTH,ViaDrill
T1C0.400
; #@! TA.AperFunction,Plated,PTH,ComponentDrill
T2C0.800
; #@! TA.AperFunction,Plated,PTH,ComponentDrill
T3C0.900
; #@! TA.AperFunction,Plated,PTH,ComponentDrill
T4C1.000
%
G90
G05
T1
X1.643Y-32.574
X2.374Y-23.151
X4.925Y-28.529
X6.533Y-36.386
X6.902Y-57.879
X7.19Y-28.0
X8.353Y-22.075
X9.595Y-63.045
X10.0Y-80.0
X10.129Y-32.865
X10.152Y-38.814
X10.365Y-35.79
X12.237Y-12.001
X12.336Y-60.582
X12.89Y-64.55
X13.551Y-39.323
X13.901Y-84.93
X14.417Y-32.757
X14.81Y-28.0
X14.84Y-8.0
X14.956Y-64.508
X16.072Y-27.144
X16.848Y-29.438
X18.19Y-28.0
X18.322Y-18.155
X18.488Y-15.494
X19.821Y-38.123
X19.873Y-91.918
X19.971Y-16.566
X20.934Y-61.632
X21.125Y-49.655
X21.409Y-20.79
X21.464Y-37.721
X21.863Y-32.175
X23.235Y-37.774
X23.739Y-48.287
X23.873Y-28.858
X24.13Y-41.809
X24.91Y-20.788
X25.81Y-28.0
X26.126Y-87.505
X26.76Y-37.752
X26.802Y-49.847
X26.854Y-91.194
X26.926Y-33.869
X27.004Y-26.311
X27.135Y-16.8
X27.57Y-20.769
X28.0Y-8.0
X28.529Y-29.412
X28.581Y-70.046
X28.826Y-80.495
X29.359Y-17.891
X29.577Y-37.323
X29.69Y-28.0
X29.903Y-21.047
X30.325Y-34.582
X32.131Y-40.656
X32.297Y-49.566
X32.73Y-18.302
X33.376Y-34.219
X34.308Y-48.789
X34.438Y-23.834
X34.706Y-39.487
X34.77Y-37.694
X35.0Y-70.0
X35.0Y-90.0
X35.818Y-40.824
X35.902Y-42.819
X36.246Y-21.273
X36.529Y-32.568
X36.66Y-11.725
X37.247Y-36.87
X37.31Y-28.0
X37.396Y-33.329
X38.007Y-23.747
X38.259Y-58.064
X39.875Y-33.152
X41.2Y-55.548
X41.23Y-18.154
X41.23Y-20.585
X41.23Y-22.217
X41.609Y-19.433
X42.965Y-61.642
X43.054Y-36.929
X44.865Y-19.917
X44.948Y-44.622
X45.0Y-10.0
X45.0Y-90.0
X45.006Y-16.976
X45.371Y-23.285
X45.521Y-25.161
X45.954Y-51.635
X46.25Y-53.15
X46.271Y-43.904
X46.625Y-93.565
X46.816Y-61.644
X47.14Y-31.013
X47.73Y-26.014
X47.849Y-43.102
X48.075Y-19.911
X48.085Y-32.088
X49.312Y-67.035
X49.717Y-28.154
X49.799Y-18.811
X50.0Y-80.0
X50.19Y-24.0
X50.442Y-49.546
X50.55Y-51.7
X51.0Y-58.19
X51.0Y-65.81
X51.977Y-10.717
X52.022Y-44.486
X52.062Y-24.858
X52.264Y-33.864
X52.455Y-35.877
X53.419Y-54.377
X53.825Y-72.874
X54.694Y-10.128
X55.0Y-90.0
X55.16Y-67.857
X55.405Y-41.055
X57.173Y-28.051
X57.201Y-56.245
X57.272Y-49.262
X57.81Y-24.0
X57.989Y-47.493
X58.104Y-61.246
X58.207Y-65.812
X58.376Y-39.696
X59.208Y-42.088
X59.403Y-35.275
X59.924Y-25.565
X59.971Y-50.0
X60.0Y-80.0
X61.55Y-39.169
X63.441Y-86.483
X63.503Y-16.678
X63.953Y-64.024
X64.425Y-7.953
X64.952Y-15.983
X65.052Y-47.048
X65.136Y-44.393
X65.42Y-55.857
X66.199Y-73.18
X68.34Y-8.0
X84.962Y-15.299
X85.607Y-49.95
X85.774Y-18.036
X85.95Y-80.05
X86.2Y-94.65
X86.675Y-63.354
X89.12Y-8.0
X89.792Y-14.909
X91.038Y-5.579
X91.8Y-17.0
X93.939Y-50.626
X94.224Y-40.212
X94.274Y-20.445
X94.275Y-98.205
X94.385Y-36.812
X94.95Y-90.65
X94.998Y-45.642
X95.0Y-60.575
X95.0Y-76.14
X95.079Y-88.115
X95.439Y-69.174
X97.4Y-23.037
X97.4Y-24.337
X97.467Y-14.1
X99.074Y-31.506
X99.364Y-50.503
X99.439Y-41.565
X99.6Y-48.225
X100.074Y-24.641
X100.168Y-73.452
X100.194Y-67.425
X100.2Y-71.782
X100.903Y-30.928
X101.192Y-36.91
X101.484Y-19.242
X101.633Y-42.327
X101.85Y-71.3
X102.948Y-37.005
X103.394Y-55.334
X104.038Y-27.801
X104.5Y-46.19
X104.5Y-53.81
X105.0Y-90.0
X105.072Y-23.719
X105.191Y-80.495
X106.115Y-21.396
X107.177Y-42.339
X107.75Y-17.0
X107.75Y-25.5
X109.6Y-29.0
X109.657Y-50.106
X110.0Y-40.0
X110.646Y-47.317
X111.311Y-38.274
X112.722Y-28.216
X112.814Y-22.902
X112.95Y-26.0
X114.504Y-18.407
X115.0Y-10.0
X115.0Y-90.0
X115.3Y-30.84
X116.823Y-22.92
X117.076Y-66.075
X117.434Y-37.109
X118.19Y-27.0
X120.0Y-60.0
X121.84Y-8.0
X122.453Y-32.627
X122.635Y-19.003
X125.684Y-20.245
X125.81Y-27.0
X127.077Y-22.915
X127.475Y-27.732
X130.39Y-58.712
X130.515Y-29.589
X133.349Y-57.758
X133.65Y-18.75
X133.791Y-91.778
X134.013Y-31.098
X134.462Y-25.008
X135.243Y-30.268
X135.545Y-28.295
X135.854Y-49.776
X136.232Y-14.997
X137.404Y-14.96
X137.41Y-63.897
X137.717Y-46.036
X142.904Y-24.427
X143.055Y-32.88
X143.52Y-94.042
X145.611Y-84.752
X147.7Y-8.0
X148.471Y-29.542
X155.0Y-30.0
X155.0Y-50.0
X155.0Y-70.0
T2
X8.98Y-45.0
X8.98Y-52.62
X9.22Y-66.0
X9.22Y-73.62
X11.52Y-45.0
X11.52Y-52.62
X11.76Y-66.0
X11.76Y-73.62
X14.06Y-45.0
X14.06Y-52.62
X14.3Y-66.0
X14.3Y-73.62
X16.6Y-45.0
X16.6Y-52.62
X16.84Y-66.0
X16.84Y-73.62
X19.14Y-45.0
X19.14Y-52.62
X19.38Y-66.0
X19.38Y-73.62
X21.68Y-45.0
X21.68Y-52.62
X21.92Y-66.0
X21.92Y-73.62
X24.22Y-45.0
X24.22Y-52.62
X24.46Y-66.0
X24.46Y-73.62
X26.76Y-45.0
X26.76Y-52.62
X27.0Y-66.0
X27.0Y-73.62
X29.3Y-45.0
X29.3Y-52.62
X31.84Y-45.0
X31.84Y-52.62
X34.38Y-45.0
X34.38Y-52.62
X36.92Y-45.0
X36.92Y-52.62
X39.46Y-45.0
X39.46Y-52.62
X42.0Y-45.0
X42.0Y-52.62
T3
X50.5Y-95.5
X53.04Y-95.5
T4
X11.26Y-95.96
X13.8Y-95.96
X15.07Y-10.79
X15.07Y-13.33
X16.34Y-95.96
X17.61Y-10.79
X17.61Y-13.33
X18.88Y-95.96
X19.14Y-55.75
X20.15Y-10.79
X20.15Y-13.33
X21.42Y-95.96
X22.69Y-10.79
X22.69Y-13.33
X23.96Y-95.96
X25.23Y-10.79
X25.23Y-13.33
X26.5Y-95.96
X27.77Y-10.79
X27.77Y-13.33
X29.04Y-95.96
X30.31Y-10.79
X30.31Y-13.33
X31.58Y-95.96
X32.85Y-10.79
X32.85Y-13.33
X34.12Y-95.96
X35.39Y-10.79
X35.39Y-13.33
X36.66Y-95.96
X37.93Y-10.79
X37.93Y-13.33
X39.2Y-41.776
X39.2Y-95.96
X41.74Y-95.96
X42.974Y-41.75
X48.25Y-34.25
X48.775Y-68.81
X59.263Y-91.35
X64.76Y-95.96
X67.3Y-95.96
X68.57Y-10.79
X68.57Y-13.33
X68.57Y-37.3
X68.57Y-39.84
X68.57Y-42.38
X68.57Y-44.92
X68.57Y-47.46
X68.57Y-50.0
X68.57Y-52.54
X68.57Y-55.08
X68.57Y-57.62
X68.57Y-60.16
X68.57Y-62.7
X68.57Y-65.24
X68.57Y-67.78
X68.57Y-70.32
X68.57Y-72.86
X68.57Y-75.4
X68.57Y-77.94
X68.57Y-80.48
X68.57Y-83.02
X68.57Y-85.56
X68.57Y-88.1
X68.57Y-90.64
X69.84Y-95.96
X71.11Y-10.79
X71.11Y-13.33
X72.38Y-95.96
X73.65Y-10.79
X73.65Y-13.33
X74.92Y-95.96
X76.19Y-10.79
X76.19Y-13.33
X77.46Y-95.96
X78.73Y-10.79
X78.73Y-13.33
X80.0Y-95.96
X81.27Y-10.79
X81.27Y-13.33
X82.54Y-95.96
X83.81Y-10.79
X83.81Y-13.33
X85.08Y-95.96
X86.35Y-10.79
X86.35Y-13.33
X87.62Y-95.96
X88.89Y-10.79
X88.89Y-13.33
X90.16Y-95.96
X91.43Y-10.79
X91.43Y-13.33
X91.43Y-37.3
X91.43Y-39.84
X91.43Y-42.38
X91.43Y-44.92
X91.43Y-47.46
X91.43Y-50.0
X91.43Y-52.54
X91.43Y-55.08
X91.43Y-57.62
X91.43Y-60.16
X91.43Y-62.7
X91.43Y-65.24
X91.43Y-67.78
X91.43Y-70.32
X91.43Y-72.86
X91.43Y-75.4
X91.43Y-77.94
X91.43Y-80.48
X91.43Y-83.02
X91.43Y-85.56
X91.43Y-88.1
X91.43Y-90.64
X92.7Y-95.96
X95.24Y-95.96
X99.15Y-9.238
X117.4Y-16.83
X118.26Y-95.96
X120.8Y-95.96
X122.07Y-10.79
X122.07Y-13.33
X123.34Y-95.96
X124.61Y-10.79
X124.61Y-13.33
X125.88Y-95.96
X127.15Y-10.79
X127.15Y-13.33
X128.18Y-70.9
X128.42Y-95.96
X129.69Y-10.79
X129.69Y-13.33
X130.72Y-70.9
X130.96Y-95.96
X132.23Y-10.79
X132.23Y-13.33
X133.26Y-70.9
X133.5Y-95.96
X134.77Y-10.79
X134.77Y-13.33
X135.8Y-70.9
X136.04Y-95.96
X137.31Y-10.79
X137.31Y-13.33
X138.34Y-70.9
X138.58Y-95.96
X139.85Y-10.79
X139.85Y-13.33
X140.88Y-70.9
X141.12Y-95.96
X142.39Y-10.79
X142.39Y-13.33
X143.42Y-70.9
X143.66Y-95.96
X144.93Y-10.79
X144.93Y-13.33
X145.96Y-70.9
X146.2Y-95.96
X148.5Y-70.9
X148.74Y-95.96
M30
