%TF.GenerationSoftware,KiCad,Pcbnew,10.0.6*%
%TF.CreationDate,2026-10-04T14:02:24+02:00*%
%TF.ProjectId,P03,5030332e-6b69-4636-9164-5f7063625858,P03-R6 PCB*%
%TF.SameCoordinates,Original*%
%TF.FileFunction,Soldermask,Bot*%
%TF.FilePolarity,Negative*%
%FSLAX46Y46*%
G04 Gerber Fmt 4.6, Leading zero omitted, Abs format (unit mm)*
G04 Created by KiCad (PCBNEW 10.0.6) date 2026-10-04 14:02:24*
%MOMM*%
%LPD*%
G01*
G04 APERTURE LIST*
G04 APERTURE END LIST*
G36*
X42590000Y-96810000D02*
G01*
X40890000Y-96810000D01*
X40890000Y-95110000D01*
X42590000Y-95110000D01*
X42590000Y-96810000D01*
G37*
G36*
X96090000Y-96810000D02*
G01*
X94390000Y-96810000D01*
X94390000Y-95110000D01*
X96090000Y-95110000D01*
X96090000Y-96810000D01*
G37*
G36*
X149590000Y-96810000D02*
G01*
X147890000Y-96810000D01*
X147890000Y-95110000D01*
X149590000Y-95110000D01*
X149590000Y-96810000D01*
G37*
G36*
X11506742Y-95146601D02*
G01*
X11660687Y-95210367D01*
X11799234Y-95302941D01*
X11917059Y-95420766D01*
X12009633Y-95559313D01*
X12073399Y-95713258D01*
X12105907Y-95876685D01*
X12105907Y-96043315D01*
X12073399Y-96206742D01*
X12009633Y-96360687D01*
X11917059Y-96499234D01*
X11799234Y-96617059D01*
X11660687Y-96709633D01*
X11506742Y-96773399D01*
X11343315Y-96805907D01*
X11176685Y-96805907D01*
X11013258Y-96773399D01*
X10859313Y-96709633D01*
X10720766Y-96617059D01*
X10602941Y-96499234D01*
X10510367Y-96360687D01*
X10446601Y-96206742D01*
X10414093Y-96043315D01*
X10414093Y-95876685D01*
X10446601Y-95713258D01*
X10510367Y-95559313D01*
X10602941Y-95420766D01*
X10720766Y-95302941D01*
X10859313Y-95210367D01*
X11013258Y-95146601D01*
X11176685Y-95114093D01*
X11343315Y-95114093D01*
X11506742Y-95146601D01*
G37*
G36*
X14046742Y-95146601D02*
G01*
X14200687Y-95210367D01*
X14339234Y-95302941D01*
X14457059Y-95420766D01*
X14549633Y-95559313D01*
X14613399Y-95713258D01*
X14645907Y-95876685D01*
X14645907Y-96043315D01*
X14613399Y-96206742D01*
X14549633Y-96360687D01*
X14457059Y-96499234D01*
X14339234Y-96617059D01*
X14200687Y-96709633D01*
X14046742Y-96773399D01*
X13883315Y-96805907D01*
X13716685Y-96805907D01*
X13553258Y-96773399D01*
X13399313Y-96709633D01*
X13260766Y-96617059D01*
X13142941Y-96499234D01*
X13050367Y-96360687D01*
X12986601Y-96206742D01*
X12954093Y-96043315D01*
X12954093Y-95876685D01*
X12986601Y-95713258D01*
X13050367Y-95559313D01*
X13142941Y-95420766D01*
X13260766Y-95302941D01*
X13399313Y-95210367D01*
X13553258Y-95146601D01*
X13716685Y-95114093D01*
X13883315Y-95114093D01*
X14046742Y-95146601D01*
G37*
G36*
X16586742Y-95146601D02*
G01*
X16740687Y-95210367D01*
X16879234Y-95302941D01*
X16997059Y-95420766D01*
X17089633Y-95559313D01*
X17153399Y-95713258D01*
X17185907Y-95876685D01*
X17185907Y-96043315D01*
X17153399Y-96206742D01*
X17089633Y-96360687D01*
X16997059Y-96499234D01*
X16879234Y-96617059D01*
X16740687Y-96709633D01*
X16586742Y-96773399D01*
X16423315Y-96805907D01*
X16256685Y-96805907D01*
X16093258Y-96773399D01*
X15939313Y-96709633D01*
X15800766Y-96617059D01*
X15682941Y-96499234D01*
X15590367Y-96360687D01*
X15526601Y-96206742D01*
X15494093Y-96043315D01*
X15494093Y-95876685D01*
X15526601Y-95713258D01*
X15590367Y-95559313D01*
X15682941Y-95420766D01*
X15800766Y-95302941D01*
X15939313Y-95210367D01*
X16093258Y-95146601D01*
X16256685Y-95114093D01*
X16423315Y-95114093D01*
X16586742Y-95146601D01*
G37*
G36*
X19126742Y-95146601D02*
G01*
X19280687Y-95210367D01*
X19419234Y-95302941D01*
X19537059Y-95420766D01*
X19629633Y-95559313D01*
X19693399Y-95713258D01*
X19725907Y-95876685D01*
X19725907Y-96043315D01*
X19693399Y-96206742D01*
X19629633Y-96360687D01*
X19537059Y-96499234D01*
X19419234Y-96617059D01*
X19280687Y-96709633D01*
X19126742Y-96773399D01*
X18963315Y-96805907D01*
X18796685Y-96805907D01*
X18633258Y-96773399D01*
X18479313Y-96709633D01*
X18340766Y-96617059D01*
X18222941Y-96499234D01*
X18130367Y-96360687D01*
X18066601Y-96206742D01*
X18034093Y-96043315D01*
X18034093Y-95876685D01*
X18066601Y-95713258D01*
X18130367Y-95559313D01*
X18222941Y-95420766D01*
X18340766Y-95302941D01*
X18479313Y-95210367D01*
X18633258Y-95146601D01*
X18796685Y-95114093D01*
X18963315Y-95114093D01*
X19126742Y-95146601D01*
G37*
G36*
X21666742Y-95146601D02*
G01*
X21820687Y-95210367D01*
X21959234Y-95302941D01*
X22077059Y-95420766D01*
X22169633Y-95559313D01*
X22233399Y-95713258D01*
X22265907Y-95876685D01*
X22265907Y-96043315D01*
X22233399Y-96206742D01*
X22169633Y-96360687D01*
X22077059Y-96499234D01*
X21959234Y-96617059D01*
X21820687Y-96709633D01*
X21666742Y-96773399D01*
X21503315Y-96805907D01*
X21336685Y-96805907D01*
X21173258Y-96773399D01*
X21019313Y-96709633D01*
X20880766Y-96617059D01*
X20762941Y-96499234D01*
X20670367Y-96360687D01*
X20606601Y-96206742D01*
X20574093Y-96043315D01*
X20574093Y-95876685D01*
X20606601Y-95713258D01*
X20670367Y-95559313D01*
X20762941Y-95420766D01*
X20880766Y-95302941D01*
X21019313Y-95210367D01*
X21173258Y-95146601D01*
X21336685Y-95114093D01*
X21503315Y-95114093D01*
X21666742Y-95146601D01*
G37*
G36*
X24206742Y-95146601D02*
G01*
X24360687Y-95210367D01*
X24499234Y-95302941D01*
X24617059Y-95420766D01*
X24709633Y-95559313D01*
X24773399Y-95713258D01*
X24805907Y-95876685D01*
X24805907Y-96043315D01*
X24773399Y-96206742D01*
X24709633Y-96360687D01*
X24617059Y-96499234D01*
X24499234Y-96617059D01*
X24360687Y-96709633D01*
X24206742Y-96773399D01*
X24043315Y-96805907D01*
X23876685Y-96805907D01*
X23713258Y-96773399D01*
X23559313Y-96709633D01*
X23420766Y-96617059D01*
X23302941Y-96499234D01*
X23210367Y-96360687D01*
X23146601Y-96206742D01*
X23114093Y-96043315D01*
X23114093Y-95876685D01*
X23146601Y-95713258D01*
X23210367Y-95559313D01*
X23302941Y-95420766D01*
X23420766Y-95302941D01*
X23559313Y-95210367D01*
X23713258Y-95146601D01*
X23876685Y-95114093D01*
X24043315Y-95114093D01*
X24206742Y-95146601D01*
G37*
G36*
X26746742Y-95146601D02*
G01*
X26900687Y-95210367D01*
X27039234Y-95302941D01*
X27157059Y-95420766D01*
X27249633Y-95559313D01*
X27313399Y-95713258D01*
X27345907Y-95876685D01*
X27345907Y-96043315D01*
X27313399Y-96206742D01*
X27249633Y-96360687D01*
X27157059Y-96499234D01*
X27039234Y-96617059D01*
X26900687Y-96709633D01*
X26746742Y-96773399D01*
X26583315Y-96805907D01*
X26416685Y-96805907D01*
X26253258Y-96773399D01*
X26099313Y-96709633D01*
X25960766Y-96617059D01*
X25842941Y-96499234D01*
X25750367Y-96360687D01*
X25686601Y-96206742D01*
X25654093Y-96043315D01*
X25654093Y-95876685D01*
X25686601Y-95713258D01*
X25750367Y-95559313D01*
X25842941Y-95420766D01*
X25960766Y-95302941D01*
X26099313Y-95210367D01*
X26253258Y-95146601D01*
X26416685Y-95114093D01*
X26583315Y-95114093D01*
X26746742Y-95146601D01*
G37*
G36*
X29286742Y-95146601D02*
G01*
X29440687Y-95210367D01*
X29579234Y-95302941D01*
X29697059Y-95420766D01*
X29789633Y-95559313D01*
X29853399Y-95713258D01*
X29885907Y-95876685D01*
X29885907Y-96043315D01*
X29853399Y-96206742D01*
X29789633Y-96360687D01*
X29697059Y-96499234D01*
X29579234Y-96617059D01*
X29440687Y-96709633D01*
X29286742Y-96773399D01*
X29123315Y-96805907D01*
X28956685Y-96805907D01*
X28793258Y-96773399D01*
X28639313Y-96709633D01*
X28500766Y-96617059D01*
X28382941Y-96499234D01*
X28290367Y-96360687D01*
X28226601Y-96206742D01*
X28194093Y-96043315D01*
X28194093Y-95876685D01*
X28226601Y-95713258D01*
X28290367Y-95559313D01*
X28382941Y-95420766D01*
X28500766Y-95302941D01*
X28639313Y-95210367D01*
X28793258Y-95146601D01*
X28956685Y-95114093D01*
X29123315Y-95114093D01*
X29286742Y-95146601D01*
G37*
G36*
X31826742Y-95146601D02*
G01*
X31980687Y-95210367D01*
X32119234Y-95302941D01*
X32237059Y-95420766D01*
X32329633Y-95559313D01*
X32393399Y-95713258D01*
X32425907Y-95876685D01*
X32425907Y-96043315D01*
X32393399Y-96206742D01*
X32329633Y-96360687D01*
X32237059Y-96499234D01*
X32119234Y-96617059D01*
X31980687Y-96709633D01*
X31826742Y-96773399D01*
X31663315Y-96805907D01*
X31496685Y-96805907D01*
X31333258Y-96773399D01*
X31179313Y-96709633D01*
X31040766Y-96617059D01*
X30922941Y-96499234D01*
X30830367Y-96360687D01*
X30766601Y-96206742D01*
X30734093Y-96043315D01*
X30734093Y-95876685D01*
X30766601Y-95713258D01*
X30830367Y-95559313D01*
X30922941Y-95420766D01*
X31040766Y-95302941D01*
X31179313Y-95210367D01*
X31333258Y-95146601D01*
X31496685Y-95114093D01*
X31663315Y-95114093D01*
X31826742Y-95146601D01*
G37*
G36*
X34366742Y-95146601D02*
G01*
X34520687Y-95210367D01*
X34659234Y-95302941D01*
X34777059Y-95420766D01*
X34869633Y-95559313D01*
X34933399Y-95713258D01*
X34965907Y-95876685D01*
X34965907Y-96043315D01*
X34933399Y-96206742D01*
X34869633Y-96360687D01*
X34777059Y-96499234D01*
X34659234Y-96617059D01*
X34520687Y-96709633D01*
X34366742Y-96773399D01*
X34203315Y-96805907D01*
X34036685Y-96805907D01*
X33873258Y-96773399D01*
X33719313Y-96709633D01*
X33580766Y-96617059D01*
X33462941Y-96499234D01*
X33370367Y-96360687D01*
X33306601Y-96206742D01*
X33274093Y-96043315D01*
X33274093Y-95876685D01*
X33306601Y-95713258D01*
X33370367Y-95559313D01*
X33462941Y-95420766D01*
X33580766Y-95302941D01*
X33719313Y-95210367D01*
X33873258Y-95146601D01*
X34036685Y-95114093D01*
X34203315Y-95114093D01*
X34366742Y-95146601D01*
G37*
G36*
X36906742Y-95146601D02*
G01*
X37060687Y-95210367D01*
X37199234Y-95302941D01*
X37317059Y-95420766D01*
X37409633Y-95559313D01*
X37473399Y-95713258D01*
X37505907Y-95876685D01*
X37505907Y-96043315D01*
X37473399Y-96206742D01*
X37409633Y-96360687D01*
X37317059Y-96499234D01*
X37199234Y-96617059D01*
X37060687Y-96709633D01*
X36906742Y-96773399D01*
X36743315Y-96805907D01*
X36576685Y-96805907D01*
X36413258Y-96773399D01*
X36259313Y-96709633D01*
X36120766Y-96617059D01*
X36002941Y-96499234D01*
X35910367Y-96360687D01*
X35846601Y-96206742D01*
X35814093Y-96043315D01*
X35814093Y-95876685D01*
X35846601Y-95713258D01*
X35910367Y-95559313D01*
X36002941Y-95420766D01*
X36120766Y-95302941D01*
X36259313Y-95210367D01*
X36413258Y-95146601D01*
X36576685Y-95114093D01*
X36743315Y-95114093D01*
X36906742Y-95146601D01*
G37*
G36*
X39446742Y-95146601D02*
G01*
X39600687Y-95210367D01*
X39739234Y-95302941D01*
X39857059Y-95420766D01*
X39949633Y-95559313D01*
X40013399Y-95713258D01*
X40045907Y-95876685D01*
X40045907Y-96043315D01*
X40013399Y-96206742D01*
X39949633Y-96360687D01*
X39857059Y-96499234D01*
X39739234Y-96617059D01*
X39600687Y-96709633D01*
X39446742Y-96773399D01*
X39283315Y-96805907D01*
X39116685Y-96805907D01*
X38953258Y-96773399D01*
X38799313Y-96709633D01*
X38660766Y-96617059D01*
X38542941Y-96499234D01*
X38450367Y-96360687D01*
X38386601Y-96206742D01*
X38354093Y-96043315D01*
X38354093Y-95876685D01*
X38386601Y-95713258D01*
X38450367Y-95559313D01*
X38542941Y-95420766D01*
X38660766Y-95302941D01*
X38799313Y-95210367D01*
X38953258Y-95146601D01*
X39116685Y-95114093D01*
X39283315Y-95114093D01*
X39446742Y-95146601D01*
G37*
G36*
X65006742Y-95146601D02*
G01*
X65160687Y-95210367D01*
X65299234Y-95302941D01*
X65417059Y-95420766D01*
X65509633Y-95559313D01*
X65573399Y-95713258D01*
X65605907Y-95876685D01*
X65605907Y-96043315D01*
X65573399Y-96206742D01*
X65509633Y-96360687D01*
X65417059Y-96499234D01*
X65299234Y-96617059D01*
X65160687Y-96709633D01*
X65006742Y-96773399D01*
X64843315Y-96805907D01*
X64676685Y-96805907D01*
X64513258Y-96773399D01*
X64359313Y-96709633D01*
X64220766Y-96617059D01*
X64102941Y-96499234D01*
X64010367Y-96360687D01*
X63946601Y-96206742D01*
X63914093Y-96043315D01*
X63914093Y-95876685D01*
X63946601Y-95713258D01*
X64010367Y-95559313D01*
X64102941Y-95420766D01*
X64220766Y-95302941D01*
X64359313Y-95210367D01*
X64513258Y-95146601D01*
X64676685Y-95114093D01*
X64843315Y-95114093D01*
X65006742Y-95146601D01*
G37*
G36*
X67546742Y-95146601D02*
G01*
X67700687Y-95210367D01*
X67839234Y-95302941D01*
X67957059Y-95420766D01*
X68049633Y-95559313D01*
X68113399Y-95713258D01*
X68145907Y-95876685D01*
X68145907Y-96043315D01*
X68113399Y-96206742D01*
X68049633Y-96360687D01*
X67957059Y-96499234D01*
X67839234Y-96617059D01*
X67700687Y-96709633D01*
X67546742Y-96773399D01*
X67383315Y-96805907D01*
X67216685Y-96805907D01*
X67053258Y-96773399D01*
X66899313Y-96709633D01*
X66760766Y-96617059D01*
X66642941Y-96499234D01*
X66550367Y-96360687D01*
X66486601Y-96206742D01*
X66454093Y-96043315D01*
X66454093Y-95876685D01*
X66486601Y-95713258D01*
X66550367Y-95559313D01*
X66642941Y-95420766D01*
X66760766Y-95302941D01*
X66899313Y-95210367D01*
X67053258Y-95146601D01*
X67216685Y-95114093D01*
X67383315Y-95114093D01*
X67546742Y-95146601D01*
G37*
G36*
X70086742Y-95146601D02*
G01*
X70240687Y-95210367D01*
X70379234Y-95302941D01*
X70497059Y-95420766D01*
X70589633Y-95559313D01*
X70653399Y-95713258D01*
X70685907Y-95876685D01*
X70685907Y-96043315D01*
X70653399Y-96206742D01*
X70589633Y-96360687D01*
X70497059Y-96499234D01*
X70379234Y-96617059D01*
X70240687Y-96709633D01*
X70086742Y-96773399D01*
X69923315Y-96805907D01*
X69756685Y-96805907D01*
X69593258Y-96773399D01*
X69439313Y-96709633D01*
X69300766Y-96617059D01*
X69182941Y-96499234D01*
X69090367Y-96360687D01*
X69026601Y-96206742D01*
X68994093Y-96043315D01*
X68994093Y-95876685D01*
X69026601Y-95713258D01*
X69090367Y-95559313D01*
X69182941Y-95420766D01*
X69300766Y-95302941D01*
X69439313Y-95210367D01*
X69593258Y-95146601D01*
X69756685Y-95114093D01*
X69923315Y-95114093D01*
X70086742Y-95146601D01*
G37*
G36*
X72626742Y-95146601D02*
G01*
X72780687Y-95210367D01*
X72919234Y-95302941D01*
X73037059Y-95420766D01*
X73129633Y-95559313D01*
X73193399Y-95713258D01*
X73225907Y-95876685D01*
X73225907Y-96043315D01*
X73193399Y-96206742D01*
X73129633Y-96360687D01*
X73037059Y-96499234D01*
X72919234Y-96617059D01*
X72780687Y-96709633D01*
X72626742Y-96773399D01*
X72463315Y-96805907D01*
X72296685Y-96805907D01*
X72133258Y-96773399D01*
X71979313Y-96709633D01*
X71840766Y-96617059D01*
X71722941Y-96499234D01*
X71630367Y-96360687D01*
X71566601Y-96206742D01*
X71534093Y-96043315D01*
X71534093Y-95876685D01*
X71566601Y-95713258D01*
X71630367Y-95559313D01*
X71722941Y-95420766D01*
X71840766Y-95302941D01*
X71979313Y-95210367D01*
X72133258Y-95146601D01*
X72296685Y-95114093D01*
X72463315Y-95114093D01*
X72626742Y-95146601D01*
G37*
G36*
X75166742Y-95146601D02*
G01*
X75320687Y-95210367D01*
X75459234Y-95302941D01*
X75577059Y-95420766D01*
X75669633Y-95559313D01*
X75733399Y-95713258D01*
X75765907Y-95876685D01*
X75765907Y-96043315D01*
X75733399Y-96206742D01*
X75669633Y-96360687D01*
X75577059Y-96499234D01*
X75459234Y-96617059D01*
X75320687Y-96709633D01*
X75166742Y-96773399D01*
X75003315Y-96805907D01*
X74836685Y-96805907D01*
X74673258Y-96773399D01*
X74519313Y-96709633D01*
X74380766Y-96617059D01*
X74262941Y-96499234D01*
X74170367Y-96360687D01*
X74106601Y-96206742D01*
X74074093Y-96043315D01*
X74074093Y-95876685D01*
X74106601Y-95713258D01*
X74170367Y-95559313D01*
X74262941Y-95420766D01*
X74380766Y-95302941D01*
X74519313Y-95210367D01*
X74673258Y-95146601D01*
X74836685Y-95114093D01*
X75003315Y-95114093D01*
X75166742Y-95146601D01*
G37*
G36*
X77706742Y-95146601D02*
G01*
X77860687Y-95210367D01*
X77999234Y-95302941D01*
X78117059Y-95420766D01*
X78209633Y-95559313D01*
X78273399Y-95713258D01*
X78305907Y-95876685D01*
X78305907Y-96043315D01*
X78273399Y-96206742D01*
X78209633Y-96360687D01*
X78117059Y-96499234D01*
X77999234Y-96617059D01*
X77860687Y-96709633D01*
X77706742Y-96773399D01*
X77543315Y-96805907D01*
X77376685Y-96805907D01*
X77213258Y-96773399D01*
X77059313Y-96709633D01*
X76920766Y-96617059D01*
X76802941Y-96499234D01*
X76710367Y-96360687D01*
X76646601Y-96206742D01*
X76614093Y-96043315D01*
X76614093Y-95876685D01*
X76646601Y-95713258D01*
X76710367Y-95559313D01*
X76802941Y-95420766D01*
X76920766Y-95302941D01*
X77059313Y-95210367D01*
X77213258Y-95146601D01*
X77376685Y-95114093D01*
X77543315Y-95114093D01*
X77706742Y-95146601D01*
G37*
G36*
X80246742Y-95146601D02*
G01*
X80400687Y-95210367D01*
X80539234Y-95302941D01*
X80657059Y-95420766D01*
X80749633Y-95559313D01*
X80813399Y-95713258D01*
X80845907Y-95876685D01*
X80845907Y-96043315D01*
X80813399Y-96206742D01*
X80749633Y-96360687D01*
X80657059Y-96499234D01*
X80539234Y-96617059D01*
X80400687Y-96709633D01*
X80246742Y-96773399D01*
X80083315Y-96805907D01*
X79916685Y-96805907D01*
X79753258Y-96773399D01*
X79599313Y-96709633D01*
X79460766Y-96617059D01*
X79342941Y-96499234D01*
X79250367Y-96360687D01*
X79186601Y-96206742D01*
X79154093Y-96043315D01*
X79154093Y-95876685D01*
X79186601Y-95713258D01*
X79250367Y-95559313D01*
X79342941Y-95420766D01*
X79460766Y-95302941D01*
X79599313Y-95210367D01*
X79753258Y-95146601D01*
X79916685Y-95114093D01*
X80083315Y-95114093D01*
X80246742Y-95146601D01*
G37*
G36*
X82786742Y-95146601D02*
G01*
X82940687Y-95210367D01*
X83079234Y-95302941D01*
X83197059Y-95420766D01*
X83289633Y-95559313D01*
X83353399Y-95713258D01*
X83385907Y-95876685D01*
X83385907Y-96043315D01*
X83353399Y-96206742D01*
X83289633Y-96360687D01*
X83197059Y-96499234D01*
X83079234Y-96617059D01*
X82940687Y-96709633D01*
X82786742Y-96773399D01*
X82623315Y-96805907D01*
X82456685Y-96805907D01*
X82293258Y-96773399D01*
X82139313Y-96709633D01*
X82000766Y-96617059D01*
X81882941Y-96499234D01*
X81790367Y-96360687D01*
X81726601Y-96206742D01*
X81694093Y-96043315D01*
X81694093Y-95876685D01*
X81726601Y-95713258D01*
X81790367Y-95559313D01*
X81882941Y-95420766D01*
X82000766Y-95302941D01*
X82139313Y-95210367D01*
X82293258Y-95146601D01*
X82456685Y-95114093D01*
X82623315Y-95114093D01*
X82786742Y-95146601D01*
G37*
G36*
X85326742Y-95146601D02*
G01*
X85480687Y-95210367D01*
X85619234Y-95302941D01*
X85737059Y-95420766D01*
X85829633Y-95559313D01*
X85893399Y-95713258D01*
X85925907Y-95876685D01*
X85925907Y-96043315D01*
X85893399Y-96206742D01*
X85829633Y-96360687D01*
X85737059Y-96499234D01*
X85619234Y-96617059D01*
X85480687Y-96709633D01*
X85326742Y-96773399D01*
X85163315Y-96805907D01*
X84996685Y-96805907D01*
X84833258Y-96773399D01*
X84679313Y-96709633D01*
X84540766Y-96617059D01*
X84422941Y-96499234D01*
X84330367Y-96360687D01*
X84266601Y-96206742D01*
X84234093Y-96043315D01*
X84234093Y-95876685D01*
X84266601Y-95713258D01*
X84330367Y-95559313D01*
X84422941Y-95420766D01*
X84540766Y-95302941D01*
X84679313Y-95210367D01*
X84833258Y-95146601D01*
X84996685Y-95114093D01*
X85163315Y-95114093D01*
X85326742Y-95146601D01*
G37*
G36*
X87866742Y-95146601D02*
G01*
X88020687Y-95210367D01*
X88159234Y-95302941D01*
X88277059Y-95420766D01*
X88369633Y-95559313D01*
X88433399Y-95713258D01*
X88465907Y-95876685D01*
X88465907Y-96043315D01*
X88433399Y-96206742D01*
X88369633Y-96360687D01*
X88277059Y-96499234D01*
X88159234Y-96617059D01*
X88020687Y-96709633D01*
X87866742Y-96773399D01*
X87703315Y-96805907D01*
X87536685Y-96805907D01*
X87373258Y-96773399D01*
X87219313Y-96709633D01*
X87080766Y-96617059D01*
X86962941Y-96499234D01*
X86870367Y-96360687D01*
X86806601Y-96206742D01*
X86774093Y-96043315D01*
X86774093Y-95876685D01*
X86806601Y-95713258D01*
X86870367Y-95559313D01*
X86962941Y-95420766D01*
X87080766Y-95302941D01*
X87219313Y-95210367D01*
X87373258Y-95146601D01*
X87536685Y-95114093D01*
X87703315Y-95114093D01*
X87866742Y-95146601D01*
G37*
G36*
X90406742Y-95146601D02*
G01*
X90560687Y-95210367D01*
X90699234Y-95302941D01*
X90817059Y-95420766D01*
X90909633Y-95559313D01*
X90973399Y-95713258D01*
X91005907Y-95876685D01*
X91005907Y-96043315D01*
X90973399Y-96206742D01*
X90909633Y-96360687D01*
X90817059Y-96499234D01*
X90699234Y-96617059D01*
X90560687Y-96709633D01*
X90406742Y-96773399D01*
X90243315Y-96805907D01*
X90076685Y-96805907D01*
X89913258Y-96773399D01*
X89759313Y-96709633D01*
X89620766Y-96617059D01*
X89502941Y-96499234D01*
X89410367Y-96360687D01*
X89346601Y-96206742D01*
X89314093Y-96043315D01*
X89314093Y-95876685D01*
X89346601Y-95713258D01*
X89410367Y-95559313D01*
X89502941Y-95420766D01*
X89620766Y-95302941D01*
X89759313Y-95210367D01*
X89913258Y-95146601D01*
X90076685Y-95114093D01*
X90243315Y-95114093D01*
X90406742Y-95146601D01*
G37*
G36*
X92946742Y-95146601D02*
G01*
X93100687Y-95210367D01*
X93239234Y-95302941D01*
X93357059Y-95420766D01*
X93449633Y-95559313D01*
X93513399Y-95713258D01*
X93545907Y-95876685D01*
X93545907Y-96043315D01*
X93513399Y-96206742D01*
X93449633Y-96360687D01*
X93357059Y-96499234D01*
X93239234Y-96617059D01*
X93100687Y-96709633D01*
X92946742Y-96773399D01*
X92783315Y-96805907D01*
X92616685Y-96805907D01*
X92453258Y-96773399D01*
X92299313Y-96709633D01*
X92160766Y-96617059D01*
X92042941Y-96499234D01*
X91950367Y-96360687D01*
X91886601Y-96206742D01*
X91854093Y-96043315D01*
X91854093Y-95876685D01*
X91886601Y-95713258D01*
X91950367Y-95559313D01*
X92042941Y-95420766D01*
X92160766Y-95302941D01*
X92299313Y-95210367D01*
X92453258Y-95146601D01*
X92616685Y-95114093D01*
X92783315Y-95114093D01*
X92946742Y-95146601D01*
G37*
G36*
X118506742Y-95146601D02*
G01*
X118660687Y-95210367D01*
X118799234Y-95302941D01*
X118917059Y-95420766D01*
X119009633Y-95559313D01*
X119073399Y-95713258D01*
X119105907Y-95876685D01*
X119105907Y-96043315D01*
X119073399Y-96206742D01*
X119009633Y-96360687D01*
X118917059Y-96499234D01*
X118799234Y-96617059D01*
X118660687Y-96709633D01*
X118506742Y-96773399D01*
X118343315Y-96805907D01*
X118176685Y-96805907D01*
X118013258Y-96773399D01*
X117859313Y-96709633D01*
X117720766Y-96617059D01*
X117602941Y-96499234D01*
X117510367Y-96360687D01*
X117446601Y-96206742D01*
X117414093Y-96043315D01*
X117414093Y-95876685D01*
X117446601Y-95713258D01*
X117510367Y-95559313D01*
X117602941Y-95420766D01*
X117720766Y-95302941D01*
X117859313Y-95210367D01*
X118013258Y-95146601D01*
X118176685Y-95114093D01*
X118343315Y-95114093D01*
X118506742Y-95146601D01*
G37*
G36*
X121046742Y-95146601D02*
G01*
X121200687Y-95210367D01*
X121339234Y-95302941D01*
X121457059Y-95420766D01*
X121549633Y-95559313D01*
X121613399Y-95713258D01*
X121645907Y-95876685D01*
X121645907Y-96043315D01*
X121613399Y-96206742D01*
X121549633Y-96360687D01*
X121457059Y-96499234D01*
X121339234Y-96617059D01*
X121200687Y-96709633D01*
X121046742Y-96773399D01*
X120883315Y-96805907D01*
X120716685Y-96805907D01*
X120553258Y-96773399D01*
X120399313Y-96709633D01*
X120260766Y-96617059D01*
X120142941Y-96499234D01*
X120050367Y-96360687D01*
X119986601Y-96206742D01*
X119954093Y-96043315D01*
X119954093Y-95876685D01*
X119986601Y-95713258D01*
X120050367Y-95559313D01*
X120142941Y-95420766D01*
X120260766Y-95302941D01*
X120399313Y-95210367D01*
X120553258Y-95146601D01*
X120716685Y-95114093D01*
X120883315Y-95114093D01*
X121046742Y-95146601D01*
G37*
G36*
X123586742Y-95146601D02*
G01*
X123740687Y-95210367D01*
X123879234Y-95302941D01*
X123997059Y-95420766D01*
X124089633Y-95559313D01*
X124153399Y-95713258D01*
X124185907Y-95876685D01*
X124185907Y-96043315D01*
X124153399Y-96206742D01*
X124089633Y-96360687D01*
X123997059Y-96499234D01*
X123879234Y-96617059D01*
X123740687Y-96709633D01*
X123586742Y-96773399D01*
X123423315Y-96805907D01*
X123256685Y-96805907D01*
X123093258Y-96773399D01*
X122939313Y-96709633D01*
X122800766Y-96617059D01*
X122682941Y-96499234D01*
X122590367Y-96360687D01*
X122526601Y-96206742D01*
X122494093Y-96043315D01*
X122494093Y-95876685D01*
X122526601Y-95713258D01*
X122590367Y-95559313D01*
X122682941Y-95420766D01*
X122800766Y-95302941D01*
X122939313Y-95210367D01*
X123093258Y-95146601D01*
X123256685Y-95114093D01*
X123423315Y-95114093D01*
X123586742Y-95146601D01*
G37*
G36*
X126126742Y-95146601D02*
G01*
X126280687Y-95210367D01*
X126419234Y-95302941D01*
X126537059Y-95420766D01*
X126629633Y-95559313D01*
X126693399Y-95713258D01*
X126725907Y-95876685D01*
X126725907Y-96043315D01*
X126693399Y-96206742D01*
X126629633Y-96360687D01*
X126537059Y-96499234D01*
X126419234Y-96617059D01*
X126280687Y-96709633D01*
X126126742Y-96773399D01*
X125963315Y-96805907D01*
X125796685Y-96805907D01*
X125633258Y-96773399D01*
X125479313Y-96709633D01*
X125340766Y-96617059D01*
X125222941Y-96499234D01*
X125130367Y-96360687D01*
X125066601Y-96206742D01*
X125034093Y-96043315D01*
X125034093Y-95876685D01*
X125066601Y-95713258D01*
X125130367Y-95559313D01*
X125222941Y-95420766D01*
X125340766Y-95302941D01*
X125479313Y-95210367D01*
X125633258Y-95146601D01*
X125796685Y-95114093D01*
X125963315Y-95114093D01*
X126126742Y-95146601D01*
G37*
G36*
X128666742Y-95146601D02*
G01*
X128820687Y-95210367D01*
X128959234Y-95302941D01*
X129077059Y-95420766D01*
X129169633Y-95559313D01*
X129233399Y-95713258D01*
X129265907Y-95876685D01*
X129265907Y-96043315D01*
X129233399Y-96206742D01*
X129169633Y-96360687D01*
X129077059Y-96499234D01*
X128959234Y-96617059D01*
X128820687Y-96709633D01*
X128666742Y-96773399D01*
X128503315Y-96805907D01*
X128336685Y-96805907D01*
X128173258Y-96773399D01*
X128019313Y-96709633D01*
X127880766Y-96617059D01*
X127762941Y-96499234D01*
X127670367Y-96360687D01*
X127606601Y-96206742D01*
X127574093Y-96043315D01*
X127574093Y-95876685D01*
X127606601Y-95713258D01*
X127670367Y-95559313D01*
X127762941Y-95420766D01*
X127880766Y-95302941D01*
X128019313Y-95210367D01*
X128173258Y-95146601D01*
X128336685Y-95114093D01*
X128503315Y-95114093D01*
X128666742Y-95146601D01*
G37*
G36*
X131206742Y-95146601D02*
G01*
X131360687Y-95210367D01*
X131499234Y-95302941D01*
X131617059Y-95420766D01*
X131709633Y-95559313D01*
X131773399Y-95713258D01*
X131805907Y-95876685D01*
X131805907Y-96043315D01*
X131773399Y-96206742D01*
X131709633Y-96360687D01*
X131617059Y-96499234D01*
X131499234Y-96617059D01*
X131360687Y-96709633D01*
X131206742Y-96773399D01*
X131043315Y-96805907D01*
X130876685Y-96805907D01*
X130713258Y-96773399D01*
X130559313Y-96709633D01*
X130420766Y-96617059D01*
X130302941Y-96499234D01*
X130210367Y-96360687D01*
X130146601Y-96206742D01*
X130114093Y-96043315D01*
X130114093Y-95876685D01*
X130146601Y-95713258D01*
X130210367Y-95559313D01*
X130302941Y-95420766D01*
X130420766Y-95302941D01*
X130559313Y-95210367D01*
X130713258Y-95146601D01*
X130876685Y-95114093D01*
X131043315Y-95114093D01*
X131206742Y-95146601D01*
G37*
G36*
X133746742Y-95146601D02*
G01*
X133900687Y-95210367D01*
X134039234Y-95302941D01*
X134157059Y-95420766D01*
X134249633Y-95559313D01*
X134313399Y-95713258D01*
X134345907Y-95876685D01*
X134345907Y-96043315D01*
X134313399Y-96206742D01*
X134249633Y-96360687D01*
X134157059Y-96499234D01*
X134039234Y-96617059D01*
X133900687Y-96709633D01*
X133746742Y-96773399D01*
X133583315Y-96805907D01*
X133416685Y-96805907D01*
X133253258Y-96773399D01*
X133099313Y-96709633D01*
X132960766Y-96617059D01*
X132842941Y-96499234D01*
X132750367Y-96360687D01*
X132686601Y-96206742D01*
X132654093Y-96043315D01*
X132654093Y-95876685D01*
X132686601Y-95713258D01*
X132750367Y-95559313D01*
X132842941Y-95420766D01*
X132960766Y-95302941D01*
X133099313Y-95210367D01*
X133253258Y-95146601D01*
X133416685Y-95114093D01*
X133583315Y-95114093D01*
X133746742Y-95146601D01*
G37*
G36*
X136286742Y-95146601D02*
G01*
X136440687Y-95210367D01*
X136579234Y-95302941D01*
X136697059Y-95420766D01*
X136789633Y-95559313D01*
X136853399Y-95713258D01*
X136885907Y-95876685D01*
X136885907Y-96043315D01*
X136853399Y-96206742D01*
X136789633Y-96360687D01*
X136697059Y-96499234D01*
X136579234Y-96617059D01*
X136440687Y-96709633D01*
X136286742Y-96773399D01*
X136123315Y-96805907D01*
X135956685Y-96805907D01*
X135793258Y-96773399D01*
X135639313Y-96709633D01*
X135500766Y-96617059D01*
X135382941Y-96499234D01*
X135290367Y-96360687D01*
X135226601Y-96206742D01*
X135194093Y-96043315D01*
X135194093Y-95876685D01*
X135226601Y-95713258D01*
X135290367Y-95559313D01*
X135382941Y-95420766D01*
X135500766Y-95302941D01*
X135639313Y-95210367D01*
X135793258Y-95146601D01*
X135956685Y-95114093D01*
X136123315Y-95114093D01*
X136286742Y-95146601D01*
G37*
G36*
X138826742Y-95146601D02*
G01*
X138980687Y-95210367D01*
X139119234Y-95302941D01*
X139237059Y-95420766D01*
X139329633Y-95559313D01*
X139393399Y-95713258D01*
X139425907Y-95876685D01*
X139425907Y-96043315D01*
X139393399Y-96206742D01*
X139329633Y-96360687D01*
X139237059Y-96499234D01*
X139119234Y-96617059D01*
X138980687Y-96709633D01*
X138826742Y-96773399D01*
X138663315Y-96805907D01*
X138496685Y-96805907D01*
X138333258Y-96773399D01*
X138179313Y-96709633D01*
X138040766Y-96617059D01*
X137922941Y-96499234D01*
X137830367Y-96360687D01*
X137766601Y-96206742D01*
X137734093Y-96043315D01*
X137734093Y-95876685D01*
X137766601Y-95713258D01*
X137830367Y-95559313D01*
X137922941Y-95420766D01*
X138040766Y-95302941D01*
X138179313Y-95210367D01*
X138333258Y-95146601D01*
X138496685Y-95114093D01*
X138663315Y-95114093D01*
X138826742Y-95146601D01*
G37*
G36*
X141366742Y-95146601D02*
G01*
X141520687Y-95210367D01*
X141659234Y-95302941D01*
X141777059Y-95420766D01*
X141869633Y-95559313D01*
X141933399Y-95713258D01*
X141965907Y-95876685D01*
X141965907Y-96043315D01*
X141933399Y-96206742D01*
X141869633Y-96360687D01*
X141777059Y-96499234D01*
X141659234Y-96617059D01*
X141520687Y-96709633D01*
X141366742Y-96773399D01*
X141203315Y-96805907D01*
X141036685Y-96805907D01*
X140873258Y-96773399D01*
X140719313Y-96709633D01*
X140580766Y-96617059D01*
X140462941Y-96499234D01*
X140370367Y-96360687D01*
X140306601Y-96206742D01*
X140274093Y-96043315D01*
X140274093Y-95876685D01*
X140306601Y-95713258D01*
X140370367Y-95559313D01*
X140462941Y-95420766D01*
X140580766Y-95302941D01*
X140719313Y-95210367D01*
X140873258Y-95146601D01*
X141036685Y-95114093D01*
X141203315Y-95114093D01*
X141366742Y-95146601D01*
G37*
G36*
X143906742Y-95146601D02*
G01*
X144060687Y-95210367D01*
X144199234Y-95302941D01*
X144317059Y-95420766D01*
X144409633Y-95559313D01*
X144473399Y-95713258D01*
X144505907Y-95876685D01*
X144505907Y-96043315D01*
X144473399Y-96206742D01*
X144409633Y-96360687D01*
X144317059Y-96499234D01*
X144199234Y-96617059D01*
X144060687Y-96709633D01*
X143906742Y-96773399D01*
X143743315Y-96805907D01*
X143576685Y-96805907D01*
X143413258Y-96773399D01*
X143259313Y-96709633D01*
X143120766Y-96617059D01*
X143002941Y-96499234D01*
X142910367Y-96360687D01*
X142846601Y-96206742D01*
X142814093Y-96043315D01*
X142814093Y-95876685D01*
X142846601Y-95713258D01*
X142910367Y-95559313D01*
X143002941Y-95420766D01*
X143120766Y-95302941D01*
X143259313Y-95210367D01*
X143413258Y-95146601D01*
X143576685Y-95114093D01*
X143743315Y-95114093D01*
X143906742Y-95146601D01*
G37*
G36*
X146446742Y-95146601D02*
G01*
X146600687Y-95210367D01*
X146739234Y-95302941D01*
X146857059Y-95420766D01*
X146949633Y-95559313D01*
X147013399Y-95713258D01*
X147045907Y-95876685D01*
X147045907Y-96043315D01*
X147013399Y-96206742D01*
X146949633Y-96360687D01*
X146857059Y-96499234D01*
X146739234Y-96617059D01*
X146600687Y-96709633D01*
X146446742Y-96773399D01*
X146283315Y-96805907D01*
X146116685Y-96805907D01*
X145953258Y-96773399D01*
X145799313Y-96709633D01*
X145660766Y-96617059D01*
X145542941Y-96499234D01*
X145450367Y-96360687D01*
X145386601Y-96206742D01*
X145354093Y-96043315D01*
X145354093Y-95876685D01*
X145386601Y-95713258D01*
X145450367Y-95559313D01*
X145542941Y-95420766D01*
X145660766Y-95302941D01*
X145799313Y-95210367D01*
X145953258Y-95146601D01*
X146116685Y-95114093D01*
X146283315Y-95114093D01*
X146446742Y-95146601D01*
G37*
G36*
X51400000Y-96400000D02*
G01*
X49600000Y-96400000D01*
X49600000Y-94600000D01*
X51400000Y-94600000D01*
X51400000Y-96400000D01*
G37*
G36*
X53301256Y-94638754D02*
G01*
X53464257Y-94706271D01*
X53610954Y-94804291D01*
X53735709Y-94929046D01*
X53833729Y-95075743D01*
X53901246Y-95238744D01*
X53935666Y-95411785D01*
X53935666Y-95588215D01*
X53901246Y-95761256D01*
X53833729Y-95924257D01*
X53735709Y-96070954D01*
X53610954Y-96195709D01*
X53464257Y-96293729D01*
X53301256Y-96361246D01*
X53128215Y-96395666D01*
X52951785Y-96395666D01*
X52778744Y-96361246D01*
X52615743Y-96293729D01*
X52469046Y-96195709D01*
X52344291Y-96070954D01*
X52246271Y-95924257D01*
X52178754Y-95761256D01*
X52144334Y-95588215D01*
X52144334Y-95411785D01*
X52178754Y-95238744D01*
X52246271Y-95075743D01*
X52344291Y-94929046D01*
X52469046Y-94804291D01*
X52615743Y-94706271D01*
X52778744Y-94638754D01*
X52951785Y-94604334D01*
X53128215Y-94604334D01*
X53301256Y-94638754D01*
G37*
G36*
X60263000Y-92350000D02*
G01*
X58263000Y-92350000D01*
X58263000Y-90350000D01*
X60263000Y-90350000D01*
X60263000Y-92350000D01*
G37*
G36*
X68816742Y-89826601D02*
G01*
X68970687Y-89890367D01*
X69109234Y-89982941D01*
X69227059Y-90100766D01*
X69319633Y-90239313D01*
X69383399Y-90393258D01*
X69415907Y-90556685D01*
X69415907Y-90723315D01*
X69383399Y-90886742D01*
X69319633Y-91040687D01*
X69227059Y-91179234D01*
X69109234Y-91297059D01*
X68970687Y-91389633D01*
X68816742Y-91453399D01*
X68653315Y-91485907D01*
X68486685Y-91485907D01*
X68323258Y-91453399D01*
X68169313Y-91389633D01*
X68030766Y-91297059D01*
X67912941Y-91179234D01*
X67820367Y-91040687D01*
X67756601Y-90886742D01*
X67724093Y-90723315D01*
X67724093Y-90556685D01*
X67756601Y-90393258D01*
X67820367Y-90239313D01*
X67912941Y-90100766D01*
X68030766Y-89982941D01*
X68169313Y-89890367D01*
X68323258Y-89826601D01*
X68486685Y-89794093D01*
X68653315Y-89794093D01*
X68816742Y-89826601D01*
G37*
G36*
X91676742Y-89826601D02*
G01*
X91830687Y-89890367D01*
X91969234Y-89982941D01*
X92087059Y-90100766D01*
X92179633Y-90239313D01*
X92243399Y-90393258D01*
X92275907Y-90556685D01*
X92275907Y-90723315D01*
X92243399Y-90886742D01*
X92179633Y-91040687D01*
X92087059Y-91179234D01*
X91969234Y-91297059D01*
X91830687Y-91389633D01*
X91676742Y-91453399D01*
X91513315Y-91485907D01*
X91346685Y-91485907D01*
X91183258Y-91453399D01*
X91029313Y-91389633D01*
X90890766Y-91297059D01*
X90772941Y-91179234D01*
X90680367Y-91040687D01*
X90616601Y-90886742D01*
X90584093Y-90723315D01*
X90584093Y-90556685D01*
X90616601Y-90393258D01*
X90680367Y-90239313D01*
X90772941Y-90100766D01*
X90890766Y-89982941D01*
X91029313Y-89890367D01*
X91183258Y-89826601D01*
X91346685Y-89794093D01*
X91513315Y-89794093D01*
X91676742Y-89826601D01*
G37*
G36*
X128495151Y-87367301D02*
G01*
X128696623Y-87432763D01*
X128885373Y-87528936D01*
X129056755Y-87653452D01*
X129206548Y-87803245D01*
X129331064Y-87974627D01*
X129427237Y-88163377D01*
X129492699Y-88364849D01*
X129525838Y-88574080D01*
X129525838Y-88785920D01*
X129492699Y-88995151D01*
X129427237Y-89196623D01*
X129331064Y-89385373D01*
X129206548Y-89556755D01*
X129056755Y-89706548D01*
X128885373Y-89831064D01*
X128696623Y-89927237D01*
X128495151Y-89992699D01*
X128285920Y-90025838D01*
X128074080Y-90025838D01*
X127864849Y-89992699D01*
X127663377Y-89927237D01*
X127474627Y-89831064D01*
X127303245Y-89706548D01*
X127153452Y-89556755D01*
X127028936Y-89385373D01*
X126932763Y-89196623D01*
X126867301Y-88995151D01*
X126834162Y-88785920D01*
X126834162Y-88574080D01*
X126867301Y-88364849D01*
X126932763Y-88163377D01*
X127028936Y-87974627D01*
X127153452Y-87803245D01*
X127303245Y-87653452D01*
X127474627Y-87528936D01*
X127663377Y-87432763D01*
X127864849Y-87367301D01*
X128074080Y-87334162D01*
X128285920Y-87334162D01*
X128495151Y-87367301D01*
G37*
G36*
X148815151Y-87367301D02*
G01*
X149016623Y-87432763D01*
X149205373Y-87528936D01*
X149376755Y-87653452D01*
X149526548Y-87803245D01*
X149651064Y-87974627D01*
X149747237Y-88163377D01*
X149812699Y-88364849D01*
X149845838Y-88574080D01*
X149845838Y-88785920D01*
X149812699Y-88995151D01*
X149747237Y-89196623D01*
X149651064Y-89385373D01*
X149526548Y-89556755D01*
X149376755Y-89706548D01*
X149205373Y-89831064D01*
X149016623Y-89927237D01*
X148815151Y-89992699D01*
X148605920Y-90025838D01*
X148394080Y-90025838D01*
X148184849Y-89992699D01*
X147983377Y-89927237D01*
X147794627Y-89831064D01*
X147623245Y-89706548D01*
X147473452Y-89556755D01*
X147348936Y-89385373D01*
X147252763Y-89196623D01*
X147187301Y-88995151D01*
X147154162Y-88785920D01*
X147154162Y-88574080D01*
X147187301Y-88364849D01*
X147252763Y-88163377D01*
X147348936Y-87974627D01*
X147473452Y-87803245D01*
X147623245Y-87653452D01*
X147794627Y-87528936D01*
X147983377Y-87432763D01*
X148184849Y-87367301D01*
X148394080Y-87334162D01*
X148605920Y-87334162D01*
X148815151Y-87367301D01*
G37*
G36*
X68816742Y-87286601D02*
G01*
X68970687Y-87350367D01*
X69109234Y-87442941D01*
X69227059Y-87560766D01*
X69319633Y-87699313D01*
X69383399Y-87853258D01*
X69415907Y-88016685D01*
X69415907Y-88183315D01*
X69383399Y-88346742D01*
X69319633Y-88500687D01*
X69227059Y-88639234D01*
X69109234Y-88757059D01*
X68970687Y-88849633D01*
X68816742Y-88913399D01*
X68653315Y-88945907D01*
X68486685Y-88945907D01*
X68323258Y-88913399D01*
X68169313Y-88849633D01*
X68030766Y-88757059D01*
X67912941Y-88639234D01*
X67820367Y-88500687D01*
X67756601Y-88346742D01*
X67724093Y-88183315D01*
X67724093Y-88016685D01*
X67756601Y-87853258D01*
X67820367Y-87699313D01*
X67912941Y-87560766D01*
X68030766Y-87442941D01*
X68169313Y-87350367D01*
X68323258Y-87286601D01*
X68486685Y-87254093D01*
X68653315Y-87254093D01*
X68816742Y-87286601D01*
G37*
G36*
X91676742Y-87286601D02*
G01*
X91830687Y-87350367D01*
X91969234Y-87442941D01*
X92087059Y-87560766D01*
X92179633Y-87699313D01*
X92243399Y-87853258D01*
X92275907Y-88016685D01*
X92275907Y-88183315D01*
X92243399Y-88346742D01*
X92179633Y-88500687D01*
X92087059Y-88639234D01*
X91969234Y-88757059D01*
X91830687Y-88849633D01*
X91676742Y-88913399D01*
X91513315Y-88945907D01*
X91346685Y-88945907D01*
X91183258Y-88913399D01*
X91029313Y-88849633D01*
X90890766Y-88757059D01*
X90772941Y-88639234D01*
X90680367Y-88500687D01*
X90616601Y-88346742D01*
X90584093Y-88183315D01*
X90584093Y-88016685D01*
X90616601Y-87853258D01*
X90680367Y-87699313D01*
X90772941Y-87560766D01*
X90890766Y-87442941D01*
X91029313Y-87350367D01*
X91183258Y-87286601D01*
X91346685Y-87254093D01*
X91513315Y-87254093D01*
X91676742Y-87286601D01*
G37*
G36*
X68816742Y-84746601D02*
G01*
X68970687Y-84810367D01*
X69109234Y-84902941D01*
X69227059Y-85020766D01*
X69319633Y-85159313D01*
X69383399Y-85313258D01*
X69415907Y-85476685D01*
X69415907Y-85643315D01*
X69383399Y-85806742D01*
X69319633Y-85960687D01*
X69227059Y-86099234D01*
X69109234Y-86217059D01*
X68970687Y-86309633D01*
X68816742Y-86373399D01*
X68653315Y-86405907D01*
X68486685Y-86405907D01*
X68323258Y-86373399D01*
X68169313Y-86309633D01*
X68030766Y-86217059D01*
X67912941Y-86099234D01*
X67820367Y-85960687D01*
X67756601Y-85806742D01*
X67724093Y-85643315D01*
X67724093Y-85476685D01*
X67756601Y-85313258D01*
X67820367Y-85159313D01*
X67912941Y-85020766D01*
X68030766Y-84902941D01*
X68169313Y-84810367D01*
X68323258Y-84746601D01*
X68486685Y-84714093D01*
X68653315Y-84714093D01*
X68816742Y-84746601D01*
G37*
G36*
X91676742Y-84746601D02*
G01*
X91830687Y-84810367D01*
X91969234Y-84902941D01*
X92087059Y-85020766D01*
X92179633Y-85159313D01*
X92243399Y-85313258D01*
X92275907Y-85476685D01*
X92275907Y-85643315D01*
X92243399Y-85806742D01*
X92179633Y-85960687D01*
X92087059Y-86099234D01*
X91969234Y-86217059D01*
X91830687Y-86309633D01*
X91676742Y-86373399D01*
X91513315Y-86405907D01*
X91346685Y-86405907D01*
X91183258Y-86373399D01*
X91029313Y-86309633D01*
X90890766Y-86217059D01*
X90772941Y-86099234D01*
X90680367Y-85960687D01*
X90616601Y-85806742D01*
X90584093Y-85643315D01*
X90584093Y-85476685D01*
X90616601Y-85313258D01*
X90680367Y-85159313D01*
X90772941Y-85020766D01*
X90890766Y-84902941D01*
X91029313Y-84810367D01*
X91183258Y-84746601D01*
X91346685Y-84714093D01*
X91513315Y-84714093D01*
X91676742Y-84746601D01*
G37*
G36*
X68816742Y-82206601D02*
G01*
X68970687Y-82270367D01*
X69109234Y-82362941D01*
X69227059Y-82480766D01*
X69319633Y-82619313D01*
X69383399Y-82773258D01*
X69415907Y-82936685D01*
X69415907Y-83103315D01*
X69383399Y-83266742D01*
X69319633Y-83420687D01*
X69227059Y-83559234D01*
X69109234Y-83677059D01*
X68970687Y-83769633D01*
X68816742Y-83833399D01*
X68653315Y-83865907D01*
X68486685Y-83865907D01*
X68323258Y-83833399D01*
X68169313Y-83769633D01*
X68030766Y-83677059D01*
X67912941Y-83559234D01*
X67820367Y-83420687D01*
X67756601Y-83266742D01*
X67724093Y-83103315D01*
X67724093Y-82936685D01*
X67756601Y-82773258D01*
X67820367Y-82619313D01*
X67912941Y-82480766D01*
X68030766Y-82362941D01*
X68169313Y-82270367D01*
X68323258Y-82206601D01*
X68486685Y-82174093D01*
X68653315Y-82174093D01*
X68816742Y-82206601D01*
G37*
G36*
X91676742Y-82206601D02*
G01*
X91830687Y-82270367D01*
X91969234Y-82362941D01*
X92087059Y-82480766D01*
X92179633Y-82619313D01*
X92243399Y-82773258D01*
X92275907Y-82936685D01*
X92275907Y-83103315D01*
X92243399Y-83266742D01*
X92179633Y-83420687D01*
X92087059Y-83559234D01*
X91969234Y-83677059D01*
X91830687Y-83769633D01*
X91676742Y-83833399D01*
X91513315Y-83865907D01*
X91346685Y-83865907D01*
X91183258Y-83833399D01*
X91029313Y-83769633D01*
X90890766Y-83677059D01*
X90772941Y-83559234D01*
X90680367Y-83420687D01*
X90616601Y-83266742D01*
X90584093Y-83103315D01*
X90584093Y-82936685D01*
X90616601Y-82773258D01*
X90680367Y-82619313D01*
X90772941Y-82480766D01*
X90890766Y-82362941D01*
X91029313Y-82270367D01*
X91183258Y-82206601D01*
X91346685Y-82174093D01*
X91513315Y-82174093D01*
X91676742Y-82206601D01*
G37*
G36*
X68816742Y-79666601D02*
G01*
X68970687Y-79730367D01*
X69109234Y-79822941D01*
X69227059Y-79940766D01*
X69319633Y-80079313D01*
X69383399Y-80233258D01*
X69415907Y-80396685D01*
X69415907Y-80563315D01*
X69383399Y-80726742D01*
X69319633Y-80880687D01*
X69227059Y-81019234D01*
X69109234Y-81137059D01*
X68970687Y-81229633D01*
X68816742Y-81293399D01*
X68653315Y-81325907D01*
X68486685Y-81325907D01*
X68323258Y-81293399D01*
X68169313Y-81229633D01*
X68030766Y-81137059D01*
X67912941Y-81019234D01*
X67820367Y-80880687D01*
X67756601Y-80726742D01*
X67724093Y-80563315D01*
X67724093Y-80396685D01*
X67756601Y-80233258D01*
X67820367Y-80079313D01*
X67912941Y-79940766D01*
X68030766Y-79822941D01*
X68169313Y-79730367D01*
X68323258Y-79666601D01*
X68486685Y-79634093D01*
X68653315Y-79634093D01*
X68816742Y-79666601D01*
G37*
G36*
X91676742Y-79666601D02*
G01*
X91830687Y-79730367D01*
X91969234Y-79822941D01*
X92087059Y-79940766D01*
X92179633Y-80079313D01*
X92243399Y-80233258D01*
X92275907Y-80396685D01*
X92275907Y-80563315D01*
X92243399Y-80726742D01*
X92179633Y-80880687D01*
X92087059Y-81019234D01*
X91969234Y-81137059D01*
X91830687Y-81229633D01*
X91676742Y-81293399D01*
X91513315Y-81325907D01*
X91346685Y-81325907D01*
X91183258Y-81293399D01*
X91029313Y-81229633D01*
X90890766Y-81137059D01*
X90772941Y-81019234D01*
X90680367Y-80880687D01*
X90616601Y-80726742D01*
X90584093Y-80563315D01*
X90584093Y-80396685D01*
X90616601Y-80233258D01*
X90680367Y-80079313D01*
X90772941Y-79940766D01*
X90890766Y-79822941D01*
X91029313Y-79730367D01*
X91183258Y-79666601D01*
X91346685Y-79634093D01*
X91513315Y-79634093D01*
X91676742Y-79666601D01*
G37*
G36*
X68816742Y-77126601D02*
G01*
X68970687Y-77190367D01*
X69109234Y-77282941D01*
X69227059Y-77400766D01*
X69319633Y-77539313D01*
X69383399Y-77693258D01*
X69415907Y-77856685D01*
X69415907Y-78023315D01*
X69383399Y-78186742D01*
X69319633Y-78340687D01*
X69227059Y-78479234D01*
X69109234Y-78597059D01*
X68970687Y-78689633D01*
X68816742Y-78753399D01*
X68653315Y-78785907D01*
X68486685Y-78785907D01*
X68323258Y-78753399D01*
X68169313Y-78689633D01*
X68030766Y-78597059D01*
X67912941Y-78479234D01*
X67820367Y-78340687D01*
X67756601Y-78186742D01*
X67724093Y-78023315D01*
X67724093Y-77856685D01*
X67756601Y-77693258D01*
X67820367Y-77539313D01*
X67912941Y-77400766D01*
X68030766Y-77282941D01*
X68169313Y-77190367D01*
X68323258Y-77126601D01*
X68486685Y-77094093D01*
X68653315Y-77094093D01*
X68816742Y-77126601D01*
G37*
G36*
X91676742Y-77126601D02*
G01*
X91830687Y-77190367D01*
X91969234Y-77282941D01*
X92087059Y-77400766D01*
X92179633Y-77539313D01*
X92243399Y-77693258D01*
X92275907Y-77856685D01*
X92275907Y-78023315D01*
X92243399Y-78186742D01*
X92179633Y-78340687D01*
X92087059Y-78479234D01*
X91969234Y-78597059D01*
X91830687Y-78689633D01*
X91676742Y-78753399D01*
X91513315Y-78785907D01*
X91346685Y-78785907D01*
X91183258Y-78753399D01*
X91029313Y-78689633D01*
X90890766Y-78597059D01*
X90772941Y-78479234D01*
X90680367Y-78340687D01*
X90616601Y-78186742D01*
X90584093Y-78023315D01*
X90584093Y-77856685D01*
X90616601Y-77693258D01*
X90680367Y-77539313D01*
X90772941Y-77400766D01*
X90890766Y-77282941D01*
X91029313Y-77190367D01*
X91183258Y-77126601D01*
X91346685Y-77094093D01*
X91513315Y-77094093D01*
X91676742Y-77126601D01*
G37*
G36*
X68816742Y-74586601D02*
G01*
X68970687Y-74650367D01*
X69109234Y-74742941D01*
X69227059Y-74860766D01*
X69319633Y-74999313D01*
X69383399Y-75153258D01*
X69415907Y-75316685D01*
X69415907Y-75483315D01*
X69383399Y-75646742D01*
X69319633Y-75800687D01*
X69227059Y-75939234D01*
X69109234Y-76057059D01*
X68970687Y-76149633D01*
X68816742Y-76213399D01*
X68653315Y-76245907D01*
X68486685Y-76245907D01*
X68323258Y-76213399D01*
X68169313Y-76149633D01*
X68030766Y-76057059D01*
X67912941Y-75939234D01*
X67820367Y-75800687D01*
X67756601Y-75646742D01*
X67724093Y-75483315D01*
X67724093Y-75316685D01*
X67756601Y-75153258D01*
X67820367Y-74999313D01*
X67912941Y-74860766D01*
X68030766Y-74742941D01*
X68169313Y-74650367D01*
X68323258Y-74586601D01*
X68486685Y-74554093D01*
X68653315Y-74554093D01*
X68816742Y-74586601D01*
G37*
G36*
X91676742Y-74586601D02*
G01*
X91830687Y-74650367D01*
X91969234Y-74742941D01*
X92087059Y-74860766D01*
X92179633Y-74999313D01*
X92243399Y-75153258D01*
X92275907Y-75316685D01*
X92275907Y-75483315D01*
X92243399Y-75646742D01*
X92179633Y-75800687D01*
X92087059Y-75939234D01*
X91969234Y-76057059D01*
X91830687Y-76149633D01*
X91676742Y-76213399D01*
X91513315Y-76245907D01*
X91346685Y-76245907D01*
X91183258Y-76213399D01*
X91029313Y-76149633D01*
X90890766Y-76057059D01*
X90772941Y-75939234D01*
X90680367Y-75800687D01*
X90616601Y-75646742D01*
X90584093Y-75483315D01*
X90584093Y-75316685D01*
X90616601Y-75153258D01*
X90680367Y-74999313D01*
X90772941Y-74860766D01*
X90890766Y-74742941D01*
X91029313Y-74650367D01*
X91183258Y-74586601D01*
X91346685Y-74554093D01*
X91513315Y-74554093D01*
X91676742Y-74586601D01*
G37*
G36*
X9452228Y-72854448D02*
G01*
X9597117Y-72914463D01*
X9727515Y-73001592D01*
X9838408Y-73112485D01*
X9925537Y-73242883D01*
X9985552Y-73387772D01*
X10016148Y-73541586D01*
X10016148Y-73698414D01*
X9985552Y-73852228D01*
X9925537Y-73997117D01*
X9838408Y-74127515D01*
X9727515Y-74238408D01*
X9597117Y-74325537D01*
X9452228Y-74385552D01*
X9298414Y-74416148D01*
X9141586Y-74416148D01*
X8987772Y-74385552D01*
X8842883Y-74325537D01*
X8712485Y-74238408D01*
X8601592Y-74127515D01*
X8514463Y-73997117D01*
X8454448Y-73852228D01*
X8423852Y-73698414D01*
X8423852Y-73541586D01*
X8454448Y-73387772D01*
X8514463Y-73242883D01*
X8601592Y-73112485D01*
X8712485Y-73001592D01*
X8842883Y-72914463D01*
X8987772Y-72854448D01*
X9141586Y-72823852D01*
X9298414Y-72823852D01*
X9452228Y-72854448D01*
G37*
G36*
X11992228Y-72854448D02*
G01*
X12137117Y-72914463D01*
X12267515Y-73001592D01*
X12378408Y-73112485D01*
X12465537Y-73242883D01*
X12525552Y-73387772D01*
X12556148Y-73541586D01*
X12556148Y-73698414D01*
X12525552Y-73852228D01*
X12465537Y-73997117D01*
X12378408Y-74127515D01*
X12267515Y-74238408D01*
X12137117Y-74325537D01*
X11992228Y-74385552D01*
X11838414Y-74416148D01*
X11681586Y-74416148D01*
X11527772Y-74385552D01*
X11382883Y-74325537D01*
X11252485Y-74238408D01*
X11141592Y-74127515D01*
X11054463Y-73997117D01*
X10994448Y-73852228D01*
X10963852Y-73698414D01*
X10963852Y-73541586D01*
X10994448Y-73387772D01*
X11054463Y-73242883D01*
X11141592Y-73112485D01*
X11252485Y-73001592D01*
X11382883Y-72914463D01*
X11527772Y-72854448D01*
X11681586Y-72823852D01*
X11838414Y-72823852D01*
X11992228Y-72854448D01*
G37*
G36*
X14532228Y-72854448D02*
G01*
X14677117Y-72914463D01*
X14807515Y-73001592D01*
X14918408Y-73112485D01*
X15005537Y-73242883D01*
X15065552Y-73387772D01*
X15096148Y-73541586D01*
X15096148Y-73698414D01*
X15065552Y-73852228D01*
X15005537Y-73997117D01*
X14918408Y-74127515D01*
X14807515Y-74238408D01*
X14677117Y-74325537D01*
X14532228Y-74385552D01*
X14378414Y-74416148D01*
X14221586Y-74416148D01*
X14067772Y-74385552D01*
X13922883Y-74325537D01*
X13792485Y-74238408D01*
X13681592Y-74127515D01*
X13594463Y-73997117D01*
X13534448Y-73852228D01*
X13503852Y-73698414D01*
X13503852Y-73541586D01*
X13534448Y-73387772D01*
X13594463Y-73242883D01*
X13681592Y-73112485D01*
X13792485Y-73001592D01*
X13922883Y-72914463D01*
X14067772Y-72854448D01*
X14221586Y-72823852D01*
X14378414Y-72823852D01*
X14532228Y-72854448D01*
G37*
G36*
X17072228Y-72854448D02*
G01*
X17217117Y-72914463D01*
X17347515Y-73001592D01*
X17458408Y-73112485D01*
X17545537Y-73242883D01*
X17605552Y-73387772D01*
X17636148Y-73541586D01*
X17636148Y-73698414D01*
X17605552Y-73852228D01*
X17545537Y-73997117D01*
X17458408Y-74127515D01*
X17347515Y-74238408D01*
X17217117Y-74325537D01*
X17072228Y-74385552D01*
X16918414Y-74416148D01*
X16761586Y-74416148D01*
X16607772Y-74385552D01*
X16462883Y-74325537D01*
X16332485Y-74238408D01*
X16221592Y-74127515D01*
X16134463Y-73997117D01*
X16074448Y-73852228D01*
X16043852Y-73698414D01*
X16043852Y-73541586D01*
X16074448Y-73387772D01*
X16134463Y-73242883D01*
X16221592Y-73112485D01*
X16332485Y-73001592D01*
X16462883Y-72914463D01*
X16607772Y-72854448D01*
X16761586Y-72823852D01*
X16918414Y-72823852D01*
X17072228Y-72854448D01*
G37*
G36*
X19612228Y-72854448D02*
G01*
X19757117Y-72914463D01*
X19887515Y-73001592D01*
X19998408Y-73112485D01*
X20085537Y-73242883D01*
X20145552Y-73387772D01*
X20176148Y-73541586D01*
X20176148Y-73698414D01*
X20145552Y-73852228D01*
X20085537Y-73997117D01*
X19998408Y-74127515D01*
X19887515Y-74238408D01*
X19757117Y-74325537D01*
X19612228Y-74385552D01*
X19458414Y-74416148D01*
X19301586Y-74416148D01*
X19147772Y-74385552D01*
X19002883Y-74325537D01*
X18872485Y-74238408D01*
X18761592Y-74127515D01*
X18674463Y-73997117D01*
X18614448Y-73852228D01*
X18583852Y-73698414D01*
X18583852Y-73541586D01*
X18614448Y-73387772D01*
X18674463Y-73242883D01*
X18761592Y-73112485D01*
X18872485Y-73001592D01*
X19002883Y-72914463D01*
X19147772Y-72854448D01*
X19301586Y-72823852D01*
X19458414Y-72823852D01*
X19612228Y-72854448D01*
G37*
G36*
X22152228Y-72854448D02*
G01*
X22297117Y-72914463D01*
X22427515Y-73001592D01*
X22538408Y-73112485D01*
X22625537Y-73242883D01*
X22685552Y-73387772D01*
X22716148Y-73541586D01*
X22716148Y-73698414D01*
X22685552Y-73852228D01*
X22625537Y-73997117D01*
X22538408Y-74127515D01*
X22427515Y-74238408D01*
X22297117Y-74325537D01*
X22152228Y-74385552D01*
X21998414Y-74416148D01*
X21841586Y-74416148D01*
X21687772Y-74385552D01*
X21542883Y-74325537D01*
X21412485Y-74238408D01*
X21301592Y-74127515D01*
X21214463Y-73997117D01*
X21154448Y-73852228D01*
X21123852Y-73698414D01*
X21123852Y-73541586D01*
X21154448Y-73387772D01*
X21214463Y-73242883D01*
X21301592Y-73112485D01*
X21412485Y-73001592D01*
X21542883Y-72914463D01*
X21687772Y-72854448D01*
X21841586Y-72823852D01*
X21998414Y-72823852D01*
X22152228Y-72854448D01*
G37*
G36*
X24692228Y-72854448D02*
G01*
X24837117Y-72914463D01*
X24967515Y-73001592D01*
X25078408Y-73112485D01*
X25165537Y-73242883D01*
X25225552Y-73387772D01*
X25256148Y-73541586D01*
X25256148Y-73698414D01*
X25225552Y-73852228D01*
X25165537Y-73997117D01*
X25078408Y-74127515D01*
X24967515Y-74238408D01*
X24837117Y-74325537D01*
X24692228Y-74385552D01*
X24538414Y-74416148D01*
X24381586Y-74416148D01*
X24227772Y-74385552D01*
X24082883Y-74325537D01*
X23952485Y-74238408D01*
X23841592Y-74127515D01*
X23754463Y-73997117D01*
X23694448Y-73852228D01*
X23663852Y-73698414D01*
X23663852Y-73541586D01*
X23694448Y-73387772D01*
X23754463Y-73242883D01*
X23841592Y-73112485D01*
X23952485Y-73001592D01*
X24082883Y-72914463D01*
X24227772Y-72854448D01*
X24381586Y-72823852D01*
X24538414Y-72823852D01*
X24692228Y-72854448D01*
G37*
G36*
X27232228Y-72854448D02*
G01*
X27377117Y-72914463D01*
X27507515Y-73001592D01*
X27618408Y-73112485D01*
X27705537Y-73242883D01*
X27765552Y-73387772D01*
X27796148Y-73541586D01*
X27796148Y-73698414D01*
X27765552Y-73852228D01*
X27705537Y-73997117D01*
X27618408Y-74127515D01*
X27507515Y-74238408D01*
X27377117Y-74325537D01*
X27232228Y-74385552D01*
X27078414Y-74416148D01*
X26921586Y-74416148D01*
X26767772Y-74385552D01*
X26622883Y-74325537D01*
X26492485Y-74238408D01*
X26381592Y-74127515D01*
X26294463Y-73997117D01*
X26234448Y-73852228D01*
X26203852Y-73698414D01*
X26203852Y-73541586D01*
X26234448Y-73387772D01*
X26294463Y-73242883D01*
X26381592Y-73112485D01*
X26492485Y-73001592D01*
X26622883Y-72914463D01*
X26767772Y-72854448D01*
X26921586Y-72823852D01*
X27078414Y-72823852D01*
X27232228Y-72854448D01*
G37*
G36*
X68816742Y-72046601D02*
G01*
X68970687Y-72110367D01*
X69109234Y-72202941D01*
X69227059Y-72320766D01*
X69319633Y-72459313D01*
X69383399Y-72613258D01*
X69415907Y-72776685D01*
X69415907Y-72943315D01*
X69383399Y-73106742D01*
X69319633Y-73260687D01*
X69227059Y-73399234D01*
X69109234Y-73517059D01*
X68970687Y-73609633D01*
X68816742Y-73673399D01*
X68653315Y-73705907D01*
X68486685Y-73705907D01*
X68323258Y-73673399D01*
X68169313Y-73609633D01*
X68030766Y-73517059D01*
X67912941Y-73399234D01*
X67820367Y-73260687D01*
X67756601Y-73106742D01*
X67724093Y-72943315D01*
X67724093Y-72776685D01*
X67756601Y-72613258D01*
X67820367Y-72459313D01*
X67912941Y-72320766D01*
X68030766Y-72202941D01*
X68169313Y-72110367D01*
X68323258Y-72046601D01*
X68486685Y-72014093D01*
X68653315Y-72014093D01*
X68816742Y-72046601D01*
G37*
G36*
X91676742Y-72046601D02*
G01*
X91830687Y-72110367D01*
X91969234Y-72202941D01*
X92087059Y-72320766D01*
X92179633Y-72459313D01*
X92243399Y-72613258D01*
X92275907Y-72776685D01*
X92275907Y-72943315D01*
X92243399Y-73106742D01*
X92179633Y-73260687D01*
X92087059Y-73399234D01*
X91969234Y-73517059D01*
X91830687Y-73609633D01*
X91676742Y-73673399D01*
X91513315Y-73705907D01*
X91346685Y-73705907D01*
X91183258Y-73673399D01*
X91029313Y-73609633D01*
X90890766Y-73517059D01*
X90772941Y-73399234D01*
X90680367Y-73260687D01*
X90616601Y-73106742D01*
X90584093Y-72943315D01*
X90584093Y-72776685D01*
X90616601Y-72613258D01*
X90680367Y-72459313D01*
X90772941Y-72320766D01*
X90890766Y-72202941D01*
X91029313Y-72110367D01*
X91183258Y-72046601D01*
X91346685Y-72014093D01*
X91513315Y-72014093D01*
X91676742Y-72046601D01*
G37*
G36*
X149350000Y-71750000D02*
G01*
X147650000Y-71750000D01*
X147650000Y-70050000D01*
X149350000Y-70050000D01*
X149350000Y-71750000D01*
G37*
G36*
X128426742Y-70086601D02*
G01*
X128580687Y-70150367D01*
X128719234Y-70242941D01*
X128837059Y-70360766D01*
X128929633Y-70499313D01*
X128993399Y-70653258D01*
X129025907Y-70816685D01*
X129025907Y-70983315D01*
X128993399Y-71146742D01*
X128929633Y-71300687D01*
X128837059Y-71439234D01*
X128719234Y-71557059D01*
X128580687Y-71649633D01*
X128426742Y-71713399D01*
X128263315Y-71745907D01*
X128096685Y-71745907D01*
X127933258Y-71713399D01*
X127779313Y-71649633D01*
X127640766Y-71557059D01*
X127522941Y-71439234D01*
X127430367Y-71300687D01*
X127366601Y-71146742D01*
X127334093Y-70983315D01*
X127334093Y-70816685D01*
X127366601Y-70653258D01*
X127430367Y-70499313D01*
X127522941Y-70360766D01*
X127640766Y-70242941D01*
X127779313Y-70150367D01*
X127933258Y-70086601D01*
X128096685Y-70054093D01*
X128263315Y-70054093D01*
X128426742Y-70086601D01*
G37*
G36*
X130966742Y-70086601D02*
G01*
X131120687Y-70150367D01*
X131259234Y-70242941D01*
X131377059Y-70360766D01*
X131469633Y-70499313D01*
X131533399Y-70653258D01*
X131565907Y-70816685D01*
X131565907Y-70983315D01*
X131533399Y-71146742D01*
X131469633Y-71300687D01*
X131377059Y-71439234D01*
X131259234Y-71557059D01*
X131120687Y-71649633D01*
X130966742Y-71713399D01*
X130803315Y-71745907D01*
X130636685Y-71745907D01*
X130473258Y-71713399D01*
X130319313Y-71649633D01*
X130180766Y-71557059D01*
X130062941Y-71439234D01*
X129970367Y-71300687D01*
X129906601Y-71146742D01*
X129874093Y-70983315D01*
X129874093Y-70816685D01*
X129906601Y-70653258D01*
X129970367Y-70499313D01*
X130062941Y-70360766D01*
X130180766Y-70242941D01*
X130319313Y-70150367D01*
X130473258Y-70086601D01*
X130636685Y-70054093D01*
X130803315Y-70054093D01*
X130966742Y-70086601D01*
G37*
G36*
X133506742Y-70086601D02*
G01*
X133660687Y-70150367D01*
X133799234Y-70242941D01*
X133917059Y-70360766D01*
X134009633Y-70499313D01*
X134073399Y-70653258D01*
X134105907Y-70816685D01*
X134105907Y-70983315D01*
X134073399Y-71146742D01*
X134009633Y-71300687D01*
X133917059Y-71439234D01*
X133799234Y-71557059D01*
X133660687Y-71649633D01*
X133506742Y-71713399D01*
X133343315Y-71745907D01*
X133176685Y-71745907D01*
X133013258Y-71713399D01*
X132859313Y-71649633D01*
X132720766Y-71557059D01*
X132602941Y-71439234D01*
X132510367Y-71300687D01*
X132446601Y-71146742D01*
X132414093Y-70983315D01*
X132414093Y-70816685D01*
X132446601Y-70653258D01*
X132510367Y-70499313D01*
X132602941Y-70360766D01*
X132720766Y-70242941D01*
X132859313Y-70150367D01*
X133013258Y-70086601D01*
X133176685Y-70054093D01*
X133343315Y-70054093D01*
X133506742Y-70086601D01*
G37*
G36*
X136046742Y-70086601D02*
G01*
X136200687Y-70150367D01*
X136339234Y-70242941D01*
X136457059Y-70360766D01*
X136549633Y-70499313D01*
X136613399Y-70653258D01*
X136645907Y-70816685D01*
X136645907Y-70983315D01*
X136613399Y-71146742D01*
X136549633Y-71300687D01*
X136457059Y-71439234D01*
X136339234Y-71557059D01*
X136200687Y-71649633D01*
X136046742Y-71713399D01*
X135883315Y-71745907D01*
X135716685Y-71745907D01*
X135553258Y-71713399D01*
X135399313Y-71649633D01*
X135260766Y-71557059D01*
X135142941Y-71439234D01*
X135050367Y-71300687D01*
X134986601Y-71146742D01*
X134954093Y-70983315D01*
X134954093Y-70816685D01*
X134986601Y-70653258D01*
X135050367Y-70499313D01*
X135142941Y-70360766D01*
X135260766Y-70242941D01*
X135399313Y-70150367D01*
X135553258Y-70086601D01*
X135716685Y-70054093D01*
X135883315Y-70054093D01*
X136046742Y-70086601D01*
G37*
G36*
X138586742Y-70086601D02*
G01*
X138740687Y-70150367D01*
X138879234Y-70242941D01*
X138997059Y-70360766D01*
X139089633Y-70499313D01*
X139153399Y-70653258D01*
X139185907Y-70816685D01*
X139185907Y-70983315D01*
X139153399Y-71146742D01*
X139089633Y-71300687D01*
X138997059Y-71439234D01*
X138879234Y-71557059D01*
X138740687Y-71649633D01*
X138586742Y-71713399D01*
X138423315Y-71745907D01*
X138256685Y-71745907D01*
X138093258Y-71713399D01*
X137939313Y-71649633D01*
X137800766Y-71557059D01*
X137682941Y-71439234D01*
X137590367Y-71300687D01*
X137526601Y-71146742D01*
X137494093Y-70983315D01*
X137494093Y-70816685D01*
X137526601Y-70653258D01*
X137590367Y-70499313D01*
X137682941Y-70360766D01*
X137800766Y-70242941D01*
X137939313Y-70150367D01*
X138093258Y-70086601D01*
X138256685Y-70054093D01*
X138423315Y-70054093D01*
X138586742Y-70086601D01*
G37*
G36*
X141126742Y-70086601D02*
G01*
X141280687Y-70150367D01*
X141419234Y-70242941D01*
X141537059Y-70360766D01*
X141629633Y-70499313D01*
X141693399Y-70653258D01*
X141725907Y-70816685D01*
X141725907Y-70983315D01*
X141693399Y-71146742D01*
X141629633Y-71300687D01*
X141537059Y-71439234D01*
X141419234Y-71557059D01*
X141280687Y-71649633D01*
X141126742Y-71713399D01*
X140963315Y-71745907D01*
X140796685Y-71745907D01*
X140633258Y-71713399D01*
X140479313Y-71649633D01*
X140340766Y-71557059D01*
X140222941Y-71439234D01*
X140130367Y-71300687D01*
X140066601Y-71146742D01*
X140034093Y-70983315D01*
X140034093Y-70816685D01*
X140066601Y-70653258D01*
X140130367Y-70499313D01*
X140222941Y-70360766D01*
X140340766Y-70242941D01*
X140479313Y-70150367D01*
X140633258Y-70086601D01*
X140796685Y-70054093D01*
X140963315Y-70054093D01*
X141126742Y-70086601D01*
G37*
G36*
X143666742Y-70086601D02*
G01*
X143820687Y-70150367D01*
X143959234Y-70242941D01*
X144077059Y-70360766D01*
X144169633Y-70499313D01*
X144233399Y-70653258D01*
X144265907Y-70816685D01*
X144265907Y-70983315D01*
X144233399Y-71146742D01*
X144169633Y-71300687D01*
X144077059Y-71439234D01*
X143959234Y-71557059D01*
X143820687Y-71649633D01*
X143666742Y-71713399D01*
X143503315Y-71745907D01*
X143336685Y-71745907D01*
X143173258Y-71713399D01*
X143019313Y-71649633D01*
X142880766Y-71557059D01*
X142762941Y-71439234D01*
X142670367Y-71300687D01*
X142606601Y-71146742D01*
X142574093Y-70983315D01*
X142574093Y-70816685D01*
X142606601Y-70653258D01*
X142670367Y-70499313D01*
X142762941Y-70360766D01*
X142880766Y-70242941D01*
X143019313Y-70150367D01*
X143173258Y-70086601D01*
X143336685Y-70054093D01*
X143503315Y-70054093D01*
X143666742Y-70086601D01*
G37*
G36*
X146206742Y-70086601D02*
G01*
X146360687Y-70150367D01*
X146499234Y-70242941D01*
X146617059Y-70360766D01*
X146709633Y-70499313D01*
X146773399Y-70653258D01*
X146805907Y-70816685D01*
X146805907Y-70983315D01*
X146773399Y-71146742D01*
X146709633Y-71300687D01*
X146617059Y-71439234D01*
X146499234Y-71557059D01*
X146360687Y-71649633D01*
X146206742Y-71713399D01*
X146043315Y-71745907D01*
X145876685Y-71745907D01*
X145713258Y-71713399D01*
X145559313Y-71649633D01*
X145420766Y-71557059D01*
X145302941Y-71439234D01*
X145210367Y-71300687D01*
X145146601Y-71146742D01*
X145114093Y-70983315D01*
X145114093Y-70816685D01*
X145146601Y-70653258D01*
X145210367Y-70499313D01*
X145302941Y-70360766D01*
X145420766Y-70242941D01*
X145559313Y-70150367D01*
X145713258Y-70086601D01*
X145876685Y-70054093D01*
X146043315Y-70054093D01*
X146206742Y-70086601D01*
G37*
G36*
X68816742Y-69506601D02*
G01*
X68970687Y-69570367D01*
X69109234Y-69662941D01*
X69227059Y-69780766D01*
X69319633Y-69919313D01*
X69383399Y-70073258D01*
X69415907Y-70236685D01*
X69415907Y-70403315D01*
X69383399Y-70566742D01*
X69319633Y-70720687D01*
X69227059Y-70859234D01*
X69109234Y-70977059D01*
X68970687Y-71069633D01*
X68816742Y-71133399D01*
X68653315Y-71165907D01*
X68486685Y-71165907D01*
X68323258Y-71133399D01*
X68169313Y-71069633D01*
X68030766Y-70977059D01*
X67912941Y-70859234D01*
X67820367Y-70720687D01*
X67756601Y-70566742D01*
X67724093Y-70403315D01*
X67724093Y-70236685D01*
X67756601Y-70073258D01*
X67820367Y-69919313D01*
X67912941Y-69780766D01*
X68030766Y-69662941D01*
X68169313Y-69570367D01*
X68323258Y-69506601D01*
X68486685Y-69474093D01*
X68653315Y-69474093D01*
X68816742Y-69506601D01*
G37*
G36*
X91676742Y-69506601D02*
G01*
X91830687Y-69570367D01*
X91969234Y-69662941D01*
X92087059Y-69780766D01*
X92179633Y-69919313D01*
X92243399Y-70073258D01*
X92275907Y-70236685D01*
X92275907Y-70403315D01*
X92243399Y-70566742D01*
X92179633Y-70720687D01*
X92087059Y-70859234D01*
X91969234Y-70977059D01*
X91830687Y-71069633D01*
X91676742Y-71133399D01*
X91513315Y-71165907D01*
X91346685Y-71165907D01*
X91183258Y-71133399D01*
X91029313Y-71069633D01*
X90890766Y-70977059D01*
X90772941Y-70859234D01*
X90680367Y-70720687D01*
X90616601Y-70566742D01*
X90584093Y-70403315D01*
X90584093Y-70236685D01*
X90616601Y-70073258D01*
X90680367Y-69919313D01*
X90772941Y-69780766D01*
X90890766Y-69662941D01*
X91029313Y-69570367D01*
X91183258Y-69506601D01*
X91346685Y-69474093D01*
X91513315Y-69474093D01*
X91676742Y-69506601D01*
G37*
G36*
X49775000Y-69810000D02*
G01*
X47775000Y-69810000D01*
X47775000Y-67810000D01*
X49775000Y-67810000D01*
X49775000Y-69810000D01*
G37*
G36*
X68816742Y-66966601D02*
G01*
X68970687Y-67030367D01*
X69109234Y-67122941D01*
X69227059Y-67240766D01*
X69319633Y-67379313D01*
X69383399Y-67533258D01*
X69415907Y-67696685D01*
X69415907Y-67863315D01*
X69383399Y-68026742D01*
X69319633Y-68180687D01*
X69227059Y-68319234D01*
X69109234Y-68437059D01*
X68970687Y-68529633D01*
X68816742Y-68593399D01*
X68653315Y-68625907D01*
X68486685Y-68625907D01*
X68323258Y-68593399D01*
X68169313Y-68529633D01*
X68030766Y-68437059D01*
X67912941Y-68319234D01*
X67820367Y-68180687D01*
X67756601Y-68026742D01*
X67724093Y-67863315D01*
X67724093Y-67696685D01*
X67756601Y-67533258D01*
X67820367Y-67379313D01*
X67912941Y-67240766D01*
X68030766Y-67122941D01*
X68169313Y-67030367D01*
X68323258Y-66966601D01*
X68486685Y-66934093D01*
X68653315Y-66934093D01*
X68816742Y-66966601D01*
G37*
G36*
X91676742Y-66966601D02*
G01*
X91830687Y-67030367D01*
X91969234Y-67122941D01*
X92087059Y-67240766D01*
X92179633Y-67379313D01*
X92243399Y-67533258D01*
X92275907Y-67696685D01*
X92275907Y-67863315D01*
X92243399Y-68026742D01*
X92179633Y-68180687D01*
X92087059Y-68319234D01*
X91969234Y-68437059D01*
X91830687Y-68529633D01*
X91676742Y-68593399D01*
X91513315Y-68625907D01*
X91346685Y-68625907D01*
X91183258Y-68593399D01*
X91029313Y-68529633D01*
X90890766Y-68437059D01*
X90772941Y-68319234D01*
X90680367Y-68180687D01*
X90616601Y-68026742D01*
X90584093Y-67863315D01*
X90584093Y-67696685D01*
X90616601Y-67533258D01*
X90680367Y-67379313D01*
X90772941Y-67240766D01*
X90890766Y-67122941D01*
X91029313Y-67030367D01*
X91183258Y-66966601D01*
X91346685Y-66934093D01*
X91513315Y-66934093D01*
X91676742Y-66966601D01*
G37*
G36*
X27554047Y-65200805D02*
G01*
X27605408Y-65206764D01*
X27622954Y-65214511D01*
X27645671Y-65219030D01*
X27669991Y-65235280D01*
X27690793Y-65244465D01*
X27705000Y-65258672D01*
X27726777Y-65273223D01*
X27741327Y-65294999D01*
X27755534Y-65309206D01*
X27764718Y-65330006D01*
X27780970Y-65354329D01*
X27785489Y-65377048D01*
X27793235Y-65394591D01*
X27799192Y-65445940D01*
X27800000Y-65450000D01*
X27800000Y-66550000D01*
X27799192Y-66554059D01*
X27793235Y-66605408D01*
X27785489Y-66622950D01*
X27780970Y-66645671D01*
X27764716Y-66669995D01*
X27755534Y-66690793D01*
X27741329Y-66704997D01*
X27726777Y-66726777D01*
X27704997Y-66741329D01*
X27690793Y-66755534D01*
X27669995Y-66764716D01*
X27645671Y-66780970D01*
X27622950Y-66785489D01*
X27605408Y-66793235D01*
X27554061Y-66799192D01*
X27550000Y-66800000D01*
X26450000Y-66800000D01*
X26445941Y-66799192D01*
X26394591Y-66793235D01*
X26377048Y-66785489D01*
X26354329Y-66780970D01*
X26330006Y-66764718D01*
X26309206Y-66755534D01*
X26294999Y-66741327D01*
X26273223Y-66726777D01*
X26258672Y-66705000D01*
X26244465Y-66690793D01*
X26235280Y-66669991D01*
X26219030Y-66645671D01*
X26214511Y-66622954D01*
X26206764Y-66605408D01*
X26200805Y-66554049D01*
X26200000Y-66550000D01*
X26200000Y-65450000D01*
X26200804Y-65445953D01*
X26206764Y-65394591D01*
X26214511Y-65377043D01*
X26219030Y-65354329D01*
X26235278Y-65330010D01*
X26244465Y-65309206D01*
X26258674Y-65294996D01*
X26273223Y-65273223D01*
X26294996Y-65258674D01*
X26309206Y-65244465D01*
X26330010Y-65235278D01*
X26354329Y-65219030D01*
X26377043Y-65214511D01*
X26394591Y-65206764D01*
X26445952Y-65200805D01*
X26450000Y-65200000D01*
X27550000Y-65200000D01*
X27554047Y-65200805D01*
G37*
G36*
X9452228Y-65234448D02*
G01*
X9597117Y-65294463D01*
X9727515Y-65381592D01*
X9838408Y-65492485D01*
X9925537Y-65622883D01*
X9985552Y-65767772D01*
X10016148Y-65921586D01*
X10016148Y-66078414D01*
X9985552Y-66232228D01*
X9925537Y-66377117D01*
X9838408Y-66507515D01*
X9727515Y-66618408D01*
X9597117Y-66705537D01*
X9452228Y-66765552D01*
X9298414Y-66796148D01*
X9141586Y-66796148D01*
X8987772Y-66765552D01*
X8842883Y-66705537D01*
X8712485Y-66618408D01*
X8601592Y-66507515D01*
X8514463Y-66377117D01*
X8454448Y-66232228D01*
X8423852Y-66078414D01*
X8423852Y-65921586D01*
X8454448Y-65767772D01*
X8514463Y-65622883D01*
X8601592Y-65492485D01*
X8712485Y-65381592D01*
X8842883Y-65294463D01*
X8987772Y-65234448D01*
X9141586Y-65203852D01*
X9298414Y-65203852D01*
X9452228Y-65234448D01*
G37*
G36*
X11992228Y-65234448D02*
G01*
X12137117Y-65294463D01*
X12267515Y-65381592D01*
X12378408Y-65492485D01*
X12465537Y-65622883D01*
X12525552Y-65767772D01*
X12556148Y-65921586D01*
X12556148Y-66078414D01*
X12525552Y-66232228D01*
X12465537Y-66377117D01*
X12378408Y-66507515D01*
X12267515Y-66618408D01*
X12137117Y-66705537D01*
X11992228Y-66765552D01*
X11838414Y-66796148D01*
X11681586Y-66796148D01*
X11527772Y-66765552D01*
X11382883Y-66705537D01*
X11252485Y-66618408D01*
X11141592Y-66507515D01*
X11054463Y-66377117D01*
X10994448Y-66232228D01*
X10963852Y-66078414D01*
X10963852Y-65921586D01*
X10994448Y-65767772D01*
X11054463Y-65622883D01*
X11141592Y-65492485D01*
X11252485Y-65381592D01*
X11382883Y-65294463D01*
X11527772Y-65234448D01*
X11681586Y-65203852D01*
X11838414Y-65203852D01*
X11992228Y-65234448D01*
G37*
G36*
X14532228Y-65234448D02*
G01*
X14677117Y-65294463D01*
X14807515Y-65381592D01*
X14918408Y-65492485D01*
X15005537Y-65622883D01*
X15065552Y-65767772D01*
X15096148Y-65921586D01*
X15096148Y-66078414D01*
X15065552Y-66232228D01*
X15005537Y-66377117D01*
X14918408Y-66507515D01*
X14807515Y-66618408D01*
X14677117Y-66705537D01*
X14532228Y-66765552D01*
X14378414Y-66796148D01*
X14221586Y-66796148D01*
X14067772Y-66765552D01*
X13922883Y-66705537D01*
X13792485Y-66618408D01*
X13681592Y-66507515D01*
X13594463Y-66377117D01*
X13534448Y-66232228D01*
X13503852Y-66078414D01*
X13503852Y-65921586D01*
X13534448Y-65767772D01*
X13594463Y-65622883D01*
X13681592Y-65492485D01*
X13792485Y-65381592D01*
X13922883Y-65294463D01*
X14067772Y-65234448D01*
X14221586Y-65203852D01*
X14378414Y-65203852D01*
X14532228Y-65234448D01*
G37*
G36*
X17072228Y-65234448D02*
G01*
X17217117Y-65294463D01*
X17347515Y-65381592D01*
X17458408Y-65492485D01*
X17545537Y-65622883D01*
X17605552Y-65767772D01*
X17636148Y-65921586D01*
X17636148Y-66078414D01*
X17605552Y-66232228D01*
X17545537Y-66377117D01*
X17458408Y-66507515D01*
X17347515Y-66618408D01*
X17217117Y-66705537D01*
X17072228Y-66765552D01*
X16918414Y-66796148D01*
X16761586Y-66796148D01*
X16607772Y-66765552D01*
X16462883Y-66705537D01*
X16332485Y-66618408D01*
X16221592Y-66507515D01*
X16134463Y-66377117D01*
X16074448Y-66232228D01*
X16043852Y-66078414D01*
X16043852Y-65921586D01*
X16074448Y-65767772D01*
X16134463Y-65622883D01*
X16221592Y-65492485D01*
X16332485Y-65381592D01*
X16462883Y-65294463D01*
X16607772Y-65234448D01*
X16761586Y-65203852D01*
X16918414Y-65203852D01*
X17072228Y-65234448D01*
G37*
G36*
X19612228Y-65234448D02*
G01*
X19757117Y-65294463D01*
X19887515Y-65381592D01*
X19998408Y-65492485D01*
X20085537Y-65622883D01*
X20145552Y-65767772D01*
X20176148Y-65921586D01*
X20176148Y-66078414D01*
X20145552Y-66232228D01*
X20085537Y-66377117D01*
X19998408Y-66507515D01*
X19887515Y-66618408D01*
X19757117Y-66705537D01*
X19612228Y-66765552D01*
X19458414Y-66796148D01*
X19301586Y-66796148D01*
X19147772Y-66765552D01*
X19002883Y-66705537D01*
X18872485Y-66618408D01*
X18761592Y-66507515D01*
X18674463Y-66377117D01*
X18614448Y-66232228D01*
X18583852Y-66078414D01*
X18583852Y-65921586D01*
X18614448Y-65767772D01*
X18674463Y-65622883D01*
X18761592Y-65492485D01*
X18872485Y-65381592D01*
X19002883Y-65294463D01*
X19147772Y-65234448D01*
X19301586Y-65203852D01*
X19458414Y-65203852D01*
X19612228Y-65234448D01*
G37*
G36*
X22152228Y-65234448D02*
G01*
X22297117Y-65294463D01*
X22427515Y-65381592D01*
X22538408Y-65492485D01*
X22625537Y-65622883D01*
X22685552Y-65767772D01*
X22716148Y-65921586D01*
X22716148Y-66078414D01*
X22685552Y-66232228D01*
X22625537Y-66377117D01*
X22538408Y-66507515D01*
X22427515Y-66618408D01*
X22297117Y-66705537D01*
X22152228Y-66765552D01*
X21998414Y-66796148D01*
X21841586Y-66796148D01*
X21687772Y-66765552D01*
X21542883Y-66705537D01*
X21412485Y-66618408D01*
X21301592Y-66507515D01*
X21214463Y-66377117D01*
X21154448Y-66232228D01*
X21123852Y-66078414D01*
X21123852Y-65921586D01*
X21154448Y-65767772D01*
X21214463Y-65622883D01*
X21301592Y-65492485D01*
X21412485Y-65381592D01*
X21542883Y-65294463D01*
X21687772Y-65234448D01*
X21841586Y-65203852D01*
X21998414Y-65203852D01*
X22152228Y-65234448D01*
G37*
G36*
X24692228Y-65234448D02*
G01*
X24837117Y-65294463D01*
X24967515Y-65381592D01*
X25078408Y-65492485D01*
X25165537Y-65622883D01*
X25225552Y-65767772D01*
X25256148Y-65921586D01*
X25256148Y-66078414D01*
X25225552Y-66232228D01*
X25165537Y-66377117D01*
X25078408Y-66507515D01*
X24967515Y-66618408D01*
X24837117Y-66705537D01*
X24692228Y-66765552D01*
X24538414Y-66796148D01*
X24381586Y-66796148D01*
X24227772Y-66765552D01*
X24082883Y-66705537D01*
X23952485Y-66618408D01*
X23841592Y-66507515D01*
X23754463Y-66377117D01*
X23694448Y-66232228D01*
X23663852Y-66078414D01*
X23663852Y-65921586D01*
X23694448Y-65767772D01*
X23754463Y-65622883D01*
X23841592Y-65492485D01*
X23952485Y-65381592D01*
X24082883Y-65294463D01*
X24227772Y-65234448D01*
X24381586Y-65203852D01*
X24538414Y-65203852D01*
X24692228Y-65234448D01*
G37*
G36*
X68816742Y-64426601D02*
G01*
X68970687Y-64490367D01*
X69109234Y-64582941D01*
X69227059Y-64700766D01*
X69319633Y-64839313D01*
X69383399Y-64993258D01*
X69415907Y-65156685D01*
X69415907Y-65323315D01*
X69383399Y-65486742D01*
X69319633Y-65640687D01*
X69227059Y-65779234D01*
X69109234Y-65897059D01*
X68970687Y-65989633D01*
X68816742Y-66053399D01*
X68653315Y-66085907D01*
X68486685Y-66085907D01*
X68323258Y-66053399D01*
X68169313Y-65989633D01*
X68030766Y-65897059D01*
X67912941Y-65779234D01*
X67820367Y-65640687D01*
X67756601Y-65486742D01*
X67724093Y-65323315D01*
X67724093Y-65156685D01*
X67756601Y-64993258D01*
X67820367Y-64839313D01*
X67912941Y-64700766D01*
X68030766Y-64582941D01*
X68169313Y-64490367D01*
X68323258Y-64426601D01*
X68486685Y-64394093D01*
X68653315Y-64394093D01*
X68816742Y-64426601D01*
G37*
G36*
X91676742Y-64426601D02*
G01*
X91830687Y-64490367D01*
X91969234Y-64582941D01*
X92087059Y-64700766D01*
X92179633Y-64839313D01*
X92243399Y-64993258D01*
X92275907Y-65156685D01*
X92275907Y-65323315D01*
X92243399Y-65486742D01*
X92179633Y-65640687D01*
X92087059Y-65779234D01*
X91969234Y-65897059D01*
X91830687Y-65989633D01*
X91676742Y-66053399D01*
X91513315Y-66085907D01*
X91346685Y-66085907D01*
X91183258Y-66053399D01*
X91029313Y-65989633D01*
X90890766Y-65897059D01*
X90772941Y-65779234D01*
X90680367Y-65640687D01*
X90616601Y-65486742D01*
X90584093Y-65323315D01*
X90584093Y-65156685D01*
X90616601Y-64993258D01*
X90680367Y-64839313D01*
X90772941Y-64700766D01*
X90890766Y-64582941D01*
X91029313Y-64490367D01*
X91183258Y-64426601D01*
X91346685Y-64394093D01*
X91513315Y-64394093D01*
X91676742Y-64426601D01*
G37*
G36*
X68816742Y-61886601D02*
G01*
X68970687Y-61950367D01*
X69109234Y-62042941D01*
X69227059Y-62160766D01*
X69319633Y-62299313D01*
X69383399Y-62453258D01*
X69415907Y-62616685D01*
X69415907Y-62783315D01*
X69383399Y-62946742D01*
X69319633Y-63100687D01*
X69227059Y-63239234D01*
X69109234Y-63357059D01*
X68970687Y-63449633D01*
X68816742Y-63513399D01*
X68653315Y-63545907D01*
X68486685Y-63545907D01*
X68323258Y-63513399D01*
X68169313Y-63449633D01*
X68030766Y-63357059D01*
X67912941Y-63239234D01*
X67820367Y-63100687D01*
X67756601Y-62946742D01*
X67724093Y-62783315D01*
X67724093Y-62616685D01*
X67756601Y-62453258D01*
X67820367Y-62299313D01*
X67912941Y-62160766D01*
X68030766Y-62042941D01*
X68169313Y-61950367D01*
X68323258Y-61886601D01*
X68486685Y-61854093D01*
X68653315Y-61854093D01*
X68816742Y-61886601D01*
G37*
G36*
X91676742Y-61886601D02*
G01*
X91830687Y-61950367D01*
X91969234Y-62042941D01*
X92087059Y-62160766D01*
X92179633Y-62299313D01*
X92243399Y-62453258D01*
X92275907Y-62616685D01*
X92275907Y-62783315D01*
X92243399Y-62946742D01*
X92179633Y-63100687D01*
X92087059Y-63239234D01*
X91969234Y-63357059D01*
X91830687Y-63449633D01*
X91676742Y-63513399D01*
X91513315Y-63545907D01*
X91346685Y-63545907D01*
X91183258Y-63513399D01*
X91029313Y-63449633D01*
X90890766Y-63357059D01*
X90772941Y-63239234D01*
X90680367Y-63100687D01*
X90616601Y-62946742D01*
X90584093Y-62783315D01*
X90584093Y-62616685D01*
X90616601Y-62453258D01*
X90680367Y-62299313D01*
X90772941Y-62160766D01*
X90890766Y-62042941D01*
X91029313Y-61950367D01*
X91183258Y-61886601D01*
X91346685Y-61854093D01*
X91513315Y-61854093D01*
X91676742Y-61886601D01*
G37*
G36*
X68816742Y-59346601D02*
G01*
X68970687Y-59410367D01*
X69109234Y-59502941D01*
X69227059Y-59620766D01*
X69319633Y-59759313D01*
X69383399Y-59913258D01*
X69415907Y-60076685D01*
X69415907Y-60243315D01*
X69383399Y-60406742D01*
X69319633Y-60560687D01*
X69227059Y-60699234D01*
X69109234Y-60817059D01*
X68970687Y-60909633D01*
X68816742Y-60973399D01*
X68653315Y-61005907D01*
X68486685Y-61005907D01*
X68323258Y-60973399D01*
X68169313Y-60909633D01*
X68030766Y-60817059D01*
X67912941Y-60699234D01*
X67820367Y-60560687D01*
X67756601Y-60406742D01*
X67724093Y-60243315D01*
X67724093Y-60076685D01*
X67756601Y-59913258D01*
X67820367Y-59759313D01*
X67912941Y-59620766D01*
X68030766Y-59502941D01*
X68169313Y-59410367D01*
X68323258Y-59346601D01*
X68486685Y-59314093D01*
X68653315Y-59314093D01*
X68816742Y-59346601D01*
G37*
G36*
X91676742Y-59346601D02*
G01*
X91830687Y-59410367D01*
X91969234Y-59502941D01*
X92087059Y-59620766D01*
X92179633Y-59759313D01*
X92243399Y-59913258D01*
X92275907Y-60076685D01*
X92275907Y-60243315D01*
X92243399Y-60406742D01*
X92179633Y-60560687D01*
X92087059Y-60699234D01*
X91969234Y-60817059D01*
X91830687Y-60909633D01*
X91676742Y-60973399D01*
X91513315Y-61005907D01*
X91346685Y-61005907D01*
X91183258Y-60973399D01*
X91029313Y-60909633D01*
X90890766Y-60817059D01*
X90772941Y-60699234D01*
X90680367Y-60560687D01*
X90616601Y-60406742D01*
X90584093Y-60243315D01*
X90584093Y-60076685D01*
X90616601Y-59913258D01*
X90680367Y-59759313D01*
X90772941Y-59620766D01*
X90890766Y-59502941D01*
X91029313Y-59410367D01*
X91183258Y-59346601D01*
X91346685Y-59314093D01*
X91513315Y-59314093D01*
X91676742Y-59346601D01*
G37*
G36*
X68816742Y-56806601D02*
G01*
X68970687Y-56870367D01*
X69109234Y-56962941D01*
X69227059Y-57080766D01*
X69319633Y-57219313D01*
X69383399Y-57373258D01*
X69415907Y-57536685D01*
X69415907Y-57703315D01*
X69383399Y-57866742D01*
X69319633Y-58020687D01*
X69227059Y-58159234D01*
X69109234Y-58277059D01*
X68970687Y-58369633D01*
X68816742Y-58433399D01*
X68653315Y-58465907D01*
X68486685Y-58465907D01*
X68323258Y-58433399D01*
X68169313Y-58369633D01*
X68030766Y-58277059D01*
X67912941Y-58159234D01*
X67820367Y-58020687D01*
X67756601Y-57866742D01*
X67724093Y-57703315D01*
X67724093Y-57536685D01*
X67756601Y-57373258D01*
X67820367Y-57219313D01*
X67912941Y-57080766D01*
X68030766Y-56962941D01*
X68169313Y-56870367D01*
X68323258Y-56806601D01*
X68486685Y-56774093D01*
X68653315Y-56774093D01*
X68816742Y-56806601D01*
G37*
G36*
X91676742Y-56806601D02*
G01*
X91830687Y-56870367D01*
X91969234Y-56962941D01*
X92087059Y-57080766D01*
X92179633Y-57219313D01*
X92243399Y-57373258D01*
X92275907Y-57536685D01*
X92275907Y-57703315D01*
X92243399Y-57866742D01*
X92179633Y-58020687D01*
X92087059Y-58159234D01*
X91969234Y-58277059D01*
X91830687Y-58369633D01*
X91676742Y-58433399D01*
X91513315Y-58465907D01*
X91346685Y-58465907D01*
X91183258Y-58433399D01*
X91029313Y-58369633D01*
X90890766Y-58277059D01*
X90772941Y-58159234D01*
X90680367Y-58020687D01*
X90616601Y-57866742D01*
X90584093Y-57703315D01*
X90584093Y-57536685D01*
X90616601Y-57373258D01*
X90680367Y-57219313D01*
X90772941Y-57080766D01*
X90890766Y-56962941D01*
X91029313Y-56870367D01*
X91183258Y-56806601D01*
X91346685Y-56774093D01*
X91513315Y-56774093D01*
X91676742Y-56806601D01*
G37*
G36*
X20140000Y-56750000D02*
G01*
X18140000Y-56750000D01*
X18140000Y-54750000D01*
X20140000Y-54750000D01*
X20140000Y-56750000D01*
G37*
G36*
X68816742Y-54266601D02*
G01*
X68970687Y-54330367D01*
X69109234Y-54422941D01*
X69227059Y-54540766D01*
X69319633Y-54679313D01*
X69383399Y-54833258D01*
X69415907Y-54996685D01*
X69415907Y-55163315D01*
X69383399Y-55326742D01*
X69319633Y-55480687D01*
X69227059Y-55619234D01*
X69109234Y-55737059D01*
X68970687Y-55829633D01*
X68816742Y-55893399D01*
X68653315Y-55925907D01*
X68486685Y-55925907D01*
X68323258Y-55893399D01*
X68169313Y-55829633D01*
X68030766Y-55737059D01*
X67912941Y-55619234D01*
X67820367Y-55480687D01*
X67756601Y-55326742D01*
X67724093Y-55163315D01*
X67724093Y-54996685D01*
X67756601Y-54833258D01*
X67820367Y-54679313D01*
X67912941Y-54540766D01*
X68030766Y-54422941D01*
X68169313Y-54330367D01*
X68323258Y-54266601D01*
X68486685Y-54234093D01*
X68653315Y-54234093D01*
X68816742Y-54266601D01*
G37*
G36*
X91676742Y-54266601D02*
G01*
X91830687Y-54330367D01*
X91969234Y-54422941D01*
X92087059Y-54540766D01*
X92179633Y-54679313D01*
X92243399Y-54833258D01*
X92275907Y-54996685D01*
X92275907Y-55163315D01*
X92243399Y-55326742D01*
X92179633Y-55480687D01*
X92087059Y-55619234D01*
X91969234Y-55737059D01*
X91830687Y-55829633D01*
X91676742Y-55893399D01*
X91513315Y-55925907D01*
X91346685Y-55925907D01*
X91183258Y-55893399D01*
X91029313Y-55829633D01*
X90890766Y-55737059D01*
X90772941Y-55619234D01*
X90680367Y-55480687D01*
X90616601Y-55326742D01*
X90584093Y-55163315D01*
X90584093Y-54996685D01*
X90616601Y-54833258D01*
X90680367Y-54679313D01*
X90772941Y-54540766D01*
X90890766Y-54422941D01*
X91029313Y-54330367D01*
X91183258Y-54266601D01*
X91346685Y-54234093D01*
X91513315Y-54234093D01*
X91676742Y-54266601D01*
G37*
G36*
X9212228Y-51854448D02*
G01*
X9357117Y-51914463D01*
X9487515Y-52001592D01*
X9598408Y-52112485D01*
X9685537Y-52242883D01*
X9745552Y-52387772D01*
X9776148Y-52541586D01*
X9776148Y-52698414D01*
X9745552Y-52852228D01*
X9685537Y-52997117D01*
X9598408Y-53127515D01*
X9487515Y-53238408D01*
X9357117Y-53325537D01*
X9212228Y-53385552D01*
X9058414Y-53416148D01*
X8901586Y-53416148D01*
X8747772Y-53385552D01*
X8602883Y-53325537D01*
X8472485Y-53238408D01*
X8361592Y-53127515D01*
X8274463Y-52997117D01*
X8214448Y-52852228D01*
X8183852Y-52698414D01*
X8183852Y-52541586D01*
X8214448Y-52387772D01*
X8274463Y-52242883D01*
X8361592Y-52112485D01*
X8472485Y-52001592D01*
X8602883Y-51914463D01*
X8747772Y-51854448D01*
X8901586Y-51823852D01*
X9058414Y-51823852D01*
X9212228Y-51854448D01*
G37*
G36*
X11752228Y-51854448D02*
G01*
X11897117Y-51914463D01*
X12027515Y-52001592D01*
X12138408Y-52112485D01*
X12225537Y-52242883D01*
X12285552Y-52387772D01*
X12316148Y-52541586D01*
X12316148Y-52698414D01*
X12285552Y-52852228D01*
X12225537Y-52997117D01*
X12138408Y-53127515D01*
X12027515Y-53238408D01*
X11897117Y-53325537D01*
X11752228Y-53385552D01*
X11598414Y-53416148D01*
X11441586Y-53416148D01*
X11287772Y-53385552D01*
X11142883Y-53325537D01*
X11012485Y-53238408D01*
X10901592Y-53127515D01*
X10814463Y-52997117D01*
X10754448Y-52852228D01*
X10723852Y-52698414D01*
X10723852Y-52541586D01*
X10754448Y-52387772D01*
X10814463Y-52242883D01*
X10901592Y-52112485D01*
X11012485Y-52001592D01*
X11142883Y-51914463D01*
X11287772Y-51854448D01*
X11441586Y-51823852D01*
X11598414Y-51823852D01*
X11752228Y-51854448D01*
G37*
G36*
X14292228Y-51854448D02*
G01*
X14437117Y-51914463D01*
X14567515Y-52001592D01*
X14678408Y-52112485D01*
X14765537Y-52242883D01*
X14825552Y-52387772D01*
X14856148Y-52541586D01*
X14856148Y-52698414D01*
X14825552Y-52852228D01*
X14765537Y-52997117D01*
X14678408Y-53127515D01*
X14567515Y-53238408D01*
X14437117Y-53325537D01*
X14292228Y-53385552D01*
X14138414Y-53416148D01*
X13981586Y-53416148D01*
X13827772Y-53385552D01*
X13682883Y-53325537D01*
X13552485Y-53238408D01*
X13441592Y-53127515D01*
X13354463Y-52997117D01*
X13294448Y-52852228D01*
X13263852Y-52698414D01*
X13263852Y-52541586D01*
X13294448Y-52387772D01*
X13354463Y-52242883D01*
X13441592Y-52112485D01*
X13552485Y-52001592D01*
X13682883Y-51914463D01*
X13827772Y-51854448D01*
X13981586Y-51823852D01*
X14138414Y-51823852D01*
X14292228Y-51854448D01*
G37*
G36*
X16832228Y-51854448D02*
G01*
X16977117Y-51914463D01*
X17107515Y-52001592D01*
X17218408Y-52112485D01*
X17305537Y-52242883D01*
X17365552Y-52387772D01*
X17396148Y-52541586D01*
X17396148Y-52698414D01*
X17365552Y-52852228D01*
X17305537Y-52997117D01*
X17218408Y-53127515D01*
X17107515Y-53238408D01*
X16977117Y-53325537D01*
X16832228Y-53385552D01*
X16678414Y-53416148D01*
X16521586Y-53416148D01*
X16367772Y-53385552D01*
X16222883Y-53325537D01*
X16092485Y-53238408D01*
X15981592Y-53127515D01*
X15894463Y-52997117D01*
X15834448Y-52852228D01*
X15803852Y-52698414D01*
X15803852Y-52541586D01*
X15834448Y-52387772D01*
X15894463Y-52242883D01*
X15981592Y-52112485D01*
X16092485Y-52001592D01*
X16222883Y-51914463D01*
X16367772Y-51854448D01*
X16521586Y-51823852D01*
X16678414Y-51823852D01*
X16832228Y-51854448D01*
G37*
G36*
X19372228Y-51854448D02*
G01*
X19517117Y-51914463D01*
X19647515Y-52001592D01*
X19758408Y-52112485D01*
X19845537Y-52242883D01*
X19905552Y-52387772D01*
X19936148Y-52541586D01*
X19936148Y-52698414D01*
X19905552Y-52852228D01*
X19845537Y-52997117D01*
X19758408Y-53127515D01*
X19647515Y-53238408D01*
X19517117Y-53325537D01*
X19372228Y-53385552D01*
X19218414Y-53416148D01*
X19061586Y-53416148D01*
X18907772Y-53385552D01*
X18762883Y-53325537D01*
X18632485Y-53238408D01*
X18521592Y-53127515D01*
X18434463Y-52997117D01*
X18374448Y-52852228D01*
X18343852Y-52698414D01*
X18343852Y-52541586D01*
X18374448Y-52387772D01*
X18434463Y-52242883D01*
X18521592Y-52112485D01*
X18632485Y-52001592D01*
X18762883Y-51914463D01*
X18907772Y-51854448D01*
X19061586Y-51823852D01*
X19218414Y-51823852D01*
X19372228Y-51854448D01*
G37*
G36*
X21912228Y-51854448D02*
G01*
X22057117Y-51914463D01*
X22187515Y-52001592D01*
X22298408Y-52112485D01*
X22385537Y-52242883D01*
X22445552Y-52387772D01*
X22476148Y-52541586D01*
X22476148Y-52698414D01*
X22445552Y-52852228D01*
X22385537Y-52997117D01*
X22298408Y-53127515D01*
X22187515Y-53238408D01*
X22057117Y-53325537D01*
X21912228Y-53385552D01*
X21758414Y-53416148D01*
X21601586Y-53416148D01*
X21447772Y-53385552D01*
X21302883Y-53325537D01*
X21172485Y-53238408D01*
X21061592Y-53127515D01*
X20974463Y-52997117D01*
X20914448Y-52852228D01*
X20883852Y-52698414D01*
X20883852Y-52541586D01*
X20914448Y-52387772D01*
X20974463Y-52242883D01*
X21061592Y-52112485D01*
X21172485Y-52001592D01*
X21302883Y-51914463D01*
X21447772Y-51854448D01*
X21601586Y-51823852D01*
X21758414Y-51823852D01*
X21912228Y-51854448D01*
G37*
G36*
X24452228Y-51854448D02*
G01*
X24597117Y-51914463D01*
X24727515Y-52001592D01*
X24838408Y-52112485D01*
X24925537Y-52242883D01*
X24985552Y-52387772D01*
X25016148Y-52541586D01*
X25016148Y-52698414D01*
X24985552Y-52852228D01*
X24925537Y-52997117D01*
X24838408Y-53127515D01*
X24727515Y-53238408D01*
X24597117Y-53325537D01*
X24452228Y-53385552D01*
X24298414Y-53416148D01*
X24141586Y-53416148D01*
X23987772Y-53385552D01*
X23842883Y-53325537D01*
X23712485Y-53238408D01*
X23601592Y-53127515D01*
X23514463Y-52997117D01*
X23454448Y-52852228D01*
X23423852Y-52698414D01*
X23423852Y-52541586D01*
X23454448Y-52387772D01*
X23514463Y-52242883D01*
X23601592Y-52112485D01*
X23712485Y-52001592D01*
X23842883Y-51914463D01*
X23987772Y-51854448D01*
X24141586Y-51823852D01*
X24298414Y-51823852D01*
X24452228Y-51854448D01*
G37*
G36*
X26992228Y-51854448D02*
G01*
X27137117Y-51914463D01*
X27267515Y-52001592D01*
X27378408Y-52112485D01*
X27465537Y-52242883D01*
X27525552Y-52387772D01*
X27556148Y-52541586D01*
X27556148Y-52698414D01*
X27525552Y-52852228D01*
X27465537Y-52997117D01*
X27378408Y-53127515D01*
X27267515Y-53238408D01*
X27137117Y-53325537D01*
X26992228Y-53385552D01*
X26838414Y-53416148D01*
X26681586Y-53416148D01*
X26527772Y-53385552D01*
X26382883Y-53325537D01*
X26252485Y-53238408D01*
X26141592Y-53127515D01*
X26054463Y-52997117D01*
X25994448Y-52852228D01*
X25963852Y-52698414D01*
X25963852Y-52541586D01*
X25994448Y-52387772D01*
X26054463Y-52242883D01*
X26141592Y-52112485D01*
X26252485Y-52001592D01*
X26382883Y-51914463D01*
X26527772Y-51854448D01*
X26681586Y-51823852D01*
X26838414Y-51823852D01*
X26992228Y-51854448D01*
G37*
G36*
X29532228Y-51854448D02*
G01*
X29677117Y-51914463D01*
X29807515Y-52001592D01*
X29918408Y-52112485D01*
X30005537Y-52242883D01*
X30065552Y-52387772D01*
X30096148Y-52541586D01*
X30096148Y-52698414D01*
X30065552Y-52852228D01*
X30005537Y-52997117D01*
X29918408Y-53127515D01*
X29807515Y-53238408D01*
X29677117Y-53325537D01*
X29532228Y-53385552D01*
X29378414Y-53416148D01*
X29221586Y-53416148D01*
X29067772Y-53385552D01*
X28922883Y-53325537D01*
X28792485Y-53238408D01*
X28681592Y-53127515D01*
X28594463Y-52997117D01*
X28534448Y-52852228D01*
X28503852Y-52698414D01*
X28503852Y-52541586D01*
X28534448Y-52387772D01*
X28594463Y-52242883D01*
X28681592Y-52112485D01*
X28792485Y-52001592D01*
X28922883Y-51914463D01*
X29067772Y-51854448D01*
X29221586Y-51823852D01*
X29378414Y-51823852D01*
X29532228Y-51854448D01*
G37*
G36*
X32072228Y-51854448D02*
G01*
X32217117Y-51914463D01*
X32347515Y-52001592D01*
X32458408Y-52112485D01*
X32545537Y-52242883D01*
X32605552Y-52387772D01*
X32636148Y-52541586D01*
X32636148Y-52698414D01*
X32605552Y-52852228D01*
X32545537Y-52997117D01*
X32458408Y-53127515D01*
X32347515Y-53238408D01*
X32217117Y-53325537D01*
X32072228Y-53385552D01*
X31918414Y-53416148D01*
X31761586Y-53416148D01*
X31607772Y-53385552D01*
X31462883Y-53325537D01*
X31332485Y-53238408D01*
X31221592Y-53127515D01*
X31134463Y-52997117D01*
X31074448Y-52852228D01*
X31043852Y-52698414D01*
X31043852Y-52541586D01*
X31074448Y-52387772D01*
X31134463Y-52242883D01*
X31221592Y-52112485D01*
X31332485Y-52001592D01*
X31462883Y-51914463D01*
X31607772Y-51854448D01*
X31761586Y-51823852D01*
X31918414Y-51823852D01*
X32072228Y-51854448D01*
G37*
G36*
X34612228Y-51854448D02*
G01*
X34757117Y-51914463D01*
X34887515Y-52001592D01*
X34998408Y-52112485D01*
X35085537Y-52242883D01*
X35145552Y-52387772D01*
X35176148Y-52541586D01*
X35176148Y-52698414D01*
X35145552Y-52852228D01*
X35085537Y-52997117D01*
X34998408Y-53127515D01*
X34887515Y-53238408D01*
X34757117Y-53325537D01*
X34612228Y-53385552D01*
X34458414Y-53416148D01*
X34301586Y-53416148D01*
X34147772Y-53385552D01*
X34002883Y-53325537D01*
X33872485Y-53238408D01*
X33761592Y-53127515D01*
X33674463Y-52997117D01*
X33614448Y-52852228D01*
X33583852Y-52698414D01*
X33583852Y-52541586D01*
X33614448Y-52387772D01*
X33674463Y-52242883D01*
X33761592Y-52112485D01*
X33872485Y-52001592D01*
X34002883Y-51914463D01*
X34147772Y-51854448D01*
X34301586Y-51823852D01*
X34458414Y-51823852D01*
X34612228Y-51854448D01*
G37*
G36*
X37152228Y-51854448D02*
G01*
X37297117Y-51914463D01*
X37427515Y-52001592D01*
X37538408Y-52112485D01*
X37625537Y-52242883D01*
X37685552Y-52387772D01*
X37716148Y-52541586D01*
X37716148Y-52698414D01*
X37685552Y-52852228D01*
X37625537Y-52997117D01*
X37538408Y-53127515D01*
X37427515Y-53238408D01*
X37297117Y-53325537D01*
X37152228Y-53385552D01*
X36998414Y-53416148D01*
X36841586Y-53416148D01*
X36687772Y-53385552D01*
X36542883Y-53325537D01*
X36412485Y-53238408D01*
X36301592Y-53127515D01*
X36214463Y-52997117D01*
X36154448Y-52852228D01*
X36123852Y-52698414D01*
X36123852Y-52541586D01*
X36154448Y-52387772D01*
X36214463Y-52242883D01*
X36301592Y-52112485D01*
X36412485Y-52001592D01*
X36542883Y-51914463D01*
X36687772Y-51854448D01*
X36841586Y-51823852D01*
X36998414Y-51823852D01*
X37152228Y-51854448D01*
G37*
G36*
X39692228Y-51854448D02*
G01*
X39837117Y-51914463D01*
X39967515Y-52001592D01*
X40078408Y-52112485D01*
X40165537Y-52242883D01*
X40225552Y-52387772D01*
X40256148Y-52541586D01*
X40256148Y-52698414D01*
X40225552Y-52852228D01*
X40165537Y-52997117D01*
X40078408Y-53127515D01*
X39967515Y-53238408D01*
X39837117Y-53325537D01*
X39692228Y-53385552D01*
X39538414Y-53416148D01*
X39381586Y-53416148D01*
X39227772Y-53385552D01*
X39082883Y-53325537D01*
X38952485Y-53238408D01*
X38841592Y-53127515D01*
X38754463Y-52997117D01*
X38694448Y-52852228D01*
X38663852Y-52698414D01*
X38663852Y-52541586D01*
X38694448Y-52387772D01*
X38754463Y-52242883D01*
X38841592Y-52112485D01*
X38952485Y-52001592D01*
X39082883Y-51914463D01*
X39227772Y-51854448D01*
X39381586Y-51823852D01*
X39538414Y-51823852D01*
X39692228Y-51854448D01*
G37*
G36*
X42232228Y-51854448D02*
G01*
X42377117Y-51914463D01*
X42507515Y-52001592D01*
X42618408Y-52112485D01*
X42705537Y-52242883D01*
X42765552Y-52387772D01*
X42796148Y-52541586D01*
X42796148Y-52698414D01*
X42765552Y-52852228D01*
X42705537Y-52997117D01*
X42618408Y-53127515D01*
X42507515Y-53238408D01*
X42377117Y-53325537D01*
X42232228Y-53385552D01*
X42078414Y-53416148D01*
X41921586Y-53416148D01*
X41767772Y-53385552D01*
X41622883Y-53325537D01*
X41492485Y-53238408D01*
X41381592Y-53127515D01*
X41294463Y-52997117D01*
X41234448Y-52852228D01*
X41203852Y-52698414D01*
X41203852Y-52541586D01*
X41234448Y-52387772D01*
X41294463Y-52242883D01*
X41381592Y-52112485D01*
X41492485Y-52001592D01*
X41622883Y-51914463D01*
X41767772Y-51854448D01*
X41921586Y-51823852D01*
X42078414Y-51823852D01*
X42232228Y-51854448D01*
G37*
G36*
X68816742Y-51726601D02*
G01*
X68970687Y-51790367D01*
X69109234Y-51882941D01*
X69227059Y-52000766D01*
X69319633Y-52139313D01*
X69383399Y-52293258D01*
X69415907Y-52456685D01*
X69415907Y-52623315D01*
X69383399Y-52786742D01*
X69319633Y-52940687D01*
X69227059Y-53079234D01*
X69109234Y-53197059D01*
X68970687Y-53289633D01*
X68816742Y-53353399D01*
X68653315Y-53385907D01*
X68486685Y-53385907D01*
X68323258Y-53353399D01*
X68169313Y-53289633D01*
X68030766Y-53197059D01*
X67912941Y-53079234D01*
X67820367Y-52940687D01*
X67756601Y-52786742D01*
X67724093Y-52623315D01*
X67724093Y-52456685D01*
X67756601Y-52293258D01*
X67820367Y-52139313D01*
X67912941Y-52000766D01*
X68030766Y-51882941D01*
X68169313Y-51790367D01*
X68323258Y-51726601D01*
X68486685Y-51694093D01*
X68653315Y-51694093D01*
X68816742Y-51726601D01*
G37*
G36*
X91676742Y-51726601D02*
G01*
X91830687Y-51790367D01*
X91969234Y-51882941D01*
X92087059Y-52000766D01*
X92179633Y-52139313D01*
X92243399Y-52293258D01*
X92275907Y-52456685D01*
X92275907Y-52623315D01*
X92243399Y-52786742D01*
X92179633Y-52940687D01*
X92087059Y-53079234D01*
X91969234Y-53197059D01*
X91830687Y-53289633D01*
X91676742Y-53353399D01*
X91513315Y-53385907D01*
X91346685Y-53385907D01*
X91183258Y-53353399D01*
X91029313Y-53289633D01*
X90890766Y-53197059D01*
X90772941Y-53079234D01*
X90680367Y-52940687D01*
X90616601Y-52786742D01*
X90584093Y-52623315D01*
X90584093Y-52456685D01*
X90616601Y-52293258D01*
X90680367Y-52139313D01*
X90772941Y-52000766D01*
X90890766Y-51882941D01*
X91029313Y-51790367D01*
X91183258Y-51726601D01*
X91346685Y-51694093D01*
X91513315Y-51694093D01*
X91676742Y-51726601D01*
G37*
G36*
X68816742Y-49186601D02*
G01*
X68970687Y-49250367D01*
X69109234Y-49342941D01*
X69227059Y-49460766D01*
X69319633Y-49599313D01*
X69383399Y-49753258D01*
X69415907Y-49916685D01*
X69415907Y-50083315D01*
X69383399Y-50246742D01*
X69319633Y-50400687D01*
X69227059Y-50539234D01*
X69109234Y-50657059D01*
X68970687Y-50749633D01*
X68816742Y-50813399D01*
X68653315Y-50845907D01*
X68486685Y-50845907D01*
X68323258Y-50813399D01*
X68169313Y-50749633D01*
X68030766Y-50657059D01*
X67912941Y-50539234D01*
X67820367Y-50400687D01*
X67756601Y-50246742D01*
X67724093Y-50083315D01*
X67724093Y-49916685D01*
X67756601Y-49753258D01*
X67820367Y-49599313D01*
X67912941Y-49460766D01*
X68030766Y-49342941D01*
X68169313Y-49250367D01*
X68323258Y-49186601D01*
X68486685Y-49154093D01*
X68653315Y-49154093D01*
X68816742Y-49186601D01*
G37*
G36*
X91676742Y-49186601D02*
G01*
X91830687Y-49250367D01*
X91969234Y-49342941D01*
X92087059Y-49460766D01*
X92179633Y-49599313D01*
X92243399Y-49753258D01*
X92275907Y-49916685D01*
X92275907Y-50083315D01*
X92243399Y-50246742D01*
X92179633Y-50400687D01*
X92087059Y-50539234D01*
X91969234Y-50657059D01*
X91830687Y-50749633D01*
X91676742Y-50813399D01*
X91513315Y-50845907D01*
X91346685Y-50845907D01*
X91183258Y-50813399D01*
X91029313Y-50749633D01*
X90890766Y-50657059D01*
X90772941Y-50539234D01*
X90680367Y-50400687D01*
X90616601Y-50246742D01*
X90584093Y-50083315D01*
X90584093Y-49916685D01*
X90616601Y-49753258D01*
X90680367Y-49599313D01*
X90772941Y-49460766D01*
X90890766Y-49342941D01*
X91029313Y-49250367D01*
X91183258Y-49186601D01*
X91346685Y-49154093D01*
X91513315Y-49154093D01*
X91676742Y-49186601D01*
G37*
G36*
X68816742Y-46646601D02*
G01*
X68970687Y-46710367D01*
X69109234Y-46802941D01*
X69227059Y-46920766D01*
X69319633Y-47059313D01*
X69383399Y-47213258D01*
X69415907Y-47376685D01*
X69415907Y-47543315D01*
X69383399Y-47706742D01*
X69319633Y-47860687D01*
X69227059Y-47999234D01*
X69109234Y-48117059D01*
X68970687Y-48209633D01*
X68816742Y-48273399D01*
X68653315Y-48305907D01*
X68486685Y-48305907D01*
X68323258Y-48273399D01*
X68169313Y-48209633D01*
X68030766Y-48117059D01*
X67912941Y-47999234D01*
X67820367Y-47860687D01*
X67756601Y-47706742D01*
X67724093Y-47543315D01*
X67724093Y-47376685D01*
X67756601Y-47213258D01*
X67820367Y-47059313D01*
X67912941Y-46920766D01*
X68030766Y-46802941D01*
X68169313Y-46710367D01*
X68323258Y-46646601D01*
X68486685Y-46614093D01*
X68653315Y-46614093D01*
X68816742Y-46646601D01*
G37*
G36*
X91676742Y-46646601D02*
G01*
X91830687Y-46710367D01*
X91969234Y-46802941D01*
X92087059Y-46920766D01*
X92179633Y-47059313D01*
X92243399Y-47213258D01*
X92275907Y-47376685D01*
X92275907Y-47543315D01*
X92243399Y-47706742D01*
X92179633Y-47860687D01*
X92087059Y-47999234D01*
X91969234Y-48117059D01*
X91830687Y-48209633D01*
X91676742Y-48273399D01*
X91513315Y-48305907D01*
X91346685Y-48305907D01*
X91183258Y-48273399D01*
X91029313Y-48209633D01*
X90890766Y-48117059D01*
X90772941Y-47999234D01*
X90680367Y-47860687D01*
X90616601Y-47706742D01*
X90584093Y-47543315D01*
X90584093Y-47376685D01*
X90616601Y-47213258D01*
X90680367Y-47059313D01*
X90772941Y-46920766D01*
X90890766Y-46802941D01*
X91029313Y-46710367D01*
X91183258Y-46646601D01*
X91346685Y-46614093D01*
X91513315Y-46614093D01*
X91676742Y-46646601D01*
G37*
G36*
X42554047Y-44200805D02*
G01*
X42605408Y-44206764D01*
X42622954Y-44214511D01*
X42645671Y-44219030D01*
X42669991Y-44235280D01*
X42690793Y-44244465D01*
X42705000Y-44258672D01*
X42726777Y-44273223D01*
X42741327Y-44294999D01*
X42755534Y-44309206D01*
X42764718Y-44330006D01*
X42780970Y-44354329D01*
X42785489Y-44377048D01*
X42793235Y-44394591D01*
X42799192Y-44445940D01*
X42800000Y-44450000D01*
X42800000Y-45550000D01*
X42799192Y-45554059D01*
X42793235Y-45605408D01*
X42785489Y-45622950D01*
X42780970Y-45645671D01*
X42764716Y-45669995D01*
X42755534Y-45690793D01*
X42741329Y-45704997D01*
X42726777Y-45726777D01*
X42704997Y-45741329D01*
X42690793Y-45755534D01*
X42669995Y-45764716D01*
X42645671Y-45780970D01*
X42622950Y-45785489D01*
X42605408Y-45793235D01*
X42554061Y-45799192D01*
X42550000Y-45800000D01*
X41450000Y-45800000D01*
X41445941Y-45799192D01*
X41394591Y-45793235D01*
X41377048Y-45785489D01*
X41354329Y-45780970D01*
X41330006Y-45764718D01*
X41309206Y-45755534D01*
X41294999Y-45741327D01*
X41273223Y-45726777D01*
X41258672Y-45705000D01*
X41244465Y-45690793D01*
X41235280Y-45669991D01*
X41219030Y-45645671D01*
X41214511Y-45622954D01*
X41206764Y-45605408D01*
X41200805Y-45554049D01*
X41200000Y-45550000D01*
X41200000Y-44450000D01*
X41200804Y-44445953D01*
X41206764Y-44394591D01*
X41214511Y-44377043D01*
X41219030Y-44354329D01*
X41235278Y-44330010D01*
X41244465Y-44309206D01*
X41258674Y-44294996D01*
X41273223Y-44273223D01*
X41294996Y-44258674D01*
X41309206Y-44244465D01*
X41330010Y-44235278D01*
X41354329Y-44219030D01*
X41377043Y-44214511D01*
X41394591Y-44206764D01*
X41445952Y-44200805D01*
X41450000Y-44200000D01*
X42550000Y-44200000D01*
X42554047Y-44200805D01*
G37*
G36*
X9212228Y-44234448D02*
G01*
X9357117Y-44294463D01*
X9487515Y-44381592D01*
X9598408Y-44492485D01*
X9685537Y-44622883D01*
X9745552Y-44767772D01*
X9776148Y-44921586D01*
X9776148Y-45078414D01*
X9745552Y-45232228D01*
X9685537Y-45377117D01*
X9598408Y-45507515D01*
X9487515Y-45618408D01*
X9357117Y-45705537D01*
X9212228Y-45765552D01*
X9058414Y-45796148D01*
X8901586Y-45796148D01*
X8747772Y-45765552D01*
X8602883Y-45705537D01*
X8472485Y-45618408D01*
X8361592Y-45507515D01*
X8274463Y-45377117D01*
X8214448Y-45232228D01*
X8183852Y-45078414D01*
X8183852Y-44921586D01*
X8214448Y-44767772D01*
X8274463Y-44622883D01*
X8361592Y-44492485D01*
X8472485Y-44381592D01*
X8602883Y-44294463D01*
X8747772Y-44234448D01*
X8901586Y-44203852D01*
X9058414Y-44203852D01*
X9212228Y-44234448D01*
G37*
G36*
X11752228Y-44234448D02*
G01*
X11897117Y-44294463D01*
X12027515Y-44381592D01*
X12138408Y-44492485D01*
X12225537Y-44622883D01*
X12285552Y-44767772D01*
X12316148Y-44921586D01*
X12316148Y-45078414D01*
X12285552Y-45232228D01*
X12225537Y-45377117D01*
X12138408Y-45507515D01*
X12027515Y-45618408D01*
X11897117Y-45705537D01*
X11752228Y-45765552D01*
X11598414Y-45796148D01*
X11441586Y-45796148D01*
X11287772Y-45765552D01*
X11142883Y-45705537D01*
X11012485Y-45618408D01*
X10901592Y-45507515D01*
X10814463Y-45377117D01*
X10754448Y-45232228D01*
X10723852Y-45078414D01*
X10723852Y-44921586D01*
X10754448Y-44767772D01*
X10814463Y-44622883D01*
X10901592Y-44492485D01*
X11012485Y-44381592D01*
X11142883Y-44294463D01*
X11287772Y-44234448D01*
X11441586Y-44203852D01*
X11598414Y-44203852D01*
X11752228Y-44234448D01*
G37*
G36*
X14292228Y-44234448D02*
G01*
X14437117Y-44294463D01*
X14567515Y-44381592D01*
X14678408Y-44492485D01*
X14765537Y-44622883D01*
X14825552Y-44767772D01*
X14856148Y-44921586D01*
X14856148Y-45078414D01*
X14825552Y-45232228D01*
X14765537Y-45377117D01*
X14678408Y-45507515D01*
X14567515Y-45618408D01*
X14437117Y-45705537D01*
X14292228Y-45765552D01*
X14138414Y-45796148D01*
X13981586Y-45796148D01*
X13827772Y-45765552D01*
X13682883Y-45705537D01*
X13552485Y-45618408D01*
X13441592Y-45507515D01*
X13354463Y-45377117D01*
X13294448Y-45232228D01*
X13263852Y-45078414D01*
X13263852Y-44921586D01*
X13294448Y-44767772D01*
X13354463Y-44622883D01*
X13441592Y-44492485D01*
X13552485Y-44381592D01*
X13682883Y-44294463D01*
X13827772Y-44234448D01*
X13981586Y-44203852D01*
X14138414Y-44203852D01*
X14292228Y-44234448D01*
G37*
G36*
X16832228Y-44234448D02*
G01*
X16977117Y-44294463D01*
X17107515Y-44381592D01*
X17218408Y-44492485D01*
X17305537Y-44622883D01*
X17365552Y-44767772D01*
X17396148Y-44921586D01*
X17396148Y-45078414D01*
X17365552Y-45232228D01*
X17305537Y-45377117D01*
X17218408Y-45507515D01*
X17107515Y-45618408D01*
X16977117Y-45705537D01*
X16832228Y-45765552D01*
X16678414Y-45796148D01*
X16521586Y-45796148D01*
X16367772Y-45765552D01*
X16222883Y-45705537D01*
X16092485Y-45618408D01*
X15981592Y-45507515D01*
X15894463Y-45377117D01*
X15834448Y-45232228D01*
X15803852Y-45078414D01*
X15803852Y-44921586D01*
X15834448Y-44767772D01*
X15894463Y-44622883D01*
X15981592Y-44492485D01*
X16092485Y-44381592D01*
X16222883Y-44294463D01*
X16367772Y-44234448D01*
X16521586Y-44203852D01*
X16678414Y-44203852D01*
X16832228Y-44234448D01*
G37*
G36*
X19372228Y-44234448D02*
G01*
X19517117Y-44294463D01*
X19647515Y-44381592D01*
X19758408Y-44492485D01*
X19845537Y-44622883D01*
X19905552Y-44767772D01*
X19936148Y-44921586D01*
X19936148Y-45078414D01*
X19905552Y-45232228D01*
X19845537Y-45377117D01*
X19758408Y-45507515D01*
X19647515Y-45618408D01*
X19517117Y-45705537D01*
X19372228Y-45765552D01*
X19218414Y-45796148D01*
X19061586Y-45796148D01*
X18907772Y-45765552D01*
X18762883Y-45705537D01*
X18632485Y-45618408D01*
X18521592Y-45507515D01*
X18434463Y-45377117D01*
X18374448Y-45232228D01*
X18343852Y-45078414D01*
X18343852Y-44921586D01*
X18374448Y-44767772D01*
X18434463Y-44622883D01*
X18521592Y-44492485D01*
X18632485Y-44381592D01*
X18762883Y-44294463D01*
X18907772Y-44234448D01*
X19061586Y-44203852D01*
X19218414Y-44203852D01*
X19372228Y-44234448D01*
G37*
G36*
X21912228Y-44234448D02*
G01*
X22057117Y-44294463D01*
X22187515Y-44381592D01*
X22298408Y-44492485D01*
X22385537Y-44622883D01*
X22445552Y-44767772D01*
X22476148Y-44921586D01*
X22476148Y-45078414D01*
X22445552Y-45232228D01*
X22385537Y-45377117D01*
X22298408Y-45507515D01*
X22187515Y-45618408D01*
X22057117Y-45705537D01*
X21912228Y-45765552D01*
X21758414Y-45796148D01*
X21601586Y-45796148D01*
X21447772Y-45765552D01*
X21302883Y-45705537D01*
X21172485Y-45618408D01*
X21061592Y-45507515D01*
X20974463Y-45377117D01*
X20914448Y-45232228D01*
X20883852Y-45078414D01*
X20883852Y-44921586D01*
X20914448Y-44767772D01*
X20974463Y-44622883D01*
X21061592Y-44492485D01*
X21172485Y-44381592D01*
X21302883Y-44294463D01*
X21447772Y-44234448D01*
X21601586Y-44203852D01*
X21758414Y-44203852D01*
X21912228Y-44234448D01*
G37*
G36*
X24452228Y-44234448D02*
G01*
X24597117Y-44294463D01*
X24727515Y-44381592D01*
X24838408Y-44492485D01*
X24925537Y-44622883D01*
X24985552Y-44767772D01*
X25016148Y-44921586D01*
X25016148Y-45078414D01*
X24985552Y-45232228D01*
X24925537Y-45377117D01*
X24838408Y-45507515D01*
X24727515Y-45618408D01*
X24597117Y-45705537D01*
X24452228Y-45765552D01*
X24298414Y-45796148D01*
X24141586Y-45796148D01*
X23987772Y-45765552D01*
X23842883Y-45705537D01*
X23712485Y-45618408D01*
X23601592Y-45507515D01*
X23514463Y-45377117D01*
X23454448Y-45232228D01*
X23423852Y-45078414D01*
X23423852Y-44921586D01*
X23454448Y-44767772D01*
X23514463Y-44622883D01*
X23601592Y-44492485D01*
X23712485Y-44381592D01*
X23842883Y-44294463D01*
X23987772Y-44234448D01*
X24141586Y-44203852D01*
X24298414Y-44203852D01*
X24452228Y-44234448D01*
G37*
G36*
X26992228Y-44234448D02*
G01*
X27137117Y-44294463D01*
X27267515Y-44381592D01*
X27378408Y-44492485D01*
X27465537Y-44622883D01*
X27525552Y-44767772D01*
X27556148Y-44921586D01*
X27556148Y-45078414D01*
X27525552Y-45232228D01*
X27465537Y-45377117D01*
X27378408Y-45507515D01*
X27267515Y-45618408D01*
X27137117Y-45705537D01*
X26992228Y-45765552D01*
X26838414Y-45796148D01*
X26681586Y-45796148D01*
X26527772Y-45765552D01*
X26382883Y-45705537D01*
X26252485Y-45618408D01*
X26141592Y-45507515D01*
X26054463Y-45377117D01*
X25994448Y-45232228D01*
X25963852Y-45078414D01*
X25963852Y-44921586D01*
X25994448Y-44767772D01*
X26054463Y-44622883D01*
X26141592Y-44492485D01*
X26252485Y-44381592D01*
X26382883Y-44294463D01*
X26527772Y-44234448D01*
X26681586Y-44203852D01*
X26838414Y-44203852D01*
X26992228Y-44234448D01*
G37*
G36*
X29532228Y-44234448D02*
G01*
X29677117Y-44294463D01*
X29807515Y-44381592D01*
X29918408Y-44492485D01*
X30005537Y-44622883D01*
X30065552Y-44767772D01*
X30096148Y-44921586D01*
X30096148Y-45078414D01*
X30065552Y-45232228D01*
X30005537Y-45377117D01*
X29918408Y-45507515D01*
X29807515Y-45618408D01*
X29677117Y-45705537D01*
X29532228Y-45765552D01*
X29378414Y-45796148D01*
X29221586Y-45796148D01*
X29067772Y-45765552D01*
X28922883Y-45705537D01*
X28792485Y-45618408D01*
X28681592Y-45507515D01*
X28594463Y-45377117D01*
X28534448Y-45232228D01*
X28503852Y-45078414D01*
X28503852Y-44921586D01*
X28534448Y-44767772D01*
X28594463Y-44622883D01*
X28681592Y-44492485D01*
X28792485Y-44381592D01*
X28922883Y-44294463D01*
X29067772Y-44234448D01*
X29221586Y-44203852D01*
X29378414Y-44203852D01*
X29532228Y-44234448D01*
G37*
G36*
X32072228Y-44234448D02*
G01*
X32217117Y-44294463D01*
X32347515Y-44381592D01*
X32458408Y-44492485D01*
X32545537Y-44622883D01*
X32605552Y-44767772D01*
X32636148Y-44921586D01*
X32636148Y-45078414D01*
X32605552Y-45232228D01*
X32545537Y-45377117D01*
X32458408Y-45507515D01*
X32347515Y-45618408D01*
X32217117Y-45705537D01*
X32072228Y-45765552D01*
X31918414Y-45796148D01*
X31761586Y-45796148D01*
X31607772Y-45765552D01*
X31462883Y-45705537D01*
X31332485Y-45618408D01*
X31221592Y-45507515D01*
X31134463Y-45377117D01*
X31074448Y-45232228D01*
X31043852Y-45078414D01*
X31043852Y-44921586D01*
X31074448Y-44767772D01*
X31134463Y-44622883D01*
X31221592Y-44492485D01*
X31332485Y-44381592D01*
X31462883Y-44294463D01*
X31607772Y-44234448D01*
X31761586Y-44203852D01*
X31918414Y-44203852D01*
X32072228Y-44234448D01*
G37*
G36*
X34612228Y-44234448D02*
G01*
X34757117Y-44294463D01*
X34887515Y-44381592D01*
X34998408Y-44492485D01*
X35085537Y-44622883D01*
X35145552Y-44767772D01*
X35176148Y-44921586D01*
X35176148Y-45078414D01*
X35145552Y-45232228D01*
X35085537Y-45377117D01*
X34998408Y-45507515D01*
X34887515Y-45618408D01*
X34757117Y-45705537D01*
X34612228Y-45765552D01*
X34458414Y-45796148D01*
X34301586Y-45796148D01*
X34147772Y-45765552D01*
X34002883Y-45705537D01*
X33872485Y-45618408D01*
X33761592Y-45507515D01*
X33674463Y-45377117D01*
X33614448Y-45232228D01*
X33583852Y-45078414D01*
X33583852Y-44921586D01*
X33614448Y-44767772D01*
X33674463Y-44622883D01*
X33761592Y-44492485D01*
X33872485Y-44381592D01*
X34002883Y-44294463D01*
X34147772Y-44234448D01*
X34301586Y-44203852D01*
X34458414Y-44203852D01*
X34612228Y-44234448D01*
G37*
G36*
X37152228Y-44234448D02*
G01*
X37297117Y-44294463D01*
X37427515Y-44381592D01*
X37538408Y-44492485D01*
X37625537Y-44622883D01*
X37685552Y-44767772D01*
X37716148Y-44921586D01*
X37716148Y-45078414D01*
X37685552Y-45232228D01*
X37625537Y-45377117D01*
X37538408Y-45507515D01*
X37427515Y-45618408D01*
X37297117Y-45705537D01*
X37152228Y-45765552D01*
X36998414Y-45796148D01*
X36841586Y-45796148D01*
X36687772Y-45765552D01*
X36542883Y-45705537D01*
X36412485Y-45618408D01*
X36301592Y-45507515D01*
X36214463Y-45377117D01*
X36154448Y-45232228D01*
X36123852Y-45078414D01*
X36123852Y-44921586D01*
X36154448Y-44767772D01*
X36214463Y-44622883D01*
X36301592Y-44492485D01*
X36412485Y-44381592D01*
X36542883Y-44294463D01*
X36687772Y-44234448D01*
X36841586Y-44203852D01*
X36998414Y-44203852D01*
X37152228Y-44234448D01*
G37*
G36*
X39692228Y-44234448D02*
G01*
X39837117Y-44294463D01*
X39967515Y-44381592D01*
X40078408Y-44492485D01*
X40165537Y-44622883D01*
X40225552Y-44767772D01*
X40256148Y-44921586D01*
X40256148Y-45078414D01*
X40225552Y-45232228D01*
X40165537Y-45377117D01*
X40078408Y-45507515D01*
X39967515Y-45618408D01*
X39837117Y-45705537D01*
X39692228Y-45765552D01*
X39538414Y-45796148D01*
X39381586Y-45796148D01*
X39227772Y-45765552D01*
X39082883Y-45705537D01*
X38952485Y-45618408D01*
X38841592Y-45507515D01*
X38754463Y-45377117D01*
X38694448Y-45232228D01*
X38663852Y-45078414D01*
X38663852Y-44921586D01*
X38694448Y-44767772D01*
X38754463Y-44622883D01*
X38841592Y-44492485D01*
X38952485Y-44381592D01*
X39082883Y-44294463D01*
X39227772Y-44234448D01*
X39381586Y-44203852D01*
X39538414Y-44203852D01*
X39692228Y-44234448D01*
G37*
G36*
X68816742Y-44106601D02*
G01*
X68970687Y-44170367D01*
X69109234Y-44262941D01*
X69227059Y-44380766D01*
X69319633Y-44519313D01*
X69383399Y-44673258D01*
X69415907Y-44836685D01*
X69415907Y-45003315D01*
X69383399Y-45166742D01*
X69319633Y-45320687D01*
X69227059Y-45459234D01*
X69109234Y-45577059D01*
X68970687Y-45669633D01*
X68816742Y-45733399D01*
X68653315Y-45765907D01*
X68486685Y-45765907D01*
X68323258Y-45733399D01*
X68169313Y-45669633D01*
X68030766Y-45577059D01*
X67912941Y-45459234D01*
X67820367Y-45320687D01*
X67756601Y-45166742D01*
X67724093Y-45003315D01*
X67724093Y-44836685D01*
X67756601Y-44673258D01*
X67820367Y-44519313D01*
X67912941Y-44380766D01*
X68030766Y-44262941D01*
X68169313Y-44170367D01*
X68323258Y-44106601D01*
X68486685Y-44074093D01*
X68653315Y-44074093D01*
X68816742Y-44106601D01*
G37*
G36*
X91676742Y-44106601D02*
G01*
X91830687Y-44170367D01*
X91969234Y-44262941D01*
X92087059Y-44380766D01*
X92179633Y-44519313D01*
X92243399Y-44673258D01*
X92275907Y-44836685D01*
X92275907Y-45003315D01*
X92243399Y-45166742D01*
X92179633Y-45320687D01*
X92087059Y-45459234D01*
X91969234Y-45577059D01*
X91830687Y-45669633D01*
X91676742Y-45733399D01*
X91513315Y-45765907D01*
X91346685Y-45765907D01*
X91183258Y-45733399D01*
X91029313Y-45669633D01*
X90890766Y-45577059D01*
X90772941Y-45459234D01*
X90680367Y-45320687D01*
X90616601Y-45166742D01*
X90584093Y-45003315D01*
X90584093Y-44836685D01*
X90616601Y-44673258D01*
X90680367Y-44519313D01*
X90772941Y-44380766D01*
X90890766Y-44262941D01*
X91029313Y-44170367D01*
X91183258Y-44106601D01*
X91346685Y-44074093D01*
X91513315Y-44074093D01*
X91676742Y-44106601D01*
G37*
G36*
X68816742Y-41566601D02*
G01*
X68970687Y-41630367D01*
X69109234Y-41722941D01*
X69227059Y-41840766D01*
X69319633Y-41979313D01*
X69383399Y-42133258D01*
X69415907Y-42296685D01*
X69415907Y-42463315D01*
X69383399Y-42626742D01*
X69319633Y-42780687D01*
X69227059Y-42919234D01*
X69109234Y-43037059D01*
X68970687Y-43129633D01*
X68816742Y-43193399D01*
X68653315Y-43225907D01*
X68486685Y-43225907D01*
X68323258Y-43193399D01*
X68169313Y-43129633D01*
X68030766Y-43037059D01*
X67912941Y-42919234D01*
X67820367Y-42780687D01*
X67756601Y-42626742D01*
X67724093Y-42463315D01*
X67724093Y-42296685D01*
X67756601Y-42133258D01*
X67820367Y-41979313D01*
X67912941Y-41840766D01*
X68030766Y-41722941D01*
X68169313Y-41630367D01*
X68323258Y-41566601D01*
X68486685Y-41534093D01*
X68653315Y-41534093D01*
X68816742Y-41566601D01*
G37*
G36*
X91676742Y-41566601D02*
G01*
X91830687Y-41630367D01*
X91969234Y-41722941D01*
X92087059Y-41840766D01*
X92179633Y-41979313D01*
X92243399Y-42133258D01*
X92275907Y-42296685D01*
X92275907Y-42463315D01*
X92243399Y-42626742D01*
X92179633Y-42780687D01*
X92087059Y-42919234D01*
X91969234Y-43037059D01*
X91830687Y-43129633D01*
X91676742Y-43193399D01*
X91513315Y-43225907D01*
X91346685Y-43225907D01*
X91183258Y-43193399D01*
X91029313Y-43129633D01*
X90890766Y-43037059D01*
X90772941Y-42919234D01*
X90680367Y-42780687D01*
X90616601Y-42626742D01*
X90584093Y-42463315D01*
X90584093Y-42296685D01*
X90616601Y-42133258D01*
X90680367Y-41979313D01*
X90772941Y-41840766D01*
X90890766Y-41722941D01*
X91029313Y-41630367D01*
X91183258Y-41566601D01*
X91346685Y-41534093D01*
X91513315Y-41534093D01*
X91676742Y-41566601D01*
G37*
G36*
X40200000Y-42776000D02*
G01*
X38200000Y-42776000D01*
X38200000Y-40776000D01*
X40200000Y-40776000D01*
X40200000Y-42776000D01*
G37*
G36*
X43974000Y-42750000D02*
G01*
X41974000Y-42750000D01*
X41974000Y-40750000D01*
X43974000Y-40750000D01*
X43974000Y-42750000D01*
G37*
G36*
X68816742Y-39026601D02*
G01*
X68970687Y-39090367D01*
X69109234Y-39182941D01*
X69227059Y-39300766D01*
X69319633Y-39439313D01*
X69383399Y-39593258D01*
X69415907Y-39756685D01*
X69415907Y-39923315D01*
X69383399Y-40086742D01*
X69319633Y-40240687D01*
X69227059Y-40379234D01*
X69109234Y-40497059D01*
X68970687Y-40589633D01*
X68816742Y-40653399D01*
X68653315Y-40685907D01*
X68486685Y-40685907D01*
X68323258Y-40653399D01*
X68169313Y-40589633D01*
X68030766Y-40497059D01*
X67912941Y-40379234D01*
X67820367Y-40240687D01*
X67756601Y-40086742D01*
X67724093Y-39923315D01*
X67724093Y-39756685D01*
X67756601Y-39593258D01*
X67820367Y-39439313D01*
X67912941Y-39300766D01*
X68030766Y-39182941D01*
X68169313Y-39090367D01*
X68323258Y-39026601D01*
X68486685Y-38994093D01*
X68653315Y-38994093D01*
X68816742Y-39026601D01*
G37*
G36*
X91676742Y-39026601D02*
G01*
X91830687Y-39090367D01*
X91969234Y-39182941D01*
X92087059Y-39300766D01*
X92179633Y-39439313D01*
X92243399Y-39593258D01*
X92275907Y-39756685D01*
X92275907Y-39923315D01*
X92243399Y-40086742D01*
X92179633Y-40240687D01*
X92087059Y-40379234D01*
X91969234Y-40497059D01*
X91830687Y-40589633D01*
X91676742Y-40653399D01*
X91513315Y-40685907D01*
X91346685Y-40685907D01*
X91183258Y-40653399D01*
X91029313Y-40589633D01*
X90890766Y-40497059D01*
X90772941Y-40379234D01*
X90680367Y-40240687D01*
X90616601Y-40086742D01*
X90584093Y-39923315D01*
X90584093Y-39756685D01*
X90616601Y-39593258D01*
X90680367Y-39439313D01*
X90772941Y-39300766D01*
X90890766Y-39182941D01*
X91029313Y-39090367D01*
X91183258Y-39026601D01*
X91346685Y-38994093D01*
X91513315Y-38994093D01*
X91676742Y-39026601D01*
G37*
G36*
X69420000Y-38150000D02*
G01*
X67720000Y-38150000D01*
X67720000Y-36450000D01*
X69420000Y-36450000D01*
X69420000Y-38150000D01*
G37*
G36*
X92280000Y-38150000D02*
G01*
X90580000Y-38150000D01*
X90580000Y-36450000D01*
X92280000Y-36450000D01*
X92280000Y-38150000D01*
G37*
G36*
X49250000Y-35250000D02*
G01*
X47250000Y-35250000D01*
X47250000Y-33250000D01*
X49250000Y-33250000D01*
X49250000Y-35250000D01*
G37*
G36*
X118400000Y-17830000D02*
G01*
X116400000Y-17830000D01*
X116400000Y-15830000D01*
X118400000Y-15830000D01*
X118400000Y-17830000D01*
G37*
G36*
X15674047Y-12480805D02*
G01*
X15725408Y-12486764D01*
X15742954Y-12494511D01*
X15765671Y-12499030D01*
X15789991Y-12515280D01*
X15810793Y-12524465D01*
X15825000Y-12538672D01*
X15846777Y-12553223D01*
X15861327Y-12574999D01*
X15875534Y-12589206D01*
X15884718Y-12610006D01*
X15900970Y-12634329D01*
X15905489Y-12657048D01*
X15913235Y-12674591D01*
X15919192Y-12725940D01*
X15920000Y-12730000D01*
X15920000Y-13930000D01*
X15919192Y-13934059D01*
X15913235Y-13985408D01*
X15905489Y-14002950D01*
X15900970Y-14025671D01*
X15884716Y-14049995D01*
X15875534Y-14070793D01*
X15861329Y-14084997D01*
X15846777Y-14106777D01*
X15824997Y-14121329D01*
X15810793Y-14135534D01*
X15789995Y-14144716D01*
X15765671Y-14160970D01*
X15742950Y-14165489D01*
X15725408Y-14173235D01*
X15674061Y-14179192D01*
X15670000Y-14180000D01*
X14470000Y-14180000D01*
X14465941Y-14179192D01*
X14414591Y-14173235D01*
X14397048Y-14165489D01*
X14374329Y-14160970D01*
X14350006Y-14144718D01*
X14329206Y-14135534D01*
X14314999Y-14121327D01*
X14293223Y-14106777D01*
X14278672Y-14085000D01*
X14264465Y-14070793D01*
X14255280Y-14049991D01*
X14239030Y-14025671D01*
X14234511Y-14002954D01*
X14226764Y-13985408D01*
X14220805Y-13934049D01*
X14220000Y-13930000D01*
X14220000Y-12730000D01*
X14220804Y-12725953D01*
X14226764Y-12674591D01*
X14234511Y-12657043D01*
X14239030Y-12634329D01*
X14255278Y-12610010D01*
X14264465Y-12589206D01*
X14278674Y-12574996D01*
X14293223Y-12553223D01*
X14314996Y-12538674D01*
X14329206Y-12524465D01*
X14350010Y-12515278D01*
X14374329Y-12499030D01*
X14397043Y-12494511D01*
X14414591Y-12486764D01*
X14465952Y-12480805D01*
X14470000Y-12480000D01*
X15670000Y-12480000D01*
X15674047Y-12480805D01*
G37*
G36*
X69174047Y-12480805D02*
G01*
X69225408Y-12486764D01*
X69242954Y-12494511D01*
X69265671Y-12499030D01*
X69289991Y-12515280D01*
X69310793Y-12524465D01*
X69325000Y-12538672D01*
X69346777Y-12553223D01*
X69361327Y-12574999D01*
X69375534Y-12589206D01*
X69384718Y-12610006D01*
X69400970Y-12634329D01*
X69405489Y-12657048D01*
X69413235Y-12674591D01*
X69419192Y-12725940D01*
X69420000Y-12730000D01*
X69420000Y-13930000D01*
X69419192Y-13934059D01*
X69413235Y-13985408D01*
X69405489Y-14002950D01*
X69400970Y-14025671D01*
X69384716Y-14049995D01*
X69375534Y-14070793D01*
X69361329Y-14084997D01*
X69346777Y-14106777D01*
X69324997Y-14121329D01*
X69310793Y-14135534D01*
X69289995Y-14144716D01*
X69265671Y-14160970D01*
X69242950Y-14165489D01*
X69225408Y-14173235D01*
X69174061Y-14179192D01*
X69170000Y-14180000D01*
X67970000Y-14180000D01*
X67965941Y-14179192D01*
X67914591Y-14173235D01*
X67897048Y-14165489D01*
X67874329Y-14160970D01*
X67850006Y-14144718D01*
X67829206Y-14135534D01*
X67814999Y-14121327D01*
X67793223Y-14106777D01*
X67778672Y-14085000D01*
X67764465Y-14070793D01*
X67755280Y-14049991D01*
X67739030Y-14025671D01*
X67734511Y-14002954D01*
X67726764Y-13985408D01*
X67720805Y-13934049D01*
X67720000Y-13930000D01*
X67720000Y-12730000D01*
X67720804Y-12725953D01*
X67726764Y-12674591D01*
X67734511Y-12657043D01*
X67739030Y-12634329D01*
X67755278Y-12610010D01*
X67764465Y-12589206D01*
X67778674Y-12574996D01*
X67793223Y-12553223D01*
X67814996Y-12538674D01*
X67829206Y-12524465D01*
X67850010Y-12515278D01*
X67874329Y-12499030D01*
X67897043Y-12494511D01*
X67914591Y-12486764D01*
X67965952Y-12480805D01*
X67970000Y-12480000D01*
X69170000Y-12480000D01*
X69174047Y-12480805D01*
G37*
G36*
X122674047Y-12480805D02*
G01*
X122725408Y-12486764D01*
X122742954Y-12494511D01*
X122765671Y-12499030D01*
X122789991Y-12515280D01*
X122810793Y-12524465D01*
X122825000Y-12538672D01*
X122846777Y-12553223D01*
X122861327Y-12574999D01*
X122875534Y-12589206D01*
X122884718Y-12610006D01*
X122900970Y-12634329D01*
X122905489Y-12657048D01*
X122913235Y-12674591D01*
X122919192Y-12725940D01*
X122920000Y-12730000D01*
X122920000Y-13930000D01*
X122919192Y-13934059D01*
X122913235Y-13985408D01*
X122905489Y-14002950D01*
X122900970Y-14025671D01*
X122884716Y-14049995D01*
X122875534Y-14070793D01*
X122861329Y-14084997D01*
X122846777Y-14106777D01*
X122824997Y-14121329D01*
X122810793Y-14135534D01*
X122789995Y-14144716D01*
X122765671Y-14160970D01*
X122742950Y-14165489D01*
X122725408Y-14173235D01*
X122674061Y-14179192D01*
X122670000Y-14180000D01*
X121470000Y-14180000D01*
X121465941Y-14179192D01*
X121414591Y-14173235D01*
X121397048Y-14165489D01*
X121374329Y-14160970D01*
X121350006Y-14144718D01*
X121329206Y-14135534D01*
X121314999Y-14121327D01*
X121293223Y-14106777D01*
X121278672Y-14085000D01*
X121264465Y-14070793D01*
X121255280Y-14049991D01*
X121239030Y-14025671D01*
X121234511Y-14002954D01*
X121226764Y-13985408D01*
X121220805Y-13934049D01*
X121220000Y-13930000D01*
X121220000Y-12730000D01*
X121220804Y-12725953D01*
X121226764Y-12674591D01*
X121234511Y-12657043D01*
X121239030Y-12634329D01*
X121255278Y-12610010D01*
X121264465Y-12589206D01*
X121278674Y-12574996D01*
X121293223Y-12553223D01*
X121314996Y-12538674D01*
X121329206Y-12524465D01*
X121350010Y-12515278D01*
X121374329Y-12499030D01*
X121397043Y-12494511D01*
X121414591Y-12486764D01*
X121465952Y-12480805D01*
X121470000Y-12480000D01*
X122670000Y-12480000D01*
X122674047Y-12480805D01*
G37*
G36*
X17856742Y-12516601D02*
G01*
X18010687Y-12580367D01*
X18149234Y-12672941D01*
X18267059Y-12790766D01*
X18359633Y-12929313D01*
X18423399Y-13083258D01*
X18455907Y-13246685D01*
X18455907Y-13413315D01*
X18423399Y-13576742D01*
X18359633Y-13730687D01*
X18267059Y-13869234D01*
X18149234Y-13987059D01*
X18010687Y-14079633D01*
X17856742Y-14143399D01*
X17693315Y-14175907D01*
X17526685Y-14175907D01*
X17363258Y-14143399D01*
X17209313Y-14079633D01*
X17070766Y-13987059D01*
X16952941Y-13869234D01*
X16860367Y-13730687D01*
X16796601Y-13576742D01*
X16764093Y-13413315D01*
X16764093Y-13246685D01*
X16796601Y-13083258D01*
X16860367Y-12929313D01*
X16952941Y-12790766D01*
X17070766Y-12672941D01*
X17209313Y-12580367D01*
X17363258Y-12516601D01*
X17526685Y-12484093D01*
X17693315Y-12484093D01*
X17856742Y-12516601D01*
G37*
G36*
X20396742Y-12516601D02*
G01*
X20550687Y-12580367D01*
X20689234Y-12672941D01*
X20807059Y-12790766D01*
X20899633Y-12929313D01*
X20963399Y-13083258D01*
X20995907Y-13246685D01*
X20995907Y-13413315D01*
X20963399Y-13576742D01*
X20899633Y-13730687D01*
X20807059Y-13869234D01*
X20689234Y-13987059D01*
X20550687Y-14079633D01*
X20396742Y-14143399D01*
X20233315Y-14175907D01*
X20066685Y-14175907D01*
X19903258Y-14143399D01*
X19749313Y-14079633D01*
X19610766Y-13987059D01*
X19492941Y-13869234D01*
X19400367Y-13730687D01*
X19336601Y-13576742D01*
X19304093Y-13413315D01*
X19304093Y-13246685D01*
X19336601Y-13083258D01*
X19400367Y-12929313D01*
X19492941Y-12790766D01*
X19610766Y-12672941D01*
X19749313Y-12580367D01*
X19903258Y-12516601D01*
X20066685Y-12484093D01*
X20233315Y-12484093D01*
X20396742Y-12516601D01*
G37*
G36*
X22936742Y-12516601D02*
G01*
X23090687Y-12580367D01*
X23229234Y-12672941D01*
X23347059Y-12790766D01*
X23439633Y-12929313D01*
X23503399Y-13083258D01*
X23535907Y-13246685D01*
X23535907Y-13413315D01*
X23503399Y-13576742D01*
X23439633Y-13730687D01*
X23347059Y-13869234D01*
X23229234Y-13987059D01*
X23090687Y-14079633D01*
X22936742Y-14143399D01*
X22773315Y-14175907D01*
X22606685Y-14175907D01*
X22443258Y-14143399D01*
X22289313Y-14079633D01*
X22150766Y-13987059D01*
X22032941Y-13869234D01*
X21940367Y-13730687D01*
X21876601Y-13576742D01*
X21844093Y-13413315D01*
X21844093Y-13246685D01*
X21876601Y-13083258D01*
X21940367Y-12929313D01*
X22032941Y-12790766D01*
X22150766Y-12672941D01*
X22289313Y-12580367D01*
X22443258Y-12516601D01*
X22606685Y-12484093D01*
X22773315Y-12484093D01*
X22936742Y-12516601D01*
G37*
G36*
X25476742Y-12516601D02*
G01*
X25630687Y-12580367D01*
X25769234Y-12672941D01*
X25887059Y-12790766D01*
X25979633Y-12929313D01*
X26043399Y-13083258D01*
X26075907Y-13246685D01*
X26075907Y-13413315D01*
X26043399Y-13576742D01*
X25979633Y-13730687D01*
X25887059Y-13869234D01*
X25769234Y-13987059D01*
X25630687Y-14079633D01*
X25476742Y-14143399D01*
X25313315Y-14175907D01*
X25146685Y-14175907D01*
X24983258Y-14143399D01*
X24829313Y-14079633D01*
X24690766Y-13987059D01*
X24572941Y-13869234D01*
X24480367Y-13730687D01*
X24416601Y-13576742D01*
X24384093Y-13413315D01*
X24384093Y-13246685D01*
X24416601Y-13083258D01*
X24480367Y-12929313D01*
X24572941Y-12790766D01*
X24690766Y-12672941D01*
X24829313Y-12580367D01*
X24983258Y-12516601D01*
X25146685Y-12484093D01*
X25313315Y-12484093D01*
X25476742Y-12516601D01*
G37*
G36*
X28016742Y-12516601D02*
G01*
X28170687Y-12580367D01*
X28309234Y-12672941D01*
X28427059Y-12790766D01*
X28519633Y-12929313D01*
X28583399Y-13083258D01*
X28615907Y-13246685D01*
X28615907Y-13413315D01*
X28583399Y-13576742D01*
X28519633Y-13730687D01*
X28427059Y-13869234D01*
X28309234Y-13987059D01*
X28170687Y-14079633D01*
X28016742Y-14143399D01*
X27853315Y-14175907D01*
X27686685Y-14175907D01*
X27523258Y-14143399D01*
X27369313Y-14079633D01*
X27230766Y-13987059D01*
X27112941Y-13869234D01*
X27020367Y-13730687D01*
X26956601Y-13576742D01*
X26924093Y-13413315D01*
X26924093Y-13246685D01*
X26956601Y-13083258D01*
X27020367Y-12929313D01*
X27112941Y-12790766D01*
X27230766Y-12672941D01*
X27369313Y-12580367D01*
X27523258Y-12516601D01*
X27686685Y-12484093D01*
X27853315Y-12484093D01*
X28016742Y-12516601D01*
G37*
G36*
X30556742Y-12516601D02*
G01*
X30710687Y-12580367D01*
X30849234Y-12672941D01*
X30967059Y-12790766D01*
X31059633Y-12929313D01*
X31123399Y-13083258D01*
X31155907Y-13246685D01*
X31155907Y-13413315D01*
X31123399Y-13576742D01*
X31059633Y-13730687D01*
X30967059Y-13869234D01*
X30849234Y-13987059D01*
X30710687Y-14079633D01*
X30556742Y-14143399D01*
X30393315Y-14175907D01*
X30226685Y-14175907D01*
X30063258Y-14143399D01*
X29909313Y-14079633D01*
X29770766Y-13987059D01*
X29652941Y-13869234D01*
X29560367Y-13730687D01*
X29496601Y-13576742D01*
X29464093Y-13413315D01*
X29464093Y-13246685D01*
X29496601Y-13083258D01*
X29560367Y-12929313D01*
X29652941Y-12790766D01*
X29770766Y-12672941D01*
X29909313Y-12580367D01*
X30063258Y-12516601D01*
X30226685Y-12484093D01*
X30393315Y-12484093D01*
X30556742Y-12516601D01*
G37*
G36*
X33096742Y-12516601D02*
G01*
X33250687Y-12580367D01*
X33389234Y-12672941D01*
X33507059Y-12790766D01*
X33599633Y-12929313D01*
X33663399Y-13083258D01*
X33695907Y-13246685D01*
X33695907Y-13413315D01*
X33663399Y-13576742D01*
X33599633Y-13730687D01*
X33507059Y-13869234D01*
X33389234Y-13987059D01*
X33250687Y-14079633D01*
X33096742Y-14143399D01*
X32933315Y-14175907D01*
X32766685Y-14175907D01*
X32603258Y-14143399D01*
X32449313Y-14079633D01*
X32310766Y-13987059D01*
X32192941Y-13869234D01*
X32100367Y-13730687D01*
X32036601Y-13576742D01*
X32004093Y-13413315D01*
X32004093Y-13246685D01*
X32036601Y-13083258D01*
X32100367Y-12929313D01*
X32192941Y-12790766D01*
X32310766Y-12672941D01*
X32449313Y-12580367D01*
X32603258Y-12516601D01*
X32766685Y-12484093D01*
X32933315Y-12484093D01*
X33096742Y-12516601D01*
G37*
G36*
X35636742Y-12516601D02*
G01*
X35790687Y-12580367D01*
X35929234Y-12672941D01*
X36047059Y-12790766D01*
X36139633Y-12929313D01*
X36203399Y-13083258D01*
X36235907Y-13246685D01*
X36235907Y-13413315D01*
X36203399Y-13576742D01*
X36139633Y-13730687D01*
X36047059Y-13869234D01*
X35929234Y-13987059D01*
X35790687Y-14079633D01*
X35636742Y-14143399D01*
X35473315Y-14175907D01*
X35306685Y-14175907D01*
X35143258Y-14143399D01*
X34989313Y-14079633D01*
X34850766Y-13987059D01*
X34732941Y-13869234D01*
X34640367Y-13730687D01*
X34576601Y-13576742D01*
X34544093Y-13413315D01*
X34544093Y-13246685D01*
X34576601Y-13083258D01*
X34640367Y-12929313D01*
X34732941Y-12790766D01*
X34850766Y-12672941D01*
X34989313Y-12580367D01*
X35143258Y-12516601D01*
X35306685Y-12484093D01*
X35473315Y-12484093D01*
X35636742Y-12516601D01*
G37*
G36*
X38176742Y-12516601D02*
G01*
X38330687Y-12580367D01*
X38469234Y-12672941D01*
X38587059Y-12790766D01*
X38679633Y-12929313D01*
X38743399Y-13083258D01*
X38775907Y-13246685D01*
X38775907Y-13413315D01*
X38743399Y-13576742D01*
X38679633Y-13730687D01*
X38587059Y-13869234D01*
X38469234Y-13987059D01*
X38330687Y-14079633D01*
X38176742Y-14143399D01*
X38013315Y-14175907D01*
X37846685Y-14175907D01*
X37683258Y-14143399D01*
X37529313Y-14079633D01*
X37390766Y-13987059D01*
X37272941Y-13869234D01*
X37180367Y-13730687D01*
X37116601Y-13576742D01*
X37084093Y-13413315D01*
X37084093Y-13246685D01*
X37116601Y-13083258D01*
X37180367Y-12929313D01*
X37272941Y-12790766D01*
X37390766Y-12672941D01*
X37529313Y-12580367D01*
X37683258Y-12516601D01*
X37846685Y-12484093D01*
X38013315Y-12484093D01*
X38176742Y-12516601D01*
G37*
G36*
X71356742Y-12516601D02*
G01*
X71510687Y-12580367D01*
X71649234Y-12672941D01*
X71767059Y-12790766D01*
X71859633Y-12929313D01*
X71923399Y-13083258D01*
X71955907Y-13246685D01*
X71955907Y-13413315D01*
X71923399Y-13576742D01*
X71859633Y-13730687D01*
X71767059Y-13869234D01*
X71649234Y-13987059D01*
X71510687Y-14079633D01*
X71356742Y-14143399D01*
X71193315Y-14175907D01*
X71026685Y-14175907D01*
X70863258Y-14143399D01*
X70709313Y-14079633D01*
X70570766Y-13987059D01*
X70452941Y-13869234D01*
X70360367Y-13730687D01*
X70296601Y-13576742D01*
X70264093Y-13413315D01*
X70264093Y-13246685D01*
X70296601Y-13083258D01*
X70360367Y-12929313D01*
X70452941Y-12790766D01*
X70570766Y-12672941D01*
X70709313Y-12580367D01*
X70863258Y-12516601D01*
X71026685Y-12484093D01*
X71193315Y-12484093D01*
X71356742Y-12516601D01*
G37*
G36*
X73896742Y-12516601D02*
G01*
X74050687Y-12580367D01*
X74189234Y-12672941D01*
X74307059Y-12790766D01*
X74399633Y-12929313D01*
X74463399Y-13083258D01*
X74495907Y-13246685D01*
X74495907Y-13413315D01*
X74463399Y-13576742D01*
X74399633Y-13730687D01*
X74307059Y-13869234D01*
X74189234Y-13987059D01*
X74050687Y-14079633D01*
X73896742Y-14143399D01*
X73733315Y-14175907D01*
X73566685Y-14175907D01*
X73403258Y-14143399D01*
X73249313Y-14079633D01*
X73110766Y-13987059D01*
X72992941Y-13869234D01*
X72900367Y-13730687D01*
X72836601Y-13576742D01*
X72804093Y-13413315D01*
X72804093Y-13246685D01*
X72836601Y-13083258D01*
X72900367Y-12929313D01*
X72992941Y-12790766D01*
X73110766Y-12672941D01*
X73249313Y-12580367D01*
X73403258Y-12516601D01*
X73566685Y-12484093D01*
X73733315Y-12484093D01*
X73896742Y-12516601D01*
G37*
G36*
X76436742Y-12516601D02*
G01*
X76590687Y-12580367D01*
X76729234Y-12672941D01*
X76847059Y-12790766D01*
X76939633Y-12929313D01*
X77003399Y-13083258D01*
X77035907Y-13246685D01*
X77035907Y-13413315D01*
X77003399Y-13576742D01*
X76939633Y-13730687D01*
X76847059Y-13869234D01*
X76729234Y-13987059D01*
X76590687Y-14079633D01*
X76436742Y-14143399D01*
X76273315Y-14175907D01*
X76106685Y-14175907D01*
X75943258Y-14143399D01*
X75789313Y-14079633D01*
X75650766Y-13987059D01*
X75532941Y-13869234D01*
X75440367Y-13730687D01*
X75376601Y-13576742D01*
X75344093Y-13413315D01*
X75344093Y-13246685D01*
X75376601Y-13083258D01*
X75440367Y-12929313D01*
X75532941Y-12790766D01*
X75650766Y-12672941D01*
X75789313Y-12580367D01*
X75943258Y-12516601D01*
X76106685Y-12484093D01*
X76273315Y-12484093D01*
X76436742Y-12516601D01*
G37*
G36*
X78976742Y-12516601D02*
G01*
X79130687Y-12580367D01*
X79269234Y-12672941D01*
X79387059Y-12790766D01*
X79479633Y-12929313D01*
X79543399Y-13083258D01*
X79575907Y-13246685D01*
X79575907Y-13413315D01*
X79543399Y-13576742D01*
X79479633Y-13730687D01*
X79387059Y-13869234D01*
X79269234Y-13987059D01*
X79130687Y-14079633D01*
X78976742Y-14143399D01*
X78813315Y-14175907D01*
X78646685Y-14175907D01*
X78483258Y-14143399D01*
X78329313Y-14079633D01*
X78190766Y-13987059D01*
X78072941Y-13869234D01*
X77980367Y-13730687D01*
X77916601Y-13576742D01*
X77884093Y-13413315D01*
X77884093Y-13246685D01*
X77916601Y-13083258D01*
X77980367Y-12929313D01*
X78072941Y-12790766D01*
X78190766Y-12672941D01*
X78329313Y-12580367D01*
X78483258Y-12516601D01*
X78646685Y-12484093D01*
X78813315Y-12484093D01*
X78976742Y-12516601D01*
G37*
G36*
X81516742Y-12516601D02*
G01*
X81670687Y-12580367D01*
X81809234Y-12672941D01*
X81927059Y-12790766D01*
X82019633Y-12929313D01*
X82083399Y-13083258D01*
X82115907Y-13246685D01*
X82115907Y-13413315D01*
X82083399Y-13576742D01*
X82019633Y-13730687D01*
X81927059Y-13869234D01*
X81809234Y-13987059D01*
X81670687Y-14079633D01*
X81516742Y-14143399D01*
X81353315Y-14175907D01*
X81186685Y-14175907D01*
X81023258Y-14143399D01*
X80869313Y-14079633D01*
X80730766Y-13987059D01*
X80612941Y-13869234D01*
X80520367Y-13730687D01*
X80456601Y-13576742D01*
X80424093Y-13413315D01*
X80424093Y-13246685D01*
X80456601Y-13083258D01*
X80520367Y-12929313D01*
X80612941Y-12790766D01*
X80730766Y-12672941D01*
X80869313Y-12580367D01*
X81023258Y-12516601D01*
X81186685Y-12484093D01*
X81353315Y-12484093D01*
X81516742Y-12516601D01*
G37*
G36*
X84056742Y-12516601D02*
G01*
X84210687Y-12580367D01*
X84349234Y-12672941D01*
X84467059Y-12790766D01*
X84559633Y-12929313D01*
X84623399Y-13083258D01*
X84655907Y-13246685D01*
X84655907Y-13413315D01*
X84623399Y-13576742D01*
X84559633Y-13730687D01*
X84467059Y-13869234D01*
X84349234Y-13987059D01*
X84210687Y-14079633D01*
X84056742Y-14143399D01*
X83893315Y-14175907D01*
X83726685Y-14175907D01*
X83563258Y-14143399D01*
X83409313Y-14079633D01*
X83270766Y-13987059D01*
X83152941Y-13869234D01*
X83060367Y-13730687D01*
X82996601Y-13576742D01*
X82964093Y-13413315D01*
X82964093Y-13246685D01*
X82996601Y-13083258D01*
X83060367Y-12929313D01*
X83152941Y-12790766D01*
X83270766Y-12672941D01*
X83409313Y-12580367D01*
X83563258Y-12516601D01*
X83726685Y-12484093D01*
X83893315Y-12484093D01*
X84056742Y-12516601D01*
G37*
G36*
X86596742Y-12516601D02*
G01*
X86750687Y-12580367D01*
X86889234Y-12672941D01*
X87007059Y-12790766D01*
X87099633Y-12929313D01*
X87163399Y-13083258D01*
X87195907Y-13246685D01*
X87195907Y-13413315D01*
X87163399Y-13576742D01*
X87099633Y-13730687D01*
X87007059Y-13869234D01*
X86889234Y-13987059D01*
X86750687Y-14079633D01*
X86596742Y-14143399D01*
X86433315Y-14175907D01*
X86266685Y-14175907D01*
X86103258Y-14143399D01*
X85949313Y-14079633D01*
X85810766Y-13987059D01*
X85692941Y-13869234D01*
X85600367Y-13730687D01*
X85536601Y-13576742D01*
X85504093Y-13413315D01*
X85504093Y-13246685D01*
X85536601Y-13083258D01*
X85600367Y-12929313D01*
X85692941Y-12790766D01*
X85810766Y-12672941D01*
X85949313Y-12580367D01*
X86103258Y-12516601D01*
X86266685Y-12484093D01*
X86433315Y-12484093D01*
X86596742Y-12516601D01*
G37*
G36*
X89136742Y-12516601D02*
G01*
X89290687Y-12580367D01*
X89429234Y-12672941D01*
X89547059Y-12790766D01*
X89639633Y-12929313D01*
X89703399Y-13083258D01*
X89735907Y-13246685D01*
X89735907Y-13413315D01*
X89703399Y-13576742D01*
X89639633Y-13730687D01*
X89547059Y-13869234D01*
X89429234Y-13987059D01*
X89290687Y-14079633D01*
X89136742Y-14143399D01*
X88973315Y-14175907D01*
X88806685Y-14175907D01*
X88643258Y-14143399D01*
X88489313Y-14079633D01*
X88350766Y-13987059D01*
X88232941Y-13869234D01*
X88140367Y-13730687D01*
X88076601Y-13576742D01*
X88044093Y-13413315D01*
X88044093Y-13246685D01*
X88076601Y-13083258D01*
X88140367Y-12929313D01*
X88232941Y-12790766D01*
X88350766Y-12672941D01*
X88489313Y-12580367D01*
X88643258Y-12516601D01*
X88806685Y-12484093D01*
X88973315Y-12484093D01*
X89136742Y-12516601D01*
G37*
G36*
X91676742Y-12516601D02*
G01*
X91830687Y-12580367D01*
X91969234Y-12672941D01*
X92087059Y-12790766D01*
X92179633Y-12929313D01*
X92243399Y-13083258D01*
X92275907Y-13246685D01*
X92275907Y-13413315D01*
X92243399Y-13576742D01*
X92179633Y-13730687D01*
X92087059Y-13869234D01*
X91969234Y-13987059D01*
X91830687Y-14079633D01*
X91676742Y-14143399D01*
X91513315Y-14175907D01*
X91346685Y-14175907D01*
X91183258Y-14143399D01*
X91029313Y-14079633D01*
X90890766Y-13987059D01*
X90772941Y-13869234D01*
X90680367Y-13730687D01*
X90616601Y-13576742D01*
X90584093Y-13413315D01*
X90584093Y-13246685D01*
X90616601Y-13083258D01*
X90680367Y-12929313D01*
X90772941Y-12790766D01*
X90890766Y-12672941D01*
X91029313Y-12580367D01*
X91183258Y-12516601D01*
X91346685Y-12484093D01*
X91513315Y-12484093D01*
X91676742Y-12516601D01*
G37*
G36*
X124856742Y-12516601D02*
G01*
X125010687Y-12580367D01*
X125149234Y-12672941D01*
X125267059Y-12790766D01*
X125359633Y-12929313D01*
X125423399Y-13083258D01*
X125455907Y-13246685D01*
X125455907Y-13413315D01*
X125423399Y-13576742D01*
X125359633Y-13730687D01*
X125267059Y-13869234D01*
X125149234Y-13987059D01*
X125010687Y-14079633D01*
X124856742Y-14143399D01*
X124693315Y-14175907D01*
X124526685Y-14175907D01*
X124363258Y-14143399D01*
X124209313Y-14079633D01*
X124070766Y-13987059D01*
X123952941Y-13869234D01*
X123860367Y-13730687D01*
X123796601Y-13576742D01*
X123764093Y-13413315D01*
X123764093Y-13246685D01*
X123796601Y-13083258D01*
X123860367Y-12929313D01*
X123952941Y-12790766D01*
X124070766Y-12672941D01*
X124209313Y-12580367D01*
X124363258Y-12516601D01*
X124526685Y-12484093D01*
X124693315Y-12484093D01*
X124856742Y-12516601D01*
G37*
G36*
X127396742Y-12516601D02*
G01*
X127550687Y-12580367D01*
X127689234Y-12672941D01*
X127807059Y-12790766D01*
X127899633Y-12929313D01*
X127963399Y-13083258D01*
X127995907Y-13246685D01*
X127995907Y-13413315D01*
X127963399Y-13576742D01*
X127899633Y-13730687D01*
X127807059Y-13869234D01*
X127689234Y-13987059D01*
X127550687Y-14079633D01*
X127396742Y-14143399D01*
X127233315Y-14175907D01*
X127066685Y-14175907D01*
X126903258Y-14143399D01*
X126749313Y-14079633D01*
X126610766Y-13987059D01*
X126492941Y-13869234D01*
X126400367Y-13730687D01*
X126336601Y-13576742D01*
X126304093Y-13413315D01*
X126304093Y-13246685D01*
X126336601Y-13083258D01*
X126400367Y-12929313D01*
X126492941Y-12790766D01*
X126610766Y-12672941D01*
X126749313Y-12580367D01*
X126903258Y-12516601D01*
X127066685Y-12484093D01*
X127233315Y-12484093D01*
X127396742Y-12516601D01*
G37*
G36*
X129936742Y-12516601D02*
G01*
X130090687Y-12580367D01*
X130229234Y-12672941D01*
X130347059Y-12790766D01*
X130439633Y-12929313D01*
X130503399Y-13083258D01*
X130535907Y-13246685D01*
X130535907Y-13413315D01*
X130503399Y-13576742D01*
X130439633Y-13730687D01*
X130347059Y-13869234D01*
X130229234Y-13987059D01*
X130090687Y-14079633D01*
X129936742Y-14143399D01*
X129773315Y-14175907D01*
X129606685Y-14175907D01*
X129443258Y-14143399D01*
X129289313Y-14079633D01*
X129150766Y-13987059D01*
X129032941Y-13869234D01*
X128940367Y-13730687D01*
X128876601Y-13576742D01*
X128844093Y-13413315D01*
X128844093Y-13246685D01*
X128876601Y-13083258D01*
X128940367Y-12929313D01*
X129032941Y-12790766D01*
X129150766Y-12672941D01*
X129289313Y-12580367D01*
X129443258Y-12516601D01*
X129606685Y-12484093D01*
X129773315Y-12484093D01*
X129936742Y-12516601D01*
G37*
G36*
X132476742Y-12516601D02*
G01*
X132630687Y-12580367D01*
X132769234Y-12672941D01*
X132887059Y-12790766D01*
X132979633Y-12929313D01*
X133043399Y-13083258D01*
X133075907Y-13246685D01*
X133075907Y-13413315D01*
X133043399Y-13576742D01*
X132979633Y-13730687D01*
X132887059Y-13869234D01*
X132769234Y-13987059D01*
X132630687Y-14079633D01*
X132476742Y-14143399D01*
X132313315Y-14175907D01*
X132146685Y-14175907D01*
X131983258Y-14143399D01*
X131829313Y-14079633D01*
X131690766Y-13987059D01*
X131572941Y-13869234D01*
X131480367Y-13730687D01*
X131416601Y-13576742D01*
X131384093Y-13413315D01*
X131384093Y-13246685D01*
X131416601Y-13083258D01*
X131480367Y-12929313D01*
X131572941Y-12790766D01*
X131690766Y-12672941D01*
X131829313Y-12580367D01*
X131983258Y-12516601D01*
X132146685Y-12484093D01*
X132313315Y-12484093D01*
X132476742Y-12516601D01*
G37*
G36*
X135016742Y-12516601D02*
G01*
X135170687Y-12580367D01*
X135309234Y-12672941D01*
X135427059Y-12790766D01*
X135519633Y-12929313D01*
X135583399Y-13083258D01*
X135615907Y-13246685D01*
X135615907Y-13413315D01*
X135583399Y-13576742D01*
X135519633Y-13730687D01*
X135427059Y-13869234D01*
X135309234Y-13987059D01*
X135170687Y-14079633D01*
X135016742Y-14143399D01*
X134853315Y-14175907D01*
X134686685Y-14175907D01*
X134523258Y-14143399D01*
X134369313Y-14079633D01*
X134230766Y-13987059D01*
X134112941Y-13869234D01*
X134020367Y-13730687D01*
X133956601Y-13576742D01*
X133924093Y-13413315D01*
X133924093Y-13246685D01*
X133956601Y-13083258D01*
X134020367Y-12929313D01*
X134112941Y-12790766D01*
X134230766Y-12672941D01*
X134369313Y-12580367D01*
X134523258Y-12516601D01*
X134686685Y-12484093D01*
X134853315Y-12484093D01*
X135016742Y-12516601D01*
G37*
G36*
X137556742Y-12516601D02*
G01*
X137710687Y-12580367D01*
X137849234Y-12672941D01*
X137967059Y-12790766D01*
X138059633Y-12929313D01*
X138123399Y-13083258D01*
X138155907Y-13246685D01*
X138155907Y-13413315D01*
X138123399Y-13576742D01*
X138059633Y-13730687D01*
X137967059Y-13869234D01*
X137849234Y-13987059D01*
X137710687Y-14079633D01*
X137556742Y-14143399D01*
X137393315Y-14175907D01*
X137226685Y-14175907D01*
X137063258Y-14143399D01*
X136909313Y-14079633D01*
X136770766Y-13987059D01*
X136652941Y-13869234D01*
X136560367Y-13730687D01*
X136496601Y-13576742D01*
X136464093Y-13413315D01*
X136464093Y-13246685D01*
X136496601Y-13083258D01*
X136560367Y-12929313D01*
X136652941Y-12790766D01*
X136770766Y-12672941D01*
X136909313Y-12580367D01*
X137063258Y-12516601D01*
X137226685Y-12484093D01*
X137393315Y-12484093D01*
X137556742Y-12516601D01*
G37*
G36*
X140096742Y-12516601D02*
G01*
X140250687Y-12580367D01*
X140389234Y-12672941D01*
X140507059Y-12790766D01*
X140599633Y-12929313D01*
X140663399Y-13083258D01*
X140695907Y-13246685D01*
X140695907Y-13413315D01*
X140663399Y-13576742D01*
X140599633Y-13730687D01*
X140507059Y-13869234D01*
X140389234Y-13987059D01*
X140250687Y-14079633D01*
X140096742Y-14143399D01*
X139933315Y-14175907D01*
X139766685Y-14175907D01*
X139603258Y-14143399D01*
X139449313Y-14079633D01*
X139310766Y-13987059D01*
X139192941Y-13869234D01*
X139100367Y-13730687D01*
X139036601Y-13576742D01*
X139004093Y-13413315D01*
X139004093Y-13246685D01*
X139036601Y-13083258D01*
X139100367Y-12929313D01*
X139192941Y-12790766D01*
X139310766Y-12672941D01*
X139449313Y-12580367D01*
X139603258Y-12516601D01*
X139766685Y-12484093D01*
X139933315Y-12484093D01*
X140096742Y-12516601D01*
G37*
G36*
X142636742Y-12516601D02*
G01*
X142790687Y-12580367D01*
X142929234Y-12672941D01*
X143047059Y-12790766D01*
X143139633Y-12929313D01*
X143203399Y-13083258D01*
X143235907Y-13246685D01*
X143235907Y-13413315D01*
X143203399Y-13576742D01*
X143139633Y-13730687D01*
X143047059Y-13869234D01*
X142929234Y-13987059D01*
X142790687Y-14079633D01*
X142636742Y-14143399D01*
X142473315Y-14175907D01*
X142306685Y-14175907D01*
X142143258Y-14143399D01*
X141989313Y-14079633D01*
X141850766Y-13987059D01*
X141732941Y-13869234D01*
X141640367Y-13730687D01*
X141576601Y-13576742D01*
X141544093Y-13413315D01*
X141544093Y-13246685D01*
X141576601Y-13083258D01*
X141640367Y-12929313D01*
X141732941Y-12790766D01*
X141850766Y-12672941D01*
X141989313Y-12580367D01*
X142143258Y-12516601D01*
X142306685Y-12484093D01*
X142473315Y-12484093D01*
X142636742Y-12516601D01*
G37*
G36*
X145176742Y-12516601D02*
G01*
X145330687Y-12580367D01*
X145469234Y-12672941D01*
X145587059Y-12790766D01*
X145679633Y-12929313D01*
X145743399Y-13083258D01*
X145775907Y-13246685D01*
X145775907Y-13413315D01*
X145743399Y-13576742D01*
X145679633Y-13730687D01*
X145587059Y-13869234D01*
X145469234Y-13987059D01*
X145330687Y-14079633D01*
X145176742Y-14143399D01*
X145013315Y-14175907D01*
X144846685Y-14175907D01*
X144683258Y-14143399D01*
X144529313Y-14079633D01*
X144390766Y-13987059D01*
X144272941Y-13869234D01*
X144180367Y-13730687D01*
X144116601Y-13576742D01*
X144084093Y-13413315D01*
X144084093Y-13246685D01*
X144116601Y-13083258D01*
X144180367Y-12929313D01*
X144272941Y-12790766D01*
X144390766Y-12672941D01*
X144529313Y-12580367D01*
X144683258Y-12516601D01*
X144846685Y-12484093D01*
X145013315Y-12484093D01*
X145176742Y-12516601D01*
G37*
G36*
X15316742Y-9976601D02*
G01*
X15470687Y-10040367D01*
X15609234Y-10132941D01*
X15727059Y-10250766D01*
X15819633Y-10389313D01*
X15883399Y-10543258D01*
X15915907Y-10706685D01*
X15915907Y-10873315D01*
X15883399Y-11036742D01*
X15819633Y-11190687D01*
X15727059Y-11329234D01*
X15609234Y-11447059D01*
X15470687Y-11539633D01*
X15316742Y-11603399D01*
X15153315Y-11635907D01*
X14986685Y-11635907D01*
X14823258Y-11603399D01*
X14669313Y-11539633D01*
X14530766Y-11447059D01*
X14412941Y-11329234D01*
X14320367Y-11190687D01*
X14256601Y-11036742D01*
X14224093Y-10873315D01*
X14224093Y-10706685D01*
X14256601Y-10543258D01*
X14320367Y-10389313D01*
X14412941Y-10250766D01*
X14530766Y-10132941D01*
X14669313Y-10040367D01*
X14823258Y-9976601D01*
X14986685Y-9944093D01*
X15153315Y-9944093D01*
X15316742Y-9976601D01*
G37*
G36*
X17856742Y-9976601D02*
G01*
X18010687Y-10040367D01*
X18149234Y-10132941D01*
X18267059Y-10250766D01*
X18359633Y-10389313D01*
X18423399Y-10543258D01*
X18455907Y-10706685D01*
X18455907Y-10873315D01*
X18423399Y-11036742D01*
X18359633Y-11190687D01*
X18267059Y-11329234D01*
X18149234Y-11447059D01*
X18010687Y-11539633D01*
X17856742Y-11603399D01*
X17693315Y-11635907D01*
X17526685Y-11635907D01*
X17363258Y-11603399D01*
X17209313Y-11539633D01*
X17070766Y-11447059D01*
X16952941Y-11329234D01*
X16860367Y-11190687D01*
X16796601Y-11036742D01*
X16764093Y-10873315D01*
X16764093Y-10706685D01*
X16796601Y-10543258D01*
X16860367Y-10389313D01*
X16952941Y-10250766D01*
X17070766Y-10132941D01*
X17209313Y-10040367D01*
X17363258Y-9976601D01*
X17526685Y-9944093D01*
X17693315Y-9944093D01*
X17856742Y-9976601D01*
G37*
G36*
X20396742Y-9976601D02*
G01*
X20550687Y-10040367D01*
X20689234Y-10132941D01*
X20807059Y-10250766D01*
X20899633Y-10389313D01*
X20963399Y-10543258D01*
X20995907Y-10706685D01*
X20995907Y-10873315D01*
X20963399Y-11036742D01*
X20899633Y-11190687D01*
X20807059Y-11329234D01*
X20689234Y-11447059D01*
X20550687Y-11539633D01*
X20396742Y-11603399D01*
X20233315Y-11635907D01*
X20066685Y-11635907D01*
X19903258Y-11603399D01*
X19749313Y-11539633D01*
X19610766Y-11447059D01*
X19492941Y-11329234D01*
X19400367Y-11190687D01*
X19336601Y-11036742D01*
X19304093Y-10873315D01*
X19304093Y-10706685D01*
X19336601Y-10543258D01*
X19400367Y-10389313D01*
X19492941Y-10250766D01*
X19610766Y-10132941D01*
X19749313Y-10040367D01*
X19903258Y-9976601D01*
X20066685Y-9944093D01*
X20233315Y-9944093D01*
X20396742Y-9976601D01*
G37*
G36*
X22936742Y-9976601D02*
G01*
X23090687Y-10040367D01*
X23229234Y-10132941D01*
X23347059Y-10250766D01*
X23439633Y-10389313D01*
X23503399Y-10543258D01*
X23535907Y-10706685D01*
X23535907Y-10873315D01*
X23503399Y-11036742D01*
X23439633Y-11190687D01*
X23347059Y-11329234D01*
X23229234Y-11447059D01*
X23090687Y-11539633D01*
X22936742Y-11603399D01*
X22773315Y-11635907D01*
X22606685Y-11635907D01*
X22443258Y-11603399D01*
X22289313Y-11539633D01*
X22150766Y-11447059D01*
X22032941Y-11329234D01*
X21940367Y-11190687D01*
X21876601Y-11036742D01*
X21844093Y-10873315D01*
X21844093Y-10706685D01*
X21876601Y-10543258D01*
X21940367Y-10389313D01*
X22032941Y-10250766D01*
X22150766Y-10132941D01*
X22289313Y-10040367D01*
X22443258Y-9976601D01*
X22606685Y-9944093D01*
X22773315Y-9944093D01*
X22936742Y-9976601D01*
G37*
G36*
X25476742Y-9976601D02*
G01*
X25630687Y-10040367D01*
X25769234Y-10132941D01*
X25887059Y-10250766D01*
X25979633Y-10389313D01*
X26043399Y-10543258D01*
X26075907Y-10706685D01*
X26075907Y-10873315D01*
X26043399Y-11036742D01*
X25979633Y-11190687D01*
X25887059Y-11329234D01*
X25769234Y-11447059D01*
X25630687Y-11539633D01*
X25476742Y-11603399D01*
X25313315Y-11635907D01*
X25146685Y-11635907D01*
X24983258Y-11603399D01*
X24829313Y-11539633D01*
X24690766Y-11447059D01*
X24572941Y-11329234D01*
X24480367Y-11190687D01*
X24416601Y-11036742D01*
X24384093Y-10873315D01*
X24384093Y-10706685D01*
X24416601Y-10543258D01*
X24480367Y-10389313D01*
X24572941Y-10250766D01*
X24690766Y-10132941D01*
X24829313Y-10040367D01*
X24983258Y-9976601D01*
X25146685Y-9944093D01*
X25313315Y-9944093D01*
X25476742Y-9976601D01*
G37*
G36*
X28016742Y-9976601D02*
G01*
X28170687Y-10040367D01*
X28309234Y-10132941D01*
X28427059Y-10250766D01*
X28519633Y-10389313D01*
X28583399Y-10543258D01*
X28615907Y-10706685D01*
X28615907Y-10873315D01*
X28583399Y-11036742D01*
X28519633Y-11190687D01*
X28427059Y-11329234D01*
X28309234Y-11447059D01*
X28170687Y-11539633D01*
X28016742Y-11603399D01*
X27853315Y-11635907D01*
X27686685Y-11635907D01*
X27523258Y-11603399D01*
X27369313Y-11539633D01*
X27230766Y-11447059D01*
X27112941Y-11329234D01*
X27020367Y-11190687D01*
X26956601Y-11036742D01*
X26924093Y-10873315D01*
X26924093Y-10706685D01*
X26956601Y-10543258D01*
X27020367Y-10389313D01*
X27112941Y-10250766D01*
X27230766Y-10132941D01*
X27369313Y-10040367D01*
X27523258Y-9976601D01*
X27686685Y-9944093D01*
X27853315Y-9944093D01*
X28016742Y-9976601D01*
G37*
G36*
X30556742Y-9976601D02*
G01*
X30710687Y-10040367D01*
X30849234Y-10132941D01*
X30967059Y-10250766D01*
X31059633Y-10389313D01*
X31123399Y-10543258D01*
X31155907Y-10706685D01*
X31155907Y-10873315D01*
X31123399Y-11036742D01*
X31059633Y-11190687D01*
X30967059Y-11329234D01*
X30849234Y-11447059D01*
X30710687Y-11539633D01*
X30556742Y-11603399D01*
X30393315Y-11635907D01*
X30226685Y-11635907D01*
X30063258Y-11603399D01*
X29909313Y-11539633D01*
X29770766Y-11447059D01*
X29652941Y-11329234D01*
X29560367Y-11190687D01*
X29496601Y-11036742D01*
X29464093Y-10873315D01*
X29464093Y-10706685D01*
X29496601Y-10543258D01*
X29560367Y-10389313D01*
X29652941Y-10250766D01*
X29770766Y-10132941D01*
X29909313Y-10040367D01*
X30063258Y-9976601D01*
X30226685Y-9944093D01*
X30393315Y-9944093D01*
X30556742Y-9976601D01*
G37*
G36*
X33096742Y-9976601D02*
G01*
X33250687Y-10040367D01*
X33389234Y-10132941D01*
X33507059Y-10250766D01*
X33599633Y-10389313D01*
X33663399Y-10543258D01*
X33695907Y-10706685D01*
X33695907Y-10873315D01*
X33663399Y-11036742D01*
X33599633Y-11190687D01*
X33507059Y-11329234D01*
X33389234Y-11447059D01*
X33250687Y-11539633D01*
X33096742Y-11603399D01*
X32933315Y-11635907D01*
X32766685Y-11635907D01*
X32603258Y-11603399D01*
X32449313Y-11539633D01*
X32310766Y-11447059D01*
X32192941Y-11329234D01*
X32100367Y-11190687D01*
X32036601Y-11036742D01*
X32004093Y-10873315D01*
X32004093Y-10706685D01*
X32036601Y-10543258D01*
X32100367Y-10389313D01*
X32192941Y-10250766D01*
X32310766Y-10132941D01*
X32449313Y-10040367D01*
X32603258Y-9976601D01*
X32766685Y-9944093D01*
X32933315Y-9944093D01*
X33096742Y-9976601D01*
G37*
G36*
X35636742Y-9976601D02*
G01*
X35790687Y-10040367D01*
X35929234Y-10132941D01*
X36047059Y-10250766D01*
X36139633Y-10389313D01*
X36203399Y-10543258D01*
X36235907Y-10706685D01*
X36235907Y-10873315D01*
X36203399Y-11036742D01*
X36139633Y-11190687D01*
X36047059Y-11329234D01*
X35929234Y-11447059D01*
X35790687Y-11539633D01*
X35636742Y-11603399D01*
X35473315Y-11635907D01*
X35306685Y-11635907D01*
X35143258Y-11603399D01*
X34989313Y-11539633D01*
X34850766Y-11447059D01*
X34732941Y-11329234D01*
X34640367Y-11190687D01*
X34576601Y-11036742D01*
X34544093Y-10873315D01*
X34544093Y-10706685D01*
X34576601Y-10543258D01*
X34640367Y-10389313D01*
X34732941Y-10250766D01*
X34850766Y-10132941D01*
X34989313Y-10040367D01*
X35143258Y-9976601D01*
X35306685Y-9944093D01*
X35473315Y-9944093D01*
X35636742Y-9976601D01*
G37*
G36*
X38176742Y-9976601D02*
G01*
X38330687Y-10040367D01*
X38469234Y-10132941D01*
X38587059Y-10250766D01*
X38679633Y-10389313D01*
X38743399Y-10543258D01*
X38775907Y-10706685D01*
X38775907Y-10873315D01*
X38743399Y-11036742D01*
X38679633Y-11190687D01*
X38587059Y-11329234D01*
X38469234Y-11447059D01*
X38330687Y-11539633D01*
X38176742Y-11603399D01*
X38013315Y-11635907D01*
X37846685Y-11635907D01*
X37683258Y-11603399D01*
X37529313Y-11539633D01*
X37390766Y-11447059D01*
X37272941Y-11329234D01*
X37180367Y-11190687D01*
X37116601Y-11036742D01*
X37084093Y-10873315D01*
X37084093Y-10706685D01*
X37116601Y-10543258D01*
X37180367Y-10389313D01*
X37272941Y-10250766D01*
X37390766Y-10132941D01*
X37529313Y-10040367D01*
X37683258Y-9976601D01*
X37846685Y-9944093D01*
X38013315Y-9944093D01*
X38176742Y-9976601D01*
G37*
G36*
X68816742Y-9976601D02*
G01*
X68970687Y-10040367D01*
X69109234Y-10132941D01*
X69227059Y-10250766D01*
X69319633Y-10389313D01*
X69383399Y-10543258D01*
X69415907Y-10706685D01*
X69415907Y-10873315D01*
X69383399Y-11036742D01*
X69319633Y-11190687D01*
X69227059Y-11329234D01*
X69109234Y-11447059D01*
X68970687Y-11539633D01*
X68816742Y-11603399D01*
X68653315Y-11635907D01*
X68486685Y-11635907D01*
X68323258Y-11603399D01*
X68169313Y-11539633D01*
X68030766Y-11447059D01*
X67912941Y-11329234D01*
X67820367Y-11190687D01*
X67756601Y-11036742D01*
X67724093Y-10873315D01*
X67724093Y-10706685D01*
X67756601Y-10543258D01*
X67820367Y-10389313D01*
X67912941Y-10250766D01*
X68030766Y-10132941D01*
X68169313Y-10040367D01*
X68323258Y-9976601D01*
X68486685Y-9944093D01*
X68653315Y-9944093D01*
X68816742Y-9976601D01*
G37*
G36*
X71356742Y-9976601D02*
G01*
X71510687Y-10040367D01*
X71649234Y-10132941D01*
X71767059Y-10250766D01*
X71859633Y-10389313D01*
X71923399Y-10543258D01*
X71955907Y-10706685D01*
X71955907Y-10873315D01*
X71923399Y-11036742D01*
X71859633Y-11190687D01*
X71767059Y-11329234D01*
X71649234Y-11447059D01*
X71510687Y-11539633D01*
X71356742Y-11603399D01*
X71193315Y-11635907D01*
X71026685Y-11635907D01*
X70863258Y-11603399D01*
X70709313Y-11539633D01*
X70570766Y-11447059D01*
X70452941Y-11329234D01*
X70360367Y-11190687D01*
X70296601Y-11036742D01*
X70264093Y-10873315D01*
X70264093Y-10706685D01*
X70296601Y-10543258D01*
X70360367Y-10389313D01*
X70452941Y-10250766D01*
X70570766Y-10132941D01*
X70709313Y-10040367D01*
X70863258Y-9976601D01*
X71026685Y-9944093D01*
X71193315Y-9944093D01*
X71356742Y-9976601D01*
G37*
G36*
X73896742Y-9976601D02*
G01*
X74050687Y-10040367D01*
X74189234Y-10132941D01*
X74307059Y-10250766D01*
X74399633Y-10389313D01*
X74463399Y-10543258D01*
X74495907Y-10706685D01*
X74495907Y-10873315D01*
X74463399Y-11036742D01*
X74399633Y-11190687D01*
X74307059Y-11329234D01*
X74189234Y-11447059D01*
X74050687Y-11539633D01*
X73896742Y-11603399D01*
X73733315Y-11635907D01*
X73566685Y-11635907D01*
X73403258Y-11603399D01*
X73249313Y-11539633D01*
X73110766Y-11447059D01*
X72992941Y-11329234D01*
X72900367Y-11190687D01*
X72836601Y-11036742D01*
X72804093Y-10873315D01*
X72804093Y-10706685D01*
X72836601Y-10543258D01*
X72900367Y-10389313D01*
X72992941Y-10250766D01*
X73110766Y-10132941D01*
X73249313Y-10040367D01*
X73403258Y-9976601D01*
X73566685Y-9944093D01*
X73733315Y-9944093D01*
X73896742Y-9976601D01*
G37*
G36*
X76436742Y-9976601D02*
G01*
X76590687Y-10040367D01*
X76729234Y-10132941D01*
X76847059Y-10250766D01*
X76939633Y-10389313D01*
X77003399Y-10543258D01*
X77035907Y-10706685D01*
X77035907Y-10873315D01*
X77003399Y-11036742D01*
X76939633Y-11190687D01*
X76847059Y-11329234D01*
X76729234Y-11447059D01*
X76590687Y-11539633D01*
X76436742Y-11603399D01*
X76273315Y-11635907D01*
X76106685Y-11635907D01*
X75943258Y-11603399D01*
X75789313Y-11539633D01*
X75650766Y-11447059D01*
X75532941Y-11329234D01*
X75440367Y-11190687D01*
X75376601Y-11036742D01*
X75344093Y-10873315D01*
X75344093Y-10706685D01*
X75376601Y-10543258D01*
X75440367Y-10389313D01*
X75532941Y-10250766D01*
X75650766Y-10132941D01*
X75789313Y-10040367D01*
X75943258Y-9976601D01*
X76106685Y-9944093D01*
X76273315Y-9944093D01*
X76436742Y-9976601D01*
G37*
G36*
X78976742Y-9976601D02*
G01*
X79130687Y-10040367D01*
X79269234Y-10132941D01*
X79387059Y-10250766D01*
X79479633Y-10389313D01*
X79543399Y-10543258D01*
X79575907Y-10706685D01*
X79575907Y-10873315D01*
X79543399Y-11036742D01*
X79479633Y-11190687D01*
X79387059Y-11329234D01*
X79269234Y-11447059D01*
X79130687Y-11539633D01*
X78976742Y-11603399D01*
X78813315Y-11635907D01*
X78646685Y-11635907D01*
X78483258Y-11603399D01*
X78329313Y-11539633D01*
X78190766Y-11447059D01*
X78072941Y-11329234D01*
X77980367Y-11190687D01*
X77916601Y-11036742D01*
X77884093Y-10873315D01*
X77884093Y-10706685D01*
X77916601Y-10543258D01*
X77980367Y-10389313D01*
X78072941Y-10250766D01*
X78190766Y-10132941D01*
X78329313Y-10040367D01*
X78483258Y-9976601D01*
X78646685Y-9944093D01*
X78813315Y-9944093D01*
X78976742Y-9976601D01*
G37*
G36*
X81516742Y-9976601D02*
G01*
X81670687Y-10040367D01*
X81809234Y-10132941D01*
X81927059Y-10250766D01*
X82019633Y-10389313D01*
X82083399Y-10543258D01*
X82115907Y-10706685D01*
X82115907Y-10873315D01*
X82083399Y-11036742D01*
X82019633Y-11190687D01*
X81927059Y-11329234D01*
X81809234Y-11447059D01*
X81670687Y-11539633D01*
X81516742Y-11603399D01*
X81353315Y-11635907D01*
X81186685Y-11635907D01*
X81023258Y-11603399D01*
X80869313Y-11539633D01*
X80730766Y-11447059D01*
X80612941Y-11329234D01*
X80520367Y-11190687D01*
X80456601Y-11036742D01*
X80424093Y-10873315D01*
X80424093Y-10706685D01*
X80456601Y-10543258D01*
X80520367Y-10389313D01*
X80612941Y-10250766D01*
X80730766Y-10132941D01*
X80869313Y-10040367D01*
X81023258Y-9976601D01*
X81186685Y-9944093D01*
X81353315Y-9944093D01*
X81516742Y-9976601D01*
G37*
G36*
X84056742Y-9976601D02*
G01*
X84210687Y-10040367D01*
X84349234Y-10132941D01*
X84467059Y-10250766D01*
X84559633Y-10389313D01*
X84623399Y-10543258D01*
X84655907Y-10706685D01*
X84655907Y-10873315D01*
X84623399Y-11036742D01*
X84559633Y-11190687D01*
X84467059Y-11329234D01*
X84349234Y-11447059D01*
X84210687Y-11539633D01*
X84056742Y-11603399D01*
X83893315Y-11635907D01*
X83726685Y-11635907D01*
X83563258Y-11603399D01*
X83409313Y-11539633D01*
X83270766Y-11447059D01*
X83152941Y-11329234D01*
X83060367Y-11190687D01*
X82996601Y-11036742D01*
X82964093Y-10873315D01*
X82964093Y-10706685D01*
X82996601Y-10543258D01*
X83060367Y-10389313D01*
X83152941Y-10250766D01*
X83270766Y-10132941D01*
X83409313Y-10040367D01*
X83563258Y-9976601D01*
X83726685Y-9944093D01*
X83893315Y-9944093D01*
X84056742Y-9976601D01*
G37*
G36*
X86596742Y-9976601D02*
G01*
X86750687Y-10040367D01*
X86889234Y-10132941D01*
X87007059Y-10250766D01*
X87099633Y-10389313D01*
X87163399Y-10543258D01*
X87195907Y-10706685D01*
X87195907Y-10873315D01*
X87163399Y-11036742D01*
X87099633Y-11190687D01*
X87007059Y-11329234D01*
X86889234Y-11447059D01*
X86750687Y-11539633D01*
X86596742Y-11603399D01*
X86433315Y-11635907D01*
X86266685Y-11635907D01*
X86103258Y-11603399D01*
X85949313Y-11539633D01*
X85810766Y-11447059D01*
X85692941Y-11329234D01*
X85600367Y-11190687D01*
X85536601Y-11036742D01*
X85504093Y-10873315D01*
X85504093Y-10706685D01*
X85536601Y-10543258D01*
X85600367Y-10389313D01*
X85692941Y-10250766D01*
X85810766Y-10132941D01*
X85949313Y-10040367D01*
X86103258Y-9976601D01*
X86266685Y-9944093D01*
X86433315Y-9944093D01*
X86596742Y-9976601D01*
G37*
G36*
X89136742Y-9976601D02*
G01*
X89290687Y-10040367D01*
X89429234Y-10132941D01*
X89547059Y-10250766D01*
X89639633Y-10389313D01*
X89703399Y-10543258D01*
X89735907Y-10706685D01*
X89735907Y-10873315D01*
X89703399Y-11036742D01*
X89639633Y-11190687D01*
X89547059Y-11329234D01*
X89429234Y-11447059D01*
X89290687Y-11539633D01*
X89136742Y-11603399D01*
X88973315Y-11635907D01*
X88806685Y-11635907D01*
X88643258Y-11603399D01*
X88489313Y-11539633D01*
X88350766Y-11447059D01*
X88232941Y-11329234D01*
X88140367Y-11190687D01*
X88076601Y-11036742D01*
X88044093Y-10873315D01*
X88044093Y-10706685D01*
X88076601Y-10543258D01*
X88140367Y-10389313D01*
X88232941Y-10250766D01*
X88350766Y-10132941D01*
X88489313Y-10040367D01*
X88643258Y-9976601D01*
X88806685Y-9944093D01*
X88973315Y-9944093D01*
X89136742Y-9976601D01*
G37*
G36*
X91676742Y-9976601D02*
G01*
X91830687Y-10040367D01*
X91969234Y-10132941D01*
X92087059Y-10250766D01*
X92179633Y-10389313D01*
X92243399Y-10543258D01*
X92275907Y-10706685D01*
X92275907Y-10873315D01*
X92243399Y-11036742D01*
X92179633Y-11190687D01*
X92087059Y-11329234D01*
X91969234Y-11447059D01*
X91830687Y-11539633D01*
X91676742Y-11603399D01*
X91513315Y-11635907D01*
X91346685Y-11635907D01*
X91183258Y-11603399D01*
X91029313Y-11539633D01*
X90890766Y-11447059D01*
X90772941Y-11329234D01*
X90680367Y-11190687D01*
X90616601Y-11036742D01*
X90584093Y-10873315D01*
X90584093Y-10706685D01*
X90616601Y-10543258D01*
X90680367Y-10389313D01*
X90772941Y-10250766D01*
X90890766Y-10132941D01*
X91029313Y-10040367D01*
X91183258Y-9976601D01*
X91346685Y-9944093D01*
X91513315Y-9944093D01*
X91676742Y-9976601D01*
G37*
G36*
X122316742Y-9976601D02*
G01*
X122470687Y-10040367D01*
X122609234Y-10132941D01*
X122727059Y-10250766D01*
X122819633Y-10389313D01*
X122883399Y-10543258D01*
X122915907Y-10706685D01*
X122915907Y-10873315D01*
X122883399Y-11036742D01*
X122819633Y-11190687D01*
X122727059Y-11329234D01*
X122609234Y-11447059D01*
X122470687Y-11539633D01*
X122316742Y-11603399D01*
X122153315Y-11635907D01*
X121986685Y-11635907D01*
X121823258Y-11603399D01*
X121669313Y-11539633D01*
X121530766Y-11447059D01*
X121412941Y-11329234D01*
X121320367Y-11190687D01*
X121256601Y-11036742D01*
X121224093Y-10873315D01*
X121224093Y-10706685D01*
X121256601Y-10543258D01*
X121320367Y-10389313D01*
X121412941Y-10250766D01*
X121530766Y-10132941D01*
X121669313Y-10040367D01*
X121823258Y-9976601D01*
X121986685Y-9944093D01*
X122153315Y-9944093D01*
X122316742Y-9976601D01*
G37*
G36*
X124856742Y-9976601D02*
G01*
X125010687Y-10040367D01*
X125149234Y-10132941D01*
X125267059Y-10250766D01*
X125359633Y-10389313D01*
X125423399Y-10543258D01*
X125455907Y-10706685D01*
X125455907Y-10873315D01*
X125423399Y-11036742D01*
X125359633Y-11190687D01*
X125267059Y-11329234D01*
X125149234Y-11447059D01*
X125010687Y-11539633D01*
X124856742Y-11603399D01*
X124693315Y-11635907D01*
X124526685Y-11635907D01*
X124363258Y-11603399D01*
X124209313Y-11539633D01*
X124070766Y-11447059D01*
X123952941Y-11329234D01*
X123860367Y-11190687D01*
X123796601Y-11036742D01*
X123764093Y-10873315D01*
X123764093Y-10706685D01*
X123796601Y-10543258D01*
X123860367Y-10389313D01*
X123952941Y-10250766D01*
X124070766Y-10132941D01*
X124209313Y-10040367D01*
X124363258Y-9976601D01*
X124526685Y-9944093D01*
X124693315Y-9944093D01*
X124856742Y-9976601D01*
G37*
G36*
X127396742Y-9976601D02*
G01*
X127550687Y-10040367D01*
X127689234Y-10132941D01*
X127807059Y-10250766D01*
X127899633Y-10389313D01*
X127963399Y-10543258D01*
X127995907Y-10706685D01*
X127995907Y-10873315D01*
X127963399Y-11036742D01*
X127899633Y-11190687D01*
X127807059Y-11329234D01*
X127689234Y-11447059D01*
X127550687Y-11539633D01*
X127396742Y-11603399D01*
X127233315Y-11635907D01*
X127066685Y-11635907D01*
X126903258Y-11603399D01*
X126749313Y-11539633D01*
X126610766Y-11447059D01*
X126492941Y-11329234D01*
X126400367Y-11190687D01*
X126336601Y-11036742D01*
X126304093Y-10873315D01*
X126304093Y-10706685D01*
X126336601Y-10543258D01*
X126400367Y-10389313D01*
X126492941Y-10250766D01*
X126610766Y-10132941D01*
X126749313Y-10040367D01*
X126903258Y-9976601D01*
X127066685Y-9944093D01*
X127233315Y-9944093D01*
X127396742Y-9976601D01*
G37*
G36*
X129936742Y-9976601D02*
G01*
X130090687Y-10040367D01*
X130229234Y-10132941D01*
X130347059Y-10250766D01*
X130439633Y-10389313D01*
X130503399Y-10543258D01*
X130535907Y-10706685D01*
X130535907Y-10873315D01*
X130503399Y-11036742D01*
X130439633Y-11190687D01*
X130347059Y-11329234D01*
X130229234Y-11447059D01*
X130090687Y-11539633D01*
X129936742Y-11603399D01*
X129773315Y-11635907D01*
X129606685Y-11635907D01*
X129443258Y-11603399D01*
X129289313Y-11539633D01*
X129150766Y-11447059D01*
X129032941Y-11329234D01*
X128940367Y-11190687D01*
X128876601Y-11036742D01*
X128844093Y-10873315D01*
X128844093Y-10706685D01*
X128876601Y-10543258D01*
X128940367Y-10389313D01*
X129032941Y-10250766D01*
X129150766Y-10132941D01*
X129289313Y-10040367D01*
X129443258Y-9976601D01*
X129606685Y-9944093D01*
X129773315Y-9944093D01*
X129936742Y-9976601D01*
G37*
G36*
X132476742Y-9976601D02*
G01*
X132630687Y-10040367D01*
X132769234Y-10132941D01*
X132887059Y-10250766D01*
X132979633Y-10389313D01*
X133043399Y-10543258D01*
X133075907Y-10706685D01*
X133075907Y-10873315D01*
X133043399Y-11036742D01*
X132979633Y-11190687D01*
X132887059Y-11329234D01*
X132769234Y-11447059D01*
X132630687Y-11539633D01*
X132476742Y-11603399D01*
X132313315Y-11635907D01*
X132146685Y-11635907D01*
X131983258Y-11603399D01*
X131829313Y-11539633D01*
X131690766Y-11447059D01*
X131572941Y-11329234D01*
X131480367Y-11190687D01*
X131416601Y-11036742D01*
X131384093Y-10873315D01*
X131384093Y-10706685D01*
X131416601Y-10543258D01*
X131480367Y-10389313D01*
X131572941Y-10250766D01*
X131690766Y-10132941D01*
X131829313Y-10040367D01*
X131983258Y-9976601D01*
X132146685Y-9944093D01*
X132313315Y-9944093D01*
X132476742Y-9976601D01*
G37*
G36*
X135016742Y-9976601D02*
G01*
X135170687Y-10040367D01*
X135309234Y-10132941D01*
X135427059Y-10250766D01*
X135519633Y-10389313D01*
X135583399Y-10543258D01*
X135615907Y-10706685D01*
X135615907Y-10873315D01*
X135583399Y-11036742D01*
X135519633Y-11190687D01*
X135427059Y-11329234D01*
X135309234Y-11447059D01*
X135170687Y-11539633D01*
X135016742Y-11603399D01*
X134853315Y-11635907D01*
X134686685Y-11635907D01*
X134523258Y-11603399D01*
X134369313Y-11539633D01*
X134230766Y-11447059D01*
X134112941Y-11329234D01*
X134020367Y-11190687D01*
X133956601Y-11036742D01*
X133924093Y-10873315D01*
X133924093Y-10706685D01*
X133956601Y-10543258D01*
X134020367Y-10389313D01*
X134112941Y-10250766D01*
X134230766Y-10132941D01*
X134369313Y-10040367D01*
X134523258Y-9976601D01*
X134686685Y-9944093D01*
X134853315Y-9944093D01*
X135016742Y-9976601D01*
G37*
G36*
X137556742Y-9976601D02*
G01*
X137710687Y-10040367D01*
X137849234Y-10132941D01*
X137967059Y-10250766D01*
X138059633Y-10389313D01*
X138123399Y-10543258D01*
X138155907Y-10706685D01*
X138155907Y-10873315D01*
X138123399Y-11036742D01*
X138059633Y-11190687D01*
X137967059Y-11329234D01*
X137849234Y-11447059D01*
X137710687Y-11539633D01*
X137556742Y-11603399D01*
X137393315Y-11635907D01*
X137226685Y-11635907D01*
X137063258Y-11603399D01*
X136909313Y-11539633D01*
X136770766Y-11447059D01*
X136652941Y-11329234D01*
X136560367Y-11190687D01*
X136496601Y-11036742D01*
X136464093Y-10873315D01*
X136464093Y-10706685D01*
X136496601Y-10543258D01*
X136560367Y-10389313D01*
X136652941Y-10250766D01*
X136770766Y-10132941D01*
X136909313Y-10040367D01*
X137063258Y-9976601D01*
X137226685Y-9944093D01*
X137393315Y-9944093D01*
X137556742Y-9976601D01*
G37*
G36*
X140096742Y-9976601D02*
G01*
X140250687Y-10040367D01*
X140389234Y-10132941D01*
X140507059Y-10250766D01*
X140599633Y-10389313D01*
X140663399Y-10543258D01*
X140695907Y-10706685D01*
X140695907Y-10873315D01*
X140663399Y-11036742D01*
X140599633Y-11190687D01*
X140507059Y-11329234D01*
X140389234Y-11447059D01*
X140250687Y-11539633D01*
X140096742Y-11603399D01*
X139933315Y-11635907D01*
X139766685Y-11635907D01*
X139603258Y-11603399D01*
X139449313Y-11539633D01*
X139310766Y-11447059D01*
X139192941Y-11329234D01*
X139100367Y-11190687D01*
X139036601Y-11036742D01*
X139004093Y-10873315D01*
X139004093Y-10706685D01*
X139036601Y-10543258D01*
X139100367Y-10389313D01*
X139192941Y-10250766D01*
X139310766Y-10132941D01*
X139449313Y-10040367D01*
X139603258Y-9976601D01*
X139766685Y-9944093D01*
X139933315Y-9944093D01*
X140096742Y-9976601D01*
G37*
G36*
X142636742Y-9976601D02*
G01*
X142790687Y-10040367D01*
X142929234Y-10132941D01*
X143047059Y-10250766D01*
X143139633Y-10389313D01*
X143203399Y-10543258D01*
X143235907Y-10706685D01*
X143235907Y-10873315D01*
X143203399Y-11036742D01*
X143139633Y-11190687D01*
X143047059Y-11329234D01*
X142929234Y-11447059D01*
X142790687Y-11539633D01*
X142636742Y-11603399D01*
X142473315Y-11635907D01*
X142306685Y-11635907D01*
X142143258Y-11603399D01*
X141989313Y-11539633D01*
X141850766Y-11447059D01*
X141732941Y-11329234D01*
X141640367Y-11190687D01*
X141576601Y-11036742D01*
X141544093Y-10873315D01*
X141544093Y-10706685D01*
X141576601Y-10543258D01*
X141640367Y-10389313D01*
X141732941Y-10250766D01*
X141850766Y-10132941D01*
X141989313Y-10040367D01*
X142143258Y-9976601D01*
X142306685Y-9944093D01*
X142473315Y-9944093D01*
X142636742Y-9976601D01*
G37*
G36*
X145176742Y-9976601D02*
G01*
X145330687Y-10040367D01*
X145469234Y-10132941D01*
X145587059Y-10250766D01*
X145679633Y-10389313D01*
X145743399Y-10543258D01*
X145775907Y-10706685D01*
X145775907Y-10873315D01*
X145743399Y-11036742D01*
X145679633Y-11190687D01*
X145587059Y-11329234D01*
X145469234Y-11447059D01*
X145330687Y-11539633D01*
X145176742Y-11603399D01*
X145013315Y-11635907D01*
X144846685Y-11635907D01*
X144683258Y-11603399D01*
X144529313Y-11539633D01*
X144390766Y-11447059D01*
X144272941Y-11329234D01*
X144180367Y-11190687D01*
X144116601Y-11036742D01*
X144084093Y-10873315D01*
X144084093Y-10706685D01*
X144116601Y-10543258D01*
X144180367Y-10389313D01*
X144272941Y-10250766D01*
X144390766Y-10132941D01*
X144529313Y-10040367D01*
X144683258Y-9976601D01*
X144846685Y-9944093D01*
X145013315Y-9944093D01*
X145176742Y-9976601D01*
G37*
G36*
X100150000Y-10238000D02*
G01*
X98150000Y-10238000D01*
X98150000Y-8238000D01*
X100150000Y-8238000D01*
X100150000Y-10238000D01*
G37*
M02*
