M48
; DRILL file KiCad 10.0.6 date 2026-09-30T13:34:32
; FORMAT={-:-/ absolute / metric / decimal}
; #@! TF.CreationDate,2026-09-30T13:34:32+02:00
; #@! TF.GenerationSoftware,Kicad,Pcbnew,10.0.6
; #@! TF.FileFunction,Plated,1,2,PTH
FMAT,2
METRIC
; #@! TA.AperFunction,Plated,PTH,ViaDrill
T1C0.400
; #@! TA.AperFunction,Plated,PTH,ComponentDrill
T2C0.700
; #@! TA.AperFunction,Plated,PTH,ComponentDrill
T3C0.800
; #@! TA.AperFunction,Plated,PTH,ComponentDrill
T4C0.900
; #@! TA.AperFunction,Plated,PTH,ComponentDrill
T5C1.000
; #@! TA.AperFunction,Plated,PTH,ComponentDrill
T6C1.100
; #@! TA.AperFunction,Plated,PTH,ComponentDrill
T7C1.200
; #@! TA.AperFunction,Plated,PTH,ComponentDrill
T8C1.400
; #@! TA.AperFunction,Plated,PTH,ComponentDrill
T9C1.600
; #@! TA.AperFunction,Plated,PTH,ComponentDrill
T10C1.780
; #@! TA.AperFunction,Plated,PTH,ComponentDrill
T11C3.200
%
G90
G05
T1
X5.0Y-50.0
X5.0Y-70.0
X6.048Y-61.883
X13.629Y-60.215
X14.5Y-63.7
X15.0Y-10.0
X15.0Y-90.0
X16.6Y-62.9
X19.656Y-78.834
X20.9Y-37.8
X21.5Y-64.7
X23.328Y-66.312
X24.057Y-92.974
X25.0Y-10.0
X28.814Y-59.816
X32.048Y-16.326
X32.192Y-71.779
X33.64Y-63.069
X33.882Y-53.014
X34.269Y-20.601
X34.8Y-34.5
X35.0Y-10.0
X36.509Y-84.924
X37.862Y-45.783
X38.557Y-20.132
X39.088Y-41.669
X40.794Y-57.715
X41.209Y-15.146
X43.1Y-29.0
X43.762Y-60.335
X44.4Y-48.9
X45.0Y-90.0
X45.394Y-61.883
X45.648Y-58.78
X46.825Y-31.207
X47.475Y-45.65
X47.701Y-49.804
X49.513Y-51.439
X49.939Y-77.431
X50.0Y-20.0
X50.5Y-47.2
X51.852Y-59.58
X52.055Y-47.122
X52.285Y-52.714
X53.51Y-49.935
X54.7Y-59.9
X55.0Y-10.0
X55.0Y-30.0
X55.0Y-90.0
X56.87Y-66.092
X56.9Y-61.6
X58.9Y-57.8
X59.962Y-29.397
X60.0Y-60.0
X63.649Y-84.201
X64.1Y-35.3
X64.222Y-44.5
X64.727Y-23.092
X65.0Y-10.0
X65.0Y-50.0
X65.0Y-90.0
X66.2Y-78.0
X67.4Y-38.4
X72.347Y-23.092
X72.5Y-76.3
X75.0Y-90.0
X85.0Y-30.0
X85.0Y-90.0
X86.675Y-93.565
X90.0Y-20.0
X95.0Y-30.0
X95.0Y-70.0
X95.0Y-90.0
X98.3Y-12.0
X100.0Y-20.0
X100.0Y-60.0
X100.0Y-80.0
X105.0Y-30.0
X105.0Y-70.0
X105.0Y-90.0
X108.925Y-41.286
X110.805Y-59.206
X113.375Y-31.797
X115.0Y-90.0
X116.505Y-95.676
X118.407Y-13.734
X119.8Y-13.32
X123.996Y-81.305
X132.237Y-83.21
X135.2Y-44.232
X135.54Y-92.479
X136.658Y-85.659
X140.365Y-92.919
X146.9Y-13.32
X147.892Y-40.873
X148.334Y-21.374
X149.674Y-13.19
T2
X125.5Y-69.5
X128.04Y-69.5
X140.0Y-16.3
X145.08Y-16.3
T3
X3.375Y-20.5
X3.375Y-27.0
X3.375Y-57.0
X4.536Y-79.0
X5.062Y-30.92
X5.062Y-36.0
X5.915Y-20.5
X5.915Y-27.0
X5.915Y-57.0
X8.455Y-20.5
X8.455Y-27.0
X8.455Y-57.0
X8.84Y-72.0
X9.616Y-79.0
X11.34Y-72.0
X11.812Y-30.92
X11.812Y-36.0
X13.608Y-82.0
X17.719Y-56.5
X18.688Y-82.0
X19.656Y-72.0
X21.656Y-72.0
X22.022Y-39.5
X22.799Y-56.5
X24.562Y-39.5
X27.102Y-39.5
X28.728Y-64.92
X28.728Y-70.0
X30.24Y-75.0
X32.78Y-75.0
X32.906Y-44.0
X32.906Y-47.3
X33.264Y-66.0
X33.566Y-70.0
X34.965Y-39.5
X35.32Y-75.0
X35.804Y-66.0
X36.281Y-36.0
X37.986Y-44.0
X37.986Y-47.3
X38.344Y-66.0
X38.646Y-70.0
X39.094Y-14.5
X39.312Y-28.5
X39.312Y-30.5
X40.045Y-39.5
X40.844Y-9.5
X41.361Y-36.0
X43.005Y-50.38
X43.005Y-52.92
X43.005Y-55.46
X43.005Y-58.0
X44.174Y-14.5
X44.893Y-28.5
X44.893Y-30.5
X45.924Y-9.5
X47.976Y-39.5
X50.625Y-50.38
X50.625Y-52.92
X50.625Y-55.46
X50.625Y-58.0
X53.056Y-39.5
X55.688Y-47.12
X55.688Y-52.2
X58.718Y-81.0
X60.159Y-39.5
X62.699Y-39.5
X63.281Y-21.88
X63.281Y-29.5
X63.798Y-81.0
X65.239Y-39.5
X65.821Y-21.88
X65.821Y-29.5
X66.065Y-66.9
X66.065Y-71.98
X66.099Y-5.0
X66.335Y-58.42
X66.335Y-60.96
X66.335Y-63.5
X68.099Y-5.0
X68.361Y-21.88
X68.361Y-29.5
X70.25Y-69.92
X70.25Y-75.0
X70.901Y-21.88
X70.901Y-29.5
X70.925Y-59.22
X70.925Y-64.3
X73.441Y-21.88
X73.441Y-29.5
X74.435Y-69.42
X74.435Y-74.5
X74.705Y-59.2
X74.705Y-64.28
X75.981Y-21.88
X75.981Y-29.5
X78.521Y-21.88
X78.521Y-29.5
X79.679Y-11.5
X79.679Y-13.5
X86.2Y-44.42
X86.2Y-49.5
X99.5Y-54.3
X101.5Y-54.3
X113.5Y-37.0
X116.0Y-37.0
X119.0Y-21.3
X119.5Y-16.3
X119.5Y-26.5
X121.0Y-21.3
X124.58Y-16.3
X124.58Y-26.5
X125.0Y-73.5
X125.5Y-78.5
X125.5Y-83.0
X125.5Y-87.2
X127.54Y-73.5
X130.08Y-73.5
X130.58Y-78.5
X130.58Y-83.0
X130.58Y-87.2
X134.5Y-74.1
X134.5Y-78.5
X134.5Y-83.0
X134.5Y-87.2
X136.8Y-44.2
X137.04Y-83.0
X139.58Y-74.1
X139.58Y-78.5
X139.58Y-83.0
X139.58Y-87.2
X140.2Y-39.3
X141.88Y-44.2
X145.0Y-42.42
X145.0Y-47.5
X145.28Y-39.3
X150.0Y-42.42
X150.0Y-44.96
X150.0Y-47.5
X150.5Y-53.8
X153.7Y-45.42
X153.7Y-50.5
X155.58Y-53.8
T4
X10.665Y-20.5
X10.665Y-27.0
X15.665Y-20.5
X15.665Y-27.0
X29.565Y-79.5
X34.565Y-79.5
X36.18Y-55.0
X36.18Y-60.0
X41.715Y-73.0
X41.715Y-78.0
X59.906Y-22.5
X59.906Y-27.5
X121.3Y-35.8
X121.3Y-40.8
X128.5Y-44.3
X130.8Y-31.2
X133.5Y-44.3
X134.5Y-35.0
X134.5Y-40.0
X135.8Y-31.2
X144.0Y-83.0
X146.54Y-83.0
T5
X11.26Y-95.96
X13.8Y-95.96
X16.34Y-95.96
X18.88Y-95.96
X21.42Y-95.96
X23.96Y-95.96
X26.5Y-95.96
X29.04Y-95.96
X31.58Y-95.96
X34.12Y-95.96
X36.66Y-95.96
X39.2Y-95.96
X41.74Y-95.96
X118.26Y-95.96
X120.8Y-95.96
X122.07Y-10.78
X122.07Y-13.32
X123.34Y-95.96
X124.61Y-10.78
X124.61Y-13.32
X125.88Y-95.96
X127.15Y-10.78
X127.15Y-13.32
X128.42Y-95.96
X129.69Y-10.78
X129.69Y-13.32
X130.96Y-95.96
X132.23Y-10.78
X132.23Y-13.32
X133.5Y-95.96
X134.77Y-10.78
X134.77Y-13.32
X136.04Y-95.96
X137.31Y-10.78
X137.31Y-13.32
X138.58Y-95.96
X139.85Y-10.78
X139.85Y-13.32
X141.12Y-95.96
X142.39Y-10.78
X142.39Y-13.32
X143.66Y-95.96
X144.93Y-10.78
X144.93Y-13.32
X146.2Y-95.96
X148.74Y-95.96
T6
X17.212Y-43.99
X17.212Y-47.8
X38.812Y-22.0
X41.352Y-22.0
X43.892Y-22.0
X75.094Y-5.0
X77.634Y-5.0
X80.174Y-5.0
X82.5Y-55.3
X90.0Y-55.3
X90.5Y-33.5
X90.5Y-51.28
X123.22Y-50.4
X141.0Y-50.4
X152.5Y-2.5
T7
X157.8Y-3.52
X157.8Y-8.6
T8
X95.5Y-41.0
X95.5Y-43.54
X95.5Y-46.08
X100.5Y-43.0
X100.5Y-45.54
X100.5Y-48.08
X127.5Y-21.46
X127.5Y-24.0
X127.5Y-26.54
X127.5Y-34.5
X127.5Y-37.04
X127.5Y-39.58
X136.5Y-57.0
X139.04Y-57.0
X141.58Y-57.0
X150.0Y-60.76
X150.0Y-68.38
X150.0Y-76.0
T9
X118.5Y-60.0
X118.5Y-80.32
T10
X15.188Y-2.5
X15.188Y-5.9
X25.108Y-2.5
X25.108Y-5.9
X43.875Y-2.5
X43.875Y-5.9
X53.795Y-2.5
X53.795Y-5.9
X128.5Y-61.0
X128.5Y-64.4
X138.42Y-61.0
X138.42Y-64.4
T11
X143.5Y-24.0
X143.5Y-31.62
M30
