M48
; DRILL file KiCad 10.0.6 date 2026-10-04T14:03:03
; FORMAT={-:-/ absolute / metric / decimal}
; #@! TF.CreationDate,2026-10-04T14:03:03+02:00
; #@! TF.GenerationSoftware,Kicad,Pcbnew,10.0.6
; #@! TF.FileFunction,Plated,1,2,PTH
FMAT,2
METRIC
; #@! TA.AperFunction,Plated,PTH,ViaDrill
T1C0.400
; #@! TA.AperFunction,Plated,PTH,ComponentDrill
T2C0.800
; #@! TA.AperFunction,Plated,PTH,ComponentDrill
T3C0.850
; #@! TA.AperFunction,Plated,PTH,ComponentDrill
T4C1.000
; #@! TA.AperFunction,Plated,PTH,ComponentDrill
T5C1.100
; #@! TA.AperFunction,Plated,PTH,ComponentDrill
T6C1.200
; #@! TA.AperFunction,Plated,PTH,ComponentDrill
T7C1.850
%
G90
G05
T1
X10.0Y-80.0
X15.0Y-10.0
X15.0Y-90.0
X15.461Y-19.503
X19.058Y-59.41
X20.0Y-80.0
X20.141Y-19.579
X21.19Y-8.0
X21.988Y-55.373
X22.154Y-92.151
X23.45Y-81.05
X23.55Y-84.3
X23.929Y-53.938
X24.582Y-62.674
X25.167Y-89.731
X26.306Y-23.482
X27.339Y-20.515
X27.664Y-52.77
X27.956Y-55.36
X30.0Y-80.0
X30.781Y-46.059
X31.786Y-48.509
X31.819Y-53.186
X31.97Y-40.299
X32.54Y-43.764
X32.7Y-77.7
X33.172Y-68.939
X33.226Y-49.479
X33.227Y-72.613
X33.242Y-22.664
X33.626Y-66.084
X33.922Y-36.975
X34.002Y-41.888
X34.27Y-32.396
X34.35Y-8.0
X34.657Y-57.536
X34.917Y-44.142
X35.0Y-90.0
X35.45Y-49.956
X36.007Y-42.764
X36.025Y-25.847
X36.577Y-47.062
X36.724Y-39.628
X36.834Y-48.658
X36.85Y-62.3
X36.956Y-41.811
X36.987Y-37.075
X37.0Y-45.482
X37.011Y-50.769
X37.258Y-28.43
X38.125Y-31.305
X38.183Y-68.98
X39.007Y-60.183
X39.775Y-63.55
X39.875Y-52.35
X39.875Y-60.9
X39.928Y-55.0
X39.993Y-50.063
X40.0Y-80.0
X40.664Y-22.378
X40.796Y-25.177
X40.999Y-38.514
X41.3Y-67.966
X42.758Y-44.52
X42.875Y-47.05
X43.498Y-32.49
X43.75Y-67.0
X45.0Y-90.0
X45.264Y-25.346
X46.675Y-36.812
X46.711Y-43.188
X46.712Y-40.686
X49.788Y-32.356
X49.85Y-24.252
X50.0Y-60.0
X50.0Y-80.0
X51.3Y-35.8
X51.882Y-25.063
X52.4Y-44.75
X53.6Y-63.25
X53.6Y-66.212
X53.7Y-51.4
X53.7Y-53.4
X53.7Y-55.4
X53.7Y-57.2
X53.975Y-35.867
X54.0Y-49.75
X54.0Y-58.25
X55.0Y-90.0
X55.35Y-49.66
X55.474Y-77.41
X55.9Y-52.562
X55.95Y-44.75
X56.6Y-56.8
X57.25Y-49.75
X57.3Y-35.216
X57.3Y-41.9
X58.25Y-52.562
X58.25Y-57.8
X58.4Y-49.66
X58.4Y-63.75
X58.8Y-44.7
X59.0Y-56.8
X59.5Y-49.75
X60.071Y-67.205
X60.6Y-52.562
X60.664Y-32.892
X61.2Y-49.66
X61.347Y-63.728
X61.45Y-44.7
X61.954Y-24.805
X62.25Y-54.75
X62.3Y-49.66
X62.875Y-59.575
X62.983Y-19.665
X64.366Y-19.505
X64.675Y-40.102
X65.0Y-90.0
X65.644Y-50.872
X65.938Y-59.632
X66.939Y-22.681
X67.736Y-51.098
X67.736Y-53.348
X67.779Y-61.336
X68.34Y-8.0
X68.612Y-44.542
X68.847Y-48.042
X68.9Y-39.971
X69.042Y-23.86
X70.751Y-81.106
X71.683Y-29.385
X73.0Y-41.19
X73.0Y-45.91
X73.0Y-55.73
X73.0Y-60.81
X73.265Y-65.661
X73.685Y-71.224
X73.685Y-72.66
X74.675Y-27.653
X74.826Y-23.133
X75.088Y-68.457
X76.429Y-30.688
X76.517Y-79.721
X77.245Y-78.176
X77.704Y-15.76
X78.314Y-34.044
X78.475Y-35.49
X78.599Y-27.677
X78.603Y-59.304
X78.724Y-62.836
X78.78Y-46.94
X78.816Y-23.739
X79.45Y-53.0
X80.111Y-42.889
X80.159Y-77.497
X80.258Y-61.267
X80.506Y-40.773
X80.858Y-67.55
X80.934Y-36.321
X81.087Y-64.56
X81.137Y-55.942
X82.013Y-23.318
X82.72Y-46.751
X83.0Y-27.09
X83.0Y-31.81
X83.184Y-35.266
X83.268Y-43.008
X83.557Y-80.149
X83.655Y-33.505
X83.801Y-14.937
X84.567Y-75.233
X84.665Y-79.126
X85.054Y-70.656
X85.063Y-57.659
X85.543Y-68.034
X87.524Y-87.736
X88.475Y-27.177
X90.0Y-20.0
X90.0Y-68.19
X90.0Y-75.81
X90.114Y-84.324
X90.45Y-89.35
X90.596Y-48.202
X94.2Y-8.0
X94.55Y-86.15
X95.0Y-90.0
X95.487Y-23.86
X95.58Y-71.002
X97.603Y-74.712
X98.2Y-85.659
X98.37Y-54.124
X98.478Y-58.712
X99.295Y-67.998
X99.954Y-23.839
X100.0Y-20.0
X100.032Y-81.021
X100.731Y-67.859
X101.275Y-29.475
T2
X23.5Y-56.5
X23.5Y-59.04
X23.5Y-61.58
X23.5Y-64.12
X23.5Y-66.66
X23.5Y-69.2
X23.5Y-71.74
X23.5Y-74.28
X23.5Y-76.82
X31.12Y-56.5
X31.12Y-59.04
X31.12Y-61.58
X31.12Y-64.12
X31.12Y-66.66
X31.12Y-69.2
X31.12Y-71.74
X31.12Y-74.28
X31.12Y-76.82
X31.6Y-19.5
X31.6Y-27.12
X31.6Y-31.0
X31.6Y-38.62
X31.6Y-42.5
X31.6Y-50.12
X39.33Y-11.54
X39.5Y-57.95
X44.41Y-11.54
X44.5Y-57.95
X55.0Y-21.6
X57.5Y-21.6
X61.0Y-27.5
X63.54Y-27.5
X66.08Y-27.5
X78.975Y-48.54
X82.0Y-82.0
X84.055Y-48.54
X84.54Y-82.0
X87.08Y-82.0
X88.0Y-50.0
X88.0Y-52.54
X88.0Y-55.08
X88.0Y-57.62
X88.0Y-60.16
X88.0Y-62.7
X88.0Y-65.24
X90.0Y-82.0
X92.54Y-82.0
X95.08Y-82.0
X95.62Y-50.0
X95.62Y-52.54
X95.62Y-55.08
X95.62Y-57.62
X95.62Y-60.16
X95.62Y-62.7
X95.62Y-65.24
T3
X23.5Y-19.5
X23.5Y-22.5
X23.5Y-24.9
X23.5Y-27.1
X23.5Y-31.0
X23.5Y-34.0
X23.5Y-36.4
X23.5Y-38.6
X23.5Y-42.5
X23.5Y-45.5
X23.5Y-47.9
X23.5Y-50.1
X28.58Y-19.5
X28.58Y-22.5
X28.58Y-24.9
X28.58Y-27.1
X28.58Y-31.0
X28.58Y-34.0
X28.58Y-36.4
X28.58Y-38.6
X28.58Y-42.5
X28.58Y-45.5
X28.58Y-47.9
X28.58Y-50.1
T4
X11.26Y-95.96
X13.8Y-95.96
X16.34Y-95.96
X18.88Y-95.96
X21.42Y-10.79
X21.42Y-13.33
X21.42Y-95.96
X23.96Y-10.79
X23.96Y-13.33
X23.96Y-95.96
X26.5Y-10.79
X26.5Y-13.33
X26.5Y-95.96
X29.04Y-10.79
X29.04Y-13.33
X29.04Y-95.96
X31.58Y-10.79
X31.58Y-13.33
X31.58Y-95.96
X34.12Y-95.96
X36.66Y-95.96
X39.2Y-95.96
X41.74Y-95.96
X49.2Y-44.9
X54.175Y-38.6
X57.0Y-65.925
X60.125Y-38.6
X64.3Y-45.0
X64.76Y-95.96
X67.3Y-95.96
X68.57Y-10.79
X68.57Y-13.33
X69.84Y-95.96
X71.11Y-10.79
X71.11Y-13.33
X72.38Y-95.96
X73.65Y-10.79
X73.65Y-13.33
X74.92Y-95.96
X76.19Y-10.79
X76.19Y-13.33
X77.46Y-95.96
X78.73Y-10.79
X78.73Y-13.33
X80.0Y-95.96
X81.27Y-10.79
X81.27Y-13.33
X82.54Y-95.96
X83.81Y-10.79
X83.81Y-13.33
X85.08Y-95.96
X86.35Y-10.79
X86.35Y-13.33
X87.62Y-95.96
X88.89Y-10.79
X88.89Y-13.33
X90.16Y-95.96
X91.43Y-10.79
X91.43Y-13.33
X92.7Y-95.96
X95.24Y-95.96
T5
X15.0Y-24.1
X15.0Y-27.6
X15.0Y-31.1
X15.0Y-34.6
X15.0Y-38.1
X15.0Y-41.6
X15.0Y-52.6
X18.5Y-24.1
X18.5Y-27.6
X18.5Y-31.1
X18.5Y-34.6
X18.5Y-38.1
X18.5Y-41.6
X18.5Y-52.6
T6
X36.0Y-20.0
X51.24Y-20.0
T7
X3.9Y-63.96
X3.9Y-69.04
X16.6Y-61.8
X16.6Y-66.5
X16.6Y-71.2
X20.41Y-61.8
X20.41Y-66.5
X20.41Y-71.2
M30
