<?xml version="1.0" standalone="no"?>
 <!DOCTYPE svg PUBLIC "-//W3C//DTD SVG 1.1//EN" 
 "http://www.w3.org/Graphics/SVG/1.1/DTD/svg11.dtd"> 
<svg
  xmlns:svg="http://www.w3.org/2000/svg"
  xmlns="http://www.w3.org/2000/svg"
  xmlns:xlink="http://www.w3.org/1999/xlink"
  xmlns:inkscape="http://www.inkscape.org/namespaces/inkscape"
  version="1.1"
  width="149.9870mm" height="79.9846mm" viewBox="0.0000 0.0000 149.9870 79.9846">
<title>SVG Image created as copper-in2.svg date 2026-10-08T12:50:28 </title>
  <desc>Image generated by PCBNEW </desc>
<g style="fill:#c8cdd0; fill-opacity:1.0000;stroke:#000000; stroke-opacity:1.0000;
stroke-linecap:round; stroke-linejoin:round;"
 transform="translate(0 0) scale(1 1)">
<path style="fill:#c8cdd0; fill-opacity:1.0000; stroke:none;fill-rule:evenodd;"
d="M 42.7500,17.2500
42.7500,12.7500
47.2500,12.7500
47.2500,17.2500
Z" /> 
</g>
<g style="fill:#c8cdd0; fill-opacity:1.0000; stroke:none;">
<circle cx="52.6200" cy="15.0000" r="2.2500" /> 
<path style="fill:#c8cdd0; fill-opacity:1.0000; stroke:none;fill-rule:evenodd;"
d="M 62.8000,16.2000
62.8000,13.8000
65.2000,13.8000
65.2000,16.2000
Z" /> 
<circle cx="69.0800" cy="15.0000" r="1.2000" /> 
<circle cx="74.1600" cy="15.0000" r="1.2000" /> 
<circle cx="79.2400" cy="15.0000" r="1.2000" /> 
<circle cx="84.3200" cy="15.0000" r="1.2000" /> 
<circle cx="89.4000" cy="15.0000" r="1.2000" /> 
<circle cx="94.4800" cy="15.0000" r="1.2000" /> 
<circle cx="99.5600" cy="15.0000" r="1.2000" /> 
<circle cx="104.6400" cy="15.0000" r="1.2000" /> 
<circle cx="109.7200" cy="15.0000" r="1.2000" /> 
<path style="fill:#c8cdd0; fill-opacity:1.0000; stroke:none;fill-rule:evenodd;"
d="M 30.9000,64.1000
30.9000,65.9000
29.1000,65.9000
29.1000,64.1000
Z" /> 
<circle cx="27.4600" cy="65.0000" r="0.9000" /> 
<circle cx="24.9200" cy="65.0000" r="0.9000" /> 
<circle cx="22.3800" cy="65.0000" r="0.9000" /> 
<circle cx="19.8400" cy="65.0000" r="0.9000" /> 
<circle cx="17.3000" cy="65.0000" r="0.9000" /> 
<path style="fill:#c8cdd0; fill-opacity:1.0000; stroke:none;fill-rule:evenodd;"
d="M 30.7500,17.2500
30.7500,12.7500
35.2500,12.7500
35.2500,17.2500
Z" /> 
<path style="fill:#c8cdd0; fill-opacity:1.0000; stroke:none;fill-rule:evenodd;"
d="M 26.1500,33.4000
26.1690,33.3043
26.2232,33.2232
26.3043,33.1690
26.4000,33.1500
27.6000,33.1500
27.6957,33.1690
27.7768,33.2232
27.8310,33.3043
27.8500,33.4000
27.8500,34.6000
27.8310,34.6957
27.7768,34.7768
27.6957,34.8310
27.6000,34.8500
26.4000,34.8500
26.3043,34.8310
26.2232,34.7768
26.1690,34.6957
26.1500,34.6000
Z" /> 
<circle cx="27.0000" cy="36.5400" r="0.8500" /> 
<circle cx="27.0000" cy="39.0800" r="0.8500" /> 
<path style="fill:#c8cdd0; fill-opacity:1.0000; stroke:none;fill-rule:evenodd;"
d="M 116.6500,24.1000
116.6500,22.4000
118.3500,22.4000
118.3500,24.1000
Z" /> 
<circle cx="117.5000" cy="25.7900" r="0.8500" /> 
<circle cx="117.5000" cy="28.3300" r="0.8500" /> 
<circle cx="117.5000" cy="30.8700" r="0.8500" /> 
<circle cx="117.5000" cy="33.4100" r="0.8500" /> 
<circle cx="117.5000" cy="35.9500" r="0.8500" /> 
<circle cx="117.5000" cy="38.4900" r="0.8500" /> 
<circle cx="117.5000" cy="41.0300" r="0.8500" /> 
<circle cx="117.5000" cy="43.5700" r="0.8500" /> 
<circle cx="117.5000" cy="46.1100" r="0.8500" /> 
<circle cx="117.5000" cy="48.6500" r="0.8500" /> 
<circle cx="117.5000" cy="51.1900" r="0.8500" /> 
<circle cx="117.5000" cy="53.7300" r="0.8500" /> 
<circle cx="117.5000" cy="56.2700" r="0.8500" /> 
<circle cx="117.5000" cy="58.8100" r="0.8500" /> 
<circle cx="117.5000" cy="61.3500" r="0.8500" /> 
<circle cx="117.5000" cy="63.8900" r="0.8500" /> 
<circle cx="117.5000" cy="66.4300" r="0.8500" /> 
<circle cx="117.5000" cy="68.9700" r="0.8500" /> 
<circle cx="117.5000" cy="71.5100" r="0.8500" /> 
<circle cx="117.5000" cy="74.0500" r="0.8500" /> 
<circle cx="117.5000" cy="76.5900" r="0.8500" /> 
<path style="fill:#c8cdd0; fill-opacity:1.0000; stroke:none;fill-rule:evenodd;"
d="M 139.5100,24.1000
139.5100,22.4000
141.2100,22.4000
141.2100,24.1000
Z" /> 
<circle cx="140.3600" cy="25.7900" r="0.8500" /> 
<circle cx="140.3600" cy="28.3300" r="0.8500" /> 
<circle cx="140.3600" cy="30.8700" r="0.8500" /> 
<circle cx="140.3600" cy="33.4100" r="0.8500" /> 
<circle cx="140.3600" cy="35.9500" r="0.8500" /> 
<circle cx="140.3600" cy="38.4900" r="0.8500" /> 
<circle cx="140.3600" cy="41.0300" r="0.8500" /> 
<circle cx="140.3600" cy="43.5700" r="0.8500" /> 
<circle cx="140.3600" cy="46.1100" r="0.8500" /> 
<circle cx="140.3600" cy="48.6500" r="0.8500" /> 
<circle cx="140.3600" cy="51.1900" r="0.8500" /> 
<circle cx="140.3600" cy="53.7300" r="0.8500" /> 
<circle cx="140.3600" cy="56.2700" r="0.8500" /> 
<circle cx="140.3600" cy="58.8100" r="0.8500" /> 
<circle cx="140.3600" cy="61.3500" r="0.8500" /> 
<circle cx="140.3600" cy="63.8900" r="0.8500" /> 
<circle cx="140.3600" cy="66.4300" r="0.8500" /> 
<circle cx="140.3600" cy="68.9700" r="0.8500" /> 
<circle cx="140.3600" cy="71.5100" r="0.8500" /> 
<circle cx="140.3600" cy="74.0500" r="0.8500" /> 
<circle cx="140.3600" cy="76.5900" r="0.8500" /> 
<path style="fill:#c8cdd0; fill-opacity:1.0000; stroke:none;fill-rule:evenodd;"
d="M 12.1500,33.4000
12.1690,33.3043
12.2232,33.2232
12.3043,33.1690
12.4000,33.1500
13.6000,33.1500
13.6957,33.1690
13.7768,33.2232
13.8310,33.3043
13.8500,33.4000
13.8500,34.6000
13.8310,34.6957
13.7768,34.7768
13.6957,34.8310
13.6000,34.8500
12.4000,34.8500
12.3043,34.8310
12.2232,34.7768
12.1690,34.6957
12.1500,34.6000
Z" /> 
<circle cx="13.0000" cy="36.5400" r="0.8500" /> 
<circle cx="13.0000" cy="39.0800" r="0.8500" /> 
<path style="fill:#c8cdd0; fill-opacity:1.0000; stroke:none;fill-rule:evenodd;"
d="M 58.6500,60.5000
58.6500,58.5000
60.3500,58.5000
60.3500,60.5000
Z" /> 
</g>
<g style="fill:none; 
stroke:#000000; stroke-width:1.7000; stroke-opacity:1; 
stroke-linecap:round; stroke-linejoin:round;">
<path d="M56.9600 59.3500
L56.9600 59.6500
" />
<path d="M54.4200 59.3500
L54.4200 59.6500
" />
<path d="M51.8800 59.3500
L51.8800 59.6500
" />
<path d="M49.3400 59.3500
L49.3400 59.6500
" />
<path d="M46.8000 59.3500
L46.8000 59.6500
" />
<path d="M44.2600 59.3500
L44.2600 59.6500
" />
<path d="M41.7200 59.3500
L41.7200 59.6500
" />
<path d="M39.1800 59.3500
L39.1800 59.6500
" />
<path style="fill:#c8cdd0; fill-opacity:1.0000; stroke:none;fill-rule:evenodd;"
d="M 37.1000,53.9000
37.1000,52.1000
38.9000,52.1000
38.9000,53.9000
Z" /> 
</g>
<g style="fill:#c8cdd0; fill-opacity:1.0000; stroke:none;">
<circle cx="40.5400" cy="53.0000" r="0.9000" /> 
<circle cx="14.0000" cy="21.0000" r="1.3900" /> 
<circle cx="14.0000" cy="24.4000" r="1.3900" /> 
<circle cx="23.9200" cy="21.0000" r="1.3900" /> 
<circle cx="23.9200" cy="24.4000" r="1.3900" /> 
<path style="fill:#c8cdd0; fill-opacity:1.0000; stroke:none;fill-rule:evenodd;"
d="M 85.1500,60.5000
85.1500,58.5000
86.8500,58.5000
86.8500,60.5000
Z" /> 
</g>
<g style="fill:none; 
stroke:#000000; stroke-width:1.7000; stroke-opacity:1; 
stroke-linecap:round; stroke-linejoin:round;">
<path d="M83.4600 59.3500
L83.4600 59.6500
" />
<path d="M80.9200 59.3500
L80.9200 59.6500
" />
<path d="M78.3800 59.3500
L78.3800 59.6500
" />
<path d="M75.8400 59.3500
L75.8400 59.6500
" />
<path d="M73.3000 59.3500
L73.3000 59.6500
" />
<path d="M70.7600 59.3500
L70.7600 59.6500
" />
<path d="M68.2200 59.3500
L68.2200 59.6500
" />
<path d="M65.6800 59.3500
L65.6800 59.6500
" />
<path style="fill:#c8cdd0; fill-opacity:1.0000; stroke:none;fill-rule:evenodd;"
d="M 11.7500,17.2500
11.7500,12.7500
16.2500,12.7500
16.2500,17.2500
Z" /> 
</g>
<g style="fill:#c8cdd0; fill-opacity:1.0000; stroke:none;">
<circle cx="21.6200" cy="15.0000" r="2.2500" /> 
<path style="fill:#c8cdd0; fill-opacity:1.0000; stroke:none;fill-rule:evenodd;"
d="M 113.2500,55.5500
113.2500,57.2500
111.5500,57.2500
111.5500,55.5500
Z" /> 
<circle cx="109.8600" cy="56.4000" r="0.8500" /> 
<circle cx="107.3200" cy="56.4000" r="0.8500" /> 
<circle cx="104.7800" cy="56.4000" r="0.8500" /> 
<circle cx="102.2400" cy="56.4000" r="0.8500" /> 
<circle cx="99.7000" cy="56.4000" r="0.8500" /> 
<circle cx="97.1600" cy="56.4000" r="0.8500" /> 
<circle cx="94.6200" cy="56.4000" r="0.8500" /> 
<circle cx="92.0800" cy="56.4000" r="0.8500" /> 
<circle cx="45.2000" cy="21.2000" r="0.4500" /> 
<circle cx="43.4000" cy="19.4000" r="0.4500" /> 
<circle cx="51.2000" cy="26.0000" r="0.4500" /> 
<circle cx="53.0000" cy="19.4000" r="0.4500" /> 
<circle cx="53.0000" cy="24.2000" r="0.4500" /> 
<circle cx="64.5693" cy="30.9154" r="0.4500" /> 
<circle cx="108.9500" cy="44.6750" r="0.3000" /> 
<circle cx="13.5750" cy="50.4600" r="0.3000" /> 
<circle cx="77.1750" cy="45.9000" r="0.3000" /> 
<circle cx="90.7000" cy="40.4000" r="0.4500" /> 
<circle cx="85.0010" cy="55.3500" r="0.3000" /> 
<circle cx="101.6380" cy="51.0387" r="0.4500" /> 
<circle cx="115.8979" cy="54.7639" r="0.4500" /> 
<circle cx="90.7000" cy="42.2000" r="0.4500" /> 
<circle cx="97.6000" cy="37.5620" r="0.4500" /> 
<circle cx="67.5005" cy="16.8054" r="0.4500" /> 
<circle cx="77.1750" cy="34.7000" r="0.3000" /> 
<circle cx="99.8750" cy="44.5750" r="0.4500" /> 
<circle cx="92.3500" cy="34.6600" r="0.4500" /> 
<circle cx="93.6000" cy="41.8000" r="0.4500" /> 
<circle cx="96.0000" cy="41.8000" r="0.4500" /> 
<circle cx="92.9000" cy="37.5620" r="0.4500" /> 
<circle cx="50.9650" cy="40.8750" r="0.3000" /> 
<circle cx="111.3834" cy="37.2670" r="0.4500" /> 
<circle cx="62.3620" cy="38.1500" r="0.3000" /> 
<circle cx="88.9271" cy="62.8926" r="0.4500" /> 
<circle cx="145.0000" cy="70.0000" r="0.4500" /> 
<circle cx="79.9740" cy="20.7620" r="0.3000" /> 
<circle cx="94.3000" cy="20.9380" r="0.3000" /> 
<circle cx="41.7500" cy="44.6750" r="0.3000" /> 
<circle cx="24.0000" cy="49.1900" r="0.3000" /> 
<circle cx="114.9005" cy="44.8505" r="0.4500" /> 
<circle cx="115.8853" cy="59.7278" r="0.4500" /> 
<circle cx="19.2755" cy="60.7649" r="0.4500" /> 
<circle cx="106.2932" cy="30.9995" r="0.4500" /> 
<circle cx="90.7000" cy="36.4000" r="0.4500" /> 
<circle cx="90.6000" cy="51.2125" r="0.4500" /> 
<circle cx="90.7000" cy="38.4000" r="0.4500" /> 
<circle cx="77.1750" cy="48.5500" r="0.3000" /> 
<circle cx="20.0000" cy="40.0000" r="0.4500" /> 
<circle cx="77.1750" cy="40.0000" r="0.3000" /> 
<circle cx="92.9500" cy="29.7500" r="0.4500" /> 
<circle cx="40.0000" cy="20.0000" r="0.4500" /> 
<circle cx="70.3010" cy="29.4000" r="0.3000" /> 
<circle cx="99.3000" cy="34.6600" r="0.4500" /> 
<circle cx="52.2350" cy="40.8750" r="0.3000" /> 
<circle cx="61.7620" cy="24.3000" r="0.3000" /> 
<circle cx="145.0000" cy="50.0000" r="0.4500" /> 
<circle cx="65.6880" cy="19.5500" r="0.3000" /> 
<circle cx="5.5000" cy="31.0900" r="0.3000" /> 
<circle cx="72.8380" cy="21.7500" r="0.3000" /> 
<circle cx="78.7370" cy="42.9500" r="0.3000" /> 
<circle cx="70.3010" cy="25.5500" r="0.3000" /> 
<circle cx="57.3850" cy="39.6000" r="0.3000" /> 
<circle cx="5.0000" cy="70.0000" r="0.4500" /> 
<circle cx="19.8500" cy="33.3230" r="0.3000" /> 
<circle cx="77.5500" cy="19.4370" r="0.3000" /> 
<circle cx="95.4000" cy="34.6600" r="0.4500" /> 
<circle cx="103.5370" cy="18.6000" r="0.3000" /> 
<circle cx="5.7500" cy="34.7550" r="0.3000" /> 
<circle cx="44.5480" cy="55.6363" r="0.4500" /> 
<circle cx="104.1250" cy="25.9650" r="0.3000" /> 
<circle cx="110.2630" cy="22.2000" r="0.3000" /> 
<circle cx="77.1750" cy="29.4000" r="0.3000" /> 
<circle cx="95.8000" cy="29.7000" r="0.4500" /> 
<circle cx="90.6000" cy="48.2500" r="0.4500" /> 
<circle cx="55.5000" cy="49.2300" r="0.3000" /> 
<circle cx="95.2500" cy="37.5620" r="0.4500" /> 
<circle cx="5.0000" cy="50.0000" r="0.4500" /> 
<circle cx="113.6000" cy="33.7630" r="0.3000" /> 
<circle cx="61.9750" cy="52.5150" r="0.3000" /> 
<circle cx="34.4250" cy="57.0400" r="0.3000" /> 
<circle cx="10.0000" cy="60.0000" r="0.4500" /> 
<circle cx="89.4000" cy="29.7500" r="0.4500" /> 
<circle cx="77.1750" cy="37.3500" r="0.3000" /> 
<circle cx="98.4500" cy="29.7000" r="0.4500" /> 
<circle cx="24.0000" cy="56.8100" r="0.3000" /> 
<circle cx="5.0000" cy="10.0000" r="0.4500" /> 
<circle cx="77.1750" cy="32.0500" r="0.3000" /> 
<circle cx="55.5000" cy="54.3100" r="0.3000" /> 
<circle cx="13.5750" cy="54.2700" r="0.3000" /> 
<circle cx="85.0000" cy="30.0000" r="0.4500" /> 
<circle cx="68.2130" cy="28.3000" r="0.3000" /> 
<circle cx="35.0000" cy="30.0000" r="0.4500" /> 
<circle cx="145.0000" cy="30.0000" r="0.4500" /> 
<circle cx="38.0750" cy="39.0800" r="0.3000" /> 
<circle cx="34.5500" cy="48.9400" r="0.3000" /> 
<circle cx="67.3688" cy="35.2386" r="0.3000" /> 
<circle cx="65.7823" cy="45.7750" r="0.3000" /> 
<circle cx="85.5000" cy="19.7500" r="0.3000" /> 
<circle cx="57.4988" cy="36.8370" r="0.4500" /> 
<circle cx="60.8500" cy="25.0500" r="0.3000" /> 
<circle cx="54.3037" cy="37.0217" r="0.4500" /> 
<circle cx="50.8500" cy="35.8000" r="0.3000" /> 
<circle cx="62.7500" cy="22.3000" r="0.3000" /> 
<circle cx="57.5000" cy="34.1500" r="0.3000" /> 
<circle cx="33.7000" cy="45.7000" r="0.3000" /> 
<circle cx="94.3000" cy="26.9000" r="0.4500" /> 
<circle cx="96.5000" cy="34.7500" r="0.4500" /> 
<circle cx="91.0000" cy="34.7500" r="0.4500" /> 
<circle cx="91.0000" cy="43.2500" r="0.4500" /> 
<circle cx="113.3641" cy="51.9912" r="0.3000" /> 
<circle cx="19.7275" cy="54.1668" r="0.3000" /> 
<circle cx="24.8247" cy="53.1521" r="0.3000" /> 
<circle cx="23.1460" cy="55.1820" r="0.3000" /> 
<circle cx="48.3453" cy="51.8379" r="0.3000" /> 
<circle cx="95.2500" cy="42.8000" r="0.4500" /> 
<circle cx="94.9804" cy="54.5930" r="0.4500" /> 
<circle cx="60.6500" cy="52.5500" r="0.3000" /> 
<circle cx="99.2500" cy="39.7500" r="0.4500" /> 
<circle cx="66.8000" cy="54.2500" r="0.3000" /> 
<circle cx="98.2000" cy="34.6600" r="0.4500" /> 
<circle cx="104.8537" cy="31.8368" r="0.4500" /> 
<circle cx="103.6760" cy="27.2019" r="0.4500" /> 
<circle cx="63.8695" cy="35.7336" r="0.3000" /> 
<circle cx="62.9882" cy="25.9293" r="0.3000" /> 
<circle cx="61.1481" cy="28.9394" r="0.3000" /> 
<circle cx="73.7938" cy="27.5354" r="0.3000" /> 
<circle cx="62.1145" cy="27.4347" r="0.3000" /> 
<circle cx="31.4000" cy="24.2000" r="0.4500" /> 
<circle cx="26.6000" cy="21.8000" r="0.4500" /> 
<circle cx="26.6000" cy="24.2000" r="0.4500" /> 
<circle cx="33.8000" cy="21.8000" r="0.4500" /> 
<circle cx="31.4000" cy="21.8000" r="0.4500" /> 
<circle cx="33.8000" cy="24.2000" r="0.4500" /> 
<circle cx="54.6753" cy="51.9757" r="0.3000" /> 
<circle cx="104.1988" cy="52.8843" r="0.3000" /> 
<circle cx="111.0322" cy="43.0051" r="0.3000" /> 
<circle cx="72.0550" cy="50.7757" r="0.3000" /> 
<circle cx="101.6932" cy="58.4658" r="0.3000" /> 
<circle cx="98.9616" cy="61.0565" r="0.3000" /> 
<circle cx="112.5065" cy="60.7924" r="0.3000" /> 
<circle cx="104.4511" cy="66.7392" r="0.3000" /> 
<circle cx="98.5609" cy="66.7332" r="0.3000" /> 
<circle cx="107.2858" cy="58.2786" r="0.3000" /> 
<circle cx="19.4709" cy="49.5110" r="0.3000" /> 
<circle cx="104.5213" cy="37.0965" r="0.3000" /> 
<circle cx="28.4008" cy="49.7930" r="0.3000" /> 
<circle cx="51.0081" cy="48.8125" r="0.3000" /> 
<circle cx="94.2500" cy="34.7500" r="0.4500" /> 
<circle cx="90.1500" cy="56.2000" r="0.3000" /> 
<circle cx="111.9500" cy="52.7500" r="0.3000" /> 
<circle cx="106.7000" cy="50.8500" r="0.3000" /> 
<circle cx="107.3500" cy="52.7500" r="0.3000" /> 
<circle cx="104.2500" cy="50.8000" r="0.3000" /> 
<circle cx="42.6200" cy="40.5000" r="0.3000" /> 
<circle cx="49.2800" cy="21.4000" r="0.3000" /> 
<circle cx="15.5000" cy="18.5000" r="0.4500" /> 
<circle cx="12.5000" cy="18.5000" r="0.4500" /> 
</g>
<g style="fill:none; 
stroke:#000000; stroke-width:0.2000; stroke-opacity:1; 
stroke-linecap:round; stroke-linejoin:round;">
<path d="M74.4455 28.1619
L74.4455 15.2855
" />
<path d="M67.3688 35.2386
L74.4455 28.1619
" />
<path d="M74.4455 15.2855
L74.1600 15.0000
" />
<path d="M67.0599 45.7750
L65.7823 45.7750
" />
<path d="M94.4800 18.3549
L67.0599 45.7750
" />
<path d="M94.4800 15.0000
L94.4800 18.3549
" />
</g>
<g style="fill:none; 
stroke:#000000; stroke-width:0.5000; stroke-opacity:1; 
stroke-linecap:round; stroke-linejoin:round;">
<path d="M60.3000 28.5000
L60.2500 28.5500
" />
<path d="M60.2000 28.7500
L60.2000 31.4500
" />
<path d="M60.8500 25.0500
L60.8500 27.8500
" />
<path d="M60.8500 27.8500
L60.3500 28.3500
" />
<path d="M60.2500 28.5500
L60.2500 28.7000
" />
<path d="M60.2500 28.7000
L60.2000 28.7500
" />
<path d="M60.3500 28.4000
L60.3000 28.4500
" />
<path d="M60.2000 31.4500
L57.5000 34.1500
" />
<path d="M60.3000 28.4500
L60.3000 28.5000
" />
<path d="M60.3500 28.3500
L60.3500 28.4000
" />
</g>
<g style="fill:none; 
stroke:#000000; stroke-width:0.2000; stroke-opacity:1; 
stroke-linecap:round; stroke-linejoin:round;">
<path d="M113.9187 60.3087
L113.9187 52.5458
" />
<path d="M117.5000 63.8900
L113.9187 60.3087
" />
<path d="M113.9187 52.5458
L113.3641 51.9912
" />
<path d="M24.8247 53.1521
L24.2543 53.1521
" />
<path d="M22.3800 55.0264
L22.3800 65.0000
" />
<path d="M24.2543 53.1521
L22.3800 55.0264
" />
</g>
<g style="fill:none; 
stroke:#000000; stroke-width:0.5000; stroke-opacity:1; 
stroke-linecap:round; stroke-linejoin:round;">
<path d="M66.8000 54.2500
L62.3500 54.2500
" />
<path d="M104.8537 28.3796
L104.8537 31.8368
" />
<path d="M103.6760 27.2019
L104.8537 28.3796
" />
<path d="M62.3500 54.2500
L60.6500 52.5500
" />
<path d="M104.8537 34.1463
L99.2500 39.7500
" />
<path d="M104.8537 31.8368
L104.8537 34.1463
" />
</g>
<g style="fill:none; 
stroke:#000000; stroke-width:0.2000; stroke-opacity:1; 
stroke-linecap:round; stroke-linejoin:round;">
<path d="M62.9882 34.8523
L62.9882 25.9293
" />
<path d="M63.8695 35.7336
L62.9882 34.8523
" />
<path d="M118.7187 36.4338
L117.8642 37.2883
" />
<path d="M117.5000 30.8700
L118.7187 32.0887
" />
<path d="M118.7187 32.0887
L118.7187 36.4338
" />
<path d="M116.2983 47.4217
L107.3200 56.4000
" />
<path d="M116.2983 37.8914
L116.2983 47.4217
" />
<path d="M116.9014 37.2883
L116.2983 37.8914
" />
<path d="M117.8642 37.2883
L116.9014 37.2883
" />
<path d="M102.2400 56.4000
L111.7772 46.8628
" />
<path d="M111.7772 46.8628
L111.7772 39.1328
" />
<path d="M111.7772 39.1328
L117.5000 33.4100
" />
<path d="M113.2768 47.9032
L113.2768 40.1732
" />
<path d="M104.7800 56.4000
L113.2768 47.9032
" />
<path d="M113.2768 40.1732
L117.5000 35.9500
" />
<path d="M111.0322 43.0051
L111.0322 45.0678
" />
<path d="M111.0322 45.0678
L99.7000 56.4000
" />
<path d="M70.7600 52.0707
L70.7600 59.5000
" />
<path d="M72.0550 50.7757
L70.7600 52.0707
" />
<path d="M107.2858 61.2958
L117.5000 71.5100
" />
<path d="M107.2858 58.2786
L107.2858 61.2958
" />
<path d="M49.3400 50.4806
L51.0081 48.8125
" />
<path d="M49.3400 59.5000
L49.3400 50.4806
" />
</g>
<g style="fill:none; 
stroke:#000000; stroke-width:0.5000; stroke-opacity:1; 
stroke-linecap:round; stroke-linejoin:round;">
<path d="M94.8000 53.5000
L99.6500 53.5000
" />
<path d="M91.6000 55.0000
L91.6500 55.0000
" />
<path d="M91.2500 55.1500
L91.3000 55.1500
" />
<path d="M102.9500 52.0500
L104.2000 50.8000
" />
<path d="M91.1000 55.2500
L91.1500 55.2500
" />
<path d="M91.1500 55.2500
L91.2500 55.1500
" />
<path d="M91.6500 55.0000
L91.7000 54.9500
" />
<path d="M91.3000 55.1500
L91.3500 55.1000
" />
<path d="M93.0500 54.9500
L94.2500 53.7500
" />
<path d="M94.4500 53.6500
L94.5000 53.6500
" />
<path d="M94.2500 53.7500
L94.3000 53.7500
" />
<path d="M90.1500 56.2000
L91.1000 55.2500
" />
<path d="M91.5500 55.0500
L91.6000 55.0000
" />
<path d="M94.4000 53.7000
L94.4500 53.6500
" />
<path d="M104.2000 50.8000
L104.2500 50.8000
" />
<path d="M94.3000 53.7500
L94.3500 53.7000
" />
<path d="M91.3500 55.1000
L91.4000 55.1000
" />
<path d="M94.5000 53.6500
L94.6000 53.5500
" />
<path d="M91.4000 55.1000
L91.4500 55.0500
" />
<path d="M94.3500 53.7000
L94.4000 53.7000
" />
<path d="M101.1000 52.0500
L102.9500 52.0500
" />
<path d="M94.7500 53.5500
L94.8000 53.5000
" />
<path d="M91.7000 54.9500
L93.0500 54.9500
" />
<path d="M99.6500 53.5000
L101.1000 52.0500
" />
<path d="M94.6000 53.5500
L94.7500 53.5500
" />
<path d="M91.4500 55.0500
L91.5500 55.0500
" />
</g>
<g style="fill:none; 
stroke:#000000; stroke-width:0.3000; stroke-opacity:1; 
stroke-linecap:round; stroke-linejoin:round;">
<path d="M42.6200 36.6600
L42.6200 40.5000
" />
<path d="M49.2800 21.4000
L49.2800 30.0000
" />
<path d="M49.2800 30.0000
L42.6200 36.6600
" />
</g>
<g style="fill:none; 
stroke:#000000; stroke-width:0.0500; stroke-opacity:1; 
stroke-linecap:round; stroke-linejoin:round;">
<path d="M1.0000 0.0000 A1.0000 1.0000 0.0 0 0 0.0000 1.0000" />
<path d="M0.0000 79.0000
L0.0000 1.0000
" />
<path d="M1.0000 0.0000
L149.0000 0.0000
" />
<path d="M0.0000 79.0000 A1.0000 1.0000 0.0 0 0 1.0000 80.0000" />
<path d="M150.0000 1.0000 A1.0000 1.0000 0.0 0 0 149.0000 0.0000" />
<path d="M149.0000 80.0000
L1.0000 80.0000
" />
<path d="M150.0000 1.0000
L150.0000 79.0000
" />
<path d="M149.0000 80.0000 A1.0000 1.0000 0.0 0 0 150.0000 79.0000" />
</g>
<g style="fill:#FFFFFF; fill-opacity:1.0000; stroke:none;">
<circle cx="45.2000" cy="21.2000" r="0.2000" /> 
<circle cx="43.4000" cy="19.4000" r="0.2000" /> 
<circle cx="51.2000" cy="26.0000" r="0.2000" /> 
<circle cx="53.0000" cy="19.4000" r="0.2000" /> 
<circle cx="53.0000" cy="24.2000" r="0.2000" /> 
<circle cx="64.5693" cy="30.9154" r="0.2000" /> 
<circle cx="108.9500" cy="44.6750" r="0.1500" /> 
<circle cx="13.5750" cy="50.4600" r="0.1500" /> 
<circle cx="77.1750" cy="45.9000" r="0.1500" /> 
<circle cx="90.7000" cy="40.4000" r="0.2000" /> 
<circle cx="85.0010" cy="55.3500" r="0.1500" /> 
<circle cx="101.6380" cy="51.0387" r="0.2000" /> 
<circle cx="115.8979" cy="54.7639" r="0.2000" /> 
<circle cx="90.7000" cy="42.2000" r="0.2000" /> 
<circle cx="97.6000" cy="37.5620" r="0.2000" /> 
<circle cx="67.5005" cy="16.8054" r="0.2000" /> 
<circle cx="77.1750" cy="34.7000" r="0.1500" /> 
<circle cx="99.8750" cy="44.5750" r="0.2000" /> 
<circle cx="92.3500" cy="34.6600" r="0.2000" /> 
<circle cx="93.6000" cy="41.8000" r="0.2000" /> 
<circle cx="96.0000" cy="41.8000" r="0.2000" /> 
<circle cx="92.9000" cy="37.5620" r="0.2000" /> 
<circle cx="50.9650" cy="40.8750" r="0.1500" /> 
<circle cx="111.3834" cy="37.2670" r="0.2000" /> 
<circle cx="62.3620" cy="38.1500" r="0.1500" /> 
<circle cx="88.9271" cy="62.8926" r="0.2000" /> 
<circle cx="145.0000" cy="70.0000" r="0.2000" /> 
<circle cx="79.9740" cy="20.7620" r="0.1500" /> 
<circle cx="94.3000" cy="20.9380" r="0.1500" /> 
<circle cx="41.7500" cy="44.6750" r="0.1500" /> 
<circle cx="24.0000" cy="49.1900" r="0.1500" /> 
<circle cx="114.9005" cy="44.8505" r="0.2000" /> 
<circle cx="115.8853" cy="59.7278" r="0.2000" /> 
<circle cx="19.2755" cy="60.7649" r="0.2000" /> 
<circle cx="106.2932" cy="30.9995" r="0.2000" /> 
<circle cx="90.7000" cy="36.4000" r="0.2000" /> 
<circle cx="90.6000" cy="51.2125" r="0.2000" /> 
<circle cx="90.7000" cy="38.4000" r="0.2000" /> 
<circle cx="77.1750" cy="48.5500" r="0.1500" /> 
<circle cx="20.0000" cy="40.0000" r="0.2000" /> 
<circle cx="77.1750" cy="40.0000" r="0.1500" /> 
<circle cx="92.9500" cy="29.7500" r="0.2000" /> 
<circle cx="40.0000" cy="20.0000" r="0.2000" /> 
<circle cx="70.3010" cy="29.4000" r="0.1500" /> 
<circle cx="99.3000" cy="34.6600" r="0.2000" /> 
<circle cx="52.2350" cy="40.8750" r="0.1500" /> 
<circle cx="61.7620" cy="24.3000" r="0.1500" /> 
<circle cx="145.0000" cy="50.0000" r="0.2000" /> 
<circle cx="65.6880" cy="19.5500" r="0.1500" /> 
<circle cx="5.5000" cy="31.0900" r="0.1500" /> 
<circle cx="72.8380" cy="21.7500" r="0.1500" /> 
<circle cx="78.7370" cy="42.9500" r="0.1500" /> 
<circle cx="70.3010" cy="25.5500" r="0.1500" /> 
<circle cx="57.3850" cy="39.6000" r="0.1500" /> 
<circle cx="5.0000" cy="70.0000" r="0.2000" /> 
<circle cx="19.8500" cy="33.3230" r="0.1500" /> 
<circle cx="77.5500" cy="19.4370" r="0.1500" /> 
<circle cx="95.4000" cy="34.6600" r="0.2000" /> 
<circle cx="103.5370" cy="18.6000" r="0.1500" /> 
<circle cx="5.7500" cy="34.7550" r="0.1500" /> 
<circle cx="44.5480" cy="55.6363" r="0.2000" /> 
<circle cx="104.1250" cy="25.9650" r="0.1500" /> 
<circle cx="110.2630" cy="22.2000" r="0.1500" /> 
<circle cx="77.1750" cy="29.4000" r="0.1500" /> 
<circle cx="95.8000" cy="29.7000" r="0.2000" /> 
<circle cx="90.6000" cy="48.2500" r="0.2000" /> 
<circle cx="55.5000" cy="49.2300" r="0.1500" /> 
<circle cx="95.2500" cy="37.5620" r="0.2000" /> 
<circle cx="5.0000" cy="50.0000" r="0.2000" /> 
<circle cx="113.6000" cy="33.7630" r="0.1500" /> 
<circle cx="61.9750" cy="52.5150" r="0.1500" /> 
<circle cx="34.4250" cy="57.0400" r="0.1500" /> 
<circle cx="10.0000" cy="60.0000" r="0.2000" /> 
<circle cx="89.4000" cy="29.7500" r="0.2000" /> 
<circle cx="77.1750" cy="37.3500" r="0.1500" /> 
<circle cx="98.4500" cy="29.7000" r="0.2000" /> 
<circle cx="24.0000" cy="56.8100" r="0.1500" /> 
<circle cx="5.0000" cy="10.0000" r="0.2000" /> 
<circle cx="77.1750" cy="32.0500" r="0.1500" /> 
<circle cx="55.5000" cy="54.3100" r="0.1500" /> 
<circle cx="13.5750" cy="54.2700" r="0.1500" /> 
<circle cx="85.0000" cy="30.0000" r="0.2000" /> 
<circle cx="68.2130" cy="28.3000" r="0.1500" /> 
<circle cx="35.0000" cy="30.0000" r="0.2000" /> 
<circle cx="145.0000" cy="30.0000" r="0.2000" /> 
<circle cx="38.0750" cy="39.0800" r="0.1500" /> 
<circle cx="34.5500" cy="48.9400" r="0.1500" /> 
<circle cx="67.3688" cy="35.2386" r="0.1500" /> 
<circle cx="65.7823" cy="45.7750" r="0.1500" /> 
<circle cx="85.5000" cy="19.7500" r="0.1500" /> 
<circle cx="57.4988" cy="36.8370" r="0.2000" /> 
<circle cx="60.8500" cy="25.0500" r="0.1500" /> 
<circle cx="54.3037" cy="37.0217" r="0.2000" /> 
<circle cx="50.8500" cy="35.8000" r="0.1500" /> 
<circle cx="62.7500" cy="22.3000" r="0.1500" /> 
<circle cx="57.5000" cy="34.1500" r="0.1500" /> 
<circle cx="33.7000" cy="45.7000" r="0.1500" /> 
<circle cx="94.3000" cy="26.9000" r="0.2000" /> 
<circle cx="96.5000" cy="34.7500" r="0.2000" /> 
<circle cx="91.0000" cy="34.7500" r="0.2000" /> 
<circle cx="91.0000" cy="43.2500" r="0.2000" /> 
<circle cx="113.3641" cy="51.9912" r="0.1500" /> 
<circle cx="19.7275" cy="54.1668" r="0.1500" /> 
<circle cx="24.8247" cy="53.1521" r="0.1500" /> 
<circle cx="23.1460" cy="55.1820" r="0.1500" /> 
<circle cx="48.3453" cy="51.8379" r="0.1500" /> 
<circle cx="95.2500" cy="42.8000" r="0.2000" /> 
<circle cx="94.9804" cy="54.5930" r="0.2000" /> 
<circle cx="60.6500" cy="52.5500" r="0.1500" /> 
<circle cx="99.2500" cy="39.7500" r="0.2000" /> 
<circle cx="66.8000" cy="54.2500" r="0.1500" /> 
<circle cx="98.2000" cy="34.6600" r="0.2000" /> 
<circle cx="104.8537" cy="31.8368" r="0.2000" /> 
<circle cx="103.6760" cy="27.2019" r="0.2000" /> 
<circle cx="63.8695" cy="35.7336" r="0.1500" /> 
<circle cx="62.9882" cy="25.9293" r="0.1500" /> 
<circle cx="61.1481" cy="28.9394" r="0.1500" /> 
<circle cx="73.7938" cy="27.5354" r="0.1500" /> 
<circle cx="62.1145" cy="27.4347" r="0.1500" /> 
<circle cx="31.4000" cy="24.2000" r="0.2000" /> 
<circle cx="26.6000" cy="21.8000" r="0.2000" /> 
<circle cx="26.6000" cy="24.2000" r="0.2000" /> 
<circle cx="33.8000" cy="21.8000" r="0.2000" /> 
<circle cx="31.4000" cy="21.8000" r="0.2000" /> 
<circle cx="33.8000" cy="24.2000" r="0.2000" /> 
<circle cx="54.6753" cy="51.9757" r="0.1500" /> 
<circle cx="104.1988" cy="52.8843" r="0.1500" /> 
<circle cx="111.0322" cy="43.0051" r="0.1500" /> 
<circle cx="72.0550" cy="50.7757" r="0.1500" /> 
<circle cx="101.6932" cy="58.4658" r="0.1500" /> 
<circle cx="98.9616" cy="61.0565" r="0.1500" /> 
<circle cx="112.5065" cy="60.7924" r="0.1500" /> 
<circle cx="104.4511" cy="66.7392" r="0.1500" /> 
<circle cx="98.5609" cy="66.7332" r="0.1500" /> 
<circle cx="107.2858" cy="58.2786" r="0.1500" /> 
<circle cx="19.4709" cy="49.5110" r="0.1500" /> 
<circle cx="104.5213" cy="37.0965" r="0.1500" /> 
<circle cx="28.4008" cy="49.7930" r="0.1500" /> 
<circle cx="51.0081" cy="48.8125" r="0.1500" /> 
<circle cx="94.2500" cy="34.7500" r="0.2000" /> 
<circle cx="90.1500" cy="56.2000" r="0.1500" /> 
<circle cx="111.9500" cy="52.7500" r="0.1500" /> 
<circle cx="106.7000" cy="50.8500" r="0.1500" /> 
<circle cx="107.3500" cy="52.7500" r="0.1500" /> 
<circle cx="104.2500" cy="50.8000" r="0.1500" /> 
<circle cx="42.6200" cy="40.5000" r="0.1500" /> 
<circle cx="49.2800" cy="21.4000" r="0.1500" /> 
<circle cx="15.5000" cy="18.5000" r="0.2000" /> 
<circle cx="12.5000" cy="18.5000" r="0.2000" /> 
</g>
<g style="fill:#c8cdd0; fill-opacity:1.0000; stroke:none;">
<circle cx="41.5000" cy="3.0000" r="1.6000" /> 
<circle cx="56.1200" cy="3.0000" r="1.6000" /> 
</g>
<g style="fill:#FFFFFF; fill-opacity:1.0000; stroke:none;">
<circle cx="45.0000" cy="15.0000" r="1.2000" /> 
</g>
<g style="fill:#FFFFFF; fill-opacity:1.0000; stroke:none;">
<circle cx="52.6200" cy="15.0000" r="1.2000" /> 
</g>
<g style="fill:#c8cdd0; fill-opacity:1.0000; stroke:none;">
<circle cx="60.5000" cy="3.0000" r="1.6000" /> 
<circle cx="113.2200" cy="3.0000" r="1.6000" /> 
</g>
<g style="fill:#FFFFFF; fill-opacity:1.0000; stroke:none;">
<circle cx="64.0000" cy="15.0000" r="0.6000" /> 
</g>
<g style="fill:#FFFFFF; fill-opacity:1.0000; stroke:none;">
<circle cx="69.0800" cy="15.0000" r="0.6000" /> 
</g>
<g style="fill:#FFFFFF; fill-opacity:1.0000; stroke:none;">
<circle cx="74.1600" cy="15.0000" r="0.6000" /> 
</g>
<g style="fill:#FFFFFF; fill-opacity:1.0000; stroke:none;">
<circle cx="79.2400" cy="15.0000" r="0.6000" /> 
</g>
<g style="fill:#FFFFFF; fill-opacity:1.0000; stroke:none;">
<circle cx="84.3200" cy="15.0000" r="0.6000" /> 
</g>
<g style="fill:#FFFFFF; fill-opacity:1.0000; stroke:none;">
<circle cx="89.4000" cy="15.0000" r="0.6000" /> 
</g>
<g style="fill:#FFFFFF; fill-opacity:1.0000; stroke:none;">
<circle cx="94.4800" cy="15.0000" r="0.6000" /> 
</g>
<g style="fill:#FFFFFF; fill-opacity:1.0000; stroke:none;">
<circle cx="99.5600" cy="15.0000" r="0.6000" /> 
</g>
<g style="fill:#FFFFFF; fill-opacity:1.0000; stroke:none;">
<circle cx="104.6400" cy="15.0000" r="0.6000" /> 
</g>
<g style="fill:#FFFFFF; fill-opacity:1.0000; stroke:none;">
<circle cx="109.7200" cy="15.0000" r="0.6000" /> 
</g>
<g style="fill:#c8cdd0; fill-opacity:1.0000; stroke:none;">
<circle cx="146.0000" cy="4.0000" r="1.6000" /> 
<circle cx="33.5000" cy="77.0000" r="1.6000" /> 
<circle cx="13.8000" cy="77.0000" r="1.6000" /> 
</g>
<g style="fill:#FFFFFF; fill-opacity:1.0000; stroke:none;">
<circle cx="30.0000" cy="65.0000" r="0.5000" /> 
</g>
<g style="fill:#FFFFFF; fill-opacity:1.0000; stroke:none;">
<circle cx="27.4600" cy="65.0000" r="0.5000" /> 
</g>
<g style="fill:#FFFFFF; fill-opacity:1.0000; stroke:none;">
<circle cx="24.9200" cy="65.0000" r="0.5000" /> 
</g>
<g style="fill:#FFFFFF; fill-opacity:1.0000; stroke:none;">
<circle cx="22.3800" cy="65.0000" r="0.5000" /> 
</g>
<g style="fill:#FFFFFF; fill-opacity:1.0000; stroke:none;">
<circle cx="19.8400" cy="65.0000" r="0.5000" /> 
</g>
<g style="fill:#FFFFFF; fill-opacity:1.0000; stroke:none;">
<circle cx="17.3000" cy="65.0000" r="0.5000" /> 
</g>
<g style="fill:#c8cdd0; fill-opacity:1.0000; stroke:none;">
<circle cx="4.0000" cy="4.0000" r="1.6000" /> 
<circle cx="29.5000" cy="3.0000" r="1.6000" /> 
<circle cx="36.5000" cy="3.0000" r="1.6000" /> 
</g>
<g style="fill:#FFFFFF; fill-opacity:1.0000; stroke:none;">
<circle cx="33.0000" cy="15.0000" r="1.2000" /> 
</g>
<g style="fill:#FFFFFF; fill-opacity:1.0000; stroke:none;">
<circle cx="27.0000" cy="34.0000" r="0.5500" /> 
</g>
<g style="fill:#FFFFFF; fill-opacity:1.0000; stroke:none;">
<circle cx="27.0000" cy="36.5400" r="0.5500" /> 
</g>
<g style="fill:#FFFFFF; fill-opacity:1.0000; stroke:none;">
<circle cx="27.0000" cy="39.0800" r="0.5500" /> 
</g>
<g style="fill:#FFFFFF; fill-opacity:1.0000; stroke:none;">
<circle cx="117.5000" cy="23.2500" r="0.5000" /> 
</g>
<g style="fill:#FFFFFF; fill-opacity:1.0000; stroke:none;">
<circle cx="117.5000" cy="25.7900" r="0.5000" /> 
</g>
<g style="fill:#FFFFFF; fill-opacity:1.0000; stroke:none;">
<circle cx="117.5000" cy="28.3300" r="0.5000" /> 
</g>
<g style="fill:#FFFFFF; fill-opacity:1.0000; stroke:none;">
<circle cx="117.5000" cy="30.8700" r="0.5000" /> 
</g>
<g style="fill:#FFFFFF; fill-opacity:1.0000; stroke:none;">
<circle cx="117.5000" cy="33.4100" r="0.5000" /> 
</g>
<g style="fill:#FFFFFF; fill-opacity:1.0000; stroke:none;">
<circle cx="117.5000" cy="35.9500" r="0.5000" /> 
</g>
<g style="fill:#FFFFFF; fill-opacity:1.0000; stroke:none;">
<circle cx="117.5000" cy="38.4900" r="0.5000" /> 
</g>
<g style="fill:#FFFFFF; fill-opacity:1.0000; stroke:none;">
<circle cx="117.5000" cy="41.0300" r="0.5000" /> 
</g>
<g style="fill:#FFFFFF; fill-opacity:1.0000; stroke:none;">
<circle cx="117.5000" cy="43.5700" r="0.5000" /> 
</g>
<g style="fill:#FFFFFF; fill-opacity:1.0000; stroke:none;">
<circle cx="117.5000" cy="46.1100" r="0.5000" /> 
</g>
<g style="fill:#FFFFFF; fill-opacity:1.0000; stroke:none;">
<circle cx="117.5000" cy="48.6500" r="0.5000" /> 
</g>
<g style="fill:#FFFFFF; fill-opacity:1.0000; stroke:none;">
<circle cx="117.5000" cy="51.1900" r="0.5000" /> 
</g>
<g style="fill:#FFFFFF; fill-opacity:1.0000; stroke:none;">
<circle cx="117.5000" cy="53.7300" r="0.5000" /> 
</g>
<g style="fill:#FFFFFF; fill-opacity:1.0000; stroke:none;">
<circle cx="117.5000" cy="56.2700" r="0.5000" /> 
</g>
<g style="fill:#FFFFFF; fill-opacity:1.0000; stroke:none;">
<circle cx="117.5000" cy="58.8100" r="0.5000" /> 
</g>
<g style="fill:#FFFFFF; fill-opacity:1.0000; stroke:none;">
<circle cx="117.5000" cy="61.3500" r="0.5000" /> 
</g>
<g style="fill:#FFFFFF; fill-opacity:1.0000; stroke:none;">
<circle cx="117.5000" cy="63.8900" r="0.5000" /> 
</g>
<g style="fill:#FFFFFF; fill-opacity:1.0000; stroke:none;">
<circle cx="117.5000" cy="66.4300" r="0.5000" /> 
</g>
<g style="fill:#FFFFFF; fill-opacity:1.0000; stroke:none;">
<circle cx="117.5000" cy="68.9700" r="0.5000" /> 
</g>
<g style="fill:#FFFFFF; fill-opacity:1.0000; stroke:none;">
<circle cx="117.5000" cy="71.5100" r="0.5000" /> 
</g>
<g style="fill:#FFFFFF; fill-opacity:1.0000; stroke:none;">
<circle cx="117.5000" cy="74.0500" r="0.5000" /> 
</g>
<g style="fill:#FFFFFF; fill-opacity:1.0000; stroke:none;">
<circle cx="117.5000" cy="76.5900" r="0.5000" /> 
</g>
<g style="fill:#FFFFFF; fill-opacity:1.0000; stroke:none;">
<circle cx="140.3600" cy="23.2500" r="0.5000" /> 
</g>
<g style="fill:#FFFFFF; fill-opacity:1.0000; stroke:none;">
<circle cx="140.3600" cy="25.7900" r="0.5000" /> 
</g>
<g style="fill:#FFFFFF; fill-opacity:1.0000; stroke:none;">
<circle cx="140.3600" cy="28.3300" r="0.5000" /> 
</g>
<g style="fill:#FFFFFF; fill-opacity:1.0000; stroke:none;">
<circle cx="140.3600" cy="30.8700" r="0.5000" /> 
</g>
<g style="fill:#FFFFFF; fill-opacity:1.0000; stroke:none;">
<circle cx="140.3600" cy="33.4100" r="0.5000" /> 
</g>
<g style="fill:#FFFFFF; fill-opacity:1.0000; stroke:none;">
<circle cx="140.3600" cy="35.9500" r="0.5000" /> 
</g>
<g style="fill:#FFFFFF; fill-opacity:1.0000; stroke:none;">
<circle cx="140.3600" cy="38.4900" r="0.5000" /> 
</g>
<g style="fill:#FFFFFF; fill-opacity:1.0000; stroke:none;">
<circle cx="140.3600" cy="41.0300" r="0.5000" /> 
</g>
<g style="fill:#FFFFFF; fill-opacity:1.0000; stroke:none;">
<circle cx="140.3600" cy="43.5700" r="0.5000" /> 
</g>
<g style="fill:#FFFFFF; fill-opacity:1.0000; stroke:none;">
<circle cx="140.3600" cy="46.1100" r="0.5000" /> 
</g>
<g style="fill:#FFFFFF; fill-opacity:1.0000; stroke:none;">
<circle cx="140.3600" cy="48.6500" r="0.5000" /> 
</g>
<g style="fill:#FFFFFF; fill-opacity:1.0000; stroke:none;">
<circle cx="140.3600" cy="51.1900" r="0.5000" /> 
</g>
<g style="fill:#FFFFFF; fill-opacity:1.0000; stroke:none;">
<circle cx="140.3600" cy="53.7300" r="0.5000" /> 
</g>
<g style="fill:#FFFFFF; fill-opacity:1.0000; stroke:none;">
<circle cx="140.3600" cy="56.2700" r="0.5000" /> 
</g>
<g style="fill:#FFFFFF; fill-opacity:1.0000; stroke:none;">
<circle cx="140.3600" cy="58.8100" r="0.5000" /> 
</g>
<g style="fill:#FFFFFF; fill-opacity:1.0000; stroke:none;">
<circle cx="140.3600" cy="61.3500" r="0.5000" /> 
</g>
<g style="fill:#FFFFFF; fill-opacity:1.0000; stroke:none;">
<circle cx="140.3600" cy="63.8900" r="0.5000" /> 
</g>
<g style="fill:#FFFFFF; fill-opacity:1.0000; stroke:none;">
<circle cx="140.3600" cy="66.4300" r="0.5000" /> 
</g>
<g style="fill:#FFFFFF; fill-opacity:1.0000; stroke:none;">
<circle cx="140.3600" cy="68.9700" r="0.5000" /> 
</g>
<g style="fill:#FFFFFF; fill-opacity:1.0000; stroke:none;">
<circle cx="140.3600" cy="71.5100" r="0.5000" /> 
</g>
<g style="fill:#FFFFFF; fill-opacity:1.0000; stroke:none;">
<circle cx="140.3600" cy="74.0500" r="0.5000" /> 
</g>
<g style="fill:#FFFFFF; fill-opacity:1.0000; stroke:none;">
<circle cx="140.3600" cy="76.5900" r="0.5000" /> 
</g>
<g style="fill:#c8cdd0; fill-opacity:1.0000; stroke:none;">
<circle cx="146.0000" cy="76.0000" r="1.6000" /> 
</g>
<g style="fill:#FFFFFF; fill-opacity:1.0000; stroke:none;">
<circle cx="13.0000" cy="34.0000" r="0.5500" /> 
</g>
<g style="fill:#FFFFFF; fill-opacity:1.0000; stroke:none;">
<circle cx="13.0000" cy="36.5400" r="0.5500" /> 
</g>
<g style="fill:#FFFFFF; fill-opacity:1.0000; stroke:none;">
<circle cx="13.0000" cy="39.0800" r="0.5500" /> 
</g>
<g style="fill:#FFFFFF; fill-opacity:1.0000; stroke:none;">
<circle cx="59.5000" cy="59.5000" r="0.5000" /> 
</g>
<g style="fill:#FFFFFF; fill-opacity:1.0000; stroke:none;">
<circle cx="56.9600" cy="59.5000" r="0.5000" /> 
</g>
<g style="fill:#FFFFFF; fill-opacity:1.0000; stroke:none;">
<circle cx="54.4200" cy="59.5000" r="0.5000" /> 
</g>
<g style="fill:#FFFFFF; fill-opacity:1.0000; stroke:none;">
<circle cx="51.8800" cy="59.5000" r="0.5000" /> 
</g>
<g style="fill:#FFFFFF; fill-opacity:1.0000; stroke:none;">
<circle cx="49.3400" cy="59.5000" r="0.5000" /> 
</g>
<g style="fill:#FFFFFF; fill-opacity:1.0000; stroke:none;">
<circle cx="46.8000" cy="59.5000" r="0.5000" /> 
</g>
<g style="fill:#FFFFFF; fill-opacity:1.0000; stroke:none;">
<circle cx="44.2600" cy="59.5000" r="0.5000" /> 
</g>
<g style="fill:#FFFFFF; fill-opacity:1.0000; stroke:none;">
<circle cx="41.7200" cy="59.5000" r="0.5000" /> 
</g>
<g style="fill:#FFFFFF; fill-opacity:1.0000; stroke:none;">
<circle cx="39.1800" cy="59.5000" r="0.5000" /> 
</g>
<g style="fill:#FFFFFF; fill-opacity:1.0000; stroke:none;">
<circle cx="38.0000" cy="53.0000" r="0.5000" /> 
</g>
<g style="fill:#FFFFFF; fill-opacity:1.0000; stroke:none;">
<circle cx="40.5400" cy="53.0000" r="0.5000" /> 
</g>
<g style="fill:#FFFFFF; fill-opacity:1.0000; stroke:none;">
<circle cx="14.0000" cy="21.0000" r="0.8900" /> 
</g>
<g style="fill:#FFFFFF; fill-opacity:1.0000; stroke:none;">
<circle cx="14.0000" cy="24.4000" r="0.8900" /> 
</g>
<g style="fill:#FFFFFF; fill-opacity:1.0000; stroke:none;">
<circle cx="23.9200" cy="21.0000" r="0.8900" /> 
</g>
<g style="fill:#FFFFFF; fill-opacity:1.0000; stroke:none;">
<circle cx="23.9200" cy="24.4000" r="0.8900" /> 
</g>
<g style="fill:#FFFFFF; fill-opacity:1.0000; stroke:none;">
<circle cx="86.0000" cy="59.5000" r="0.5000" /> 
</g>
<g style="fill:#FFFFFF; fill-opacity:1.0000; stroke:none;">
<circle cx="83.4600" cy="59.5000" r="0.5000" /> 
</g>
<g style="fill:#FFFFFF; fill-opacity:1.0000; stroke:none;">
<circle cx="80.9200" cy="59.5000" r="0.5000" /> 
</g>
<g style="fill:#FFFFFF; fill-opacity:1.0000; stroke:none;">
<circle cx="78.3800" cy="59.5000" r="0.5000" /> 
</g>
<g style="fill:#FFFFFF; fill-opacity:1.0000; stroke:none;">
<circle cx="75.8400" cy="59.5000" r="0.5000" /> 
</g>
<g style="fill:#FFFFFF; fill-opacity:1.0000; stroke:none;">
<circle cx="73.3000" cy="59.5000" r="0.5000" /> 
</g>
<g style="fill:#FFFFFF; fill-opacity:1.0000; stroke:none;">
<circle cx="70.7600" cy="59.5000" r="0.5000" /> 
</g>
<g style="fill:#FFFFFF; fill-opacity:1.0000; stroke:none;">
<circle cx="68.2200" cy="59.5000" r="0.5000" /> 
</g>
<g style="fill:#FFFFFF; fill-opacity:1.0000; stroke:none;">
<circle cx="65.6800" cy="59.5000" r="0.5000" /> 
</g>
<g style="fill:#c8cdd0; fill-opacity:1.0000; stroke:none;">
<circle cx="10.5000" cy="3.0000" r="1.6000" /> 
<circle cx="25.1200" cy="3.0000" r="1.6000" /> 
</g>
<g style="fill:#FFFFFF; fill-opacity:1.0000; stroke:none;">
<circle cx="14.0000" cy="15.0000" r="1.2000" /> 
</g>
<g style="fill:#FFFFFF; fill-opacity:1.0000; stroke:none;">
<circle cx="21.6200" cy="15.0000" r="1.2000" /> 
</g>
<g style="fill:#c8cdd0; fill-opacity:1.0000; stroke:none;">
<circle cx="112.4000" cy="74.1800" r="1.3500" /> 
<circle cx="92.0800" cy="74.1800" r="1.3500" /> 
</g>
<g style="fill:#FFFFFF; fill-opacity:1.0000; stroke:none;">
<circle cx="112.4000" cy="56.4000" r="0.5000" /> 
</g>
<g style="fill:#FFFFFF; fill-opacity:1.0000; stroke:none;">
<circle cx="109.8600" cy="56.4000" r="0.5000" /> 
</g>
<g style="fill:#FFFFFF; fill-opacity:1.0000; stroke:none;">
<circle cx="107.3200" cy="56.4000" r="0.5000" /> 
</g>
<g style="fill:#FFFFFF; fill-opacity:1.0000; stroke:none;">
<circle cx="104.7800" cy="56.4000" r="0.5000" /> 
</g>
<g style="fill:#FFFFFF; fill-opacity:1.0000; stroke:none;">
<circle cx="102.2400" cy="56.4000" r="0.5000" /> 
</g>
<g style="fill:#FFFFFF; fill-opacity:1.0000; stroke:none;">
<circle cx="99.7000" cy="56.4000" r="0.5000" /> 
</g>
<g style="fill:#FFFFFF; fill-opacity:1.0000; stroke:none;">
<circle cx="97.1600" cy="56.4000" r="0.5000" /> 
</g>
<g style="fill:#FFFFFF; fill-opacity:1.0000; stroke:none;">
<circle cx="94.6200" cy="56.4000" r="0.5000" /> 
</g>
<g style="fill:#FFFFFF; fill-opacity:1.0000; stroke:none;">
<circle cx="92.0800" cy="56.4000" r="0.5000" /> 
</g>
<g style="fill:#c8cdd0; fill-opacity:1.0000; stroke:none;">
<circle cx="4.0000" cy="76.0000" r="1.6000" /> 
</g> 
</svg>
