%TF.GenerationSoftware,KiCad,Pcbnew,10.0.6*%
%TF.CreationDate,2026-10-04T14:02:21+02:00*%
%TF.ProjectId,P09,5030392e-6b69-4636-9164-5f7063625858,P09-R2 PCB*%
%TF.SameCoordinates,Original*%
%TF.FileFunction,Legend,Bot*%
%TF.FilePolarity,Positive*%
%FSLAX46Y46*%
G04 Gerber Fmt 4.6, Leading zero omitted, Abs format (unit mm)*
G04 Created by KiCad (PCBNEW 10.0.6) date 2026-10-04 14:02:21*
%MOMM*%
%LPD*%
G01*
G04 APERTURE LIST*
%ADD10C,0.150000*%
%ADD11C,0.120000*%
G04 APERTURE END LIST*
D10*
X12539819Y-11947142D02*
X12063628Y-11613809D01*
X12539819Y-11375714D02*
X11539819Y-11375714D01*
X11539819Y-11375714D02*
X11539819Y-11756666D01*
X11539819Y-11756666D02*
X11587438Y-11851904D01*
X11587438Y-11851904D02*
X11635057Y-11899523D01*
X11635057Y-11899523D02*
X11730295Y-11947142D01*
X11730295Y-11947142D02*
X11873152Y-11947142D01*
X11873152Y-11947142D02*
X11968390Y-11899523D01*
X11968390Y-11899523D02*
X12016009Y-11851904D01*
X12016009Y-11851904D02*
X12063628Y-11756666D01*
X12063628Y-11756666D02*
X12063628Y-11375714D01*
X11635057Y-12328095D02*
X11587438Y-12375714D01*
X11587438Y-12375714D02*
X11539819Y-12470952D01*
X11539819Y-12470952D02*
X11539819Y-12709047D01*
X11539819Y-12709047D02*
X11587438Y-12804285D01*
X11587438Y-12804285D02*
X11635057Y-12851904D01*
X11635057Y-12851904D02*
X11730295Y-12899523D01*
X11730295Y-12899523D02*
X11825533Y-12899523D01*
X11825533Y-12899523D02*
X11968390Y-12851904D01*
X11968390Y-12851904D02*
X12539819Y-12280476D01*
X12539819Y-12280476D02*
X12539819Y-12899523D01*
X12539819Y-13851904D02*
X12539819Y-13280476D01*
X12539819Y-13566190D02*
X11539819Y-13566190D01*
X11539819Y-13566190D02*
X11682676Y-13470952D01*
X11682676Y-13470952D02*
X11777914Y-13375714D01*
X11777914Y-13375714D02*
X11825533Y-13280476D01*
X21217857Y-54429818D02*
X21551190Y-53953627D01*
X21789285Y-54429818D02*
X21789285Y-53429818D01*
X21789285Y-53429818D02*
X21408333Y-53429818D01*
X21408333Y-53429818D02*
X21313095Y-53477437D01*
X21313095Y-53477437D02*
X21265476Y-53525056D01*
X21265476Y-53525056D02*
X21217857Y-53620294D01*
X21217857Y-53620294D02*
X21217857Y-53763151D01*
X21217857Y-53763151D02*
X21265476Y-53858389D01*
X21265476Y-53858389D02*
X21313095Y-53906008D01*
X21313095Y-53906008D02*
X21408333Y-53953627D01*
X21408333Y-53953627D02*
X21789285Y-53953627D01*
X20836904Y-53525056D02*
X20789285Y-53477437D01*
X20789285Y-53477437D02*
X20694047Y-53429818D01*
X20694047Y-53429818D02*
X20455952Y-53429818D01*
X20455952Y-53429818D02*
X20360714Y-53477437D01*
X20360714Y-53477437D02*
X20313095Y-53525056D01*
X20313095Y-53525056D02*
X20265476Y-53620294D01*
X20265476Y-53620294D02*
X20265476Y-53715532D01*
X20265476Y-53715532D02*
X20313095Y-53858389D01*
X20313095Y-53858389D02*
X20884523Y-54429818D01*
X20884523Y-54429818D02*
X20265476Y-54429818D01*
X19789285Y-54429818D02*
X19598809Y-54429818D01*
X19598809Y-54429818D02*
X19503571Y-54382199D01*
X19503571Y-54382199D02*
X19455952Y-54334579D01*
X19455952Y-54334579D02*
X19360714Y-54191722D01*
X19360714Y-54191722D02*
X19313095Y-54001246D01*
X19313095Y-54001246D02*
X19313095Y-53620294D01*
X19313095Y-53620294D02*
X19360714Y-53525056D01*
X19360714Y-53525056D02*
X19408333Y-53477437D01*
X19408333Y-53477437D02*
X19503571Y-53429818D01*
X19503571Y-53429818D02*
X19694047Y-53429818D01*
X19694047Y-53429818D02*
X19789285Y-53477437D01*
X19789285Y-53477437D02*
X19836904Y-53525056D01*
X19836904Y-53525056D02*
X19884523Y-53620294D01*
X19884523Y-53620294D02*
X19884523Y-53858389D01*
X19884523Y-53858389D02*
X19836904Y-53953627D01*
X19836904Y-53953627D02*
X19789285Y-54001246D01*
X19789285Y-54001246D02*
X19694047Y-54048865D01*
X19694047Y-54048865D02*
X19503571Y-54048865D01*
X19503571Y-54048865D02*
X19408333Y-54001246D01*
X19408333Y-54001246D02*
X19360714Y-53953627D01*
X19360714Y-53953627D02*
X19313095Y-53858389D01*
X15117857Y-53659819D02*
X15451190Y-53183628D01*
X15689285Y-53659819D02*
X15689285Y-52659819D01*
X15689285Y-52659819D02*
X15308333Y-52659819D01*
X15308333Y-52659819D02*
X15213095Y-52707438D01*
X15213095Y-52707438D02*
X15165476Y-52755057D01*
X15165476Y-52755057D02*
X15117857Y-52850295D01*
X15117857Y-52850295D02*
X15117857Y-52993152D01*
X15117857Y-52993152D02*
X15165476Y-53088390D01*
X15165476Y-53088390D02*
X15213095Y-53136009D01*
X15213095Y-53136009D02*
X15308333Y-53183628D01*
X15308333Y-53183628D02*
X15689285Y-53183628D01*
X14784523Y-52659819D02*
X14165476Y-52659819D01*
X14165476Y-52659819D02*
X14498809Y-53040771D01*
X14498809Y-53040771D02*
X14355952Y-53040771D01*
X14355952Y-53040771D02*
X14260714Y-53088390D01*
X14260714Y-53088390D02*
X14213095Y-53136009D01*
X14213095Y-53136009D02*
X14165476Y-53231247D01*
X14165476Y-53231247D02*
X14165476Y-53469342D01*
X14165476Y-53469342D02*
X14213095Y-53564580D01*
X14213095Y-53564580D02*
X14260714Y-53612200D01*
X14260714Y-53612200D02*
X14355952Y-53659819D01*
X14355952Y-53659819D02*
X14641666Y-53659819D01*
X14641666Y-53659819D02*
X14736904Y-53612200D01*
X14736904Y-53612200D02*
X14784523Y-53564580D01*
X13546428Y-52659819D02*
X13451190Y-52659819D01*
X13451190Y-52659819D02*
X13355952Y-52707438D01*
X13355952Y-52707438D02*
X13308333Y-52755057D01*
X13308333Y-52755057D02*
X13260714Y-52850295D01*
X13260714Y-52850295D02*
X13213095Y-53040771D01*
X13213095Y-53040771D02*
X13213095Y-53278866D01*
X13213095Y-53278866D02*
X13260714Y-53469342D01*
X13260714Y-53469342D02*
X13308333Y-53564580D01*
X13308333Y-53564580D02*
X13355952Y-53612200D01*
X13355952Y-53612200D02*
X13451190Y-53659819D01*
X13451190Y-53659819D02*
X13546428Y-53659819D01*
X13546428Y-53659819D02*
X13641666Y-53612200D01*
X13641666Y-53612200D02*
X13689285Y-53564580D01*
X13689285Y-53564580D02*
X13736904Y-53469342D01*
X13736904Y-53469342D02*
X13784523Y-53278866D01*
X13784523Y-53278866D02*
X13784523Y-53040771D01*
X13784523Y-53040771D02*
X13736904Y-52850295D01*
X13736904Y-52850295D02*
X13689285Y-52755057D01*
X13689285Y-52755057D02*
X13641666Y-52707438D01*
X13641666Y-52707438D02*
X13546428Y-52659819D01*
X12954819Y-30717142D02*
X12478628Y-30383809D01*
X12954819Y-30145714D02*
X11954819Y-30145714D01*
X11954819Y-30145714D02*
X11954819Y-30526666D01*
X11954819Y-30526666D02*
X12002438Y-30621904D01*
X12002438Y-30621904D02*
X12050057Y-30669523D01*
X12050057Y-30669523D02*
X12145295Y-30717142D01*
X12145295Y-30717142D02*
X12288152Y-30717142D01*
X12288152Y-30717142D02*
X12383390Y-30669523D01*
X12383390Y-30669523D02*
X12431009Y-30621904D01*
X12431009Y-30621904D02*
X12478628Y-30526666D01*
X12478628Y-30526666D02*
X12478628Y-30145714D01*
X12050057Y-31098095D02*
X12002438Y-31145714D01*
X12002438Y-31145714D02*
X11954819Y-31240952D01*
X11954819Y-31240952D02*
X11954819Y-31479047D01*
X11954819Y-31479047D02*
X12002438Y-31574285D01*
X12002438Y-31574285D02*
X12050057Y-31621904D01*
X12050057Y-31621904D02*
X12145295Y-31669523D01*
X12145295Y-31669523D02*
X12240533Y-31669523D01*
X12240533Y-31669523D02*
X12383390Y-31621904D01*
X12383390Y-31621904D02*
X12954819Y-31050476D01*
X12954819Y-31050476D02*
X12954819Y-31669523D01*
X11954819Y-32526666D02*
X11954819Y-32336190D01*
X11954819Y-32336190D02*
X12002438Y-32240952D01*
X12002438Y-32240952D02*
X12050057Y-32193333D01*
X12050057Y-32193333D02*
X12192914Y-32098095D01*
X12192914Y-32098095D02*
X12383390Y-32050476D01*
X12383390Y-32050476D02*
X12764342Y-32050476D01*
X12764342Y-32050476D02*
X12859580Y-32098095D01*
X12859580Y-32098095D02*
X12907200Y-32145714D01*
X12907200Y-32145714D02*
X12954819Y-32240952D01*
X12954819Y-32240952D02*
X12954819Y-32431428D01*
X12954819Y-32431428D02*
X12907200Y-32526666D01*
X12907200Y-32526666D02*
X12859580Y-32574285D01*
X12859580Y-32574285D02*
X12764342Y-32621904D01*
X12764342Y-32621904D02*
X12526247Y-32621904D01*
X12526247Y-32621904D02*
X12431009Y-32574285D01*
X12431009Y-32574285D02*
X12383390Y-32526666D01*
X12383390Y-32526666D02*
X12335771Y-32431428D01*
X12335771Y-32431428D02*
X12335771Y-32240952D01*
X12335771Y-32240952D02*
X12383390Y-32145714D01*
X12383390Y-32145714D02*
X12431009Y-32098095D01*
X12431009Y-32098095D02*
X12526247Y-32050476D01*
X35692857Y-51479819D02*
X36026190Y-51003628D01*
X36264285Y-51479819D02*
X36264285Y-50479819D01*
X36264285Y-50479819D02*
X35883333Y-50479819D01*
X35883333Y-50479819D02*
X35788095Y-50527438D01*
X35788095Y-50527438D02*
X35740476Y-50575057D01*
X35740476Y-50575057D02*
X35692857Y-50670295D01*
X35692857Y-50670295D02*
X35692857Y-50813152D01*
X35692857Y-50813152D02*
X35740476Y-50908390D01*
X35740476Y-50908390D02*
X35788095Y-50956009D01*
X35788095Y-50956009D02*
X35883333Y-51003628D01*
X35883333Y-51003628D02*
X36264285Y-51003628D01*
X35311904Y-50575057D02*
X35264285Y-50527438D01*
X35264285Y-50527438D02*
X35169047Y-50479819D01*
X35169047Y-50479819D02*
X34930952Y-50479819D01*
X34930952Y-50479819D02*
X34835714Y-50527438D01*
X34835714Y-50527438D02*
X34788095Y-50575057D01*
X34788095Y-50575057D02*
X34740476Y-50670295D01*
X34740476Y-50670295D02*
X34740476Y-50765533D01*
X34740476Y-50765533D02*
X34788095Y-50908390D01*
X34788095Y-50908390D02*
X35359523Y-51479819D01*
X35359523Y-51479819D02*
X34740476Y-51479819D01*
X34407142Y-50479819D02*
X33788095Y-50479819D01*
X33788095Y-50479819D02*
X34121428Y-50860771D01*
X34121428Y-50860771D02*
X33978571Y-50860771D01*
X33978571Y-50860771D02*
X33883333Y-50908390D01*
X33883333Y-50908390D02*
X33835714Y-50956009D01*
X33835714Y-50956009D02*
X33788095Y-51051247D01*
X33788095Y-51051247D02*
X33788095Y-51289342D01*
X33788095Y-51289342D02*
X33835714Y-51384580D01*
X33835714Y-51384580D02*
X33883333Y-51432200D01*
X33883333Y-51432200D02*
X33978571Y-51479819D01*
X33978571Y-51479819D02*
X34264285Y-51479819D01*
X34264285Y-51479819D02*
X34359523Y-51432200D01*
X34359523Y-51432200D02*
X34407142Y-51384580D01*
X17504819Y-47097141D02*
X17028628Y-46763808D01*
X17504819Y-46525713D02*
X16504819Y-46525713D01*
X16504819Y-46525713D02*
X16504819Y-46906665D01*
X16504819Y-46906665D02*
X16552438Y-47001903D01*
X16552438Y-47001903D02*
X16600057Y-47049522D01*
X16600057Y-47049522D02*
X16695295Y-47097141D01*
X16695295Y-47097141D02*
X16838152Y-47097141D01*
X16838152Y-47097141D02*
X16933390Y-47049522D01*
X16933390Y-47049522D02*
X16981009Y-47001903D01*
X16981009Y-47001903D02*
X17028628Y-46906665D01*
X17028628Y-46906665D02*
X17028628Y-46525713D01*
X16600057Y-47478094D02*
X16552438Y-47525713D01*
X16552438Y-47525713D02*
X16504819Y-47620951D01*
X16504819Y-47620951D02*
X16504819Y-47859046D01*
X16504819Y-47859046D02*
X16552438Y-47954284D01*
X16552438Y-47954284D02*
X16600057Y-48001903D01*
X16600057Y-48001903D02*
X16695295Y-48049522D01*
X16695295Y-48049522D02*
X16790533Y-48049522D01*
X16790533Y-48049522D02*
X16933390Y-48001903D01*
X16933390Y-48001903D02*
X17504819Y-47430475D01*
X17504819Y-47430475D02*
X17504819Y-48049522D01*
X16933390Y-48620951D02*
X16885771Y-48525713D01*
X16885771Y-48525713D02*
X16838152Y-48478094D01*
X16838152Y-48478094D02*
X16742914Y-48430475D01*
X16742914Y-48430475D02*
X16695295Y-48430475D01*
X16695295Y-48430475D02*
X16600057Y-48478094D01*
X16600057Y-48478094D02*
X16552438Y-48525713D01*
X16552438Y-48525713D02*
X16504819Y-48620951D01*
X16504819Y-48620951D02*
X16504819Y-48811427D01*
X16504819Y-48811427D02*
X16552438Y-48906665D01*
X16552438Y-48906665D02*
X16600057Y-48954284D01*
X16600057Y-48954284D02*
X16695295Y-49001903D01*
X16695295Y-49001903D02*
X16742914Y-49001903D01*
X16742914Y-49001903D02*
X16838152Y-48954284D01*
X16838152Y-48954284D02*
X16885771Y-48906665D01*
X16885771Y-48906665D02*
X16933390Y-48811427D01*
X16933390Y-48811427D02*
X16933390Y-48620951D01*
X16933390Y-48620951D02*
X16981009Y-48525713D01*
X16981009Y-48525713D02*
X17028628Y-48478094D01*
X17028628Y-48478094D02*
X17123866Y-48430475D01*
X17123866Y-48430475D02*
X17314342Y-48430475D01*
X17314342Y-48430475D02*
X17409580Y-48478094D01*
X17409580Y-48478094D02*
X17457200Y-48525713D01*
X17457200Y-48525713D02*
X17504819Y-48620951D01*
X17504819Y-48620951D02*
X17504819Y-48811427D01*
X17504819Y-48811427D02*
X17457200Y-48906665D01*
X17457200Y-48906665D02*
X17409580Y-48954284D01*
X17409580Y-48954284D02*
X17314342Y-49001903D01*
X17314342Y-49001903D02*
X17123866Y-49001903D01*
X17123866Y-49001903D02*
X17028628Y-48954284D01*
X17028628Y-48954284D02*
X16981009Y-48906665D01*
X16981009Y-48906665D02*
X16933390Y-48811427D01*
X26592857Y-23519818D02*
X26926190Y-23043627D01*
X27164285Y-23519818D02*
X27164285Y-22519818D01*
X27164285Y-22519818D02*
X26783333Y-22519818D01*
X26783333Y-22519818D02*
X26688095Y-22567437D01*
X26688095Y-22567437D02*
X26640476Y-22615056D01*
X26640476Y-22615056D02*
X26592857Y-22710294D01*
X26592857Y-22710294D02*
X26592857Y-22853151D01*
X26592857Y-22853151D02*
X26640476Y-22948389D01*
X26640476Y-22948389D02*
X26688095Y-22996008D01*
X26688095Y-22996008D02*
X26783333Y-23043627D01*
X26783333Y-23043627D02*
X27164285Y-23043627D01*
X26211904Y-22615056D02*
X26164285Y-22567437D01*
X26164285Y-22567437D02*
X26069047Y-22519818D01*
X26069047Y-22519818D02*
X25830952Y-22519818D01*
X25830952Y-22519818D02*
X25735714Y-22567437D01*
X25735714Y-22567437D02*
X25688095Y-22615056D01*
X25688095Y-22615056D02*
X25640476Y-22710294D01*
X25640476Y-22710294D02*
X25640476Y-22805532D01*
X25640476Y-22805532D02*
X25688095Y-22948389D01*
X25688095Y-22948389D02*
X26259523Y-23519818D01*
X26259523Y-23519818D02*
X25640476Y-23519818D01*
X24783333Y-22853151D02*
X24783333Y-23519818D01*
X25021428Y-22472199D02*
X25259523Y-23186484D01*
X25259523Y-23186484D02*
X24640476Y-23186484D01*
X13567857Y-24479819D02*
X13901190Y-24003628D01*
X14139285Y-24479819D02*
X14139285Y-23479819D01*
X14139285Y-23479819D02*
X13758333Y-23479819D01*
X13758333Y-23479819D02*
X13663095Y-23527438D01*
X13663095Y-23527438D02*
X13615476Y-23575057D01*
X13615476Y-23575057D02*
X13567857Y-23670295D01*
X13567857Y-23670295D02*
X13567857Y-23813152D01*
X13567857Y-23813152D02*
X13615476Y-23908390D01*
X13615476Y-23908390D02*
X13663095Y-23956009D01*
X13663095Y-23956009D02*
X13758333Y-24003628D01*
X13758333Y-24003628D02*
X14139285Y-24003628D01*
X13186904Y-23575057D02*
X13139285Y-23527438D01*
X13139285Y-23527438D02*
X13044047Y-23479819D01*
X13044047Y-23479819D02*
X12805952Y-23479819D01*
X12805952Y-23479819D02*
X12710714Y-23527438D01*
X12710714Y-23527438D02*
X12663095Y-23575057D01*
X12663095Y-23575057D02*
X12615476Y-23670295D01*
X12615476Y-23670295D02*
X12615476Y-23765533D01*
X12615476Y-23765533D02*
X12663095Y-23908390D01*
X12663095Y-23908390D02*
X13234523Y-24479819D01*
X13234523Y-24479819D02*
X12615476Y-24479819D01*
X12282142Y-23479819D02*
X11615476Y-23479819D01*
X11615476Y-23479819D02*
X12044047Y-24479819D01*
X26592857Y-54019819D02*
X26926190Y-53543628D01*
X27164285Y-54019819D02*
X27164285Y-53019819D01*
X27164285Y-53019819D02*
X26783333Y-53019819D01*
X26783333Y-53019819D02*
X26688095Y-53067438D01*
X26688095Y-53067438D02*
X26640476Y-53115057D01*
X26640476Y-53115057D02*
X26592857Y-53210295D01*
X26592857Y-53210295D02*
X26592857Y-53353152D01*
X26592857Y-53353152D02*
X26640476Y-53448390D01*
X26640476Y-53448390D02*
X26688095Y-53496009D01*
X26688095Y-53496009D02*
X26783333Y-53543628D01*
X26783333Y-53543628D02*
X27164285Y-53543628D01*
X26211904Y-53115057D02*
X26164285Y-53067438D01*
X26164285Y-53067438D02*
X26069047Y-53019819D01*
X26069047Y-53019819D02*
X25830952Y-53019819D01*
X25830952Y-53019819D02*
X25735714Y-53067438D01*
X25735714Y-53067438D02*
X25688095Y-53115057D01*
X25688095Y-53115057D02*
X25640476Y-53210295D01*
X25640476Y-53210295D02*
X25640476Y-53305533D01*
X25640476Y-53305533D02*
X25688095Y-53448390D01*
X25688095Y-53448390D02*
X26259523Y-54019819D01*
X26259523Y-54019819D02*
X25640476Y-54019819D01*
X24735714Y-53019819D02*
X25211904Y-53019819D01*
X25211904Y-53019819D02*
X25259523Y-53496009D01*
X25259523Y-53496009D02*
X25211904Y-53448390D01*
X25211904Y-53448390D02*
X25116666Y-53400771D01*
X25116666Y-53400771D02*
X24878571Y-53400771D01*
X24878571Y-53400771D02*
X24783333Y-53448390D01*
X24783333Y-53448390D02*
X24735714Y-53496009D01*
X24735714Y-53496009D02*
X24688095Y-53591247D01*
X24688095Y-53591247D02*
X24688095Y-53829342D01*
X24688095Y-53829342D02*
X24735714Y-53924580D01*
X24735714Y-53924580D02*
X24783333Y-53972200D01*
X24783333Y-53972200D02*
X24878571Y-54019819D01*
X24878571Y-54019819D02*
X25116666Y-54019819D01*
X25116666Y-54019819D02*
X25211904Y-53972200D01*
X25211904Y-53972200D02*
X25259523Y-53924580D01*
X24592857Y-18969819D02*
X24926190Y-18493628D01*
X25164285Y-18969819D02*
X25164285Y-17969819D01*
X25164285Y-17969819D02*
X24783333Y-17969819D01*
X24783333Y-17969819D02*
X24688095Y-18017438D01*
X24688095Y-18017438D02*
X24640476Y-18065057D01*
X24640476Y-18065057D02*
X24592857Y-18160295D01*
X24592857Y-18160295D02*
X24592857Y-18303152D01*
X24592857Y-18303152D02*
X24640476Y-18398390D01*
X24640476Y-18398390D02*
X24688095Y-18446009D01*
X24688095Y-18446009D02*
X24783333Y-18493628D01*
X24783333Y-18493628D02*
X25164285Y-18493628D01*
X24211904Y-18065057D02*
X24164285Y-18017438D01*
X24164285Y-18017438D02*
X24069047Y-17969819D01*
X24069047Y-17969819D02*
X23830952Y-17969819D01*
X23830952Y-17969819D02*
X23735714Y-18017438D01*
X23735714Y-18017438D02*
X23688095Y-18065057D01*
X23688095Y-18065057D02*
X23640476Y-18160295D01*
X23640476Y-18160295D02*
X23640476Y-18255533D01*
X23640476Y-18255533D02*
X23688095Y-18398390D01*
X23688095Y-18398390D02*
X24259523Y-18969819D01*
X24259523Y-18969819D02*
X23640476Y-18969819D01*
X23021428Y-17969819D02*
X22926190Y-17969819D01*
X22926190Y-17969819D02*
X22830952Y-18017438D01*
X22830952Y-18017438D02*
X22783333Y-18065057D01*
X22783333Y-18065057D02*
X22735714Y-18160295D01*
X22735714Y-18160295D02*
X22688095Y-18350771D01*
X22688095Y-18350771D02*
X22688095Y-18588866D01*
X22688095Y-18588866D02*
X22735714Y-18779342D01*
X22735714Y-18779342D02*
X22783333Y-18874580D01*
X22783333Y-18874580D02*
X22830952Y-18922200D01*
X22830952Y-18922200D02*
X22926190Y-18969819D01*
X22926190Y-18969819D02*
X23021428Y-18969819D01*
X23021428Y-18969819D02*
X23116666Y-18922200D01*
X23116666Y-18922200D02*
X23164285Y-18874580D01*
X23164285Y-18874580D02*
X23211904Y-18779342D01*
X23211904Y-18779342D02*
X23259523Y-18588866D01*
X23259523Y-18588866D02*
X23259523Y-18350771D01*
X23259523Y-18350771D02*
X23211904Y-18160295D01*
X23211904Y-18160295D02*
X23164285Y-18065057D01*
X23164285Y-18065057D02*
X23116666Y-18017438D01*
X23116666Y-18017438D02*
X23021428Y-17969819D01*
X35692857Y-20979819D02*
X36026190Y-20503628D01*
X36264285Y-20979819D02*
X36264285Y-19979819D01*
X36264285Y-19979819D02*
X35883333Y-19979819D01*
X35883333Y-19979819D02*
X35788095Y-20027438D01*
X35788095Y-20027438D02*
X35740476Y-20075057D01*
X35740476Y-20075057D02*
X35692857Y-20170295D01*
X35692857Y-20170295D02*
X35692857Y-20313152D01*
X35692857Y-20313152D02*
X35740476Y-20408390D01*
X35740476Y-20408390D02*
X35788095Y-20456009D01*
X35788095Y-20456009D02*
X35883333Y-20503628D01*
X35883333Y-20503628D02*
X36264285Y-20503628D01*
X35311904Y-20075057D02*
X35264285Y-20027438D01*
X35264285Y-20027438D02*
X35169047Y-19979819D01*
X35169047Y-19979819D02*
X34930952Y-19979819D01*
X34930952Y-19979819D02*
X34835714Y-20027438D01*
X34835714Y-20027438D02*
X34788095Y-20075057D01*
X34788095Y-20075057D02*
X34740476Y-20170295D01*
X34740476Y-20170295D02*
X34740476Y-20265533D01*
X34740476Y-20265533D02*
X34788095Y-20408390D01*
X34788095Y-20408390D02*
X35359523Y-20979819D01*
X35359523Y-20979819D02*
X34740476Y-20979819D01*
X34359523Y-20075057D02*
X34311904Y-20027438D01*
X34311904Y-20027438D02*
X34216666Y-19979819D01*
X34216666Y-19979819D02*
X33978571Y-19979819D01*
X33978571Y-19979819D02*
X33883333Y-20027438D01*
X33883333Y-20027438D02*
X33835714Y-20075057D01*
X33835714Y-20075057D02*
X33788095Y-20170295D01*
X33788095Y-20170295D02*
X33788095Y-20265533D01*
X33788095Y-20265533D02*
X33835714Y-20408390D01*
X33835714Y-20408390D02*
X34407142Y-20979819D01*
X34407142Y-20979819D02*
X33788095Y-20979819D01*
%TO.C,R21*%
D11*
X9200000Y-11862936D02*
X9200000Y-13317064D01*
X11020000Y-11862936D02*
X11020000Y-13317064D01*
%TO.C,R29*%
X19847936Y-51090000D02*
X21302064Y-51090000D01*
X19847936Y-52910000D02*
X21302064Y-52910000D01*
%TO.C,R30*%
X13747936Y-50320000D02*
X15202064Y-50320000D01*
X13747936Y-52140000D02*
X15202064Y-52140000D01*
%TO.C,R26*%
X13565000Y-30632936D02*
X13565000Y-32087064D01*
X15385000Y-30632936D02*
X15385000Y-32087064D01*
%TO.C,R23*%
X34322936Y-52090000D02*
X35777064Y-52090000D01*
X34322936Y-53910000D02*
X35777064Y-53910000D01*
%TO.C,R28*%
X18115000Y-47012936D02*
X18115000Y-48467064D01*
X19935000Y-47012936D02*
X19935000Y-48467064D01*
%TO.C,R24*%
X26677064Y-24130000D02*
X25222936Y-24130000D01*
X26677064Y-25950000D02*
X25222936Y-25950000D01*
%TO.C,R27*%
X13652064Y-25090000D02*
X12197936Y-25090000D01*
X13652064Y-26910000D02*
X12197936Y-26910000D01*
%TO.C,R25*%
X26677064Y-54630000D02*
X25222936Y-54630000D01*
X26677064Y-56450000D02*
X25222936Y-56450000D01*
%TO.C,R20*%
X23222936Y-15630000D02*
X24677064Y-15630000D01*
X23222936Y-17450000D02*
X24677064Y-17450000D01*
%TO.C,R22*%
X34322936Y-21590000D02*
X35777064Y-21590000D01*
X34322936Y-23410000D02*
X35777064Y-23410000D01*
%TD*%
%LPC*%
G36*
X42590000Y-96810000D02*
G01*
X40890000Y-96810000D01*
X40890000Y-95110000D01*
X42590000Y-95110000D01*
X42590000Y-96810000D01*
G37*
G36*
X11506742Y-95146601D02*
G01*
X11660687Y-95210367D01*
X11799234Y-95302941D01*
X11917059Y-95420766D01*
X12009633Y-95559313D01*
X12073399Y-95713258D01*
X12105907Y-95876685D01*
X12105907Y-96043315D01*
X12073399Y-96206742D01*
X12009633Y-96360687D01*
X11917059Y-96499234D01*
X11799234Y-96617059D01*
X11660687Y-96709633D01*
X11506742Y-96773399D01*
X11343315Y-96805907D01*
X11176685Y-96805907D01*
X11013258Y-96773399D01*
X10859313Y-96709633D01*
X10720766Y-96617059D01*
X10602941Y-96499234D01*
X10510367Y-96360687D01*
X10446601Y-96206742D01*
X10414093Y-96043315D01*
X10414093Y-95876685D01*
X10446601Y-95713258D01*
X10510367Y-95559313D01*
X10602941Y-95420766D01*
X10720766Y-95302941D01*
X10859313Y-95210367D01*
X11013258Y-95146601D01*
X11176685Y-95114093D01*
X11343315Y-95114093D01*
X11506742Y-95146601D01*
G37*
G36*
X14046742Y-95146601D02*
G01*
X14200687Y-95210367D01*
X14339234Y-95302941D01*
X14457059Y-95420766D01*
X14549633Y-95559313D01*
X14613399Y-95713258D01*
X14645907Y-95876685D01*
X14645907Y-96043315D01*
X14613399Y-96206742D01*
X14549633Y-96360687D01*
X14457059Y-96499234D01*
X14339234Y-96617059D01*
X14200687Y-96709633D01*
X14046742Y-96773399D01*
X13883315Y-96805907D01*
X13716685Y-96805907D01*
X13553258Y-96773399D01*
X13399313Y-96709633D01*
X13260766Y-96617059D01*
X13142941Y-96499234D01*
X13050367Y-96360687D01*
X12986601Y-96206742D01*
X12954093Y-96043315D01*
X12954093Y-95876685D01*
X12986601Y-95713258D01*
X13050367Y-95559313D01*
X13142941Y-95420766D01*
X13260766Y-95302941D01*
X13399313Y-95210367D01*
X13553258Y-95146601D01*
X13716685Y-95114093D01*
X13883315Y-95114093D01*
X14046742Y-95146601D01*
G37*
G36*
X16586742Y-95146601D02*
G01*
X16740687Y-95210367D01*
X16879234Y-95302941D01*
X16997059Y-95420766D01*
X17089633Y-95559313D01*
X17153399Y-95713258D01*
X17185907Y-95876685D01*
X17185907Y-96043315D01*
X17153399Y-96206742D01*
X17089633Y-96360687D01*
X16997059Y-96499234D01*
X16879234Y-96617059D01*
X16740687Y-96709633D01*
X16586742Y-96773399D01*
X16423315Y-96805907D01*
X16256685Y-96805907D01*
X16093258Y-96773399D01*
X15939313Y-96709633D01*
X15800766Y-96617059D01*
X15682941Y-96499234D01*
X15590367Y-96360687D01*
X15526601Y-96206742D01*
X15494093Y-96043315D01*
X15494093Y-95876685D01*
X15526601Y-95713258D01*
X15590367Y-95559313D01*
X15682941Y-95420766D01*
X15800766Y-95302941D01*
X15939313Y-95210367D01*
X16093258Y-95146601D01*
X16256685Y-95114093D01*
X16423315Y-95114093D01*
X16586742Y-95146601D01*
G37*
G36*
X19126742Y-95146601D02*
G01*
X19280687Y-95210367D01*
X19419234Y-95302941D01*
X19537059Y-95420766D01*
X19629633Y-95559313D01*
X19693399Y-95713258D01*
X19725907Y-95876685D01*
X19725907Y-96043315D01*
X19693399Y-96206742D01*
X19629633Y-96360687D01*
X19537059Y-96499234D01*
X19419234Y-96617059D01*
X19280687Y-96709633D01*
X19126742Y-96773399D01*
X18963315Y-96805907D01*
X18796685Y-96805907D01*
X18633258Y-96773399D01*
X18479313Y-96709633D01*
X18340766Y-96617059D01*
X18222941Y-96499234D01*
X18130367Y-96360687D01*
X18066601Y-96206742D01*
X18034093Y-96043315D01*
X18034093Y-95876685D01*
X18066601Y-95713258D01*
X18130367Y-95559313D01*
X18222941Y-95420766D01*
X18340766Y-95302941D01*
X18479313Y-95210367D01*
X18633258Y-95146601D01*
X18796685Y-95114093D01*
X18963315Y-95114093D01*
X19126742Y-95146601D01*
G37*
G36*
X21666742Y-95146601D02*
G01*
X21820687Y-95210367D01*
X21959234Y-95302941D01*
X22077059Y-95420766D01*
X22169633Y-95559313D01*
X22233399Y-95713258D01*
X22265907Y-95876685D01*
X22265907Y-96043315D01*
X22233399Y-96206742D01*
X22169633Y-96360687D01*
X22077059Y-96499234D01*
X21959234Y-96617059D01*
X21820687Y-96709633D01*
X21666742Y-96773399D01*
X21503315Y-96805907D01*
X21336685Y-96805907D01*
X21173258Y-96773399D01*
X21019313Y-96709633D01*
X20880766Y-96617059D01*
X20762941Y-96499234D01*
X20670367Y-96360687D01*
X20606601Y-96206742D01*
X20574093Y-96043315D01*
X20574093Y-95876685D01*
X20606601Y-95713258D01*
X20670367Y-95559313D01*
X20762941Y-95420766D01*
X20880766Y-95302941D01*
X21019313Y-95210367D01*
X21173258Y-95146601D01*
X21336685Y-95114093D01*
X21503315Y-95114093D01*
X21666742Y-95146601D01*
G37*
G36*
X24206742Y-95146601D02*
G01*
X24360687Y-95210367D01*
X24499234Y-95302941D01*
X24617059Y-95420766D01*
X24709633Y-95559313D01*
X24773399Y-95713258D01*
X24805907Y-95876685D01*
X24805907Y-96043315D01*
X24773399Y-96206742D01*
X24709633Y-96360687D01*
X24617059Y-96499234D01*
X24499234Y-96617059D01*
X24360687Y-96709633D01*
X24206742Y-96773399D01*
X24043315Y-96805907D01*
X23876685Y-96805907D01*
X23713258Y-96773399D01*
X23559313Y-96709633D01*
X23420766Y-96617059D01*
X23302941Y-96499234D01*
X23210367Y-96360687D01*
X23146601Y-96206742D01*
X23114093Y-96043315D01*
X23114093Y-95876685D01*
X23146601Y-95713258D01*
X23210367Y-95559313D01*
X23302941Y-95420766D01*
X23420766Y-95302941D01*
X23559313Y-95210367D01*
X23713258Y-95146601D01*
X23876685Y-95114093D01*
X24043315Y-95114093D01*
X24206742Y-95146601D01*
G37*
G36*
X26746742Y-95146601D02*
G01*
X26900687Y-95210367D01*
X27039234Y-95302941D01*
X27157059Y-95420766D01*
X27249633Y-95559313D01*
X27313399Y-95713258D01*
X27345907Y-95876685D01*
X27345907Y-96043315D01*
X27313399Y-96206742D01*
X27249633Y-96360687D01*
X27157059Y-96499234D01*
X27039234Y-96617059D01*
X26900687Y-96709633D01*
X26746742Y-96773399D01*
X26583315Y-96805907D01*
X26416685Y-96805907D01*
X26253258Y-96773399D01*
X26099313Y-96709633D01*
X25960766Y-96617059D01*
X25842941Y-96499234D01*
X25750367Y-96360687D01*
X25686601Y-96206742D01*
X25654093Y-96043315D01*
X25654093Y-95876685D01*
X25686601Y-95713258D01*
X25750367Y-95559313D01*
X25842941Y-95420766D01*
X25960766Y-95302941D01*
X26099313Y-95210367D01*
X26253258Y-95146601D01*
X26416685Y-95114093D01*
X26583315Y-95114093D01*
X26746742Y-95146601D01*
G37*
G36*
X29286742Y-95146601D02*
G01*
X29440687Y-95210367D01*
X29579234Y-95302941D01*
X29697059Y-95420766D01*
X29789633Y-95559313D01*
X29853399Y-95713258D01*
X29885907Y-95876685D01*
X29885907Y-96043315D01*
X29853399Y-96206742D01*
X29789633Y-96360687D01*
X29697059Y-96499234D01*
X29579234Y-96617059D01*
X29440687Y-96709633D01*
X29286742Y-96773399D01*
X29123315Y-96805907D01*
X28956685Y-96805907D01*
X28793258Y-96773399D01*
X28639313Y-96709633D01*
X28500766Y-96617059D01*
X28382941Y-96499234D01*
X28290367Y-96360687D01*
X28226601Y-96206742D01*
X28194093Y-96043315D01*
X28194093Y-95876685D01*
X28226601Y-95713258D01*
X28290367Y-95559313D01*
X28382941Y-95420766D01*
X28500766Y-95302941D01*
X28639313Y-95210367D01*
X28793258Y-95146601D01*
X28956685Y-95114093D01*
X29123315Y-95114093D01*
X29286742Y-95146601D01*
G37*
G36*
X31826742Y-95146601D02*
G01*
X31980687Y-95210367D01*
X32119234Y-95302941D01*
X32237059Y-95420766D01*
X32329633Y-95559313D01*
X32393399Y-95713258D01*
X32425907Y-95876685D01*
X32425907Y-96043315D01*
X32393399Y-96206742D01*
X32329633Y-96360687D01*
X32237059Y-96499234D01*
X32119234Y-96617059D01*
X31980687Y-96709633D01*
X31826742Y-96773399D01*
X31663315Y-96805907D01*
X31496685Y-96805907D01*
X31333258Y-96773399D01*
X31179313Y-96709633D01*
X31040766Y-96617059D01*
X30922941Y-96499234D01*
X30830367Y-96360687D01*
X30766601Y-96206742D01*
X30734093Y-96043315D01*
X30734093Y-95876685D01*
X30766601Y-95713258D01*
X30830367Y-95559313D01*
X30922941Y-95420766D01*
X31040766Y-95302941D01*
X31179313Y-95210367D01*
X31333258Y-95146601D01*
X31496685Y-95114093D01*
X31663315Y-95114093D01*
X31826742Y-95146601D01*
G37*
G36*
X34366742Y-95146601D02*
G01*
X34520687Y-95210367D01*
X34659234Y-95302941D01*
X34777059Y-95420766D01*
X34869633Y-95559313D01*
X34933399Y-95713258D01*
X34965907Y-95876685D01*
X34965907Y-96043315D01*
X34933399Y-96206742D01*
X34869633Y-96360687D01*
X34777059Y-96499234D01*
X34659234Y-96617059D01*
X34520687Y-96709633D01*
X34366742Y-96773399D01*
X34203315Y-96805907D01*
X34036685Y-96805907D01*
X33873258Y-96773399D01*
X33719313Y-96709633D01*
X33580766Y-96617059D01*
X33462941Y-96499234D01*
X33370367Y-96360687D01*
X33306601Y-96206742D01*
X33274093Y-96043315D01*
X33274093Y-95876685D01*
X33306601Y-95713258D01*
X33370367Y-95559313D01*
X33462941Y-95420766D01*
X33580766Y-95302941D01*
X33719313Y-95210367D01*
X33873258Y-95146601D01*
X34036685Y-95114093D01*
X34203315Y-95114093D01*
X34366742Y-95146601D01*
G37*
G36*
X36906742Y-95146601D02*
G01*
X37060687Y-95210367D01*
X37199234Y-95302941D01*
X37317059Y-95420766D01*
X37409633Y-95559313D01*
X37473399Y-95713258D01*
X37505907Y-95876685D01*
X37505907Y-96043315D01*
X37473399Y-96206742D01*
X37409633Y-96360687D01*
X37317059Y-96499234D01*
X37199234Y-96617059D01*
X37060687Y-96709633D01*
X36906742Y-96773399D01*
X36743315Y-96805907D01*
X36576685Y-96805907D01*
X36413258Y-96773399D01*
X36259313Y-96709633D01*
X36120766Y-96617059D01*
X36002941Y-96499234D01*
X35910367Y-96360687D01*
X35846601Y-96206742D01*
X35814093Y-96043315D01*
X35814093Y-95876685D01*
X35846601Y-95713258D01*
X35910367Y-95559313D01*
X36002941Y-95420766D01*
X36120766Y-95302941D01*
X36259313Y-95210367D01*
X36413258Y-95146601D01*
X36576685Y-95114093D01*
X36743315Y-95114093D01*
X36906742Y-95146601D01*
G37*
G36*
X39446742Y-95146601D02*
G01*
X39600687Y-95210367D01*
X39739234Y-95302941D01*
X39857059Y-95420766D01*
X39949633Y-95559313D01*
X40013399Y-95713258D01*
X40045907Y-95876685D01*
X40045907Y-96043315D01*
X40013399Y-96206742D01*
X39949633Y-96360687D01*
X39857059Y-96499234D01*
X39739234Y-96617059D01*
X39600687Y-96709633D01*
X39446742Y-96773399D01*
X39283315Y-96805907D01*
X39116685Y-96805907D01*
X38953258Y-96773399D01*
X38799313Y-96709633D01*
X38660766Y-96617059D01*
X38542941Y-96499234D01*
X38450367Y-96360687D01*
X38386601Y-96206742D01*
X38354093Y-96043315D01*
X38354093Y-95876685D01*
X38386601Y-95713258D01*
X38450367Y-95559313D01*
X38542941Y-95420766D01*
X38660766Y-95302941D01*
X38799313Y-95210367D01*
X38953258Y-95146601D01*
X39116685Y-95114093D01*
X39283315Y-95114093D01*
X39446742Y-95146601D01*
G37*
G36*
X9232228Y-79014448D02*
G01*
X9377117Y-79074463D01*
X9507515Y-79161592D01*
X9618408Y-79272485D01*
X9705537Y-79402883D01*
X9765552Y-79547772D01*
X9796148Y-79701586D01*
X9796148Y-79858414D01*
X9765552Y-80012228D01*
X9705537Y-80157117D01*
X9618408Y-80287515D01*
X9507515Y-80398408D01*
X9377117Y-80485537D01*
X9232228Y-80545552D01*
X9078414Y-80576148D01*
X8921586Y-80576148D01*
X8767772Y-80545552D01*
X8622883Y-80485537D01*
X8492485Y-80398408D01*
X8381592Y-80287515D01*
X8294463Y-80157117D01*
X8234448Y-80012228D01*
X8203852Y-79858414D01*
X8203852Y-79701586D01*
X8234448Y-79547772D01*
X8294463Y-79402883D01*
X8381592Y-79272485D01*
X8492485Y-79161592D01*
X8622883Y-79074463D01*
X8767772Y-79014448D01*
X8921586Y-78983852D01*
X9078414Y-78983852D01*
X9232228Y-79014448D01*
G37*
G36*
X16852228Y-79014448D02*
G01*
X16997117Y-79074463D01*
X17127515Y-79161592D01*
X17238408Y-79272485D01*
X17325537Y-79402883D01*
X17385552Y-79547772D01*
X17416148Y-79701586D01*
X17416148Y-79858414D01*
X17385552Y-80012228D01*
X17325537Y-80157117D01*
X17238408Y-80287515D01*
X17127515Y-80398408D01*
X16997117Y-80485537D01*
X16852228Y-80545552D01*
X16698414Y-80576148D01*
X16541586Y-80576148D01*
X16387772Y-80545552D01*
X16242883Y-80485537D01*
X16112485Y-80398408D01*
X16001592Y-80287515D01*
X15914463Y-80157117D01*
X15854448Y-80012228D01*
X15823852Y-79858414D01*
X15823852Y-79701586D01*
X15854448Y-79547772D01*
X15914463Y-79402883D01*
X16001592Y-79272485D01*
X16112485Y-79161592D01*
X16242883Y-79074463D01*
X16387772Y-79014448D01*
X16541586Y-78983852D01*
X16698414Y-78983852D01*
X16852228Y-79014448D01*
G37*
G36*
X9232228Y-76474448D02*
G01*
X9377117Y-76534463D01*
X9507515Y-76621592D01*
X9618408Y-76732485D01*
X9705537Y-76862883D01*
X9765552Y-77007772D01*
X9796148Y-77161586D01*
X9796148Y-77318414D01*
X9765552Y-77472228D01*
X9705537Y-77617117D01*
X9618408Y-77747515D01*
X9507515Y-77858408D01*
X9377117Y-77945537D01*
X9232228Y-78005552D01*
X9078414Y-78036148D01*
X8921586Y-78036148D01*
X8767772Y-78005552D01*
X8622883Y-77945537D01*
X8492485Y-77858408D01*
X8381592Y-77747515D01*
X8294463Y-77617117D01*
X8234448Y-77472228D01*
X8203852Y-77318414D01*
X8203852Y-77161586D01*
X8234448Y-77007772D01*
X8294463Y-76862883D01*
X8381592Y-76732485D01*
X8492485Y-76621592D01*
X8622883Y-76534463D01*
X8767772Y-76474448D01*
X8921586Y-76443852D01*
X9078414Y-76443852D01*
X9232228Y-76474448D01*
G37*
G36*
X16852228Y-76474448D02*
G01*
X16997117Y-76534463D01*
X17127515Y-76621592D01*
X17238408Y-76732485D01*
X17325537Y-76862883D01*
X17385552Y-77007772D01*
X17416148Y-77161586D01*
X17416148Y-77318414D01*
X17385552Y-77472228D01*
X17325537Y-77617117D01*
X17238408Y-77747515D01*
X17127515Y-77858408D01*
X16997117Y-77945537D01*
X16852228Y-78005552D01*
X16698414Y-78036148D01*
X16541586Y-78036148D01*
X16387772Y-78005552D01*
X16242883Y-77945537D01*
X16112485Y-77858408D01*
X16001592Y-77747515D01*
X15914463Y-77617117D01*
X15854448Y-77472228D01*
X15823852Y-77318414D01*
X15823852Y-77161586D01*
X15854448Y-77007772D01*
X15914463Y-76862883D01*
X16001592Y-76732485D01*
X16112485Y-76621592D01*
X16242883Y-76534463D01*
X16387772Y-76474448D01*
X16541586Y-76443852D01*
X16698414Y-76443852D01*
X16852228Y-76474448D01*
G37*
G36*
X9232228Y-73934448D02*
G01*
X9377117Y-73994463D01*
X9507515Y-74081592D01*
X9618408Y-74192485D01*
X9705537Y-74322883D01*
X9765552Y-74467772D01*
X9796148Y-74621586D01*
X9796148Y-74778414D01*
X9765552Y-74932228D01*
X9705537Y-75077117D01*
X9618408Y-75207515D01*
X9507515Y-75318408D01*
X9377117Y-75405537D01*
X9232228Y-75465552D01*
X9078414Y-75496148D01*
X8921586Y-75496148D01*
X8767772Y-75465552D01*
X8622883Y-75405537D01*
X8492485Y-75318408D01*
X8381592Y-75207515D01*
X8294463Y-75077117D01*
X8234448Y-74932228D01*
X8203852Y-74778414D01*
X8203852Y-74621586D01*
X8234448Y-74467772D01*
X8294463Y-74322883D01*
X8381592Y-74192485D01*
X8492485Y-74081592D01*
X8622883Y-73994463D01*
X8767772Y-73934448D01*
X8921586Y-73903852D01*
X9078414Y-73903852D01*
X9232228Y-73934448D01*
G37*
G36*
X16852228Y-73934448D02*
G01*
X16997117Y-73994463D01*
X17127515Y-74081592D01*
X17238408Y-74192485D01*
X17325537Y-74322883D01*
X17385552Y-74467772D01*
X17416148Y-74621586D01*
X17416148Y-74778414D01*
X17385552Y-74932228D01*
X17325537Y-75077117D01*
X17238408Y-75207515D01*
X17127515Y-75318408D01*
X16997117Y-75405537D01*
X16852228Y-75465552D01*
X16698414Y-75496148D01*
X16541586Y-75496148D01*
X16387772Y-75465552D01*
X16242883Y-75405537D01*
X16112485Y-75318408D01*
X16001592Y-75207515D01*
X15914463Y-75077117D01*
X15854448Y-74932228D01*
X15823852Y-74778414D01*
X15823852Y-74621586D01*
X15854448Y-74467772D01*
X15914463Y-74322883D01*
X16001592Y-74192485D01*
X16112485Y-74081592D01*
X16242883Y-73994463D01*
X16387772Y-73934448D01*
X16541586Y-73903852D01*
X16698414Y-73903852D01*
X16852228Y-73934448D01*
G37*
G36*
X30733315Y-72474093D02*
G01*
X30896742Y-72506601D01*
X31050687Y-72570367D01*
X31189234Y-72662941D01*
X31307059Y-72780766D01*
X31399633Y-72919313D01*
X31463399Y-73073258D01*
X31495907Y-73236685D01*
X31495907Y-73403315D01*
X31463399Y-73566742D01*
X31399633Y-73720687D01*
X31307059Y-73859234D01*
X31189234Y-73977059D01*
X31050687Y-74069633D01*
X30896742Y-74133399D01*
X30733315Y-74165907D01*
X30650000Y-74170000D01*
X30648768Y-74170000D01*
X30351232Y-74170000D01*
X30350000Y-74170000D01*
X30266685Y-74165907D01*
X30103258Y-74133399D01*
X29949313Y-74069633D01*
X29810766Y-73977059D01*
X29692941Y-73859234D01*
X29600367Y-73720687D01*
X29536601Y-73566742D01*
X29504093Y-73403315D01*
X29504093Y-73236685D01*
X29536601Y-73073258D01*
X29600367Y-72919313D01*
X29692941Y-72780766D01*
X29810766Y-72662941D01*
X29949313Y-72570367D01*
X30103258Y-72506601D01*
X30266685Y-72474093D01*
X30350000Y-72470000D01*
X30650000Y-72470000D01*
X30733315Y-72474093D01*
G37*
G36*
X9232228Y-71394448D02*
G01*
X9377117Y-71454463D01*
X9507515Y-71541592D01*
X9618408Y-71652485D01*
X9705537Y-71782883D01*
X9765552Y-71927772D01*
X9796148Y-72081586D01*
X9796148Y-72238414D01*
X9765552Y-72392228D01*
X9705537Y-72537117D01*
X9618408Y-72667515D01*
X9507515Y-72778408D01*
X9377117Y-72865537D01*
X9232228Y-72925552D01*
X9078414Y-72956148D01*
X8921586Y-72956148D01*
X8767772Y-72925552D01*
X8622883Y-72865537D01*
X8492485Y-72778408D01*
X8381592Y-72667515D01*
X8294463Y-72537117D01*
X8234448Y-72392228D01*
X8203852Y-72238414D01*
X8203852Y-72081586D01*
X8234448Y-71927772D01*
X8294463Y-71782883D01*
X8381592Y-71652485D01*
X8492485Y-71541592D01*
X8622883Y-71454463D01*
X8767772Y-71394448D01*
X8921586Y-71363852D01*
X9078414Y-71363852D01*
X9232228Y-71394448D01*
G37*
G36*
X16852228Y-71394448D02*
G01*
X16997117Y-71454463D01*
X17127515Y-71541592D01*
X17238408Y-71652485D01*
X17325537Y-71782883D01*
X17385552Y-71927772D01*
X17416148Y-72081586D01*
X17416148Y-72238414D01*
X17385552Y-72392228D01*
X17325537Y-72537117D01*
X17238408Y-72667515D01*
X17127515Y-72778408D01*
X16997117Y-72865537D01*
X16852228Y-72925552D01*
X16698414Y-72956148D01*
X16541586Y-72956148D01*
X16387772Y-72925552D01*
X16242883Y-72865537D01*
X16112485Y-72778408D01*
X16001592Y-72667515D01*
X15914463Y-72537117D01*
X15854448Y-72392228D01*
X15823852Y-72238414D01*
X15823852Y-72081586D01*
X15854448Y-71927772D01*
X15914463Y-71782883D01*
X16001592Y-71652485D01*
X16112485Y-71541592D01*
X16242883Y-71454463D01*
X16387772Y-71394448D01*
X16541586Y-71363852D01*
X16698414Y-71363852D01*
X16852228Y-71394448D01*
G37*
G36*
X30733315Y-69934093D02*
G01*
X30896742Y-69966601D01*
X31050687Y-70030367D01*
X31189234Y-70122941D01*
X31307059Y-70240766D01*
X31399633Y-70379313D01*
X31463399Y-70533258D01*
X31495907Y-70696685D01*
X31495907Y-70863315D01*
X31463399Y-71026742D01*
X31399633Y-71180687D01*
X31307059Y-71319234D01*
X31189234Y-71437059D01*
X31050687Y-71529633D01*
X30896742Y-71593399D01*
X30733315Y-71625907D01*
X30650000Y-71630000D01*
X30648768Y-71630000D01*
X30351232Y-71630000D01*
X30350000Y-71630000D01*
X30266685Y-71625907D01*
X30103258Y-71593399D01*
X29949313Y-71529633D01*
X29810766Y-71437059D01*
X29692941Y-71319234D01*
X29600367Y-71180687D01*
X29536601Y-71026742D01*
X29504093Y-70863315D01*
X29504093Y-70696685D01*
X29536601Y-70533258D01*
X29600367Y-70379313D01*
X29692941Y-70240766D01*
X29810766Y-70122941D01*
X29949313Y-70030367D01*
X30103258Y-69966601D01*
X30266685Y-69934093D01*
X30350000Y-69930000D01*
X30650000Y-69930000D01*
X30733315Y-69934093D01*
G37*
G36*
X20007228Y-69064448D02*
G01*
X20152117Y-69124463D01*
X20282515Y-69211592D01*
X20393408Y-69322485D01*
X20480537Y-69452883D01*
X20540552Y-69597772D01*
X20571148Y-69751586D01*
X20571148Y-69908414D01*
X20540552Y-70062228D01*
X20480537Y-70207117D01*
X20393408Y-70337515D01*
X20282515Y-70448408D01*
X20152117Y-70535537D01*
X20007228Y-70595552D01*
X19853414Y-70626148D01*
X19696586Y-70626148D01*
X19542772Y-70595552D01*
X19397883Y-70535537D01*
X19267485Y-70448408D01*
X19156592Y-70337515D01*
X19069463Y-70207117D01*
X19009448Y-70062228D01*
X18978852Y-69908414D01*
X18978852Y-69751586D01*
X19009448Y-69597772D01*
X19069463Y-69452883D01*
X19156592Y-69322485D01*
X19267485Y-69211592D01*
X19397883Y-69124463D01*
X19542772Y-69064448D01*
X19696586Y-69033852D01*
X19853414Y-69033852D01*
X20007228Y-69064448D01*
G37*
G36*
X9232228Y-68854448D02*
G01*
X9377117Y-68914463D01*
X9507515Y-69001592D01*
X9618408Y-69112485D01*
X9705537Y-69242883D01*
X9765552Y-69387772D01*
X9796148Y-69541586D01*
X9796148Y-69698414D01*
X9765552Y-69852228D01*
X9705537Y-69997117D01*
X9618408Y-70127515D01*
X9507515Y-70238408D01*
X9377117Y-70325537D01*
X9232228Y-70385552D01*
X9078414Y-70416148D01*
X8921586Y-70416148D01*
X8767772Y-70385552D01*
X8622883Y-70325537D01*
X8492485Y-70238408D01*
X8381592Y-70127515D01*
X8294463Y-69997117D01*
X8234448Y-69852228D01*
X8203852Y-69698414D01*
X8203852Y-69541586D01*
X8234448Y-69387772D01*
X8294463Y-69242883D01*
X8381592Y-69112485D01*
X8492485Y-69001592D01*
X8622883Y-68914463D01*
X8767772Y-68854448D01*
X8921586Y-68823852D01*
X9078414Y-68823852D01*
X9232228Y-68854448D01*
G37*
G36*
X16852228Y-68854448D02*
G01*
X16997117Y-68914463D01*
X17127515Y-69001592D01*
X17238408Y-69112485D01*
X17325537Y-69242883D01*
X17385552Y-69387772D01*
X17416148Y-69541586D01*
X17416148Y-69698414D01*
X17385552Y-69852228D01*
X17325537Y-69997117D01*
X17238408Y-70127515D01*
X17127515Y-70238408D01*
X16997117Y-70325537D01*
X16852228Y-70385552D01*
X16698414Y-70416148D01*
X16541586Y-70416148D01*
X16387772Y-70385552D01*
X16242883Y-70325537D01*
X16112485Y-70238408D01*
X16001592Y-70127515D01*
X15914463Y-69997117D01*
X15854448Y-69852228D01*
X15823852Y-69698414D01*
X15823852Y-69541586D01*
X15854448Y-69387772D01*
X15914463Y-69242883D01*
X16001592Y-69112485D01*
X16112485Y-69001592D01*
X16242883Y-68914463D01*
X16387772Y-68854448D01*
X16541586Y-68823852D01*
X16698414Y-68823852D01*
X16852228Y-68854448D01*
G37*
G36*
X30733315Y-67394093D02*
G01*
X30896742Y-67426601D01*
X31050687Y-67490367D01*
X31189234Y-67582941D01*
X31307059Y-67700766D01*
X31399633Y-67839313D01*
X31463399Y-67993258D01*
X31495907Y-68156685D01*
X31495907Y-68323315D01*
X31463399Y-68486742D01*
X31399633Y-68640687D01*
X31307059Y-68779234D01*
X31189234Y-68897059D01*
X31050687Y-68989633D01*
X30896742Y-69053399D01*
X30733315Y-69085907D01*
X30650000Y-69090000D01*
X30648768Y-69090000D01*
X30351232Y-69090000D01*
X30350000Y-69090000D01*
X30266685Y-69085907D01*
X30103258Y-69053399D01*
X29949313Y-68989633D01*
X29810766Y-68897059D01*
X29692941Y-68779234D01*
X29600367Y-68640687D01*
X29536601Y-68486742D01*
X29504093Y-68323315D01*
X29504093Y-68156685D01*
X29536601Y-67993258D01*
X29600367Y-67839313D01*
X29692941Y-67700766D01*
X29810766Y-67582941D01*
X29949313Y-67490367D01*
X30103258Y-67426601D01*
X30266685Y-67394093D01*
X30350000Y-67390000D01*
X30650000Y-67390000D01*
X30733315Y-67394093D01*
G37*
G36*
X9232228Y-66314448D02*
G01*
X9377117Y-66374463D01*
X9507515Y-66461592D01*
X9618408Y-66572485D01*
X9705537Y-66702883D01*
X9765552Y-66847772D01*
X9796148Y-67001586D01*
X9796148Y-67158414D01*
X9765552Y-67312228D01*
X9705537Y-67457117D01*
X9618408Y-67587515D01*
X9507515Y-67698408D01*
X9377117Y-67785537D01*
X9232228Y-67845552D01*
X9078414Y-67876148D01*
X8921586Y-67876148D01*
X8767772Y-67845552D01*
X8622883Y-67785537D01*
X8492485Y-67698408D01*
X8381592Y-67587515D01*
X8294463Y-67457117D01*
X8234448Y-67312228D01*
X8203852Y-67158414D01*
X8203852Y-67001586D01*
X8234448Y-66847772D01*
X8294463Y-66702883D01*
X8381592Y-66572485D01*
X8492485Y-66461592D01*
X8622883Y-66374463D01*
X8767772Y-66314448D01*
X8921586Y-66283852D01*
X9078414Y-66283852D01*
X9232228Y-66314448D01*
G37*
G36*
X16852228Y-66314448D02*
G01*
X16997117Y-66374463D01*
X17127515Y-66461592D01*
X17238408Y-66572485D01*
X17325537Y-66702883D01*
X17385552Y-66847772D01*
X17416148Y-67001586D01*
X17416148Y-67158414D01*
X17385552Y-67312228D01*
X17325537Y-67457117D01*
X17238408Y-67587515D01*
X17127515Y-67698408D01*
X16997117Y-67785537D01*
X16852228Y-67845552D01*
X16698414Y-67876148D01*
X16541586Y-67876148D01*
X16387772Y-67845552D01*
X16242883Y-67785537D01*
X16112485Y-67698408D01*
X16001592Y-67587515D01*
X15914463Y-67457117D01*
X15854448Y-67312228D01*
X15823852Y-67158414D01*
X15823852Y-67001586D01*
X15854448Y-66847772D01*
X15914463Y-66702883D01*
X16001592Y-66572485D01*
X16112485Y-66461592D01*
X16242883Y-66374463D01*
X16387772Y-66314448D01*
X16541586Y-66283852D01*
X16698414Y-66283852D01*
X16852228Y-66314448D01*
G37*
G36*
X30733315Y-64854093D02*
G01*
X30896742Y-64886601D01*
X31050687Y-64950367D01*
X31189234Y-65042941D01*
X31307059Y-65160766D01*
X31399633Y-65299313D01*
X31463399Y-65453258D01*
X31495907Y-65616685D01*
X31495907Y-65783315D01*
X31463399Y-65946742D01*
X31399633Y-66100687D01*
X31307059Y-66239234D01*
X31189234Y-66357059D01*
X31050687Y-66449633D01*
X30896742Y-66513399D01*
X30733315Y-66545907D01*
X30650000Y-66550000D01*
X30648768Y-66550000D01*
X30351232Y-66550000D01*
X30350000Y-66550000D01*
X30266685Y-66545907D01*
X30103258Y-66513399D01*
X29949313Y-66449633D01*
X29810766Y-66357059D01*
X29692941Y-66239234D01*
X29600367Y-66100687D01*
X29536601Y-65946742D01*
X29504093Y-65783315D01*
X29504093Y-65616685D01*
X29536601Y-65453258D01*
X29600367Y-65299313D01*
X29692941Y-65160766D01*
X29810766Y-65042941D01*
X29949313Y-64950367D01*
X30103258Y-64886601D01*
X30266685Y-64854093D01*
X30350000Y-64850000D01*
X30650000Y-64850000D01*
X30733315Y-64854093D01*
G37*
G36*
X25246742Y-64766601D02*
G01*
X25400687Y-64830367D01*
X25539234Y-64922941D01*
X25657059Y-65040766D01*
X25749633Y-65179313D01*
X25813399Y-65333258D01*
X25845907Y-65496685D01*
X25845907Y-65663315D01*
X25813399Y-65826742D01*
X25749633Y-65980687D01*
X25657059Y-66119234D01*
X25539234Y-66237059D01*
X25400687Y-66329633D01*
X25246742Y-66393399D01*
X25083315Y-66425907D01*
X24916685Y-66425907D01*
X24753258Y-66393399D01*
X24599313Y-66329633D01*
X24460766Y-66237059D01*
X24342941Y-66119234D01*
X24250367Y-65980687D01*
X24186601Y-65826742D01*
X24154093Y-65663315D01*
X24154093Y-65496685D01*
X24186601Y-65333258D01*
X24250367Y-65179313D01*
X24342941Y-65040766D01*
X24460766Y-64922941D01*
X24599313Y-64830367D01*
X24753258Y-64766601D01*
X24916685Y-64734093D01*
X25083315Y-64734093D01*
X25246742Y-64766601D01*
G37*
G36*
X20007228Y-63984448D02*
G01*
X20152117Y-64044463D01*
X20282515Y-64131592D01*
X20393408Y-64242485D01*
X20480537Y-64372883D01*
X20540552Y-64517772D01*
X20571148Y-64671586D01*
X20571148Y-64828414D01*
X20540552Y-64982228D01*
X20480537Y-65127117D01*
X20393408Y-65257515D01*
X20282515Y-65368408D01*
X20152117Y-65455537D01*
X20007228Y-65515552D01*
X19853414Y-65546148D01*
X19696586Y-65546148D01*
X19542772Y-65515552D01*
X19397883Y-65455537D01*
X19267485Y-65368408D01*
X19156592Y-65257515D01*
X19069463Y-65127117D01*
X19009448Y-64982228D01*
X18978852Y-64828414D01*
X18978852Y-64671586D01*
X19009448Y-64517772D01*
X19069463Y-64372883D01*
X19156592Y-64242485D01*
X19267485Y-64131592D01*
X19397883Y-64044463D01*
X19542772Y-63984448D01*
X19696586Y-63953852D01*
X19853414Y-63953852D01*
X20007228Y-63984448D01*
G37*
G36*
X9232228Y-63774448D02*
G01*
X9377117Y-63834463D01*
X9507515Y-63921592D01*
X9618408Y-64032485D01*
X9705537Y-64162883D01*
X9765552Y-64307772D01*
X9796148Y-64461586D01*
X9796148Y-64618414D01*
X9765552Y-64772228D01*
X9705537Y-64917117D01*
X9618408Y-65047515D01*
X9507515Y-65158408D01*
X9377117Y-65245537D01*
X9232228Y-65305552D01*
X9078414Y-65336148D01*
X8921586Y-65336148D01*
X8767772Y-65305552D01*
X8622883Y-65245537D01*
X8492485Y-65158408D01*
X8381592Y-65047515D01*
X8294463Y-64917117D01*
X8234448Y-64772228D01*
X8203852Y-64618414D01*
X8203852Y-64461586D01*
X8234448Y-64307772D01*
X8294463Y-64162883D01*
X8381592Y-64032485D01*
X8492485Y-63921592D01*
X8622883Y-63834463D01*
X8767772Y-63774448D01*
X8921586Y-63743852D01*
X9078414Y-63743852D01*
X9232228Y-63774448D01*
G37*
G36*
X16852228Y-63774448D02*
G01*
X16997117Y-63834463D01*
X17127515Y-63921592D01*
X17238408Y-64032485D01*
X17325537Y-64162883D01*
X17385552Y-64307772D01*
X17416148Y-64461586D01*
X17416148Y-64618414D01*
X17385552Y-64772228D01*
X17325537Y-64917117D01*
X17238408Y-65047515D01*
X17127515Y-65158408D01*
X16997117Y-65245537D01*
X16852228Y-65305552D01*
X16698414Y-65336148D01*
X16541586Y-65336148D01*
X16387772Y-65305552D01*
X16242883Y-65245537D01*
X16112485Y-65158408D01*
X16001592Y-65047515D01*
X15914463Y-64917117D01*
X15854448Y-64772228D01*
X15823852Y-64618414D01*
X15823852Y-64461586D01*
X15854448Y-64307772D01*
X15914463Y-64162883D01*
X16001592Y-64032485D01*
X16112485Y-63921592D01*
X16242883Y-63834463D01*
X16387772Y-63774448D01*
X16541586Y-63743852D01*
X16698414Y-63743852D01*
X16852228Y-63774448D01*
G37*
G36*
X30733315Y-62314093D02*
G01*
X30896742Y-62346601D01*
X31050687Y-62410367D01*
X31189234Y-62502941D01*
X31307059Y-62620766D01*
X31399633Y-62759313D01*
X31463399Y-62913258D01*
X31495907Y-63076685D01*
X31495907Y-63243315D01*
X31463399Y-63406742D01*
X31399633Y-63560687D01*
X31307059Y-63699234D01*
X31189234Y-63817059D01*
X31050687Y-63909633D01*
X30896742Y-63973399D01*
X30733315Y-64005907D01*
X30650000Y-64010000D01*
X30648768Y-64010000D01*
X30351232Y-64010000D01*
X30350000Y-64010000D01*
X30266685Y-64005907D01*
X30103258Y-63973399D01*
X29949313Y-63909633D01*
X29810766Y-63817059D01*
X29692941Y-63699234D01*
X29600367Y-63560687D01*
X29536601Y-63406742D01*
X29504093Y-63243315D01*
X29504093Y-63076685D01*
X29536601Y-62913258D01*
X29600367Y-62759313D01*
X29692941Y-62620766D01*
X29810766Y-62502941D01*
X29949313Y-62410367D01*
X30103258Y-62346601D01*
X30266685Y-62314093D01*
X30350000Y-62310000D01*
X30650000Y-62310000D01*
X30733315Y-62314093D01*
G37*
G36*
X25246742Y-62226601D02*
G01*
X25400687Y-62290367D01*
X25539234Y-62382941D01*
X25657059Y-62500766D01*
X25749633Y-62639313D01*
X25813399Y-62793258D01*
X25845907Y-62956685D01*
X25845907Y-63123315D01*
X25813399Y-63286742D01*
X25749633Y-63440687D01*
X25657059Y-63579234D01*
X25539234Y-63697059D01*
X25400687Y-63789633D01*
X25246742Y-63853399D01*
X25083315Y-63885907D01*
X24916685Y-63885907D01*
X24753258Y-63853399D01*
X24599313Y-63789633D01*
X24460766Y-63697059D01*
X24342941Y-63579234D01*
X24250367Y-63440687D01*
X24186601Y-63286742D01*
X24154093Y-63123315D01*
X24154093Y-62956685D01*
X24186601Y-62793258D01*
X24250367Y-62639313D01*
X24342941Y-62500766D01*
X24460766Y-62382941D01*
X24599313Y-62290367D01*
X24753258Y-62226601D01*
X24916685Y-62194093D01*
X25083315Y-62194093D01*
X25246742Y-62226601D01*
G37*
G36*
X9554047Y-61200805D02*
G01*
X9605408Y-61206764D01*
X9622954Y-61214511D01*
X9645671Y-61219030D01*
X9669991Y-61235280D01*
X9690793Y-61244465D01*
X9705000Y-61258672D01*
X9726777Y-61273223D01*
X9741327Y-61294999D01*
X9755534Y-61309206D01*
X9764718Y-61330006D01*
X9780970Y-61354329D01*
X9785489Y-61377048D01*
X9793235Y-61394591D01*
X9799192Y-61445940D01*
X9800000Y-61450000D01*
X9800000Y-62550000D01*
X9799192Y-62554059D01*
X9793235Y-62605408D01*
X9785489Y-62622950D01*
X9780970Y-62645671D01*
X9764716Y-62669995D01*
X9755534Y-62690793D01*
X9741329Y-62704997D01*
X9726777Y-62726777D01*
X9704997Y-62741329D01*
X9690793Y-62755534D01*
X9669995Y-62764716D01*
X9645671Y-62780970D01*
X9622950Y-62785489D01*
X9605408Y-62793235D01*
X9554061Y-62799192D01*
X9550000Y-62800000D01*
X8450000Y-62800000D01*
X8445941Y-62799192D01*
X8394591Y-62793235D01*
X8377048Y-62785489D01*
X8354329Y-62780970D01*
X8330006Y-62764718D01*
X8309206Y-62755534D01*
X8294999Y-62741327D01*
X8273223Y-62726777D01*
X8258672Y-62705000D01*
X8244465Y-62690793D01*
X8235280Y-62669991D01*
X8219030Y-62645671D01*
X8214511Y-62622954D01*
X8206764Y-62605408D01*
X8200805Y-62554049D01*
X8200000Y-62550000D01*
X8200000Y-61450000D01*
X8200804Y-61445953D01*
X8206764Y-61394591D01*
X8214511Y-61377043D01*
X8219030Y-61354329D01*
X8235278Y-61330010D01*
X8244465Y-61309206D01*
X8258674Y-61294996D01*
X8273223Y-61273223D01*
X8294996Y-61258674D01*
X8309206Y-61244465D01*
X8330010Y-61235278D01*
X8354329Y-61219030D01*
X8377043Y-61214511D01*
X8394591Y-61206764D01*
X8445952Y-61200805D01*
X8450000Y-61200000D01*
X9550000Y-61200000D01*
X9554047Y-61200805D01*
G37*
G36*
X16852228Y-61234448D02*
G01*
X16997117Y-61294463D01*
X17127515Y-61381592D01*
X17238408Y-61492485D01*
X17325537Y-61622883D01*
X17385552Y-61767772D01*
X17416148Y-61921586D01*
X17416148Y-62078414D01*
X17385552Y-62232228D01*
X17325537Y-62377117D01*
X17238408Y-62507515D01*
X17127515Y-62618408D01*
X16997117Y-62705537D01*
X16852228Y-62765552D01*
X16698414Y-62796148D01*
X16541586Y-62796148D01*
X16387772Y-62765552D01*
X16242883Y-62705537D01*
X16112485Y-62618408D01*
X16001592Y-62507515D01*
X15914463Y-62377117D01*
X15854448Y-62232228D01*
X15823852Y-62078414D01*
X15823852Y-61921586D01*
X15854448Y-61767772D01*
X15914463Y-61622883D01*
X16001592Y-61492485D01*
X16112485Y-61381592D01*
X16242883Y-61294463D01*
X16387772Y-61234448D01*
X16541586Y-61203852D01*
X16698414Y-61203852D01*
X16852228Y-61234448D01*
G37*
G36*
X20102228Y-61234448D02*
G01*
X20247117Y-61294463D01*
X20377515Y-61381592D01*
X20488408Y-61492485D01*
X20575537Y-61622883D01*
X20635552Y-61767772D01*
X20666148Y-61921586D01*
X20666148Y-62078414D01*
X20635552Y-62232228D01*
X20575537Y-62377117D01*
X20488408Y-62507515D01*
X20377515Y-62618408D01*
X20247117Y-62705537D01*
X20102228Y-62765552D01*
X19948414Y-62796148D01*
X19791586Y-62796148D01*
X19637772Y-62765552D01*
X19492883Y-62705537D01*
X19362485Y-62618408D01*
X19251592Y-62507515D01*
X19164463Y-62377117D01*
X19104448Y-62232228D01*
X19073852Y-62078414D01*
X19073852Y-61921586D01*
X19104448Y-61767772D01*
X19164463Y-61622883D01*
X19251592Y-61492485D01*
X19362485Y-61381592D01*
X19492883Y-61294463D01*
X19637772Y-61234448D01*
X19791586Y-61203852D01*
X19948414Y-61203852D01*
X20102228Y-61234448D01*
G37*
G36*
X30733315Y-59774093D02*
G01*
X30896742Y-59806601D01*
X31050687Y-59870367D01*
X31189234Y-59962941D01*
X31307059Y-60080766D01*
X31399633Y-60219313D01*
X31463399Y-60373258D01*
X31495907Y-60536685D01*
X31495907Y-60703315D01*
X31463399Y-60866742D01*
X31399633Y-61020687D01*
X31307059Y-61159234D01*
X31189234Y-61277059D01*
X31050687Y-61369633D01*
X30896742Y-61433399D01*
X30733315Y-61465907D01*
X30650000Y-61470000D01*
X30648768Y-61470000D01*
X30351232Y-61470000D01*
X30350000Y-61470000D01*
X30266685Y-61465907D01*
X30103258Y-61433399D01*
X29949313Y-61369633D01*
X29810766Y-61277059D01*
X29692941Y-61159234D01*
X29600367Y-61020687D01*
X29536601Y-60866742D01*
X29504093Y-60703315D01*
X29504093Y-60536685D01*
X29536601Y-60373258D01*
X29600367Y-60219313D01*
X29692941Y-60080766D01*
X29810766Y-59962941D01*
X29949313Y-59870367D01*
X30103258Y-59806601D01*
X30266685Y-59774093D01*
X30350000Y-59770000D01*
X30650000Y-59770000D01*
X30733315Y-59774093D01*
G37*
G36*
X25850000Y-61350000D02*
G01*
X24150000Y-61350000D01*
X24150000Y-59650000D01*
X25850000Y-59650000D01*
X25850000Y-61350000D01*
G37*
G36*
X30733315Y-57234093D02*
G01*
X30896742Y-57266601D01*
X31050687Y-57330367D01*
X31189234Y-57422941D01*
X31307059Y-57540766D01*
X31399633Y-57679313D01*
X31463399Y-57833258D01*
X31495907Y-57996685D01*
X31495907Y-58163315D01*
X31463399Y-58326742D01*
X31399633Y-58480687D01*
X31307059Y-58619234D01*
X31189234Y-58737059D01*
X31050687Y-58829633D01*
X30896742Y-58893399D01*
X30733315Y-58925907D01*
X30650000Y-58930000D01*
X30648768Y-58930000D01*
X30351232Y-58930000D01*
X30350000Y-58930000D01*
X30266685Y-58925907D01*
X30103258Y-58893399D01*
X29949313Y-58829633D01*
X29810766Y-58737059D01*
X29692941Y-58619234D01*
X29600367Y-58480687D01*
X29536601Y-58326742D01*
X29504093Y-58163315D01*
X29504093Y-57996685D01*
X29536601Y-57833258D01*
X29600367Y-57679313D01*
X29692941Y-57540766D01*
X29810766Y-57422941D01*
X29949313Y-57330367D01*
X30103258Y-57266601D01*
X30266685Y-57234093D01*
X30350000Y-57230000D01*
X30650000Y-57230000D01*
X30733315Y-57234093D01*
G37*
G36*
X20102228Y-56234448D02*
G01*
X20247117Y-56294463D01*
X20377515Y-56381592D01*
X20488408Y-56492485D01*
X20575537Y-56622883D01*
X20635552Y-56767772D01*
X20666148Y-56921586D01*
X20666148Y-57078414D01*
X20635552Y-57232228D01*
X20575537Y-57377117D01*
X20488408Y-57507515D01*
X20377515Y-57618408D01*
X20247117Y-57705537D01*
X20102228Y-57765552D01*
X19948414Y-57796148D01*
X19791586Y-57796148D01*
X19637772Y-57765552D01*
X19492883Y-57705537D01*
X19362485Y-57618408D01*
X19251592Y-57507515D01*
X19164463Y-57377117D01*
X19104448Y-57232228D01*
X19073852Y-57078414D01*
X19073852Y-56921586D01*
X19104448Y-56767772D01*
X19164463Y-56622883D01*
X19251592Y-56492485D01*
X19362485Y-56381592D01*
X19492883Y-56294463D01*
X19637772Y-56234448D01*
X19791586Y-56203852D01*
X19948414Y-56203852D01*
X20102228Y-56234448D01*
G37*
G36*
X10677228Y-55004448D02*
G01*
X10822117Y-55064463D01*
X10952515Y-55151592D01*
X11063408Y-55262485D01*
X11150537Y-55392883D01*
X11210552Y-55537772D01*
X11241148Y-55691586D01*
X11241148Y-55848414D01*
X11210552Y-56002228D01*
X11150537Y-56147117D01*
X11063408Y-56277515D01*
X10952515Y-56388408D01*
X10822117Y-56475537D01*
X10677228Y-56535552D01*
X10523414Y-56566148D01*
X10366586Y-56566148D01*
X10212772Y-56535552D01*
X10067883Y-56475537D01*
X9937485Y-56388408D01*
X9826592Y-56277515D01*
X9739463Y-56147117D01*
X9679448Y-56002228D01*
X9648852Y-55848414D01*
X9648852Y-55691586D01*
X9679448Y-55537772D01*
X9739463Y-55392883D01*
X9826592Y-55262485D01*
X9937485Y-55151592D01*
X10067883Y-55064463D01*
X10212772Y-55004448D01*
X10366586Y-54973852D01*
X10523414Y-54973852D01*
X10677228Y-55004448D01*
G37*
G36*
X15757228Y-55004448D02*
G01*
X15902117Y-55064463D01*
X16032515Y-55151592D01*
X16143408Y-55262485D01*
X16230537Y-55392883D01*
X16290552Y-55537772D01*
X16321148Y-55691586D01*
X16321148Y-55848414D01*
X16290552Y-56002228D01*
X16230537Y-56147117D01*
X16143408Y-56277515D01*
X16032515Y-56388408D01*
X15902117Y-56475537D01*
X15757228Y-56535552D01*
X15603414Y-56566148D01*
X15446586Y-56566148D01*
X15292772Y-56535552D01*
X15147883Y-56475537D01*
X15017485Y-56388408D01*
X14906592Y-56277515D01*
X14819463Y-56147117D01*
X14759448Y-56002228D01*
X14728852Y-55848414D01*
X14728852Y-55691586D01*
X14759448Y-55537772D01*
X14819463Y-55392883D01*
X14906592Y-55262485D01*
X15017485Y-55151592D01*
X15147883Y-55064463D01*
X15292772Y-55004448D01*
X15446586Y-54973852D01*
X15603414Y-54973852D01*
X15757228Y-55004448D01*
G37*
G36*
X24804047Y-54665805D02*
G01*
X24855408Y-54671764D01*
X24872954Y-54679511D01*
X24895671Y-54684030D01*
X24919991Y-54700280D01*
X24940793Y-54709465D01*
X24955000Y-54723672D01*
X24976777Y-54738223D01*
X24991327Y-54759999D01*
X25005534Y-54774206D01*
X25014718Y-54795006D01*
X25030970Y-54819329D01*
X25035489Y-54842048D01*
X25043235Y-54859591D01*
X25049192Y-54910940D01*
X25050000Y-54915000D01*
X25050000Y-56165000D01*
X25049192Y-56169059D01*
X25043235Y-56220408D01*
X25035489Y-56237950D01*
X25030970Y-56260671D01*
X25014716Y-56284995D01*
X25005534Y-56305793D01*
X24991329Y-56319997D01*
X24976777Y-56341777D01*
X24954997Y-56356329D01*
X24940793Y-56370534D01*
X24919995Y-56379716D01*
X24895671Y-56395970D01*
X24872950Y-56400489D01*
X24855408Y-56408235D01*
X24804061Y-56414192D01*
X24800000Y-56415000D01*
X24000000Y-56415000D01*
X23995941Y-56414192D01*
X23944591Y-56408235D01*
X23927048Y-56400489D01*
X23904329Y-56395970D01*
X23880006Y-56379718D01*
X23859206Y-56370534D01*
X23844999Y-56356327D01*
X23823223Y-56341777D01*
X23808672Y-56320000D01*
X23794465Y-56305793D01*
X23785280Y-56284991D01*
X23769030Y-56260671D01*
X23764511Y-56237954D01*
X23756764Y-56220408D01*
X23750805Y-56169049D01*
X23750000Y-56165000D01*
X23750000Y-54915000D01*
X23750804Y-54910953D01*
X23756764Y-54859591D01*
X23764511Y-54842043D01*
X23769030Y-54819329D01*
X23785278Y-54795010D01*
X23794465Y-54774206D01*
X23808674Y-54759996D01*
X23823223Y-54738223D01*
X23844996Y-54723674D01*
X23859206Y-54709465D01*
X23880010Y-54700278D01*
X23904329Y-54684030D01*
X23927043Y-54679511D01*
X23944591Y-54671764D01*
X23995952Y-54665805D01*
X24000000Y-54665000D01*
X24800000Y-54665000D01*
X24804047Y-54665805D01*
G37*
G36*
X27904047Y-54665805D02*
G01*
X27955408Y-54671764D01*
X27972954Y-54679511D01*
X27995671Y-54684030D01*
X28019991Y-54700280D01*
X28040793Y-54709465D01*
X28055000Y-54723672D01*
X28076777Y-54738223D01*
X28091327Y-54759999D01*
X28105534Y-54774206D01*
X28114718Y-54795006D01*
X28130970Y-54819329D01*
X28135489Y-54842048D01*
X28143235Y-54859591D01*
X28149192Y-54910940D01*
X28150000Y-54915000D01*
X28150000Y-56165000D01*
X28149192Y-56169059D01*
X28143235Y-56220408D01*
X28135489Y-56237950D01*
X28130970Y-56260671D01*
X28114716Y-56284995D01*
X28105534Y-56305793D01*
X28091329Y-56319997D01*
X28076777Y-56341777D01*
X28054997Y-56356329D01*
X28040793Y-56370534D01*
X28019995Y-56379716D01*
X27995671Y-56395970D01*
X27972950Y-56400489D01*
X27955408Y-56408235D01*
X27904061Y-56414192D01*
X27900000Y-56415000D01*
X27100000Y-56415000D01*
X27095941Y-56414192D01*
X27044591Y-56408235D01*
X27027048Y-56400489D01*
X27004329Y-56395970D01*
X26980006Y-56379718D01*
X26959206Y-56370534D01*
X26944999Y-56356327D01*
X26923223Y-56341777D01*
X26908672Y-56320000D01*
X26894465Y-56305793D01*
X26885280Y-56284991D01*
X26869030Y-56260671D01*
X26864511Y-56237954D01*
X26856764Y-56220408D01*
X26850805Y-56169049D01*
X26850000Y-56165000D01*
X26850000Y-54915000D01*
X26850804Y-54910953D01*
X26856764Y-54859591D01*
X26864511Y-54842043D01*
X26869030Y-54819329D01*
X26885278Y-54795010D01*
X26894465Y-54774206D01*
X26908674Y-54759996D01*
X26923223Y-54738223D01*
X26944996Y-54723674D01*
X26959206Y-54709465D01*
X26980010Y-54700278D01*
X27004329Y-54684030D01*
X27027043Y-54679511D01*
X27044591Y-54671764D01*
X27095952Y-54665805D01*
X27100000Y-54665000D01*
X27900000Y-54665000D01*
X27904047Y-54665805D01*
G37*
G36*
X30733315Y-54694093D02*
G01*
X30896742Y-54726601D01*
X31050687Y-54790367D01*
X31189234Y-54882941D01*
X31307059Y-55000766D01*
X31399633Y-55139313D01*
X31463399Y-55293258D01*
X31495907Y-55456685D01*
X31495907Y-55623315D01*
X31463399Y-55786742D01*
X31399633Y-55940687D01*
X31307059Y-56079234D01*
X31189234Y-56197059D01*
X31050687Y-56289633D01*
X30896742Y-56353399D01*
X30733315Y-56385907D01*
X30650000Y-56390000D01*
X30648768Y-56390000D01*
X30351232Y-56390000D01*
X30350000Y-56390000D01*
X30266685Y-56385907D01*
X30103258Y-56353399D01*
X29949313Y-56289633D01*
X29810766Y-56197059D01*
X29692941Y-56079234D01*
X29600367Y-55940687D01*
X29536601Y-55786742D01*
X29504093Y-55623315D01*
X29504093Y-55456685D01*
X29536601Y-55293258D01*
X29600367Y-55139313D01*
X29692941Y-55000766D01*
X29810766Y-54882941D01*
X29949313Y-54790367D01*
X30103258Y-54726601D01*
X30266685Y-54694093D01*
X30350000Y-54690000D01*
X30650000Y-54690000D01*
X30733315Y-54694093D01*
G37*
G36*
X2927228Y-54174448D02*
G01*
X3072117Y-54234463D01*
X3202515Y-54321592D01*
X3313408Y-54432485D01*
X3400537Y-54562883D01*
X3460552Y-54707772D01*
X3491148Y-54861586D01*
X3491148Y-55018414D01*
X3460552Y-55172228D01*
X3400537Y-55317117D01*
X3313408Y-55447515D01*
X3202515Y-55558408D01*
X3072117Y-55645537D01*
X2927228Y-55705552D01*
X2773414Y-55736148D01*
X2616586Y-55736148D01*
X2462772Y-55705552D01*
X2317883Y-55645537D01*
X2187485Y-55558408D01*
X2076592Y-55447515D01*
X1989463Y-55317117D01*
X1929448Y-55172228D01*
X1898852Y-55018414D01*
X1898852Y-54861586D01*
X1929448Y-54707772D01*
X1989463Y-54562883D01*
X2076592Y-54432485D01*
X2187485Y-54321592D01*
X2317883Y-54234463D01*
X2462772Y-54174448D01*
X2616586Y-54143852D01*
X2773414Y-54143852D01*
X2927228Y-54174448D01*
G37*
G36*
X8007228Y-54174448D02*
G01*
X8152117Y-54234463D01*
X8282515Y-54321592D01*
X8393408Y-54432485D01*
X8480537Y-54562883D01*
X8540552Y-54707772D01*
X8571148Y-54861586D01*
X8571148Y-55018414D01*
X8540552Y-55172228D01*
X8480537Y-55317117D01*
X8393408Y-55447515D01*
X8282515Y-55558408D01*
X8152117Y-55645537D01*
X8007228Y-55705552D01*
X7853414Y-55736148D01*
X7696586Y-55736148D01*
X7542772Y-55705552D01*
X7397883Y-55645537D01*
X7267485Y-55558408D01*
X7156592Y-55447515D01*
X7069463Y-55317117D01*
X7009448Y-55172228D01*
X6978852Y-55018414D01*
X6978852Y-54861586D01*
X7009448Y-54707772D01*
X7069463Y-54562883D01*
X7156592Y-54432485D01*
X7267485Y-54321592D01*
X7397883Y-54234463D01*
X7542772Y-54174448D01*
X7696586Y-54143852D01*
X7853414Y-54143852D01*
X8007228Y-54174448D01*
G37*
G36*
X33904047Y-52125805D02*
G01*
X33955408Y-52131764D01*
X33972954Y-52139511D01*
X33995671Y-52144030D01*
X34019991Y-52160280D01*
X34040793Y-52169465D01*
X34055000Y-52183672D01*
X34076777Y-52198223D01*
X34091327Y-52219999D01*
X34105534Y-52234206D01*
X34114718Y-52255006D01*
X34130970Y-52279329D01*
X34135489Y-52302048D01*
X34143235Y-52319591D01*
X34149192Y-52370940D01*
X34150000Y-52375000D01*
X34150000Y-53625000D01*
X34149192Y-53629059D01*
X34143235Y-53680408D01*
X34135489Y-53697950D01*
X34130970Y-53720671D01*
X34114716Y-53744995D01*
X34105534Y-53765793D01*
X34091329Y-53779997D01*
X34076777Y-53801777D01*
X34054997Y-53816329D01*
X34040793Y-53830534D01*
X34019995Y-53839716D01*
X33995671Y-53855970D01*
X33972950Y-53860489D01*
X33955408Y-53868235D01*
X33904061Y-53874192D01*
X33900000Y-53875000D01*
X33100000Y-53875000D01*
X33095941Y-53874192D01*
X33044591Y-53868235D01*
X33027048Y-53860489D01*
X33004329Y-53855970D01*
X32980006Y-53839718D01*
X32959206Y-53830534D01*
X32944999Y-53816327D01*
X32923223Y-53801777D01*
X32908672Y-53780000D01*
X32894465Y-53765793D01*
X32885280Y-53744991D01*
X32869030Y-53720671D01*
X32864511Y-53697954D01*
X32856764Y-53680408D01*
X32850805Y-53629049D01*
X32850000Y-53625000D01*
X32850000Y-52375000D01*
X32850804Y-52370953D01*
X32856764Y-52319591D01*
X32864511Y-52302043D01*
X32869030Y-52279329D01*
X32885278Y-52255010D01*
X32894465Y-52234206D01*
X32908674Y-52219996D01*
X32923223Y-52198223D01*
X32944996Y-52183674D01*
X32959206Y-52169465D01*
X32980010Y-52160278D01*
X33004329Y-52144030D01*
X33027043Y-52139511D01*
X33044591Y-52131764D01*
X33095952Y-52125805D01*
X33100000Y-52125000D01*
X33900000Y-52125000D01*
X33904047Y-52125805D01*
G37*
G36*
X37004047Y-52125805D02*
G01*
X37055408Y-52131764D01*
X37072954Y-52139511D01*
X37095671Y-52144030D01*
X37119991Y-52160280D01*
X37140793Y-52169465D01*
X37155000Y-52183672D01*
X37176777Y-52198223D01*
X37191327Y-52219999D01*
X37205534Y-52234206D01*
X37214718Y-52255006D01*
X37230970Y-52279329D01*
X37235489Y-52302048D01*
X37243235Y-52319591D01*
X37249192Y-52370940D01*
X37250000Y-52375000D01*
X37250000Y-53625000D01*
X37249192Y-53629059D01*
X37243235Y-53680408D01*
X37235489Y-53697950D01*
X37230970Y-53720671D01*
X37214716Y-53744995D01*
X37205534Y-53765793D01*
X37191329Y-53779997D01*
X37176777Y-53801777D01*
X37154997Y-53816329D01*
X37140793Y-53830534D01*
X37119995Y-53839716D01*
X37095671Y-53855970D01*
X37072950Y-53860489D01*
X37055408Y-53868235D01*
X37004061Y-53874192D01*
X37000000Y-53875000D01*
X36200000Y-53875000D01*
X36195941Y-53874192D01*
X36144591Y-53868235D01*
X36127048Y-53860489D01*
X36104329Y-53855970D01*
X36080006Y-53839718D01*
X36059206Y-53830534D01*
X36044999Y-53816327D01*
X36023223Y-53801777D01*
X36008672Y-53780000D01*
X35994465Y-53765793D01*
X35985280Y-53744991D01*
X35969030Y-53720671D01*
X35964511Y-53697954D01*
X35956764Y-53680408D01*
X35950805Y-53629049D01*
X35950000Y-53625000D01*
X35950000Y-52375000D01*
X35950804Y-52370953D01*
X35956764Y-52319591D01*
X35964511Y-52302043D01*
X35969030Y-52279329D01*
X35985278Y-52255010D01*
X35994465Y-52234206D01*
X36008674Y-52219996D01*
X36023223Y-52198223D01*
X36044996Y-52183674D01*
X36059206Y-52169465D01*
X36080010Y-52160278D01*
X36104329Y-52144030D01*
X36127043Y-52139511D01*
X36144591Y-52131764D01*
X36195952Y-52125805D01*
X36200000Y-52125000D01*
X37000000Y-52125000D01*
X37004047Y-52125805D01*
G37*
G36*
X31500000Y-53850000D02*
G01*
X29500000Y-53850000D01*
X29500000Y-52150000D01*
X31500000Y-52150000D01*
X31500000Y-53850000D01*
G37*
G36*
X19429047Y-51125805D02*
G01*
X19480408Y-51131764D01*
X19497954Y-51139511D01*
X19520671Y-51144030D01*
X19544991Y-51160280D01*
X19565793Y-51169465D01*
X19580000Y-51183672D01*
X19601777Y-51198223D01*
X19616327Y-51219999D01*
X19630534Y-51234206D01*
X19639718Y-51255006D01*
X19655970Y-51279329D01*
X19660489Y-51302048D01*
X19668235Y-51319591D01*
X19674192Y-51370940D01*
X19675000Y-51375000D01*
X19675000Y-52625000D01*
X19674192Y-52629059D01*
X19668235Y-52680408D01*
X19660489Y-52697950D01*
X19655970Y-52720671D01*
X19639716Y-52744995D01*
X19630534Y-52765793D01*
X19616329Y-52779997D01*
X19601777Y-52801777D01*
X19579997Y-52816329D01*
X19565793Y-52830534D01*
X19544995Y-52839716D01*
X19520671Y-52855970D01*
X19497950Y-52860489D01*
X19480408Y-52868235D01*
X19429061Y-52874192D01*
X19425000Y-52875000D01*
X18625000Y-52875000D01*
X18620941Y-52874192D01*
X18569591Y-52868235D01*
X18552048Y-52860489D01*
X18529329Y-52855970D01*
X18505006Y-52839718D01*
X18484206Y-52830534D01*
X18469999Y-52816327D01*
X18448223Y-52801777D01*
X18433672Y-52780000D01*
X18419465Y-52765793D01*
X18410280Y-52744991D01*
X18394030Y-52720671D01*
X18389511Y-52697954D01*
X18381764Y-52680408D01*
X18375805Y-52629049D01*
X18375000Y-52625000D01*
X18375000Y-51375000D01*
X18375804Y-51370953D01*
X18381764Y-51319591D01*
X18389511Y-51302043D01*
X18394030Y-51279329D01*
X18410278Y-51255010D01*
X18419465Y-51234206D01*
X18433674Y-51219996D01*
X18448223Y-51198223D01*
X18469996Y-51183674D01*
X18484206Y-51169465D01*
X18505010Y-51160278D01*
X18529329Y-51144030D01*
X18552043Y-51139511D01*
X18569591Y-51131764D01*
X18620952Y-51125805D01*
X18625000Y-51125000D01*
X19425000Y-51125000D01*
X19429047Y-51125805D01*
G37*
G36*
X22529047Y-51125805D02*
G01*
X22580408Y-51131764D01*
X22597954Y-51139511D01*
X22620671Y-51144030D01*
X22644991Y-51160280D01*
X22665793Y-51169465D01*
X22680000Y-51183672D01*
X22701777Y-51198223D01*
X22716327Y-51219999D01*
X22730534Y-51234206D01*
X22739718Y-51255006D01*
X22755970Y-51279329D01*
X22760489Y-51302048D01*
X22768235Y-51319591D01*
X22774192Y-51370940D01*
X22775000Y-51375000D01*
X22775000Y-52625000D01*
X22774192Y-52629059D01*
X22768235Y-52680408D01*
X22760489Y-52697950D01*
X22755970Y-52720671D01*
X22739716Y-52744995D01*
X22730534Y-52765793D01*
X22716329Y-52779997D01*
X22701777Y-52801777D01*
X22679997Y-52816329D01*
X22665793Y-52830534D01*
X22644995Y-52839716D01*
X22620671Y-52855970D01*
X22597950Y-52860489D01*
X22580408Y-52868235D01*
X22529061Y-52874192D01*
X22525000Y-52875000D01*
X21725000Y-52875000D01*
X21720941Y-52874192D01*
X21669591Y-52868235D01*
X21652048Y-52860489D01*
X21629329Y-52855970D01*
X21605006Y-52839718D01*
X21584206Y-52830534D01*
X21569999Y-52816327D01*
X21548223Y-52801777D01*
X21533672Y-52780000D01*
X21519465Y-52765793D01*
X21510280Y-52744991D01*
X21494030Y-52720671D01*
X21489511Y-52697954D01*
X21481764Y-52680408D01*
X21475805Y-52629049D01*
X21475000Y-52625000D01*
X21475000Y-51375000D01*
X21475804Y-51370953D01*
X21481764Y-51319591D01*
X21489511Y-51302043D01*
X21494030Y-51279329D01*
X21510278Y-51255010D01*
X21519465Y-51234206D01*
X21533674Y-51219996D01*
X21548223Y-51198223D01*
X21569996Y-51183674D01*
X21584206Y-51169465D01*
X21605010Y-51160278D01*
X21629329Y-51144030D01*
X21652043Y-51139511D01*
X21669591Y-51131764D01*
X21720952Y-51125805D01*
X21725000Y-51125000D01*
X22525000Y-51125000D01*
X22529047Y-51125805D01*
G37*
G36*
X13329047Y-50355805D02*
G01*
X13380408Y-50361764D01*
X13397954Y-50369511D01*
X13420671Y-50374030D01*
X13444991Y-50390280D01*
X13465793Y-50399465D01*
X13480000Y-50413672D01*
X13501777Y-50428223D01*
X13516327Y-50449999D01*
X13530534Y-50464206D01*
X13539718Y-50485006D01*
X13555970Y-50509329D01*
X13560489Y-50532048D01*
X13568235Y-50549591D01*
X13574192Y-50600940D01*
X13575000Y-50605000D01*
X13575000Y-51855000D01*
X13574192Y-51859059D01*
X13568235Y-51910408D01*
X13560489Y-51927950D01*
X13555970Y-51950671D01*
X13539716Y-51974995D01*
X13530534Y-51995793D01*
X13516329Y-52009997D01*
X13501777Y-52031777D01*
X13479997Y-52046329D01*
X13465793Y-52060534D01*
X13444995Y-52069716D01*
X13420671Y-52085970D01*
X13397950Y-52090489D01*
X13380408Y-52098235D01*
X13329061Y-52104192D01*
X13325000Y-52105000D01*
X12525000Y-52105000D01*
X12520941Y-52104192D01*
X12469591Y-52098235D01*
X12452048Y-52090489D01*
X12429329Y-52085970D01*
X12405006Y-52069718D01*
X12384206Y-52060534D01*
X12369999Y-52046327D01*
X12348223Y-52031777D01*
X12333672Y-52010000D01*
X12319465Y-51995793D01*
X12310280Y-51974991D01*
X12294030Y-51950671D01*
X12289511Y-51927954D01*
X12281764Y-51910408D01*
X12275805Y-51859049D01*
X12275000Y-51855000D01*
X12275000Y-50605000D01*
X12275804Y-50600953D01*
X12281764Y-50549591D01*
X12289511Y-50532043D01*
X12294030Y-50509329D01*
X12310278Y-50485010D01*
X12319465Y-50464206D01*
X12333674Y-50449996D01*
X12348223Y-50428223D01*
X12369996Y-50413674D01*
X12384206Y-50399465D01*
X12405010Y-50390278D01*
X12429329Y-50374030D01*
X12452043Y-50369511D01*
X12469591Y-50361764D01*
X12520952Y-50355805D01*
X12525000Y-50355000D01*
X13325000Y-50355000D01*
X13329047Y-50355805D01*
G37*
G36*
X16429047Y-50355805D02*
G01*
X16480408Y-50361764D01*
X16497954Y-50369511D01*
X16520671Y-50374030D01*
X16544991Y-50390280D01*
X16565793Y-50399465D01*
X16580000Y-50413672D01*
X16601777Y-50428223D01*
X16616327Y-50449999D01*
X16630534Y-50464206D01*
X16639718Y-50485006D01*
X16655970Y-50509329D01*
X16660489Y-50532048D01*
X16668235Y-50549591D01*
X16674192Y-50600940D01*
X16675000Y-50605000D01*
X16675000Y-51855000D01*
X16674192Y-51859059D01*
X16668235Y-51910408D01*
X16660489Y-51927950D01*
X16655970Y-51950671D01*
X16639716Y-51974995D01*
X16630534Y-51995793D01*
X16616329Y-52009997D01*
X16601777Y-52031777D01*
X16579997Y-52046329D01*
X16565793Y-52060534D01*
X16544995Y-52069716D01*
X16520671Y-52085970D01*
X16497950Y-52090489D01*
X16480408Y-52098235D01*
X16429061Y-52104192D01*
X16425000Y-52105000D01*
X15625000Y-52105000D01*
X15620941Y-52104192D01*
X15569591Y-52098235D01*
X15552048Y-52090489D01*
X15529329Y-52085970D01*
X15505006Y-52069718D01*
X15484206Y-52060534D01*
X15469999Y-52046327D01*
X15448223Y-52031777D01*
X15433672Y-52010000D01*
X15419465Y-51995793D01*
X15410280Y-51974991D01*
X15394030Y-51950671D01*
X15389511Y-51927954D01*
X15381764Y-51910408D01*
X15375805Y-51859049D01*
X15375000Y-51855000D01*
X15375000Y-50605000D01*
X15375804Y-50600953D01*
X15381764Y-50549591D01*
X15389511Y-50532043D01*
X15394030Y-50509329D01*
X15410278Y-50485010D01*
X15419465Y-50464206D01*
X15433674Y-50449996D01*
X15448223Y-50428223D01*
X15469996Y-50413674D01*
X15484206Y-50399465D01*
X15505010Y-50390278D01*
X15529329Y-50374030D01*
X15552043Y-50369511D01*
X15569591Y-50361764D01*
X15620952Y-50355805D01*
X15625000Y-50355000D01*
X16425000Y-50355000D01*
X16429047Y-50355805D01*
G37*
G36*
X5327228Y-50464448D02*
G01*
X5472117Y-50524463D01*
X5602515Y-50611592D01*
X5713408Y-50722485D01*
X5800537Y-50852883D01*
X5860552Y-50997772D01*
X5891148Y-51151586D01*
X5891148Y-51308414D01*
X5860552Y-51462228D01*
X5800537Y-51607117D01*
X5713408Y-51737515D01*
X5602515Y-51848408D01*
X5472117Y-51935537D01*
X5327228Y-51995552D01*
X5173414Y-52026148D01*
X5016586Y-52026148D01*
X4862772Y-51995552D01*
X4717883Y-51935537D01*
X4587485Y-51848408D01*
X4476592Y-51737515D01*
X4389463Y-51607117D01*
X4329448Y-51462228D01*
X4298852Y-51308414D01*
X4298852Y-51151586D01*
X4329448Y-50997772D01*
X4389463Y-50852883D01*
X4476592Y-50722485D01*
X4587485Y-50611592D01*
X4717883Y-50524463D01*
X4862772Y-50464448D01*
X5016586Y-50433852D01*
X5173414Y-50433852D01*
X5327228Y-50464448D01*
G37*
G36*
X10407228Y-50464448D02*
G01*
X10552117Y-50524463D01*
X10682515Y-50611592D01*
X10793408Y-50722485D01*
X10880537Y-50852883D01*
X10940552Y-50997772D01*
X10971148Y-51151586D01*
X10971148Y-51308414D01*
X10940552Y-51462228D01*
X10880537Y-51607117D01*
X10793408Y-51737515D01*
X10682515Y-51848408D01*
X10552117Y-51935537D01*
X10407228Y-51995552D01*
X10253414Y-52026148D01*
X10096586Y-52026148D01*
X9942772Y-51995552D01*
X9797883Y-51935537D01*
X9667485Y-51848408D01*
X9556592Y-51737515D01*
X9469463Y-51607117D01*
X9409448Y-51462228D01*
X9378852Y-51308414D01*
X9378852Y-51151586D01*
X9409448Y-50997772D01*
X9469463Y-50852883D01*
X9556592Y-50722485D01*
X9667485Y-50611592D01*
X9797883Y-50524463D01*
X9942772Y-50464448D01*
X10096586Y-50433852D01*
X10253414Y-50433852D01*
X10407228Y-50464448D01*
G37*
G36*
X19654047Y-48640805D02*
G01*
X19705408Y-48646764D01*
X19722954Y-48654511D01*
X19745671Y-48659030D01*
X19769991Y-48675280D01*
X19790793Y-48684465D01*
X19805000Y-48698672D01*
X19826777Y-48713223D01*
X19841327Y-48734999D01*
X19855534Y-48749206D01*
X19864718Y-48770006D01*
X19880970Y-48794329D01*
X19885489Y-48817048D01*
X19893235Y-48834591D01*
X19899192Y-48885940D01*
X19900000Y-48890000D01*
X19900000Y-49690000D01*
X19899192Y-49694059D01*
X19893235Y-49745408D01*
X19885489Y-49762950D01*
X19880970Y-49785671D01*
X19864716Y-49809995D01*
X19855534Y-49830793D01*
X19841329Y-49844997D01*
X19826777Y-49866777D01*
X19804997Y-49881329D01*
X19790793Y-49895534D01*
X19769995Y-49904716D01*
X19745671Y-49920970D01*
X19722950Y-49925489D01*
X19705408Y-49933235D01*
X19654061Y-49939192D01*
X19650000Y-49940000D01*
X18400000Y-49940000D01*
X18395941Y-49939192D01*
X18344591Y-49933235D01*
X18327048Y-49925489D01*
X18304329Y-49920970D01*
X18280006Y-49904718D01*
X18259206Y-49895534D01*
X18244999Y-49881327D01*
X18223223Y-49866777D01*
X18208672Y-49845000D01*
X18194465Y-49830793D01*
X18185280Y-49809991D01*
X18169030Y-49785671D01*
X18164511Y-49762954D01*
X18156764Y-49745408D01*
X18150805Y-49694049D01*
X18150000Y-49690000D01*
X18150000Y-48890000D01*
X18150804Y-48885953D01*
X18156764Y-48834591D01*
X18164511Y-48817043D01*
X18169030Y-48794329D01*
X18185278Y-48770010D01*
X18194465Y-48749206D01*
X18208674Y-48734996D01*
X18223223Y-48713223D01*
X18244996Y-48698674D01*
X18259206Y-48684465D01*
X18280010Y-48675278D01*
X18304329Y-48659030D01*
X18327043Y-48654511D01*
X18344591Y-48646764D01*
X18395952Y-48640805D01*
X18400000Y-48640000D01*
X19650000Y-48640000D01*
X19654047Y-48640805D01*
G37*
G36*
X10257228Y-46694448D02*
G01*
X10402117Y-46754463D01*
X10532515Y-46841592D01*
X10643408Y-46952485D01*
X10730537Y-47082883D01*
X10790552Y-47227772D01*
X10821148Y-47381586D01*
X10821148Y-47538414D01*
X10790552Y-47692228D01*
X10730537Y-47837117D01*
X10643408Y-47967515D01*
X10532515Y-48078408D01*
X10402117Y-48165537D01*
X10257228Y-48225552D01*
X10103414Y-48256148D01*
X9946586Y-48256148D01*
X9792772Y-48225552D01*
X9647883Y-48165537D01*
X9517485Y-48078408D01*
X9406592Y-47967515D01*
X9319463Y-47837117D01*
X9259448Y-47692228D01*
X9228852Y-47538414D01*
X9228852Y-47381586D01*
X9259448Y-47227772D01*
X9319463Y-47082883D01*
X9406592Y-46952485D01*
X9517485Y-46841592D01*
X9647883Y-46754463D01*
X9792772Y-46694448D01*
X9946586Y-46663852D01*
X10103414Y-46663852D01*
X10257228Y-46694448D01*
G37*
G36*
X19654047Y-45540805D02*
G01*
X19705408Y-45546764D01*
X19722954Y-45554511D01*
X19745671Y-45559030D01*
X19769991Y-45575280D01*
X19790793Y-45584465D01*
X19805000Y-45598672D01*
X19826777Y-45613223D01*
X19841327Y-45634999D01*
X19855534Y-45649206D01*
X19864718Y-45670006D01*
X19880970Y-45694329D01*
X19885489Y-45717048D01*
X19893235Y-45734591D01*
X19899192Y-45785940D01*
X19900000Y-45790000D01*
X19900000Y-46590000D01*
X19899192Y-46594059D01*
X19893235Y-46645408D01*
X19885489Y-46662950D01*
X19880970Y-46685671D01*
X19864716Y-46709995D01*
X19855534Y-46730793D01*
X19841329Y-46744997D01*
X19826777Y-46766777D01*
X19804997Y-46781329D01*
X19790793Y-46795534D01*
X19769995Y-46804716D01*
X19745671Y-46820970D01*
X19722950Y-46825489D01*
X19705408Y-46833235D01*
X19654061Y-46839192D01*
X19650000Y-46840000D01*
X18400000Y-46840000D01*
X18395941Y-46839192D01*
X18344591Y-46833235D01*
X18327048Y-46825489D01*
X18304329Y-46820970D01*
X18280006Y-46804718D01*
X18259206Y-46795534D01*
X18244999Y-46781327D01*
X18223223Y-46766777D01*
X18208672Y-46745000D01*
X18194465Y-46730793D01*
X18185280Y-46709991D01*
X18169030Y-46685671D01*
X18164511Y-46662954D01*
X18156764Y-46645408D01*
X18150805Y-46594049D01*
X18150000Y-46590000D01*
X18150000Y-45790000D01*
X18150804Y-45785953D01*
X18156764Y-45734591D01*
X18164511Y-45717043D01*
X18169030Y-45694329D01*
X18185278Y-45670010D01*
X18194465Y-45649206D01*
X18208674Y-45634996D01*
X18223223Y-45613223D01*
X18244996Y-45598674D01*
X18259206Y-45584465D01*
X18280010Y-45575278D01*
X18304329Y-45559030D01*
X18327043Y-45554511D01*
X18344591Y-45546764D01*
X18395952Y-45540805D01*
X18400000Y-45540000D01*
X19650000Y-45540000D01*
X19654047Y-45540805D01*
G37*
G36*
X6257228Y-44604448D02*
G01*
X6402117Y-44664463D01*
X6532515Y-44751592D01*
X6643408Y-44862485D01*
X6730537Y-44992883D01*
X6790552Y-45137772D01*
X6821148Y-45291586D01*
X6821148Y-45448414D01*
X6790552Y-45602228D01*
X6730537Y-45747117D01*
X6643408Y-45877515D01*
X6532515Y-45988408D01*
X6402117Y-46075537D01*
X6257228Y-46135552D01*
X6103414Y-46166148D01*
X5946586Y-46166148D01*
X5792772Y-46135552D01*
X5647883Y-46075537D01*
X5517485Y-45988408D01*
X5406592Y-45877515D01*
X5319463Y-45747117D01*
X5259448Y-45602228D01*
X5228852Y-45448414D01*
X5228852Y-45291586D01*
X5259448Y-45137772D01*
X5319463Y-44992883D01*
X5406592Y-44862485D01*
X5517485Y-44751592D01*
X5647883Y-44664463D01*
X5792772Y-44604448D01*
X5946586Y-44573852D01*
X6103414Y-44573852D01*
X6257228Y-44604448D01*
G37*
G36*
X24207228Y-42924448D02*
G01*
X24352117Y-42984463D01*
X24482515Y-43071592D01*
X24593408Y-43182485D01*
X24680537Y-43312883D01*
X24740552Y-43457772D01*
X24771148Y-43611586D01*
X24771148Y-43768414D01*
X24740552Y-43922228D01*
X24680537Y-44067117D01*
X24593408Y-44197515D01*
X24482515Y-44308408D01*
X24352117Y-44395537D01*
X24207228Y-44455552D01*
X24053414Y-44486148D01*
X23896586Y-44486148D01*
X23742772Y-44455552D01*
X23597883Y-44395537D01*
X23467485Y-44308408D01*
X23356592Y-44197515D01*
X23269463Y-44067117D01*
X23209448Y-43922228D01*
X23178852Y-43768414D01*
X23178852Y-43611586D01*
X23209448Y-43457772D01*
X23269463Y-43312883D01*
X23356592Y-43182485D01*
X23467485Y-43071592D01*
X23597883Y-42984463D01*
X23742772Y-42924448D01*
X23896586Y-42893852D01*
X24053414Y-42893852D01*
X24207228Y-42924448D01*
G37*
G36*
X30733315Y-41974093D02*
G01*
X30896742Y-42006601D01*
X31050687Y-42070367D01*
X31189234Y-42162941D01*
X31307059Y-42280766D01*
X31399633Y-42419313D01*
X31463399Y-42573258D01*
X31495907Y-42736685D01*
X31495907Y-42903315D01*
X31463399Y-43066742D01*
X31399633Y-43220687D01*
X31307059Y-43359234D01*
X31189234Y-43477059D01*
X31050687Y-43569633D01*
X30896742Y-43633399D01*
X30733315Y-43665907D01*
X30650000Y-43670000D01*
X30648768Y-43670000D01*
X30351232Y-43670000D01*
X30350000Y-43670000D01*
X30266685Y-43665907D01*
X30103258Y-43633399D01*
X29949313Y-43569633D01*
X29810766Y-43477059D01*
X29692941Y-43359234D01*
X29600367Y-43220687D01*
X29536601Y-43066742D01*
X29504093Y-42903315D01*
X29504093Y-42736685D01*
X29536601Y-42573258D01*
X29600367Y-42419313D01*
X29692941Y-42280766D01*
X29810766Y-42162941D01*
X29949313Y-42070367D01*
X30103258Y-42006601D01*
X30266685Y-41974093D01*
X30350000Y-41970000D01*
X30650000Y-41970000D01*
X30733315Y-41974093D01*
G37*
G36*
X14207228Y-42064448D02*
G01*
X14352117Y-42124463D01*
X14482515Y-42211592D01*
X14593408Y-42322485D01*
X14680537Y-42452883D01*
X14740552Y-42597772D01*
X14771148Y-42751586D01*
X14771148Y-42908414D01*
X14740552Y-43062228D01*
X14680537Y-43207117D01*
X14593408Y-43337515D01*
X14482515Y-43448408D01*
X14352117Y-43535537D01*
X14207228Y-43595552D01*
X14053414Y-43626148D01*
X13896586Y-43626148D01*
X13742772Y-43595552D01*
X13597883Y-43535537D01*
X13467485Y-43448408D01*
X13356592Y-43337515D01*
X13269463Y-43207117D01*
X13209448Y-43062228D01*
X13178852Y-42908414D01*
X13178852Y-42751586D01*
X13209448Y-42597772D01*
X13269463Y-42452883D01*
X13356592Y-42322485D01*
X13467485Y-42211592D01*
X13597883Y-42124463D01*
X13742772Y-42064448D01*
X13896586Y-42033852D01*
X14053414Y-42033852D01*
X14207228Y-42064448D01*
G37*
G36*
X10257228Y-41614448D02*
G01*
X10402117Y-41674463D01*
X10532515Y-41761592D01*
X10643408Y-41872485D01*
X10730537Y-42002883D01*
X10790552Y-42147772D01*
X10821148Y-42301586D01*
X10821148Y-42458414D01*
X10790552Y-42612228D01*
X10730537Y-42757117D01*
X10643408Y-42887515D01*
X10532515Y-42998408D01*
X10402117Y-43085537D01*
X10257228Y-43145552D01*
X10103414Y-43176148D01*
X9946586Y-43176148D01*
X9792772Y-43145552D01*
X9647883Y-43085537D01*
X9517485Y-42998408D01*
X9406592Y-42887515D01*
X9319463Y-42757117D01*
X9259448Y-42612228D01*
X9228852Y-42458414D01*
X9228852Y-42301586D01*
X9259448Y-42147772D01*
X9319463Y-42002883D01*
X9406592Y-41872485D01*
X9517485Y-41761592D01*
X9647883Y-41674463D01*
X9792772Y-41614448D01*
X9946586Y-41583852D01*
X10103414Y-41583852D01*
X10257228Y-41614448D01*
G37*
G36*
X17957228Y-41374448D02*
G01*
X18102117Y-41434463D01*
X18232515Y-41521592D01*
X18343408Y-41632485D01*
X18430537Y-41762883D01*
X18490552Y-41907772D01*
X18521148Y-42061586D01*
X18521148Y-42218414D01*
X18490552Y-42372228D01*
X18430537Y-42517117D01*
X18343408Y-42647515D01*
X18232515Y-42758408D01*
X18102117Y-42845537D01*
X17957228Y-42905552D01*
X17803414Y-42936148D01*
X17646586Y-42936148D01*
X17492772Y-42905552D01*
X17347883Y-42845537D01*
X17217485Y-42758408D01*
X17106592Y-42647515D01*
X17019463Y-42517117D01*
X16959448Y-42372228D01*
X16928852Y-42218414D01*
X16928852Y-42061586D01*
X16959448Y-41907772D01*
X17019463Y-41762883D01*
X17106592Y-41632485D01*
X17217485Y-41521592D01*
X17347883Y-41434463D01*
X17492772Y-41374448D01*
X17646586Y-41343852D01*
X17803414Y-41343852D01*
X17957228Y-41374448D01*
G37*
G36*
X30733315Y-39434093D02*
G01*
X30896742Y-39466601D01*
X31050687Y-39530367D01*
X31189234Y-39622941D01*
X31307059Y-39740766D01*
X31399633Y-39879313D01*
X31463399Y-40033258D01*
X31495907Y-40196685D01*
X31495907Y-40363315D01*
X31463399Y-40526742D01*
X31399633Y-40680687D01*
X31307059Y-40819234D01*
X31189234Y-40937059D01*
X31050687Y-41029633D01*
X30896742Y-41093399D01*
X30733315Y-41125907D01*
X30650000Y-41130000D01*
X30648768Y-41130000D01*
X30351232Y-41130000D01*
X30350000Y-41130000D01*
X30266685Y-41125907D01*
X30103258Y-41093399D01*
X29949313Y-41029633D01*
X29810766Y-40937059D01*
X29692941Y-40819234D01*
X29600367Y-40680687D01*
X29536601Y-40526742D01*
X29504093Y-40363315D01*
X29504093Y-40196685D01*
X29536601Y-40033258D01*
X29600367Y-39879313D01*
X29692941Y-39740766D01*
X29810766Y-39622941D01*
X29949313Y-39530367D01*
X30103258Y-39466601D01*
X30266685Y-39434093D01*
X30350000Y-39430000D01*
X30650000Y-39430000D01*
X30733315Y-39434093D01*
G37*
G36*
X6257228Y-39524448D02*
G01*
X6402117Y-39584463D01*
X6532515Y-39671592D01*
X6643408Y-39782485D01*
X6730537Y-39912883D01*
X6790552Y-40057772D01*
X6821148Y-40211586D01*
X6821148Y-40368414D01*
X6790552Y-40522228D01*
X6730537Y-40667117D01*
X6643408Y-40797515D01*
X6532515Y-40908408D01*
X6402117Y-40995537D01*
X6257228Y-41055552D01*
X6103414Y-41086148D01*
X5946586Y-41086148D01*
X5792772Y-41055552D01*
X5647883Y-40995537D01*
X5517485Y-40908408D01*
X5406592Y-40797515D01*
X5319463Y-40667117D01*
X5259448Y-40522228D01*
X5228852Y-40368414D01*
X5228852Y-40211586D01*
X5259448Y-40057772D01*
X5319463Y-39912883D01*
X5406592Y-39782485D01*
X5517485Y-39671592D01*
X5647883Y-39584463D01*
X5792772Y-39524448D01*
X5946586Y-39493852D01*
X6103414Y-39493852D01*
X6257228Y-39524448D01*
G37*
G36*
X24207228Y-37924448D02*
G01*
X24352117Y-37984463D01*
X24482515Y-38071592D01*
X24593408Y-38182485D01*
X24680537Y-38312883D01*
X24740552Y-38457772D01*
X24771148Y-38611586D01*
X24771148Y-38768414D01*
X24740552Y-38922228D01*
X24680537Y-39067117D01*
X24593408Y-39197515D01*
X24482515Y-39308408D01*
X24352117Y-39395537D01*
X24207228Y-39455552D01*
X24053414Y-39486148D01*
X23896586Y-39486148D01*
X23742772Y-39455552D01*
X23597883Y-39395537D01*
X23467485Y-39308408D01*
X23356592Y-39197515D01*
X23269463Y-39067117D01*
X23209448Y-38922228D01*
X23178852Y-38768414D01*
X23178852Y-38611586D01*
X23209448Y-38457772D01*
X23269463Y-38312883D01*
X23356592Y-38182485D01*
X23467485Y-38071592D01*
X23597883Y-37984463D01*
X23742772Y-37924448D01*
X23896586Y-37893852D01*
X24053414Y-37893852D01*
X24207228Y-37924448D01*
G37*
G36*
X10007228Y-37084448D02*
G01*
X10152117Y-37144463D01*
X10282515Y-37231592D01*
X10393408Y-37342485D01*
X10480537Y-37472883D01*
X10540552Y-37617772D01*
X10571148Y-37771586D01*
X10571148Y-37928414D01*
X10540552Y-38082228D01*
X10480537Y-38227117D01*
X10393408Y-38357515D01*
X10282515Y-38468408D01*
X10152117Y-38555537D01*
X10007228Y-38615552D01*
X9853414Y-38646148D01*
X9696586Y-38646148D01*
X9542772Y-38615552D01*
X9397883Y-38555537D01*
X9267485Y-38468408D01*
X9156592Y-38357515D01*
X9069463Y-38227117D01*
X9009448Y-38082228D01*
X8978852Y-37928414D01*
X8978852Y-37771586D01*
X9009448Y-37617772D01*
X9069463Y-37472883D01*
X9156592Y-37342485D01*
X9267485Y-37231592D01*
X9397883Y-37144463D01*
X9542772Y-37084448D01*
X9696586Y-37053852D01*
X9853414Y-37053852D01*
X10007228Y-37084448D01*
G37*
G36*
X30733315Y-36894093D02*
G01*
X30896742Y-36926601D01*
X31050687Y-36990367D01*
X31189234Y-37082941D01*
X31307059Y-37200766D01*
X31399633Y-37339313D01*
X31463399Y-37493258D01*
X31495907Y-37656685D01*
X31495907Y-37823315D01*
X31463399Y-37986742D01*
X31399633Y-38140687D01*
X31307059Y-38279234D01*
X31189234Y-38397059D01*
X31050687Y-38489633D01*
X30896742Y-38553399D01*
X30733315Y-38585907D01*
X30650000Y-38590000D01*
X30648768Y-38590000D01*
X30351232Y-38590000D01*
X30350000Y-38590000D01*
X30266685Y-38585907D01*
X30103258Y-38553399D01*
X29949313Y-38489633D01*
X29810766Y-38397059D01*
X29692941Y-38279234D01*
X29600367Y-38140687D01*
X29536601Y-37986742D01*
X29504093Y-37823315D01*
X29504093Y-37656685D01*
X29536601Y-37493258D01*
X29600367Y-37339313D01*
X29692941Y-37200766D01*
X29810766Y-37082941D01*
X29949313Y-36990367D01*
X30103258Y-36926601D01*
X30266685Y-36894093D01*
X30350000Y-36890000D01*
X30650000Y-36890000D01*
X30733315Y-36894093D01*
G37*
G36*
X14207228Y-36984448D02*
G01*
X14352117Y-37044463D01*
X14482515Y-37131592D01*
X14593408Y-37242485D01*
X14680537Y-37372883D01*
X14740552Y-37517772D01*
X14771148Y-37671586D01*
X14771148Y-37828414D01*
X14740552Y-37982228D01*
X14680537Y-38127117D01*
X14593408Y-38257515D01*
X14482515Y-38368408D01*
X14352117Y-38455537D01*
X14207228Y-38515552D01*
X14053414Y-38546148D01*
X13896586Y-38546148D01*
X13742772Y-38515552D01*
X13597883Y-38455537D01*
X13467485Y-38368408D01*
X13356592Y-38257515D01*
X13269463Y-38127117D01*
X13209448Y-37982228D01*
X13178852Y-37828414D01*
X13178852Y-37671586D01*
X13209448Y-37517772D01*
X13269463Y-37372883D01*
X13356592Y-37242485D01*
X13467485Y-37131592D01*
X13597883Y-37044463D01*
X13742772Y-36984448D01*
X13896586Y-36953852D01*
X14053414Y-36953852D01*
X14207228Y-36984448D01*
G37*
G36*
X17957228Y-36294448D02*
G01*
X18102117Y-36354463D01*
X18232515Y-36441592D01*
X18343408Y-36552485D01*
X18430537Y-36682883D01*
X18490552Y-36827772D01*
X18521148Y-36981586D01*
X18521148Y-37138414D01*
X18490552Y-37292228D01*
X18430537Y-37437117D01*
X18343408Y-37567515D01*
X18232515Y-37678408D01*
X18102117Y-37765537D01*
X17957228Y-37825552D01*
X17803414Y-37856148D01*
X17646586Y-37856148D01*
X17492772Y-37825552D01*
X17347883Y-37765537D01*
X17217485Y-37678408D01*
X17106592Y-37567515D01*
X17019463Y-37437117D01*
X16959448Y-37292228D01*
X16928852Y-37138414D01*
X16928852Y-36981586D01*
X16959448Y-36827772D01*
X17019463Y-36682883D01*
X17106592Y-36552485D01*
X17217485Y-36441592D01*
X17347883Y-36354463D01*
X17492772Y-36294448D01*
X17646586Y-36263852D01*
X17803414Y-36263852D01*
X17957228Y-36294448D01*
G37*
G36*
X6257228Y-36274448D02*
G01*
X6402117Y-36334463D01*
X6532515Y-36421592D01*
X6643408Y-36532485D01*
X6730537Y-36662883D01*
X6790552Y-36807772D01*
X6821148Y-36961586D01*
X6821148Y-37118414D01*
X6790552Y-37272228D01*
X6730537Y-37417117D01*
X6643408Y-37547515D01*
X6532515Y-37658408D01*
X6402117Y-37745537D01*
X6257228Y-37805552D01*
X6103414Y-37836148D01*
X5946586Y-37836148D01*
X5792772Y-37805552D01*
X5647883Y-37745537D01*
X5517485Y-37658408D01*
X5406592Y-37547515D01*
X5319463Y-37417117D01*
X5259448Y-37272228D01*
X5228852Y-37118414D01*
X5228852Y-36961586D01*
X5259448Y-36807772D01*
X5319463Y-36662883D01*
X5406592Y-36532485D01*
X5517485Y-36421592D01*
X5647883Y-36334463D01*
X5792772Y-36274448D01*
X5946586Y-36243852D01*
X6103414Y-36243852D01*
X6257228Y-36274448D01*
G37*
G36*
X2507228Y-36044448D02*
G01*
X2652117Y-36104463D01*
X2782515Y-36191592D01*
X2893408Y-36302485D01*
X2980537Y-36432883D01*
X3040552Y-36577772D01*
X3071148Y-36731586D01*
X3071148Y-36888414D01*
X3040552Y-37042228D01*
X2980537Y-37187117D01*
X2893408Y-37317515D01*
X2782515Y-37428408D01*
X2652117Y-37515537D01*
X2507228Y-37575552D01*
X2353414Y-37606148D01*
X2196586Y-37606148D01*
X2042772Y-37575552D01*
X1897883Y-37515537D01*
X1767485Y-37428408D01*
X1656592Y-37317515D01*
X1569463Y-37187117D01*
X1509448Y-37042228D01*
X1478852Y-36888414D01*
X1478852Y-36731586D01*
X1509448Y-36577772D01*
X1569463Y-36432883D01*
X1656592Y-36302485D01*
X1767485Y-36191592D01*
X1897883Y-36104463D01*
X2042772Y-36044448D01*
X2196586Y-36013852D01*
X2353414Y-36013852D01*
X2507228Y-36044448D01*
G37*
G36*
X30733315Y-34354093D02*
G01*
X30896742Y-34386601D01*
X31050687Y-34450367D01*
X31189234Y-34542941D01*
X31307059Y-34660766D01*
X31399633Y-34799313D01*
X31463399Y-34953258D01*
X31495907Y-35116685D01*
X31495907Y-35283315D01*
X31463399Y-35446742D01*
X31399633Y-35600687D01*
X31307059Y-35739234D01*
X31189234Y-35857059D01*
X31050687Y-35949633D01*
X30896742Y-36013399D01*
X30733315Y-36045907D01*
X30650000Y-36050000D01*
X30648768Y-36050000D01*
X30351232Y-36050000D01*
X30350000Y-36050000D01*
X30266685Y-36045907D01*
X30103258Y-36013399D01*
X29949313Y-35949633D01*
X29810766Y-35857059D01*
X29692941Y-35739234D01*
X29600367Y-35600687D01*
X29536601Y-35446742D01*
X29504093Y-35283315D01*
X29504093Y-35116685D01*
X29536601Y-34953258D01*
X29600367Y-34799313D01*
X29692941Y-34660766D01*
X29810766Y-34542941D01*
X29949313Y-34450367D01*
X30103258Y-34386601D01*
X30266685Y-34354093D01*
X30350000Y-34350000D01*
X30650000Y-34350000D01*
X30733315Y-34354093D01*
G37*
G36*
X25246742Y-34266601D02*
G01*
X25400687Y-34330367D01*
X25539234Y-34422941D01*
X25657059Y-34540766D01*
X25749633Y-34679313D01*
X25813399Y-34833258D01*
X25845907Y-34996685D01*
X25845907Y-35163315D01*
X25813399Y-35326742D01*
X25749633Y-35480687D01*
X25657059Y-35619234D01*
X25539234Y-35737059D01*
X25400687Y-35829633D01*
X25246742Y-35893399D01*
X25083315Y-35925907D01*
X24916685Y-35925907D01*
X24753258Y-35893399D01*
X24599313Y-35829633D01*
X24460766Y-35737059D01*
X24342941Y-35619234D01*
X24250367Y-35480687D01*
X24186601Y-35326742D01*
X24154093Y-35163315D01*
X24154093Y-34996685D01*
X24186601Y-34833258D01*
X24250367Y-34679313D01*
X24342941Y-34540766D01*
X24460766Y-34422941D01*
X24599313Y-34330367D01*
X24753258Y-34266601D01*
X24916685Y-34234093D01*
X25083315Y-34234093D01*
X25246742Y-34266601D01*
G37*
G36*
X18207228Y-33104448D02*
G01*
X18352117Y-33164463D01*
X18482515Y-33251592D01*
X18593408Y-33362485D01*
X18680537Y-33492883D01*
X18740552Y-33637772D01*
X18771148Y-33791586D01*
X18771148Y-33948414D01*
X18740552Y-34102228D01*
X18680537Y-34247117D01*
X18593408Y-34377515D01*
X18482515Y-34488408D01*
X18352117Y-34575537D01*
X18207228Y-34635552D01*
X18053414Y-34666148D01*
X17896586Y-34666148D01*
X17742772Y-34635552D01*
X17597883Y-34575537D01*
X17467485Y-34488408D01*
X17356592Y-34377515D01*
X17269463Y-34247117D01*
X17209448Y-34102228D01*
X17178852Y-33948414D01*
X17178852Y-33791586D01*
X17209448Y-33637772D01*
X17269463Y-33492883D01*
X17356592Y-33362485D01*
X17467485Y-33251592D01*
X17597883Y-33164463D01*
X17742772Y-33104448D01*
X17896586Y-33073852D01*
X18053414Y-33073852D01*
X18207228Y-33104448D01*
G37*
G36*
X10007228Y-32004448D02*
G01*
X10152117Y-32064463D01*
X10282515Y-32151592D01*
X10393408Y-32262485D01*
X10480537Y-32392883D01*
X10540552Y-32537772D01*
X10571148Y-32691586D01*
X10571148Y-32848414D01*
X10540552Y-33002228D01*
X10480537Y-33147117D01*
X10393408Y-33277515D01*
X10282515Y-33388408D01*
X10152117Y-33475537D01*
X10007228Y-33535552D01*
X9853414Y-33566148D01*
X9696586Y-33566148D01*
X9542772Y-33535552D01*
X9397883Y-33475537D01*
X9267485Y-33388408D01*
X9156592Y-33277515D01*
X9069463Y-33147117D01*
X9009448Y-33002228D01*
X8978852Y-32848414D01*
X8978852Y-32691586D01*
X9009448Y-32537772D01*
X9069463Y-32392883D01*
X9156592Y-32262485D01*
X9267485Y-32151592D01*
X9397883Y-32064463D01*
X9542772Y-32004448D01*
X9696586Y-31973852D01*
X9853414Y-31973852D01*
X10007228Y-32004448D01*
G37*
G36*
X15104047Y-32260805D02*
G01*
X15155408Y-32266764D01*
X15172954Y-32274511D01*
X15195671Y-32279030D01*
X15219991Y-32295280D01*
X15240793Y-32304465D01*
X15255000Y-32318672D01*
X15276777Y-32333223D01*
X15291327Y-32354999D01*
X15305534Y-32369206D01*
X15314718Y-32390006D01*
X15330970Y-32414329D01*
X15335489Y-32437048D01*
X15343235Y-32454591D01*
X15349192Y-32505940D01*
X15350000Y-32510000D01*
X15350000Y-33310000D01*
X15349192Y-33314059D01*
X15343235Y-33365408D01*
X15335489Y-33382950D01*
X15330970Y-33405671D01*
X15314716Y-33429995D01*
X15305534Y-33450793D01*
X15291329Y-33464997D01*
X15276777Y-33486777D01*
X15254997Y-33501329D01*
X15240793Y-33515534D01*
X15219995Y-33524716D01*
X15195671Y-33540970D01*
X15172950Y-33545489D01*
X15155408Y-33553235D01*
X15104061Y-33559192D01*
X15100000Y-33560000D01*
X13850000Y-33560000D01*
X13845941Y-33559192D01*
X13794591Y-33553235D01*
X13777048Y-33545489D01*
X13754329Y-33540970D01*
X13730006Y-33524718D01*
X13709206Y-33515534D01*
X13694999Y-33501327D01*
X13673223Y-33486777D01*
X13658672Y-33465000D01*
X13644465Y-33450793D01*
X13635280Y-33429991D01*
X13619030Y-33405671D01*
X13614511Y-33382954D01*
X13606764Y-33365408D01*
X13600805Y-33314049D01*
X13600000Y-33310000D01*
X13600000Y-32510000D01*
X13600804Y-32505953D01*
X13606764Y-32454591D01*
X13614511Y-32437043D01*
X13619030Y-32414329D01*
X13635278Y-32390010D01*
X13644465Y-32369206D01*
X13658674Y-32354996D01*
X13673223Y-32333223D01*
X13694996Y-32318674D01*
X13709206Y-32304465D01*
X13730010Y-32295278D01*
X13754329Y-32279030D01*
X13777043Y-32274511D01*
X13794591Y-32266764D01*
X13845952Y-32260805D01*
X13850000Y-32260000D01*
X15100000Y-32260000D01*
X15104047Y-32260805D01*
G37*
G36*
X30733315Y-31814093D02*
G01*
X30896742Y-31846601D01*
X31050687Y-31910367D01*
X31189234Y-32002941D01*
X31307059Y-32120766D01*
X31399633Y-32259313D01*
X31463399Y-32413258D01*
X31495907Y-32576685D01*
X31495907Y-32743315D01*
X31463399Y-32906742D01*
X31399633Y-33060687D01*
X31307059Y-33199234D01*
X31189234Y-33317059D01*
X31050687Y-33409633D01*
X30896742Y-33473399D01*
X30733315Y-33505907D01*
X30650000Y-33510000D01*
X30648768Y-33510000D01*
X30351232Y-33510000D01*
X30350000Y-33510000D01*
X30266685Y-33505907D01*
X30103258Y-33473399D01*
X29949313Y-33409633D01*
X29810766Y-33317059D01*
X29692941Y-33199234D01*
X29600367Y-33060687D01*
X29536601Y-32906742D01*
X29504093Y-32743315D01*
X29504093Y-32576685D01*
X29536601Y-32413258D01*
X29600367Y-32259313D01*
X29692941Y-32120766D01*
X29810766Y-32002941D01*
X29949313Y-31910367D01*
X30103258Y-31846601D01*
X30266685Y-31814093D01*
X30350000Y-31810000D01*
X30650000Y-31810000D01*
X30733315Y-31814093D01*
G37*
G36*
X25246742Y-31726601D02*
G01*
X25400687Y-31790367D01*
X25539234Y-31882941D01*
X25657059Y-32000766D01*
X25749633Y-32139313D01*
X25813399Y-32293258D01*
X25845907Y-32456685D01*
X25845907Y-32623315D01*
X25813399Y-32786742D01*
X25749633Y-32940687D01*
X25657059Y-33079234D01*
X25539234Y-33197059D01*
X25400687Y-33289633D01*
X25246742Y-33353399D01*
X25083315Y-33385907D01*
X24916685Y-33385907D01*
X24753258Y-33353399D01*
X24599313Y-33289633D01*
X24460766Y-33197059D01*
X24342941Y-33079234D01*
X24250367Y-32940687D01*
X24186601Y-32786742D01*
X24154093Y-32623315D01*
X24154093Y-32456685D01*
X24186601Y-32293258D01*
X24250367Y-32139313D01*
X24342941Y-32000766D01*
X24460766Y-31882941D01*
X24599313Y-31790367D01*
X24753258Y-31726601D01*
X24916685Y-31694093D01*
X25083315Y-31694093D01*
X25246742Y-31726601D01*
G37*
G36*
X6257228Y-31194448D02*
G01*
X6402117Y-31254463D01*
X6532515Y-31341592D01*
X6643408Y-31452485D01*
X6730537Y-31582883D01*
X6790552Y-31727772D01*
X6821148Y-31881586D01*
X6821148Y-32038414D01*
X6790552Y-32192228D01*
X6730537Y-32337117D01*
X6643408Y-32467515D01*
X6532515Y-32578408D01*
X6402117Y-32665537D01*
X6257228Y-32725552D01*
X6103414Y-32756148D01*
X5946586Y-32756148D01*
X5792772Y-32725552D01*
X5647883Y-32665537D01*
X5517485Y-32578408D01*
X5406592Y-32467515D01*
X5319463Y-32337117D01*
X5259448Y-32192228D01*
X5228852Y-32038414D01*
X5228852Y-31881586D01*
X5259448Y-31727772D01*
X5319463Y-31582883D01*
X5406592Y-31452485D01*
X5517485Y-31341592D01*
X5647883Y-31254463D01*
X5792772Y-31194448D01*
X5946586Y-31163852D01*
X6103414Y-31163852D01*
X6257228Y-31194448D01*
G37*
G36*
X2507228Y-30964448D02*
G01*
X2652117Y-31024463D01*
X2782515Y-31111592D01*
X2893408Y-31222485D01*
X2980537Y-31352883D01*
X3040552Y-31497772D01*
X3071148Y-31651586D01*
X3071148Y-31808414D01*
X3040552Y-31962228D01*
X2980537Y-32107117D01*
X2893408Y-32237515D01*
X2782515Y-32348408D01*
X2652117Y-32435537D01*
X2507228Y-32495552D01*
X2353414Y-32526148D01*
X2196586Y-32526148D01*
X2042772Y-32495552D01*
X1897883Y-32435537D01*
X1767485Y-32348408D01*
X1656592Y-32237515D01*
X1569463Y-32107117D01*
X1509448Y-31962228D01*
X1478852Y-31808414D01*
X1478852Y-31651586D01*
X1509448Y-31497772D01*
X1569463Y-31352883D01*
X1656592Y-31222485D01*
X1767485Y-31111592D01*
X1897883Y-31024463D01*
X2042772Y-30964448D01*
X2196586Y-30933852D01*
X2353414Y-30933852D01*
X2507228Y-30964448D01*
G37*
G36*
X30733315Y-29274093D02*
G01*
X30896742Y-29306601D01*
X31050687Y-29370367D01*
X31189234Y-29462941D01*
X31307059Y-29580766D01*
X31399633Y-29719313D01*
X31463399Y-29873258D01*
X31495907Y-30036685D01*
X31495907Y-30203315D01*
X31463399Y-30366742D01*
X31399633Y-30520687D01*
X31307059Y-30659234D01*
X31189234Y-30777059D01*
X31050687Y-30869633D01*
X30896742Y-30933399D01*
X30733315Y-30965907D01*
X30650000Y-30970000D01*
X30648768Y-30970000D01*
X30351232Y-30970000D01*
X30350000Y-30970000D01*
X30266685Y-30965907D01*
X30103258Y-30933399D01*
X29949313Y-30869633D01*
X29810766Y-30777059D01*
X29692941Y-30659234D01*
X29600367Y-30520687D01*
X29536601Y-30366742D01*
X29504093Y-30203315D01*
X29504093Y-30036685D01*
X29536601Y-29873258D01*
X29600367Y-29719313D01*
X29692941Y-29580766D01*
X29810766Y-29462941D01*
X29949313Y-29370367D01*
X30103258Y-29306601D01*
X30266685Y-29274093D01*
X30350000Y-29270000D01*
X30650000Y-29270000D01*
X30733315Y-29274093D01*
G37*
G36*
X25850000Y-30850000D02*
G01*
X24150000Y-30850000D01*
X24150000Y-29150000D01*
X25850000Y-29150000D01*
X25850000Y-30850000D01*
G37*
G36*
X15104047Y-29160805D02*
G01*
X15155408Y-29166764D01*
X15172954Y-29174511D01*
X15195671Y-29179030D01*
X15219991Y-29195280D01*
X15240793Y-29204465D01*
X15255000Y-29218672D01*
X15276777Y-29233223D01*
X15291327Y-29254999D01*
X15305534Y-29269206D01*
X15314718Y-29290006D01*
X15330970Y-29314329D01*
X15335489Y-29337048D01*
X15343235Y-29354591D01*
X15349192Y-29405940D01*
X15350000Y-29410000D01*
X15350000Y-30210000D01*
X15349192Y-30214059D01*
X15343235Y-30265408D01*
X15335489Y-30282950D01*
X15330970Y-30305671D01*
X15314716Y-30329995D01*
X15305534Y-30350793D01*
X15291329Y-30364997D01*
X15276777Y-30386777D01*
X15254997Y-30401329D01*
X15240793Y-30415534D01*
X15219995Y-30424716D01*
X15195671Y-30440970D01*
X15172950Y-30445489D01*
X15155408Y-30453235D01*
X15104061Y-30459192D01*
X15100000Y-30460000D01*
X13850000Y-30460000D01*
X13845941Y-30459192D01*
X13794591Y-30453235D01*
X13777048Y-30445489D01*
X13754329Y-30440970D01*
X13730006Y-30424718D01*
X13709206Y-30415534D01*
X13694999Y-30401327D01*
X13673223Y-30386777D01*
X13658672Y-30365000D01*
X13644465Y-30350793D01*
X13635280Y-30329991D01*
X13619030Y-30305671D01*
X13614511Y-30282954D01*
X13606764Y-30265408D01*
X13600805Y-30214049D01*
X13600000Y-30210000D01*
X13600000Y-29410000D01*
X13600804Y-29405953D01*
X13606764Y-29354591D01*
X13614511Y-29337043D01*
X13619030Y-29314329D01*
X13635278Y-29290010D01*
X13644465Y-29269206D01*
X13658674Y-29254996D01*
X13673223Y-29233223D01*
X13694996Y-29218674D01*
X13709206Y-29204465D01*
X13730010Y-29195278D01*
X13754329Y-29179030D01*
X13777043Y-29174511D01*
X13794591Y-29166764D01*
X13845952Y-29160805D01*
X13850000Y-29160000D01*
X15100000Y-29160000D01*
X15104047Y-29160805D01*
G37*
G36*
X18207228Y-28024448D02*
G01*
X18352117Y-28084463D01*
X18482515Y-28171592D01*
X18593408Y-28282485D01*
X18680537Y-28412883D01*
X18740552Y-28557772D01*
X18771148Y-28711586D01*
X18771148Y-28868414D01*
X18740552Y-29022228D01*
X18680537Y-29167117D01*
X18593408Y-29297515D01*
X18482515Y-29408408D01*
X18352117Y-29495537D01*
X18207228Y-29555552D01*
X18053414Y-29586148D01*
X17896586Y-29586148D01*
X17742772Y-29555552D01*
X17597883Y-29495537D01*
X17467485Y-29408408D01*
X17356592Y-29297515D01*
X17269463Y-29167117D01*
X17209448Y-29022228D01*
X17178852Y-28868414D01*
X17178852Y-28711586D01*
X17209448Y-28557772D01*
X17269463Y-28412883D01*
X17356592Y-28282485D01*
X17467485Y-28171592D01*
X17597883Y-28084463D01*
X17742772Y-28024448D01*
X17896586Y-27993852D01*
X18053414Y-27993852D01*
X18207228Y-28024448D01*
G37*
G36*
X30733315Y-26734093D02*
G01*
X30896742Y-26766601D01*
X31050687Y-26830367D01*
X31189234Y-26922941D01*
X31307059Y-27040766D01*
X31399633Y-27179313D01*
X31463399Y-27333258D01*
X31495907Y-27496685D01*
X31495907Y-27663315D01*
X31463399Y-27826742D01*
X31399633Y-27980687D01*
X31307059Y-28119234D01*
X31189234Y-28237059D01*
X31050687Y-28329633D01*
X30896742Y-28393399D01*
X30733315Y-28425907D01*
X30650000Y-28430000D01*
X30648768Y-28430000D01*
X30351232Y-28430000D01*
X30350000Y-28430000D01*
X30266685Y-28425907D01*
X30103258Y-28393399D01*
X29949313Y-28329633D01*
X29810766Y-28237059D01*
X29692941Y-28119234D01*
X29600367Y-27980687D01*
X29536601Y-27826742D01*
X29504093Y-27663315D01*
X29504093Y-27496685D01*
X29536601Y-27333258D01*
X29600367Y-27179313D01*
X29692941Y-27040766D01*
X29810766Y-26922941D01*
X29949313Y-26830367D01*
X30103258Y-26766601D01*
X30266685Y-26734093D01*
X30350000Y-26730000D01*
X30650000Y-26730000D01*
X30733315Y-26734093D01*
G37*
G36*
X11779047Y-25125805D02*
G01*
X11830408Y-25131764D01*
X11847954Y-25139511D01*
X11870671Y-25144030D01*
X11894991Y-25160280D01*
X11915793Y-25169465D01*
X11930000Y-25183672D01*
X11951777Y-25198223D01*
X11966327Y-25219999D01*
X11980534Y-25234206D01*
X11989718Y-25255006D01*
X12005970Y-25279329D01*
X12010489Y-25302048D01*
X12018235Y-25319591D01*
X12024192Y-25370940D01*
X12025000Y-25375000D01*
X12025000Y-26625000D01*
X12024192Y-26629059D01*
X12018235Y-26680408D01*
X12010489Y-26697950D01*
X12005970Y-26720671D01*
X11989716Y-26744995D01*
X11980534Y-26765793D01*
X11966329Y-26779997D01*
X11951777Y-26801777D01*
X11929997Y-26816329D01*
X11915793Y-26830534D01*
X11894995Y-26839716D01*
X11870671Y-26855970D01*
X11847950Y-26860489D01*
X11830408Y-26868235D01*
X11779061Y-26874192D01*
X11775000Y-26875000D01*
X10975000Y-26875000D01*
X10970941Y-26874192D01*
X10919591Y-26868235D01*
X10902048Y-26860489D01*
X10879329Y-26855970D01*
X10855006Y-26839718D01*
X10834206Y-26830534D01*
X10819999Y-26816327D01*
X10798223Y-26801777D01*
X10783672Y-26780000D01*
X10769465Y-26765793D01*
X10760280Y-26744991D01*
X10744030Y-26720671D01*
X10739511Y-26697954D01*
X10731764Y-26680408D01*
X10725805Y-26629049D01*
X10725000Y-26625000D01*
X10725000Y-25375000D01*
X10725804Y-25370953D01*
X10731764Y-25319591D01*
X10739511Y-25302043D01*
X10744030Y-25279329D01*
X10760278Y-25255010D01*
X10769465Y-25234206D01*
X10783674Y-25219996D01*
X10798223Y-25198223D01*
X10819996Y-25183674D01*
X10834206Y-25169465D01*
X10855010Y-25160278D01*
X10879329Y-25144030D01*
X10902043Y-25139511D01*
X10919591Y-25131764D01*
X10970952Y-25125805D01*
X10975000Y-25125000D01*
X11775000Y-25125000D01*
X11779047Y-25125805D01*
G37*
G36*
X14879047Y-25125805D02*
G01*
X14930408Y-25131764D01*
X14947954Y-25139511D01*
X14970671Y-25144030D01*
X14994991Y-25160280D01*
X15015793Y-25169465D01*
X15030000Y-25183672D01*
X15051777Y-25198223D01*
X15066327Y-25219999D01*
X15080534Y-25234206D01*
X15089718Y-25255006D01*
X15105970Y-25279329D01*
X15110489Y-25302048D01*
X15118235Y-25319591D01*
X15124192Y-25370940D01*
X15125000Y-25375000D01*
X15125000Y-26625000D01*
X15124192Y-26629059D01*
X15118235Y-26680408D01*
X15110489Y-26697950D01*
X15105970Y-26720671D01*
X15089716Y-26744995D01*
X15080534Y-26765793D01*
X15066329Y-26779997D01*
X15051777Y-26801777D01*
X15029997Y-26816329D01*
X15015793Y-26830534D01*
X14994995Y-26839716D01*
X14970671Y-26855970D01*
X14947950Y-26860489D01*
X14930408Y-26868235D01*
X14879061Y-26874192D01*
X14875000Y-26875000D01*
X14075000Y-26875000D01*
X14070941Y-26874192D01*
X14019591Y-26868235D01*
X14002048Y-26860489D01*
X13979329Y-26855970D01*
X13955006Y-26839718D01*
X13934206Y-26830534D01*
X13919999Y-26816327D01*
X13898223Y-26801777D01*
X13883672Y-26780000D01*
X13869465Y-26765793D01*
X13860280Y-26744991D01*
X13844030Y-26720671D01*
X13839511Y-26697954D01*
X13831764Y-26680408D01*
X13825805Y-26629049D01*
X13825000Y-26625000D01*
X13825000Y-25375000D01*
X13825804Y-25370953D01*
X13831764Y-25319591D01*
X13839511Y-25302043D01*
X13844030Y-25279329D01*
X13860278Y-25255010D01*
X13869465Y-25234206D01*
X13883674Y-25219996D01*
X13898223Y-25198223D01*
X13919996Y-25183674D01*
X13934206Y-25169465D01*
X13955010Y-25160278D01*
X13979329Y-25144030D01*
X14002043Y-25139511D01*
X14019591Y-25131764D01*
X14070952Y-25125805D01*
X14075000Y-25125000D01*
X14875000Y-25125000D01*
X14879047Y-25125805D01*
G37*
G36*
X24804047Y-24165805D02*
G01*
X24855408Y-24171764D01*
X24872954Y-24179511D01*
X24895671Y-24184030D01*
X24919991Y-24200280D01*
X24940793Y-24209465D01*
X24955000Y-24223672D01*
X24976777Y-24238223D01*
X24991327Y-24259999D01*
X25005534Y-24274206D01*
X25014718Y-24295006D01*
X25030970Y-24319329D01*
X25035489Y-24342048D01*
X25043235Y-24359591D01*
X25049192Y-24410940D01*
X25050000Y-24415000D01*
X25050000Y-25665000D01*
X25049192Y-25669059D01*
X25043235Y-25720408D01*
X25035489Y-25737950D01*
X25030970Y-25760671D01*
X25014716Y-25784995D01*
X25005534Y-25805793D01*
X24991329Y-25819997D01*
X24976777Y-25841777D01*
X24954997Y-25856329D01*
X24940793Y-25870534D01*
X24919995Y-25879716D01*
X24895671Y-25895970D01*
X24872950Y-25900489D01*
X24855408Y-25908235D01*
X24804061Y-25914192D01*
X24800000Y-25915000D01*
X24000000Y-25915000D01*
X23995941Y-25914192D01*
X23944591Y-25908235D01*
X23927048Y-25900489D01*
X23904329Y-25895970D01*
X23880006Y-25879718D01*
X23859206Y-25870534D01*
X23844999Y-25856327D01*
X23823223Y-25841777D01*
X23808672Y-25820000D01*
X23794465Y-25805793D01*
X23785280Y-25784991D01*
X23769030Y-25760671D01*
X23764511Y-25737954D01*
X23756764Y-25720408D01*
X23750805Y-25669049D01*
X23750000Y-25665000D01*
X23750000Y-24415000D01*
X23750804Y-24410953D01*
X23756764Y-24359591D01*
X23764511Y-24342043D01*
X23769030Y-24319329D01*
X23785278Y-24295010D01*
X23794465Y-24274206D01*
X23808674Y-24259996D01*
X23823223Y-24238223D01*
X23844996Y-24223674D01*
X23859206Y-24209465D01*
X23880010Y-24200278D01*
X23904329Y-24184030D01*
X23927043Y-24179511D01*
X23944591Y-24171764D01*
X23995952Y-24165805D01*
X24000000Y-24165000D01*
X24800000Y-24165000D01*
X24804047Y-24165805D01*
G37*
G36*
X27904047Y-24165805D02*
G01*
X27955408Y-24171764D01*
X27972954Y-24179511D01*
X27995671Y-24184030D01*
X28019991Y-24200280D01*
X28040793Y-24209465D01*
X28055000Y-24223672D01*
X28076777Y-24238223D01*
X28091327Y-24259999D01*
X28105534Y-24274206D01*
X28114718Y-24295006D01*
X28130970Y-24319329D01*
X28135489Y-24342048D01*
X28143235Y-24359591D01*
X28149192Y-24410940D01*
X28150000Y-24415000D01*
X28150000Y-25665000D01*
X28149192Y-25669059D01*
X28143235Y-25720408D01*
X28135489Y-25737950D01*
X28130970Y-25760671D01*
X28114716Y-25784995D01*
X28105534Y-25805793D01*
X28091329Y-25819997D01*
X28076777Y-25841777D01*
X28054997Y-25856329D01*
X28040793Y-25870534D01*
X28019995Y-25879716D01*
X27995671Y-25895970D01*
X27972950Y-25900489D01*
X27955408Y-25908235D01*
X27904061Y-25914192D01*
X27900000Y-25915000D01*
X27100000Y-25915000D01*
X27095941Y-25914192D01*
X27044591Y-25908235D01*
X27027048Y-25900489D01*
X27004329Y-25895970D01*
X26980006Y-25879718D01*
X26959206Y-25870534D01*
X26944999Y-25856327D01*
X26923223Y-25841777D01*
X26908672Y-25820000D01*
X26894465Y-25805793D01*
X26885280Y-25784991D01*
X26869030Y-25760671D01*
X26864511Y-25737954D01*
X26856764Y-25720408D01*
X26850805Y-25669049D01*
X26850000Y-25665000D01*
X26850000Y-24415000D01*
X26850804Y-24410953D01*
X26856764Y-24359591D01*
X26864511Y-24342043D01*
X26869030Y-24319329D01*
X26885278Y-24295010D01*
X26894465Y-24274206D01*
X26908674Y-24259996D01*
X26923223Y-24238223D01*
X26944996Y-24223674D01*
X26959206Y-24209465D01*
X26980010Y-24200278D01*
X27004329Y-24184030D01*
X27027043Y-24179511D01*
X27044591Y-24171764D01*
X27095952Y-24165805D01*
X27100000Y-24165000D01*
X27900000Y-24165000D01*
X27904047Y-24165805D01*
G37*
G36*
X30733315Y-24194093D02*
G01*
X30896742Y-24226601D01*
X31050687Y-24290367D01*
X31189234Y-24382941D01*
X31307059Y-24500766D01*
X31399633Y-24639313D01*
X31463399Y-24793258D01*
X31495907Y-24956685D01*
X31495907Y-25123315D01*
X31463399Y-25286742D01*
X31399633Y-25440687D01*
X31307059Y-25579234D01*
X31189234Y-25697059D01*
X31050687Y-25789633D01*
X30896742Y-25853399D01*
X30733315Y-25885907D01*
X30650000Y-25890000D01*
X30648768Y-25890000D01*
X30351232Y-25890000D01*
X30350000Y-25890000D01*
X30266685Y-25885907D01*
X30103258Y-25853399D01*
X29949313Y-25789633D01*
X29810766Y-25697059D01*
X29692941Y-25579234D01*
X29600367Y-25440687D01*
X29536601Y-25286742D01*
X29504093Y-25123315D01*
X29504093Y-24956685D01*
X29536601Y-24793258D01*
X29600367Y-24639313D01*
X29692941Y-24500766D01*
X29810766Y-24382941D01*
X29949313Y-24290367D01*
X30103258Y-24226601D01*
X30266685Y-24194093D01*
X30350000Y-24190000D01*
X30650000Y-24190000D01*
X30733315Y-24194093D01*
G37*
G36*
X33904047Y-21625805D02*
G01*
X33955408Y-21631764D01*
X33972954Y-21639511D01*
X33995671Y-21644030D01*
X34019991Y-21660280D01*
X34040793Y-21669465D01*
X34055000Y-21683672D01*
X34076777Y-21698223D01*
X34091327Y-21719999D01*
X34105534Y-21734206D01*
X34114718Y-21755006D01*
X34130970Y-21779329D01*
X34135489Y-21802048D01*
X34143235Y-21819591D01*
X34149192Y-21870940D01*
X34150000Y-21875000D01*
X34150000Y-23125000D01*
X34149192Y-23129059D01*
X34143235Y-23180408D01*
X34135489Y-23197950D01*
X34130970Y-23220671D01*
X34114716Y-23244995D01*
X34105534Y-23265793D01*
X34091329Y-23279997D01*
X34076777Y-23301777D01*
X34054997Y-23316329D01*
X34040793Y-23330534D01*
X34019995Y-23339716D01*
X33995671Y-23355970D01*
X33972950Y-23360489D01*
X33955408Y-23368235D01*
X33904061Y-23374192D01*
X33900000Y-23375000D01*
X33100000Y-23375000D01*
X33095941Y-23374192D01*
X33044591Y-23368235D01*
X33027048Y-23360489D01*
X33004329Y-23355970D01*
X32980006Y-23339718D01*
X32959206Y-23330534D01*
X32944999Y-23316327D01*
X32923223Y-23301777D01*
X32908672Y-23280000D01*
X32894465Y-23265793D01*
X32885280Y-23244991D01*
X32869030Y-23220671D01*
X32864511Y-23197954D01*
X32856764Y-23180408D01*
X32850805Y-23129049D01*
X32850000Y-23125000D01*
X32850000Y-21875000D01*
X32850804Y-21870953D01*
X32856764Y-21819591D01*
X32864511Y-21802043D01*
X32869030Y-21779329D01*
X32885278Y-21755010D01*
X32894465Y-21734206D01*
X32908674Y-21719996D01*
X32923223Y-21698223D01*
X32944996Y-21683674D01*
X32959206Y-21669465D01*
X32980010Y-21660278D01*
X33004329Y-21644030D01*
X33027043Y-21639511D01*
X33044591Y-21631764D01*
X33095952Y-21625805D01*
X33100000Y-21625000D01*
X33900000Y-21625000D01*
X33904047Y-21625805D01*
G37*
G36*
X37004047Y-21625805D02*
G01*
X37055408Y-21631764D01*
X37072954Y-21639511D01*
X37095671Y-21644030D01*
X37119991Y-21660280D01*
X37140793Y-21669465D01*
X37155000Y-21683672D01*
X37176777Y-21698223D01*
X37191327Y-21719999D01*
X37205534Y-21734206D01*
X37214718Y-21755006D01*
X37230970Y-21779329D01*
X37235489Y-21802048D01*
X37243235Y-21819591D01*
X37249192Y-21870940D01*
X37250000Y-21875000D01*
X37250000Y-23125000D01*
X37249192Y-23129059D01*
X37243235Y-23180408D01*
X37235489Y-23197950D01*
X37230970Y-23220671D01*
X37214716Y-23244995D01*
X37205534Y-23265793D01*
X37191329Y-23279997D01*
X37176777Y-23301777D01*
X37154997Y-23316329D01*
X37140793Y-23330534D01*
X37119995Y-23339716D01*
X37095671Y-23355970D01*
X37072950Y-23360489D01*
X37055408Y-23368235D01*
X37004061Y-23374192D01*
X37000000Y-23375000D01*
X36200000Y-23375000D01*
X36195941Y-23374192D01*
X36144591Y-23368235D01*
X36127048Y-23360489D01*
X36104329Y-23355970D01*
X36080006Y-23339718D01*
X36059206Y-23330534D01*
X36044999Y-23316327D01*
X36023223Y-23301777D01*
X36008672Y-23280000D01*
X35994465Y-23265793D01*
X35985280Y-23244991D01*
X35969030Y-23220671D01*
X35964511Y-23197954D01*
X35956764Y-23180408D01*
X35950805Y-23129049D01*
X35950000Y-23125000D01*
X35950000Y-21875000D01*
X35950804Y-21870953D01*
X35956764Y-21819591D01*
X35964511Y-21802043D01*
X35969030Y-21779329D01*
X35985278Y-21755010D01*
X35994465Y-21734206D01*
X36008674Y-21719996D01*
X36023223Y-21698223D01*
X36044996Y-21683674D01*
X36059206Y-21669465D01*
X36080010Y-21660278D01*
X36104329Y-21644030D01*
X36127043Y-21639511D01*
X36144591Y-21631764D01*
X36195952Y-21625805D01*
X36200000Y-21625000D01*
X37000000Y-21625000D01*
X37004047Y-21625805D01*
G37*
G36*
X31500000Y-23350000D02*
G01*
X29500000Y-23350000D01*
X29500000Y-21650000D01*
X31500000Y-21650000D01*
X31500000Y-23350000D01*
G37*
G36*
X6877228Y-18464448D02*
G01*
X7022117Y-18524463D01*
X7152515Y-18611592D01*
X7263408Y-18722485D01*
X7350537Y-18852883D01*
X7410552Y-18997772D01*
X7441148Y-19151586D01*
X7441148Y-19308414D01*
X7410552Y-19462228D01*
X7350537Y-19607117D01*
X7263408Y-19737515D01*
X7152515Y-19848408D01*
X7022117Y-19935537D01*
X6877228Y-19995552D01*
X6723414Y-20026148D01*
X6566586Y-20026148D01*
X6412772Y-19995552D01*
X6267883Y-19935537D01*
X6137485Y-19848408D01*
X6026592Y-19737515D01*
X5939463Y-19607117D01*
X5879448Y-19462228D01*
X5848852Y-19308414D01*
X5848852Y-19151586D01*
X5879448Y-18997772D01*
X5939463Y-18852883D01*
X6026592Y-18722485D01*
X6137485Y-18611592D01*
X6267883Y-18524463D01*
X6412772Y-18464448D01*
X6566586Y-18433852D01*
X6723414Y-18433852D01*
X6877228Y-18464448D01*
G37*
G36*
X11957228Y-18464448D02*
G01*
X12102117Y-18524463D01*
X12232515Y-18611592D01*
X12343408Y-18722485D01*
X12430537Y-18852883D01*
X12490552Y-18997772D01*
X12521148Y-19151586D01*
X12521148Y-19308414D01*
X12490552Y-19462228D01*
X12430537Y-19607117D01*
X12343408Y-19737515D01*
X12232515Y-19848408D01*
X12102117Y-19935537D01*
X11957228Y-19995552D01*
X11803414Y-20026148D01*
X11646586Y-20026148D01*
X11492772Y-19995552D01*
X11347883Y-19935537D01*
X11217485Y-19848408D01*
X11106592Y-19737515D01*
X11019463Y-19607117D01*
X10959448Y-19462228D01*
X10928852Y-19308414D01*
X10928852Y-19151586D01*
X10959448Y-18997772D01*
X11019463Y-18852883D01*
X11106592Y-18722485D01*
X11217485Y-18611592D01*
X11347883Y-18524463D01*
X11492772Y-18464448D01*
X11646586Y-18433852D01*
X11803414Y-18433852D01*
X11957228Y-18464448D01*
G37*
G36*
X14707228Y-18424448D02*
G01*
X14852117Y-18484463D01*
X14982515Y-18571592D01*
X15093408Y-18682485D01*
X15180537Y-18812883D01*
X15240552Y-18957772D01*
X15271148Y-19111586D01*
X15271148Y-19268414D01*
X15240552Y-19422228D01*
X15180537Y-19567117D01*
X15093408Y-19697515D01*
X14982515Y-19808408D01*
X14852117Y-19895537D01*
X14707228Y-19955552D01*
X14553414Y-19986148D01*
X14396586Y-19986148D01*
X14242772Y-19955552D01*
X14097883Y-19895537D01*
X13967485Y-19808408D01*
X13856592Y-19697515D01*
X13769463Y-19567117D01*
X13709448Y-19422228D01*
X13678852Y-19268414D01*
X13678852Y-19111586D01*
X13709448Y-18957772D01*
X13769463Y-18812883D01*
X13856592Y-18682485D01*
X13967485Y-18571592D01*
X14097883Y-18484463D01*
X14242772Y-18424448D01*
X14396586Y-18393852D01*
X14553414Y-18393852D01*
X14707228Y-18424448D01*
G37*
G36*
X19707228Y-18424448D02*
G01*
X19852117Y-18484463D01*
X19982515Y-18571592D01*
X20093408Y-18682485D01*
X20180537Y-18812883D01*
X20240552Y-18957772D01*
X20271148Y-19111586D01*
X20271148Y-19268414D01*
X20240552Y-19422228D01*
X20180537Y-19567117D01*
X20093408Y-19697515D01*
X19982515Y-19808408D01*
X19852117Y-19895537D01*
X19707228Y-19955552D01*
X19553414Y-19986148D01*
X19396586Y-19986148D01*
X19242772Y-19955552D01*
X19097883Y-19895537D01*
X18967485Y-19808408D01*
X18856592Y-19697515D01*
X18769463Y-19567117D01*
X18709448Y-19422228D01*
X18678852Y-19268414D01*
X18678852Y-19111586D01*
X18709448Y-18957772D01*
X18769463Y-18812883D01*
X18856592Y-18682485D01*
X18967485Y-18571592D01*
X19097883Y-18484463D01*
X19242772Y-18424448D01*
X19396586Y-18393852D01*
X19553414Y-18393852D01*
X19707228Y-18424448D01*
G37*
G36*
X22804047Y-15665805D02*
G01*
X22855408Y-15671764D01*
X22872954Y-15679511D01*
X22895671Y-15684030D01*
X22919991Y-15700280D01*
X22940793Y-15709465D01*
X22955000Y-15723672D01*
X22976777Y-15738223D01*
X22991327Y-15759999D01*
X23005534Y-15774206D01*
X23014718Y-15795006D01*
X23030970Y-15819329D01*
X23035489Y-15842048D01*
X23043235Y-15859591D01*
X23049192Y-15910940D01*
X23050000Y-15915000D01*
X23050000Y-17165000D01*
X23049192Y-17169059D01*
X23043235Y-17220408D01*
X23035489Y-17237950D01*
X23030970Y-17260671D01*
X23014716Y-17284995D01*
X23005534Y-17305793D01*
X22991329Y-17319997D01*
X22976777Y-17341777D01*
X22954997Y-17356329D01*
X22940793Y-17370534D01*
X22919995Y-17379716D01*
X22895671Y-17395970D01*
X22872950Y-17400489D01*
X22855408Y-17408235D01*
X22804061Y-17414192D01*
X22800000Y-17415000D01*
X22000000Y-17415000D01*
X21995941Y-17414192D01*
X21944591Y-17408235D01*
X21927048Y-17400489D01*
X21904329Y-17395970D01*
X21880006Y-17379718D01*
X21859206Y-17370534D01*
X21844999Y-17356327D01*
X21823223Y-17341777D01*
X21808672Y-17320000D01*
X21794465Y-17305793D01*
X21785280Y-17284991D01*
X21769030Y-17260671D01*
X21764511Y-17237954D01*
X21756764Y-17220408D01*
X21750805Y-17169049D01*
X21750000Y-17165000D01*
X21750000Y-15915000D01*
X21750804Y-15910953D01*
X21756764Y-15859591D01*
X21764511Y-15842043D01*
X21769030Y-15819329D01*
X21785278Y-15795010D01*
X21794465Y-15774206D01*
X21808674Y-15759996D01*
X21823223Y-15738223D01*
X21844996Y-15723674D01*
X21859206Y-15709465D01*
X21880010Y-15700278D01*
X21904329Y-15684030D01*
X21927043Y-15679511D01*
X21944591Y-15671764D01*
X21995952Y-15665805D01*
X22000000Y-15665000D01*
X22800000Y-15665000D01*
X22804047Y-15665805D01*
G37*
G36*
X25904047Y-15665805D02*
G01*
X25955408Y-15671764D01*
X25972954Y-15679511D01*
X25995671Y-15684030D01*
X26019991Y-15700280D01*
X26040793Y-15709465D01*
X26055000Y-15723672D01*
X26076777Y-15738223D01*
X26091327Y-15759999D01*
X26105534Y-15774206D01*
X26114718Y-15795006D01*
X26130970Y-15819329D01*
X26135489Y-15842048D01*
X26143235Y-15859591D01*
X26149192Y-15910940D01*
X26150000Y-15915000D01*
X26150000Y-17165000D01*
X26149192Y-17169059D01*
X26143235Y-17220408D01*
X26135489Y-17237950D01*
X26130970Y-17260671D01*
X26114716Y-17284995D01*
X26105534Y-17305793D01*
X26091329Y-17319997D01*
X26076777Y-17341777D01*
X26054997Y-17356329D01*
X26040793Y-17370534D01*
X26019995Y-17379716D01*
X25995671Y-17395970D01*
X25972950Y-17400489D01*
X25955408Y-17408235D01*
X25904061Y-17414192D01*
X25900000Y-17415000D01*
X25100000Y-17415000D01*
X25095941Y-17414192D01*
X25044591Y-17408235D01*
X25027048Y-17400489D01*
X25004329Y-17395970D01*
X24980006Y-17379718D01*
X24959206Y-17370534D01*
X24944999Y-17356327D01*
X24923223Y-17341777D01*
X24908672Y-17320000D01*
X24894465Y-17305793D01*
X24885280Y-17284991D01*
X24869030Y-17260671D01*
X24864511Y-17237954D01*
X24856764Y-17220408D01*
X24850805Y-17169049D01*
X24850000Y-17165000D01*
X24850000Y-15915000D01*
X24850804Y-15910953D01*
X24856764Y-15859591D01*
X24864511Y-15842043D01*
X24869030Y-15819329D01*
X24885278Y-15795010D01*
X24894465Y-15774206D01*
X24908674Y-15759996D01*
X24923223Y-15738223D01*
X24944996Y-15723674D01*
X24959206Y-15709465D01*
X24980010Y-15700278D01*
X25004329Y-15684030D01*
X25027043Y-15679511D01*
X25044591Y-15671764D01*
X25095952Y-15665805D01*
X25100000Y-15665000D01*
X25900000Y-15665000D01*
X25904047Y-15665805D01*
G37*
G36*
X10739047Y-13490805D02*
G01*
X10790408Y-13496764D01*
X10807954Y-13504511D01*
X10830671Y-13509030D01*
X10854991Y-13525280D01*
X10875793Y-13534465D01*
X10890000Y-13548672D01*
X10911777Y-13563223D01*
X10926327Y-13584999D01*
X10940534Y-13599206D01*
X10949718Y-13620006D01*
X10965970Y-13644329D01*
X10970489Y-13667048D01*
X10978235Y-13684591D01*
X10984192Y-13735940D01*
X10985000Y-13740000D01*
X10985000Y-14540000D01*
X10984192Y-14544059D01*
X10978235Y-14595408D01*
X10970489Y-14612950D01*
X10965970Y-14635671D01*
X10949716Y-14659995D01*
X10940534Y-14680793D01*
X10926329Y-14694997D01*
X10911777Y-14716777D01*
X10889997Y-14731329D01*
X10875793Y-14745534D01*
X10854995Y-14754716D01*
X10830671Y-14770970D01*
X10807950Y-14775489D01*
X10790408Y-14783235D01*
X10739061Y-14789192D01*
X10735000Y-14790000D01*
X9485000Y-14790000D01*
X9480941Y-14789192D01*
X9429591Y-14783235D01*
X9412048Y-14775489D01*
X9389329Y-14770970D01*
X9365006Y-14754718D01*
X9344206Y-14745534D01*
X9329999Y-14731327D01*
X9308223Y-14716777D01*
X9293672Y-14695000D01*
X9279465Y-14680793D01*
X9270280Y-14659991D01*
X9254030Y-14635671D01*
X9249511Y-14612954D01*
X9241764Y-14595408D01*
X9235805Y-14544049D01*
X9235000Y-14540000D01*
X9235000Y-13740000D01*
X9235804Y-13735953D01*
X9241764Y-13684591D01*
X9249511Y-13667043D01*
X9254030Y-13644329D01*
X9270278Y-13620010D01*
X9279465Y-13599206D01*
X9293674Y-13584996D01*
X9308223Y-13563223D01*
X9329996Y-13548674D01*
X9344206Y-13534465D01*
X9365010Y-13525278D01*
X9389329Y-13509030D01*
X9412043Y-13504511D01*
X9429591Y-13496764D01*
X9480952Y-13490805D01*
X9485000Y-13490000D01*
X10735000Y-13490000D01*
X10739047Y-13490805D01*
G37*
G36*
X18214047Y-12480805D02*
G01*
X18265408Y-12486764D01*
X18282954Y-12494511D01*
X18305671Y-12499030D01*
X18329991Y-12515280D01*
X18350793Y-12524465D01*
X18365000Y-12538672D01*
X18386777Y-12553223D01*
X18401327Y-12574999D01*
X18415534Y-12589206D01*
X18424718Y-12610006D01*
X18440970Y-12634329D01*
X18445489Y-12657048D01*
X18453235Y-12674591D01*
X18459192Y-12725940D01*
X18460000Y-12730000D01*
X18460000Y-13930000D01*
X18459192Y-13934059D01*
X18453235Y-13985408D01*
X18445489Y-14002950D01*
X18440970Y-14025671D01*
X18424716Y-14049995D01*
X18415534Y-14070793D01*
X18401329Y-14084997D01*
X18386777Y-14106777D01*
X18364997Y-14121329D01*
X18350793Y-14135534D01*
X18329995Y-14144716D01*
X18305671Y-14160970D01*
X18282950Y-14165489D01*
X18265408Y-14173235D01*
X18214061Y-14179192D01*
X18210000Y-14180000D01*
X17010000Y-14180000D01*
X17005941Y-14179192D01*
X16954591Y-14173235D01*
X16937048Y-14165489D01*
X16914329Y-14160970D01*
X16890006Y-14144718D01*
X16869206Y-14135534D01*
X16854999Y-14121327D01*
X16833223Y-14106777D01*
X16818672Y-14085000D01*
X16804465Y-14070793D01*
X16795280Y-14049991D01*
X16779030Y-14025671D01*
X16774511Y-14002954D01*
X16766764Y-13985408D01*
X16760805Y-13934049D01*
X16760000Y-13930000D01*
X16760000Y-12730000D01*
X16760804Y-12725953D01*
X16766764Y-12674591D01*
X16774511Y-12657043D01*
X16779030Y-12634329D01*
X16795278Y-12610010D01*
X16804465Y-12589206D01*
X16818674Y-12574996D01*
X16833223Y-12553223D01*
X16854996Y-12538674D01*
X16869206Y-12524465D01*
X16890010Y-12515278D01*
X16914329Y-12499030D01*
X16937043Y-12494511D01*
X16954591Y-12486764D01*
X17005952Y-12480805D01*
X17010000Y-12480000D01*
X18210000Y-12480000D01*
X18214047Y-12480805D01*
G37*
G36*
X20396742Y-12516601D02*
G01*
X20550687Y-12580367D01*
X20689234Y-12672941D01*
X20807059Y-12790766D01*
X20899633Y-12929313D01*
X20963399Y-13083258D01*
X20995907Y-13246685D01*
X20995907Y-13413315D01*
X20963399Y-13576742D01*
X20899633Y-13730687D01*
X20807059Y-13869234D01*
X20689234Y-13987059D01*
X20550687Y-14079633D01*
X20396742Y-14143399D01*
X20233315Y-14175907D01*
X20066685Y-14175907D01*
X19903258Y-14143399D01*
X19749313Y-14079633D01*
X19610766Y-13987059D01*
X19492941Y-13869234D01*
X19400367Y-13730687D01*
X19336601Y-13576742D01*
X19304093Y-13413315D01*
X19304093Y-13246685D01*
X19336601Y-13083258D01*
X19400367Y-12929313D01*
X19492941Y-12790766D01*
X19610766Y-12672941D01*
X19749313Y-12580367D01*
X19903258Y-12516601D01*
X20066685Y-12484093D01*
X20233315Y-12484093D01*
X20396742Y-12516601D01*
G37*
G36*
X22936742Y-12516601D02*
G01*
X23090687Y-12580367D01*
X23229234Y-12672941D01*
X23347059Y-12790766D01*
X23439633Y-12929313D01*
X23503399Y-13083258D01*
X23535907Y-13246685D01*
X23535907Y-13413315D01*
X23503399Y-13576742D01*
X23439633Y-13730687D01*
X23347059Y-13869234D01*
X23229234Y-13987059D01*
X23090687Y-14079633D01*
X22936742Y-14143399D01*
X22773315Y-14175907D01*
X22606685Y-14175907D01*
X22443258Y-14143399D01*
X22289313Y-14079633D01*
X22150766Y-13987059D01*
X22032941Y-13869234D01*
X21940367Y-13730687D01*
X21876601Y-13576742D01*
X21844093Y-13413315D01*
X21844093Y-13246685D01*
X21876601Y-13083258D01*
X21940367Y-12929313D01*
X22032941Y-12790766D01*
X22150766Y-12672941D01*
X22289313Y-12580367D01*
X22443258Y-12516601D01*
X22606685Y-12484093D01*
X22773315Y-12484093D01*
X22936742Y-12516601D01*
G37*
G36*
X25476742Y-12516601D02*
G01*
X25630687Y-12580367D01*
X25769234Y-12672941D01*
X25887059Y-12790766D01*
X25979633Y-12929313D01*
X26043399Y-13083258D01*
X26075907Y-13246685D01*
X26075907Y-13413315D01*
X26043399Y-13576742D01*
X25979633Y-13730687D01*
X25887059Y-13869234D01*
X25769234Y-13987059D01*
X25630687Y-14079633D01*
X25476742Y-14143399D01*
X25313315Y-14175907D01*
X25146685Y-14175907D01*
X24983258Y-14143399D01*
X24829313Y-14079633D01*
X24690766Y-13987059D01*
X24572941Y-13869234D01*
X24480367Y-13730687D01*
X24416601Y-13576742D01*
X24384093Y-13413315D01*
X24384093Y-13246685D01*
X24416601Y-13083258D01*
X24480367Y-12929313D01*
X24572941Y-12790766D01*
X24690766Y-12672941D01*
X24829313Y-12580367D01*
X24983258Y-12516601D01*
X25146685Y-12484093D01*
X25313315Y-12484093D01*
X25476742Y-12516601D01*
G37*
G36*
X28016742Y-12516601D02*
G01*
X28170687Y-12580367D01*
X28309234Y-12672941D01*
X28427059Y-12790766D01*
X28519633Y-12929313D01*
X28583399Y-13083258D01*
X28615907Y-13246685D01*
X28615907Y-13413315D01*
X28583399Y-13576742D01*
X28519633Y-13730687D01*
X28427059Y-13869234D01*
X28309234Y-13987059D01*
X28170687Y-14079633D01*
X28016742Y-14143399D01*
X27853315Y-14175907D01*
X27686685Y-14175907D01*
X27523258Y-14143399D01*
X27369313Y-14079633D01*
X27230766Y-13987059D01*
X27112941Y-13869234D01*
X27020367Y-13730687D01*
X26956601Y-13576742D01*
X26924093Y-13413315D01*
X26924093Y-13246685D01*
X26956601Y-13083258D01*
X27020367Y-12929313D01*
X27112941Y-12790766D01*
X27230766Y-12672941D01*
X27369313Y-12580367D01*
X27523258Y-12516601D01*
X27686685Y-12484093D01*
X27853315Y-12484093D01*
X28016742Y-12516601D01*
G37*
G36*
X30556742Y-12516601D02*
G01*
X30710687Y-12580367D01*
X30849234Y-12672941D01*
X30967059Y-12790766D01*
X31059633Y-12929313D01*
X31123399Y-13083258D01*
X31155907Y-13246685D01*
X31155907Y-13413315D01*
X31123399Y-13576742D01*
X31059633Y-13730687D01*
X30967059Y-13869234D01*
X30849234Y-13987059D01*
X30710687Y-14079633D01*
X30556742Y-14143399D01*
X30393315Y-14175907D01*
X30226685Y-14175907D01*
X30063258Y-14143399D01*
X29909313Y-14079633D01*
X29770766Y-13987059D01*
X29652941Y-13869234D01*
X29560367Y-13730687D01*
X29496601Y-13576742D01*
X29464093Y-13413315D01*
X29464093Y-13246685D01*
X29496601Y-13083258D01*
X29560367Y-12929313D01*
X29652941Y-12790766D01*
X29770766Y-12672941D01*
X29909313Y-12580367D01*
X30063258Y-12516601D01*
X30226685Y-12484093D01*
X30393315Y-12484093D01*
X30556742Y-12516601D01*
G37*
G36*
X33096742Y-12516601D02*
G01*
X33250687Y-12580367D01*
X33389234Y-12672941D01*
X33507059Y-12790766D01*
X33599633Y-12929313D01*
X33663399Y-13083258D01*
X33695907Y-13246685D01*
X33695907Y-13413315D01*
X33663399Y-13576742D01*
X33599633Y-13730687D01*
X33507059Y-13869234D01*
X33389234Y-13987059D01*
X33250687Y-14079633D01*
X33096742Y-14143399D01*
X32933315Y-14175907D01*
X32766685Y-14175907D01*
X32603258Y-14143399D01*
X32449313Y-14079633D01*
X32310766Y-13987059D01*
X32192941Y-13869234D01*
X32100367Y-13730687D01*
X32036601Y-13576742D01*
X32004093Y-13413315D01*
X32004093Y-13246685D01*
X32036601Y-13083258D01*
X32100367Y-12929313D01*
X32192941Y-12790766D01*
X32310766Y-12672941D01*
X32449313Y-12580367D01*
X32603258Y-12516601D01*
X32766685Y-12484093D01*
X32933315Y-12484093D01*
X33096742Y-12516601D01*
G37*
G36*
X35636742Y-12516601D02*
G01*
X35790687Y-12580367D01*
X35929234Y-12672941D01*
X36047059Y-12790766D01*
X36139633Y-12929313D01*
X36203399Y-13083258D01*
X36235907Y-13246685D01*
X36235907Y-13413315D01*
X36203399Y-13576742D01*
X36139633Y-13730687D01*
X36047059Y-13869234D01*
X35929234Y-13987059D01*
X35790687Y-14079633D01*
X35636742Y-14143399D01*
X35473315Y-14175907D01*
X35306685Y-14175907D01*
X35143258Y-14143399D01*
X34989313Y-14079633D01*
X34850766Y-13987059D01*
X34732941Y-13869234D01*
X34640367Y-13730687D01*
X34576601Y-13576742D01*
X34544093Y-13413315D01*
X34544093Y-13246685D01*
X34576601Y-13083258D01*
X34640367Y-12929313D01*
X34732941Y-12790766D01*
X34850766Y-12672941D01*
X34989313Y-12580367D01*
X35143258Y-12516601D01*
X35306685Y-12484093D01*
X35473315Y-12484093D01*
X35636742Y-12516601D01*
G37*
G36*
X10739047Y-10390805D02*
G01*
X10790408Y-10396764D01*
X10807954Y-10404511D01*
X10830671Y-10409030D01*
X10854991Y-10425280D01*
X10875793Y-10434465D01*
X10890000Y-10448672D01*
X10911777Y-10463223D01*
X10926327Y-10484999D01*
X10940534Y-10499206D01*
X10949718Y-10520006D01*
X10965970Y-10544329D01*
X10970489Y-10567048D01*
X10978235Y-10584591D01*
X10984192Y-10635940D01*
X10985000Y-10640000D01*
X10985000Y-11440000D01*
X10984192Y-11444059D01*
X10978235Y-11495408D01*
X10970489Y-11512950D01*
X10965970Y-11535671D01*
X10949716Y-11559995D01*
X10940534Y-11580793D01*
X10926329Y-11594997D01*
X10911777Y-11616777D01*
X10889997Y-11631329D01*
X10875793Y-11645534D01*
X10854995Y-11654716D01*
X10830671Y-11670970D01*
X10807950Y-11675489D01*
X10790408Y-11683235D01*
X10739061Y-11689192D01*
X10735000Y-11690000D01*
X9485000Y-11690000D01*
X9480941Y-11689192D01*
X9429591Y-11683235D01*
X9412048Y-11675489D01*
X9389329Y-11670970D01*
X9365006Y-11654718D01*
X9344206Y-11645534D01*
X9329999Y-11631327D01*
X9308223Y-11616777D01*
X9293672Y-11595000D01*
X9279465Y-11580793D01*
X9270280Y-11559991D01*
X9254030Y-11535671D01*
X9249511Y-11512954D01*
X9241764Y-11495408D01*
X9235805Y-11444049D01*
X9235000Y-11440000D01*
X9235000Y-10640000D01*
X9235804Y-10635953D01*
X9241764Y-10584591D01*
X9249511Y-10567043D01*
X9254030Y-10544329D01*
X9270278Y-10520010D01*
X9279465Y-10499206D01*
X9293674Y-10484996D01*
X9308223Y-10463223D01*
X9329996Y-10448674D01*
X9344206Y-10434465D01*
X9365010Y-10425278D01*
X9389329Y-10409030D01*
X9412043Y-10404511D01*
X9429591Y-10396764D01*
X9480952Y-10390805D01*
X9485000Y-10390000D01*
X10735000Y-10390000D01*
X10739047Y-10390805D01*
G37*
G36*
X17856742Y-9976601D02*
G01*
X18010687Y-10040367D01*
X18149234Y-10132941D01*
X18267059Y-10250766D01*
X18359633Y-10389313D01*
X18423399Y-10543258D01*
X18455907Y-10706685D01*
X18455907Y-10873315D01*
X18423399Y-11036742D01*
X18359633Y-11190687D01*
X18267059Y-11329234D01*
X18149234Y-11447059D01*
X18010687Y-11539633D01*
X17856742Y-11603399D01*
X17693315Y-11635907D01*
X17526685Y-11635907D01*
X17363258Y-11603399D01*
X17209313Y-11539633D01*
X17070766Y-11447059D01*
X16952941Y-11329234D01*
X16860367Y-11190687D01*
X16796601Y-11036742D01*
X16764093Y-10873315D01*
X16764093Y-10706685D01*
X16796601Y-10543258D01*
X16860367Y-10389313D01*
X16952941Y-10250766D01*
X17070766Y-10132941D01*
X17209313Y-10040367D01*
X17363258Y-9976601D01*
X17526685Y-9944093D01*
X17693315Y-9944093D01*
X17856742Y-9976601D01*
G37*
G36*
X20396742Y-9976601D02*
G01*
X20550687Y-10040367D01*
X20689234Y-10132941D01*
X20807059Y-10250766D01*
X20899633Y-10389313D01*
X20963399Y-10543258D01*
X20995907Y-10706685D01*
X20995907Y-10873315D01*
X20963399Y-11036742D01*
X20899633Y-11190687D01*
X20807059Y-11329234D01*
X20689234Y-11447059D01*
X20550687Y-11539633D01*
X20396742Y-11603399D01*
X20233315Y-11635907D01*
X20066685Y-11635907D01*
X19903258Y-11603399D01*
X19749313Y-11539633D01*
X19610766Y-11447059D01*
X19492941Y-11329234D01*
X19400367Y-11190687D01*
X19336601Y-11036742D01*
X19304093Y-10873315D01*
X19304093Y-10706685D01*
X19336601Y-10543258D01*
X19400367Y-10389313D01*
X19492941Y-10250766D01*
X19610766Y-10132941D01*
X19749313Y-10040367D01*
X19903258Y-9976601D01*
X20066685Y-9944093D01*
X20233315Y-9944093D01*
X20396742Y-9976601D01*
G37*
G36*
X22936742Y-9976601D02*
G01*
X23090687Y-10040367D01*
X23229234Y-10132941D01*
X23347059Y-10250766D01*
X23439633Y-10389313D01*
X23503399Y-10543258D01*
X23535907Y-10706685D01*
X23535907Y-10873315D01*
X23503399Y-11036742D01*
X23439633Y-11190687D01*
X23347059Y-11329234D01*
X23229234Y-11447059D01*
X23090687Y-11539633D01*
X22936742Y-11603399D01*
X22773315Y-11635907D01*
X22606685Y-11635907D01*
X22443258Y-11603399D01*
X22289313Y-11539633D01*
X22150766Y-11447059D01*
X22032941Y-11329234D01*
X21940367Y-11190687D01*
X21876601Y-11036742D01*
X21844093Y-10873315D01*
X21844093Y-10706685D01*
X21876601Y-10543258D01*
X21940367Y-10389313D01*
X22032941Y-10250766D01*
X22150766Y-10132941D01*
X22289313Y-10040367D01*
X22443258Y-9976601D01*
X22606685Y-9944093D01*
X22773315Y-9944093D01*
X22936742Y-9976601D01*
G37*
G36*
X25476742Y-9976601D02*
G01*
X25630687Y-10040367D01*
X25769234Y-10132941D01*
X25887059Y-10250766D01*
X25979633Y-10389313D01*
X26043399Y-10543258D01*
X26075907Y-10706685D01*
X26075907Y-10873315D01*
X26043399Y-11036742D01*
X25979633Y-11190687D01*
X25887059Y-11329234D01*
X25769234Y-11447059D01*
X25630687Y-11539633D01*
X25476742Y-11603399D01*
X25313315Y-11635907D01*
X25146685Y-11635907D01*
X24983258Y-11603399D01*
X24829313Y-11539633D01*
X24690766Y-11447059D01*
X24572941Y-11329234D01*
X24480367Y-11190687D01*
X24416601Y-11036742D01*
X24384093Y-10873315D01*
X24384093Y-10706685D01*
X24416601Y-10543258D01*
X24480367Y-10389313D01*
X24572941Y-10250766D01*
X24690766Y-10132941D01*
X24829313Y-10040367D01*
X24983258Y-9976601D01*
X25146685Y-9944093D01*
X25313315Y-9944093D01*
X25476742Y-9976601D01*
G37*
G36*
X28016742Y-9976601D02*
G01*
X28170687Y-10040367D01*
X28309234Y-10132941D01*
X28427059Y-10250766D01*
X28519633Y-10389313D01*
X28583399Y-10543258D01*
X28615907Y-10706685D01*
X28615907Y-10873315D01*
X28583399Y-11036742D01*
X28519633Y-11190687D01*
X28427059Y-11329234D01*
X28309234Y-11447059D01*
X28170687Y-11539633D01*
X28016742Y-11603399D01*
X27853315Y-11635907D01*
X27686685Y-11635907D01*
X27523258Y-11603399D01*
X27369313Y-11539633D01*
X27230766Y-11447059D01*
X27112941Y-11329234D01*
X27020367Y-11190687D01*
X26956601Y-11036742D01*
X26924093Y-10873315D01*
X26924093Y-10706685D01*
X26956601Y-10543258D01*
X27020367Y-10389313D01*
X27112941Y-10250766D01*
X27230766Y-10132941D01*
X27369313Y-10040367D01*
X27523258Y-9976601D01*
X27686685Y-9944093D01*
X27853315Y-9944093D01*
X28016742Y-9976601D01*
G37*
G36*
X30556742Y-9976601D02*
G01*
X30710687Y-10040367D01*
X30849234Y-10132941D01*
X30967059Y-10250766D01*
X31059633Y-10389313D01*
X31123399Y-10543258D01*
X31155907Y-10706685D01*
X31155907Y-10873315D01*
X31123399Y-11036742D01*
X31059633Y-11190687D01*
X30967059Y-11329234D01*
X30849234Y-11447059D01*
X30710687Y-11539633D01*
X30556742Y-11603399D01*
X30393315Y-11635907D01*
X30226685Y-11635907D01*
X30063258Y-11603399D01*
X29909313Y-11539633D01*
X29770766Y-11447059D01*
X29652941Y-11329234D01*
X29560367Y-11190687D01*
X29496601Y-11036742D01*
X29464093Y-10873315D01*
X29464093Y-10706685D01*
X29496601Y-10543258D01*
X29560367Y-10389313D01*
X29652941Y-10250766D01*
X29770766Y-10132941D01*
X29909313Y-10040367D01*
X30063258Y-9976601D01*
X30226685Y-9944093D01*
X30393315Y-9944093D01*
X30556742Y-9976601D01*
G37*
G36*
X33096742Y-9976601D02*
G01*
X33250687Y-10040367D01*
X33389234Y-10132941D01*
X33507059Y-10250766D01*
X33599633Y-10389313D01*
X33663399Y-10543258D01*
X33695907Y-10706685D01*
X33695907Y-10873315D01*
X33663399Y-11036742D01*
X33599633Y-11190687D01*
X33507059Y-11329234D01*
X33389234Y-11447059D01*
X33250687Y-11539633D01*
X33096742Y-11603399D01*
X32933315Y-11635907D01*
X32766685Y-11635907D01*
X32603258Y-11603399D01*
X32449313Y-11539633D01*
X32310766Y-11447059D01*
X32192941Y-11329234D01*
X32100367Y-11190687D01*
X32036601Y-11036742D01*
X32004093Y-10873315D01*
X32004093Y-10706685D01*
X32036601Y-10543258D01*
X32100367Y-10389313D01*
X32192941Y-10250766D01*
X32310766Y-10132941D01*
X32449313Y-10040367D01*
X32603258Y-9976601D01*
X32766685Y-9944093D01*
X32933315Y-9944093D01*
X33096742Y-9976601D01*
G37*
G36*
X35636742Y-9976601D02*
G01*
X35790687Y-10040367D01*
X35929234Y-10132941D01*
X36047059Y-10250766D01*
X36139633Y-10389313D01*
X36203399Y-10543258D01*
X36235907Y-10706685D01*
X36235907Y-10873315D01*
X36203399Y-11036742D01*
X36139633Y-11190687D01*
X36047059Y-11329234D01*
X35929234Y-11447059D01*
X35790687Y-11539633D01*
X35636742Y-11603399D01*
X35473315Y-11635907D01*
X35306685Y-11635907D01*
X35143258Y-11603399D01*
X34989313Y-11539633D01*
X34850766Y-11447059D01*
X34732941Y-11329234D01*
X34640367Y-11190687D01*
X34576601Y-11036742D01*
X34544093Y-10873315D01*
X34544093Y-10706685D01*
X34576601Y-10543258D01*
X34640367Y-10389313D01*
X34732941Y-10250766D01*
X34850766Y-10132941D01*
X34989313Y-10040367D01*
X35143258Y-9976601D01*
X35306685Y-9944093D01*
X35473315Y-9944093D01*
X35636742Y-9976601D01*
G37*
%LPD*%
M02*
