M48
; DRILL file KiCad 10.0.6 date 2026-10-04T14:02:22
; FORMAT={-:-/ absolute / metric / decimal}
; #@! TF.CreationDate,2026-10-04T14:02:22+02:00
; #@! TF.GenerationSoftware,Kicad,Pcbnew,10.0.6
; #@! TF.FileFunction,Plated,1,2,PTH
FMAT,2
METRIC
; #@! TA.AperFunction,Plated,PTH,ViaDrill
T1C0.400
; #@! TA.AperFunction,Plated,PTH,ComponentDrill
T2C0.800
; #@! TA.AperFunction,Plated,PTH,ComponentDrill
T3C1.000
%
G90
G05
T1
X3.68Y-26.852
X5.412Y-28.32
X10.983Y-16.075
X12.0Y-22.19
X12.0Y-29.81
X13.032Y-68.569
X14.329Y-16.633
X14.608Y-48.595
X14.777Y-54.194
X15.028Y-15.474
X15.446Y-44.59
X16.316Y-33.956
X16.613Y-16.584
X17.38Y-8.0
X19.684Y-31.755
X20.348Y-24.394
X20.721Y-46.542
X20.794Y-16.54
X21.021Y-58.753
X21.5Y-48.73
X21.5Y-53.81
X21.517Y-37.58
X21.601Y-86.432
X22.145Y-55.005
X22.224Y-41.078
X22.684Y-20.838
X22.864Y-35.029
X24.647Y-80.799
X25.0Y-70.0
X25.0Y-90.0
X26.299Y-53.461
X26.483Y-57.623
X26.697Y-41.46
X27.326Y-29.891
X28.205Y-63.069
X28.572Y-17.589
X29.45Y-80.457
X30.525Y-46.455
X33.133Y-28.038
X33.151Y-19.474
X33.151Y-50.887
X33.172Y-15.566
X33.419Y-31.1
X33.933Y-14.461
X34.509Y-55.205
X36.236Y-24.707
X37.657Y-24.964
X38.16Y-8.0
X40.0Y-20.0
X45.0Y-10.0
X45.0Y-50.0
X45.0Y-90.0
X50.0Y-20.0
X50.0Y-40.0
X50.0Y-60.0
X50.0Y-80.0
T2
X2.275Y-31.73
X2.275Y-36.81
X2.695Y-54.94
X5.095Y-51.23
X6.025Y-31.96
X6.025Y-37.04
X6.025Y-40.29
X6.025Y-45.37
X6.645Y-19.23
X7.775Y-54.94
X9.0Y-62.0
X9.0Y-64.54
X9.0Y-67.08
X9.0Y-69.62
X9.0Y-72.16
X9.0Y-74.7
X9.0Y-77.24
X9.0Y-79.78
X9.775Y-32.77
X9.775Y-37.85
X10.025Y-42.38
X10.025Y-47.46
X10.175Y-51.23
X10.445Y-55.77
X11.725Y-19.23
X13.975Y-37.75
X13.975Y-42.83
X14.475Y-19.19
X15.525Y-55.77
X16.62Y-62.0
X16.62Y-64.54
X16.62Y-67.08
X16.62Y-69.62
X16.62Y-72.16
X16.62Y-74.7
X16.62Y-77.24
X16.62Y-79.78
X17.725Y-37.06
X17.725Y-42.14
X17.975Y-28.79
X17.975Y-33.87
X19.475Y-19.19
X19.775Y-64.75
X19.775Y-69.83
X19.87Y-57.0
X19.87Y-62.0
X23.975Y-38.69
X23.975Y-43.69
T3
X11.26Y-95.96
X13.8Y-95.96
X16.34Y-95.96
X17.61Y-10.79
X17.61Y-13.33
X18.88Y-95.96
X20.15Y-10.79
X20.15Y-13.33
X21.42Y-95.96
X22.69Y-10.79
X22.69Y-13.33
X23.96Y-95.96
X25.0Y-30.0
X25.0Y-32.54
X25.0Y-35.08
X25.0Y-60.5
X25.0Y-63.04
X25.0Y-65.58
X25.23Y-10.79
X25.23Y-13.33
X26.5Y-95.96
X27.77Y-10.79
X27.77Y-13.33
X29.04Y-95.96
X30.31Y-10.79
X30.31Y-13.33
X30.5Y-22.5
X30.5Y-25.04
X30.5Y-27.58
X30.5Y-30.12
X30.5Y-32.66
X30.5Y-35.2
X30.5Y-37.74
X30.5Y-40.28
X30.5Y-42.82
X30.5Y-53.0
X30.5Y-55.54
X30.5Y-58.08
X30.5Y-60.62
X30.5Y-63.16
X30.5Y-65.7
X30.5Y-68.24
X30.5Y-70.78
X30.5Y-73.32
X31.58Y-95.96
X32.85Y-10.79
X32.85Y-13.33
X34.12Y-95.96
X35.39Y-10.79
X35.39Y-13.33
X36.66Y-95.96
X39.2Y-95.96
X41.74Y-95.96
M30
