%TF.GenerationSoftware,KiCad,Pcbnew,10.0.6*%
%TF.CreationDate,2026-10-08T09:12:07+02:00*%
%TF.ProjectId,P07,5030372e-6b69-4636-9164-5f7063625858,P07-S1 PCB*%
%TF.SameCoordinates,Original*%
%TF.FileFunction,Soldermask,Bot*%
%TF.FilePolarity,Negative*%
%FSLAX46Y46*%
G04 Gerber Fmt 4.6, Leading zero omitted, Abs format (unit mm)*
G04 Created by KiCad (PCBNEW 10.0.6) date 2026-10-08 09:12:07*
%MOMM*%
%LPD*%
G01*
G04 APERTURE LIST*
G04 APERTURE END LIST*
G36*
X64753513Y-95444208D02*
G01*
X64992293Y-95521793D01*
X65215998Y-95635776D01*
X65419117Y-95783350D01*
X65596650Y-95960883D01*
X65744224Y-96164002D01*
X65858207Y-96387707D01*
X65935792Y-96626487D01*
X65975068Y-96874465D01*
X65975068Y-97125535D01*
X65935792Y-97373513D01*
X65858207Y-97612293D01*
X65744224Y-97835998D01*
X65596650Y-98039117D01*
X65419117Y-98216650D01*
X65215998Y-98364224D01*
X64992293Y-98478207D01*
X64753513Y-98555792D01*
X64505535Y-98595068D01*
X64254465Y-98595068D01*
X64006487Y-98555792D01*
X63767707Y-98478207D01*
X63544002Y-98364224D01*
X63340883Y-98216650D01*
X63163350Y-98039117D01*
X63015776Y-97835998D01*
X62901793Y-97612293D01*
X62824208Y-97373513D01*
X62784932Y-97125535D01*
X62784932Y-96874465D01*
X62824208Y-96626487D01*
X62901793Y-96387707D01*
X63015776Y-96164002D01*
X63163350Y-95960883D01*
X63340883Y-95783350D01*
X63544002Y-95635776D01*
X63767707Y-95521793D01*
X64006487Y-95444208D01*
X64254465Y-95404932D01*
X64505535Y-95404932D01*
X64753513Y-95444208D01*
G37*
G36*
X79373513Y-95444208D02*
G01*
X79612293Y-95521793D01*
X79835998Y-95635776D01*
X80039117Y-95783350D01*
X80216650Y-95960883D01*
X80364224Y-96164002D01*
X80478207Y-96387707D01*
X80555792Y-96626487D01*
X80595068Y-96874465D01*
X80595068Y-97125535D01*
X80555792Y-97373513D01*
X80478207Y-97612293D01*
X80364224Y-97835998D01*
X80216650Y-98039117D01*
X80039117Y-98216650D01*
X79835998Y-98364224D01*
X79612293Y-98478207D01*
X79373513Y-98555792D01*
X79125535Y-98595068D01*
X78874465Y-98595068D01*
X78626487Y-98555792D01*
X78387707Y-98478207D01*
X78164002Y-98364224D01*
X77960883Y-98216650D01*
X77783350Y-98039117D01*
X77635776Y-97835998D01*
X77521793Y-97612293D01*
X77444208Y-97373513D01*
X77404932Y-97125535D01*
X77404932Y-96874465D01*
X77444208Y-96626487D01*
X77521793Y-96387707D01*
X77635776Y-96164002D01*
X77783350Y-95960883D01*
X77960883Y-95783350D01*
X78164002Y-95635776D01*
X78387707Y-95521793D01*
X78626487Y-95444208D01*
X78874465Y-95404932D01*
X79125535Y-95404932D01*
X79373513Y-95444208D01*
G37*
G36*
X42590000Y-96810000D02*
G01*
X40890000Y-96810000D01*
X40890000Y-95110000D01*
X42590000Y-95110000D01*
X42590000Y-96810000D01*
G37*
G36*
X14046742Y-95146601D02*
G01*
X14200687Y-95210367D01*
X14339234Y-95302941D01*
X14457059Y-95420766D01*
X14549633Y-95559313D01*
X14613399Y-95713258D01*
X14645907Y-95876685D01*
X14645907Y-96043315D01*
X14613399Y-96206742D01*
X14549633Y-96360687D01*
X14457059Y-96499234D01*
X14339234Y-96617059D01*
X14200687Y-96709633D01*
X14046742Y-96773399D01*
X13883315Y-96805907D01*
X13716685Y-96805907D01*
X13553258Y-96773399D01*
X13399313Y-96709633D01*
X13260766Y-96617059D01*
X13142941Y-96499234D01*
X13050367Y-96360687D01*
X12986601Y-96206742D01*
X12954093Y-96043315D01*
X12954093Y-95876685D01*
X12986601Y-95713258D01*
X13050367Y-95559313D01*
X13142941Y-95420766D01*
X13260766Y-95302941D01*
X13399313Y-95210367D01*
X13553258Y-95146601D01*
X13716685Y-95114093D01*
X13883315Y-95114093D01*
X14046742Y-95146601D01*
G37*
G36*
X16586742Y-95146601D02*
G01*
X16740687Y-95210367D01*
X16879234Y-95302941D01*
X16997059Y-95420766D01*
X17089633Y-95559313D01*
X17153399Y-95713258D01*
X17185907Y-95876685D01*
X17185907Y-96043315D01*
X17153399Y-96206742D01*
X17089633Y-96360687D01*
X16997059Y-96499234D01*
X16879234Y-96617059D01*
X16740687Y-96709633D01*
X16586742Y-96773399D01*
X16423315Y-96805907D01*
X16256685Y-96805907D01*
X16093258Y-96773399D01*
X15939313Y-96709633D01*
X15800766Y-96617059D01*
X15682941Y-96499234D01*
X15590367Y-96360687D01*
X15526601Y-96206742D01*
X15494093Y-96043315D01*
X15494093Y-95876685D01*
X15526601Y-95713258D01*
X15590367Y-95559313D01*
X15682941Y-95420766D01*
X15800766Y-95302941D01*
X15939313Y-95210367D01*
X16093258Y-95146601D01*
X16256685Y-95114093D01*
X16423315Y-95114093D01*
X16586742Y-95146601D01*
G37*
G36*
X19126742Y-95146601D02*
G01*
X19280687Y-95210367D01*
X19419234Y-95302941D01*
X19537059Y-95420766D01*
X19629633Y-95559313D01*
X19693399Y-95713258D01*
X19725907Y-95876685D01*
X19725907Y-96043315D01*
X19693399Y-96206742D01*
X19629633Y-96360687D01*
X19537059Y-96499234D01*
X19419234Y-96617059D01*
X19280687Y-96709633D01*
X19126742Y-96773399D01*
X18963315Y-96805907D01*
X18796685Y-96805907D01*
X18633258Y-96773399D01*
X18479313Y-96709633D01*
X18340766Y-96617059D01*
X18222941Y-96499234D01*
X18130367Y-96360687D01*
X18066601Y-96206742D01*
X18034093Y-96043315D01*
X18034093Y-95876685D01*
X18066601Y-95713258D01*
X18130367Y-95559313D01*
X18222941Y-95420766D01*
X18340766Y-95302941D01*
X18479313Y-95210367D01*
X18633258Y-95146601D01*
X18796685Y-95114093D01*
X18963315Y-95114093D01*
X19126742Y-95146601D01*
G37*
G36*
X21666742Y-95146601D02*
G01*
X21820687Y-95210367D01*
X21959234Y-95302941D01*
X22077059Y-95420766D01*
X22169633Y-95559313D01*
X22233399Y-95713258D01*
X22265907Y-95876685D01*
X22265907Y-96043315D01*
X22233399Y-96206742D01*
X22169633Y-96360687D01*
X22077059Y-96499234D01*
X21959234Y-96617059D01*
X21820687Y-96709633D01*
X21666742Y-96773399D01*
X21503315Y-96805907D01*
X21336685Y-96805907D01*
X21173258Y-96773399D01*
X21019313Y-96709633D01*
X20880766Y-96617059D01*
X20762941Y-96499234D01*
X20670367Y-96360687D01*
X20606601Y-96206742D01*
X20574093Y-96043315D01*
X20574093Y-95876685D01*
X20606601Y-95713258D01*
X20670367Y-95559313D01*
X20762941Y-95420766D01*
X20880766Y-95302941D01*
X21019313Y-95210367D01*
X21173258Y-95146601D01*
X21336685Y-95114093D01*
X21503315Y-95114093D01*
X21666742Y-95146601D01*
G37*
G36*
X24206742Y-95146601D02*
G01*
X24360687Y-95210367D01*
X24499234Y-95302941D01*
X24617059Y-95420766D01*
X24709633Y-95559313D01*
X24773399Y-95713258D01*
X24805907Y-95876685D01*
X24805907Y-96043315D01*
X24773399Y-96206742D01*
X24709633Y-96360687D01*
X24617059Y-96499234D01*
X24499234Y-96617059D01*
X24360687Y-96709633D01*
X24206742Y-96773399D01*
X24043315Y-96805907D01*
X23876685Y-96805907D01*
X23713258Y-96773399D01*
X23559313Y-96709633D01*
X23420766Y-96617059D01*
X23302941Y-96499234D01*
X23210367Y-96360687D01*
X23146601Y-96206742D01*
X23114093Y-96043315D01*
X23114093Y-95876685D01*
X23146601Y-95713258D01*
X23210367Y-95559313D01*
X23302941Y-95420766D01*
X23420766Y-95302941D01*
X23559313Y-95210367D01*
X23713258Y-95146601D01*
X23876685Y-95114093D01*
X24043315Y-95114093D01*
X24206742Y-95146601D01*
G37*
G36*
X26746742Y-95146601D02*
G01*
X26900687Y-95210367D01*
X27039234Y-95302941D01*
X27157059Y-95420766D01*
X27249633Y-95559313D01*
X27313399Y-95713258D01*
X27345907Y-95876685D01*
X27345907Y-96043315D01*
X27313399Y-96206742D01*
X27249633Y-96360687D01*
X27157059Y-96499234D01*
X27039234Y-96617059D01*
X26900687Y-96709633D01*
X26746742Y-96773399D01*
X26583315Y-96805907D01*
X26416685Y-96805907D01*
X26253258Y-96773399D01*
X26099313Y-96709633D01*
X25960766Y-96617059D01*
X25842941Y-96499234D01*
X25750367Y-96360687D01*
X25686601Y-96206742D01*
X25654093Y-96043315D01*
X25654093Y-95876685D01*
X25686601Y-95713258D01*
X25750367Y-95559313D01*
X25842941Y-95420766D01*
X25960766Y-95302941D01*
X26099313Y-95210367D01*
X26253258Y-95146601D01*
X26416685Y-95114093D01*
X26583315Y-95114093D01*
X26746742Y-95146601D01*
G37*
G36*
X29286742Y-95146601D02*
G01*
X29440687Y-95210367D01*
X29579234Y-95302941D01*
X29697059Y-95420766D01*
X29789633Y-95559313D01*
X29853399Y-95713258D01*
X29885907Y-95876685D01*
X29885907Y-96043315D01*
X29853399Y-96206742D01*
X29789633Y-96360687D01*
X29697059Y-96499234D01*
X29579234Y-96617059D01*
X29440687Y-96709633D01*
X29286742Y-96773399D01*
X29123315Y-96805907D01*
X28956685Y-96805907D01*
X28793258Y-96773399D01*
X28639313Y-96709633D01*
X28500766Y-96617059D01*
X28382941Y-96499234D01*
X28290367Y-96360687D01*
X28226601Y-96206742D01*
X28194093Y-96043315D01*
X28194093Y-95876685D01*
X28226601Y-95713258D01*
X28290367Y-95559313D01*
X28382941Y-95420766D01*
X28500766Y-95302941D01*
X28639313Y-95210367D01*
X28793258Y-95146601D01*
X28956685Y-95114093D01*
X29123315Y-95114093D01*
X29286742Y-95146601D01*
G37*
G36*
X31826742Y-95146601D02*
G01*
X31980687Y-95210367D01*
X32119234Y-95302941D01*
X32237059Y-95420766D01*
X32329633Y-95559313D01*
X32393399Y-95713258D01*
X32425907Y-95876685D01*
X32425907Y-96043315D01*
X32393399Y-96206742D01*
X32329633Y-96360687D01*
X32237059Y-96499234D01*
X32119234Y-96617059D01*
X31980687Y-96709633D01*
X31826742Y-96773399D01*
X31663315Y-96805907D01*
X31496685Y-96805907D01*
X31333258Y-96773399D01*
X31179313Y-96709633D01*
X31040766Y-96617059D01*
X30922941Y-96499234D01*
X30830367Y-96360687D01*
X30766601Y-96206742D01*
X30734093Y-96043315D01*
X30734093Y-95876685D01*
X30766601Y-95713258D01*
X30830367Y-95559313D01*
X30922941Y-95420766D01*
X31040766Y-95302941D01*
X31179313Y-95210367D01*
X31333258Y-95146601D01*
X31496685Y-95114093D01*
X31663315Y-95114093D01*
X31826742Y-95146601D01*
G37*
G36*
X34366742Y-95146601D02*
G01*
X34520687Y-95210367D01*
X34659234Y-95302941D01*
X34777059Y-95420766D01*
X34869633Y-95559313D01*
X34933399Y-95713258D01*
X34965907Y-95876685D01*
X34965907Y-96043315D01*
X34933399Y-96206742D01*
X34869633Y-96360687D01*
X34777059Y-96499234D01*
X34659234Y-96617059D01*
X34520687Y-96709633D01*
X34366742Y-96773399D01*
X34203315Y-96805907D01*
X34036685Y-96805907D01*
X33873258Y-96773399D01*
X33719313Y-96709633D01*
X33580766Y-96617059D01*
X33462941Y-96499234D01*
X33370367Y-96360687D01*
X33306601Y-96206742D01*
X33274093Y-96043315D01*
X33274093Y-95876685D01*
X33306601Y-95713258D01*
X33370367Y-95559313D01*
X33462941Y-95420766D01*
X33580766Y-95302941D01*
X33719313Y-95210367D01*
X33873258Y-95146601D01*
X34036685Y-95114093D01*
X34203315Y-95114093D01*
X34366742Y-95146601D01*
G37*
G36*
X36906742Y-95146601D02*
G01*
X37060687Y-95210367D01*
X37199234Y-95302941D01*
X37317059Y-95420766D01*
X37409633Y-95559313D01*
X37473399Y-95713258D01*
X37505907Y-95876685D01*
X37505907Y-96043315D01*
X37473399Y-96206742D01*
X37409633Y-96360687D01*
X37317059Y-96499234D01*
X37199234Y-96617059D01*
X37060687Y-96709633D01*
X36906742Y-96773399D01*
X36743315Y-96805907D01*
X36576685Y-96805907D01*
X36413258Y-96773399D01*
X36259313Y-96709633D01*
X36120766Y-96617059D01*
X36002941Y-96499234D01*
X35910367Y-96360687D01*
X35846601Y-96206742D01*
X35814093Y-96043315D01*
X35814093Y-95876685D01*
X35846601Y-95713258D01*
X35910367Y-95559313D01*
X36002941Y-95420766D01*
X36120766Y-95302941D01*
X36259313Y-95210367D01*
X36413258Y-95146601D01*
X36576685Y-95114093D01*
X36743315Y-95114093D01*
X36906742Y-95146601D01*
G37*
G36*
X39446742Y-95146601D02*
G01*
X39600687Y-95210367D01*
X39739234Y-95302941D01*
X39857059Y-95420766D01*
X39949633Y-95559313D01*
X40013399Y-95713258D01*
X40045907Y-95876685D01*
X40045907Y-96043315D01*
X40013399Y-96206742D01*
X39949633Y-96360687D01*
X39857059Y-96499234D01*
X39739234Y-96617059D01*
X39600687Y-96709633D01*
X39446742Y-96773399D01*
X39283315Y-96805907D01*
X39116685Y-96805907D01*
X38953258Y-96773399D01*
X38799313Y-96709633D01*
X38660766Y-96617059D01*
X38542941Y-96499234D01*
X38450367Y-96360687D01*
X38386601Y-96206742D01*
X38354093Y-96043315D01*
X38354093Y-95876685D01*
X38386601Y-95713258D01*
X38450367Y-95559313D01*
X38542941Y-95420766D01*
X38660766Y-95302941D01*
X38799313Y-95210367D01*
X38953258Y-95146601D01*
X39116685Y-95114093D01*
X39283315Y-95114093D01*
X39446742Y-95146601D01*
G37*
G36*
X97173513Y-87994208D02*
G01*
X97412293Y-88071793D01*
X97635998Y-88185776D01*
X97839117Y-88333350D01*
X98016650Y-88510883D01*
X98164224Y-88714002D01*
X98278207Y-88937707D01*
X98355792Y-89176487D01*
X98395068Y-89424465D01*
X98395068Y-89675535D01*
X98355792Y-89923513D01*
X98278207Y-90162293D01*
X98164224Y-90385998D01*
X98016650Y-90589117D01*
X97839117Y-90766650D01*
X97635998Y-90914224D01*
X97412293Y-91028207D01*
X97173513Y-91105792D01*
X96925535Y-91145068D01*
X96674465Y-91145068D01*
X96426487Y-91105792D01*
X96187707Y-91028207D01*
X95964002Y-90914224D01*
X95760883Y-90766650D01*
X95583350Y-90589117D01*
X95435776Y-90385998D01*
X95321793Y-90162293D01*
X95244208Y-89923513D01*
X95204932Y-89675535D01*
X95204932Y-89424465D01*
X95244208Y-89176487D01*
X95321793Y-88937707D01*
X95435776Y-88714002D01*
X95583350Y-88510883D01*
X95760883Y-88333350D01*
X95964002Y-88185776D01*
X96187707Y-88071793D01*
X96426487Y-87994208D01*
X96674465Y-87954932D01*
X96925535Y-87954932D01*
X97173513Y-87994208D01*
G37*
G36*
X85238953Y-83843233D02*
G01*
X85523239Y-83919407D01*
X85795150Y-84032036D01*
X86050033Y-84179193D01*
X86283528Y-84358360D01*
X86491640Y-84566472D01*
X86670807Y-84799967D01*
X86817964Y-85054850D01*
X86930593Y-85326761D01*
X87006767Y-85611047D01*
X87045183Y-85902843D01*
X87045183Y-86197157D01*
X87006767Y-86488953D01*
X86930593Y-86773239D01*
X86817964Y-87045150D01*
X86670807Y-87300033D01*
X86491640Y-87533528D01*
X86283528Y-87741640D01*
X86050033Y-87920807D01*
X85795150Y-88067964D01*
X85523239Y-88180593D01*
X85238953Y-88256767D01*
X84947157Y-88295183D01*
X84652843Y-88295183D01*
X84361047Y-88256767D01*
X84076761Y-88180593D01*
X83804850Y-88067964D01*
X83549967Y-87920807D01*
X83316472Y-87741640D01*
X83108360Y-87533528D01*
X82929193Y-87300033D01*
X82782036Y-87045150D01*
X82669407Y-86773239D01*
X82593233Y-86488953D01*
X82554817Y-86197157D01*
X82554817Y-85902843D01*
X82593233Y-85611047D01*
X82669407Y-85326761D01*
X82782036Y-85054850D01*
X82929193Y-84799967D01*
X83108360Y-84566472D01*
X83316472Y-84358360D01*
X83549967Y-84179193D01*
X83804850Y-84032036D01*
X84076761Y-83919407D01*
X84361047Y-83843233D01*
X84652843Y-83804817D01*
X84947157Y-83804817D01*
X85238953Y-83843233D01*
G37*
G36*
X70130000Y-87250000D02*
G01*
X65630000Y-87250000D01*
X65630000Y-82750000D01*
X70130000Y-82750000D01*
X70130000Y-87250000D01*
G37*
G36*
X75938953Y-82793233D02*
G01*
X76223239Y-82869407D01*
X76495150Y-82982036D01*
X76750033Y-83129193D01*
X76983528Y-83308360D01*
X77191640Y-83516472D01*
X77370807Y-83749967D01*
X77517964Y-84004850D01*
X77630593Y-84276761D01*
X77706767Y-84561047D01*
X77745183Y-84852843D01*
X77745183Y-85147157D01*
X77706767Y-85438953D01*
X77630593Y-85723239D01*
X77517964Y-85995150D01*
X77370807Y-86250033D01*
X77191640Y-86483528D01*
X76983528Y-86691640D01*
X76750033Y-86870807D01*
X76495150Y-87017964D01*
X76223239Y-87130593D01*
X75938953Y-87206767D01*
X75647157Y-87245183D01*
X75352843Y-87245183D01*
X75061047Y-87206767D01*
X74776761Y-87130593D01*
X74504850Y-87017964D01*
X74249967Y-86870807D01*
X74016472Y-86691640D01*
X73808360Y-86483528D01*
X73629193Y-86250033D01*
X73482036Y-85995150D01*
X73369407Y-85723239D01*
X73293233Y-85438953D01*
X73254817Y-85147157D01*
X73254817Y-84852843D01*
X73293233Y-84561047D01*
X73369407Y-84276761D01*
X73482036Y-84004850D01*
X73629193Y-83749967D01*
X73808360Y-83516472D01*
X74016472Y-83308360D01*
X74249967Y-83129193D01*
X74504850Y-82982036D01*
X74776761Y-82869407D01*
X75061047Y-82793233D01*
X75352843Y-82754817D01*
X75647157Y-82754817D01*
X75938953Y-82793233D01*
G37*
G36*
X54594047Y-81535805D02*
G01*
X54645408Y-81541764D01*
X54662954Y-81549511D01*
X54685671Y-81554030D01*
X54709991Y-81570280D01*
X54730793Y-81579465D01*
X54745000Y-81593672D01*
X54766777Y-81608223D01*
X54781327Y-81629999D01*
X54795534Y-81644206D01*
X54804718Y-81665006D01*
X54820970Y-81689329D01*
X54825489Y-81712048D01*
X54833235Y-81729591D01*
X54839192Y-81780940D01*
X54840000Y-81785000D01*
X54840000Y-82585000D01*
X54839192Y-82589059D01*
X54833235Y-82640408D01*
X54825489Y-82657950D01*
X54820970Y-82680671D01*
X54804716Y-82704995D01*
X54795534Y-82725793D01*
X54781329Y-82739997D01*
X54766777Y-82761777D01*
X54744997Y-82776329D01*
X54730793Y-82790534D01*
X54709995Y-82799716D01*
X54685671Y-82815970D01*
X54662950Y-82820489D01*
X54645408Y-82828235D01*
X54594061Y-82834192D01*
X54590000Y-82835000D01*
X53340000Y-82835000D01*
X53335941Y-82834192D01*
X53284591Y-82828235D01*
X53267048Y-82820489D01*
X53244329Y-82815970D01*
X53220006Y-82799718D01*
X53199206Y-82790534D01*
X53184999Y-82776327D01*
X53163223Y-82761777D01*
X53148672Y-82740000D01*
X53134465Y-82725793D01*
X53125280Y-82704991D01*
X53109030Y-82680671D01*
X53104511Y-82657954D01*
X53096764Y-82640408D01*
X53090805Y-82589049D01*
X53090000Y-82585000D01*
X53090000Y-81785000D01*
X53090804Y-81780953D01*
X53096764Y-81729591D01*
X53104511Y-81712043D01*
X53109030Y-81689329D01*
X53125278Y-81665010D01*
X53134465Y-81644206D01*
X53148674Y-81629996D01*
X53163223Y-81608223D01*
X53184996Y-81593674D01*
X53199206Y-81579465D01*
X53220010Y-81570278D01*
X53244329Y-81554030D01*
X53267043Y-81549511D01*
X53284591Y-81541764D01*
X53335952Y-81535805D01*
X53340000Y-81535000D01*
X54590000Y-81535000D01*
X54594047Y-81535805D01*
G37*
G36*
X87050000Y-80680000D02*
G01*
X82550000Y-80680000D01*
X82550000Y-76180000D01*
X87050000Y-76180000D01*
X87050000Y-80680000D01*
G37*
G36*
X54594047Y-78435805D02*
G01*
X54645408Y-78441764D01*
X54662954Y-78449511D01*
X54685671Y-78454030D01*
X54709991Y-78470280D01*
X54730793Y-78479465D01*
X54745000Y-78493672D01*
X54766777Y-78508223D01*
X54781327Y-78529999D01*
X54795534Y-78544206D01*
X54804718Y-78565006D01*
X54820970Y-78589329D01*
X54825489Y-78612048D01*
X54833235Y-78629591D01*
X54839192Y-78680940D01*
X54840000Y-78685000D01*
X54840000Y-79485000D01*
X54839192Y-79489059D01*
X54833235Y-79540408D01*
X54825489Y-79557950D01*
X54820970Y-79580671D01*
X54804716Y-79604995D01*
X54795534Y-79625793D01*
X54781329Y-79639997D01*
X54766777Y-79661777D01*
X54744997Y-79676329D01*
X54730793Y-79690534D01*
X54709995Y-79699716D01*
X54685671Y-79715970D01*
X54662950Y-79720489D01*
X54645408Y-79728235D01*
X54594061Y-79734192D01*
X54590000Y-79735000D01*
X53340000Y-79735000D01*
X53335941Y-79734192D01*
X53284591Y-79728235D01*
X53267048Y-79720489D01*
X53244329Y-79715970D01*
X53220006Y-79699718D01*
X53199206Y-79690534D01*
X53184999Y-79676327D01*
X53163223Y-79661777D01*
X53148672Y-79640000D01*
X53134465Y-79625793D01*
X53125280Y-79604991D01*
X53109030Y-79580671D01*
X53104511Y-79557954D01*
X53096764Y-79540408D01*
X53090805Y-79489049D01*
X53090000Y-79485000D01*
X53090000Y-78685000D01*
X53090804Y-78680953D01*
X53096764Y-78629591D01*
X53104511Y-78612043D01*
X53109030Y-78589329D01*
X53125278Y-78565010D01*
X53134465Y-78544206D01*
X53148674Y-78529996D01*
X53163223Y-78508223D01*
X53184996Y-78493674D01*
X53199206Y-78479465D01*
X53220010Y-78470278D01*
X53244329Y-78454030D01*
X53267043Y-78449511D01*
X53284591Y-78441764D01*
X53335952Y-78435805D01*
X53340000Y-78435000D01*
X54590000Y-78435000D01*
X54594047Y-78435805D01*
G37*
G36*
X97173513Y-73374208D02*
G01*
X97412293Y-73451793D01*
X97635998Y-73565776D01*
X97839117Y-73713350D01*
X98016650Y-73890883D01*
X98164224Y-74094002D01*
X98278207Y-74317707D01*
X98355792Y-74556487D01*
X98395068Y-74804465D01*
X98395068Y-75055535D01*
X98355792Y-75303513D01*
X98278207Y-75542293D01*
X98164224Y-75765998D01*
X98016650Y-75969117D01*
X97839117Y-76146650D01*
X97635998Y-76294224D01*
X97412293Y-76408207D01*
X97173513Y-76485792D01*
X96925535Y-76525068D01*
X96674465Y-76525068D01*
X96426487Y-76485792D01*
X96187707Y-76408207D01*
X95964002Y-76294224D01*
X95760883Y-76146650D01*
X95583350Y-75969117D01*
X95435776Y-75765998D01*
X95321793Y-75542293D01*
X95244208Y-75303513D01*
X95204932Y-75055535D01*
X95204932Y-74804465D01*
X95244208Y-74556487D01*
X95321793Y-74317707D01*
X95435776Y-74094002D01*
X95583350Y-73890883D01*
X95760883Y-73713350D01*
X95964002Y-73565776D01*
X96187707Y-73451793D01*
X96426487Y-73374208D01*
X96674465Y-73334932D01*
X96925535Y-73334932D01*
X97173513Y-73374208D01*
G37*
G36*
X48249047Y-74710805D02*
G01*
X48300408Y-74716764D01*
X48317954Y-74724511D01*
X48340671Y-74729030D01*
X48364991Y-74745280D01*
X48385793Y-74754465D01*
X48400000Y-74768672D01*
X48421777Y-74783223D01*
X48436327Y-74804999D01*
X48450534Y-74819206D01*
X48459718Y-74840006D01*
X48475970Y-74864329D01*
X48480489Y-74887048D01*
X48488235Y-74904591D01*
X48494192Y-74955940D01*
X48495000Y-74960000D01*
X48495000Y-76210000D01*
X48494192Y-76214059D01*
X48488235Y-76265408D01*
X48480489Y-76282950D01*
X48475970Y-76305671D01*
X48459716Y-76329995D01*
X48450534Y-76350793D01*
X48436329Y-76364997D01*
X48421777Y-76386777D01*
X48399997Y-76401329D01*
X48385793Y-76415534D01*
X48364995Y-76424716D01*
X48340671Y-76440970D01*
X48317950Y-76445489D01*
X48300408Y-76453235D01*
X48249061Y-76459192D01*
X48245000Y-76460000D01*
X47445000Y-76460000D01*
X47440941Y-76459192D01*
X47389591Y-76453235D01*
X47372048Y-76445489D01*
X47349329Y-76440970D01*
X47325006Y-76424718D01*
X47304206Y-76415534D01*
X47289999Y-76401327D01*
X47268223Y-76386777D01*
X47253672Y-76365000D01*
X47239465Y-76350793D01*
X47230280Y-76329991D01*
X47214030Y-76305671D01*
X47209511Y-76282954D01*
X47201764Y-76265408D01*
X47195805Y-76214049D01*
X47195000Y-76210000D01*
X47195000Y-74960000D01*
X47195804Y-74955953D01*
X47201764Y-74904591D01*
X47209511Y-74887043D01*
X47214030Y-74864329D01*
X47230278Y-74840010D01*
X47239465Y-74819206D01*
X47253674Y-74804996D01*
X47268223Y-74783223D01*
X47289996Y-74768674D01*
X47304206Y-74754465D01*
X47325010Y-74745278D01*
X47349329Y-74729030D01*
X47372043Y-74724511D01*
X47389591Y-74716764D01*
X47440952Y-74710805D01*
X47445000Y-74710000D01*
X48245000Y-74710000D01*
X48249047Y-74710805D01*
G37*
G36*
X51349047Y-74710805D02*
G01*
X51400408Y-74716764D01*
X51417954Y-74724511D01*
X51440671Y-74729030D01*
X51464991Y-74745280D01*
X51485793Y-74754465D01*
X51500000Y-74768672D01*
X51521777Y-74783223D01*
X51536327Y-74804999D01*
X51550534Y-74819206D01*
X51559718Y-74840006D01*
X51575970Y-74864329D01*
X51580489Y-74887048D01*
X51588235Y-74904591D01*
X51594192Y-74955940D01*
X51595000Y-74960000D01*
X51595000Y-76210000D01*
X51594192Y-76214059D01*
X51588235Y-76265408D01*
X51580489Y-76282950D01*
X51575970Y-76305671D01*
X51559716Y-76329995D01*
X51550534Y-76350793D01*
X51536329Y-76364997D01*
X51521777Y-76386777D01*
X51499997Y-76401329D01*
X51485793Y-76415534D01*
X51464995Y-76424716D01*
X51440671Y-76440970D01*
X51417950Y-76445489D01*
X51400408Y-76453235D01*
X51349061Y-76459192D01*
X51345000Y-76460000D01*
X50545000Y-76460000D01*
X50540941Y-76459192D01*
X50489591Y-76453235D01*
X50472048Y-76445489D01*
X50449329Y-76440970D01*
X50425006Y-76424718D01*
X50404206Y-76415534D01*
X50389999Y-76401327D01*
X50368223Y-76386777D01*
X50353672Y-76365000D01*
X50339465Y-76350793D01*
X50330280Y-76329991D01*
X50314030Y-76305671D01*
X50309511Y-76282954D01*
X50301764Y-76265408D01*
X50295805Y-76214049D01*
X50295000Y-76210000D01*
X50295000Y-74960000D01*
X50295804Y-74955953D01*
X50301764Y-74904591D01*
X50309511Y-74887043D01*
X50314030Y-74864329D01*
X50330278Y-74840010D01*
X50339465Y-74819206D01*
X50353674Y-74804996D01*
X50368223Y-74783223D01*
X50389996Y-74768674D01*
X50404206Y-74754465D01*
X50425010Y-74745278D01*
X50449329Y-74729030D01*
X50472043Y-74724511D01*
X50489591Y-74716764D01*
X50540952Y-74710805D01*
X50545000Y-74710000D01*
X51345000Y-74710000D01*
X51349047Y-74710805D01*
G37*
G36*
X46829047Y-68615805D02*
G01*
X46880408Y-68621764D01*
X46897954Y-68629511D01*
X46920671Y-68634030D01*
X46944991Y-68650280D01*
X46965793Y-68659465D01*
X46980000Y-68673672D01*
X47001777Y-68688223D01*
X47016327Y-68709999D01*
X47030534Y-68724206D01*
X47039718Y-68745006D01*
X47055970Y-68769329D01*
X47060489Y-68792048D01*
X47068235Y-68809591D01*
X47074192Y-68860940D01*
X47075000Y-68865000D01*
X47075000Y-70115000D01*
X47074192Y-70119059D01*
X47068235Y-70170408D01*
X47060489Y-70187950D01*
X47055970Y-70210671D01*
X47039716Y-70234995D01*
X47030534Y-70255793D01*
X47016329Y-70269997D01*
X47001777Y-70291777D01*
X46979997Y-70306329D01*
X46965793Y-70320534D01*
X46944995Y-70329716D01*
X46920671Y-70345970D01*
X46897950Y-70350489D01*
X46880408Y-70358235D01*
X46829061Y-70364192D01*
X46825000Y-70365000D01*
X46025000Y-70365000D01*
X46020941Y-70364192D01*
X45969591Y-70358235D01*
X45952048Y-70350489D01*
X45929329Y-70345970D01*
X45905006Y-70329718D01*
X45884206Y-70320534D01*
X45869999Y-70306327D01*
X45848223Y-70291777D01*
X45833672Y-70270000D01*
X45819465Y-70255793D01*
X45810280Y-70234991D01*
X45794030Y-70210671D01*
X45789511Y-70187954D01*
X45781764Y-70170408D01*
X45775805Y-70119049D01*
X45775000Y-70115000D01*
X45775000Y-68865000D01*
X45775804Y-68860953D01*
X45781764Y-68809591D01*
X45789511Y-68792043D01*
X45794030Y-68769329D01*
X45810278Y-68745010D01*
X45819465Y-68724206D01*
X45833674Y-68709996D01*
X45848223Y-68688223D01*
X45869996Y-68673674D01*
X45884206Y-68659465D01*
X45905010Y-68650278D01*
X45929329Y-68634030D01*
X45952043Y-68629511D01*
X45969591Y-68621764D01*
X46020952Y-68615805D01*
X46025000Y-68615000D01*
X46825000Y-68615000D01*
X46829047Y-68615805D01*
G37*
G36*
X49929047Y-68615805D02*
G01*
X49980408Y-68621764D01*
X49997954Y-68629511D01*
X50020671Y-68634030D01*
X50044991Y-68650280D01*
X50065793Y-68659465D01*
X50080000Y-68673672D01*
X50101777Y-68688223D01*
X50116327Y-68709999D01*
X50130534Y-68724206D01*
X50139718Y-68745006D01*
X50155970Y-68769329D01*
X50160489Y-68792048D01*
X50168235Y-68809591D01*
X50174192Y-68860940D01*
X50175000Y-68865000D01*
X50175000Y-70115000D01*
X50174192Y-70119059D01*
X50168235Y-70170408D01*
X50160489Y-70187950D01*
X50155970Y-70210671D01*
X50139716Y-70234995D01*
X50130534Y-70255793D01*
X50116329Y-70269997D01*
X50101777Y-70291777D01*
X50079997Y-70306329D01*
X50065793Y-70320534D01*
X50044995Y-70329716D01*
X50020671Y-70345970D01*
X49997950Y-70350489D01*
X49980408Y-70358235D01*
X49929061Y-70364192D01*
X49925000Y-70365000D01*
X49125000Y-70365000D01*
X49120941Y-70364192D01*
X49069591Y-70358235D01*
X49052048Y-70350489D01*
X49029329Y-70345970D01*
X49005006Y-70329718D01*
X48984206Y-70320534D01*
X48969999Y-70306327D01*
X48948223Y-70291777D01*
X48933672Y-70270000D01*
X48919465Y-70255793D01*
X48910280Y-70234991D01*
X48894030Y-70210671D01*
X48889511Y-70187954D01*
X48881764Y-70170408D01*
X48875805Y-70119049D01*
X48875000Y-70115000D01*
X48875000Y-68865000D01*
X48875804Y-68860953D01*
X48881764Y-68809591D01*
X48889511Y-68792043D01*
X48894030Y-68769329D01*
X48910278Y-68745010D01*
X48919465Y-68724206D01*
X48933674Y-68709996D01*
X48948223Y-68688223D01*
X48969996Y-68673674D01*
X48984206Y-68659465D01*
X49005010Y-68650278D01*
X49029329Y-68634030D01*
X49052043Y-68629511D01*
X49069591Y-68621764D01*
X49120952Y-68615805D01*
X49125000Y-68615000D01*
X49925000Y-68615000D01*
X49929047Y-68615805D01*
G37*
G36*
X53654047Y-68590805D02*
G01*
X53705408Y-68596764D01*
X53722954Y-68604511D01*
X53745671Y-68609030D01*
X53769991Y-68625280D01*
X53790793Y-68634465D01*
X53805000Y-68648672D01*
X53826777Y-68663223D01*
X53841327Y-68684999D01*
X53855534Y-68699206D01*
X53864718Y-68720006D01*
X53880970Y-68744329D01*
X53885489Y-68767048D01*
X53893235Y-68784591D01*
X53899192Y-68835940D01*
X53900000Y-68840000D01*
X53900000Y-69640000D01*
X53899192Y-69644059D01*
X53893235Y-69695408D01*
X53885489Y-69712950D01*
X53880970Y-69735671D01*
X53864716Y-69759995D01*
X53855534Y-69780793D01*
X53841329Y-69794997D01*
X53826777Y-69816777D01*
X53804997Y-69831329D01*
X53790793Y-69845534D01*
X53769995Y-69854716D01*
X53745671Y-69870970D01*
X53722950Y-69875489D01*
X53705408Y-69883235D01*
X53654061Y-69889192D01*
X53650000Y-69890000D01*
X52400000Y-69890000D01*
X52395941Y-69889192D01*
X52344591Y-69883235D01*
X52327048Y-69875489D01*
X52304329Y-69870970D01*
X52280006Y-69854718D01*
X52259206Y-69845534D01*
X52244999Y-69831327D01*
X52223223Y-69816777D01*
X52208672Y-69795000D01*
X52194465Y-69780793D01*
X52185280Y-69759991D01*
X52169030Y-69735671D01*
X52164511Y-69712954D01*
X52156764Y-69695408D01*
X52150805Y-69644049D01*
X52150000Y-69640000D01*
X52150000Y-68840000D01*
X52150804Y-68835953D01*
X52156764Y-68784591D01*
X52164511Y-68767043D01*
X52169030Y-68744329D01*
X52185278Y-68720010D01*
X52194465Y-68699206D01*
X52208674Y-68684996D01*
X52223223Y-68663223D01*
X52244996Y-68648674D01*
X52259206Y-68634465D01*
X52280010Y-68625278D01*
X52304329Y-68609030D01*
X52327043Y-68604511D01*
X52344591Y-68596764D01*
X52395952Y-68590805D01*
X52400000Y-68590000D01*
X53650000Y-68590000D01*
X53654047Y-68590805D01*
G37*
G36*
X90574047Y-68223805D02*
G01*
X90625408Y-68229764D01*
X90642954Y-68237511D01*
X90665671Y-68242030D01*
X90689991Y-68258280D01*
X90710793Y-68267465D01*
X90725000Y-68281672D01*
X90746777Y-68296223D01*
X90761327Y-68317999D01*
X90775534Y-68332206D01*
X90784718Y-68353006D01*
X90800970Y-68377329D01*
X90805489Y-68400048D01*
X90813235Y-68417591D01*
X90819192Y-68468940D01*
X90820000Y-68473000D01*
X90820000Y-69298000D01*
X90819192Y-69302059D01*
X90813235Y-69353408D01*
X90805489Y-69370950D01*
X90800970Y-69393671D01*
X90784716Y-69417995D01*
X90775534Y-69438793D01*
X90761329Y-69452997D01*
X90746777Y-69474777D01*
X90724997Y-69489329D01*
X90710793Y-69503534D01*
X90689995Y-69512716D01*
X90665671Y-69528970D01*
X90642950Y-69533489D01*
X90625408Y-69541235D01*
X90574061Y-69547192D01*
X90570000Y-69548000D01*
X89270000Y-69548000D01*
X89265941Y-69547192D01*
X89214591Y-69541235D01*
X89197048Y-69533489D01*
X89174329Y-69528970D01*
X89150006Y-69512718D01*
X89129206Y-69503534D01*
X89114999Y-69489327D01*
X89093223Y-69474777D01*
X89078672Y-69453000D01*
X89064465Y-69438793D01*
X89055280Y-69417991D01*
X89039030Y-69393671D01*
X89034511Y-69370954D01*
X89026764Y-69353408D01*
X89020805Y-69302049D01*
X89020000Y-69298000D01*
X89020000Y-68473000D01*
X89020804Y-68468953D01*
X89026764Y-68417591D01*
X89034511Y-68400043D01*
X89039030Y-68377329D01*
X89055278Y-68353010D01*
X89064465Y-68332206D01*
X89078674Y-68317996D01*
X89093223Y-68296223D01*
X89114996Y-68281674D01*
X89129206Y-68267465D01*
X89150010Y-68258278D01*
X89174329Y-68242030D01*
X89197043Y-68237511D01*
X89214591Y-68229764D01*
X89265952Y-68223805D01*
X89270000Y-68223000D01*
X90570000Y-68223000D01*
X90574047Y-68223805D01*
G37*
G36*
X86604047Y-66510805D02*
G01*
X86655408Y-66516764D01*
X86672954Y-66524511D01*
X86695671Y-66529030D01*
X86719991Y-66545280D01*
X86740793Y-66554465D01*
X86755000Y-66568672D01*
X86776777Y-66583223D01*
X86791327Y-66604999D01*
X86805534Y-66619206D01*
X86814718Y-66640006D01*
X86830970Y-66664329D01*
X86835489Y-66687048D01*
X86843235Y-66704591D01*
X86849192Y-66755940D01*
X86850000Y-66760000D01*
X86850000Y-67560000D01*
X86849192Y-67564059D01*
X86843235Y-67615408D01*
X86835489Y-67632950D01*
X86830970Y-67655671D01*
X86814716Y-67679995D01*
X86805534Y-67700793D01*
X86791329Y-67714997D01*
X86776777Y-67736777D01*
X86754997Y-67751329D01*
X86740793Y-67765534D01*
X86719995Y-67774716D01*
X86695671Y-67790970D01*
X86672950Y-67795489D01*
X86655408Y-67803235D01*
X86604061Y-67809192D01*
X86600000Y-67810000D01*
X85350000Y-67810000D01*
X85345941Y-67809192D01*
X85294591Y-67803235D01*
X85277048Y-67795489D01*
X85254329Y-67790970D01*
X85230006Y-67774718D01*
X85209206Y-67765534D01*
X85194999Y-67751327D01*
X85173223Y-67736777D01*
X85158672Y-67715000D01*
X85144465Y-67700793D01*
X85135280Y-67679991D01*
X85119030Y-67655671D01*
X85114511Y-67632954D01*
X85106764Y-67615408D01*
X85100805Y-67564049D01*
X85100000Y-67560000D01*
X85100000Y-66760000D01*
X85100804Y-66755953D01*
X85106764Y-66704591D01*
X85114511Y-66687043D01*
X85119030Y-66664329D01*
X85135278Y-66640010D01*
X85144465Y-66619206D01*
X85158674Y-66604996D01*
X85173223Y-66583223D01*
X85194996Y-66568674D01*
X85209206Y-66554465D01*
X85230010Y-66545278D01*
X85254329Y-66529030D01*
X85277043Y-66524511D01*
X85294591Y-66516764D01*
X85345952Y-66510805D01*
X85350000Y-66510000D01*
X86600000Y-66510000D01*
X86604047Y-66510805D01*
G37*
G36*
X93416742Y-65946601D02*
G01*
X93570687Y-66010367D01*
X93709234Y-66102941D01*
X93827059Y-66220766D01*
X93919633Y-66359313D01*
X93983399Y-66513258D01*
X94015907Y-66676685D01*
X94015907Y-66843315D01*
X93983399Y-67006742D01*
X93919633Y-67160687D01*
X93827059Y-67299234D01*
X93709234Y-67417059D01*
X93570687Y-67509633D01*
X93416742Y-67573399D01*
X93253315Y-67605907D01*
X93086685Y-67605907D01*
X92923258Y-67573399D01*
X92769313Y-67509633D01*
X92630766Y-67417059D01*
X92512941Y-67299234D01*
X92420367Y-67160687D01*
X92356601Y-67006742D01*
X92324093Y-66843315D01*
X92324093Y-66676685D01*
X92356601Y-66513258D01*
X92420367Y-66359313D01*
X92512941Y-66220766D01*
X92630766Y-66102941D01*
X92769313Y-66010367D01*
X92923258Y-65946601D01*
X93086685Y-65914093D01*
X93253315Y-65914093D01*
X93416742Y-65946601D01*
G37*
G36*
X95956742Y-65946601D02*
G01*
X96110687Y-66010367D01*
X96249234Y-66102941D01*
X96367059Y-66220766D01*
X96459633Y-66359313D01*
X96523399Y-66513258D01*
X96555907Y-66676685D01*
X96555907Y-66843315D01*
X96523399Y-67006742D01*
X96459633Y-67160687D01*
X96367059Y-67299234D01*
X96249234Y-67417059D01*
X96110687Y-67509633D01*
X95956742Y-67573399D01*
X95793315Y-67605907D01*
X95626685Y-67605907D01*
X95463258Y-67573399D01*
X95309313Y-67509633D01*
X95170766Y-67417059D01*
X95052941Y-67299234D01*
X94960367Y-67160687D01*
X94896601Y-67006742D01*
X94864093Y-66843315D01*
X94864093Y-66676685D01*
X94896601Y-66513258D01*
X94960367Y-66359313D01*
X95052941Y-66220766D01*
X95170766Y-66102941D01*
X95309313Y-66010367D01*
X95463258Y-65946601D01*
X95626685Y-65914093D01*
X95793315Y-65914093D01*
X95956742Y-65946601D01*
G37*
G36*
X63604047Y-66050805D02*
G01*
X63655408Y-66056764D01*
X63672954Y-66064511D01*
X63695671Y-66069030D01*
X63719991Y-66085280D01*
X63740793Y-66094465D01*
X63755000Y-66108672D01*
X63776777Y-66123223D01*
X63791327Y-66144999D01*
X63805534Y-66159206D01*
X63814718Y-66180006D01*
X63830970Y-66204329D01*
X63835489Y-66227048D01*
X63843235Y-66244591D01*
X63849192Y-66295940D01*
X63850000Y-66300000D01*
X63850000Y-67100000D01*
X63849192Y-67104059D01*
X63843235Y-67155408D01*
X63835489Y-67172950D01*
X63830970Y-67195671D01*
X63814716Y-67219995D01*
X63805534Y-67240793D01*
X63791329Y-67254997D01*
X63776777Y-67276777D01*
X63754997Y-67291329D01*
X63740793Y-67305534D01*
X63719995Y-67314716D01*
X63695671Y-67330970D01*
X63672950Y-67335489D01*
X63655408Y-67343235D01*
X63604061Y-67349192D01*
X63600000Y-67350000D01*
X62350000Y-67350000D01*
X62345941Y-67349192D01*
X62294591Y-67343235D01*
X62277048Y-67335489D01*
X62254329Y-67330970D01*
X62230006Y-67314718D01*
X62209206Y-67305534D01*
X62194999Y-67291327D01*
X62173223Y-67276777D01*
X62158672Y-67255000D01*
X62144465Y-67240793D01*
X62135280Y-67219991D01*
X62119030Y-67195671D01*
X62114511Y-67172954D01*
X62106764Y-67155408D01*
X62100805Y-67104049D01*
X62100000Y-67100000D01*
X62100000Y-66300000D01*
X62100804Y-66295953D01*
X62106764Y-66244591D01*
X62114511Y-66227043D01*
X62119030Y-66204329D01*
X62135278Y-66180010D01*
X62144465Y-66159206D01*
X62158674Y-66144996D01*
X62173223Y-66123223D01*
X62194996Y-66108674D01*
X62209206Y-66094465D01*
X62230010Y-66085278D01*
X62254329Y-66069030D01*
X62277043Y-66064511D01*
X62294591Y-66056764D01*
X62345952Y-66050805D01*
X62350000Y-66050000D01*
X63600000Y-66050000D01*
X63604047Y-66050805D01*
G37*
G36*
X53654047Y-65490805D02*
G01*
X53705408Y-65496764D01*
X53722954Y-65504511D01*
X53745671Y-65509030D01*
X53769991Y-65525280D01*
X53790793Y-65534465D01*
X53805000Y-65548672D01*
X53826777Y-65563223D01*
X53841327Y-65584999D01*
X53855534Y-65599206D01*
X53864718Y-65620006D01*
X53880970Y-65644329D01*
X53885489Y-65667048D01*
X53893235Y-65684591D01*
X53899192Y-65735940D01*
X53900000Y-65740000D01*
X53900000Y-66540000D01*
X53899192Y-66544059D01*
X53893235Y-66595408D01*
X53885489Y-66612950D01*
X53880970Y-66635671D01*
X53864716Y-66659995D01*
X53855534Y-66680793D01*
X53841329Y-66694997D01*
X53826777Y-66716777D01*
X53804997Y-66731329D01*
X53790793Y-66745534D01*
X53769995Y-66754716D01*
X53745671Y-66770970D01*
X53722950Y-66775489D01*
X53705408Y-66783235D01*
X53654061Y-66789192D01*
X53650000Y-66790000D01*
X52400000Y-66790000D01*
X52395941Y-66789192D01*
X52344591Y-66783235D01*
X52327048Y-66775489D01*
X52304329Y-66770970D01*
X52280006Y-66754718D01*
X52259206Y-66745534D01*
X52244999Y-66731327D01*
X52223223Y-66716777D01*
X52208672Y-66695000D01*
X52194465Y-66680793D01*
X52185280Y-66659991D01*
X52169030Y-66635671D01*
X52164511Y-66612954D01*
X52156764Y-66595408D01*
X52150805Y-66544049D01*
X52150000Y-66540000D01*
X52150000Y-65740000D01*
X52150804Y-65735953D01*
X52156764Y-65684591D01*
X52164511Y-65667043D01*
X52169030Y-65644329D01*
X52185278Y-65620010D01*
X52194465Y-65599206D01*
X52208674Y-65584996D01*
X52223223Y-65563223D01*
X52244996Y-65548674D01*
X52259206Y-65534465D01*
X52280010Y-65525278D01*
X52304329Y-65509030D01*
X52327043Y-65504511D01*
X52344591Y-65496764D01*
X52395952Y-65490805D01*
X52400000Y-65490000D01*
X53650000Y-65490000D01*
X53654047Y-65490805D01*
G37*
G36*
X90574047Y-65098805D02*
G01*
X90625408Y-65104764D01*
X90642954Y-65112511D01*
X90665671Y-65117030D01*
X90689991Y-65133280D01*
X90710793Y-65142465D01*
X90725000Y-65156672D01*
X90746777Y-65171223D01*
X90761327Y-65192999D01*
X90775534Y-65207206D01*
X90784718Y-65228006D01*
X90800970Y-65252329D01*
X90805489Y-65275048D01*
X90813235Y-65292591D01*
X90819192Y-65343940D01*
X90820000Y-65348000D01*
X90820000Y-66173000D01*
X90819192Y-66177059D01*
X90813235Y-66228408D01*
X90805489Y-66245950D01*
X90800970Y-66268671D01*
X90784716Y-66292995D01*
X90775534Y-66313793D01*
X90761329Y-66327997D01*
X90746777Y-66349777D01*
X90724997Y-66364329D01*
X90710793Y-66378534D01*
X90689995Y-66387716D01*
X90665671Y-66403970D01*
X90642950Y-66408489D01*
X90625408Y-66416235D01*
X90574061Y-66422192D01*
X90570000Y-66423000D01*
X89270000Y-66423000D01*
X89265941Y-66422192D01*
X89214591Y-66416235D01*
X89197048Y-66408489D01*
X89174329Y-66403970D01*
X89150006Y-66387718D01*
X89129206Y-66378534D01*
X89114999Y-66364327D01*
X89093223Y-66349777D01*
X89078672Y-66328000D01*
X89064465Y-66313793D01*
X89055280Y-66292991D01*
X89039030Y-66268671D01*
X89034511Y-66245954D01*
X89026764Y-66228408D01*
X89020805Y-66177049D01*
X89020000Y-66173000D01*
X89020000Y-65348000D01*
X89020804Y-65343953D01*
X89026764Y-65292591D01*
X89034511Y-65275043D01*
X89039030Y-65252329D01*
X89055278Y-65228010D01*
X89064465Y-65207206D01*
X89078674Y-65192996D01*
X89093223Y-65171223D01*
X89114996Y-65156674D01*
X89129206Y-65142465D01*
X89150010Y-65133278D01*
X89174329Y-65117030D01*
X89197043Y-65112511D01*
X89214591Y-65104764D01*
X89265952Y-65098805D01*
X89270000Y-65098000D01*
X90570000Y-65098000D01*
X90574047Y-65098805D01*
G37*
G36*
X93416742Y-63406601D02*
G01*
X93570687Y-63470367D01*
X93709234Y-63562941D01*
X93827059Y-63680766D01*
X93919633Y-63819313D01*
X93983399Y-63973258D01*
X94015907Y-64136685D01*
X94015907Y-64303315D01*
X93983399Y-64466742D01*
X93919633Y-64620687D01*
X93827059Y-64759234D01*
X93709234Y-64877059D01*
X93570687Y-64969633D01*
X93416742Y-65033399D01*
X93253315Y-65065907D01*
X93086685Y-65065907D01*
X92923258Y-65033399D01*
X92769313Y-64969633D01*
X92630766Y-64877059D01*
X92512941Y-64759234D01*
X92420367Y-64620687D01*
X92356601Y-64466742D01*
X92324093Y-64303315D01*
X92324093Y-64136685D01*
X92356601Y-63973258D01*
X92420367Y-63819313D01*
X92512941Y-63680766D01*
X92630766Y-63562941D01*
X92769313Y-63470367D01*
X92923258Y-63406601D01*
X93086685Y-63374093D01*
X93253315Y-63374093D01*
X93416742Y-63406601D01*
G37*
G36*
X95956742Y-63406601D02*
G01*
X96110687Y-63470367D01*
X96249234Y-63562941D01*
X96367059Y-63680766D01*
X96459633Y-63819313D01*
X96523399Y-63973258D01*
X96555907Y-64136685D01*
X96555907Y-64303315D01*
X96523399Y-64466742D01*
X96459633Y-64620687D01*
X96367059Y-64759234D01*
X96249234Y-64877059D01*
X96110687Y-64969633D01*
X95956742Y-65033399D01*
X95793315Y-65065907D01*
X95626685Y-65065907D01*
X95463258Y-65033399D01*
X95309313Y-64969633D01*
X95170766Y-64877059D01*
X95052941Y-64759234D01*
X94960367Y-64620687D01*
X94896601Y-64466742D01*
X94864093Y-64303315D01*
X94864093Y-64136685D01*
X94896601Y-63973258D01*
X94960367Y-63819313D01*
X95052941Y-63680766D01*
X95170766Y-63562941D01*
X95309313Y-63470367D01*
X95463258Y-63406601D01*
X95626685Y-63374093D01*
X95793315Y-63374093D01*
X95956742Y-63406601D01*
G37*
G36*
X86604047Y-63410805D02*
G01*
X86655408Y-63416764D01*
X86672954Y-63424511D01*
X86695671Y-63429030D01*
X86719991Y-63445280D01*
X86740793Y-63454465D01*
X86755000Y-63468672D01*
X86776777Y-63483223D01*
X86791327Y-63504999D01*
X86805534Y-63519206D01*
X86814718Y-63540006D01*
X86830970Y-63564329D01*
X86835489Y-63587048D01*
X86843235Y-63604591D01*
X86849192Y-63655940D01*
X86850000Y-63660000D01*
X86850000Y-64460000D01*
X86849192Y-64464059D01*
X86843235Y-64515408D01*
X86835489Y-64532950D01*
X86830970Y-64555671D01*
X86814716Y-64579995D01*
X86805534Y-64600793D01*
X86791329Y-64614997D01*
X86776777Y-64636777D01*
X86754997Y-64651329D01*
X86740793Y-64665534D01*
X86719995Y-64674716D01*
X86695671Y-64690970D01*
X86672950Y-64695489D01*
X86655408Y-64703235D01*
X86604061Y-64709192D01*
X86600000Y-64710000D01*
X85350000Y-64710000D01*
X85345941Y-64709192D01*
X85294591Y-64703235D01*
X85277048Y-64695489D01*
X85254329Y-64690970D01*
X85230006Y-64674718D01*
X85209206Y-64665534D01*
X85194999Y-64651327D01*
X85173223Y-64636777D01*
X85158672Y-64615000D01*
X85144465Y-64600793D01*
X85135280Y-64579991D01*
X85119030Y-64555671D01*
X85114511Y-64532954D01*
X85106764Y-64515408D01*
X85100805Y-64464049D01*
X85100000Y-64460000D01*
X85100000Y-63660000D01*
X85100804Y-63655953D01*
X85106764Y-63604591D01*
X85114511Y-63587043D01*
X85119030Y-63564329D01*
X85135278Y-63540010D01*
X85144465Y-63519206D01*
X85158674Y-63504996D01*
X85173223Y-63483223D01*
X85194996Y-63468674D01*
X85209206Y-63454465D01*
X85230010Y-63445278D01*
X85254329Y-63429030D01*
X85277043Y-63424511D01*
X85294591Y-63416764D01*
X85345952Y-63410805D01*
X85350000Y-63410000D01*
X86600000Y-63410000D01*
X86604047Y-63410805D01*
G37*
G36*
X63604047Y-62950805D02*
G01*
X63655408Y-62956764D01*
X63672954Y-62964511D01*
X63695671Y-62969030D01*
X63719991Y-62985280D01*
X63740793Y-62994465D01*
X63755000Y-63008672D01*
X63776777Y-63023223D01*
X63791327Y-63044999D01*
X63805534Y-63059206D01*
X63814718Y-63080006D01*
X63830970Y-63104329D01*
X63835489Y-63127048D01*
X63843235Y-63144591D01*
X63849192Y-63195940D01*
X63850000Y-63200000D01*
X63850000Y-64000000D01*
X63849192Y-64004059D01*
X63843235Y-64055408D01*
X63835489Y-64072950D01*
X63830970Y-64095671D01*
X63814716Y-64119995D01*
X63805534Y-64140793D01*
X63791329Y-64154997D01*
X63776777Y-64176777D01*
X63754997Y-64191329D01*
X63740793Y-64205534D01*
X63719995Y-64214716D01*
X63695671Y-64230970D01*
X63672950Y-64235489D01*
X63655408Y-64243235D01*
X63604061Y-64249192D01*
X63600000Y-64250000D01*
X62350000Y-64250000D01*
X62345941Y-64249192D01*
X62294591Y-64243235D01*
X62277048Y-64235489D01*
X62254329Y-64230970D01*
X62230006Y-64214718D01*
X62209206Y-64205534D01*
X62194999Y-64191327D01*
X62173223Y-64176777D01*
X62158672Y-64155000D01*
X62144465Y-64140793D01*
X62135280Y-64119991D01*
X62119030Y-64095671D01*
X62114511Y-64072954D01*
X62106764Y-64055408D01*
X62100805Y-64004049D01*
X62100000Y-64000000D01*
X62100000Y-63200000D01*
X62100804Y-63195953D01*
X62106764Y-63144591D01*
X62114511Y-63127043D01*
X62119030Y-63104329D01*
X62135278Y-63080010D01*
X62144465Y-63059206D01*
X62158674Y-63044996D01*
X62173223Y-63023223D01*
X62194996Y-63008674D01*
X62209206Y-62994465D01*
X62230010Y-62985278D01*
X62254329Y-62969030D01*
X62277043Y-62964511D01*
X62294591Y-62956764D01*
X62345952Y-62950805D01*
X62350000Y-62950000D01*
X63600000Y-62950000D01*
X63604047Y-62950805D01*
G37*
G36*
X73579047Y-61455805D02*
G01*
X73630408Y-61461764D01*
X73647954Y-61469511D01*
X73670671Y-61474030D01*
X73694991Y-61490280D01*
X73715793Y-61499465D01*
X73730000Y-61513672D01*
X73751777Y-61528223D01*
X73766327Y-61549999D01*
X73780534Y-61564206D01*
X73789718Y-61585006D01*
X73805970Y-61609329D01*
X73810489Y-61632048D01*
X73818235Y-61649591D01*
X73824192Y-61700940D01*
X73825000Y-61705000D01*
X73825000Y-62955000D01*
X73824192Y-62959059D01*
X73818235Y-63010408D01*
X73810489Y-63027950D01*
X73805970Y-63050671D01*
X73789716Y-63074995D01*
X73780534Y-63095793D01*
X73766329Y-63109997D01*
X73751777Y-63131777D01*
X73729997Y-63146329D01*
X73715793Y-63160534D01*
X73694995Y-63169716D01*
X73670671Y-63185970D01*
X73647950Y-63190489D01*
X73630408Y-63198235D01*
X73579061Y-63204192D01*
X73575000Y-63205000D01*
X72775000Y-63205000D01*
X72770941Y-63204192D01*
X72719591Y-63198235D01*
X72702048Y-63190489D01*
X72679329Y-63185970D01*
X72655006Y-63169718D01*
X72634206Y-63160534D01*
X72619999Y-63146327D01*
X72598223Y-63131777D01*
X72583672Y-63110000D01*
X72569465Y-63095793D01*
X72560280Y-63074991D01*
X72544030Y-63050671D01*
X72539511Y-63027954D01*
X72531764Y-63010408D01*
X72525805Y-62959049D01*
X72525000Y-62955000D01*
X72525000Y-61705000D01*
X72525804Y-61700953D01*
X72531764Y-61649591D01*
X72539511Y-61632043D01*
X72544030Y-61609329D01*
X72560278Y-61585010D01*
X72569465Y-61564206D01*
X72583674Y-61549996D01*
X72598223Y-61528223D01*
X72619996Y-61513674D01*
X72634206Y-61499465D01*
X72655010Y-61490278D01*
X72679329Y-61474030D01*
X72702043Y-61469511D01*
X72719591Y-61461764D01*
X72770952Y-61455805D01*
X72775000Y-61455000D01*
X73575000Y-61455000D01*
X73579047Y-61455805D01*
G37*
G36*
X76679047Y-61455805D02*
G01*
X76730408Y-61461764D01*
X76747954Y-61469511D01*
X76770671Y-61474030D01*
X76794991Y-61490280D01*
X76815793Y-61499465D01*
X76830000Y-61513672D01*
X76851777Y-61528223D01*
X76866327Y-61549999D01*
X76880534Y-61564206D01*
X76889718Y-61585006D01*
X76905970Y-61609329D01*
X76910489Y-61632048D01*
X76918235Y-61649591D01*
X76924192Y-61700940D01*
X76925000Y-61705000D01*
X76925000Y-62955000D01*
X76924192Y-62959059D01*
X76918235Y-63010408D01*
X76910489Y-63027950D01*
X76905970Y-63050671D01*
X76889716Y-63074995D01*
X76880534Y-63095793D01*
X76866329Y-63109997D01*
X76851777Y-63131777D01*
X76829997Y-63146329D01*
X76815793Y-63160534D01*
X76794995Y-63169716D01*
X76770671Y-63185970D01*
X76747950Y-63190489D01*
X76730408Y-63198235D01*
X76679061Y-63204192D01*
X76675000Y-63205000D01*
X75875000Y-63205000D01*
X75870941Y-63204192D01*
X75819591Y-63198235D01*
X75802048Y-63190489D01*
X75779329Y-63185970D01*
X75755006Y-63169718D01*
X75734206Y-63160534D01*
X75719999Y-63146327D01*
X75698223Y-63131777D01*
X75683672Y-63110000D01*
X75669465Y-63095793D01*
X75660280Y-63074991D01*
X75644030Y-63050671D01*
X75639511Y-63027954D01*
X75631764Y-63010408D01*
X75625805Y-62959049D01*
X75625000Y-62955000D01*
X75625000Y-61705000D01*
X75625804Y-61700953D01*
X75631764Y-61649591D01*
X75639511Y-61632043D01*
X75644030Y-61609329D01*
X75660278Y-61585010D01*
X75669465Y-61564206D01*
X75683674Y-61549996D01*
X75698223Y-61528223D01*
X75719996Y-61513674D01*
X75734206Y-61499465D01*
X75755010Y-61490278D01*
X75779329Y-61474030D01*
X75802043Y-61469511D01*
X75819591Y-61461764D01*
X75870952Y-61455805D01*
X75875000Y-61455000D01*
X76675000Y-61455000D01*
X76679047Y-61455805D01*
G37*
G36*
X90589047Y-61610805D02*
G01*
X90640408Y-61616764D01*
X90657954Y-61624511D01*
X90680671Y-61629030D01*
X90704991Y-61645280D01*
X90725793Y-61654465D01*
X90740000Y-61668672D01*
X90761777Y-61683223D01*
X90776327Y-61704999D01*
X90790534Y-61719206D01*
X90799718Y-61740006D01*
X90815970Y-61764329D01*
X90820489Y-61787048D01*
X90828235Y-61804591D01*
X90834192Y-61855940D01*
X90835000Y-61860000D01*
X90835000Y-62660000D01*
X90834192Y-62664059D01*
X90828235Y-62715408D01*
X90820489Y-62732950D01*
X90815970Y-62755671D01*
X90799716Y-62779995D01*
X90790534Y-62800793D01*
X90776329Y-62814997D01*
X90761777Y-62836777D01*
X90739997Y-62851329D01*
X90725793Y-62865534D01*
X90704995Y-62874716D01*
X90680671Y-62890970D01*
X90657950Y-62895489D01*
X90640408Y-62903235D01*
X90589061Y-62909192D01*
X90585000Y-62910000D01*
X89335000Y-62910000D01*
X89330941Y-62909192D01*
X89279591Y-62903235D01*
X89262048Y-62895489D01*
X89239329Y-62890970D01*
X89215006Y-62874718D01*
X89194206Y-62865534D01*
X89179999Y-62851327D01*
X89158223Y-62836777D01*
X89143672Y-62815000D01*
X89129465Y-62800793D01*
X89120280Y-62779991D01*
X89104030Y-62755671D01*
X89099511Y-62732954D01*
X89091764Y-62715408D01*
X89085805Y-62664049D01*
X89085000Y-62660000D01*
X89085000Y-61860000D01*
X89085804Y-61855953D01*
X89091764Y-61804591D01*
X89099511Y-61787043D01*
X89104030Y-61764329D01*
X89120278Y-61740010D01*
X89129465Y-61719206D01*
X89143674Y-61704996D01*
X89158223Y-61683223D01*
X89179996Y-61668674D01*
X89194206Y-61654465D01*
X89215010Y-61645278D01*
X89239329Y-61629030D01*
X89262043Y-61624511D01*
X89279591Y-61616764D01*
X89330952Y-61610805D01*
X89335000Y-61610000D01*
X90585000Y-61610000D01*
X90589047Y-61610805D01*
G37*
G36*
X93416742Y-60866601D02*
G01*
X93570687Y-60930367D01*
X93709234Y-61022941D01*
X93827059Y-61140766D01*
X93919633Y-61279313D01*
X93983399Y-61433258D01*
X94015907Y-61596685D01*
X94015907Y-61763315D01*
X93983399Y-61926742D01*
X93919633Y-62080687D01*
X93827059Y-62219234D01*
X93709234Y-62337059D01*
X93570687Y-62429633D01*
X93416742Y-62493399D01*
X93253315Y-62525907D01*
X93086685Y-62525907D01*
X92923258Y-62493399D01*
X92769313Y-62429633D01*
X92630766Y-62337059D01*
X92512941Y-62219234D01*
X92420367Y-62080687D01*
X92356601Y-61926742D01*
X92324093Y-61763315D01*
X92324093Y-61596685D01*
X92356601Y-61433258D01*
X92420367Y-61279313D01*
X92512941Y-61140766D01*
X92630766Y-61022941D01*
X92769313Y-60930367D01*
X92923258Y-60866601D01*
X93086685Y-60834093D01*
X93253315Y-60834093D01*
X93416742Y-60866601D01*
G37*
G36*
X95956742Y-60866601D02*
G01*
X96110687Y-60930367D01*
X96249234Y-61022941D01*
X96367059Y-61140766D01*
X96459633Y-61279313D01*
X96523399Y-61433258D01*
X96555907Y-61596685D01*
X96555907Y-61763315D01*
X96523399Y-61926742D01*
X96459633Y-62080687D01*
X96367059Y-62219234D01*
X96249234Y-62337059D01*
X96110687Y-62429633D01*
X95956742Y-62493399D01*
X95793315Y-62525907D01*
X95626685Y-62525907D01*
X95463258Y-62493399D01*
X95309313Y-62429633D01*
X95170766Y-62337059D01*
X95052941Y-62219234D01*
X94960367Y-62080687D01*
X94896601Y-61926742D01*
X94864093Y-61763315D01*
X94864093Y-61596685D01*
X94896601Y-61433258D01*
X94960367Y-61279313D01*
X95052941Y-61140766D01*
X95170766Y-61022941D01*
X95309313Y-60930367D01*
X95463258Y-60866601D01*
X95626685Y-60834093D01*
X95793315Y-60834093D01*
X95956742Y-60866601D01*
G37*
G36*
X86604047Y-59950805D02*
G01*
X86655408Y-59956764D01*
X86672954Y-59964511D01*
X86695671Y-59969030D01*
X86719991Y-59985280D01*
X86740793Y-59994465D01*
X86755000Y-60008672D01*
X86776777Y-60023223D01*
X86791327Y-60044999D01*
X86805534Y-60059206D01*
X86814718Y-60080006D01*
X86830970Y-60104329D01*
X86835489Y-60127048D01*
X86843235Y-60144591D01*
X86849192Y-60195940D01*
X86850000Y-60200000D01*
X86850000Y-61000000D01*
X86849192Y-61004059D01*
X86843235Y-61055408D01*
X86835489Y-61072950D01*
X86830970Y-61095671D01*
X86814716Y-61119995D01*
X86805534Y-61140793D01*
X86791329Y-61154997D01*
X86776777Y-61176777D01*
X86754997Y-61191329D01*
X86740793Y-61205534D01*
X86719995Y-61214716D01*
X86695671Y-61230970D01*
X86672950Y-61235489D01*
X86655408Y-61243235D01*
X86604061Y-61249192D01*
X86600000Y-61250000D01*
X85350000Y-61250000D01*
X85345941Y-61249192D01*
X85294591Y-61243235D01*
X85277048Y-61235489D01*
X85254329Y-61230970D01*
X85230006Y-61214718D01*
X85209206Y-61205534D01*
X85194999Y-61191327D01*
X85173223Y-61176777D01*
X85158672Y-61155000D01*
X85144465Y-61140793D01*
X85135280Y-61119991D01*
X85119030Y-61095671D01*
X85114511Y-61072954D01*
X85106764Y-61055408D01*
X85100805Y-61004049D01*
X85100000Y-61000000D01*
X85100000Y-60200000D01*
X85100804Y-60195953D01*
X85106764Y-60144591D01*
X85114511Y-60127043D01*
X85119030Y-60104329D01*
X85135278Y-60080010D01*
X85144465Y-60059206D01*
X85158674Y-60044996D01*
X85173223Y-60023223D01*
X85194996Y-60008674D01*
X85209206Y-59994465D01*
X85230010Y-59985278D01*
X85254329Y-59969030D01*
X85277043Y-59964511D01*
X85294591Y-59956764D01*
X85345952Y-59950805D01*
X85350000Y-59950000D01*
X86600000Y-59950000D01*
X86604047Y-59950805D01*
G37*
G36*
X63654047Y-59680805D02*
G01*
X63705408Y-59686764D01*
X63722954Y-59694511D01*
X63745671Y-59699030D01*
X63769991Y-59715280D01*
X63790793Y-59724465D01*
X63805000Y-59738672D01*
X63826777Y-59753223D01*
X63841327Y-59774999D01*
X63855534Y-59789206D01*
X63864718Y-59810006D01*
X63880970Y-59834329D01*
X63885489Y-59857048D01*
X63893235Y-59874591D01*
X63899192Y-59925940D01*
X63900000Y-59930000D01*
X63900000Y-60730000D01*
X63899192Y-60734059D01*
X63893235Y-60785408D01*
X63885489Y-60802950D01*
X63880970Y-60825671D01*
X63864716Y-60849995D01*
X63855534Y-60870793D01*
X63841329Y-60884997D01*
X63826777Y-60906777D01*
X63804997Y-60921329D01*
X63790793Y-60935534D01*
X63769995Y-60944716D01*
X63745671Y-60960970D01*
X63722950Y-60965489D01*
X63705408Y-60973235D01*
X63654061Y-60979192D01*
X63650000Y-60980000D01*
X62400000Y-60980000D01*
X62395941Y-60979192D01*
X62344591Y-60973235D01*
X62327048Y-60965489D01*
X62304329Y-60960970D01*
X62280006Y-60944718D01*
X62259206Y-60935534D01*
X62244999Y-60921327D01*
X62223223Y-60906777D01*
X62208672Y-60885000D01*
X62194465Y-60870793D01*
X62185280Y-60849991D01*
X62169030Y-60825671D01*
X62164511Y-60802954D01*
X62156764Y-60785408D01*
X62150805Y-60734049D01*
X62150000Y-60730000D01*
X62150000Y-59930000D01*
X62150804Y-59925953D01*
X62156764Y-59874591D01*
X62164511Y-59857043D01*
X62169030Y-59834329D01*
X62185278Y-59810010D01*
X62194465Y-59789206D01*
X62208674Y-59774996D01*
X62223223Y-59753223D01*
X62244996Y-59738674D01*
X62259206Y-59724465D01*
X62280010Y-59715278D01*
X62304329Y-59699030D01*
X62327043Y-59694511D01*
X62344591Y-59686764D01*
X62395952Y-59680805D01*
X62400000Y-59680000D01*
X63650000Y-59680000D01*
X63654047Y-59680805D01*
G37*
G36*
X93774047Y-58290805D02*
G01*
X93825408Y-58296764D01*
X93842954Y-58304511D01*
X93865671Y-58309030D01*
X93889991Y-58325280D01*
X93910793Y-58334465D01*
X93925000Y-58348672D01*
X93946777Y-58363223D01*
X93961327Y-58384999D01*
X93975534Y-58399206D01*
X93984718Y-58420006D01*
X94000970Y-58444329D01*
X94005489Y-58467048D01*
X94013235Y-58484591D01*
X94019192Y-58535940D01*
X94020000Y-58540000D01*
X94020000Y-59740000D01*
X94019192Y-59744059D01*
X94013235Y-59795408D01*
X94005489Y-59812950D01*
X94000970Y-59835671D01*
X93984716Y-59859995D01*
X93975534Y-59880793D01*
X93961329Y-59894997D01*
X93946777Y-59916777D01*
X93924997Y-59931329D01*
X93910793Y-59945534D01*
X93889995Y-59954716D01*
X93865671Y-59970970D01*
X93842950Y-59975489D01*
X93825408Y-59983235D01*
X93774061Y-59989192D01*
X93770000Y-59990000D01*
X92570000Y-59990000D01*
X92565941Y-59989192D01*
X92514591Y-59983235D01*
X92497048Y-59975489D01*
X92474329Y-59970970D01*
X92450006Y-59954718D01*
X92429206Y-59945534D01*
X92414999Y-59931327D01*
X92393223Y-59916777D01*
X92378672Y-59895000D01*
X92364465Y-59880793D01*
X92355280Y-59859991D01*
X92339030Y-59835671D01*
X92334511Y-59812954D01*
X92326764Y-59795408D01*
X92320805Y-59744049D01*
X92320000Y-59740000D01*
X92320000Y-58540000D01*
X92320804Y-58535953D01*
X92326764Y-58484591D01*
X92334511Y-58467043D01*
X92339030Y-58444329D01*
X92355278Y-58420010D01*
X92364465Y-58399206D01*
X92378674Y-58384996D01*
X92393223Y-58363223D01*
X92414996Y-58348674D01*
X92429206Y-58334465D01*
X92450010Y-58325278D01*
X92474329Y-58309030D01*
X92497043Y-58304511D01*
X92514591Y-58296764D01*
X92565952Y-58290805D01*
X92570000Y-58290000D01*
X93770000Y-58290000D01*
X93774047Y-58290805D01*
G37*
G36*
X95956742Y-58326601D02*
G01*
X96110687Y-58390367D01*
X96249234Y-58482941D01*
X96367059Y-58600766D01*
X96459633Y-58739313D01*
X96523399Y-58893258D01*
X96555907Y-59056685D01*
X96555907Y-59223315D01*
X96523399Y-59386742D01*
X96459633Y-59540687D01*
X96367059Y-59679234D01*
X96249234Y-59797059D01*
X96110687Y-59889633D01*
X95956742Y-59953399D01*
X95793315Y-59985907D01*
X95626685Y-59985907D01*
X95463258Y-59953399D01*
X95309313Y-59889633D01*
X95170766Y-59797059D01*
X95052941Y-59679234D01*
X94960367Y-59540687D01*
X94896601Y-59386742D01*
X94864093Y-59223315D01*
X94864093Y-59056685D01*
X94896601Y-58893258D01*
X94960367Y-58739313D01*
X95052941Y-58600766D01*
X95170766Y-58482941D01*
X95309313Y-58390367D01*
X95463258Y-58326601D01*
X95626685Y-58294093D01*
X95793315Y-58294093D01*
X95956742Y-58326601D01*
G37*
G36*
X90589047Y-58510805D02*
G01*
X90640408Y-58516764D01*
X90657954Y-58524511D01*
X90680671Y-58529030D01*
X90704991Y-58545280D01*
X90725793Y-58554465D01*
X90740000Y-58568672D01*
X90761777Y-58583223D01*
X90776327Y-58604999D01*
X90790534Y-58619206D01*
X90799718Y-58640006D01*
X90815970Y-58664329D01*
X90820489Y-58687048D01*
X90828235Y-58704591D01*
X90834192Y-58755940D01*
X90835000Y-58760000D01*
X90835000Y-59560000D01*
X90834192Y-59564059D01*
X90828235Y-59615408D01*
X90820489Y-59632950D01*
X90815970Y-59655671D01*
X90799716Y-59679995D01*
X90790534Y-59700793D01*
X90776329Y-59714997D01*
X90761777Y-59736777D01*
X90739997Y-59751329D01*
X90725793Y-59765534D01*
X90704995Y-59774716D01*
X90680671Y-59790970D01*
X90657950Y-59795489D01*
X90640408Y-59803235D01*
X90589061Y-59809192D01*
X90585000Y-59810000D01*
X89335000Y-59810000D01*
X89330941Y-59809192D01*
X89279591Y-59803235D01*
X89262048Y-59795489D01*
X89239329Y-59790970D01*
X89215006Y-59774718D01*
X89194206Y-59765534D01*
X89179999Y-59751327D01*
X89158223Y-59736777D01*
X89143672Y-59715000D01*
X89129465Y-59700793D01*
X89120280Y-59679991D01*
X89104030Y-59655671D01*
X89099511Y-59632954D01*
X89091764Y-59615408D01*
X89085805Y-59564049D01*
X89085000Y-59560000D01*
X89085000Y-58760000D01*
X89085804Y-58755953D01*
X89091764Y-58704591D01*
X89099511Y-58687043D01*
X89104030Y-58664329D01*
X89120278Y-58640010D01*
X89129465Y-58619206D01*
X89143674Y-58604996D01*
X89158223Y-58583223D01*
X89179996Y-58568674D01*
X89194206Y-58554465D01*
X89215010Y-58545278D01*
X89239329Y-58529030D01*
X89262043Y-58524511D01*
X89279591Y-58516764D01*
X89330952Y-58510805D01*
X89335000Y-58510000D01*
X90585000Y-58510000D01*
X90589047Y-58510805D01*
G37*
G36*
X20750000Y-58750000D02*
G01*
X19250000Y-58750000D01*
X19250000Y-57250000D01*
X20750000Y-57250000D01*
X20750000Y-58750000D01*
G37*
G36*
X22757714Y-57282295D02*
G01*
X22893548Y-57338559D01*
X23015795Y-57420242D01*
X23119758Y-57524205D01*
X23201441Y-57646452D01*
X23257705Y-57782286D01*
X23286389Y-57926487D01*
X23286389Y-58073513D01*
X23257705Y-58217714D01*
X23201441Y-58353548D01*
X23119758Y-58475795D01*
X23015795Y-58579758D01*
X22893548Y-58661441D01*
X22757714Y-58717705D01*
X22613513Y-58746389D01*
X22466487Y-58746389D01*
X22322286Y-58717705D01*
X22186452Y-58661441D01*
X22064205Y-58579758D01*
X21960242Y-58475795D01*
X21878559Y-58353548D01*
X21822295Y-58217714D01*
X21793611Y-58073513D01*
X21793611Y-57926487D01*
X21822295Y-57782286D01*
X21878559Y-57646452D01*
X21960242Y-57524205D01*
X22064205Y-57420242D01*
X22186452Y-57338559D01*
X22322286Y-57282295D01*
X22466487Y-57253611D01*
X22613513Y-57253611D01*
X22757714Y-57282295D01*
G37*
G36*
X25297714Y-57282295D02*
G01*
X25433548Y-57338559D01*
X25555795Y-57420242D01*
X25659758Y-57524205D01*
X25741441Y-57646452D01*
X25797705Y-57782286D01*
X25826389Y-57926487D01*
X25826389Y-58073513D01*
X25797705Y-58217714D01*
X25741441Y-58353548D01*
X25659758Y-58475795D01*
X25555795Y-58579758D01*
X25433548Y-58661441D01*
X25297714Y-58717705D01*
X25153513Y-58746389D01*
X25006487Y-58746389D01*
X24862286Y-58717705D01*
X24726452Y-58661441D01*
X24604205Y-58579758D01*
X24500242Y-58475795D01*
X24418559Y-58353548D01*
X24362295Y-58217714D01*
X24333611Y-58073513D01*
X24333611Y-57926487D01*
X24362295Y-57782286D01*
X24418559Y-57646452D01*
X24500242Y-57524205D01*
X24604205Y-57420242D01*
X24726452Y-57338559D01*
X24862286Y-57282295D01*
X25006487Y-57253611D01*
X25153513Y-57253611D01*
X25297714Y-57282295D01*
G37*
G36*
X79154047Y-57390805D02*
G01*
X79205408Y-57396764D01*
X79222954Y-57404511D01*
X79245671Y-57409030D01*
X79269991Y-57425280D01*
X79290793Y-57434465D01*
X79305000Y-57448672D01*
X79326777Y-57463223D01*
X79341327Y-57484999D01*
X79355534Y-57499206D01*
X79364718Y-57520006D01*
X79380970Y-57544329D01*
X79385489Y-57567048D01*
X79393235Y-57584591D01*
X79399192Y-57635940D01*
X79400000Y-57640000D01*
X79400000Y-58440000D01*
X79399192Y-58444059D01*
X79393235Y-58495408D01*
X79385489Y-58512950D01*
X79380970Y-58535671D01*
X79364716Y-58559995D01*
X79355534Y-58580793D01*
X79341329Y-58594997D01*
X79326777Y-58616777D01*
X79304997Y-58631329D01*
X79290793Y-58645534D01*
X79269995Y-58654716D01*
X79245671Y-58670970D01*
X79222950Y-58675489D01*
X79205408Y-58683235D01*
X79154061Y-58689192D01*
X79150000Y-58690000D01*
X77900000Y-58690000D01*
X77895941Y-58689192D01*
X77844591Y-58683235D01*
X77827048Y-58675489D01*
X77804329Y-58670970D01*
X77780006Y-58654718D01*
X77759206Y-58645534D01*
X77744999Y-58631327D01*
X77723223Y-58616777D01*
X77708672Y-58595000D01*
X77694465Y-58580793D01*
X77685280Y-58559991D01*
X77669030Y-58535671D01*
X77664511Y-58512954D01*
X77656764Y-58495408D01*
X77650805Y-58444049D01*
X77650000Y-58440000D01*
X77650000Y-57640000D01*
X77650804Y-57635953D01*
X77656764Y-57584591D01*
X77664511Y-57567043D01*
X77669030Y-57544329D01*
X77685278Y-57520010D01*
X77694465Y-57499206D01*
X77708674Y-57484996D01*
X77723223Y-57463223D01*
X77744996Y-57448674D01*
X77759206Y-57434465D01*
X77780010Y-57425278D01*
X77804329Y-57409030D01*
X77827043Y-57404511D01*
X77844591Y-57396764D01*
X77895952Y-57390805D01*
X77900000Y-57390000D01*
X79150000Y-57390000D01*
X79154047Y-57390805D01*
G37*
G36*
X86604047Y-56850805D02*
G01*
X86655408Y-56856764D01*
X86672954Y-56864511D01*
X86695671Y-56869030D01*
X86719991Y-56885280D01*
X86740793Y-56894465D01*
X86755000Y-56908672D01*
X86776777Y-56923223D01*
X86791327Y-56944999D01*
X86805534Y-56959206D01*
X86814718Y-56980006D01*
X86830970Y-57004329D01*
X86835489Y-57027048D01*
X86843235Y-57044591D01*
X86849192Y-57095940D01*
X86850000Y-57100000D01*
X86850000Y-57900000D01*
X86849192Y-57904059D01*
X86843235Y-57955408D01*
X86835489Y-57972950D01*
X86830970Y-57995671D01*
X86814716Y-58019995D01*
X86805534Y-58040793D01*
X86791329Y-58054997D01*
X86776777Y-58076777D01*
X86754997Y-58091329D01*
X86740793Y-58105534D01*
X86719995Y-58114716D01*
X86695671Y-58130970D01*
X86672950Y-58135489D01*
X86655408Y-58143235D01*
X86604061Y-58149192D01*
X86600000Y-58150000D01*
X85350000Y-58150000D01*
X85345941Y-58149192D01*
X85294591Y-58143235D01*
X85277048Y-58135489D01*
X85254329Y-58130970D01*
X85230006Y-58114718D01*
X85209206Y-58105534D01*
X85194999Y-58091327D01*
X85173223Y-58076777D01*
X85158672Y-58055000D01*
X85144465Y-58040793D01*
X85135280Y-58019991D01*
X85119030Y-57995671D01*
X85114511Y-57972954D01*
X85106764Y-57955408D01*
X85100805Y-57904049D01*
X85100000Y-57900000D01*
X85100000Y-57100000D01*
X85100804Y-57095953D01*
X85106764Y-57044591D01*
X85114511Y-57027043D01*
X85119030Y-57004329D01*
X85135278Y-56980010D01*
X85144465Y-56959206D01*
X85158674Y-56944996D01*
X85173223Y-56923223D01*
X85194996Y-56908674D01*
X85209206Y-56894465D01*
X85230010Y-56885278D01*
X85254329Y-56869030D01*
X85277043Y-56864511D01*
X85294591Y-56856764D01*
X85345952Y-56850805D01*
X85350000Y-56850000D01*
X86600000Y-56850000D01*
X86604047Y-56850805D01*
G37*
G36*
X63654047Y-56580805D02*
G01*
X63705408Y-56586764D01*
X63722954Y-56594511D01*
X63745671Y-56599030D01*
X63769991Y-56615280D01*
X63790793Y-56624465D01*
X63805000Y-56638672D01*
X63826777Y-56653223D01*
X63841327Y-56674999D01*
X63855534Y-56689206D01*
X63864718Y-56710006D01*
X63880970Y-56734329D01*
X63885489Y-56757048D01*
X63893235Y-56774591D01*
X63899192Y-56825940D01*
X63900000Y-56830000D01*
X63900000Y-57630000D01*
X63899192Y-57634059D01*
X63893235Y-57685408D01*
X63885489Y-57702950D01*
X63880970Y-57725671D01*
X63864716Y-57749995D01*
X63855534Y-57770793D01*
X63841329Y-57784997D01*
X63826777Y-57806777D01*
X63804997Y-57821329D01*
X63790793Y-57835534D01*
X63769995Y-57844716D01*
X63745671Y-57860970D01*
X63722950Y-57865489D01*
X63705408Y-57873235D01*
X63654061Y-57879192D01*
X63650000Y-57880000D01*
X62400000Y-57880000D01*
X62395941Y-57879192D01*
X62344591Y-57873235D01*
X62327048Y-57865489D01*
X62304329Y-57860970D01*
X62280006Y-57844718D01*
X62259206Y-57835534D01*
X62244999Y-57821327D01*
X62223223Y-57806777D01*
X62208672Y-57785000D01*
X62194465Y-57770793D01*
X62185280Y-57749991D01*
X62169030Y-57725671D01*
X62164511Y-57702954D01*
X62156764Y-57685408D01*
X62150805Y-57634049D01*
X62150000Y-57630000D01*
X62150000Y-56830000D01*
X62150804Y-56825953D01*
X62156764Y-56774591D01*
X62164511Y-56757043D01*
X62169030Y-56734329D01*
X62185278Y-56710010D01*
X62194465Y-56689206D01*
X62208674Y-56674996D01*
X62223223Y-56653223D01*
X62244996Y-56638674D01*
X62259206Y-56624465D01*
X62280010Y-56615278D01*
X62304329Y-56599030D01*
X62327043Y-56594511D01*
X62344591Y-56586764D01*
X62395952Y-56580805D01*
X62400000Y-56580000D01*
X63650000Y-56580000D01*
X63654047Y-56580805D01*
G37*
G36*
X41234047Y-54125805D02*
G01*
X41285408Y-54131764D01*
X41302954Y-54139511D01*
X41325671Y-54144030D01*
X41349991Y-54160280D01*
X41370793Y-54169465D01*
X41385000Y-54183672D01*
X41406777Y-54198223D01*
X41421327Y-54219999D01*
X41435534Y-54234206D01*
X41444718Y-54255006D01*
X41460970Y-54279329D01*
X41465489Y-54302048D01*
X41473235Y-54319591D01*
X41479192Y-54370940D01*
X41480000Y-54375000D01*
X41480000Y-55625000D01*
X41479192Y-55629059D01*
X41473235Y-55680408D01*
X41465489Y-55697950D01*
X41460970Y-55720671D01*
X41444716Y-55744995D01*
X41435534Y-55765793D01*
X41421329Y-55779997D01*
X41406777Y-55801777D01*
X41384997Y-55816329D01*
X41370793Y-55830534D01*
X41349995Y-55839716D01*
X41325671Y-55855970D01*
X41302950Y-55860489D01*
X41285408Y-55868235D01*
X41234061Y-55874192D01*
X41230000Y-55875000D01*
X40430000Y-55875000D01*
X40425941Y-55874192D01*
X40374591Y-55868235D01*
X40357048Y-55860489D01*
X40334329Y-55855970D01*
X40310006Y-55839718D01*
X40289206Y-55830534D01*
X40274999Y-55816327D01*
X40253223Y-55801777D01*
X40238672Y-55780000D01*
X40224465Y-55765793D01*
X40215280Y-55744991D01*
X40199030Y-55720671D01*
X40194511Y-55697954D01*
X40186764Y-55680408D01*
X40180805Y-55629049D01*
X40180000Y-55625000D01*
X40180000Y-54375000D01*
X40180804Y-54370953D01*
X40186764Y-54319591D01*
X40194511Y-54302043D01*
X40199030Y-54279329D01*
X40215278Y-54255010D01*
X40224465Y-54234206D01*
X40238674Y-54219996D01*
X40253223Y-54198223D01*
X40274996Y-54183674D01*
X40289206Y-54169465D01*
X40310010Y-54160278D01*
X40334329Y-54144030D01*
X40357043Y-54139511D01*
X40374591Y-54131764D01*
X40425952Y-54125805D01*
X40430000Y-54125000D01*
X41230000Y-54125000D01*
X41234047Y-54125805D01*
G37*
G36*
X44334047Y-54125805D02*
G01*
X44385408Y-54131764D01*
X44402954Y-54139511D01*
X44425671Y-54144030D01*
X44449991Y-54160280D01*
X44470793Y-54169465D01*
X44485000Y-54183672D01*
X44506777Y-54198223D01*
X44521327Y-54219999D01*
X44535534Y-54234206D01*
X44544718Y-54255006D01*
X44560970Y-54279329D01*
X44565489Y-54302048D01*
X44573235Y-54319591D01*
X44579192Y-54370940D01*
X44580000Y-54375000D01*
X44580000Y-55625000D01*
X44579192Y-55629059D01*
X44573235Y-55680408D01*
X44565489Y-55697950D01*
X44560970Y-55720671D01*
X44544716Y-55744995D01*
X44535534Y-55765793D01*
X44521329Y-55779997D01*
X44506777Y-55801777D01*
X44484997Y-55816329D01*
X44470793Y-55830534D01*
X44449995Y-55839716D01*
X44425671Y-55855970D01*
X44402950Y-55860489D01*
X44385408Y-55868235D01*
X44334061Y-55874192D01*
X44330000Y-55875000D01*
X43530000Y-55875000D01*
X43525941Y-55874192D01*
X43474591Y-55868235D01*
X43457048Y-55860489D01*
X43434329Y-55855970D01*
X43410006Y-55839718D01*
X43389206Y-55830534D01*
X43374999Y-55816327D01*
X43353223Y-55801777D01*
X43338672Y-55780000D01*
X43324465Y-55765793D01*
X43315280Y-55744991D01*
X43299030Y-55720671D01*
X43294511Y-55697954D01*
X43286764Y-55680408D01*
X43280805Y-55629049D01*
X43280000Y-55625000D01*
X43280000Y-54375000D01*
X43280804Y-54370953D01*
X43286764Y-54319591D01*
X43294511Y-54302043D01*
X43299030Y-54279329D01*
X43315278Y-54255010D01*
X43324465Y-54234206D01*
X43338674Y-54219996D01*
X43353223Y-54198223D01*
X43374996Y-54183674D01*
X43389206Y-54169465D01*
X43410010Y-54160278D01*
X43434329Y-54144030D01*
X43457043Y-54139511D01*
X43474591Y-54131764D01*
X43525952Y-54125805D01*
X43530000Y-54125000D01*
X44330000Y-54125000D01*
X44334047Y-54125805D01*
G37*
G36*
X33750000Y-55750000D02*
G01*
X32250000Y-55750000D01*
X32250000Y-54250000D01*
X33750000Y-54250000D01*
X33750000Y-55750000D01*
G37*
G36*
X35757714Y-54282295D02*
G01*
X35893548Y-54338559D01*
X36015795Y-54420242D01*
X36119758Y-54524205D01*
X36201441Y-54646452D01*
X36257705Y-54782286D01*
X36286389Y-54926487D01*
X36286389Y-55073513D01*
X36257705Y-55217714D01*
X36201441Y-55353548D01*
X36119758Y-55475795D01*
X36015795Y-55579758D01*
X35893548Y-55661441D01*
X35757714Y-55717705D01*
X35613513Y-55746389D01*
X35466487Y-55746389D01*
X35322286Y-55717705D01*
X35186452Y-55661441D01*
X35064205Y-55579758D01*
X34960242Y-55475795D01*
X34878559Y-55353548D01*
X34822295Y-55217714D01*
X34793611Y-55073513D01*
X34793611Y-54926487D01*
X34822295Y-54782286D01*
X34878559Y-54646452D01*
X34960242Y-54524205D01*
X35064205Y-54420242D01*
X35186452Y-54338559D01*
X35322286Y-54282295D01*
X35466487Y-54253611D01*
X35613513Y-54253611D01*
X35757714Y-54282295D01*
G37*
G36*
X38297714Y-54282295D02*
G01*
X38433548Y-54338559D01*
X38555795Y-54420242D01*
X38659758Y-54524205D01*
X38741441Y-54646452D01*
X38797705Y-54782286D01*
X38826389Y-54926487D01*
X38826389Y-55073513D01*
X38797705Y-55217714D01*
X38741441Y-55353548D01*
X38659758Y-55475795D01*
X38555795Y-55579758D01*
X38433548Y-55661441D01*
X38297714Y-55717705D01*
X38153513Y-55746389D01*
X38006487Y-55746389D01*
X37862286Y-55717705D01*
X37726452Y-55661441D01*
X37604205Y-55579758D01*
X37500242Y-55475795D01*
X37418559Y-55353548D01*
X37362295Y-55217714D01*
X37333611Y-55073513D01*
X37333611Y-54926487D01*
X37362295Y-54782286D01*
X37418559Y-54646452D01*
X37500242Y-54524205D01*
X37604205Y-54420242D01*
X37726452Y-54338559D01*
X37862286Y-54282295D01*
X38006487Y-54253611D01*
X38153513Y-54253611D01*
X38297714Y-54282295D01*
G37*
G36*
X79154047Y-54290805D02*
G01*
X79205408Y-54296764D01*
X79222954Y-54304511D01*
X79245671Y-54309030D01*
X79269991Y-54325280D01*
X79290793Y-54334465D01*
X79305000Y-54348672D01*
X79326777Y-54363223D01*
X79341327Y-54384999D01*
X79355534Y-54399206D01*
X79364718Y-54420006D01*
X79380970Y-54444329D01*
X79385489Y-54467048D01*
X79393235Y-54484591D01*
X79399192Y-54535940D01*
X79400000Y-54540000D01*
X79400000Y-55340000D01*
X79399192Y-55344059D01*
X79393235Y-55395408D01*
X79385489Y-55412950D01*
X79380970Y-55435671D01*
X79364716Y-55459995D01*
X79355534Y-55480793D01*
X79341329Y-55494997D01*
X79326777Y-55516777D01*
X79304997Y-55531329D01*
X79290793Y-55545534D01*
X79269995Y-55554716D01*
X79245671Y-55570970D01*
X79222950Y-55575489D01*
X79205408Y-55583235D01*
X79154061Y-55589192D01*
X79150000Y-55590000D01*
X77900000Y-55590000D01*
X77895941Y-55589192D01*
X77844591Y-55583235D01*
X77827048Y-55575489D01*
X77804329Y-55570970D01*
X77780006Y-55554718D01*
X77759206Y-55545534D01*
X77744999Y-55531327D01*
X77723223Y-55516777D01*
X77708672Y-55495000D01*
X77694465Y-55480793D01*
X77685280Y-55459991D01*
X77669030Y-55435671D01*
X77664511Y-55412954D01*
X77656764Y-55395408D01*
X77650805Y-55344049D01*
X77650000Y-55340000D01*
X77650000Y-54540000D01*
X77650804Y-54535953D01*
X77656764Y-54484591D01*
X77664511Y-54467043D01*
X77669030Y-54444329D01*
X77685278Y-54420010D01*
X77694465Y-54399206D01*
X77708674Y-54384996D01*
X77723223Y-54363223D01*
X77744996Y-54348674D01*
X77759206Y-54334465D01*
X77780010Y-54325278D01*
X77804329Y-54309030D01*
X77827043Y-54304511D01*
X77844591Y-54296764D01*
X77895952Y-54290805D01*
X77900000Y-54290000D01*
X79150000Y-54290000D01*
X79154047Y-54290805D01*
G37*
G36*
X97173513Y-49484208D02*
G01*
X97412293Y-49561793D01*
X97635998Y-49675776D01*
X97839117Y-49823350D01*
X98016650Y-50000883D01*
X98164224Y-50204002D01*
X98278207Y-50427707D01*
X98355792Y-50666487D01*
X98395068Y-50914465D01*
X98395068Y-51165535D01*
X98355792Y-51413513D01*
X98278207Y-51652293D01*
X98164224Y-51875998D01*
X98016650Y-52079117D01*
X97839117Y-52256650D01*
X97635998Y-52404224D01*
X97412293Y-52518207D01*
X97173513Y-52595792D01*
X96925535Y-52635068D01*
X96674465Y-52635068D01*
X96426487Y-52595792D01*
X96187707Y-52518207D01*
X95964002Y-52404224D01*
X95760883Y-52256650D01*
X95583350Y-52079117D01*
X95435776Y-51875998D01*
X95321793Y-51652293D01*
X95244208Y-51413513D01*
X95204932Y-51165535D01*
X95204932Y-50914465D01*
X95244208Y-50666487D01*
X95321793Y-50427707D01*
X95435776Y-50204002D01*
X95583350Y-50000883D01*
X95760883Y-49823350D01*
X95964002Y-49675776D01*
X96187707Y-49561793D01*
X96426487Y-49484208D01*
X96674465Y-49444932D01*
X96925535Y-49444932D01*
X97173513Y-49484208D01*
G37*
G36*
X65232228Y-49634448D02*
G01*
X65377117Y-49694463D01*
X65507515Y-49781592D01*
X65618408Y-49892485D01*
X65705537Y-50022883D01*
X65765552Y-50167772D01*
X65796148Y-50321586D01*
X65796148Y-50478414D01*
X65765552Y-50632228D01*
X65705537Y-50777117D01*
X65618408Y-50907515D01*
X65507515Y-51018408D01*
X65377117Y-51105537D01*
X65232228Y-51165552D01*
X65078414Y-51196148D01*
X64921586Y-51196148D01*
X64767772Y-51165552D01*
X64622883Y-51105537D01*
X64492485Y-51018408D01*
X64381592Y-50907515D01*
X64294463Y-50777117D01*
X64234448Y-50632228D01*
X64203852Y-50478414D01*
X64203852Y-50321586D01*
X64234448Y-50167772D01*
X64294463Y-50022883D01*
X64381592Y-49892485D01*
X64492485Y-49781592D01*
X64622883Y-49694463D01*
X64767772Y-49634448D01*
X64921586Y-49603852D01*
X65078414Y-49603852D01*
X65232228Y-49634448D01*
G37*
G36*
X61654047Y-49800805D02*
G01*
X61705408Y-49806764D01*
X61722954Y-49814511D01*
X61745671Y-49819030D01*
X61769991Y-49835280D01*
X61790793Y-49844465D01*
X61805000Y-49858672D01*
X61826777Y-49873223D01*
X61841327Y-49894999D01*
X61855534Y-49909206D01*
X61864718Y-49930006D01*
X61880970Y-49954329D01*
X61885489Y-49977048D01*
X61893235Y-49994591D01*
X61899192Y-50045940D01*
X61900000Y-50050000D01*
X61900000Y-50875000D01*
X61899192Y-50879059D01*
X61893235Y-50930408D01*
X61885489Y-50947950D01*
X61880970Y-50970671D01*
X61864716Y-50994995D01*
X61855534Y-51015793D01*
X61841329Y-51029997D01*
X61826777Y-51051777D01*
X61804997Y-51066329D01*
X61790793Y-51080534D01*
X61769995Y-51089716D01*
X61745671Y-51105970D01*
X61722950Y-51110489D01*
X61705408Y-51118235D01*
X61654061Y-51124192D01*
X61650000Y-51125000D01*
X60350000Y-51125000D01*
X60345941Y-51124192D01*
X60294591Y-51118235D01*
X60277048Y-51110489D01*
X60254329Y-51105970D01*
X60230006Y-51089718D01*
X60209206Y-51080534D01*
X60194999Y-51066327D01*
X60173223Y-51051777D01*
X60158672Y-51030000D01*
X60144465Y-51015793D01*
X60135280Y-50994991D01*
X60119030Y-50970671D01*
X60114511Y-50947954D01*
X60106764Y-50930408D01*
X60100805Y-50879049D01*
X60100000Y-50875000D01*
X60100000Y-50050000D01*
X60100804Y-50045953D01*
X60106764Y-49994591D01*
X60114511Y-49977043D01*
X60119030Y-49954329D01*
X60135278Y-49930010D01*
X60144465Y-49909206D01*
X60158674Y-49894996D01*
X60173223Y-49873223D01*
X60194996Y-49858674D01*
X60209206Y-49844465D01*
X60230010Y-49835278D01*
X60254329Y-49819030D01*
X60277043Y-49814511D01*
X60294591Y-49806764D01*
X60345952Y-49800805D01*
X60350000Y-49800000D01*
X61650000Y-49800000D01*
X61654047Y-49800805D01*
G37*
G36*
X69254047Y-49800805D02*
G01*
X69305408Y-49806764D01*
X69322954Y-49814511D01*
X69345671Y-49819030D01*
X69369991Y-49835280D01*
X69390793Y-49844465D01*
X69405000Y-49858672D01*
X69426777Y-49873223D01*
X69441327Y-49894999D01*
X69455534Y-49909206D01*
X69464718Y-49930006D01*
X69480970Y-49954329D01*
X69485489Y-49977048D01*
X69493235Y-49994591D01*
X69499192Y-50045940D01*
X69500000Y-50050000D01*
X69500000Y-50875000D01*
X69499192Y-50879059D01*
X69493235Y-50930408D01*
X69485489Y-50947950D01*
X69480970Y-50970671D01*
X69464716Y-50994995D01*
X69455534Y-51015793D01*
X69441329Y-51029997D01*
X69426777Y-51051777D01*
X69404997Y-51066329D01*
X69390793Y-51080534D01*
X69369995Y-51089716D01*
X69345671Y-51105970D01*
X69322950Y-51110489D01*
X69305408Y-51118235D01*
X69254061Y-51124192D01*
X69250000Y-51125000D01*
X67950000Y-51125000D01*
X67945941Y-51124192D01*
X67894591Y-51118235D01*
X67877048Y-51110489D01*
X67854329Y-51105970D01*
X67830006Y-51089718D01*
X67809206Y-51080534D01*
X67794999Y-51066327D01*
X67773223Y-51051777D01*
X67758672Y-51030000D01*
X67744465Y-51015793D01*
X67735280Y-50994991D01*
X67719030Y-50970671D01*
X67714511Y-50947954D01*
X67706764Y-50930408D01*
X67700805Y-50879049D01*
X67700000Y-50875000D01*
X67700000Y-50050000D01*
X67700804Y-50045953D01*
X67706764Y-49994591D01*
X67714511Y-49977043D01*
X67719030Y-49954329D01*
X67735278Y-49930010D01*
X67744465Y-49909206D01*
X67758674Y-49894996D01*
X67773223Y-49873223D01*
X67794996Y-49858674D01*
X67809206Y-49844465D01*
X67830010Y-49835278D01*
X67854329Y-49819030D01*
X67877043Y-49814511D01*
X67894591Y-49806764D01*
X67945952Y-49800805D01*
X67950000Y-49800000D01*
X69250000Y-49800000D01*
X69254047Y-49800805D01*
G37*
G36*
X58529047Y-49800805D02*
G01*
X58580408Y-49806764D01*
X58597954Y-49814511D01*
X58620671Y-49819030D01*
X58644991Y-49835280D01*
X58665793Y-49844465D01*
X58680000Y-49858672D01*
X58701777Y-49873223D01*
X58716327Y-49894999D01*
X58730534Y-49909206D01*
X58739718Y-49930006D01*
X58755970Y-49954329D01*
X58760489Y-49977048D01*
X58768235Y-49994591D01*
X58774192Y-50045940D01*
X58775000Y-50050000D01*
X58775000Y-50850000D01*
X58774192Y-50854059D01*
X58768235Y-50905408D01*
X58760489Y-50922950D01*
X58755970Y-50945671D01*
X58739716Y-50969995D01*
X58730534Y-50990793D01*
X58716329Y-51004997D01*
X58701777Y-51026777D01*
X58679997Y-51041329D01*
X58665793Y-51055534D01*
X58644995Y-51064716D01*
X58620671Y-51080970D01*
X58597950Y-51085489D01*
X58580408Y-51093235D01*
X58529061Y-51099192D01*
X58525000Y-51100000D01*
X57275000Y-51100000D01*
X57270941Y-51099192D01*
X57219591Y-51093235D01*
X57202048Y-51085489D01*
X57179329Y-51080970D01*
X57155006Y-51064718D01*
X57134206Y-51055534D01*
X57119999Y-51041327D01*
X57098223Y-51026777D01*
X57083672Y-51005000D01*
X57069465Y-50990793D01*
X57060280Y-50969991D01*
X57044030Y-50945671D01*
X57039511Y-50922954D01*
X57031764Y-50905408D01*
X57025805Y-50854049D01*
X57025000Y-50850000D01*
X57025000Y-50050000D01*
X57025804Y-50045953D01*
X57031764Y-49994591D01*
X57039511Y-49977043D01*
X57044030Y-49954329D01*
X57060278Y-49930010D01*
X57069465Y-49909206D01*
X57083674Y-49894996D01*
X57098223Y-49873223D01*
X57119996Y-49858674D01*
X57134206Y-49844465D01*
X57155010Y-49835278D01*
X57179329Y-49819030D01*
X57202043Y-49814511D01*
X57219591Y-49806764D01*
X57270952Y-49800805D01*
X57275000Y-49800000D01*
X58525000Y-49800000D01*
X58529047Y-49800805D01*
G37*
G36*
X85238953Y-45333233D02*
G01*
X85523239Y-45409407D01*
X85795150Y-45522036D01*
X86050033Y-45669193D01*
X86283528Y-45848360D01*
X86491640Y-46056472D01*
X86670807Y-46289967D01*
X86817964Y-46544850D01*
X86930593Y-46816761D01*
X87006767Y-47101047D01*
X87045183Y-47392843D01*
X87045183Y-47687157D01*
X87006767Y-47978953D01*
X86930593Y-48263239D01*
X86817964Y-48535150D01*
X86670807Y-48790033D01*
X86491640Y-49023528D01*
X86283528Y-49231640D01*
X86050033Y-49410807D01*
X85795150Y-49557964D01*
X85523239Y-49670593D01*
X85238953Y-49746767D01*
X84947157Y-49785183D01*
X84652843Y-49785183D01*
X84361047Y-49746767D01*
X84076761Y-49670593D01*
X83804850Y-49557964D01*
X83549967Y-49410807D01*
X83316472Y-49231640D01*
X83108360Y-49023528D01*
X82929193Y-48790033D01*
X82782036Y-48535150D01*
X82669407Y-48263239D01*
X82593233Y-47978953D01*
X82554817Y-47687157D01*
X82554817Y-47392843D01*
X82593233Y-47101047D01*
X82669407Y-46816761D01*
X82782036Y-46544850D01*
X82929193Y-46289967D01*
X83108360Y-46056472D01*
X83316472Y-45848360D01*
X83549967Y-45669193D01*
X83804850Y-45522036D01*
X84076761Y-45409407D01*
X84361047Y-45333233D01*
X84652843Y-45294817D01*
X84947157Y-45294817D01*
X85238953Y-45333233D01*
G37*
G36*
X74004048Y-44925805D02*
G01*
X74055410Y-44931764D01*
X74072958Y-44939512D01*
X74095671Y-44944030D01*
X74119983Y-44960275D01*
X74140793Y-44969463D01*
X74155006Y-44983676D01*
X74176777Y-44998223D01*
X74191323Y-45019993D01*
X74205536Y-45034206D01*
X74214723Y-45055013D01*
X74230970Y-45079329D01*
X74235487Y-45102042D01*
X74243235Y-45119589D01*
X74249196Y-45170965D01*
X74249999Y-45175000D01*
X74249999Y-45177881D01*
X74250000Y-45177890D01*
X74250000Y-46675000D01*
X74250000Y-48025001D01*
X74249194Y-48029050D01*
X74243235Y-48080410D01*
X74235488Y-48097954D01*
X74230970Y-48120671D01*
X74214722Y-48144987D01*
X74205536Y-48165793D01*
X74191325Y-48180003D01*
X74176777Y-48201777D01*
X74155003Y-48216325D01*
X74140793Y-48230536D01*
X74119987Y-48239722D01*
X74095671Y-48255970D01*
X74072955Y-48260488D01*
X74055410Y-48268235D01*
X74004036Y-48274196D01*
X74000000Y-48274999D01*
X73997117Y-48274999D01*
X73997109Y-48275000D01*
X73102891Y-48275000D01*
X73102890Y-48274999D01*
X73099999Y-48275000D01*
X73095950Y-48274194D01*
X73044589Y-48268235D01*
X73027043Y-48260488D01*
X73004329Y-48255970D01*
X72980013Y-48239723D01*
X72959206Y-48230536D01*
X72944993Y-48216323D01*
X72923223Y-48201777D01*
X72908676Y-48180006D01*
X72894463Y-48165793D01*
X72885275Y-48144983D01*
X72869030Y-48120671D01*
X72864512Y-48097959D01*
X72856764Y-48080410D01*
X72850803Y-48029034D01*
X72850001Y-48025000D01*
X72850000Y-48022117D01*
X72850000Y-48022109D01*
X72850000Y-45177890D01*
X72850000Y-45177889D01*
X72850000Y-45174999D01*
X72850804Y-45170952D01*
X72856764Y-45119589D01*
X72864512Y-45102039D01*
X72869030Y-45079329D01*
X72885273Y-45055018D01*
X72894463Y-45034206D01*
X72908678Y-45019990D01*
X72923223Y-44998223D01*
X72944990Y-44983678D01*
X72959206Y-44969463D01*
X72980018Y-44960273D01*
X73004329Y-44944030D01*
X73027038Y-44939513D01*
X73044589Y-44931764D01*
X73095965Y-44925803D01*
X73100000Y-44925001D01*
X73102882Y-44925000D01*
X73102891Y-44925000D01*
X73997109Y-44925000D01*
X74000001Y-44925000D01*
X74004048Y-44925805D01*
G37*
G36*
X80104048Y-44925805D02*
G01*
X80155410Y-44931764D01*
X80172958Y-44939512D01*
X80195671Y-44944030D01*
X80219983Y-44960275D01*
X80240793Y-44969463D01*
X80255006Y-44983676D01*
X80276777Y-44998223D01*
X80291323Y-45019993D01*
X80305536Y-45034206D01*
X80314723Y-45055013D01*
X80330970Y-45079329D01*
X80335487Y-45102042D01*
X80343235Y-45119589D01*
X80349196Y-45170965D01*
X80349999Y-45175000D01*
X80349999Y-45177881D01*
X80350000Y-45177890D01*
X80350000Y-46675000D01*
X80350000Y-48025001D01*
X80349194Y-48029050D01*
X80343235Y-48080410D01*
X80335488Y-48097954D01*
X80330970Y-48120671D01*
X80314722Y-48144987D01*
X80305536Y-48165793D01*
X80291325Y-48180003D01*
X80276777Y-48201777D01*
X80255003Y-48216325D01*
X80240793Y-48230536D01*
X80219987Y-48239722D01*
X80195671Y-48255970D01*
X80172955Y-48260488D01*
X80155410Y-48268235D01*
X80104036Y-48274196D01*
X80100000Y-48274999D01*
X80097117Y-48274999D01*
X80097109Y-48275000D01*
X79202891Y-48275000D01*
X79202890Y-48274999D01*
X79199999Y-48275000D01*
X79195950Y-48274194D01*
X79144589Y-48268235D01*
X79127043Y-48260488D01*
X79104329Y-48255970D01*
X79080013Y-48239723D01*
X79059206Y-48230536D01*
X79044993Y-48216323D01*
X79023223Y-48201777D01*
X79008676Y-48180006D01*
X78994463Y-48165793D01*
X78985275Y-48144983D01*
X78969030Y-48120671D01*
X78964512Y-48097959D01*
X78956764Y-48080410D01*
X78950803Y-48029034D01*
X78950001Y-48025000D01*
X78950000Y-48022117D01*
X78950000Y-48022109D01*
X78950000Y-45177890D01*
X78950000Y-45177889D01*
X78950000Y-45174999D01*
X78950804Y-45170952D01*
X78956764Y-45119589D01*
X78964512Y-45102039D01*
X78969030Y-45079329D01*
X78985273Y-45055018D01*
X78994463Y-45034206D01*
X79008678Y-45019990D01*
X79023223Y-44998223D01*
X79044990Y-44983678D01*
X79059206Y-44969463D01*
X79080018Y-44960273D01*
X79104329Y-44944030D01*
X79127038Y-44939513D01*
X79144589Y-44931764D01*
X79195965Y-44925803D01*
X79200000Y-44925001D01*
X79202882Y-44925000D01*
X79202891Y-44925000D01*
X80097109Y-44925000D01*
X80100001Y-44925000D01*
X80104048Y-44925805D01*
G37*
G36*
X58529047Y-46700805D02*
G01*
X58580408Y-46706764D01*
X58597954Y-46714511D01*
X58620671Y-46719030D01*
X58644991Y-46735280D01*
X58665793Y-46744465D01*
X58680000Y-46758672D01*
X58701777Y-46773223D01*
X58716327Y-46794999D01*
X58730534Y-46809206D01*
X58739718Y-46830006D01*
X58755970Y-46854329D01*
X58760489Y-46877048D01*
X58768235Y-46894591D01*
X58774192Y-46945940D01*
X58775000Y-46950000D01*
X58775000Y-47750000D01*
X58774192Y-47754059D01*
X58768235Y-47805408D01*
X58760489Y-47822950D01*
X58755970Y-47845671D01*
X58739716Y-47869995D01*
X58730534Y-47890793D01*
X58716329Y-47904997D01*
X58701777Y-47926777D01*
X58679997Y-47941329D01*
X58665793Y-47955534D01*
X58644995Y-47964716D01*
X58620671Y-47980970D01*
X58597950Y-47985489D01*
X58580408Y-47993235D01*
X58529061Y-47999192D01*
X58525000Y-48000000D01*
X57275000Y-48000000D01*
X57270941Y-47999192D01*
X57219591Y-47993235D01*
X57202048Y-47985489D01*
X57179329Y-47980970D01*
X57155006Y-47964718D01*
X57134206Y-47955534D01*
X57119999Y-47941327D01*
X57098223Y-47926777D01*
X57083672Y-47905000D01*
X57069465Y-47890793D01*
X57060280Y-47869991D01*
X57044030Y-47845671D01*
X57039511Y-47822954D01*
X57031764Y-47805408D01*
X57025805Y-47754049D01*
X57025000Y-47750000D01*
X57025000Y-46950000D01*
X57025804Y-46945953D01*
X57031764Y-46894591D01*
X57039511Y-46877043D01*
X57044030Y-46854329D01*
X57060278Y-46830010D01*
X57069465Y-46809206D01*
X57083674Y-46794996D01*
X57098223Y-46773223D01*
X57119996Y-46758674D01*
X57134206Y-46744465D01*
X57155010Y-46735278D01*
X57179329Y-46719030D01*
X57202043Y-46714511D01*
X57219591Y-46706764D01*
X57270952Y-46700805D01*
X57275000Y-46700000D01*
X58525000Y-46700000D01*
X58529047Y-46700805D01*
G37*
G36*
X61654047Y-46675805D02*
G01*
X61705408Y-46681764D01*
X61722954Y-46689511D01*
X61745671Y-46694030D01*
X61769991Y-46710280D01*
X61790793Y-46719465D01*
X61805000Y-46733672D01*
X61826777Y-46748223D01*
X61841327Y-46769999D01*
X61855534Y-46784206D01*
X61864718Y-46805006D01*
X61880970Y-46829329D01*
X61885489Y-46852048D01*
X61893235Y-46869591D01*
X61899192Y-46920940D01*
X61900000Y-46925000D01*
X61900000Y-47750000D01*
X61899192Y-47754059D01*
X61893235Y-47805408D01*
X61885489Y-47822950D01*
X61880970Y-47845671D01*
X61864716Y-47869995D01*
X61855534Y-47890793D01*
X61841329Y-47904997D01*
X61826777Y-47926777D01*
X61804997Y-47941329D01*
X61790793Y-47955534D01*
X61769995Y-47964716D01*
X61745671Y-47980970D01*
X61722950Y-47985489D01*
X61705408Y-47993235D01*
X61654061Y-47999192D01*
X61650000Y-48000000D01*
X60350000Y-48000000D01*
X60345941Y-47999192D01*
X60294591Y-47993235D01*
X60277048Y-47985489D01*
X60254329Y-47980970D01*
X60230006Y-47964718D01*
X60209206Y-47955534D01*
X60194999Y-47941327D01*
X60173223Y-47926777D01*
X60158672Y-47905000D01*
X60144465Y-47890793D01*
X60135280Y-47869991D01*
X60119030Y-47845671D01*
X60114511Y-47822954D01*
X60106764Y-47805408D01*
X60100805Y-47754049D01*
X60100000Y-47750000D01*
X60100000Y-46925000D01*
X60100804Y-46920953D01*
X60106764Y-46869591D01*
X60114511Y-46852043D01*
X60119030Y-46829329D01*
X60135278Y-46805010D01*
X60144465Y-46784206D01*
X60158674Y-46769996D01*
X60173223Y-46748223D01*
X60194996Y-46733674D01*
X60209206Y-46719465D01*
X60230010Y-46710278D01*
X60254329Y-46694030D01*
X60277043Y-46689511D01*
X60294591Y-46681764D01*
X60345952Y-46675805D01*
X60350000Y-46675000D01*
X61650000Y-46675000D01*
X61654047Y-46675805D01*
G37*
G36*
X69254047Y-46675805D02*
G01*
X69305408Y-46681764D01*
X69322954Y-46689511D01*
X69345671Y-46694030D01*
X69369991Y-46710280D01*
X69390793Y-46719465D01*
X69405000Y-46733672D01*
X69426777Y-46748223D01*
X69441327Y-46769999D01*
X69455534Y-46784206D01*
X69464718Y-46805006D01*
X69480970Y-46829329D01*
X69485489Y-46852048D01*
X69493235Y-46869591D01*
X69499192Y-46920940D01*
X69500000Y-46925000D01*
X69500000Y-47750000D01*
X69499192Y-47754059D01*
X69493235Y-47805408D01*
X69485489Y-47822950D01*
X69480970Y-47845671D01*
X69464716Y-47869995D01*
X69455534Y-47890793D01*
X69441329Y-47904997D01*
X69426777Y-47926777D01*
X69404997Y-47941329D01*
X69390793Y-47955534D01*
X69369995Y-47964716D01*
X69345671Y-47980970D01*
X69322950Y-47985489D01*
X69305408Y-47993235D01*
X69254061Y-47999192D01*
X69250000Y-48000000D01*
X67950000Y-48000000D01*
X67945941Y-47999192D01*
X67894591Y-47993235D01*
X67877048Y-47985489D01*
X67854329Y-47980970D01*
X67830006Y-47964718D01*
X67809206Y-47955534D01*
X67794999Y-47941327D01*
X67773223Y-47926777D01*
X67758672Y-47905000D01*
X67744465Y-47890793D01*
X67735280Y-47869991D01*
X67719030Y-47845671D01*
X67714511Y-47822954D01*
X67706764Y-47805408D01*
X67700805Y-47754049D01*
X67700000Y-47750000D01*
X67700000Y-46925000D01*
X67700804Y-46920953D01*
X67706764Y-46869591D01*
X67714511Y-46852043D01*
X67719030Y-46829329D01*
X67735278Y-46805010D01*
X67744465Y-46784206D01*
X67758674Y-46769996D01*
X67773223Y-46748223D01*
X67794996Y-46733674D01*
X67809206Y-46719465D01*
X67830010Y-46710278D01*
X67854329Y-46694030D01*
X67877043Y-46689511D01*
X67894591Y-46681764D01*
X67945952Y-46675805D01*
X67950000Y-46675000D01*
X69250000Y-46675000D01*
X69254047Y-46675805D01*
G37*
G36*
X65554047Y-46100805D02*
G01*
X65605408Y-46106764D01*
X65622954Y-46114511D01*
X65645671Y-46119030D01*
X65669991Y-46135280D01*
X65690793Y-46144465D01*
X65705000Y-46158672D01*
X65726777Y-46173223D01*
X65741327Y-46194999D01*
X65755534Y-46209206D01*
X65764718Y-46230006D01*
X65780970Y-46254329D01*
X65785489Y-46277048D01*
X65793235Y-46294591D01*
X65799192Y-46345940D01*
X65800000Y-46350000D01*
X65800000Y-47450000D01*
X65799192Y-47454059D01*
X65793235Y-47505408D01*
X65785489Y-47522950D01*
X65780970Y-47545671D01*
X65764716Y-47569995D01*
X65755534Y-47590793D01*
X65741329Y-47604997D01*
X65726777Y-47626777D01*
X65704997Y-47641329D01*
X65690793Y-47655534D01*
X65669995Y-47664716D01*
X65645671Y-47680970D01*
X65622950Y-47685489D01*
X65605408Y-47693235D01*
X65554061Y-47699192D01*
X65550000Y-47700000D01*
X64450000Y-47700000D01*
X64445941Y-47699192D01*
X64394591Y-47693235D01*
X64377048Y-47685489D01*
X64354329Y-47680970D01*
X64330006Y-47664718D01*
X64309206Y-47655534D01*
X64294999Y-47641327D01*
X64273223Y-47626777D01*
X64258672Y-47605000D01*
X64244465Y-47590793D01*
X64235280Y-47569991D01*
X64219030Y-47545671D01*
X64214511Y-47522954D01*
X64206764Y-47505408D01*
X64200805Y-47454049D01*
X64200000Y-47450000D01*
X64200000Y-46350000D01*
X64200804Y-46345953D01*
X64206764Y-46294591D01*
X64214511Y-46277043D01*
X64219030Y-46254329D01*
X64235278Y-46230010D01*
X64244465Y-46209206D01*
X64258674Y-46194996D01*
X64273223Y-46173223D01*
X64294996Y-46158674D01*
X64309206Y-46144465D01*
X64330010Y-46135278D01*
X64354329Y-46119030D01*
X64377043Y-46114511D01*
X64394591Y-46106764D01*
X64445952Y-46100805D01*
X64450000Y-46100000D01*
X65550000Y-46100000D01*
X65554047Y-46100805D01*
G37*
G36*
X7750000Y-47250000D02*
G01*
X6250000Y-47250000D01*
X6250000Y-45750000D01*
X7750000Y-45750000D01*
X7750000Y-47250000D01*
G37*
G36*
X9757714Y-45782295D02*
G01*
X9893548Y-45838559D01*
X10015795Y-45920242D01*
X10119758Y-46024205D01*
X10201441Y-46146452D01*
X10257705Y-46282286D01*
X10286389Y-46426487D01*
X10286389Y-46573513D01*
X10257705Y-46717714D01*
X10201441Y-46853548D01*
X10119758Y-46975795D01*
X10015795Y-47079758D01*
X9893548Y-47161441D01*
X9757714Y-47217705D01*
X9613513Y-47246389D01*
X9466487Y-47246389D01*
X9322286Y-47217705D01*
X9186452Y-47161441D01*
X9064205Y-47079758D01*
X8960242Y-46975795D01*
X8878559Y-46853548D01*
X8822295Y-46717714D01*
X8793611Y-46573513D01*
X8793611Y-46426487D01*
X8822295Y-46282286D01*
X8878559Y-46146452D01*
X8960242Y-46024205D01*
X9064205Y-45920242D01*
X9186452Y-45838559D01*
X9322286Y-45782295D01*
X9466487Y-45753611D01*
X9613513Y-45753611D01*
X9757714Y-45782295D01*
G37*
G36*
X12297714Y-45782295D02*
G01*
X12433548Y-45838559D01*
X12555795Y-45920242D01*
X12659758Y-46024205D01*
X12741441Y-46146452D01*
X12797705Y-46282286D01*
X12826389Y-46426487D01*
X12826389Y-46573513D01*
X12797705Y-46717714D01*
X12741441Y-46853548D01*
X12659758Y-46975795D01*
X12555795Y-47079758D01*
X12433548Y-47161441D01*
X12297714Y-47217705D01*
X12153513Y-47246389D01*
X12006487Y-47246389D01*
X11862286Y-47217705D01*
X11726452Y-47161441D01*
X11604205Y-47079758D01*
X11500242Y-46975795D01*
X11418559Y-46853548D01*
X11362295Y-46717714D01*
X11333611Y-46573513D01*
X11333611Y-46426487D01*
X11362295Y-46282286D01*
X11418559Y-46146452D01*
X11500242Y-46024205D01*
X11604205Y-45920242D01*
X11726452Y-45838559D01*
X11862286Y-45782295D01*
X12006487Y-45753611D01*
X12153513Y-45753611D01*
X12297714Y-45782295D01*
G37*
G36*
X50879047Y-42950805D02*
G01*
X50930408Y-42956764D01*
X50947954Y-42964511D01*
X50970671Y-42969030D01*
X50994991Y-42985280D01*
X51015793Y-42994465D01*
X51030000Y-43008672D01*
X51051777Y-43023223D01*
X51066327Y-43044999D01*
X51080534Y-43059206D01*
X51089718Y-43080006D01*
X51105970Y-43104329D01*
X51110489Y-43127048D01*
X51118235Y-43144591D01*
X51124192Y-43195940D01*
X51125000Y-43200000D01*
X51125000Y-44000000D01*
X51124192Y-44004059D01*
X51118235Y-44055408D01*
X51110489Y-44072950D01*
X51105970Y-44095671D01*
X51089716Y-44119995D01*
X51080534Y-44140793D01*
X51066329Y-44154997D01*
X51051777Y-44176777D01*
X51029997Y-44191329D01*
X51015793Y-44205534D01*
X50994995Y-44214716D01*
X50970671Y-44230970D01*
X50947950Y-44235489D01*
X50930408Y-44243235D01*
X50879061Y-44249192D01*
X50875000Y-44250000D01*
X49625000Y-44250000D01*
X49620941Y-44249192D01*
X49569591Y-44243235D01*
X49552048Y-44235489D01*
X49529329Y-44230970D01*
X49505006Y-44214718D01*
X49484206Y-44205534D01*
X49469999Y-44191327D01*
X49448223Y-44176777D01*
X49433672Y-44155000D01*
X49419465Y-44140793D01*
X49410280Y-44119991D01*
X49394030Y-44095671D01*
X49389511Y-44072954D01*
X49381764Y-44055408D01*
X49375805Y-44004049D01*
X49375000Y-44000000D01*
X49375000Y-43200000D01*
X49375804Y-43195953D01*
X49381764Y-43144591D01*
X49389511Y-43127043D01*
X49394030Y-43104329D01*
X49410278Y-43080010D01*
X49419465Y-43059206D01*
X49433674Y-43044996D01*
X49448223Y-43023223D01*
X49469996Y-43008674D01*
X49484206Y-42994465D01*
X49505010Y-42985278D01*
X49529329Y-42969030D01*
X49552043Y-42964511D01*
X49569591Y-42956764D01*
X49620952Y-42950805D01*
X49625000Y-42950000D01*
X50875000Y-42950000D01*
X50879047Y-42950805D01*
G37*
G36*
X87050000Y-42170000D02*
G01*
X82550000Y-42170000D01*
X82550000Y-37670000D01*
X87050000Y-37670000D01*
X87050000Y-42170000D01*
G37*
G36*
X55000000Y-41500000D02*
G01*
X53000000Y-41500000D01*
X53000000Y-39500000D01*
X55000000Y-39500000D01*
X55000000Y-41500000D01*
G37*
G36*
X69290285Y-39543060D02*
G01*
X69471397Y-39618079D01*
X69634393Y-39726990D01*
X69773010Y-39865607D01*
X69881921Y-40028603D01*
X69956940Y-40209715D01*
X69995185Y-40401983D01*
X69995185Y-40598017D01*
X69956940Y-40790285D01*
X69881921Y-40971397D01*
X69773010Y-41134393D01*
X69634393Y-41273010D01*
X69471397Y-41381921D01*
X69290285Y-41456940D01*
X69098017Y-41495185D01*
X68901983Y-41495185D01*
X68709715Y-41456940D01*
X68528603Y-41381921D01*
X68365607Y-41273010D01*
X68226990Y-41134393D01*
X68118079Y-40971397D01*
X68043060Y-40790285D01*
X68004815Y-40598017D01*
X68004815Y-40401983D01*
X68043060Y-40209715D01*
X68118079Y-40028603D01*
X68226990Y-39865607D01*
X68365607Y-39726990D01*
X68528603Y-39618079D01*
X68709715Y-39543060D01*
X68901983Y-39504815D01*
X69098017Y-39504815D01*
X69290285Y-39543060D01*
G37*
G36*
X74290285Y-39543060D02*
G01*
X74471397Y-39618079D01*
X74634393Y-39726990D01*
X74773010Y-39865607D01*
X74881921Y-40028603D01*
X74956940Y-40209715D01*
X74995185Y-40401983D01*
X74995185Y-40598017D01*
X74956940Y-40790285D01*
X74881921Y-40971397D01*
X74773010Y-41134393D01*
X74634393Y-41273010D01*
X74471397Y-41381921D01*
X74290285Y-41456940D01*
X74098017Y-41495185D01*
X73901983Y-41495185D01*
X73709715Y-41456940D01*
X73528603Y-41381921D01*
X73365607Y-41273010D01*
X73226990Y-41134393D01*
X73118079Y-40971397D01*
X73043060Y-40790285D01*
X73004815Y-40598017D01*
X73004815Y-40401983D01*
X73043060Y-40209715D01*
X73118079Y-40028603D01*
X73226990Y-39865607D01*
X73365607Y-39726990D01*
X73528603Y-39618079D01*
X73709715Y-39543060D01*
X73901983Y-39504815D01*
X74098017Y-39504815D01*
X74290285Y-39543060D01*
G37*
G36*
X79290285Y-39543060D02*
G01*
X79471397Y-39618079D01*
X79634393Y-39726990D01*
X79773010Y-39865607D01*
X79881921Y-40028603D01*
X79956940Y-40209715D01*
X79995185Y-40401983D01*
X79995185Y-40598017D01*
X79956940Y-40790285D01*
X79881921Y-40971397D01*
X79773010Y-41134393D01*
X79634393Y-41273010D01*
X79471397Y-41381921D01*
X79290285Y-41456940D01*
X79098017Y-41495185D01*
X78901983Y-41495185D01*
X78709715Y-41456940D01*
X78528603Y-41381921D01*
X78365607Y-41273010D01*
X78226990Y-41134393D01*
X78118079Y-40971397D01*
X78043060Y-40790285D01*
X78004815Y-40598017D01*
X78004815Y-40401983D01*
X78043060Y-40209715D01*
X78118079Y-40028603D01*
X78226990Y-39865607D01*
X78365607Y-39726990D01*
X78528603Y-39618079D01*
X78709715Y-39543060D01*
X78901983Y-39504815D01*
X79098017Y-39504815D01*
X79290285Y-39543060D01*
G37*
G36*
X50879047Y-39850805D02*
G01*
X50930408Y-39856764D01*
X50947954Y-39864511D01*
X50970671Y-39869030D01*
X50994991Y-39885280D01*
X51015793Y-39894465D01*
X51030000Y-39908672D01*
X51051777Y-39923223D01*
X51066327Y-39944999D01*
X51080534Y-39959206D01*
X51089718Y-39980006D01*
X51105970Y-40004329D01*
X51110489Y-40027048D01*
X51118235Y-40044591D01*
X51124192Y-40095940D01*
X51125000Y-40100000D01*
X51125000Y-40900000D01*
X51124192Y-40904059D01*
X51118235Y-40955408D01*
X51110489Y-40972950D01*
X51105970Y-40995671D01*
X51089716Y-41019995D01*
X51080534Y-41040793D01*
X51066329Y-41054997D01*
X51051777Y-41076777D01*
X51029997Y-41091329D01*
X51015793Y-41105534D01*
X50994995Y-41114716D01*
X50970671Y-41130970D01*
X50947950Y-41135489D01*
X50930408Y-41143235D01*
X50879061Y-41149192D01*
X50875000Y-41150000D01*
X49625000Y-41150000D01*
X49620941Y-41149192D01*
X49569591Y-41143235D01*
X49552048Y-41135489D01*
X49529329Y-41130970D01*
X49505006Y-41114718D01*
X49484206Y-41105534D01*
X49469999Y-41091327D01*
X49448223Y-41076777D01*
X49433672Y-41055000D01*
X49419465Y-41040793D01*
X49410280Y-41019991D01*
X49394030Y-40995671D01*
X49389511Y-40972954D01*
X49381764Y-40955408D01*
X49375805Y-40904049D01*
X49375000Y-40900000D01*
X49375000Y-40100000D01*
X49375804Y-40095953D01*
X49381764Y-40044591D01*
X49389511Y-40027043D01*
X49394030Y-40004329D01*
X49410278Y-39980010D01*
X49419465Y-39959206D01*
X49433674Y-39944996D01*
X49448223Y-39923223D01*
X49469996Y-39908674D01*
X49484206Y-39894465D01*
X49505010Y-39885278D01*
X49529329Y-39869030D01*
X49552043Y-39864511D01*
X49569591Y-39856764D01*
X49620952Y-39850805D01*
X49625000Y-39850000D01*
X50875000Y-39850000D01*
X50879047Y-39850805D01*
G37*
G36*
X5732228Y-37854448D02*
G01*
X5877117Y-37914463D01*
X6007515Y-38001592D01*
X6118408Y-38112485D01*
X6205537Y-38242883D01*
X6265552Y-38387772D01*
X6296148Y-38541586D01*
X6296148Y-38698414D01*
X6265552Y-38852228D01*
X6205537Y-38997117D01*
X6118408Y-39127515D01*
X6007515Y-39238408D01*
X5877117Y-39325537D01*
X5732228Y-39385552D01*
X5578414Y-39416148D01*
X5421586Y-39416148D01*
X5267772Y-39385552D01*
X5122883Y-39325537D01*
X4992485Y-39238408D01*
X4881592Y-39127515D01*
X4794463Y-38997117D01*
X4734448Y-38852228D01*
X4703852Y-38698414D01*
X4703852Y-38541586D01*
X4734448Y-38387772D01*
X4794463Y-38242883D01*
X4881592Y-38112485D01*
X4992485Y-38001592D01*
X5122883Y-37914463D01*
X5267772Y-37854448D01*
X5421586Y-37823852D01*
X5578414Y-37823852D01*
X5732228Y-37854448D01*
G37*
G36*
X13352228Y-37854448D02*
G01*
X13497117Y-37914463D01*
X13627515Y-38001592D01*
X13738408Y-38112485D01*
X13825537Y-38242883D01*
X13885552Y-38387772D01*
X13916148Y-38541586D01*
X13916148Y-38698414D01*
X13885552Y-38852228D01*
X13825537Y-38997117D01*
X13738408Y-39127515D01*
X13627515Y-39238408D01*
X13497117Y-39325537D01*
X13352228Y-39385552D01*
X13198414Y-39416148D01*
X13041586Y-39416148D01*
X12887772Y-39385552D01*
X12742883Y-39325537D01*
X12612485Y-39238408D01*
X12501592Y-39127515D01*
X12414463Y-38997117D01*
X12354448Y-38852228D01*
X12323852Y-38698414D01*
X12323852Y-38541586D01*
X12354448Y-38387772D01*
X12414463Y-38242883D01*
X12501592Y-38112485D01*
X12612485Y-38001592D01*
X12742883Y-37914463D01*
X12887772Y-37854448D01*
X13041586Y-37823852D01*
X13198414Y-37823852D01*
X13352228Y-37854448D01*
G37*
G36*
X97173513Y-34864208D02*
G01*
X97412293Y-34941793D01*
X97635998Y-35055776D01*
X97839117Y-35203350D01*
X98016650Y-35380883D01*
X98164224Y-35584002D01*
X98278207Y-35807707D01*
X98355792Y-36046487D01*
X98395068Y-36294465D01*
X98395068Y-36545535D01*
X98355792Y-36793513D01*
X98278207Y-37032293D01*
X98164224Y-37255998D01*
X98016650Y-37459117D01*
X97839117Y-37636650D01*
X97635998Y-37784224D01*
X97412293Y-37898207D01*
X97173513Y-37975792D01*
X96925535Y-38015068D01*
X96674465Y-38015068D01*
X96426487Y-37975792D01*
X96187707Y-37898207D01*
X95964002Y-37784224D01*
X95760883Y-37636650D01*
X95583350Y-37459117D01*
X95435776Y-37255998D01*
X95321793Y-37032293D01*
X95244208Y-36793513D01*
X95204932Y-36545535D01*
X95204932Y-36294465D01*
X95244208Y-36046487D01*
X95321793Y-35807707D01*
X95435776Y-35584002D01*
X95583350Y-35380883D01*
X95760883Y-35203350D01*
X95964002Y-35055776D01*
X96187707Y-34941793D01*
X96426487Y-34864208D01*
X96674465Y-34824932D01*
X96925535Y-34824932D01*
X97173513Y-34864208D01*
G37*
G36*
X5732228Y-35314448D02*
G01*
X5877117Y-35374463D01*
X6007515Y-35461592D01*
X6118408Y-35572485D01*
X6205537Y-35702883D01*
X6265552Y-35847772D01*
X6296148Y-36001586D01*
X6296148Y-36158414D01*
X6265552Y-36312228D01*
X6205537Y-36457117D01*
X6118408Y-36587515D01*
X6007515Y-36698408D01*
X5877117Y-36785537D01*
X5732228Y-36845552D01*
X5578414Y-36876148D01*
X5421586Y-36876148D01*
X5267772Y-36845552D01*
X5122883Y-36785537D01*
X4992485Y-36698408D01*
X4881592Y-36587515D01*
X4794463Y-36457117D01*
X4734448Y-36312228D01*
X4703852Y-36158414D01*
X4703852Y-36001586D01*
X4734448Y-35847772D01*
X4794463Y-35702883D01*
X4881592Y-35572485D01*
X4992485Y-35461592D01*
X5122883Y-35374463D01*
X5267772Y-35314448D01*
X5421586Y-35283852D01*
X5578414Y-35283852D01*
X5732228Y-35314448D01*
G37*
G36*
X13352228Y-35314448D02*
G01*
X13497117Y-35374463D01*
X13627515Y-35461592D01*
X13738408Y-35572485D01*
X13825537Y-35702883D01*
X13885552Y-35847772D01*
X13916148Y-36001586D01*
X13916148Y-36158414D01*
X13885552Y-36312228D01*
X13825537Y-36457117D01*
X13738408Y-36587515D01*
X13627515Y-36698408D01*
X13497117Y-36785537D01*
X13352228Y-36845552D01*
X13198414Y-36876148D01*
X13041586Y-36876148D01*
X12887772Y-36845552D01*
X12742883Y-36785537D01*
X12612485Y-36698408D01*
X12501592Y-36587515D01*
X12414463Y-36457117D01*
X12354448Y-36312228D01*
X12323852Y-36158414D01*
X12323852Y-36001586D01*
X12354448Y-35847772D01*
X12414463Y-35702883D01*
X12501592Y-35572485D01*
X12612485Y-35461592D01*
X12742883Y-35374463D01*
X12887772Y-35314448D01*
X13041586Y-35283852D01*
X13198414Y-35283852D01*
X13352228Y-35314448D01*
G37*
G36*
X5732228Y-32774448D02*
G01*
X5877117Y-32834463D01*
X6007515Y-32921592D01*
X6118408Y-33032485D01*
X6205537Y-33162883D01*
X6265552Y-33307772D01*
X6296148Y-33461586D01*
X6296148Y-33618414D01*
X6265552Y-33772228D01*
X6205537Y-33917117D01*
X6118408Y-34047515D01*
X6007515Y-34158408D01*
X5877117Y-34245537D01*
X5732228Y-34305552D01*
X5578414Y-34336148D01*
X5421586Y-34336148D01*
X5267772Y-34305552D01*
X5122883Y-34245537D01*
X4992485Y-34158408D01*
X4881592Y-34047515D01*
X4794463Y-33917117D01*
X4734448Y-33772228D01*
X4703852Y-33618414D01*
X4703852Y-33461586D01*
X4734448Y-33307772D01*
X4794463Y-33162883D01*
X4881592Y-33032485D01*
X4992485Y-32921592D01*
X5122883Y-32834463D01*
X5267772Y-32774448D01*
X5421586Y-32743852D01*
X5578414Y-32743852D01*
X5732228Y-32774448D01*
G37*
G36*
X13352228Y-32774448D02*
G01*
X13497117Y-32834463D01*
X13627515Y-32921592D01*
X13738408Y-33032485D01*
X13825537Y-33162883D01*
X13885552Y-33307772D01*
X13916148Y-33461586D01*
X13916148Y-33618414D01*
X13885552Y-33772228D01*
X13825537Y-33917117D01*
X13738408Y-34047515D01*
X13627515Y-34158408D01*
X13497117Y-34245537D01*
X13352228Y-34305552D01*
X13198414Y-34336148D01*
X13041586Y-34336148D01*
X12887772Y-34305552D01*
X12742883Y-34245537D01*
X12612485Y-34158408D01*
X12501592Y-34047515D01*
X12414463Y-33917117D01*
X12354448Y-33772228D01*
X12323852Y-33618414D01*
X12323852Y-33461586D01*
X12354448Y-33307772D01*
X12414463Y-33162883D01*
X12501592Y-33032485D01*
X12612485Y-32921592D01*
X12742883Y-32834463D01*
X12887772Y-32774448D01*
X13041586Y-32743852D01*
X13198414Y-32743852D01*
X13352228Y-32774448D01*
G37*
G36*
X54290285Y-32043060D02*
G01*
X54471397Y-32118079D01*
X54634393Y-32226990D01*
X54773010Y-32365607D01*
X54881921Y-32528603D01*
X54956940Y-32709715D01*
X54995185Y-32901983D01*
X54995185Y-33098017D01*
X54956940Y-33290285D01*
X54881921Y-33471397D01*
X54773010Y-33634393D01*
X54634393Y-33773010D01*
X54471397Y-33881921D01*
X54290285Y-33956940D01*
X54098017Y-33995185D01*
X53901983Y-33995185D01*
X53709715Y-33956940D01*
X53528603Y-33881921D01*
X53365607Y-33773010D01*
X53226990Y-33634393D01*
X53118079Y-33471397D01*
X53043060Y-33290285D01*
X53004815Y-33098017D01*
X53004815Y-32901983D01*
X53043060Y-32709715D01*
X53118079Y-32528603D01*
X53226990Y-32365607D01*
X53365607Y-32226990D01*
X53528603Y-32118079D01*
X53709715Y-32043060D01*
X53901983Y-32004815D01*
X54098017Y-32004815D01*
X54290285Y-32043060D01*
G37*
G36*
X69290285Y-32043060D02*
G01*
X69471397Y-32118079D01*
X69634393Y-32226990D01*
X69773010Y-32365607D01*
X69881921Y-32528603D01*
X69956940Y-32709715D01*
X69995185Y-32901983D01*
X69995185Y-33098017D01*
X69956940Y-33290285D01*
X69881921Y-33471397D01*
X69773010Y-33634393D01*
X69634393Y-33773010D01*
X69471397Y-33881921D01*
X69290285Y-33956940D01*
X69098017Y-33995185D01*
X68901983Y-33995185D01*
X68709715Y-33956940D01*
X68528603Y-33881921D01*
X68365607Y-33773010D01*
X68226990Y-33634393D01*
X68118079Y-33471397D01*
X68043060Y-33290285D01*
X68004815Y-33098017D01*
X68004815Y-32901983D01*
X68043060Y-32709715D01*
X68118079Y-32528603D01*
X68226990Y-32365607D01*
X68365607Y-32226990D01*
X68528603Y-32118079D01*
X68709715Y-32043060D01*
X68901983Y-32004815D01*
X69098017Y-32004815D01*
X69290285Y-32043060D01*
G37*
G36*
X74290285Y-32043060D02*
G01*
X74471397Y-32118079D01*
X74634393Y-32226990D01*
X74773010Y-32365607D01*
X74881921Y-32528603D01*
X74956940Y-32709715D01*
X74995185Y-32901983D01*
X74995185Y-33098017D01*
X74956940Y-33290285D01*
X74881921Y-33471397D01*
X74773010Y-33634393D01*
X74634393Y-33773010D01*
X74471397Y-33881921D01*
X74290285Y-33956940D01*
X74098017Y-33995185D01*
X73901983Y-33995185D01*
X73709715Y-33956940D01*
X73528603Y-33881921D01*
X73365607Y-33773010D01*
X73226990Y-33634393D01*
X73118079Y-33471397D01*
X73043060Y-33290285D01*
X73004815Y-33098017D01*
X73004815Y-32901983D01*
X73043060Y-32709715D01*
X73118079Y-32528603D01*
X73226990Y-32365607D01*
X73365607Y-32226990D01*
X73528603Y-32118079D01*
X73709715Y-32043060D01*
X73901983Y-32004815D01*
X74098017Y-32004815D01*
X74290285Y-32043060D01*
G37*
G36*
X79290285Y-32043060D02*
G01*
X79471397Y-32118079D01*
X79634393Y-32226990D01*
X79773010Y-32365607D01*
X79881921Y-32528603D01*
X79956940Y-32709715D01*
X79995185Y-32901983D01*
X79995185Y-33098017D01*
X79956940Y-33290285D01*
X79881921Y-33471397D01*
X79773010Y-33634393D01*
X79634393Y-33773010D01*
X79471397Y-33881921D01*
X79290285Y-33956940D01*
X79098017Y-33995185D01*
X78901983Y-33995185D01*
X78709715Y-33956940D01*
X78528603Y-33881921D01*
X78365607Y-33773010D01*
X78226990Y-33634393D01*
X78118079Y-33471397D01*
X78043060Y-33290285D01*
X78004815Y-33098017D01*
X78004815Y-32901983D01*
X78043060Y-32709715D01*
X78118079Y-32528603D01*
X78226990Y-32365607D01*
X78365607Y-32226990D01*
X78528603Y-32118079D01*
X78709715Y-32043060D01*
X78901983Y-32004815D01*
X79098017Y-32004815D01*
X79290285Y-32043060D01*
G37*
G36*
X97173513Y-30364208D02*
G01*
X97412293Y-30441793D01*
X97635998Y-30555776D01*
X97839117Y-30703350D01*
X98016650Y-30880883D01*
X98164224Y-31084002D01*
X98278207Y-31307707D01*
X98355792Y-31546487D01*
X98395068Y-31794465D01*
X98395068Y-32045535D01*
X98355792Y-32293513D01*
X98278207Y-32532293D01*
X98164224Y-32755998D01*
X98016650Y-32959117D01*
X97839117Y-33136650D01*
X97635998Y-33284224D01*
X97412293Y-33398207D01*
X97173513Y-33475792D01*
X96925535Y-33515068D01*
X96674465Y-33515068D01*
X96426487Y-33475792D01*
X96187707Y-33398207D01*
X95964002Y-33284224D01*
X95760883Y-33136650D01*
X95583350Y-32959117D01*
X95435776Y-32755998D01*
X95321793Y-32532293D01*
X95244208Y-32293513D01*
X95204932Y-32045535D01*
X95204932Y-31794465D01*
X95244208Y-31546487D01*
X95321793Y-31307707D01*
X95435776Y-31084002D01*
X95583350Y-30880883D01*
X95760883Y-30703350D01*
X95964002Y-30555776D01*
X96187707Y-30441793D01*
X96426487Y-30364208D01*
X96674465Y-30324932D01*
X96925535Y-30324932D01*
X97173513Y-30364208D01*
G37*
G36*
X6054047Y-30200805D02*
G01*
X6105408Y-30206764D01*
X6122954Y-30214511D01*
X6145671Y-30219030D01*
X6169991Y-30235280D01*
X6190793Y-30244465D01*
X6205000Y-30258672D01*
X6226777Y-30273223D01*
X6241327Y-30294999D01*
X6255534Y-30309206D01*
X6264718Y-30330006D01*
X6280970Y-30354329D01*
X6285489Y-30377048D01*
X6293235Y-30394591D01*
X6299192Y-30445940D01*
X6300000Y-30450000D01*
X6300000Y-31550000D01*
X6299192Y-31554059D01*
X6293235Y-31605408D01*
X6285489Y-31622950D01*
X6280970Y-31645671D01*
X6264716Y-31669995D01*
X6255534Y-31690793D01*
X6241329Y-31704997D01*
X6226777Y-31726777D01*
X6204997Y-31741329D01*
X6190793Y-31755534D01*
X6169995Y-31764716D01*
X6145671Y-31780970D01*
X6122950Y-31785489D01*
X6105408Y-31793235D01*
X6054061Y-31799192D01*
X6050000Y-31800000D01*
X4950000Y-31800000D01*
X4945941Y-31799192D01*
X4894591Y-31793235D01*
X4877048Y-31785489D01*
X4854329Y-31780970D01*
X4830006Y-31764718D01*
X4809206Y-31755534D01*
X4794999Y-31741327D01*
X4773223Y-31726777D01*
X4758672Y-31705000D01*
X4744465Y-31690793D01*
X4735280Y-31669991D01*
X4719030Y-31645671D01*
X4714511Y-31622954D01*
X4706764Y-31605408D01*
X4700805Y-31554049D01*
X4700000Y-31550000D01*
X4700000Y-30450000D01*
X4700804Y-30445953D01*
X4706764Y-30394591D01*
X4714511Y-30377043D01*
X4719030Y-30354329D01*
X4735278Y-30330010D01*
X4744465Y-30309206D01*
X4758674Y-30294996D01*
X4773223Y-30273223D01*
X4794996Y-30258674D01*
X4809206Y-30244465D01*
X4830010Y-30235278D01*
X4854329Y-30219030D01*
X4877043Y-30214511D01*
X4894591Y-30206764D01*
X4945952Y-30200805D01*
X4950000Y-30200000D01*
X6050000Y-30200000D01*
X6054047Y-30200805D01*
G37*
G36*
X13352228Y-30234448D02*
G01*
X13497117Y-30294463D01*
X13627515Y-30381592D01*
X13738408Y-30492485D01*
X13825537Y-30622883D01*
X13885552Y-30767772D01*
X13916148Y-30921586D01*
X13916148Y-31078414D01*
X13885552Y-31232228D01*
X13825537Y-31377117D01*
X13738408Y-31507515D01*
X13627515Y-31618408D01*
X13497117Y-31705537D01*
X13352228Y-31765552D01*
X13198414Y-31796148D01*
X13041586Y-31796148D01*
X12887772Y-31765552D01*
X12742883Y-31705537D01*
X12612485Y-31618408D01*
X12501592Y-31507515D01*
X12414463Y-31377117D01*
X12354448Y-31232228D01*
X12323852Y-31078414D01*
X12323852Y-30921586D01*
X12354448Y-30767772D01*
X12414463Y-30622883D01*
X12501592Y-30492485D01*
X12612485Y-30381592D01*
X12742883Y-30294463D01*
X12887772Y-30234448D01*
X13041586Y-30203852D01*
X13198414Y-30203852D01*
X13352228Y-30234448D01*
G37*
G36*
X42279047Y-29435805D02*
G01*
X42330408Y-29441764D01*
X42347954Y-29449511D01*
X42370671Y-29454030D01*
X42394991Y-29470280D01*
X42415793Y-29479465D01*
X42430000Y-29493672D01*
X42451777Y-29508223D01*
X42466327Y-29529999D01*
X42480534Y-29544206D01*
X42489718Y-29565006D01*
X42505970Y-29589329D01*
X42510489Y-29612048D01*
X42518235Y-29629591D01*
X42524192Y-29680940D01*
X42525000Y-29685000D01*
X42525000Y-30935000D01*
X42524192Y-30939059D01*
X42518235Y-30990408D01*
X42510489Y-31007950D01*
X42505970Y-31030671D01*
X42489716Y-31054995D01*
X42480534Y-31075793D01*
X42466329Y-31089997D01*
X42451777Y-31111777D01*
X42429997Y-31126329D01*
X42415793Y-31140534D01*
X42394995Y-31149716D01*
X42370671Y-31165970D01*
X42347950Y-31170489D01*
X42330408Y-31178235D01*
X42279061Y-31184192D01*
X42275000Y-31185000D01*
X41475000Y-31185000D01*
X41470941Y-31184192D01*
X41419591Y-31178235D01*
X41402048Y-31170489D01*
X41379329Y-31165970D01*
X41355006Y-31149718D01*
X41334206Y-31140534D01*
X41319999Y-31126327D01*
X41298223Y-31111777D01*
X41283672Y-31090000D01*
X41269465Y-31075793D01*
X41260280Y-31054991D01*
X41244030Y-31030671D01*
X41239511Y-31007954D01*
X41231764Y-30990408D01*
X41225805Y-30939049D01*
X41225000Y-30935000D01*
X41225000Y-29685000D01*
X41225804Y-29680953D01*
X41231764Y-29629591D01*
X41239511Y-29612043D01*
X41244030Y-29589329D01*
X41260278Y-29565010D01*
X41269465Y-29544206D01*
X41283674Y-29529996D01*
X41298223Y-29508223D01*
X41319996Y-29493674D01*
X41334206Y-29479465D01*
X41355010Y-29470278D01*
X41379329Y-29454030D01*
X41402043Y-29449511D01*
X41419591Y-29441764D01*
X41470952Y-29435805D01*
X41475000Y-29435000D01*
X42275000Y-29435000D01*
X42279047Y-29435805D01*
G37*
G36*
X45379047Y-29435805D02*
G01*
X45430408Y-29441764D01*
X45447954Y-29449511D01*
X45470671Y-29454030D01*
X45494991Y-29470280D01*
X45515793Y-29479465D01*
X45530000Y-29493672D01*
X45551777Y-29508223D01*
X45566327Y-29529999D01*
X45580534Y-29544206D01*
X45589718Y-29565006D01*
X45605970Y-29589329D01*
X45610489Y-29612048D01*
X45618235Y-29629591D01*
X45624192Y-29680940D01*
X45625000Y-29685000D01*
X45625000Y-30935000D01*
X45624192Y-30939059D01*
X45618235Y-30990408D01*
X45610489Y-31007950D01*
X45605970Y-31030671D01*
X45589716Y-31054995D01*
X45580534Y-31075793D01*
X45566329Y-31089997D01*
X45551777Y-31111777D01*
X45529997Y-31126329D01*
X45515793Y-31140534D01*
X45494995Y-31149716D01*
X45470671Y-31165970D01*
X45447950Y-31170489D01*
X45430408Y-31178235D01*
X45379061Y-31184192D01*
X45375000Y-31185000D01*
X44575000Y-31185000D01*
X44570941Y-31184192D01*
X44519591Y-31178235D01*
X44502048Y-31170489D01*
X44479329Y-31165970D01*
X44455006Y-31149718D01*
X44434206Y-31140534D01*
X44419999Y-31126327D01*
X44398223Y-31111777D01*
X44383672Y-31090000D01*
X44369465Y-31075793D01*
X44360280Y-31054991D01*
X44344030Y-31030671D01*
X44339511Y-31007954D01*
X44331764Y-30990408D01*
X44325805Y-30939049D01*
X44325000Y-30935000D01*
X44325000Y-29685000D01*
X44325804Y-29680953D01*
X44331764Y-29629591D01*
X44339511Y-29612043D01*
X44344030Y-29589329D01*
X44360278Y-29565010D01*
X44369465Y-29544206D01*
X44383674Y-29529996D01*
X44398223Y-29508223D01*
X44419996Y-29493674D01*
X44434206Y-29479465D01*
X44455010Y-29470278D01*
X44479329Y-29454030D01*
X44502043Y-29449511D01*
X44519591Y-29441764D01*
X44570952Y-29435805D01*
X44575000Y-29435000D01*
X45375000Y-29435000D01*
X45379047Y-29435805D01*
G37*
G36*
X50628047Y-29600805D02*
G01*
X50679408Y-29606764D01*
X50696954Y-29614511D01*
X50719671Y-29619030D01*
X50743991Y-29635280D01*
X50764793Y-29644465D01*
X50779000Y-29658672D01*
X50800777Y-29673223D01*
X50815327Y-29694999D01*
X50829534Y-29709206D01*
X50838718Y-29730006D01*
X50854970Y-29754329D01*
X50859489Y-29777048D01*
X50867235Y-29794591D01*
X50873192Y-29845940D01*
X50874000Y-29850000D01*
X50874000Y-30650000D01*
X50873192Y-30654059D01*
X50867235Y-30705408D01*
X50859489Y-30722950D01*
X50854970Y-30745671D01*
X50838716Y-30769995D01*
X50829534Y-30790793D01*
X50815329Y-30804997D01*
X50800777Y-30826777D01*
X50778997Y-30841329D01*
X50764793Y-30855534D01*
X50743995Y-30864716D01*
X50719671Y-30880970D01*
X50696950Y-30885489D01*
X50679408Y-30893235D01*
X50628061Y-30899192D01*
X50624000Y-30900000D01*
X49374000Y-30900000D01*
X49369941Y-30899192D01*
X49318591Y-30893235D01*
X49301048Y-30885489D01*
X49278329Y-30880970D01*
X49254006Y-30864718D01*
X49233206Y-30855534D01*
X49218999Y-30841327D01*
X49197223Y-30826777D01*
X49182672Y-30805000D01*
X49168465Y-30790793D01*
X49159280Y-30769991D01*
X49143030Y-30745671D01*
X49138511Y-30722954D01*
X49130764Y-30705408D01*
X49124805Y-30654049D01*
X49124000Y-30650000D01*
X49124000Y-29850000D01*
X49124804Y-29845953D01*
X49130764Y-29794591D01*
X49138511Y-29777043D01*
X49143030Y-29754329D01*
X49159278Y-29730010D01*
X49168465Y-29709206D01*
X49182674Y-29694996D01*
X49197223Y-29673223D01*
X49218996Y-29658674D01*
X49233206Y-29644465D01*
X49254010Y-29635278D01*
X49278329Y-29619030D01*
X49301043Y-29614511D01*
X49318591Y-29606764D01*
X49369952Y-29600805D01*
X49374000Y-29600000D01*
X50624000Y-29600000D01*
X50628047Y-29600805D01*
G37*
G36*
X87050000Y-30670000D02*
G01*
X82550000Y-30670000D01*
X82550000Y-26170000D01*
X87050000Y-26170000D01*
X87050000Y-30670000D01*
G37*
G36*
X50628047Y-26500805D02*
G01*
X50679408Y-26506764D01*
X50696954Y-26514511D01*
X50719671Y-26519030D01*
X50743991Y-26535280D01*
X50764793Y-26544465D01*
X50779000Y-26558672D01*
X50800777Y-26573223D01*
X50815327Y-26594999D01*
X50829534Y-26609206D01*
X50838718Y-26630006D01*
X50854970Y-26654329D01*
X50859489Y-26677048D01*
X50867235Y-26694591D01*
X50873192Y-26745940D01*
X50874000Y-26750000D01*
X50874000Y-27550000D01*
X50873192Y-27554059D01*
X50867235Y-27605408D01*
X50859489Y-27622950D01*
X50854970Y-27645671D01*
X50838716Y-27669995D01*
X50829534Y-27690793D01*
X50815329Y-27704997D01*
X50800777Y-27726777D01*
X50778997Y-27741329D01*
X50764793Y-27755534D01*
X50743995Y-27764716D01*
X50719671Y-27780970D01*
X50696950Y-27785489D01*
X50679408Y-27793235D01*
X50628061Y-27799192D01*
X50624000Y-27800000D01*
X49374000Y-27800000D01*
X49369941Y-27799192D01*
X49318591Y-27793235D01*
X49301048Y-27785489D01*
X49278329Y-27780970D01*
X49254006Y-27764718D01*
X49233206Y-27755534D01*
X49218999Y-27741327D01*
X49197223Y-27726777D01*
X49182672Y-27705000D01*
X49168465Y-27690793D01*
X49159280Y-27669991D01*
X49143030Y-27645671D01*
X49138511Y-27622954D01*
X49130764Y-27605408D01*
X49124805Y-27554049D01*
X49124000Y-27550000D01*
X49124000Y-26750000D01*
X49124804Y-26745953D01*
X49130764Y-26694591D01*
X49138511Y-26677043D01*
X49143030Y-26654329D01*
X49159278Y-26630010D01*
X49168465Y-26609206D01*
X49182674Y-26594996D01*
X49197223Y-26573223D01*
X49218996Y-26558674D01*
X49233206Y-26544465D01*
X49254010Y-26535278D01*
X49278329Y-26519030D01*
X49301043Y-26514511D01*
X49318591Y-26506764D01*
X49369952Y-26500805D01*
X49374000Y-26500000D01*
X50624000Y-26500000D01*
X50628047Y-26500805D01*
G37*
G36*
X85238953Y-18593233D02*
G01*
X85523239Y-18669407D01*
X85795150Y-18782036D01*
X86050033Y-18929193D01*
X86283528Y-19108360D01*
X86491640Y-19316472D01*
X86670807Y-19549967D01*
X86817964Y-19804850D01*
X86930593Y-20076761D01*
X87006767Y-20361047D01*
X87045183Y-20652843D01*
X87045183Y-20947157D01*
X87006767Y-21238953D01*
X86930593Y-21523239D01*
X86817964Y-21795150D01*
X86670807Y-22050033D01*
X86491640Y-22283528D01*
X86283528Y-22491640D01*
X86050033Y-22670807D01*
X85795150Y-22817964D01*
X85523239Y-22930593D01*
X85238953Y-23006767D01*
X84947157Y-23045183D01*
X84652843Y-23045183D01*
X84361047Y-23006767D01*
X84076761Y-22930593D01*
X83804850Y-22817964D01*
X83549967Y-22670807D01*
X83316472Y-22491640D01*
X83108360Y-22283528D01*
X82929193Y-22050033D01*
X82782036Y-21795150D01*
X82669407Y-21523239D01*
X82593233Y-21238953D01*
X82554817Y-20947157D01*
X82554817Y-20652843D01*
X82593233Y-20361047D01*
X82669407Y-20076761D01*
X82782036Y-19804850D01*
X82929193Y-19549967D01*
X83108360Y-19316472D01*
X83316472Y-19108360D01*
X83549967Y-18929193D01*
X83804850Y-18782036D01*
X84076761Y-18669407D01*
X84361047Y-18593233D01*
X84652843Y-18554817D01*
X84947157Y-18554817D01*
X85238953Y-18593233D01*
G37*
G36*
X9750000Y-20250000D02*
G01*
X8250000Y-20250000D01*
X8250000Y-18750000D01*
X9750000Y-18750000D01*
X9750000Y-20250000D01*
G37*
G36*
X11757714Y-18782295D02*
G01*
X11893548Y-18838559D01*
X12015795Y-18920242D01*
X12119758Y-19024205D01*
X12201441Y-19146452D01*
X12257705Y-19282286D01*
X12286389Y-19426487D01*
X12286389Y-19573513D01*
X12257705Y-19717714D01*
X12201441Y-19853548D01*
X12119758Y-19975795D01*
X12015795Y-20079758D01*
X11893548Y-20161441D01*
X11757714Y-20217705D01*
X11613513Y-20246389D01*
X11466487Y-20246389D01*
X11322286Y-20217705D01*
X11186452Y-20161441D01*
X11064205Y-20079758D01*
X10960242Y-19975795D01*
X10878559Y-19853548D01*
X10822295Y-19717714D01*
X10793611Y-19573513D01*
X10793611Y-19426487D01*
X10822295Y-19282286D01*
X10878559Y-19146452D01*
X10960242Y-19024205D01*
X11064205Y-18920242D01*
X11186452Y-18838559D01*
X11322286Y-18782295D01*
X11466487Y-18753611D01*
X11613513Y-18753611D01*
X11757714Y-18782295D01*
G37*
G36*
X14297714Y-18782295D02*
G01*
X14433548Y-18838559D01*
X14555795Y-18920242D01*
X14659758Y-19024205D01*
X14741441Y-19146452D01*
X14797705Y-19282286D01*
X14826389Y-19426487D01*
X14826389Y-19573513D01*
X14797705Y-19717714D01*
X14741441Y-19853548D01*
X14659758Y-19975795D01*
X14555795Y-20079758D01*
X14433548Y-20161441D01*
X14297714Y-20217705D01*
X14153513Y-20246389D01*
X14006487Y-20246389D01*
X13862286Y-20217705D01*
X13726452Y-20161441D01*
X13604205Y-20079758D01*
X13500242Y-19975795D01*
X13418559Y-19853548D01*
X13362295Y-19717714D01*
X13333611Y-19573513D01*
X13333611Y-19426487D01*
X13362295Y-19282286D01*
X13418559Y-19146452D01*
X13500242Y-19024205D01*
X13604205Y-18920242D01*
X13726452Y-18838559D01*
X13862286Y-18782295D01*
X14006487Y-18753611D01*
X14153513Y-18753611D01*
X14297714Y-18782295D01*
G37*
G36*
X43154047Y-18290805D02*
G01*
X43205408Y-18296764D01*
X43222954Y-18304511D01*
X43245671Y-18309030D01*
X43269991Y-18325280D01*
X43290793Y-18334465D01*
X43305000Y-18348672D01*
X43326777Y-18363223D01*
X43341327Y-18384999D01*
X43355534Y-18399206D01*
X43364718Y-18420006D01*
X43380970Y-18444329D01*
X43385489Y-18467048D01*
X43393235Y-18484591D01*
X43399192Y-18535940D01*
X43400000Y-18540000D01*
X43400000Y-19340000D01*
X43399192Y-19344059D01*
X43393235Y-19395408D01*
X43385489Y-19412950D01*
X43380970Y-19435671D01*
X43364716Y-19459995D01*
X43355534Y-19480793D01*
X43341329Y-19494997D01*
X43326777Y-19516777D01*
X43304997Y-19531329D01*
X43290793Y-19545534D01*
X43269995Y-19554716D01*
X43245671Y-19570970D01*
X43222950Y-19575489D01*
X43205408Y-19583235D01*
X43154061Y-19589192D01*
X43150000Y-19590000D01*
X41900000Y-19590000D01*
X41895941Y-19589192D01*
X41844591Y-19583235D01*
X41827048Y-19575489D01*
X41804329Y-19570970D01*
X41780006Y-19554718D01*
X41759206Y-19545534D01*
X41744999Y-19531327D01*
X41723223Y-19516777D01*
X41708672Y-19495000D01*
X41694465Y-19480793D01*
X41685280Y-19459991D01*
X41669030Y-19435671D01*
X41664511Y-19412954D01*
X41656764Y-19395408D01*
X41650805Y-19344049D01*
X41650000Y-19340000D01*
X41650000Y-18540000D01*
X41650804Y-18535953D01*
X41656764Y-18484591D01*
X41664511Y-18467043D01*
X41669030Y-18444329D01*
X41685278Y-18420010D01*
X41694465Y-18399206D01*
X41708674Y-18384996D01*
X41723223Y-18363223D01*
X41744996Y-18348674D01*
X41759206Y-18334465D01*
X41780010Y-18325278D01*
X41804329Y-18309030D01*
X41827043Y-18304511D01*
X41844591Y-18296764D01*
X41895952Y-18290805D01*
X41900000Y-18290000D01*
X43150000Y-18290000D01*
X43154047Y-18290805D01*
G37*
G36*
X35317047Y-17350805D02*
G01*
X35368408Y-17356764D01*
X35385954Y-17364511D01*
X35408671Y-17369030D01*
X35432991Y-17385280D01*
X35453793Y-17394465D01*
X35468000Y-17408672D01*
X35489777Y-17423223D01*
X35504327Y-17444999D01*
X35518534Y-17459206D01*
X35527718Y-17480006D01*
X35543970Y-17504329D01*
X35548489Y-17527048D01*
X35556235Y-17544591D01*
X35562192Y-17595940D01*
X35563000Y-17600000D01*
X35563000Y-18900000D01*
X35562192Y-18904059D01*
X35556235Y-18955408D01*
X35548489Y-18972950D01*
X35543970Y-18995671D01*
X35527716Y-19019995D01*
X35518534Y-19040793D01*
X35504329Y-19054997D01*
X35489777Y-19076777D01*
X35467997Y-19091329D01*
X35453793Y-19105534D01*
X35432995Y-19114716D01*
X35408671Y-19130970D01*
X35385950Y-19135489D01*
X35368408Y-19143235D01*
X35317061Y-19149192D01*
X35313000Y-19150000D01*
X34488000Y-19150000D01*
X34483941Y-19149192D01*
X34432591Y-19143235D01*
X34415048Y-19135489D01*
X34392329Y-19130970D01*
X34368006Y-19114718D01*
X34347206Y-19105534D01*
X34332999Y-19091327D01*
X34311223Y-19076777D01*
X34296672Y-19055000D01*
X34282465Y-19040793D01*
X34273280Y-19019991D01*
X34257030Y-18995671D01*
X34252511Y-18972954D01*
X34244764Y-18955408D01*
X34238805Y-18904049D01*
X34238000Y-18900000D01*
X34238000Y-17600000D01*
X34238804Y-17595953D01*
X34244764Y-17544591D01*
X34252511Y-17527043D01*
X34257030Y-17504329D01*
X34273278Y-17480010D01*
X34282465Y-17459206D01*
X34296674Y-17444996D01*
X34311223Y-17423223D01*
X34332996Y-17408674D01*
X34347206Y-17394465D01*
X34368010Y-17385278D01*
X34392329Y-17369030D01*
X34415043Y-17364511D01*
X34432591Y-17356764D01*
X34483952Y-17350805D01*
X34488000Y-17350000D01*
X35313000Y-17350000D01*
X35317047Y-17350805D01*
G37*
G36*
X38442047Y-17350805D02*
G01*
X38493408Y-17356764D01*
X38510954Y-17364511D01*
X38533671Y-17369030D01*
X38557991Y-17385280D01*
X38578793Y-17394465D01*
X38593000Y-17408672D01*
X38614777Y-17423223D01*
X38629327Y-17444999D01*
X38643534Y-17459206D01*
X38652718Y-17480006D01*
X38668970Y-17504329D01*
X38673489Y-17527048D01*
X38681235Y-17544591D01*
X38687192Y-17595940D01*
X38688000Y-17600000D01*
X38688000Y-18900000D01*
X38687192Y-18904059D01*
X38681235Y-18955408D01*
X38673489Y-18972950D01*
X38668970Y-18995671D01*
X38652716Y-19019995D01*
X38643534Y-19040793D01*
X38629329Y-19054997D01*
X38614777Y-19076777D01*
X38592997Y-19091329D01*
X38578793Y-19105534D01*
X38557995Y-19114716D01*
X38533671Y-19130970D01*
X38510950Y-19135489D01*
X38493408Y-19143235D01*
X38442061Y-19149192D01*
X38438000Y-19150000D01*
X37613000Y-19150000D01*
X37608941Y-19149192D01*
X37557591Y-19143235D01*
X37540048Y-19135489D01*
X37517329Y-19130970D01*
X37493006Y-19114718D01*
X37472206Y-19105534D01*
X37457999Y-19091327D01*
X37436223Y-19076777D01*
X37421672Y-19055000D01*
X37407465Y-19040793D01*
X37398280Y-19019991D01*
X37382030Y-18995671D01*
X37377511Y-18972954D01*
X37369764Y-18955408D01*
X37363805Y-18904049D01*
X37363000Y-18900000D01*
X37363000Y-17600000D01*
X37363804Y-17595953D01*
X37369764Y-17544591D01*
X37377511Y-17527043D01*
X37382030Y-17504329D01*
X37398278Y-17480010D01*
X37407465Y-17459206D01*
X37421674Y-17444996D01*
X37436223Y-17423223D01*
X37457996Y-17408674D01*
X37472206Y-17394465D01*
X37493010Y-17385278D01*
X37517329Y-17369030D01*
X37540043Y-17364511D01*
X37557591Y-17356764D01*
X37608952Y-17350805D01*
X37613000Y-17350000D01*
X38438000Y-17350000D01*
X38442047Y-17350805D01*
G37*
G36*
X97173513Y-15744208D02*
G01*
X97412293Y-15821793D01*
X97635998Y-15935776D01*
X97839117Y-16083350D01*
X98016650Y-16260883D01*
X98164224Y-16464002D01*
X98278207Y-16687707D01*
X98355792Y-16926487D01*
X98395068Y-17174465D01*
X98395068Y-17425535D01*
X98355792Y-17673513D01*
X98278207Y-17912293D01*
X98164224Y-18135998D01*
X98016650Y-18339117D01*
X97839117Y-18516650D01*
X97635998Y-18664224D01*
X97412293Y-18778207D01*
X97173513Y-18855792D01*
X96925535Y-18895068D01*
X96674465Y-18895068D01*
X96426487Y-18855792D01*
X96187707Y-18778207D01*
X95964002Y-18664224D01*
X95760883Y-18516650D01*
X95583350Y-18339117D01*
X95435776Y-18135998D01*
X95321793Y-17912293D01*
X95244208Y-17673513D01*
X95204932Y-17425535D01*
X95204932Y-17174465D01*
X95244208Y-16926487D01*
X95321793Y-16687707D01*
X95435776Y-16464002D01*
X95583350Y-16260883D01*
X95760883Y-16083350D01*
X95964002Y-15935776D01*
X96187707Y-15821793D01*
X96426487Y-15744208D01*
X96674465Y-15704932D01*
X96925535Y-15704932D01*
X97173513Y-15744208D01*
G37*
G36*
X43154047Y-15190805D02*
G01*
X43205408Y-15196764D01*
X43222954Y-15204511D01*
X43245671Y-15209030D01*
X43269991Y-15225280D01*
X43290793Y-15234465D01*
X43305000Y-15248672D01*
X43326777Y-15263223D01*
X43341327Y-15284999D01*
X43355534Y-15299206D01*
X43364718Y-15320006D01*
X43380970Y-15344329D01*
X43385489Y-15367048D01*
X43393235Y-15384591D01*
X43399192Y-15435940D01*
X43400000Y-15440000D01*
X43400000Y-16240000D01*
X43399192Y-16244059D01*
X43393235Y-16295408D01*
X43385489Y-16312950D01*
X43380970Y-16335671D01*
X43364716Y-16359995D01*
X43355534Y-16380793D01*
X43341329Y-16394997D01*
X43326777Y-16416777D01*
X43304997Y-16431329D01*
X43290793Y-16445534D01*
X43269995Y-16454716D01*
X43245671Y-16470970D01*
X43222950Y-16475489D01*
X43205408Y-16483235D01*
X43154061Y-16489192D01*
X43150000Y-16490000D01*
X41900000Y-16490000D01*
X41895941Y-16489192D01*
X41844591Y-16483235D01*
X41827048Y-16475489D01*
X41804329Y-16470970D01*
X41780006Y-16454718D01*
X41759206Y-16445534D01*
X41744999Y-16431327D01*
X41723223Y-16416777D01*
X41708672Y-16395000D01*
X41694465Y-16380793D01*
X41685280Y-16359991D01*
X41669030Y-16335671D01*
X41664511Y-16312954D01*
X41656764Y-16295408D01*
X41650805Y-16244049D01*
X41650000Y-16240000D01*
X41650000Y-15440000D01*
X41650804Y-15435953D01*
X41656764Y-15384591D01*
X41664511Y-15367043D01*
X41669030Y-15344329D01*
X41685278Y-15320010D01*
X41694465Y-15299206D01*
X41708674Y-15284996D01*
X41723223Y-15263223D01*
X41744996Y-15248674D01*
X41759206Y-15234465D01*
X41780010Y-15225278D01*
X41804329Y-15209030D01*
X41827043Y-15204511D01*
X41844591Y-15196764D01*
X41895952Y-15190805D01*
X41900000Y-15190000D01*
X43150000Y-15190000D01*
X43154047Y-15190805D01*
G37*
G36*
X18214047Y-12480805D02*
G01*
X18265408Y-12486764D01*
X18282954Y-12494511D01*
X18305671Y-12499030D01*
X18329991Y-12515280D01*
X18350793Y-12524465D01*
X18365000Y-12538672D01*
X18386777Y-12553223D01*
X18401327Y-12574999D01*
X18415534Y-12589206D01*
X18424718Y-12610006D01*
X18440970Y-12634329D01*
X18445489Y-12657048D01*
X18453235Y-12674591D01*
X18459192Y-12725940D01*
X18460000Y-12730000D01*
X18460000Y-13930000D01*
X18459192Y-13934059D01*
X18453235Y-13985408D01*
X18445489Y-14002950D01*
X18440970Y-14025671D01*
X18424716Y-14049995D01*
X18415534Y-14070793D01*
X18401329Y-14084997D01*
X18386777Y-14106777D01*
X18364997Y-14121329D01*
X18350793Y-14135534D01*
X18329995Y-14144716D01*
X18305671Y-14160970D01*
X18282950Y-14165489D01*
X18265408Y-14173235D01*
X18214061Y-14179192D01*
X18210000Y-14180000D01*
X17010000Y-14180000D01*
X17005941Y-14179192D01*
X16954591Y-14173235D01*
X16937048Y-14165489D01*
X16914329Y-14160970D01*
X16890006Y-14144718D01*
X16869206Y-14135534D01*
X16854999Y-14121327D01*
X16833223Y-14106777D01*
X16818672Y-14085000D01*
X16804465Y-14070793D01*
X16795280Y-14049991D01*
X16779030Y-14025671D01*
X16774511Y-14002954D01*
X16766764Y-13985408D01*
X16760805Y-13934049D01*
X16760000Y-13930000D01*
X16760000Y-12730000D01*
X16760804Y-12725953D01*
X16766764Y-12674591D01*
X16774511Y-12657043D01*
X16779030Y-12634329D01*
X16795278Y-12610010D01*
X16804465Y-12589206D01*
X16818674Y-12574996D01*
X16833223Y-12553223D01*
X16854996Y-12538674D01*
X16869206Y-12524465D01*
X16890010Y-12515278D01*
X16914329Y-12499030D01*
X16937043Y-12494511D01*
X16954591Y-12486764D01*
X17005952Y-12480805D01*
X17010000Y-12480000D01*
X18210000Y-12480000D01*
X18214047Y-12480805D01*
G37*
G36*
X71714047Y-12480805D02*
G01*
X71765408Y-12486764D01*
X71782954Y-12494511D01*
X71805671Y-12499030D01*
X71829991Y-12515280D01*
X71850793Y-12524465D01*
X71865000Y-12538672D01*
X71886777Y-12553223D01*
X71901327Y-12574999D01*
X71915534Y-12589206D01*
X71924718Y-12610006D01*
X71940970Y-12634329D01*
X71945489Y-12657048D01*
X71953235Y-12674591D01*
X71959192Y-12725940D01*
X71960000Y-12730000D01*
X71960000Y-13930000D01*
X71959192Y-13934059D01*
X71953235Y-13985408D01*
X71945489Y-14002950D01*
X71940970Y-14025671D01*
X71924716Y-14049995D01*
X71915534Y-14070793D01*
X71901329Y-14084997D01*
X71886777Y-14106777D01*
X71864997Y-14121329D01*
X71850793Y-14135534D01*
X71829995Y-14144716D01*
X71805671Y-14160970D01*
X71782950Y-14165489D01*
X71765408Y-14173235D01*
X71714061Y-14179192D01*
X71710000Y-14180000D01*
X70510000Y-14180000D01*
X70505941Y-14179192D01*
X70454591Y-14173235D01*
X70437048Y-14165489D01*
X70414329Y-14160970D01*
X70390006Y-14144718D01*
X70369206Y-14135534D01*
X70354999Y-14121327D01*
X70333223Y-14106777D01*
X70318672Y-14085000D01*
X70304465Y-14070793D01*
X70295280Y-14049991D01*
X70279030Y-14025671D01*
X70274511Y-14002954D01*
X70266764Y-13985408D01*
X70260805Y-13934049D01*
X70260000Y-13930000D01*
X70260000Y-12730000D01*
X70260804Y-12725953D01*
X70266764Y-12674591D01*
X70274511Y-12657043D01*
X70279030Y-12634329D01*
X70295278Y-12610010D01*
X70304465Y-12589206D01*
X70318674Y-12574996D01*
X70333223Y-12553223D01*
X70354996Y-12538674D01*
X70369206Y-12524465D01*
X70390010Y-12515278D01*
X70414329Y-12499030D01*
X70437043Y-12494511D01*
X70454591Y-12486764D01*
X70505952Y-12480805D01*
X70510000Y-12480000D01*
X71710000Y-12480000D01*
X71714047Y-12480805D01*
G37*
G36*
X20396742Y-12516601D02*
G01*
X20550687Y-12580367D01*
X20689234Y-12672941D01*
X20807059Y-12790766D01*
X20899633Y-12929313D01*
X20963399Y-13083258D01*
X20995907Y-13246685D01*
X20995907Y-13413315D01*
X20963399Y-13576742D01*
X20899633Y-13730687D01*
X20807059Y-13869234D01*
X20689234Y-13987059D01*
X20550687Y-14079633D01*
X20396742Y-14143399D01*
X20233315Y-14175907D01*
X20066685Y-14175907D01*
X19903258Y-14143399D01*
X19749313Y-14079633D01*
X19610766Y-13987059D01*
X19492941Y-13869234D01*
X19400367Y-13730687D01*
X19336601Y-13576742D01*
X19304093Y-13413315D01*
X19304093Y-13246685D01*
X19336601Y-13083258D01*
X19400367Y-12929313D01*
X19492941Y-12790766D01*
X19610766Y-12672941D01*
X19749313Y-12580367D01*
X19903258Y-12516601D01*
X20066685Y-12484093D01*
X20233315Y-12484093D01*
X20396742Y-12516601D01*
G37*
G36*
X22936742Y-12516601D02*
G01*
X23090687Y-12580367D01*
X23229234Y-12672941D01*
X23347059Y-12790766D01*
X23439633Y-12929313D01*
X23503399Y-13083258D01*
X23535907Y-13246685D01*
X23535907Y-13413315D01*
X23503399Y-13576742D01*
X23439633Y-13730687D01*
X23347059Y-13869234D01*
X23229234Y-13987059D01*
X23090687Y-14079633D01*
X22936742Y-14143399D01*
X22773315Y-14175907D01*
X22606685Y-14175907D01*
X22443258Y-14143399D01*
X22289313Y-14079633D01*
X22150766Y-13987059D01*
X22032941Y-13869234D01*
X21940367Y-13730687D01*
X21876601Y-13576742D01*
X21844093Y-13413315D01*
X21844093Y-13246685D01*
X21876601Y-13083258D01*
X21940367Y-12929313D01*
X22032941Y-12790766D01*
X22150766Y-12672941D01*
X22289313Y-12580367D01*
X22443258Y-12516601D01*
X22606685Y-12484093D01*
X22773315Y-12484093D01*
X22936742Y-12516601D01*
G37*
G36*
X25476742Y-12516601D02*
G01*
X25630687Y-12580367D01*
X25769234Y-12672941D01*
X25887059Y-12790766D01*
X25979633Y-12929313D01*
X26043399Y-13083258D01*
X26075907Y-13246685D01*
X26075907Y-13413315D01*
X26043399Y-13576742D01*
X25979633Y-13730687D01*
X25887059Y-13869234D01*
X25769234Y-13987059D01*
X25630687Y-14079633D01*
X25476742Y-14143399D01*
X25313315Y-14175907D01*
X25146685Y-14175907D01*
X24983258Y-14143399D01*
X24829313Y-14079633D01*
X24690766Y-13987059D01*
X24572941Y-13869234D01*
X24480367Y-13730687D01*
X24416601Y-13576742D01*
X24384093Y-13413315D01*
X24384093Y-13246685D01*
X24416601Y-13083258D01*
X24480367Y-12929313D01*
X24572941Y-12790766D01*
X24690766Y-12672941D01*
X24829313Y-12580367D01*
X24983258Y-12516601D01*
X25146685Y-12484093D01*
X25313315Y-12484093D01*
X25476742Y-12516601D01*
G37*
G36*
X28016742Y-12516601D02*
G01*
X28170687Y-12580367D01*
X28309234Y-12672941D01*
X28427059Y-12790766D01*
X28519633Y-12929313D01*
X28583399Y-13083258D01*
X28615907Y-13246685D01*
X28615907Y-13413315D01*
X28583399Y-13576742D01*
X28519633Y-13730687D01*
X28427059Y-13869234D01*
X28309234Y-13987059D01*
X28170687Y-14079633D01*
X28016742Y-14143399D01*
X27853315Y-14175907D01*
X27686685Y-14175907D01*
X27523258Y-14143399D01*
X27369313Y-14079633D01*
X27230766Y-13987059D01*
X27112941Y-13869234D01*
X27020367Y-13730687D01*
X26956601Y-13576742D01*
X26924093Y-13413315D01*
X26924093Y-13246685D01*
X26956601Y-13083258D01*
X27020367Y-12929313D01*
X27112941Y-12790766D01*
X27230766Y-12672941D01*
X27369313Y-12580367D01*
X27523258Y-12516601D01*
X27686685Y-12484093D01*
X27853315Y-12484093D01*
X28016742Y-12516601D01*
G37*
G36*
X30556742Y-12516601D02*
G01*
X30710687Y-12580367D01*
X30849234Y-12672941D01*
X30967059Y-12790766D01*
X31059633Y-12929313D01*
X31123399Y-13083258D01*
X31155907Y-13246685D01*
X31155907Y-13413315D01*
X31123399Y-13576742D01*
X31059633Y-13730687D01*
X30967059Y-13869234D01*
X30849234Y-13987059D01*
X30710687Y-14079633D01*
X30556742Y-14143399D01*
X30393315Y-14175907D01*
X30226685Y-14175907D01*
X30063258Y-14143399D01*
X29909313Y-14079633D01*
X29770766Y-13987059D01*
X29652941Y-13869234D01*
X29560367Y-13730687D01*
X29496601Y-13576742D01*
X29464093Y-13413315D01*
X29464093Y-13246685D01*
X29496601Y-13083258D01*
X29560367Y-12929313D01*
X29652941Y-12790766D01*
X29770766Y-12672941D01*
X29909313Y-12580367D01*
X30063258Y-12516601D01*
X30226685Y-12484093D01*
X30393315Y-12484093D01*
X30556742Y-12516601D01*
G37*
G36*
X33096742Y-12516601D02*
G01*
X33250687Y-12580367D01*
X33389234Y-12672941D01*
X33507059Y-12790766D01*
X33599633Y-12929313D01*
X33663399Y-13083258D01*
X33695907Y-13246685D01*
X33695907Y-13413315D01*
X33663399Y-13576742D01*
X33599633Y-13730687D01*
X33507059Y-13869234D01*
X33389234Y-13987059D01*
X33250687Y-14079633D01*
X33096742Y-14143399D01*
X32933315Y-14175907D01*
X32766685Y-14175907D01*
X32603258Y-14143399D01*
X32449313Y-14079633D01*
X32310766Y-13987059D01*
X32192941Y-13869234D01*
X32100367Y-13730687D01*
X32036601Y-13576742D01*
X32004093Y-13413315D01*
X32004093Y-13246685D01*
X32036601Y-13083258D01*
X32100367Y-12929313D01*
X32192941Y-12790766D01*
X32310766Y-12672941D01*
X32449313Y-12580367D01*
X32603258Y-12516601D01*
X32766685Y-12484093D01*
X32933315Y-12484093D01*
X33096742Y-12516601D01*
G37*
G36*
X35636742Y-12516601D02*
G01*
X35790687Y-12580367D01*
X35929234Y-12672941D01*
X36047059Y-12790766D01*
X36139633Y-12929313D01*
X36203399Y-13083258D01*
X36235907Y-13246685D01*
X36235907Y-13413315D01*
X36203399Y-13576742D01*
X36139633Y-13730687D01*
X36047059Y-13869234D01*
X35929234Y-13987059D01*
X35790687Y-14079633D01*
X35636742Y-14143399D01*
X35473315Y-14175907D01*
X35306685Y-14175907D01*
X35143258Y-14143399D01*
X34989313Y-14079633D01*
X34850766Y-13987059D01*
X34732941Y-13869234D01*
X34640367Y-13730687D01*
X34576601Y-13576742D01*
X34544093Y-13413315D01*
X34544093Y-13246685D01*
X34576601Y-13083258D01*
X34640367Y-12929313D01*
X34732941Y-12790766D01*
X34850766Y-12672941D01*
X34989313Y-12580367D01*
X35143258Y-12516601D01*
X35306685Y-12484093D01*
X35473315Y-12484093D01*
X35636742Y-12516601D01*
G37*
G36*
X73896742Y-12516601D02*
G01*
X74050687Y-12580367D01*
X74189234Y-12672941D01*
X74307059Y-12790766D01*
X74399633Y-12929313D01*
X74463399Y-13083258D01*
X74495907Y-13246685D01*
X74495907Y-13413315D01*
X74463399Y-13576742D01*
X74399633Y-13730687D01*
X74307059Y-13869234D01*
X74189234Y-13987059D01*
X74050687Y-14079633D01*
X73896742Y-14143399D01*
X73733315Y-14175907D01*
X73566685Y-14175907D01*
X73403258Y-14143399D01*
X73249313Y-14079633D01*
X73110766Y-13987059D01*
X72992941Y-13869234D01*
X72900367Y-13730687D01*
X72836601Y-13576742D01*
X72804093Y-13413315D01*
X72804093Y-13246685D01*
X72836601Y-13083258D01*
X72900367Y-12929313D01*
X72992941Y-12790766D01*
X73110766Y-12672941D01*
X73249313Y-12580367D01*
X73403258Y-12516601D01*
X73566685Y-12484093D01*
X73733315Y-12484093D01*
X73896742Y-12516601D01*
G37*
G36*
X76436742Y-12516601D02*
G01*
X76590687Y-12580367D01*
X76729234Y-12672941D01*
X76847059Y-12790766D01*
X76939633Y-12929313D01*
X77003399Y-13083258D01*
X77035907Y-13246685D01*
X77035907Y-13413315D01*
X77003399Y-13576742D01*
X76939633Y-13730687D01*
X76847059Y-13869234D01*
X76729234Y-13987059D01*
X76590687Y-14079633D01*
X76436742Y-14143399D01*
X76273315Y-14175907D01*
X76106685Y-14175907D01*
X75943258Y-14143399D01*
X75789313Y-14079633D01*
X75650766Y-13987059D01*
X75532941Y-13869234D01*
X75440367Y-13730687D01*
X75376601Y-13576742D01*
X75344093Y-13413315D01*
X75344093Y-13246685D01*
X75376601Y-13083258D01*
X75440367Y-12929313D01*
X75532941Y-12790766D01*
X75650766Y-12672941D01*
X75789313Y-12580367D01*
X75943258Y-12516601D01*
X76106685Y-12484093D01*
X76273315Y-12484093D01*
X76436742Y-12516601D01*
G37*
G36*
X78976742Y-12516601D02*
G01*
X79130687Y-12580367D01*
X79269234Y-12672941D01*
X79387059Y-12790766D01*
X79479633Y-12929313D01*
X79543399Y-13083258D01*
X79575907Y-13246685D01*
X79575907Y-13413315D01*
X79543399Y-13576742D01*
X79479633Y-13730687D01*
X79387059Y-13869234D01*
X79269234Y-13987059D01*
X79130687Y-14079633D01*
X78976742Y-14143399D01*
X78813315Y-14175907D01*
X78646685Y-14175907D01*
X78483258Y-14143399D01*
X78329313Y-14079633D01*
X78190766Y-13987059D01*
X78072941Y-13869234D01*
X77980367Y-13730687D01*
X77916601Y-13576742D01*
X77884093Y-13413315D01*
X77884093Y-13246685D01*
X77916601Y-13083258D01*
X77980367Y-12929313D01*
X78072941Y-12790766D01*
X78190766Y-12672941D01*
X78329313Y-12580367D01*
X78483258Y-12516601D01*
X78646685Y-12484093D01*
X78813315Y-12484093D01*
X78976742Y-12516601D01*
G37*
G36*
X81516742Y-12516601D02*
G01*
X81670687Y-12580367D01*
X81809234Y-12672941D01*
X81927059Y-12790766D01*
X82019633Y-12929313D01*
X82083399Y-13083258D01*
X82115907Y-13246685D01*
X82115907Y-13413315D01*
X82083399Y-13576742D01*
X82019633Y-13730687D01*
X81927059Y-13869234D01*
X81809234Y-13987059D01*
X81670687Y-14079633D01*
X81516742Y-14143399D01*
X81353315Y-14175907D01*
X81186685Y-14175907D01*
X81023258Y-14143399D01*
X80869313Y-14079633D01*
X80730766Y-13987059D01*
X80612941Y-13869234D01*
X80520367Y-13730687D01*
X80456601Y-13576742D01*
X80424093Y-13413315D01*
X80424093Y-13246685D01*
X80456601Y-13083258D01*
X80520367Y-12929313D01*
X80612941Y-12790766D01*
X80730766Y-12672941D01*
X80869313Y-12580367D01*
X81023258Y-12516601D01*
X81186685Y-12484093D01*
X81353315Y-12484093D01*
X81516742Y-12516601D01*
G37*
G36*
X84056742Y-12516601D02*
G01*
X84210687Y-12580367D01*
X84349234Y-12672941D01*
X84467059Y-12790766D01*
X84559633Y-12929313D01*
X84623399Y-13083258D01*
X84655907Y-13246685D01*
X84655907Y-13413315D01*
X84623399Y-13576742D01*
X84559633Y-13730687D01*
X84467059Y-13869234D01*
X84349234Y-13987059D01*
X84210687Y-14079633D01*
X84056742Y-14143399D01*
X83893315Y-14175907D01*
X83726685Y-14175907D01*
X83563258Y-14143399D01*
X83409313Y-14079633D01*
X83270766Y-13987059D01*
X83152941Y-13869234D01*
X83060367Y-13730687D01*
X82996601Y-13576742D01*
X82964093Y-13413315D01*
X82964093Y-13246685D01*
X82996601Y-13083258D01*
X83060367Y-12929313D01*
X83152941Y-12790766D01*
X83270766Y-12672941D01*
X83409313Y-12580367D01*
X83563258Y-12516601D01*
X83726685Y-12484093D01*
X83893315Y-12484093D01*
X84056742Y-12516601D01*
G37*
G36*
X86596742Y-12516601D02*
G01*
X86750687Y-12580367D01*
X86889234Y-12672941D01*
X87007059Y-12790766D01*
X87099633Y-12929313D01*
X87163399Y-13083258D01*
X87195907Y-13246685D01*
X87195907Y-13413315D01*
X87163399Y-13576742D01*
X87099633Y-13730687D01*
X87007059Y-13869234D01*
X86889234Y-13987059D01*
X86750687Y-14079633D01*
X86596742Y-14143399D01*
X86433315Y-14175907D01*
X86266685Y-14175907D01*
X86103258Y-14143399D01*
X85949313Y-14079633D01*
X85810766Y-13987059D01*
X85692941Y-13869234D01*
X85600367Y-13730687D01*
X85536601Y-13576742D01*
X85504093Y-13413315D01*
X85504093Y-13246685D01*
X85536601Y-13083258D01*
X85600367Y-12929313D01*
X85692941Y-12790766D01*
X85810766Y-12672941D01*
X85949313Y-12580367D01*
X86103258Y-12516601D01*
X86266685Y-12484093D01*
X86433315Y-12484093D01*
X86596742Y-12516601D01*
G37*
G36*
X89136742Y-12516601D02*
G01*
X89290687Y-12580367D01*
X89429234Y-12672941D01*
X89547059Y-12790766D01*
X89639633Y-12929313D01*
X89703399Y-13083258D01*
X89735907Y-13246685D01*
X89735907Y-13413315D01*
X89703399Y-13576742D01*
X89639633Y-13730687D01*
X89547059Y-13869234D01*
X89429234Y-13987059D01*
X89290687Y-14079633D01*
X89136742Y-14143399D01*
X88973315Y-14175907D01*
X88806685Y-14175907D01*
X88643258Y-14143399D01*
X88489313Y-14079633D01*
X88350766Y-13987059D01*
X88232941Y-13869234D01*
X88140367Y-13730687D01*
X88076601Y-13576742D01*
X88044093Y-13413315D01*
X88044093Y-13246685D01*
X88076601Y-13083258D01*
X88140367Y-12929313D01*
X88232941Y-12790766D01*
X88350766Y-12672941D01*
X88489313Y-12580367D01*
X88643258Y-12516601D01*
X88806685Y-12484093D01*
X88973315Y-12484093D01*
X89136742Y-12516601D01*
G37*
G36*
X17856742Y-9976601D02*
G01*
X18010687Y-10040367D01*
X18149234Y-10132941D01*
X18267059Y-10250766D01*
X18359633Y-10389313D01*
X18423399Y-10543258D01*
X18455907Y-10706685D01*
X18455907Y-10873315D01*
X18423399Y-11036742D01*
X18359633Y-11190687D01*
X18267059Y-11329234D01*
X18149234Y-11447059D01*
X18010687Y-11539633D01*
X17856742Y-11603399D01*
X17693315Y-11635907D01*
X17526685Y-11635907D01*
X17363258Y-11603399D01*
X17209313Y-11539633D01*
X17070766Y-11447059D01*
X16952941Y-11329234D01*
X16860367Y-11190687D01*
X16796601Y-11036742D01*
X16764093Y-10873315D01*
X16764093Y-10706685D01*
X16796601Y-10543258D01*
X16860367Y-10389313D01*
X16952941Y-10250766D01*
X17070766Y-10132941D01*
X17209313Y-10040367D01*
X17363258Y-9976601D01*
X17526685Y-9944093D01*
X17693315Y-9944093D01*
X17856742Y-9976601D01*
G37*
G36*
X20396742Y-9976601D02*
G01*
X20550687Y-10040367D01*
X20689234Y-10132941D01*
X20807059Y-10250766D01*
X20899633Y-10389313D01*
X20963399Y-10543258D01*
X20995907Y-10706685D01*
X20995907Y-10873315D01*
X20963399Y-11036742D01*
X20899633Y-11190687D01*
X20807059Y-11329234D01*
X20689234Y-11447059D01*
X20550687Y-11539633D01*
X20396742Y-11603399D01*
X20233315Y-11635907D01*
X20066685Y-11635907D01*
X19903258Y-11603399D01*
X19749313Y-11539633D01*
X19610766Y-11447059D01*
X19492941Y-11329234D01*
X19400367Y-11190687D01*
X19336601Y-11036742D01*
X19304093Y-10873315D01*
X19304093Y-10706685D01*
X19336601Y-10543258D01*
X19400367Y-10389313D01*
X19492941Y-10250766D01*
X19610766Y-10132941D01*
X19749313Y-10040367D01*
X19903258Y-9976601D01*
X20066685Y-9944093D01*
X20233315Y-9944093D01*
X20396742Y-9976601D01*
G37*
G36*
X22936742Y-9976601D02*
G01*
X23090687Y-10040367D01*
X23229234Y-10132941D01*
X23347059Y-10250766D01*
X23439633Y-10389313D01*
X23503399Y-10543258D01*
X23535907Y-10706685D01*
X23535907Y-10873315D01*
X23503399Y-11036742D01*
X23439633Y-11190687D01*
X23347059Y-11329234D01*
X23229234Y-11447059D01*
X23090687Y-11539633D01*
X22936742Y-11603399D01*
X22773315Y-11635907D01*
X22606685Y-11635907D01*
X22443258Y-11603399D01*
X22289313Y-11539633D01*
X22150766Y-11447059D01*
X22032941Y-11329234D01*
X21940367Y-11190687D01*
X21876601Y-11036742D01*
X21844093Y-10873315D01*
X21844093Y-10706685D01*
X21876601Y-10543258D01*
X21940367Y-10389313D01*
X22032941Y-10250766D01*
X22150766Y-10132941D01*
X22289313Y-10040367D01*
X22443258Y-9976601D01*
X22606685Y-9944093D01*
X22773315Y-9944093D01*
X22936742Y-9976601D01*
G37*
G36*
X25476742Y-9976601D02*
G01*
X25630687Y-10040367D01*
X25769234Y-10132941D01*
X25887059Y-10250766D01*
X25979633Y-10389313D01*
X26043399Y-10543258D01*
X26075907Y-10706685D01*
X26075907Y-10873315D01*
X26043399Y-11036742D01*
X25979633Y-11190687D01*
X25887059Y-11329234D01*
X25769234Y-11447059D01*
X25630687Y-11539633D01*
X25476742Y-11603399D01*
X25313315Y-11635907D01*
X25146685Y-11635907D01*
X24983258Y-11603399D01*
X24829313Y-11539633D01*
X24690766Y-11447059D01*
X24572941Y-11329234D01*
X24480367Y-11190687D01*
X24416601Y-11036742D01*
X24384093Y-10873315D01*
X24384093Y-10706685D01*
X24416601Y-10543258D01*
X24480367Y-10389313D01*
X24572941Y-10250766D01*
X24690766Y-10132941D01*
X24829313Y-10040367D01*
X24983258Y-9976601D01*
X25146685Y-9944093D01*
X25313315Y-9944093D01*
X25476742Y-9976601D01*
G37*
G36*
X28016742Y-9976601D02*
G01*
X28170687Y-10040367D01*
X28309234Y-10132941D01*
X28427059Y-10250766D01*
X28519633Y-10389313D01*
X28583399Y-10543258D01*
X28615907Y-10706685D01*
X28615907Y-10873315D01*
X28583399Y-11036742D01*
X28519633Y-11190687D01*
X28427059Y-11329234D01*
X28309234Y-11447059D01*
X28170687Y-11539633D01*
X28016742Y-11603399D01*
X27853315Y-11635907D01*
X27686685Y-11635907D01*
X27523258Y-11603399D01*
X27369313Y-11539633D01*
X27230766Y-11447059D01*
X27112941Y-11329234D01*
X27020367Y-11190687D01*
X26956601Y-11036742D01*
X26924093Y-10873315D01*
X26924093Y-10706685D01*
X26956601Y-10543258D01*
X27020367Y-10389313D01*
X27112941Y-10250766D01*
X27230766Y-10132941D01*
X27369313Y-10040367D01*
X27523258Y-9976601D01*
X27686685Y-9944093D01*
X27853315Y-9944093D01*
X28016742Y-9976601D01*
G37*
G36*
X30556742Y-9976601D02*
G01*
X30710687Y-10040367D01*
X30849234Y-10132941D01*
X30967059Y-10250766D01*
X31059633Y-10389313D01*
X31123399Y-10543258D01*
X31155907Y-10706685D01*
X31155907Y-10873315D01*
X31123399Y-11036742D01*
X31059633Y-11190687D01*
X30967059Y-11329234D01*
X30849234Y-11447059D01*
X30710687Y-11539633D01*
X30556742Y-11603399D01*
X30393315Y-11635907D01*
X30226685Y-11635907D01*
X30063258Y-11603399D01*
X29909313Y-11539633D01*
X29770766Y-11447059D01*
X29652941Y-11329234D01*
X29560367Y-11190687D01*
X29496601Y-11036742D01*
X29464093Y-10873315D01*
X29464093Y-10706685D01*
X29496601Y-10543258D01*
X29560367Y-10389313D01*
X29652941Y-10250766D01*
X29770766Y-10132941D01*
X29909313Y-10040367D01*
X30063258Y-9976601D01*
X30226685Y-9944093D01*
X30393315Y-9944093D01*
X30556742Y-9976601D01*
G37*
G36*
X33096742Y-9976601D02*
G01*
X33250687Y-10040367D01*
X33389234Y-10132941D01*
X33507059Y-10250766D01*
X33599633Y-10389313D01*
X33663399Y-10543258D01*
X33695907Y-10706685D01*
X33695907Y-10873315D01*
X33663399Y-11036742D01*
X33599633Y-11190687D01*
X33507059Y-11329234D01*
X33389234Y-11447059D01*
X33250687Y-11539633D01*
X33096742Y-11603399D01*
X32933315Y-11635907D01*
X32766685Y-11635907D01*
X32603258Y-11603399D01*
X32449313Y-11539633D01*
X32310766Y-11447059D01*
X32192941Y-11329234D01*
X32100367Y-11190687D01*
X32036601Y-11036742D01*
X32004093Y-10873315D01*
X32004093Y-10706685D01*
X32036601Y-10543258D01*
X32100367Y-10389313D01*
X32192941Y-10250766D01*
X32310766Y-10132941D01*
X32449313Y-10040367D01*
X32603258Y-9976601D01*
X32766685Y-9944093D01*
X32933315Y-9944093D01*
X33096742Y-9976601D01*
G37*
G36*
X35636742Y-9976601D02*
G01*
X35790687Y-10040367D01*
X35929234Y-10132941D01*
X36047059Y-10250766D01*
X36139633Y-10389313D01*
X36203399Y-10543258D01*
X36235907Y-10706685D01*
X36235907Y-10873315D01*
X36203399Y-11036742D01*
X36139633Y-11190687D01*
X36047059Y-11329234D01*
X35929234Y-11447059D01*
X35790687Y-11539633D01*
X35636742Y-11603399D01*
X35473315Y-11635907D01*
X35306685Y-11635907D01*
X35143258Y-11603399D01*
X34989313Y-11539633D01*
X34850766Y-11447059D01*
X34732941Y-11329234D01*
X34640367Y-11190687D01*
X34576601Y-11036742D01*
X34544093Y-10873315D01*
X34544093Y-10706685D01*
X34576601Y-10543258D01*
X34640367Y-10389313D01*
X34732941Y-10250766D01*
X34850766Y-10132941D01*
X34989313Y-10040367D01*
X35143258Y-9976601D01*
X35306685Y-9944093D01*
X35473315Y-9944093D01*
X35636742Y-9976601D01*
G37*
G36*
X71356742Y-9976601D02*
G01*
X71510687Y-10040367D01*
X71649234Y-10132941D01*
X71767059Y-10250766D01*
X71859633Y-10389313D01*
X71923399Y-10543258D01*
X71955907Y-10706685D01*
X71955907Y-10873315D01*
X71923399Y-11036742D01*
X71859633Y-11190687D01*
X71767059Y-11329234D01*
X71649234Y-11447059D01*
X71510687Y-11539633D01*
X71356742Y-11603399D01*
X71193315Y-11635907D01*
X71026685Y-11635907D01*
X70863258Y-11603399D01*
X70709313Y-11539633D01*
X70570766Y-11447059D01*
X70452941Y-11329234D01*
X70360367Y-11190687D01*
X70296601Y-11036742D01*
X70264093Y-10873315D01*
X70264093Y-10706685D01*
X70296601Y-10543258D01*
X70360367Y-10389313D01*
X70452941Y-10250766D01*
X70570766Y-10132941D01*
X70709313Y-10040367D01*
X70863258Y-9976601D01*
X71026685Y-9944093D01*
X71193315Y-9944093D01*
X71356742Y-9976601D01*
G37*
G36*
X73896742Y-9976601D02*
G01*
X74050687Y-10040367D01*
X74189234Y-10132941D01*
X74307059Y-10250766D01*
X74399633Y-10389313D01*
X74463399Y-10543258D01*
X74495907Y-10706685D01*
X74495907Y-10873315D01*
X74463399Y-11036742D01*
X74399633Y-11190687D01*
X74307059Y-11329234D01*
X74189234Y-11447059D01*
X74050687Y-11539633D01*
X73896742Y-11603399D01*
X73733315Y-11635907D01*
X73566685Y-11635907D01*
X73403258Y-11603399D01*
X73249313Y-11539633D01*
X73110766Y-11447059D01*
X72992941Y-11329234D01*
X72900367Y-11190687D01*
X72836601Y-11036742D01*
X72804093Y-10873315D01*
X72804093Y-10706685D01*
X72836601Y-10543258D01*
X72900367Y-10389313D01*
X72992941Y-10250766D01*
X73110766Y-10132941D01*
X73249313Y-10040367D01*
X73403258Y-9976601D01*
X73566685Y-9944093D01*
X73733315Y-9944093D01*
X73896742Y-9976601D01*
G37*
G36*
X76436742Y-9976601D02*
G01*
X76590687Y-10040367D01*
X76729234Y-10132941D01*
X76847059Y-10250766D01*
X76939633Y-10389313D01*
X77003399Y-10543258D01*
X77035907Y-10706685D01*
X77035907Y-10873315D01*
X77003399Y-11036742D01*
X76939633Y-11190687D01*
X76847059Y-11329234D01*
X76729234Y-11447059D01*
X76590687Y-11539633D01*
X76436742Y-11603399D01*
X76273315Y-11635907D01*
X76106685Y-11635907D01*
X75943258Y-11603399D01*
X75789313Y-11539633D01*
X75650766Y-11447059D01*
X75532941Y-11329234D01*
X75440367Y-11190687D01*
X75376601Y-11036742D01*
X75344093Y-10873315D01*
X75344093Y-10706685D01*
X75376601Y-10543258D01*
X75440367Y-10389313D01*
X75532941Y-10250766D01*
X75650766Y-10132941D01*
X75789313Y-10040367D01*
X75943258Y-9976601D01*
X76106685Y-9944093D01*
X76273315Y-9944093D01*
X76436742Y-9976601D01*
G37*
G36*
X78976742Y-9976601D02*
G01*
X79130687Y-10040367D01*
X79269234Y-10132941D01*
X79387059Y-10250766D01*
X79479633Y-10389313D01*
X79543399Y-10543258D01*
X79575907Y-10706685D01*
X79575907Y-10873315D01*
X79543399Y-11036742D01*
X79479633Y-11190687D01*
X79387059Y-11329234D01*
X79269234Y-11447059D01*
X79130687Y-11539633D01*
X78976742Y-11603399D01*
X78813315Y-11635907D01*
X78646685Y-11635907D01*
X78483258Y-11603399D01*
X78329313Y-11539633D01*
X78190766Y-11447059D01*
X78072941Y-11329234D01*
X77980367Y-11190687D01*
X77916601Y-11036742D01*
X77884093Y-10873315D01*
X77884093Y-10706685D01*
X77916601Y-10543258D01*
X77980367Y-10389313D01*
X78072941Y-10250766D01*
X78190766Y-10132941D01*
X78329313Y-10040367D01*
X78483258Y-9976601D01*
X78646685Y-9944093D01*
X78813315Y-9944093D01*
X78976742Y-9976601D01*
G37*
G36*
X81516742Y-9976601D02*
G01*
X81670687Y-10040367D01*
X81809234Y-10132941D01*
X81927059Y-10250766D01*
X82019633Y-10389313D01*
X82083399Y-10543258D01*
X82115907Y-10706685D01*
X82115907Y-10873315D01*
X82083399Y-11036742D01*
X82019633Y-11190687D01*
X81927059Y-11329234D01*
X81809234Y-11447059D01*
X81670687Y-11539633D01*
X81516742Y-11603399D01*
X81353315Y-11635907D01*
X81186685Y-11635907D01*
X81023258Y-11603399D01*
X80869313Y-11539633D01*
X80730766Y-11447059D01*
X80612941Y-11329234D01*
X80520367Y-11190687D01*
X80456601Y-11036742D01*
X80424093Y-10873315D01*
X80424093Y-10706685D01*
X80456601Y-10543258D01*
X80520367Y-10389313D01*
X80612941Y-10250766D01*
X80730766Y-10132941D01*
X80869313Y-10040367D01*
X81023258Y-9976601D01*
X81186685Y-9944093D01*
X81353315Y-9944093D01*
X81516742Y-9976601D01*
G37*
G36*
X84056742Y-9976601D02*
G01*
X84210687Y-10040367D01*
X84349234Y-10132941D01*
X84467059Y-10250766D01*
X84559633Y-10389313D01*
X84623399Y-10543258D01*
X84655907Y-10706685D01*
X84655907Y-10873315D01*
X84623399Y-11036742D01*
X84559633Y-11190687D01*
X84467059Y-11329234D01*
X84349234Y-11447059D01*
X84210687Y-11539633D01*
X84056742Y-11603399D01*
X83893315Y-11635907D01*
X83726685Y-11635907D01*
X83563258Y-11603399D01*
X83409313Y-11539633D01*
X83270766Y-11447059D01*
X83152941Y-11329234D01*
X83060367Y-11190687D01*
X82996601Y-11036742D01*
X82964093Y-10873315D01*
X82964093Y-10706685D01*
X82996601Y-10543258D01*
X83060367Y-10389313D01*
X83152941Y-10250766D01*
X83270766Y-10132941D01*
X83409313Y-10040367D01*
X83563258Y-9976601D01*
X83726685Y-9944093D01*
X83893315Y-9944093D01*
X84056742Y-9976601D01*
G37*
G36*
X86596742Y-9976601D02*
G01*
X86750687Y-10040367D01*
X86889234Y-10132941D01*
X87007059Y-10250766D01*
X87099633Y-10389313D01*
X87163399Y-10543258D01*
X87195907Y-10706685D01*
X87195907Y-10873315D01*
X87163399Y-11036742D01*
X87099633Y-11190687D01*
X87007059Y-11329234D01*
X86889234Y-11447059D01*
X86750687Y-11539633D01*
X86596742Y-11603399D01*
X86433315Y-11635907D01*
X86266685Y-11635907D01*
X86103258Y-11603399D01*
X85949313Y-11539633D01*
X85810766Y-11447059D01*
X85692941Y-11329234D01*
X85600367Y-11190687D01*
X85536601Y-11036742D01*
X85504093Y-10873315D01*
X85504093Y-10706685D01*
X85536601Y-10543258D01*
X85600367Y-10389313D01*
X85692941Y-10250766D01*
X85810766Y-10132941D01*
X85949313Y-10040367D01*
X86103258Y-9976601D01*
X86266685Y-9944093D01*
X86433315Y-9944093D01*
X86596742Y-9976601D01*
G37*
G36*
X89136742Y-9976601D02*
G01*
X89290687Y-10040367D01*
X89429234Y-10132941D01*
X89547059Y-10250766D01*
X89639633Y-10389313D01*
X89703399Y-10543258D01*
X89735907Y-10706685D01*
X89735907Y-10873315D01*
X89703399Y-11036742D01*
X89639633Y-11190687D01*
X89547059Y-11329234D01*
X89429234Y-11447059D01*
X89290687Y-11539633D01*
X89136742Y-11603399D01*
X88973315Y-11635907D01*
X88806685Y-11635907D01*
X88643258Y-11603399D01*
X88489313Y-11539633D01*
X88350766Y-11447059D01*
X88232941Y-11329234D01*
X88140367Y-11190687D01*
X88076601Y-11036742D01*
X88044093Y-10873315D01*
X88044093Y-10706685D01*
X88076601Y-10543258D01*
X88140367Y-10389313D01*
X88232941Y-10250766D01*
X88350766Y-10132941D01*
X88489313Y-10040367D01*
X88643258Y-9976601D01*
X88806685Y-9944093D01*
X88973315Y-9944093D01*
X89136742Y-9976601D01*
G37*
M02*
