M48
; DRILL file KiCad 10.0.6 date 2026-10-08T09:12:08
; FORMAT={-:-/ absolute / metric / decimal}
; #@! TF.CreationDate,2026-10-08T09:12:08+02:00
; #@! TF.GenerationSoftware,Kicad,Pcbnew,10.0.6
; #@! TF.FileFunction,Plated,1,4,PTH
FMAT,2
METRIC
; #@! TA.AperFunction,Plated,PTH,ViaDrill
T1C0.300
; #@! TA.AperFunction,Plated,PTH,ViaDrill
T2C0.400
; #@! TA.AperFunction,Plated,PTH,ComponentDrill
T3C0.800
; #@! TA.AperFunction,Plated,PTH,ComponentDrill
T4C1.000
; #@! TA.AperFunction,Plated,PTH,ComponentDrill
T5C1.300
; #@! TA.AperFunction,Plated,PTH,ComponentDrill
T6C2.400
%
G90
G05
T1
X1.026Y-25.95
X3.25Y-46.864
X7.545Y-26.75
X9.29Y-9.925
X9.54Y-55.325
X15.325Y-66.615
X15.83Y-49.825
X17.38Y-8.0
X18.2Y-47.385
X18.267Y-28.76
X18.325Y-51.135
X19.0Y-24.19
X19.0Y-31.81
X19.649Y-20.996
X19.825Y-27.18
X20.525Y-44.705
X20.651Y-36.595
X21.288Y-14.202
X21.525Y-74.705
X21.651Y-66.595
X22.525Y-49.143
X23.031Y-30.64
X23.654Y-32.113
X25.366Y-45.345
X25.475Y-30.015
X26.475Y-74.705
X26.614Y-62.75
X26.781Y-19.827
X26.889Y-48.685
X26.889Y-56.992
X27.615Y-27.032
X29.425Y-18.25
X29.475Y-22.02
X29.475Y-32.54
X29.54Y-65.825
X30.1Y-29.963
X31.176Y-42.6
X31.214Y-49.5
X31.525Y-68.31
X31.525Y-80.44
X31.67Y-27.178
X31.975Y-20.945
X33.607Y-30.895
X34.456Y-22.898
X34.548Y-29.822
X34.575Y-22.02
X35.113Y-62.142
X35.525Y-74.705
X35.525Y-81.315
X35.65Y-66.595
X35.736Y-41.123
X36.343Y-23.926
X37.887Y-64.315
X37.925Y-31.395
X38.158Y-24.277
X38.16Y-8.0
X38.675Y-35.8
X38.927Y-65.27
X39.122Y-27.964
X40.267Y-18.814
X40.497Y-43.495
X40.89Y-34.095
X41.282Y-42.063
X41.83Y-51.675
X42.65Y-40.325
X43.2Y-46.1
X43.703Y-12.252
X44.187Y-24.345
X44.225Y-13.116
X44.4Y-6.8
X44.675Y-41.25
X44.89Y-79.835
X44.917Y-56.959
X45.0Y-28.31
X45.142Y-19.195
X45.275Y-74.984
X45.429Y-22.999
X45.429Y-26.681
X45.45Y-68.15
X45.775Y-51.16
X45.9Y-28.355
X46.572Y-45.019
X46.725Y-52.38
X47.124Y-34.75
X48.0Y-59.79
X48.0Y-67.41
X48.238Y-43.697
X48.488Y-54.409
X48.825Y-60.926
X48.9Y-64.4
X49.215Y-71.76
X49.653Y-54.988
X49.778Y-28.585
X50.025Y-45.88
X50.4Y-55.5
X50.475Y-52.44
X50.65Y-7.374
X51.168Y-23.346
X51.34Y-77.997
X51.768Y-19.572
X52.014Y-57.956
X52.669Y-67.348
X52.773Y-35.175
X52.801Y-50.646
X53.275Y-6.78
X53.627Y-9.534
X53.883Y-51.611
X54.835Y-70.485
X54.916Y-54.139
X55.058Y-68.425
X55.466Y-26.075
X55.5Y-28.31
X55.65Y-56.29
X55.864Y-24.519
X56.365Y-27.262
X57.05Y-58.4
X57.082Y-59.49
X57.593Y-63.424
X57.832Y-60.31
X57.861Y-18.411
X58.0Y-67.41
X58.101Y-64.356
X58.732Y-62.235
X58.95Y-65.4
X60.357Y-22.422
X61.163Y-25.967
X61.246Y-24.632
X61.815Y-20.798
X62.475Y-11.616
X63.006Y-68.411
X63.209Y-62.223
X63.624Y-39.684
X64.562Y-54.593
X65.777Y-19.518
X66.0Y-26.81
X66.549Y-22.429
X67.1Y-61.362
X67.1Y-66.11
X67.675Y-56.39
X68.0Y-61.06
X68.0Y-67.41
X70.708Y-22.351
X70.88Y-8.0
X72.475Y-25.015
X72.724Y-66.382
X74.475Y-65.615
X74.811Y-62.852
X74.865Y-59.535
X75.275Y-17.29
X75.82Y-56.968
X76.169Y-63.97
X77.749Y-23.992
X80.594Y-58.286
X80.863Y-66.056
X81.0Y-67.41
X81.987Y-55.654
X85.152Y-62.079
X85.476Y-65.858
X87.475Y-65.615
X87.525Y-59.764
X91.66Y-8.0
X101.925Y-9.29
T2
X5.0Y-70.0
X6.102Y-7.7
X10.0Y-60.0
X10.0Y-80.0
X11.849Y-29.261
X13.371Y-25.202
X15.0Y-90.0
X20.0Y-80.0
X24.236Y-64.138
X29.584Y-56.666
X33.146Y-39.795
X35.0Y-90.0
X40.0Y-80.0
X42.352Y-67.738
X45.0Y-90.0
X54.245Y-80.635
X55.0Y-90.0
X57.17Y-44.73
X57.9Y-52.7
X60.0Y-80.0
X60.08Y-44.73
X60.8Y-52.7
X62.98Y-44.73
X63.7Y-52.7
X63.7Y-81.7
X63.7Y-84.6
X63.7Y-87.5
X63.7Y-90.4
X65.88Y-44.73
X66.588Y-54.707
X66.6Y-52.7
X66.6Y-81.7
X66.6Y-90.4
X68.77Y-44.73
X69.5Y-52.7
X69.5Y-70.1
X69.5Y-81.7
X69.5Y-90.4
X72.4Y-70.1
X72.4Y-73.0
X73.12Y-36.02
X73.12Y-43.27
X73.12Y-88.22
X73.12Y-92.57
X75.145Y-77.465
X75.145Y-78.965
X75.3Y-26.6
X75.3Y-29.5
X75.3Y-70.1
X75.3Y-73.0
X75.3Y-90.4
X78.2Y-26.6
X78.2Y-29.5
X78.2Y-35.3
X78.2Y-38.2
X78.2Y-44.0
X78.2Y-52.7
X78.2Y-70.1
X78.2Y-73.0
X78.2Y-90.4
X78.493Y-20.316
X81.1Y-26.6
X81.1Y-29.5
X81.1Y-35.3
X81.1Y-38.2
X81.1Y-41.1
X81.1Y-52.7
X81.1Y-70.1
X81.1Y-73.0
X81.1Y-75.9
X81.1Y-78.8
X81.1Y-84.6
X81.1Y-87.5
X81.1Y-90.4
X82.459Y-54.627
X84.0Y-35.3
X84.0Y-52.7
X84.0Y-70.1
X84.0Y-73.0
X84.0Y-90.4
X84.72Y-94.02
X86.9Y-35.3
X86.9Y-52.7
X86.9Y-70.1
X86.9Y-73.0
X86.9Y-90.4
X87.62Y-94.02
X88.899Y-57.641
X89.8Y-17.9
X89.8Y-20.8
X89.8Y-46.9
X89.8Y-49.8
X92.7Y-17.9
X92.7Y-20.8
X92.7Y-23.7
X92.7Y-26.6
X92.7Y-29.5
X92.7Y-32.4
X92.7Y-35.3
X92.7Y-38.2
X92.7Y-41.1
X92.7Y-44.0
X92.7Y-46.9
X92.7Y-49.8
X95.84Y-10.213
X100.0Y-20.0
X100.0Y-40.0
X100.0Y-80.0
T3
X5.5Y-31.0
X5.5Y-33.54
X5.5Y-36.08
X5.5Y-38.62
X7.0Y-46.5
X9.0Y-19.5
X9.54Y-46.5
X11.54Y-19.5
X12.08Y-46.5
X13.12Y-31.0
X13.12Y-33.54
X13.12Y-36.08
X13.12Y-38.62
X14.08Y-19.5
X20.0Y-58.0
X22.54Y-58.0
X25.08Y-58.0
X33.0Y-55.0
X35.54Y-55.0
X38.08Y-55.0
X65.0Y-46.9
X65.0Y-50.4
T4
X13.8Y-95.96
X16.34Y-95.96
X17.61Y-10.79
X17.61Y-13.33
X18.88Y-95.96
X20.15Y-10.79
X20.15Y-13.33
X21.42Y-95.96
X22.69Y-10.79
X22.69Y-13.33
X23.96Y-95.96
X25.23Y-10.79
X25.23Y-13.33
X26.5Y-95.96
X27.77Y-10.79
X27.77Y-13.33
X29.04Y-95.96
X30.31Y-10.79
X30.31Y-13.33
X31.58Y-95.96
X32.85Y-10.79
X32.85Y-13.33
X34.12Y-95.96
X35.39Y-10.79
X35.39Y-13.33
X36.66Y-95.96
X39.2Y-95.96
X41.74Y-95.96
X71.11Y-10.79
X71.11Y-13.33
X73.65Y-10.79
X73.65Y-13.33
X76.19Y-10.79
X76.19Y-13.33
X78.73Y-10.79
X78.73Y-13.33
X81.27Y-10.79
X81.27Y-13.33
X83.81Y-10.79
X83.81Y-13.33
X86.35Y-10.79
X86.35Y-13.33
X88.89Y-10.79
X88.89Y-13.33
X93.17Y-59.14
X93.17Y-61.68
X93.17Y-64.22
X93.17Y-66.76
X95.71Y-59.14
X95.71Y-61.68
X95.71Y-64.22
X95.71Y-66.76
T5
X54.0Y-33.0
X54.0Y-40.5
X69.0Y-33.0
X69.0Y-40.5
X74.0Y-33.0
X74.0Y-40.5
X79.0Y-33.0
X79.0Y-40.5
T6
X67.88Y-85.0
X75.5Y-85.0
X84.8Y-20.8
X84.8Y-28.42
X84.8Y-39.92
X84.8Y-47.54
X84.8Y-78.43
X84.8Y-86.05
M30
