<svg xmlns="http://www.w3.org/2000/svg" width="1100" height="858" viewBox="0 0 1100 858"><rect width="100%" height="100%" fill="white"/><g font-family="monospace" font-size="13"><text x="25" y="28" font-size="21">EGRLab v6 / AT / arkusz 1</text><rect x="20" y="55" width="390" height="69" fill="#eef4f7" stroke="#456"/><text x="32" y="74">JP4: 1x3; tylko DWIE zwory łącznie</text><text x="425" y="74">1</text><path d="M 490 69 H 530" stroke="#176"/><text x="540" y="74">5V_SENSOR</text><text x="425" y="91">2</text><path d="M 490 86 H 530" stroke="#176"/><text x="540" y="91">T_EGR_P4</text><text x="425" y="108">3</text><path d="M 490 103 H 530" stroke="#176"/><text x="540" y="108">AGND_SENSOR</text><rect x="20" y="134" width="390" height="69" fill="#eef4f7" stroke="#456"/><text x="32" y="153">JP5: 1x3; tylko DWIE zwory łącznie</text><text x="425" y="153">1</text><path d="M 490 148 H 530" stroke="#176"/><text x="540" y="153">5V_SENSOR</text><text x="425" y="170">2</text><path d="M 490 165 H 530" stroke="#176"/><text x="540" y="170">T_EGR_P5</text><text x="425" y="187">3</text><path d="M 490 182 H 530" stroke="#176"/><text x="540" y="187">AGND_SENSOR</text><rect x="20" y="213" width="390" height="69" fill="#eef4f7" stroke="#456"/><text x="32" y="232">JP6: 1x3; tylko DWIE zwory łącznie</text><text x="425" y="232">1</text><path d="M 490 227 H 530" stroke="#176"/><text x="540" y="232">5V_SENSOR</text><text x="425" y="249">2</text><path d="M 490 244 H 530" stroke="#176"/><text x="540" y="249">T_EGR_P6</text><text x="425" y="266">3</text><path d="M 490 261 H 530" stroke="#176"/><text x="540" y="266">AGND_SENSOR</text><rect x="20" y="292" width="390" height="62" fill="#eef4f7" stroke="#456"/><text x="32" y="311">JT_LOOP: Mostek tylko w adapterze T</text><text x="425" y="311">10</text><path d="M 490 306 H 530" stroke="#176"/><text x="540" y="311">LOOP_OUT</text><text x="425" y="328">11</text><path d="M 490 323 H 530" stroke="#176"/><text x="540" y="328">MECH_OK</text><rect x="20" y="364" width="390" height="103" fill="#eef4f7" stroke="#456"/><text x="32" y="383">OEM_T: Zawór / sondy T</text><text x="425" y="383">1</text><path d="M 490 378 H 530" stroke="#176"/><text x="540" y="383">T_EGR_P1</text><text x="425" y="400">3</text><path d="M 490 395 H 530" stroke="#176"/><text x="540" y="400">T_EGR_P3</text><text x="425" y="417">4</text><path d="M 490 412 H 530" stroke="#176"/><text x="540" y="417">T_EGR_P4</text><text x="425" y="434">5</text><path d="M 490 429 H 530" stroke="#176"/><text x="540" y="434">T_EGR_P5</text><text x="425" y="451">6</text><path d="M 490 446 H 530" stroke="#176"/><text x="540" y="451">T_EGR_P6</text><rect x="20" y="477" width="390" height="222" fill="#eef4f7" stroke="#456"/><text x="32" y="496">PLUG: DEUTSCH DT06-12SA plug, contacts size16</text><text x="425" y="496">1</text><path d="M 490 491 H 530" stroke="#176"/><text x="540" y="496">T_EGR_P1</text><text x="425" y="513">2</text><path d="M 490 508 H 530" stroke="#176"/><text x="540" y="513">T_EGR_P3</text><text x="425" y="530">3</text><path d="M 490 525 H 530" stroke="#176"/><text x="540" y="530">5V_SENSOR</text><text x="425" y="547">4</text><path d="M 490 542 H 530" stroke="#176"/><text x="540" y="547">AGND_SENSOR</text><text x="425" y="564">5</text><path d="M 490 559 H 530" stroke="#176"/><text x="540" y="564">TAP_P1</text><text x="425" y="581">6</text><path d="M 490 576 H 530" stroke="#176"/><text x="540" y="581">TAP_P3</text><text x="425" y="598">7</text><path d="M 490 593 H 530" stroke="#176"/><text x="540" y="598">TAP_P4</text><text x="425" y="615">8</text><path d="M 490 610 H 530" stroke="#176"/><text x="540" y="615">TAP_P5</text><text x="425" y="632">9</text><path d="M 490 627 H 530" stroke="#176"/><text x="540" y="632">TAP_P6</text><text x="425" y="649">10</text><path d="M 490 644 H 530" stroke="#176"/><text x="540" y="649">LOOP_OUT</text><text x="425" y="666">11</text><path d="M 490 661 H 530" stroke="#176"/><text x="540" y="666">MECH_OK</text><text x="425" y="683">12</text><path d="M 490 678 H 530" stroke="#176"/><text x="540" y="683">NC</text><rect x="20" y="709" width="390" height="62" fill="#eef4f7" stroke="#456"/><text x="32" y="728">RM1: 300k 0.1% 25ppm MBB/SMA0207 0.40W 350V</text><text x="32" y="745">THT</text><text x="425" y="728">1</text><path d="M 490 723 H 530" stroke="#176"/><text x="540" y="728">T_EGR_P1</text><text x="425" y="745">2</text><path d="M 490 740 H 530" stroke="#176"/><text x="540" y="745">TAP_P1</text><rect x="20" y="781" width="390" height="62" fill="#eef4f7" stroke="#456"/><text x="32" y="800">RM3: 300k 0.1% 25ppm MBB/SMA0207 0.40W 350V</text><text x="32" y="817">THT</text><text x="425" y="800">1</text><path d="M 490 795 H 530" stroke="#176"/><text x="540" y="800">T_EGR_P3</text><text x="425" y="817">2</text><path d="M 490 812 H 530" stroke="#176"/><text x="540" y="817">TAP_P3</text></g></svg>