M48
; DRILL file KiCad 10.0.6 date 2026-10-05T22:37:45
; FORMAT={-:-/ absolute / metric / decimal}
; #@! TF.CreationDate,2026-10-05T22:37:45+02:00
; #@! TF.GenerationSoftware,Kicad,Pcbnew,10.0.6
; #@! TF.FileFunction,Plated,1,2,PTH
FMAT,2
METRIC
; #@! TA.AperFunction,Plated,PTH,ViaDrill
T1C0.400
; #@! TA.AperFunction,Plated,PTH,ComponentDrill
T2C1.000
%
G90
G05
T1
X5.0Y-10.0
X5.0Y-30.0
X5.0Y-50.0
X5.0Y-70.0
X5.0Y-90.0
X5.0Y-110.0
X10.0Y-20.0
X10.0Y-40.0
X10.0Y-60.0
X10.0Y-80.0
X10.0Y-120.0
X15.0Y-110.0
X20.0Y-20.0
X20.0Y-40.0
X20.0Y-60.0
X20.504Y-95.652
X20.831Y-91.258
X22.98Y-63.606
X24.87Y-120.004
X25.0Y-90.0
X25.129Y-31.441
X25.243Y-56.704
X27.848Y-22.604
X30.755Y-72.393
X35.0Y-50.0
X40.0Y-20.0
X40.0Y-40.0
X40.0Y-60.0
X40.0Y-80.0
X40.0Y-120.0
X42.107Y-123.428
X45.0Y-30.0
X45.0Y-50.0
X45.0Y-70.0
X45.0Y-110.0
X45.0Y-130.0
X50.0Y-20.0
X50.0Y-40.0
X50.0Y-60.0
X50.0Y-100.0
X50.0Y-120.0
X55.0Y-30.0
X55.0Y-50.0
X55.0Y-70.0
X55.0Y-110.0
X55.0Y-130.0
X60.0Y-20.0
X60.0Y-80.0
X60.0Y-100.0
X60.0Y-120.0
X61.34Y-65.933
X65.0Y-30.0
X65.0Y-50.0
X65.0Y-90.0
X65.0Y-110.0
X65.0Y-130.0
X70.0Y-20.0
X70.0Y-120.0
X70.592Y-40.283
X73.95Y-60.2
X75.0Y-110.0
X75.0Y-130.0
X75.901Y-53.326
X80.0Y-40.0
X80.0Y-120.0
X81.195Y-25.08
X85.0Y-130.0
X86.263Y-116.329
X86.412Y-50.425
X90.0Y-20.0
X90.0Y-40.0
X90.0Y-120.0
X90.344Y-25.616
X95.0Y-70.0
X95.0Y-90.0
X95.0Y-110.0
X95.0Y-130.0
X100.0Y-40.0
X100.0Y-60.0
X100.0Y-80.0
X100.0Y-100.0
X100.0Y-120.0
X105.0Y-70.0
X105.0Y-110.0
X105.0Y-130.0
X106.948Y-29.2
X110.0Y-20.0
X110.0Y-40.0
X110.0Y-60.0
X110.0Y-100.0
X110.0Y-120.0
X115.0Y-30.0
X115.0Y-70.0
X115.0Y-90.0
X115.0Y-110.0
X115.0Y-130.0
X117.738Y-103.148
X125.0Y-70.0
X125.0Y-90.0
X125.0Y-110.0
X126.725Y-50.645
X127.534Y-16.048
X130.0Y-40.0
X135.0Y-50.0
X135.0Y-70.0
X140.0Y-20.0
X140.0Y-120.0
X141.811Y-93.428
X144.177Y-95.839
X145.0Y-110.0
X145.915Y-95.306
X146.078Y-99.537
X150.0Y-20.0
X150.0Y-40.0
X150.0Y-60.0
X150.0Y-80.0
X150.0Y-120.0
X155.0Y-10.0
X155.0Y-30.0
X155.0Y-50.0
X155.0Y-70.0
X155.0Y-90.0
X155.0Y-110.0
T2
X15.07Y-98.08
X15.07Y-100.62
X15.07Y-124.68
X15.07Y-127.22
X17.61Y-11.68
X17.61Y-14.22
X17.61Y-33.28
X17.61Y-35.82
X17.61Y-98.08
X17.61Y-100.62
X17.61Y-124.68
X17.61Y-127.22
X20.15Y-11.68
X20.15Y-14.22
X20.15Y-33.28
X20.15Y-35.82
X20.15Y-98.08
X20.15Y-100.62
X20.15Y-124.68
X20.15Y-127.22
X21.42Y-76.48
X21.42Y-79.02
X22.69Y-11.68
X22.69Y-14.22
X22.69Y-33.28
X22.69Y-35.82
X22.69Y-98.08
X22.69Y-100.62
X22.69Y-124.68
X22.69Y-127.22
X23.96Y-76.48
X23.96Y-79.02
X25.23Y-11.68
X25.23Y-14.22
X25.23Y-33.28
X25.23Y-35.82
X25.23Y-98.08
X25.23Y-100.62
X25.23Y-124.68
X25.23Y-127.22
X26.5Y-76.48
X26.5Y-79.02
X27.77Y-11.68
X27.77Y-14.22
X27.77Y-33.28
X27.77Y-35.82
X27.77Y-98.08
X27.77Y-100.62
X27.77Y-124.68
X27.77Y-127.22
X29.04Y-76.48
X29.04Y-79.02
X30.31Y-11.68
X30.31Y-14.22
X30.31Y-33.28
X30.31Y-35.82
X30.31Y-98.08
X30.31Y-100.62
X30.31Y-124.68
X30.31Y-127.22
X31.58Y-76.48
X31.58Y-79.02
X32.85Y-11.68
X32.85Y-14.22
X32.85Y-33.28
X32.85Y-35.82
X32.85Y-98.08
X32.85Y-100.62
X32.85Y-124.68
X32.85Y-127.22
X35.39Y-11.68
X35.39Y-14.22
X35.39Y-33.28
X35.39Y-35.82
X35.39Y-98.08
X35.39Y-100.62
X35.39Y-124.68
X35.39Y-127.22
X37.93Y-98.08
X37.93Y-100.62
X37.93Y-124.68
X37.93Y-127.22
X68.57Y-11.68
X68.57Y-14.22
X68.57Y-76.48
X68.57Y-79.02
X68.57Y-98.08
X68.57Y-100.62
X71.11Y-11.68
X71.11Y-14.22
X71.11Y-33.28
X71.11Y-35.82
X71.11Y-54.88
X71.11Y-57.42
X71.11Y-76.48
X71.11Y-79.02
X71.11Y-98.08
X71.11Y-100.62
X73.65Y-11.68
X73.65Y-14.22
X73.65Y-33.28
X73.65Y-35.82
X73.65Y-54.88
X73.65Y-57.42
X73.65Y-76.48
X73.65Y-79.02
X73.65Y-98.08
X73.65Y-100.62
X76.19Y-11.68
X76.19Y-14.22
X76.19Y-33.28
X76.19Y-35.82
X76.19Y-54.88
X76.19Y-57.42
X76.19Y-76.48
X76.19Y-79.02
X76.19Y-98.08
X76.19Y-100.62
X78.73Y-11.68
X78.73Y-14.22
X78.73Y-33.28
X78.73Y-35.82
X78.73Y-54.88
X78.73Y-57.42
X78.73Y-76.48
X78.73Y-79.02
X78.73Y-98.08
X78.73Y-100.62
X81.27Y-11.68
X81.27Y-14.22
X81.27Y-33.28
X81.27Y-35.82
X81.27Y-54.88
X81.27Y-57.42
X81.27Y-76.48
X81.27Y-79.02
X81.27Y-98.08
X81.27Y-100.62
X83.81Y-11.68
X83.81Y-14.22
X83.81Y-33.28
X83.81Y-35.82
X83.81Y-54.88
X83.81Y-57.42
X83.81Y-76.48
X83.81Y-79.02
X83.81Y-98.08
X83.81Y-100.62
X86.35Y-11.68
X86.35Y-14.22
X86.35Y-33.28
X86.35Y-35.82
X86.35Y-54.88
X86.35Y-57.42
X86.35Y-76.48
X86.35Y-79.02
X86.35Y-98.08
X86.35Y-100.62
X88.89Y-11.68
X88.89Y-14.22
X88.89Y-33.28
X88.89Y-35.82
X88.89Y-54.88
X88.89Y-57.42
X88.89Y-76.48
X88.89Y-79.02
X88.89Y-98.08
X88.89Y-100.62
X91.43Y-11.68
X91.43Y-14.22
X91.43Y-76.48
X91.43Y-79.02
X91.43Y-98.08
X91.43Y-100.62
X94.0Y-125.95
X100.0Y-125.95
X106.0Y-125.95
X112.0Y-125.95
X122.07Y-11.68
X122.07Y-14.22
X122.07Y-98.08
X122.07Y-100.62
X122.07Y-124.68
X122.07Y-127.22
X124.61Y-11.68
X124.61Y-14.22
X124.61Y-33.28
X124.61Y-35.82
X124.61Y-76.48
X124.61Y-79.02
X124.61Y-98.08
X124.61Y-100.62
X124.61Y-124.68
X124.61Y-127.22
X127.15Y-11.68
X127.15Y-14.22
X127.15Y-33.28
X127.15Y-35.82
X127.15Y-76.48
X127.15Y-79.02
X127.15Y-98.08
X127.15Y-100.62
X127.15Y-124.68
X127.15Y-127.22
X128.42Y-54.88
X128.42Y-57.42
X129.69Y-11.68
X129.69Y-14.22
X129.69Y-33.28
X129.69Y-35.82
X129.69Y-76.48
X129.69Y-79.02
X129.69Y-98.08
X129.69Y-100.62
X129.69Y-124.68
X129.69Y-127.22
X130.96Y-54.88
X130.96Y-57.42
X132.23Y-11.68
X132.23Y-14.22
X132.23Y-33.28
X132.23Y-35.82
X132.23Y-76.48
X132.23Y-79.02
X132.23Y-98.08
X132.23Y-100.62
X132.23Y-124.68
X132.23Y-127.22
X133.5Y-54.88
X133.5Y-57.42
X134.77Y-11.68
X134.77Y-14.22
X134.77Y-33.28
X134.77Y-35.82
X134.77Y-76.48
X134.77Y-79.02
X134.77Y-98.08
X134.77Y-100.62
X134.77Y-124.68
X134.77Y-127.22
X136.04Y-54.88
X136.04Y-57.42
X137.31Y-11.68
X137.31Y-14.22
X137.31Y-33.28
X137.31Y-35.82
X137.31Y-76.48
X137.31Y-79.02
X137.31Y-98.08
X137.31Y-100.62
X137.31Y-124.68
X137.31Y-127.22
X138.58Y-54.88
X138.58Y-57.42
X139.85Y-11.68
X139.85Y-14.22
X139.85Y-33.28
X139.85Y-35.82
X139.85Y-76.48
X139.85Y-79.02
X139.85Y-98.08
X139.85Y-100.62
X139.85Y-124.68
X139.85Y-127.22
X142.39Y-11.68
X142.39Y-14.22
X142.39Y-33.28
X142.39Y-35.82
X142.39Y-76.48
X142.39Y-79.02
X142.39Y-98.08
X142.39Y-100.62
X142.39Y-124.68
X142.39Y-127.22
X144.93Y-11.68
X144.93Y-14.22
X144.93Y-98.08
X144.93Y-100.62
X144.93Y-124.68
X144.93Y-127.22
M30
