M48
; DRILL file KiCad 10.0.6 date 2026-10-04T14:03:36
; FORMAT={-:-/ absolute / metric / decimal}
; #@! TF.CreationDate,2026-10-04T14:03:36+02:00
; #@! TF.GenerationSoftware,Kicad,Pcbnew,10.0.6
; #@! TF.FileFunction,Plated,1,2,PTH
FMAT,2
METRIC
; #@! TA.AperFunction,Plated,PTH,ViaDrill
T1C0.400
; #@! TA.AperFunction,Plated,PTH,ComponentDrill
T2C0.800
; #@! TA.AperFunction,Plated,PTH,ComponentDrill
T3C1.000
; #@! TA.AperFunction,Plated,PTH,ComponentDrill
T4C1.100
; #@! TA.AperFunction,Plated,PTH,ComponentDrill
T5C1.200
; #@! TA.AperFunction,Plated,PTH,ComponentDrill
T6C2.400
%
G90
G05
T1
X8.5Y-29.5
X8.5Y-35.0
X8.5Y-40.5
X8.5Y-46.0
X10.0Y-60.0
X10.01Y-88.3
X13.0Y-35.42
X13.0Y-39.12
X15.0Y-10.0
X16.25Y-35.42
X16.25Y-39.12
X18.5Y-66.876
X18.55Y-20.0
X19.15Y-34.06
X19.25Y-51.12
X19.25Y-54.12
X19.75Y-38.62
X19.75Y-43.5
X19.75Y-46.4
X20.0Y-60.0
X21.35Y-20.0
X21.35Y-22.25
X22.25Y-51.12
X23.2Y-34.06
X24.9Y-20.0
X24.9Y-22.25
X24.9Y-25.9
X24.9Y-34.06
X24.9Y-38.62
X24.9Y-43.5
X24.9Y-51.12
X24.9Y-54.12
X25.0Y-10.0
X25.0Y-70.0
X29.25Y-71.5
X30.0Y-20.0
X30.0Y-40.0
X30.271Y-54.356
X35.0Y-10.0
X35.0Y-50.0
X35.0Y-70.0
X35.465Y-30.75
X36.54Y-29.819
X37.692Y-39.017
X37.762Y-29.035
X38.16Y-45.642
X39.094Y-23.091
X39.118Y-29.43
X39.95Y-26.7
X41.072Y-29.615
X41.976Y-38.238
X43.175Y-34.931
X43.627Y-31.311
X44.871Y-43.24
X45.0Y-10.0
X45.0Y-50.0
X45.0Y-70.0
X46.584Y-21.861
X47.108Y-23.741
X49.566Y-46.736
X50.0Y-80.0
X53.403Y-22.527
X53.96Y-42.777
X55.0Y-10.0
X55.0Y-50.0
X55.0Y-70.0
X55.9Y-31.0
X58.214Y-41.812
X60.0Y-30.914
X60.0Y-60.0
X60.0Y-80.0
X60.745Y-24.5
X60.8Y-33.9
X61.454Y-45.15
X62.507Y-47.308
X65.0Y-10.0
X65.0Y-70.0
X69.19Y-45.621
X69.77Y-31.192
X69.79Y-44.374
X70.0Y-80.0
X70.88Y-8.0
X71.638Y-36.912
X71.652Y-34.243
X72.09Y-28.5
X72.859Y-92.941
X73.117Y-54.25
X73.25Y-46.807
X73.75Y-37.073
X74.28Y-33.922
X75.0Y-70.0
X75.0Y-90.0
X75.5Y-28.5
X77.492Y-15.101
X77.545Y-23.305
X77.703Y-37.322
X77.848Y-32.932
X78.552Y-35.438
X78.81Y-28.5
X79.315Y-49.521
X79.4Y-54.9
X80.878Y-40.059
X82.511Y-33.194
X85.825Y-60.186
X85.998Y-58.712
X86.161Y-42.265
X86.335Y-51.716
X87.021Y-26.906
X87.2Y-32.908
X87.396Y-71.782
X87.758Y-77.7
X88.044Y-37.407
X90.0Y-20.0
X91.041Y-23.353
X91.068Y-59.207
X91.611Y-62.751
X91.66Y-8.0
X92.09Y-34.0
X92.264Y-41.126
X92.875Y-29.821
X92.88Y-65.49
X94.098Y-53.799
X95.0Y-70.0
X95.0Y-90.0
X95.487Y-23.353
X95.548Y-49.596
X96.391Y-10.79
X96.59Y-48.124
X96.81Y-34.0
X97.258Y-15.146
X100.0Y-80.0
T2
X40.0Y-41.0
X45.0Y-27.0
X45.0Y-29.54
X45.0Y-32.08
X45.0Y-34.62
X47.62Y-41.0
X50.0Y-41.0
X52.54Y-41.0
X52.62Y-27.0
X52.62Y-29.54
X52.62Y-32.08
X52.62Y-34.62
X55.08Y-41.0
X57.0Y-27.0
X57.0Y-29.54
X57.0Y-32.08
X57.0Y-34.62
X62.0Y-41.0
X62.5Y-21.5
X64.54Y-41.0
X64.62Y-27.0
X64.62Y-29.54
X64.62Y-32.08
X64.62Y-34.62
X65.0Y-21.5
X67.08Y-41.0
X67.5Y-27.92
X67.5Y-33.0
X76.0Y-40.0
X76.0Y-42.54
X76.0Y-45.08
X76.0Y-47.62
X76.0Y-50.16
X76.0Y-52.7
X76.0Y-55.24
X83.62Y-40.0
X83.62Y-42.54
X83.62Y-45.08
X83.62Y-47.62
X83.62Y-50.16
X83.62Y-52.7
X83.62Y-55.24
X89.0Y-45.0
X89.0Y-52.0
X91.54Y-45.0
X91.54Y-52.0
X94.08Y-45.0
X94.08Y-52.0
T3
X26.5Y-95.96
X29.04Y-95.96
X31.58Y-95.96
X34.12Y-95.96
X36.66Y-95.96
X39.2Y-95.96
X41.74Y-95.96
X64.76Y-95.96
X67.3Y-95.96
X69.84Y-95.96
X71.11Y-10.79
X71.11Y-13.33
X72.38Y-95.96
X73.65Y-10.79
X73.65Y-13.33
X74.92Y-95.96
X76.19Y-10.79
X76.19Y-13.33
X77.46Y-95.96
X78.73Y-10.79
X78.73Y-13.33
X80.0Y-95.96
X81.27Y-10.79
X81.27Y-13.33
X82.54Y-95.96
X83.81Y-10.79
X83.81Y-13.33
X85.08Y-95.96
X86.35Y-10.79
X86.35Y-13.33
X87.62Y-95.96
X88.89Y-10.79
X88.89Y-13.33
X90.16Y-95.96
X92.7Y-95.96
X95.24Y-95.96
T4
X10.5Y-82.5
X15.0Y-66.5
X15.0Y-70.0
X15.0Y-73.5
X28.28Y-82.5
X60.0Y-50.5
X70.16Y-50.5
T5
X69.26Y-20.0
X84.5Y-20.0
T6
X15.0Y-23.5
X15.0Y-31.12
X15.0Y-45.0
X15.0Y-52.62
M30
