#VRML V2.0 utf8
Transform { translation 1.0000000 0.1240157 2.9921260 children [ Shape { appearance Appearance { material Material { diffuseColor 0.13 0.14 0.16 } } geometry Box { size 3.9370079 1.2322835 3.6220472 } } ] }
Transform { translation 1.0000000 0.9901575 2.5885827 children [ Shape { appearance Appearance { material Material { diffuseColor 0.58 0.6 0.63 } } geometry Box { size 3.9370079 0.5000000 4.1929134 } } ] }
Transform { translation 1.0000000 0.9901575 6.2992126 children [ Shape { appearance Appearance { material Material { diffuseColor 0.58 0.6 0.63 } } geometry Box { size 3.9370079 0.5000000 0.7086614 } } ] }
Transform { translation -0.2992126 0.9901575 5.3149606 children [ Shape { appearance Appearance { material Material { diffuseColor 0.58 0.6 0.63 } } geometry Box { size 1.3385827 0.5000000 1.2598425 } } ] }
Transform { translation 2.2992126 0.9901575 5.3149606 children [ Shape { appearance Appearance { material Material { diffuseColor 0.58 0.6 0.63 } } geometry Box { size 1.3385827 0.5000000 1.2598425 } } ] }
Transform { translation 0.0000000 0.0000000 0.3937008 children [ Shape { appearance Appearance { material Material { diffuseColor 0.7 0.7 0.68 } } geometry Box { size 0.3149606 0.1968504 2.0472441 } } ] }
Transform { translation 1.0000000 0.0000000 0.3937008 children [ Shape { appearance Appearance { material Material { diffuseColor 0.7 0.7 0.68 } } geometry Box { size 0.3149606 0.1968504 2.0472441 } } ] }
Transform { translation 2.0000000 0.0000000 0.3937008 children [ Shape { appearance Appearance { material Material { diffuseColor 0.7 0.7 0.68 } } geometry Box { size 0.3149606 0.1968504 2.0472441 } } ] }
