#VRML V2.0 utf8
Transform { translation 3.0000000 -3.0000000 2.2834646 children [ Shape { appearance Appearance { material Material { diffuseColor 0.1 0.4 0.23 } } geometry Box { size 7.0866142 7.0866142 0.6299213 } } ] }
Transform { translation 3.0000000 -3.0000000 2.9921260 children [ Shape { appearance Appearance { material Material { diffuseColor 0.13 0.14 0.16 } } geometry Box { size 2.3622047 3.9370079 0.7874016 } } ] }
Transform { translation 0.0000000 -3.0000000 0.9842520 children [ Shape { appearance Appearance { material Material { diffuseColor 0.13 0.14 0.16 } } geometry Box { size 1.0000000 7.0078740 1.9685039 } } ] }
Transform { translation 6.0000000 -3.0000000 0.9842520 children [ Shape { appearance Appearance { material Material { diffuseColor 0.13 0.14 0.16 } } geometry Box { size 1.0000000 7.0078740 1.9685039 } } ] }
