#VRML V2.0 utf8
Shape { appearance Appearance { material Material { diffuseColor 0.12 0.22 0.32 } } geometry IndexedFaceSet { solid FALSE coord Coordinate { point [ 8.8582677 0.0000000 0.0000000, 8.6235047 -1.7832021 0.0000000, 7.9352144 -3.4448819 0.0000000, 6.8403026 -4.8717987 0.0000000, 5.4133858 -5.9667105 0.0000000, 3.7517060 -6.6550008 0.0000000, 1.9685039 -6.8897638 0.0000000, 0.1853019 -6.6550008 0.0000000, -1.4763780 -5.9667105 0.0000000, -2.9032948 -4.8717987 0.0000000, -3.9982065 -3.4448819 0.0000000, -4.6864968 -1.7832021 0.0000000, -4.9212598 -0.0000000 0.0000000, -4.6864968 1.7832021 0.0000000, -3.9982065 3.4448819 0.0000000, -2.9032948 4.8717987 0.0000000, -1.4763780 5.9667105 0.0000000, 0.1853019 6.6550008 0.0000000, 1.9685039 6.8897638 0.0000000, 3.7517060 6.6550008 0.0000000, 5.4133858 5.9667105 0.0000000, 6.8403026 4.8717987 0.0000000, 7.9352144 3.4448819 0.0000000, 8.6235047 1.7832021 0.0000000, 8.8582677 0.0000000 17.7165354, 8.6235047 -1.7832021 17.7165354, 7.9352144 -3.4448819 17.7165354, 6.8403026 -4.8717987 17.7165354, 5.4133858 -5.9667105 17.7165354, 3.7517060 -6.6550008 17.7165354, 1.9685039 -6.8897638 17.7165354, 0.1853019 -6.6550008 17.7165354, -1.4763780 -5.9667105 17.7165354, -2.9032948 -4.8717987 17.7165354, -3.9982065 -3.4448819 17.7165354, -4.6864968 -1.7832021 17.7165354, -4.9212598 -0.0000000 17.7165354, -4.6864968 1.7832021 17.7165354, -3.9982065 3.4448819 17.7165354, -2.9032948 4.8717987 17.7165354, -1.4763780 5.9667105 17.7165354, 0.1853019 6.6550008 17.7165354, 1.9685039 6.8897638 17.7165354, 3.7517060 6.6550008 17.7165354, 5.4133858 5.9667105 17.7165354, 6.8403026 4.8717987 17.7165354, 7.9352144 3.4448819 17.7165354, 8.6235047 1.7832021 17.7165354, 1.9685039 0.0000000 0.0000000, 1.9685039 0.0000000 17.7165354 ] } coordIndex [ 25 1 0 -1, 24 25 0 -1, 0 1 48 -1, 25 24 49 -1, 26 2 1 -1, 25 26 1 -1, 1 2 48 -1, 26 25 49 -1, 27 3 2 -1, 26 27 2 -1, 2 3 48 -1, 27 26 49 -1, 28 4 3 -1, 27 28 3 -1, 3 4 48 -1, 28 27 49 -1, 29 5 4 -1, 28 29 4 -1, 4 5 48 -1, 29 28 49 -1, 30 6 5 -1, 29 30 5 -1, 5 6 48 -1, 30 29 49 -1, 31 7 6 -1, 30 31 6 -1, 6 7 48 -1, 31 30 49 -1, 32 8 7 -1, 31 32 7 -1, 7 8 48 -1, 32 31 49 -1, 33 9 8 -1, 32 33 8 -1, 8 9 48 -1, 33 32 49 -1, 34 10 9 -1, 33 34 9 -1, 9 10 48 -1, 34 33 49 -1, 35 11 10 -1, 34 35 10 -1, 10 11 48 -1, 35 34 49 -1, 36 12 11 -1, 35 36 11 -1, 11 12 48 -1, 36 35 49 -1, 37 13 12 -1, 36 37 12 -1, 12 13 48 -1, 37 36 49 -1, 38 14 13 -1, 37 38 13 -1, 13 14 48 -1, 38 37 49 -1, 39 15 14 -1, 38 39 14 -1, 14 15 48 -1, 39 38 49 -1, 40 16 15 -1, 39 40 15 -1, 15 16 48 -1, 40 39 49 -1, 41 17 16 -1, 40 41 16 -1, 16 17 48 -1, 41 40 49 -1, 42 18 17 -1, 41 42 17 -1, 17 18 48 -1, 42 41 49 -1, 43 19 18 -1, 42 43 18 -1, 18 19 48 -1, 43 42 49 -1, 44 20 19 -1, 43 44 19 -1, 19 20 48 -1, 44 43 49 -1, 45 21 20 -1, 44 45 20 -1, 20 21 48 -1, 45 44 49 -1, 46 22 21 -1, 45 46 21 -1, 21 22 48 -1, 46 45 49 -1, 47 23 22 -1, 46 47 22 -1, 22 23 48 -1, 47 46 49 -1, 24 0 23 -1, 47 24 23 -1, 23 0 48 -1, 24 47 49 -1 ] } }
Shape { appearance Appearance { material Material { diffuseColor 0.7 0.7 0.68 } } geometry IndexedFaceSet { solid FALSE coord Coordinate { point [ 8.7795276 0.0000000 17.6574803, 8.5474476 -1.7628226 17.6574803, 7.8670234 -3.4055118 17.6574803, 6.7846249 -4.8161210 17.6574803, 5.3740157 -5.8985195 17.6574803, 3.7313266 -6.5789436 17.6574803, 1.9685039 -6.8110236 17.6574803, 0.2056813 -6.5789436 17.6574803, -1.4370079 -5.8985195 17.6574803, -2.8476171 -4.8161210 17.6574803, -3.9300155 -3.4055118 17.6574803, -4.6104397 -1.7628226 17.6574803, -4.8425197 -0.0000000 17.6574803, -4.6104397 1.7628226 17.6574803, -3.9300155 3.4055118 17.6574803, -2.8476171 4.8161210 17.6574803, -1.4370079 5.8985195 17.6574803, 0.2056813 6.5789436 17.6574803, 1.9685039 6.8110236 17.6574803, 3.7313266 6.5789436 17.6574803, 5.3740157 5.8985195 17.6574803, 6.7846249 4.8161210 17.6574803, 7.8670234 3.4055118 17.6574803, 8.5474476 1.7628226 17.6574803, 8.7795276 0.0000000 17.7755906, 8.5474476 -1.7628226 17.7755906, 7.8670234 -3.4055118 17.7755906, 6.7846249 -4.8161210 17.7755906, 5.3740157 -5.8985195 17.7755906, 3.7313266 -6.5789436 17.7755906, 1.9685039 -6.8110236 17.7755906, 0.2056813 -6.5789436 17.7755906, -1.4370079 -5.8985195 17.7755906, -2.8476171 -4.8161210 17.7755906, -3.9300155 -3.4055118 17.7755906, -4.6104397 -1.7628226 17.7755906, -4.8425197 -0.0000000 17.7755906, -4.6104397 1.7628226 17.7755906, -3.9300155 3.4055118 17.7755906, -2.8476171 4.8161210 17.7755906, -1.4370079 5.8985195 17.7755906, 0.2056813 6.5789436 17.7755906, 1.9685039 6.8110236 17.7755906, 3.7313266 6.5789436 17.7755906, 5.3740157 5.8985195 17.7755906, 6.7846249 4.8161210 17.7755906, 7.8670234 3.4055118 17.7755906, 8.5474476 1.7628226 17.7755906, 1.9685039 0.0000000 17.6574803, 1.9685039 0.0000000 17.7755906 ] } coordIndex [ 25 1 0 -1, 24 25 0 -1, 0 1 48 -1, 25 24 49 -1, 26 2 1 -1, 25 26 1 -1, 1 2 48 -1, 26 25 49 -1, 27 3 2 -1, 26 27 2 -1, 2 3 48 -1, 27 26 49 -1, 28 4 3 -1, 27 28 3 -1, 3 4 48 -1, 28 27 49 -1, 29 5 4 -1, 28 29 4 -1, 4 5 48 -1, 29 28 49 -1, 30 6 5 -1, 29 30 5 -1, 5 6 48 -1, 30 29 49 -1, 31 7 6 -1, 30 31 6 -1, 6 7 48 -1, 31 30 49 -1, 32 8 7 -1, 31 32 7 -1, 7 8 48 -1, 32 31 49 -1, 33 9 8 -1, 32 33 8 -1, 8 9 48 -1, 33 32 49 -1, 34 10 9 -1, 33 34 9 -1, 9 10 48 -1, 34 33 49 -1, 35 11 10 -1, 34 35 10 -1, 10 11 48 -1, 35 34 49 -1, 36 12 11 -1, 35 36 11 -1, 11 12 48 -1, 36 35 49 -1, 37 13 12 -1, 36 37 12 -1, 12 13 48 -1, 37 36 49 -1, 38 14 13 -1, 37 38 13 -1, 13 14 48 -1, 38 37 49 -1, 39 15 14 -1, 38 39 14 -1, 14 15 48 -1, 39 38 49 -1, 40 16 15 -1, 39 40 15 -1, 15 16 48 -1, 40 39 49 -1, 41 17 16 -1, 40 41 16 -1, 16 17 48 -1, 41 40 49 -1, 42 18 17 -1, 41 42 17 -1, 17 18 48 -1, 42 41 49 -1, 43 19 18 -1, 42 43 18 -1, 18 19 48 -1, 43 42 49 -1, 44 20 19 -1, 43 44 19 -1, 19 20 48 -1, 44 43 49 -1, 45 21 20 -1, 44 45 20 -1, 20 21 48 -1, 45 44 49 -1, 46 22 21 -1, 45 46 21 -1, 21 22 48 -1, 46 45 49 -1, 47 23 22 -1, 46 47 22 -1, 22 23 48 -1, 47 46 49 -1, 24 0 23 -1, 47 24 23 -1, 23 0 48 -1, 24 47 49 -1 ] } }
