#VRML V2.0 utf8
Shape { appearance Appearance { material Material { diffuseColor 0.13 0.14 0.16 } } geometry IndexedFaceSet { solid FALSE coord Coordinate { point [ 1.9842520 0.0000000 0.5905512, 1.9507144 -0.2547432 0.5905512, 1.8523872 -0.4921260 0.5905512, 1.6959712 -0.6959712 0.5905512, 1.4921260 -0.8523872 0.5905512, 1.2547432 -0.9507144 0.5905512, 1.0000000 -0.9842520 0.5905512, 0.7452568 -0.9507144 0.5905512, 0.5078740 -0.8523872 0.5905512, 0.3040288 -0.6959712 0.5905512, 0.1476128 -0.4921260 0.5905512, 0.0492856 -0.2547432 0.5905512, 0.0157480 -0.0000000 0.5905512, 0.0492856 0.2547432 0.5905512, 0.1476128 0.4921260 0.5905512, 0.3040288 0.6959712 0.5905512, 0.5078740 0.8523872 0.5905512, 0.7452568 0.9507144 0.5905512, 1.0000000 0.9842520 0.5905512, 1.2547432 0.9507144 0.5905512, 1.4921260 0.8523872 0.5905512, 1.6959712 0.6959712 0.5905512, 1.8523872 0.4921260 0.5905512, 1.9507144 0.2547432 0.5905512, 1.9842520 0.0000000 2.5590551, 1.9507144 -0.2547432 2.5590551, 1.8523872 -0.4921260 2.5590551, 1.6959712 -0.6959712 2.5590551, 1.4921260 -0.8523872 2.5590551, 1.2547432 -0.9507144 2.5590551, 1.0000000 -0.9842520 2.5590551, 0.7452568 -0.9507144 2.5590551, 0.5078740 -0.8523872 2.5590551, 0.3040288 -0.6959712 2.5590551, 0.1476128 -0.4921260 2.5590551, 0.0492856 -0.2547432 2.5590551, 0.0157480 -0.0000000 2.5590551, 0.0492856 0.2547432 2.5590551, 0.1476128 0.4921260 2.5590551, 0.3040288 0.6959712 2.5590551, 0.5078740 0.8523872 2.5590551, 0.7452568 0.9507144 2.5590551, 1.0000000 0.9842520 2.5590551, 1.2547432 0.9507144 2.5590551, 1.4921260 0.8523872 2.5590551, 1.6959712 0.6959712 2.5590551, 1.8523872 0.4921260 2.5590551, 1.9507144 0.2547432 2.5590551, 1.0000000 0.0000000 0.5905512, 1.0000000 0.0000000 2.5590551 ] } coordIndex [ 25 1 0 -1, 24 25 0 -1, 0 1 48 -1, 25 24 49 -1, 26 2 1 -1, 25 26 1 -1, 1 2 48 -1, 26 25 49 -1, 27 3 2 -1, 26 27 2 -1, 2 3 48 -1, 27 26 49 -1, 28 4 3 -1, 27 28 3 -1, 3 4 48 -1, 28 27 49 -1, 29 5 4 -1, 28 29 4 -1, 4 5 48 -1, 29 28 49 -1, 30 6 5 -1, 29 30 5 -1, 5 6 48 -1, 30 29 49 -1, 31 7 6 -1, 30 31 6 -1, 6 7 48 -1, 31 30 49 -1, 32 8 7 -1, 31 32 7 -1, 7 8 48 -1, 32 31 49 -1, 33 9 8 -1, 32 33 8 -1, 8 9 48 -1, 33 32 49 -1, 34 10 9 -1, 33 34 9 -1, 9 10 48 -1, 34 33 49 -1, 35 11 10 -1, 34 35 10 -1, 10 11 48 -1, 35 34 49 -1, 36 12 11 -1, 35 36 11 -1, 11 12 48 -1, 36 35 49 -1, 37 13 12 -1, 36 37 12 -1, 12 13 48 -1, 37 36 49 -1, 38 14 13 -1, 37 38 13 -1, 13 14 48 -1, 38 37 49 -1, 39 15 14 -1, 38 39 14 -1, 14 15 48 -1, 39 38 49 -1, 40 16 15 -1, 39 40 15 -1, 15 16 48 -1, 40 39 49 -1, 41 17 16 -1, 40 41 16 -1, 16 17 48 -1, 41 40 49 -1, 42 18 17 -1, 41 42 17 -1, 17 18 48 -1, 42 41 49 -1, 43 19 18 -1, 42 43 18 -1, 18 19 48 -1, 43 42 49 -1, 44 20 19 -1, 43 44 19 -1, 19 20 48 -1, 44 43 49 -1, 45 21 20 -1, 44 45 20 -1, 20 21 48 -1, 45 44 49 -1, 46 22 21 -1, 45 46 21 -1, 21 22 48 -1, 46 45 49 -1, 47 23 22 -1, 46 47 22 -1, 22 23 48 -1, 47 46 49 -1, 24 0 23 -1, 47 24 23 -1, 23 0 48 -1, 24 47 49 -1 ] } }
